<?xml version="1.0" encoding="utf-8"?>
<!-- Generator: Adobe Illustrator 15.1.0, SVG Export Plug-In . SVG Version: 6.00 Build 0)  -->
<!DOCTYPE svg PUBLIC "-//W3C//DTD SVG 1.1//EN" "http://www.w3.org/Graphics/SVG/1.1/DTD/svg11.dtd">
<svg version="1.1"
	 id="Layer_1" sodipodi:docname="ecobee.svg" inkscape:version="0.48.2 r9819" xmlns:sodipodi="http://sodipodi.sourceforge.net/DTD/sodipodi-0.dtd" xmlns:inkscape="http://www.inkscape.org/namespaces/inkscape" xmlns:rdf="http://www.w3.org/1999/02/22-rdf-syntax-ns#" xmlns:svg="http://www.w3.org/2000/svg" xmlns:cc="http://creativecommons.org/ns#" xmlns:dc="http://purl.org/dc/elements/1.1/"
	 xmlns="http://www.w3.org/2000/svg" xmlns:xlink="http://www.w3.org/1999/xlink" x="0px" y="0px" width="44.637px"
	 height="44.637px" viewBox="0 0 44.637 44.637" enable-background="new 0 0 44.637 44.637" xml:space="preserve">
<g>
	<path d="M-0.1,0v44.73h44.737V0H-0.1z M8.354,31.217c-0.547,0.256-1.618,1.421-1.416,0.484c0.521-0.492,0.793-0.949,1.573-1.654
		c0.763-0.695,1.65-1.553,3.044-1.467c1.467,0,2.17,0.151,3.604,0.6c1.436,0.445,2.892,1.188,3.985,0.924
		c1.14-0.276,2.396-1.326,2.902-1.969c0.742,0.226-0.202,1.167-0.424,1.562c-0.687,1.027-1.313,1.726-2.312,2.017
		c-1.094,0.373-2.39,0.217-3.479-0.012c-1.225-0.293-2.421-0.8-3.641-1.125C10.834,30.284,8.884,30.97,8.354,31.217z M28.296,34.916
		c-0.688,1.025-1.311,1.726-2.313,2.016c-1.094,0.373-2.389,0.211-3.479-0.012c-1.234-0.293-2.431-0.799-3.651-1.131
		c-1.354-0.287-3.309,0.397-3.834,0.646c-0.547,0.256-1.623,1.416-1.421,0.484c0.521-0.493,0.798-0.951,1.574-1.654
		c0.767-0.697,1.648-1.553,3.049-1.469c1.466,0,2.17,0.153,3.6,0.602c1.442,0.443,2.899,1.188,3.993,0.925
		c1.14-0.281,2.398-1.326,2.9-1.97C29.453,33.578,28.517,34.516,28.296,34.916z M37.502,30.216
		c-0.688,1.032-1.314,1.727-2.313,2.019c-1.095,0.371-2.395,0.216-3.479-0.014c-1.229-0.291-2.422-0.798-3.646-1.126
		c-1.354-0.29-3.304,0.396-3.833,0.642c-0.548,0.262-1.625,1.423-1.422,0.484c0.526-0.492,0.798-0.949,1.573-1.654
		c0.768-0.694,1.65-1.553,3.051-1.463c1.466-0.004,2.17,0.154,3.604,0.597c1.431,0.447,2.886,1.193,3.98,0.926
		c1.145-0.279,2.398-1.323,2.901-1.966C38.653,28.885,37.717,29.823,37.502,30.216z M36.443,25.377L36.394,25.4H8.263l-0.08-0.039
		l-0.078-0.01c-2.711-0.349-4.758-2.665-4.758-5.399c0-2.47,1.609-4.548,3.882-5.222c0.32-2.058,2.087-3.645,4.235-3.645
		c0.371,0,0.736,0.052,1.092,0.146c1.555-1.728,3.782-2.734,6.128-2.734c2.583,0,4.975,1.226,6.521,3.215
		c1.086-1.067,2.531-1.717,4.118-1.717c2.959,0,5.397,2.182,5.845,5.02c0.272-0.047,0.552-0.114,0.832-0.114
		c2.896,0,5.257,2.357,5.257,5.258C41.256,22.865,39.144,25.153,36.443,25.377z"/>
	<path d="M36,17.373c-0.493,0-0.982,0.134-1.412,0.389l-2.069,1.146l0.271-2.974c0-1.913-1.558-3.468-3.468-3.468
		c-1.335,0-2.525,0.748-3.114,1.955l-1.155,2.383l-1.086-2.415c-0.93-2.079-3.011-3.422-5.284-3.422
		c-1.874,0-3.642,0.922-4.726,2.462l-0.641,0.911l-0.974-0.542c-0.287-0.159-0.583-0.244-0.88-0.244
		c-1.008,0-1.831,0.823-1.831,1.829l0.013,0.114l0.187,1.367L8.543,16.98c-1.552,0.137-2.729,1.414-2.729,2.974
		c0,1.498,1.12,2.771,2.604,2.958l-0.157,0.029h28.08l-0.104-0.013c1.428-0.12,2.546-1.337,2.546-2.77
		C38.783,18.621,37.537,17.373,36,17.373z"/>
</g>
</svg>
