<?xml version="1.0" encoding="utf-8"?>
<!-- Generator: Adobe Illustrator 15.1.0, SVG Export Plug-In . SVG Version: 6.00 Build 0)  -->
<!DOCTYPE svg PUBLIC "-//W3C//DTD SVG 1.1//EN" "http://www.w3.org/Graphics/SVG/1.1/DTD/svg11.dtd">
<svg version="1.1"
	 id="Layer_1" sodipodi:docname="ecobee.svg" inkscape:version="0.48.2 r9819" xmlns:sodipodi="http://sodipodi.sourceforge.net/DTD/sodipodi-0.dtd" xmlns:inkscape="http://www.inkscape.org/namespaces/inkscape" xmlns:rdf="http://www.w3.org/1999/02/22-rdf-syntax-ns#" xmlns:svg="http://www.w3.org/2000/svg" xmlns:cc="http://creativecommons.org/ns#" xmlns:dc="http://purl.org/dc/elements/1.1/"
	 xmlns="http://www.w3.org/2000/svg" xmlns:xlink="http://www.w3.org/1999/xlink" x="0px" y="0px" width="44.637px"
	 height="44.637px" viewBox="0 0 44.637 44.637" enable-background="new 0 0 44.637 44.637" xml:space="preserve">
<g id="Layer_2" transform="translate(1.428,1.2719996)">
</g>
<g>
	<path d="M-0.1,0V44.73h44.737V0H-0.1z M41.66,21.218c-0.742,2.293-3.211,3.552-5.499,2.808c-0.424-0.138-0.812-0.341-1.165-0.592
		c-0.71,0.771-1.688,1.232-2.729,1.295c0.505,0.804,0.789,1.728,0.789,2.702c0,2.862-2.332,5.195-5.196,5.195
		c-1.059,0-2.072-0.341-2.936-0.934c-1.016,1.482-2.686,2.4-4.545,2.4c-1.635,0-3.145-0.723-4.183-1.93
		c-0.924,0.789-2.103,1.244-3.343,1.244c-1.932,0-3.659-1.1-4.537-2.759c-0.425,0.144-0.873,0.224-1.328,0.224
		c-2.301,0-4.175-1.873-4.175-4.171c0-1.122,0.473-2.173,1.255-2.949c-0.101-0.391-0.17-0.793-0.17-1.208
		c0-2.652,2.156-4.81,4.806-4.81l0.168,0.021c0.556-1.991,2.377-3.442,4.521-3.442c1.758,0,3.327,0.996,4.132,2.486
		c0.515-0.423,1.111-0.732,1.752-0.904c0.231-0.292,0.5-0.553,0.806-0.775c-0.014-0.545,0.035-1.086,0.205-1.608
		c0.836-2.578,3.62-3.99,6.195-3.154c0.439,0.143,0.849,0.361,1.229,0.623c1.194-1.337,3.069-1.896,4.842-1.318
		c1.274,0.414,2.264,1.339,2.782,2.527c0.781-0.246,1.621-0.272,2.413-0.016c1.01,0.327,1.829,1.029,2.31,1.975
		c0.396,0.775,0.508,1.637,0.362,2.479C41.691,17.764,42.201,19.559,41.66,21.218z"/>
	<path d="M38.85,17.791l-0.656-0.401l0.282-0.719l0.028-0.075c0.174-0.527,0.129-1.094-0.125-1.591
		c-0.251-0.497-0.685-0.865-1.213-1.038c-0.636-0.206-1.314-0.096-1.862,0.295l-1.257,0.903l-0.229-1.528
		c-0.155-1.027-0.862-1.862-1.847-2.182c-1.266-0.411-2.63,0.146-3.248,1.328l-0.622,1.193l-0.91-0.994
		c-0.352-0.38-0.801-0.669-1.292-0.829c-1.587-0.519-3.297,0.354-3.814,1.939c-0.146,0.444-0.184,0.909-0.11,1.383l0.083,0.575
		c1.421,0.544,2.502,1.78,2.833,3.292c0.666-0.342,1.412-0.536,2.187-0.536c2.381,0,4.358,1.744,4.737,4.025
		c0.895,0.1,1.775-0.377,2.166-1.229l0.643-1.394l0.954,1.199c0.304,0.38,0.705,0.663,1.166,0.812
		c1.299,0.426,2.698-0.291,3.118-1.59C40.213,19.567,39.793,18.4,38.85,17.791z"/>
	<path d="M29.824,24.722l0.105-0.504c0.044-0.198,0.063-0.399,0.063-0.601c0-1.612-1.31-2.923-2.914-2.923
		c-0.976,0-1.881,0.486-2.423,1.298l-1.686-0.826c0.091-0.276,0.141-0.561,0.141-0.848c0-1.481-1.211-2.688-2.693-2.688
		c-0.896,0-1.73,0.444-2.23,1.192l-0.38,0.492l-0.801-0.126l-0.72-0.099l-0.138-0.653c-0.27-1.296-1.431-2.235-2.757-2.235
		c-1.487,0-2.722,1.163-2.809,2.649L10.52,19.99l-1.105-0.277c-0.241-0.06-0.481-0.091-0.708-0.091
		c-1.608,0-2.917,1.308-2.917,2.919c0,0.396,0.078,0.778,0.23,1.139l0.299,0.705l-0.63,0.44c-0.614,0.427-0.981,1.127-0.981,1.875
		c0,1.258,1.024,2.282,2.283,2.282c0.461,0,0.904-0.135,1.284-0.397l1.095-0.744l0.348,1.278c0.384,1.411,1.678,2.396,3.138,2.396
		c1.063,0,2.062-0.522,2.672-1.396l0.895-1.285l0.721,1.391c0.63,1.217,1.871,1.976,3.238,1.976c1.512,0,2.847-0.913,3.402-2.323
		l0.563-1.451l1.029,1.174c0.627,0.724,1.535,1.135,2.483,1.135c1.824,0,3.306-1.482,3.306-3.305c0-0.89-0.347-1.722-0.975-2.345
		L29.824,24.722z"/>
</g>
</svg>
