<?xml version="1.0" encoding="utf-8"?>
<!-- Generator: Adobe Illustrator 15.1.0, SVG Export Plug-In . SVG Version: 6.00 Build 0)  -->
<!DOCTYPE svg PUBLIC "-//W3C//DTD SVG 1.1//EN" "http://www.w3.org/Graphics/SVG/1.1/DTD/svg11.dtd">
<svg version="1.1"
	 id="Layer_1" sodipodi:docname="ecobee.svg" inkscape:version="0.48.2 r9819" xmlns:sodipodi="http://sodipodi.sourceforge.net/DTD/sodipodi-0.dtd" xmlns:inkscape="http://www.inkscape.org/namespaces/inkscape" xmlns:rdf="http://www.w3.org/1999/02/22-rdf-syntax-ns#" xmlns:svg="http://www.w3.org/2000/svg" xmlns:cc="http://creativecommons.org/ns#" xmlns:dc="http://purl.org/dc/elements/1.1/"
	 xmlns="http://www.w3.org/2000/svg" xmlns:xlink="http://www.w3.org/1999/xlink" x="0px" y="0px" width="44.637px"
	 height="44.637px" viewBox="0 0 44.637 44.637" enable-background="new 0 0 44.637 44.637" xml:space="preserve">
<g>
	<path d="M40.407,16.986l-0.062-0.203l0.076-0.366c0.027-0.126,0.041-0.257,0.041-0.389c0-1.036-0.846-1.883-1.885-1.883
		c-0.632,0-1.219,0.312-1.567,0.836l-0.286,0.077l-1.219-0.597l-0.115-0.273c0.062-0.18,0.092-0.361,0.092-0.542
		c0-0.947-0.771-1.719-1.721-1.719c-0.573,0-1.108,0.283-1.428,0.76l-0.28,0.367l-0.212,0.085l-1.099-0.16l-0.19-0.177l-0.098-0.473
		c-0.173-0.834-0.921-1.44-1.775-1.44c-0.959,0-1.752,0.75-1.809,1.708l-0.05,0.824l-0.278,0.205l-0.802-0.203
		c-0.157-0.037-0.313-0.057-0.458-0.057c-1.039,0-1.886,0.844-1.886,1.884c0,0.254,0.051,0.502,0.148,0.734l0.217,0.511
		l-0.078,0.272l-0.455,0.316c-0.385,0.269-0.614,0.707-0.614,1.172c0,0.787,0.64,1.427,1.427,1.427c0.293,0,0.57-0.085,0.802-0.247
		l0.793-0.541l0.345,0.127l0.252,0.928c0.254,0.923,1.101,1.568,2.055,1.568c0.695,0,1.348-0.343,1.747-0.917l0.647-0.926
		l0.385,0.025l0.521,1.004c0.418,0.807,1.24,1.309,2.143,1.309c1.002,0,1.886-0.604,2.248-1.54l0.408-1.049l0.379-0.068l0.743,0.848
		c0.413,0.476,1.009,0.747,1.632,0.747c1.195,0,2.168-0.972,2.169-2.164c0-0.583-0.229-1.129-0.641-1.537L40.407,16.986z"/>
	<path d="M-0.1,0v44.73h44.737V0H-0.1z M16.915,16.169l0.899-2.063c0.198-0.453,0.728-0.661,1.179-0.462
		c0.457,0.197,0.664,0.726,0.466,1.179l-0.899,2.062c-0.199,0.454-0.727,0.661-1.179,0.462
		C16.924,17.15,16.719,16.621,16.915,16.169z M21.044,24.883c0,3.837-3.121,6.957-6.955,6.957c-3.837,0-6.957-3.12-6.957-6.957
		c0-3.822,3.121-6.944,6.957-6.944C17.923,17.939,21.043,21.06,21.044,24.883z M13.193,13.515c0-0.496,0.399-0.896,0.896-0.896
		c0.493,0,0.896,0.399,0.896,0.896v2.25c0,0.496-0.402,0.897-0.896,0.897c-0.497,0-0.896-0.401-0.896-0.897V13.515z M9.602,13.468
		c0.459-0.181,0.979,0.046,1.16,0.504l0.824,2.096c0.18,0.463-0.047,0.982-0.506,1.161c-0.461,0.181-0.983-0.046-1.162-0.504
		l-0.824-2.098C8.914,14.17,9.14,13.65,9.602,13.468z M5.407,16.215c0.352-0.35,0.918-0.35,1.269,0l1.592,1.591
		c0.349,0.351,0.349,0.917,0,1.267c-0.35,0.353-0.917,0.353-1.268,0L5.407,17.48C5.057,17.132,5.057,16.565,5.407,16.215z
		 M2.835,19.986c0.197-0.451,0.726-0.657,1.179-0.462l2.063,0.899c0.454,0.199,0.66,0.726,0.462,1.179s-0.726,0.661-1.18,0.464
		l-2.062-0.899C2.843,20.969,2.637,20.442,2.835,19.986z M1.811,24.884c0-0.494,0.401-0.892,0.896-0.892h2.252
		c0.494,0,0.896,0.398,0.896,0.892c0,0.496-0.4,0.896-0.896,0.896H2.706C2.212,25.781,1.811,25.38,1.811,24.884z M2.661,29.372
		c-0.181-0.462,0.045-0.982,0.505-1.161l2.098-0.824c0.46-0.179,0.979,0.047,1.16,0.509c0.18,0.46-0.047,0.979-0.508,1.16
		l-2.093,0.823C3.362,30.059,2.841,29.832,2.661,29.372z M8.267,31.973l-1.592,1.593c-0.351,0.351-0.917,0.351-1.269,0
		c-0.352-0.349-0.352-0.917,0-1.265l1.592-1.593c0.35-0.351,0.918-0.351,1.269,0C8.616,31.057,8.616,31.622,8.267,31.973z
		 M11.26,33.612l-0.899,2.062c-0.198,0.455-0.726,0.66-1.18,0.463c-0.452-0.196-0.659-0.727-0.463-1.179l0.9-2.062
		c0.195-0.453,0.724-0.661,1.179-0.465C11.252,32.628,11.458,33.156,11.26,33.612z M14.985,36.266c0,0.495-0.402,0.896-0.896,0.896
		c-0.497,0-0.896-0.402-0.896-0.896v-2.253c0-0.493,0.399-0.896,0.896-0.896c0.493,0,0.896,0.403,0.896,0.896V36.266z
		 M18.576,36.312c-0.46,0.18-0.98-0.047-1.161-0.508l-0.823-2.095c-0.182-0.459,0.045-0.98,0.506-1.161
		c0.461-0.182,0.981,0.046,1.161,0.506l0.823,2.095C19.265,35.61,19.036,36.131,18.576,36.312z M22.77,33.565
		c-0.351,0.351-0.92,0.351-1.267,0l-1.594-1.594c-0.351-0.349-0.351-0.916,0-1.265c0.35-0.351,0.917-0.351,1.268,0l1.593,1.593
		C23.122,32.648,23.122,33.215,22.77,33.565z M25.345,29.792c-0.198,0.452-0.725,0.659-1.178,0.464l-2.067-0.9
		c-0.453-0.196-0.66-0.727-0.462-1.181c0.197-0.452,0.728-0.659,1.182-0.462l2.063,0.899C25.336,28.81,25.539,29.338,25.345,29.792z
		 M25.472,25.779H23.22c-0.496,0-0.899-0.399-0.899-0.896c0-0.494,0.403-0.892,0.899-0.892h2.252c0.493,0,0.896,0.398,0.896,0.892
		C26.368,25.379,25.967,25.779,25.472,25.779z M39.142,22.767c-0.724,0-1.435-0.204-2.065-0.592
		c-0.798,1.036-2.032,1.646-3.345,1.646c-0.125,0-0.253-0.006-0.396-0.021l-0.218-0.028c-0.938-0.138-1.793-0.581-2.438-1.256
		c-0.69,0.526-1.533,0.812-2.394,0.812c-1.399,0-2.683-0.74-3.392-1.947c-0.28,0.078-0.568,0.119-0.854,0.119
		c-1.791,0-3.246-1.457-3.246-3.247c0-0.813,0.312-1.589,0.885-2.198c-0.071-0.299-0.103-0.558-0.103-0.81
		c0-2.028,1.643-3.681,3.665-3.701c0.492-1.467,1.879-2.476,3.435-2.476c1.24,0,2.388,0.642,3.054,1.692
		c0.604-0.427,1.314-0.658,2.029-0.658c1.553,0,2.934,1.042,3.383,2.515c0.457-0.197,0.94-0.295,1.435-0.295
		c2.041,0,3.701,1.659,3.701,3.7c0,0.097-0.012,0.186-0.025,0.271c0,0.009-0.002,0.016-0.004,0.024
		c0.575,0.718,0.877,1.568,0.876,2.467C43.124,20.98,41.337,22.767,39.142,22.767z"/>
	<path d="M14.089,19.731c-2.849,0-5.165,2.316-5.165,5.152c0,2.849,2.316,5.165,5.165,5.165c2.846,0,5.163-2.316,5.164-5.165
		C19.253,22.046,16.936,19.731,14.089,19.731z"/>
</g>
</svg>
