<?xml version="1.0" encoding="utf-8"?>
<!-- Generator: Adobe Illustrator 15.1.0, SVG Export Plug-In . SVG Version: 6.00 Build 0)  -->
<!DOCTYPE svg PUBLIC "-//W3C//DTD SVG 1.1//EN" "http://www.w3.org/Graphics/SVG/1.1/DTD/svg11.dtd">
<svg version="1.1"
	 id="Layer_1" sodipodi:docname="ecobee.svg" inkscape:version="0.48.2 r9819" xmlns:sodipodi="http://sodipodi.sourceforge.net/DTD/sodipodi-0.dtd" xmlns:inkscape="http://www.inkscape.org/namespaces/inkscape" xmlns:rdf="http://www.w3.org/1999/02/22-rdf-syntax-ns#" xmlns:svg="http://www.w3.org/2000/svg" xmlns:cc="http://creativecommons.org/ns#" xmlns:dc="http://purl.org/dc/elements/1.1/"
	 xmlns="http://www.w3.org/2000/svg" xmlns:xlink="http://www.w3.org/1999/xlink" x="0px" y="0px" width="44.637px"
	 height="44.637px" viewBox="0 0 44.637 44.637" enable-background="new 0 0 44.637 44.637" xml:space="preserve">
<g id="Layer_2" transform="translate(1.428,1.2719996)">
</g>
<g>
	<path d="M-0.1,0V44.73h44.737V0H-0.1z M7.044,32.551c0-0.455,0.366-0.82,0.817-0.82h4.375c0.456,0,0.819,0.365,0.819,0.82
		c0,0.451-0.365,0.815-0.819,0.815H7.862C7.41,33.367,7.044,33.002,7.044,32.551z M31.001,28.748c0.454,0,0.817,0.364,0.817,0.817
		c0,0.455-0.365,0.82-0.817,0.82h-4.374c-0.451,0-0.819-0.365-0.819-0.82c0-0.453,0.368-0.817,0.819-0.817H31.001z M30.889,26.588
		c0-0.455,0.366-0.82,0.82-0.82h4.375c0.449,0,0.815,0.365,0.815,0.82c0,0.453-0.366,0.817-0.815,0.817h-4.375
		C31.256,27.406,30.889,27.039,30.889,26.588z M36.084,31.73c0.449,0,0.815,0.366,0.815,0.82c0,0.452-0.366,0.816-0.815,0.816
		h-4.375c-0.454,0-0.82-0.366-0.82-0.816c0-0.454,0.366-0.82,0.82-0.82H36.084z M28.951,32.551c0,0.451-0.365,0.815-0.818,0.815
		h-4.371c-0.447,0-0.812-0.366-0.812-0.815c0-0.455,0.365-0.82,0.812-0.82h4.371C28.585,31.73,28.951,32.098,28.951,32.551z
		 M28.133,27.406h-4.372c-0.447,0-0.812-0.366-0.812-0.817c0-0.455,0.365-0.82,0.812-0.82h4.372c0.453,0,0.818,0.365,0.818,0.82
		C28.951,27.039,28.585,27.406,28.133,27.406z M23.059,28.748c0.451,0,0.815,0.364,0.815,0.817c0,0.455-0.364,0.82-0.815,0.82
		h-4.372c-0.456,0-0.82-0.365-0.82-0.82c0-0.453,0.365-0.817,0.82-0.817H23.059z M21.008,32.551c0,0.451-0.367,0.815-0.82,0.815
		h-4.372c-0.455,0-0.821-0.366-0.821-0.815c0-0.455,0.366-0.82,0.821-0.82h4.372C20.639,31.73,21.008,32.098,21.008,32.551z
		 M20.187,27.406h-4.372c-0.455,0-0.821-0.366-0.821-0.817c0-0.455,0.366-0.82,0.821-0.82h4.372c0.453,0,0.82,0.365,0.82,0.82
		C21.008,27.039,20.639,27.406,20.187,27.406z M15.107,28.748c0.452,0,0.819,0.364,0.819,0.817c0,0.455-0.368,0.82-0.819,0.82
		h-4.375c-0.45,0-0.816-0.365-0.816-0.82c0-0.453,0.366-0.817,0.816-0.817H15.107z M12.237,27.406H7.862
		c-0.452,0-0.817-0.366-0.817-0.817c0-0.455,0.366-0.82,0.817-0.82h4.375c0.456,0,0.819,0.365,0.819,0.82
		C13.057,27.039,12.693,27.406,12.237,27.406z M15.107,36.35h-4.375c-0.45,0-0.816-0.364-0.816-0.817s0.366-0.818,0.816-0.818h4.375
		c0.452,0,0.819,0.365,0.819,0.818C15.927,35.986,15.558,36.35,15.107,36.35z M23.059,36.35h-4.372c-0.456,0-0.82-0.364-0.82-0.817
		s0.365-0.818,0.82-0.818h4.372c0.451,0,0.815,0.365,0.815,0.818S23.509,36.35,23.059,36.35z M31.001,36.35h-4.374
		c-0.451,0-0.819-0.364-0.819-0.817s0.368-0.818,0.819-0.818h4.374c0.454,0,0.817,0.365,0.817,0.818
		C31.821,35.986,31.453,36.35,31.001,36.35z M38.953,36.35h-4.374c-0.454,0-0.82-0.364-0.82-0.817s0.366-0.818,0.82-0.818h4.374
		c0.45,0,0.815,0.365,0.815,0.818C39.771,35.986,39.404,36.35,38.953,36.35z M38.953,30.388h-4.374c-0.454,0-0.82-0.364-0.82-0.82
		c0-0.453,0.366-0.817,0.82-0.817h4.374c0.45,0,0.815,0.364,0.815,0.817C39.771,30.022,39.404,30.388,38.953,30.388z M36.385,24.223
		l-0.049,0.021H8.22l-0.08-0.038l-0.078-0.011c-2.71-0.351-4.757-2.681-4.757-5.415c0-2.468,1.609-4.548,3.882-5.223
		c0.32-2.058,2.087-3.645,4.236-3.645c0.371,0,0.736,0.05,1.091,0.146c1.556-1.729,3.783-2.735,6.129-2.735
		c2.582,0,4.966,1.227,6.504,3.215c1.086-1.067,2.532-1.716,4.119-1.716c2.958,0,5.398,2.184,5.844,5.019
		c0.273-0.046,0.553-0.114,0.833-0.114c2.896,0,5.258,2.357,5.258,5.256C41.199,21.694,39.085,23.995,36.385,24.223z"/>
	<path d="M35.943,16.201c-0.493,0-0.982,0.134-1.412,0.388l-2.069,1.146l0.271-2.973c0-1.913-1.557-3.467-3.466-3.467
		c-1.336,0-2.524,0.749-3.115,1.957l-1.153,2.382l-1.079-2.415c-0.927-2.079-3.002-3.422-5.274-3.422
		c-1.874,0-3.641,0.922-4.726,2.463l-0.641,0.91l-0.975-0.542c-0.287-0.16-0.583-0.245-0.88-0.245c-1.008,0-1.831,0.824-1.831,1.829
		l0.013,0.113l0.187,1.367l-1.289,0.115c-1.552,0.134-2.728,1.414-2.728,2.973c0,1.497,1.119,2.77,2.604,2.959L8.22,21.77h28.063
		l-0.104-0.014c1.428-0.122,2.546-1.339,2.546-2.772C38.727,17.449,37.48,16.201,35.943,16.201z"/>
</g>
</svg>
