<?xml version="1.0" encoding="utf-8"?>
<!-- Generator: Adobe Illustrator 15.1.0, SVG Export Plug-In . SVG Version: 6.00 Build 0)  -->
<!DOCTYPE svg PUBLIC "-//W3C//DTD SVG 1.1//EN" "http://www.w3.org/Graphics/SVG/1.1/DTD/svg11.dtd">
<svg version="1.1"
	 id="Layer_1" sodipodi:docname="ecobee.svg" inkscape:version="0.48.2 r9819" xmlns:sodipodi="http://sodipodi.sourceforge.net/DTD/sodipodi-0.dtd" xmlns:inkscape="http://www.inkscape.org/namespaces/inkscape" xmlns:rdf="http://www.w3.org/1999/02/22-rdf-syntax-ns#" xmlns:svg="http://www.w3.org/2000/svg" xmlns:cc="http://creativecommons.org/ns#" xmlns:dc="http://purl.org/dc/elements/1.1/"
	 xmlns="http://www.w3.org/2000/svg" xmlns:xlink="http://www.w3.org/1999/xlink" x="0px" y="0px" width="44.637px"
	 height="44.637px" viewBox="0 0 44.637 44.637" enable-background="new 0 0 44.637 44.637" xml:space="preserve">
<path d="M-0.1,0v44.73h44.737V0H-0.1z M37.112,24.588c0.154,0.653-0.258,1.203-0.762,1.319c-0.419,0.097-1.023,0.02-1.6,0.02
	c-0.626,0-1.206,0.066-1.58-0.02c-0.425-0.099-0.797-0.478-0.799-1.04c-0.003-0.581,0.402-0.953,0.854-1.021
	c0.67-0.104,1.665-0.02,2.397-0.02c0.213,0,0.538-0.038,0.762,0.02C36.799,23.948,37.047,24.315,37.112,24.588z M35.085,18.914
	c0.643-0.034,0.938,0.347,1.116,0.816c0,0.161,0,0.322,0,0.483c-0.171,0.564-0.554,0.706-1.116,0.929
	c-0.455,0.181-1.004,0.372-1.469,0.558c-0.351,0.142-0.672,0.367-1.135,0.28c-0.433-0.08-0.777-0.457-0.836-0.837
	c-0.142-0.913,0.564-1.152,1.189-1.395c0.447-0.175,0.928-0.375,1.395-0.559C34.506,19.085,34.781,18.93,35.085,18.914z
	 M29.377,16.738c0.113-0.196,0.374-0.446,0.54-0.612c0.4-0.402,0.718-0.72,1.151-1.152c0.286-0.285,0.499-0.546,0.91-0.612
	c0.682-0.11,1.543,0.549,1.172,1.45c-0.096,0.233-0.381,0.454-0.558,0.632c-0.413,0.416-0.758,0.76-1.189,1.19
	c-0.274,0.273-0.495,0.625-0.93,0.688C29.521,18.456,28.953,17.486,29.377,16.738z M25.957,14.768
	c0.047-0.234,0.195-0.508,0.298-0.743c0.204-0.47,0.427-0.965,0.632-1.432c0.212-0.481,0.336-0.939,0.967-1.041
	c0.729-0.117,1.427,0.492,1.208,1.32c-0.116,0.439-0.363,0.824-0.595,1.376c-0.095,0.227-0.2,0.466-0.297,0.688
	c-0.248,0.562-0.408,1.188-1.265,1.134C26.309,16.031,25.813,15.501,25.957,14.768z M22.575,10.417c0.011-0.002,0.024,0.001,0.036,0
	c0.554-0.055,1.021,0.356,1.115,0.799c0.084,0.383,0.021,1.138,0.021,1.581c0,0.285,0,0.532,0,0.799
	c0,0.211,0.039,0.485-0.021,0.763c-0.224,1.063-1.946,1.113-2.1-0.147c-0.049-0.403,0-0.893,0-1.414
	C21.627,11.498,21.465,10.625,22.575,10.417z M28.412,19.025c1.398,1.4,2.428,3.241,2.472,5.825
	c-0.663,0.043-1.407,0.006-2.101,0.018c-0.078-1.875-0.732-3.21-1.729-4.206c-0.983-0.983-2.233-1.765-4.052-1.878
	c-0.199-0.011-0.397-0.009-0.594,0c-1.729,0.094-2.976,0.8-3.959,1.748c-1.043,1.004-1.78,2.37-1.822,4.337
	c-0.706,0-1.413,0-2.119,0c0.037-2.557,1.051-4.384,2.324-5.731c1.099-1.162,2.72-2.093,4.666-2.379
	C24.439,16.324,26.941,17.554,28.412,19.025z M17.687,11.347c0.833-0.106,1.085,0.599,1.32,1.208
	c0.156,0.409,0.396,1.043,0.558,1.452c0.114,0.29,0.236,0.507,0.261,0.743c0.108,1.104-1.357,1.579-1.935,0.725
	c-0.115-0.171-0.209-0.458-0.297-0.688c-0.184-0.478-0.362-0.957-0.539-1.411c-0.096-0.246-0.309-0.595-0.315-0.948
	C16.724,11.792,17.182,11.411,17.687,11.347z M13.095,14.359c0.636-0.073,0.858,0.282,1.208,0.631
	c0.398,0.399,0.745,0.744,1.171,1.172c0.309,0.308,0.686,0.543,0.688,1.098c0.006,0.763-0.769,1.288-1.487,0.984
	c-0.217-0.092-0.443-0.368-0.651-0.575c-0.403-0.405-0.824-0.809-1.227-1.208c-0.203-0.203-0.453-0.402-0.558-0.651
	C11.926,15.061,12.491,14.428,13.095,14.359z M10.195,18.486c0.501-0.09,0.775,0.111,1.172,0.278
	c0.56,0.236,0.836,0.383,1.412,0.631c0.548,0.237,1.265,0.452,1.115,1.396c-0.073,0.467-0.588,0.946-1.264,0.816
	c-0.231-0.044-0.492-0.187-0.743-0.297c-0.466-0.206-0.969-0.417-1.45-0.632c-0.527-0.236-1.075-0.382-1.079-1.171
	C9.356,18.959,9.723,18.57,10.195,18.486z M8.262,24.607c0.084-0.39,0.45-0.705,0.854-0.762c0.614-0.086,1.652-0.02,2.36-0.02
	c0.253,0,0.66-0.028,0.874,0.056c0.433,0.175,0.817,0.716,0.614,1.34c-0.088,0.268-0.385,0.58-0.706,0.669
	c-0.385,0.105-1.026,0.037-1.599,0.037c-0.561,0-1.218,0.072-1.617-0.02C8.569,25.799,8.115,25.285,8.262,24.607z M41.934,30.035
	c-0.113,0.155-0.672,0.375-0.854,0.482c-0.69,0.404-1.368,0.854-2.064,1.246c-0.184,0.104-0.399,0.299-0.669,0.277
	c-0.2-0.013-0.31-0.158-0.39-0.296c-0.005-0.61,0.367-0.848,0.52-1.303c-1.084,0.617-2.125,1.287-3.252,1.935
	c-0.254,0.146-0.383,0.271-0.744,0.241c-0.729-0.414,0.07-1.086,0.429-1.469c0.299-0.32,0.571-0.604,0.799-0.854
	c-0.555,0.298-1.116,0.648-1.692,0.984c-0.24,0.142-0.529,0.399-0.891,0.354c-0.211-0.027-0.417-0.229-0.372-0.539
	c0.043-0.295,0.415-0.659,0.594-0.894c0.226-0.289,0.476-0.567,0.65-0.834c-1.599,0.87-3.355,2.06-5.037,2.991
	c-0.253,0.141-0.541,0.328-0.762,0.372c-0.367,0.073-0.733-0.206-0.558-0.633c0.122-0.296,0.499-0.53,0.78-0.779
	c0.278-0.249,0.564-0.516,0.798-0.743c-0.604,0.321-1.175,0.7-1.803,1.061c-0.291,0.166-0.504,0.328-0.93,0.313
	c-0.779-0.479,0.284-1.24,0.465-1.71c-0.559,0.313-1.241,0.761-1.859,1.115c-0.27,0.154-0.603,0.46-1.003,0.334
	c-0.177-0.055-0.312-0.288-0.279-0.521c0.045-0.311,0.534-0.753,0.727-0.967c0.287-0.321,0.554-0.578,0.799-0.891
	c-1.265,0.718-2.782,1.671-4.152,2.454c-0.213,0.121-0.41,0.272-0.595,0.332c-0.345,0.112-0.718-0.076-0.65-0.5
	c0.042-0.268,0.337-0.524,0.521-0.743c0.209-0.251,0.42-0.475,0.577-0.688c-0.832,0.45-1.815,1.101-2.771,1.638
	c-0.285,0.16-0.669,0.483-1.003,0.465c-0.243-0.014-0.457-0.213-0.409-0.539c0.036-0.252,0.292-0.512,0.465-0.743
	c0.18-0.241,0.385-0.458,0.502-0.687c-0.657,0.34-1.489,0.944-2.212,1.356c-0.251,0.144-0.534,0.349-0.78,0.408
	c-0.453,0.112-0.785-0.268-0.559-0.668c0.219-0.387,0.759-0.891,0.967-1.191c-0.194,0.042-0.344,0.192-0.521,0.299
	c-1.028,0.614-2.048,1.278-3.161,1.878c-0.279,0.149-0.643,0.361-0.911,0.11c-0.097-0.091-0.173-0.308-0.11-0.501
	c0.08-0.253,0.386-0.48,0.612-0.725c0.249-0.27,0.477-0.525,0.632-0.706c-0.625,0.371-1.499,0.883-2.213,1.303
	c-0.256,0.149-0.504,0.332-0.742,0.407c-0.289,0.09-0.532-0.045-0.651-0.26c0-0.104,0-0.212,0-0.315
	c0.505-0.723,1.161-1.293,1.747-1.934c-0.702,0.347-1.538,0.961-2.342,1.413c-0.248,0.139-0.617,0.38-0.893,0.353
	c-0.246-0.022-0.481-0.276-0.372-0.595c0.122-0.352,0.65-0.899,0.799-1.152c0-0.007,0-0.012,0-0.019
	c-0.296,0.121-0.562,0.356-0.872,0.538c-0.285,0.168-0.618,0.423-0.931,0.465c-0.344,0.046-0.564-0.229-0.521-0.539
	c0.063-0.448,0.443-0.929,0.539-1.319c-0.439,0.21-0.939,0.531-1.432,0.816c-0.14,0.084-0.338,0.24-0.503,0.262
	c-0.419,0.055-0.691-0.4-0.446-0.724c0.118-0.155,0.553-0.324,0.801-0.464c0.479-0.272,1.099-0.663,1.58-0.949
	c0.25-0.147,0.54-0.376,0.8-0.444c0.337-0.091,0.625,0.122,0.595,0.464C6.7,28.095,6.56,28.36,6.46,28.591
	c-0.099,0.228-0.242,0.428-0.298,0.669c0.547-0.283,1.185-0.726,1.785-1.078c0.195-0.116,0.438-0.299,0.632-0.335
	c0.417-0.077,0.726,0.244,0.576,0.633c-0.16,0.416-0.63,0.762-0.818,1.171c0.833-0.472,1.833-1.135,2.751-1.674
	c0.32-0.188,0.643-0.421,0.947-0.521c0.354-0.116,0.716,0.093,0.688,0.465c-0.016,0.212-0.23,0.43-0.372,0.595
	c-0.447,0.521-0.962,0.961-1.394,1.469c0.767-0.435,1.498-0.894,2.305-1.376c0.331-0.197,0.593-0.435,1.061-0.428
	c0.135,0.063,0.233,0.163,0.297,0.297c0.028,0.487-0.385,0.826-0.633,1.078c-0.26,0.267-0.488,0.498-0.688,0.742
	c1.021-0.602,2.139-1.296,3.234-1.914c0.255-0.145,0.473-0.337,0.854-0.261c0.181,0.127,0.324,0.312,0.223,0.595
	c-0.159,0.446-0.762,0.842-0.947,1.209c0.62-0.316,1.235-0.767,1.914-1.152c0.308-0.175,0.535-0.342,0.967-0.335
	c0.615,0.317,0.143,0.887-0.149,1.284c-0.18,0.243-0.385,0.455-0.502,0.668c0.826-0.443,2.011-1.246,2.958-1.784
	c0.321-0.183,0.734-0.482,1.044-0.521c0.348-0.042,0.598,0.199,0.521,0.576c-0.05,0.253-0.354,0.508-0.521,0.706
	c-0.196,0.238-0.378,0.438-0.54,0.668c1.253-0.722,2.935-1.775,4.333-2.564c0.257-0.146,0.538-0.388,0.893-0.314
	c0.224,0.046,0.391,0.32,0.314,0.595c-0.077,0.279-0.552,0.683-0.742,0.893c-0.278,0.307-0.509,0.575-0.762,0.854
	c0.425-0.232,1.032-0.605,1.543-0.909c0.354-0.211,0.817-0.443,1.041,0.057c0.03,0.389-0.219,0.634-0.39,0.873
	c-0.159,0.219-0.302,0.406-0.428,0.612c0.2-0.062,0.375-0.19,0.558-0.299c1.082-0.639,2.146-1.321,3.29-1.97
	c0.291-0.166,0.456-0.327,0.873-0.298C33,27.63,33.1,27.717,33.16,27.841c0.06,0.374-0.169,0.562-0.372,0.763
	c-0.43,0.422-0.938,0.815-1.319,1.227c1.046-0.619,2.371-1.446,3.513-2.101c0.217-0.122,0.477-0.325,0.744-0.314
	c0.27,0.01,0.465,0.254,0.427,0.537c-0.038,0.288-0.448,0.703-0.612,0.911c-0.244,0.312-0.447,0.573-0.669,0.854
	c0.928-0.503,1.798-1.119,2.77-1.654c0.225-0.122,0.355-0.233,0.688-0.205c0.23,0.11,0.389,0.339,0.261,0.632
	c-0.142,0.323-0.502,0.612-0.78,0.911c-0.3,0.321-0.614,0.598-0.816,0.872c0.498-0.258,1.187-0.734,1.747-1.059
	c0.202-0.119,0.435-0.258,0.611-0.316c0.304-0.101,0.662,0.064,0.67,0.409c0.01,0.404-0.403,0.753-0.502,1.097
	c0.472-0.233,0.974-0.549,1.506-0.854c0.167-0.098,0.373-0.247,0.559-0.241C41.847,29.318,42.176,29.703,41.934,30.035z"/>
</svg>
