<?xml version="1.0" encoding="utf-8"?>
<!-- Generator: Adobe Illustrator 15.1.0, SVG Export Plug-In . SVG Version: 6.00 Build 0)  -->
<!DOCTYPE svg PUBLIC "-//W3C//DTD SVG 1.1//EN" "http://www.w3.org/Graphics/SVG/1.1/DTD/svg11.dtd">
<svg version="1.1"
	 id="Layer_1" sodipodi:docname="ecobee.svg" inkscape:version="0.48.2 r9819" xmlns:sodipodi="http://sodipodi.sourceforge.net/DTD/sodipodi-0.dtd" xmlns:inkscape="http://www.inkscape.org/namespaces/inkscape" xmlns:rdf="http://www.w3.org/1999/02/22-rdf-syntax-ns#" xmlns:svg="http://www.w3.org/2000/svg" xmlns:cc="http://creativecommons.org/ns#" xmlns:dc="http://purl.org/dc/elements/1.1/"
	 xmlns="http://www.w3.org/2000/svg" xmlns:xlink="http://www.w3.org/1999/xlink" x="0px" y="0px" width="44.637px"
	 height="44.637px" viewBox="0 0 44.637 44.637" enable-background="new 0 0 44.637 44.637" xml:space="preserve">
<g>
	<circle cx="23.005" cy="22.933" r="3.811"/>
	<path d="M-0.1,0v44.73h44.737V0H-0.1z M37.997,9.476l-0.01,0.006L37.977,9.49L37.97,9.498l-0.103,0.015l-0.104,0.013L36.59,9.763
		c-0.782,0.158-1.499,0.341-2.153,0.549c-0.652,0.21-1.216,0.421-1.69,0.641c-0.477,0.217-0.872,0.431-1.189,0.639
		c-0.316,0.208-0.586,0.415-0.807,0.619c-0.225,0.201-0.419,0.426-0.588,0.674c-0.168,0.247-0.293,0.494-0.371,0.742
		c-0.08,0.248-0.12,0.523-0.12,0.832c0,0.305,0.038,0.594,0.12,0.86c0.078,0.268,0.195,0.528,0.354,0.787
		c0.158,0.258,0.362,0.544,0.61,0.861c0.247,0.316,0.489,0.678,0.728,1.084c0.237,0.405,0.444,0.831,0.624,1.276
		c0.178,0.444,0.325,0.904,0.443,1.381c0.121,0.477,0.198,0.877,0.236,1.204c0.041,0.326,0.057,0.793,0.047,1.396
		c-0.013,0.602-0.058,1.127-0.138,1.58c-0.077,0.455-0.191,0.916-0.34,1.381c-0.147,0.465-0.335,0.929-0.563,1.383
		c-0.228,0.455-0.467,0.864-0.719,1.224c-0.254,0.363-0.51,0.718-0.773,1.069c-0.261,0.352-0.396,0.529-0.402,0.535L29.89,30.49
		l-0.002,0.002l-0.008,0.01l-0.012,0.004l-0.006,0.01l-0.008,0.012l-0.009,0.005L29.83,30.56l-0.014,0.031l-0.009,0.006l-0.008,0.01
		l-0.006,0.011l-0.008,0.008h-0.013h-0.006l-0.006,0.012c-0.007,0.011-0.072,0.087-0.197,0.23c-0.123,0.145-0.383,0.409-0.781,0.801
		c-0.402,0.392-0.821,0.766-1.258,1.121c-0.437,0.356-0.942,0.726-1.521,1.106c-0.578,0.381-1.203,0.74-1.878,1.076
		c-0.672,0.336-1.32,0.625-1.95,0.861c-0.633,0.239-1.296,0.453-1.988,0.641c-0.692,0.188-1.436,0.346-2.228,0.476
		c-0.792,0.129-1.624,0.222-2.495,0.282l-1.307,0.088v0.011v0.009h-0.505h-0.505v-0.012v-0.011l-0.342-0.012
		c-0.228-0.014-0.683-0.041-1.366-0.09s-1.51-0.145-2.479-0.281l-1.455-0.209l-0.061-0.014l-0.06-0.014l-0.074-0.017l-0.074-0.014
		l0.06-0.015l0.06-0.014l0.104-0.016c0.069-0.013,0.228-0.035,0.475-0.074c0.248-0.039,0.729-0.139,1.441-0.297
		c0.712-0.158,1.365-0.338,1.96-0.535c0.594-0.199,1.089-0.39,1.485-0.578c0.395-0.188,0.756-0.392,1.084-0.608
		c0.325-0.218,0.594-0.433,0.802-0.64c0.207-0.209,0.372-0.409,0.496-0.602s0.226-0.404,0.305-0.631
		c0.079-0.229,0.124-0.483,0.133-0.759c0.01-0.276-0.018-0.555-0.083-0.83l-0.095-0.42h-0.005h-0.007l-0.016-0.045l-0.015-0.045
		l-0.253-0.475c-0.167-0.316-0.351-0.604-0.549-0.863c-0.197-0.258-0.416-0.588-0.653-0.994c-0.238-0.403-0.446-0.832-0.624-1.274
		c-0.178-0.445-0.326-0.906-0.446-1.384c-0.118-0.476-0.197-0.872-0.236-1.2c-0.04-0.325-0.056-0.787-0.045-1.389
		c0.01-0.604,0.059-1.15,0.147-1.635c0.089-0.485,0.214-0.965,0.372-1.439c0.158-0.476,0.353-0.939,0.585-1.391
		c0.234-0.449,0.551-0.958,0.95-1.526c0.402-0.57,0.795-1.075,1.176-1.515c0.381-0.441,0.788-0.87,1.225-1.286
		c0.436-0.417,0.871-0.799,1.308-1.144c0.436-0.35,0.896-0.678,1.381-0.995s0.975-0.604,1.47-0.862
		c0.494-0.258,1.067-0.516,1.715-0.772c0.65-0.257,1.292-0.479,1.926-0.668c0.635-0.188,1.309-0.35,2.021-0.488
		c0.711-0.141,1.415-0.243,2.107-0.312c0.692-0.07,1.144-0.11,1.353-0.121s0.312-0.017,0.312-0.024V8.797h0.936h0.936l1.471,0.124
		c0.979,0.084,1.821,0.183,2.523,0.291c0.703,0.107,1.08,0.169,1.131,0.177l0.072,0.015l0.062,0.016l0.057,0.014l0.076,0.016
		l0.079,0.015L37.997,9.476z"/>
</g>
</svg>
