<?xml version="1.0" encoding="utf-8"?>
<!-- Generator: Adobe Illustrator 15.1.0, SVG Export Plug-In . SVG Version: 6.00 Build 0)  -->
<!DOCTYPE svg PUBLIC "-//W3C//DTD SVG 1.1//EN" "http://www.w3.org/Graphics/SVG/1.1/DTD/svg11.dtd">
<svg version="1.1"
	 id="Layer_1" sodipodi:docname="ecobee.svg" inkscape:version="0.48.2 r9819" xmlns:sodipodi="http://sodipodi.sourceforge.net/DTD/sodipodi-0.dtd" xmlns:inkscape="http://www.inkscape.org/namespaces/inkscape" xmlns:rdf="http://www.w3.org/1999/02/22-rdf-syntax-ns#" xmlns:svg="http://www.w3.org/2000/svg" xmlns:cc="http://creativecommons.org/ns#" xmlns:dc="http://purl.org/dc/elements/1.1/"
	 xmlns="http://www.w3.org/2000/svg" xmlns:xlink="http://www.w3.org/1999/xlink" x="0px" y="0px" width="44.637px"
	 height="44.637px" viewBox="0 0 44.637 44.637" enable-background="new 0 0 44.637 44.637" xml:space="preserve">
<g>
	<path d="M-0.1,0v44.73h44.737V0H-0.1z M5.908,28.602v-1.258l2.719,0.351v-0.035l-1.739-2.259l1.128-0.647l1.147,2.573H9.2
		l1.128-2.592l1.109,0.631l-1.757,2.312v0.036l2.793-0.369v1.258L9.682,28.27v0.036l1.776,2.22l-1.166,0.666L9.182,28.6H9.145
		l-1.203,2.609l-1.054-0.666l1.758-2.258V28.25L5.908,28.602z M13.299,38.975l-1.166,0.666l-1.11-2.592h-0.037l-1.202,2.609
		l-1.056-0.665l1.758-2.26v-0.034L7.748,37.05v-1.258l2.72,0.351v-0.036l-1.74-2.258l1.128-0.646l1.147,2.571h0.037l1.128-2.591
		l1.109,0.63l-1.758,2.312v0.036l2.793-0.369l0.001,1.259l-2.794-0.332v0.035L13.299,38.975z M18.573,33.951l-1.109-2.592h-0.037
		l-1.203,2.61l-1.055-0.666l1.757-2.259V31.01l-2.738,0.351v-1.258l2.72,0.352v-0.036l-1.739-2.258l1.128-0.647l1.146,2.572h0.037
		l1.128-2.591l1.11,0.63l-1.758,2.312v0.037l2.794-0.37v1.258l-2.794-0.333v0.037l1.775,2.221L18.573,33.951z M21.602,37.836
		c-0.198,0.411-0.693,0.582-1.106,0.385c-0.411-0.199-0.583-0.695-0.384-1.104c0.197-0.408,1.622-1.443,1.622-1.443
		S21.803,37.424,21.602,37.836z M23.383,34.531c-0.198,0.41-0.694,0.581-1.111,0.384c-0.411-0.2-0.584-0.693-0.385-1.104
		c0.2-0.411,1.623-1.441,1.623-1.441S23.582,34.116,23.383,34.531z M25.272,39.018c-0.198,0.407-0.694,0.58-1.104,0.383
		c-0.41-0.198-0.582-0.692-0.385-1.104c0.198-0.41,1.616-1.443,1.616-1.443S25.471,38.608,25.272,39.018z M23.664,30.504
		c0.201-0.414,1.619-1.444,1.619-1.444s0.065,1.753-0.132,2.164c-0.198,0.411-0.692,0.581-1.104,0.382
		C23.637,31.407,23.467,30.913,23.664,30.504z M27.045,35.709c-0.203,0.412-0.695,0.584-1.105,0.385
		c-0.412-0.199-0.586-0.693-0.387-1.104c0.199-0.411,1.617-1.441,1.617-1.441S27.24,35.299,27.045,35.709z M27.709,32.787
		c-0.41-0.199-0.582-0.693-0.383-1.104c0.196-0.412,1.612-1.441,1.612-1.441s0.072,1.751-0.127,2.164
		C28.615,32.815,28.119,32.99,27.709,32.787z M30.115,37.836c-0.199,0.411-0.695,0.582-1.105,0.385
		c-0.412-0.199-0.582-0.695-0.383-1.104c0.197-0.408,1.615-1.443,1.615-1.443S30.313,37.424,30.115,37.836z M29.098,28.377
		c0.198-0.41,1.617-1.439,1.617-1.439s0.068,1.752-0.131,2.158c-0.201,0.411-0.695,0.584-1.104,0.385
		C29.069,29.281,28.897,28.791,29.098,28.377z M31.883,34.531c-0.197,0.41-0.691,0.581-1.104,0.384
		c-0.413-0.2-0.584-0.693-0.385-1.104s1.617-1.441,1.617-1.441S32.084,34.116,31.883,34.531z M33.656,31.224
		c-0.197,0.411-0.693,0.581-1.105,0.382c-0.409-0.196-0.582-0.691-0.383-1.102c0.199-0.414,1.617-1.444,1.617-1.444
		S33.854,30.813,33.656,31.224z M35.424,27.918c-0.197,0.41-0.691,0.582-1.104,0.381c-0.407-0.198-0.579-0.691-0.383-1.104
		c0.199-0.411,1.617-1.44,1.617-1.44S35.627,27.508,35.424,27.918z M35.408,24.516c-1.107,0-2.166-0.353-3.062-0.971
		c-1.062,1.545-2.805,2.502-4.744,2.502c-0.182,0-0.36-0.012-0.541-0.03c0.013,0.505,0.015,1.589-0.135,1.901
		c-0.199,0.41-0.695,0.582-1.107,0.381c-0.406-0.198-0.579-0.691-0.383-1.104c0.144-0.291,0.894-0.893,1.322-1.217
		c-1.379-0.207-2.623-0.895-3.525-1.944c-0.967,0.821-2.202,1.297-3.498,1.297c-2.017,0-3.823-1.144-4.736-2.88
		c-0.445,0.153-0.912,0.237-1.392,0.237c-2.4,0-4.354-1.957-4.354-4.36c0-1.17,0.491-2.263,1.311-3.074
		c-0.105-0.411-0.182-0.834-0.182-1.264c0-2.768,2.252-5.018,5.017-5.018l0.178,0.024c0.58-2.081,2.483-3.596,4.724-3.596
		c1.84,0,3.482,1.039,4.324,2.599c0.846-0.694,1.899-1.105,3.021-1.105c2.284,0,4.194,1.615,4.665,3.762
		c0.697-0.361,1.474-0.562,2.283-0.562c2.766,0,5.017,2.253,5.017,5.017c0,0.177-0.035,0.349-0.056,0.521
		c0.814,0.973,1.279,2.174,1.279,3.461C40.83,22.078,38.399,24.516,35.408,24.516z"/>
	<path d="M37.461,16.265l0.108-0.529c0.043-0.202,0.064-0.412,0.064-0.626c0-1.679-1.367-3.042-3.043-3.042
		c-1.021,0-1.965,0.505-2.531,1.353l-1.758-0.863c0.095-0.286,0.146-0.583,0.146-0.885c0-1.547-1.26-2.805-2.808-2.805
		c-0.937,0-1.809,0.466-2.33,1.241l-0.395,0.513l-0.84-0.128l-0.75-0.104l-0.143-0.681c-0.281-1.353-1.502-2.338-2.89-2.338
		c-1.553,0-2.842,1.218-2.934,2.771l-0.07,1.189l-1.155-0.292c-0.253-0.062-0.501-0.095-0.741-0.095
		c-1.677,0-3.043,1.365-3.043,3.043c0,0.41,0.082,0.814,0.24,1.188l0.312,0.738l-0.656,0.456c-0.642,0.447-1.023,1.179-1.023,1.958
		c0,1.314,1.069,2.385,2.382,2.385c0.482,0,0.948-0.138,1.344-0.414l1.143-0.779l0.365,1.336c0.403,1.474,1.752,2.505,3.276,2.505
		c1.11,0,2.156-0.544,2.795-1.463l0.939-1.336l0.752,1.45c0.657,1.272,1.957,2.065,3.382,2.065c1.579,0,2.97-0.955,3.544-2.431
		l0.595-1.513l1.071,1.222c0.656,0.755,1.605,1.188,2.599,1.188c1.903,0,3.45-1.551,3.45-3.45c0-0.927-0.362-1.8-1.02-2.449
		L37.461,16.265z"/>
</g>
</svg>
