<?xml version="1.0" encoding="utf-8"?>
<!-- Generator: Adobe Illustrator 15.1.0, SVG Export Plug-In . SVG Version: 6.00 Build 0)  -->
<!DOCTYPE svg PUBLIC "-//W3C//DTD SVG 1.1//EN" "http://www.w3.org/Graphics/SVG/1.1/DTD/svg11.dtd">
<svg version="1.1"
	 id="Layer_1" sodipodi:docname="ecobee.svg" inkscape:version="0.48.2 r9819" xmlns:sodipodi="http://sodipodi.sourceforge.net/DTD/sodipodi-0.dtd" xmlns:inkscape="http://www.inkscape.org/namespaces/inkscape" xmlns:rdf="http://www.w3.org/1999/02/22-rdf-syntax-ns#" xmlns:svg="http://www.w3.org/2000/svg" xmlns:cc="http://creativecommons.org/ns#" xmlns:dc="http://purl.org/dc/elements/1.1/"
	 xmlns="http://www.w3.org/2000/svg" xmlns:xlink="http://www.w3.org/1999/xlink" x="0px" y="0px" width="44.637px"
	 height="44.637px" viewBox="0 0 44.637 44.637" enable-background="new 0 0 44.637 44.637" xml:space="preserve">
<g>
	<path d="M-0.1,0v44.73h44.737V0H-0.1z M17.51,35.469c-6.354,0-11.522-5.169-11.522-11.523c0-4.57,2.788-8.703,6.938-10.514
		c-0.591,1.406-0.889,2.868-0.888,4.365c0,6.41,5.214,11.625,11.629,11.625c1.493,0,2.958-0.3,4.364-0.888
		C26.219,32.682,22.092,35.469,17.51,35.469z M34.813,22.772c-0.725,0-1.434-0.204-2.065-0.593c-0.796,1.038-2.03,1.652-3.345,1.652
		c-0.124,0-0.254-0.007-0.397-0.021l-0.217-0.026c-0.937-0.142-1.793-0.588-2.438-1.263c-0.688,0.526-1.531,0.814-2.392,0.814
		c-1.395,0-2.68-0.743-3.393-1.951c-0.283,0.08-0.572,0.121-0.859,0.121c-1.789,0-3.244-1.457-3.244-3.247
		c0-0.812,0.312-1.588,0.885-2.198c-0.07-0.298-0.103-0.558-0.103-0.809c0-2.028,1.639-3.681,3.667-3.701
		c0.494-1.466,1.883-2.474,3.432-2.474c1.241,0,2.39,0.641,3.054,1.691c0.604-0.427,1.314-0.658,2.03-0.658
		c1.552,0,2.933,1.042,3.382,2.514c0.457-0.197,0.939-0.295,1.435-0.295c2.042,0,3.7,1.659,3.7,3.7c0,0.097-0.012,0.185-0.024,0.271
		c0,0.009-0.002,0.016-0.002,0.024c0.572,0.718,0.875,1.567,0.875,2.466C38.795,20.985,37.008,22.772,34.813,22.772z"/>
	<path d="M36.075,16.99l-0.062-0.204l0.076-0.366c0.026-0.127,0.039-0.257,0.039-0.388c0-1.038-0.844-1.884-1.885-1.884
		c-0.634,0-1.218,0.312-1.566,0.836l-0.285,0.077l-1.221-0.597l-0.113-0.273c0.061-0.18,0.09-0.361,0.09-0.542
		c0-0.947-0.771-1.719-1.719-1.719c-0.574,0-1.108,0.283-1.428,0.76l-0.281,0.367l-0.213,0.085l-1.098-0.16l-0.189-0.177
		l-0.098-0.473c-0.174-0.835-0.922-1.44-1.775-1.44c-0.954,0-1.746,0.75-1.8,1.707l-0.05,0.824l-0.28,0.205l-0.803-0.203
		c-0.159-0.037-0.314-0.056-0.461-0.056c-1.044,0-1.891,0.844-1.891,1.884c0,0.254,0.05,0.502,0.148,0.734l0.216,0.512l-0.078,0.271
		l-0.456,0.316c-0.383,0.269-0.611,0.707-0.611,1.172c0,0.787,0.64,1.428,1.425,1.428c0.294,0,0.572-0.086,0.805-0.247l0.798-0.541
		l0.345,0.126l0.255,0.928c0.254,0.924,1.097,1.569,2.048,1.569c0.693,0,1.347-0.342,1.745-0.917l0.647-0.927l0.385,0.026
		l0.521,1.005c0.418,0.807,1.238,1.309,2.145,1.309c1,0,1.882-0.604,2.246-1.54l0.408-1.049l0.379-0.067l0.744,0.848
		c0.412,0.475,1.008,0.746,1.631,0.746c1.195,0,2.166-0.973,2.166-2.166c0-0.583-0.227-1.129-0.639-1.537L36.075,16.99z"/>
	<path d="M10.362,19.063l-0.171-1.806L9.222,18.79C8.24,20.347,7.72,22.13,7.72,23.946c0,5.398,4.391,9.791,9.79,9.791
		c1.821,0,3.611-0.521,5.167-1.506l1.523-0.969l-1.795-0.171C16.024,30.492,10.963,25.433,10.362,19.063z"/>
</g>
</svg>
