<?xml version="1.0" encoding="utf-8"?>
<!-- Generator: Adobe Illustrator 15.1.0, SVG Export Plug-In . SVG Version: 6.00 Build 0)  -->
<!DOCTYPE svg PUBLIC "-//W3C//DTD SVG 1.1//EN" "http://www.w3.org/Graphics/SVG/1.1/DTD/svg11.dtd">
<svg version="1.1"
	 id="Layer_1" sodipodi:docname="ecobee.svg" inkscape:version="0.48.2 r9819" xmlns:sodipodi="http://sodipodi.sourceforge.net/DTD/sodipodi-0.dtd" xmlns:inkscape="http://www.inkscape.org/namespaces/inkscape" xmlns:rdf="http://www.w3.org/1999/02/22-rdf-syntax-ns#" xmlns:svg="http://www.w3.org/2000/svg" xmlns:cc="http://creativecommons.org/ns#" xmlns:dc="http://purl.org/dc/elements/1.1/"
	 xmlns="http://www.w3.org/2000/svg" xmlns:xlink="http://www.w3.org/1999/xlink" x="0px" y="0px" width="44.637px"
	 height="44.637px" viewBox="0 0 44.637 44.637" enable-background="new 0 0 44.637 44.637" xml:space="preserve">
<g id="Layer_2" transform="translate(1.428,1.2719996)">
</g>
<g>
	<path d="M-0.1,0V44.73h44.737V0H-0.1z M35.219,18.503c0,0.544-0.443,0.986-0.986,0.986h-2.479c-0.545,0-0.988-0.442-0.988-0.986
		c0-0.545,0.443-0.987,0.988-0.987h2.479C34.776,17.516,35.219,17.958,35.219,18.503z M34.283,13.562
		c0.198,0.506-0.052,1.079-0.56,1.277l-2.307,0.905c-0.508,0.199-1.08-0.053-1.281-0.556c-0.199-0.508,0.053-1.079,0.562-1.28
		l2.307-0.905C33.514,12.801,34.084,13.052,34.283,13.562z M28.11,10.694l1.752-1.752c0.388-0.383,1.015-0.383,1.396,0
		c0.387,0.386,0.387,1.011,0,1.396l-1.752,1.752c-0.385,0.385-1.01,0.385-1.396,0C27.727,11.704,27.727,11.08,28.11,10.694z
		 M24.813,8.894l0.99-2.272c0.217-0.5,0.801-0.729,1.301-0.512c0.5,0.22,0.728,0.802,0.513,1.3l-0.99,2.272
		c-0.221,0.499-0.801,0.728-1.299,0.512C24.823,9.972,24.596,9.393,24.813,8.894z M20.709,5.971c0-0.546,0.438-0.989,0.981-0.989
		c0.549,0,0.993,0.443,0.993,0.989v2.479c0,0.546-0.444,0.985-0.993,0.985c-0.544,0-0.981-0.439-0.981-0.985V5.971z M16.753,5.92
		c0.507-0.2,1.078,0.052,1.28,0.555l0.903,2.31c0.2,0.508-0.051,1.075-0.558,1.28c-0.506,0.198-1.077-0.053-1.278-0.56L16.195,7.2
		C15.997,6.692,16.245,6.118,16.753,5.92z M12.134,8.942c0.387-0.383,1.01-0.383,1.396,0l1.752,1.752
		c0.387,0.386,0.387,1.011,0,1.396c-0.384,0.385-1.011,0.385-1.393,0l-1.756-1.752C11.751,9.951,11.751,9.328,12.134,8.942z
		 M9.304,13.097c0.217-0.497,0.799-0.728,1.299-0.51l2.272,0.993c0.5,0.219,0.727,0.799,0.507,1.299
		c-0.219,0.498-0.799,0.728-1.296,0.51l-2.272-0.995C9.313,14.18,9.086,13.598,9.304,13.097z M9.163,17.516h2.479
		c0.541,0,0.984,0.442,0.984,0.987c0,0.544-0.443,0.986-0.984,0.986H9.163c-0.546,0-0.986-0.442-0.986-0.986
		C8.177,17.958,8.617,17.516,9.163,17.516z M34.006,37.434c-1.213,0-2.373-0.389-3.357-1.065c-1.162,1.696-3.071,2.742-5.194,2.742
		c-1.873,0-3.606-0.824-4.796-2.208c-1.056,0.904-2.404,1.429-3.82,1.429c-2.211,0-4.19-1.256-5.191-3.158
		c-0.486,0.166-0.998,0.258-1.521,0.258c-2.633,0-4.774-2.141-4.774-4.772c0-1.283,0.541-2.482,1.438-3.371
		C6.671,26.836,6.59,26.377,6.59,25.9c0-3.027,2.466-5.493,5.497-5.493l0.194,0.026c0.303-1.094,0.942-2.04,1.797-2.731
		c0.401-3.851,3.665-6.857,7.614-6.857c4.229,0,7.667,3.438,7.667,7.661c0,0.42-0.039,0.83-0.104,1.229
		c0.662,0.688,1.141,1.553,1.354,2.516c0.765-0.392,1.617-0.613,2.5-0.613c3.031,0,5.498,2.464,5.498,5.496
		c0,0.193-0.041,0.379-0.059,0.572c0.893,1.065,1.402,2.381,1.402,3.789C39.949,34.77,37.283,37.434,34.006,37.434z"/>
	<path d="M36.252,28.393l0.121-0.578c0.047-0.223,0.071-0.453,0.071-0.682c0-1.844-1.493-3.336-3.338-3.336
		c-1.11,0-2.147,0.553-2.77,1.479l-1.926-0.944c0.104-0.314,0.157-0.64,0.157-0.971c0-1.69-1.381-3.07-3.073-3.07
		c-1.027,0-1.98,0.51-2.554,1.364l-0.436,0.562l-0.923-0.144l-0.822-0.113l-0.156-0.745c-0.31-1.484-1.635-2.562-3.154-2.562
		c-1.702,0-3.111,1.335-3.21,3.033l-0.078,1.302l-1.268-0.316c-0.272-0.069-0.55-0.104-0.811-0.104
		c-1.838,0-3.334,1.494-3.334,3.331c0,0.454,0.088,0.893,0.262,1.307l0.344,0.807l-0.721,0.502c-0.701,0.487-1.12,1.288-1.12,2.143
		c0,1.44,1.171,2.614,2.611,2.614c0.525,0,1.034-0.158,1.469-0.455l1.255-0.855l0.398,1.466c0.441,1.615,1.917,2.743,3.591,2.743
		c1.215,0,2.359-0.601,3.055-1.6l1.022-1.469l0.824,1.591c0.725,1.396,2.147,2.258,3.713,2.258c1.729,0,3.254-1.039,3.885-2.656
		l0.647-1.658l1.173,1.344c0.721,0.822,1.76,1.297,2.848,1.297c2.086,0,3.781-1.694,3.781-3.778c0-1.018-0.396-1.97-1.117-2.686
		L36.252,28.393z"/>
	<path d="M22.184,19.338c0.928-0.761,2.082-1.207,3.312-1.207c0.668,0,1.303,0.127,1.891,0.356c-0.01-3.131-2.557-5.675-5.696-5.675
		c-2.471,0-4.571,1.591-5.354,3.799c0.361-0.073,0.732-0.122,1.114-0.122C19.464,16.49,21.258,17.635,22.184,19.338z"/>
</g>
</svg>
