<?xml version="1.0" encoding="utf-8"?>
<!-- Generator: Adobe Illustrator 15.1.0, SVG Export Plug-In . SVG Version: 6.00 Build 0)  -->
<!DOCTYPE svg PUBLIC "-//W3C//DTD SVG 1.1//EN" "http://www.w3.org/Graphics/SVG/1.1/DTD/svg11.dtd">
<svg version="1.1"
	 id="Layer_1" sodipodi:docname="ecobee.svg" inkscape:version="0.48.2 r9819" xmlns:sodipodi="http://sodipodi.sourceforge.net/DTD/sodipodi-0.dtd" xmlns:inkscape="http://www.inkscape.org/namespaces/inkscape" xmlns:rdf="http://www.w3.org/1999/02/22-rdf-syntax-ns#" xmlns:svg="http://www.w3.org/2000/svg" xmlns:cc="http://creativecommons.org/ns#" xmlns:dc="http://purl.org/dc/elements/1.1/"
	 xmlns="http://www.w3.org/2000/svg" xmlns:xlink="http://www.w3.org/1999/xlink" x="0px" y="0px" width="44.637px"
	 height="44.637px" viewBox="0 0 44.637 44.637" enable-background="new 0 0 44.637 44.637" xml:space="preserve">
<g id="Layer_2" transform="translate(1.428,1.2719996)">
</g>
<g>
	<path fill="#020202" d="M-0.1,0V44.73h44.737V0H-0.1z M8.05,33.298c-0.412-0.199-0.584-0.692-0.385-1.106
		c0.199-0.405,1.618-1.438,1.618-1.438s0.067,1.751-0.132,2.161C8.954,33.325,8.459,33.498,8.05,33.298z M10.737,37.636
		c-0.198,0.411-0.694,0.581-1.104,0.384c-0.41-0.197-0.582-0.693-0.382-1.104c0.2-0.408,1.618-1.443,1.618-1.443
		S10.937,37.224,10.737,37.636z M9.818,29.99c-0.408-0.197-0.582-0.692-0.383-1.103c0.198-0.408,1.619-1.446,1.619-1.446
		s0.069,1.754-0.13,2.167C10.725,30.02,10.23,30.191,9.818,29.99z M12.509,34.329c-0.198,0.411-0.692,0.582-1.104,0.384
		c-0.41-0.199-0.585-0.693-0.384-1.104c0.2-0.409,1.618-1.44,1.618-1.44S12.707,33.916,12.509,34.329z M11.589,26.685
		c-0.408-0.198-0.581-0.692-0.38-1.103c0.198-0.407,1.615-1.437,1.615-1.437s0.071,1.745-0.129,2.156S12,26.885,11.589,26.685z
		 M12.792,30.303c0.201-0.414,1.619-1.443,1.619-1.443s0.067,1.752-0.134,2.164c-0.196,0.41-0.692,0.581-1.104,0.383
		C12.765,31.207,12.594,30.713,12.792,30.303z M14.398,38.818c-0.199,0.407-0.692,0.58-1.104,0.384
		c-0.411-0.198-0.583-0.693-0.383-1.105c0.198-0.411,1.615-1.443,1.615-1.443S14.596,38.406,14.398,38.818z M14.562,26.994
		c0.202-0.412,1.62-1.44,1.62-1.44s0.068,1.754-0.13,2.164s-0.694,0.581-1.106,0.38C14.538,27.901,14.365,27.406,14.562,26.994z
		 M16.171,35.509c-0.199,0.412-0.696,0.584-1.106,0.384c-0.412-0.199-0.583-0.691-0.383-1.104c0.2-0.407,1.617-1.44,1.617-1.44
		S16.368,35.099,16.171,35.509z M16.838,32.587c-0.412-0.2-0.584-0.694-0.385-1.104c0.199-0.412,1.617-1.441,1.617-1.441
		s0.07,1.751-0.129,2.163C17.742,32.615,17.247,32.787,16.838,32.587z M19.24,37.636c-0.198,0.411-0.69,0.581-1.104,0.384
		c-0.41-0.197-0.582-0.693-0.382-1.104c0.197-0.408,1.618-1.443,1.618-1.443S19.439,37.224,19.24,37.636z M18.225,28.176
		c0.197-0.41,1.618-1.439,1.618-1.439s0.067,1.753-0.131,2.159c-0.199,0.411-0.693,0.584-1.104,0.386
		C18.198,29.08,18.025,28.59,18.225,28.176z M21.011,34.329c-0.198,0.411-0.692,0.582-1.104,0.384
		c-0.41-0.199-0.582-0.693-0.384-1.104c0.199-0.409,1.616-1.44,1.616-1.44S21.213,33.916,21.011,34.329z M22.908,38.818
		c-0.199,0.407-0.697,0.58-1.109,0.384c-0.412-0.198-0.584-0.693-0.386-1.105c0.199-0.411,1.622-1.443,1.622-1.443
		S23.105,38.406,22.908,38.818z M21.296,30.303c0.201-0.414,1.625-1.443,1.625-1.443s0.066,1.752-0.132,2.164
		c-0.198,0.41-0.695,0.581-1.106,0.383C21.268,31.207,21.096,30.713,21.296,30.303z M24.673,35.509
		c-0.202,0.412-0.693,0.584-1.101,0.384c-0.41-0.199-0.582-0.691-0.384-1.104c0.197-0.407,1.608-1.44,1.608-1.44
		S24.866,35.099,24.673,35.509z M25.334,32.587c-0.408-0.2-0.58-0.694-0.382-1.104c0.196-0.412,1.605-1.441,1.605-1.441
		s0.071,1.751-0.128,2.163C26.235,32.615,25.74,32.787,25.334,32.587z M27.731,37.636c-0.196,0.411-0.692,0.581-1.104,0.384
		c-0.41-0.197-0.579-0.693-0.384-1.104c0.196-0.408,1.615-1.443,1.615-1.443S27.931,37.224,27.731,37.636z M26.716,28.176
		c0.198-0.41,1.616-1.439,1.616-1.439s0.068,1.753-0.131,2.159c-0.2,0.411-0.694,0.584-1.104,0.386
		C26.688,29.08,26.516,28.59,26.716,28.176z M29.5,34.329c-0.196,0.411-0.691,0.582-1.104,0.384
		c-0.411-0.199-0.582-0.693-0.384-1.104c0.2-0.409,1.618-1.44,1.618-1.44S29.703,33.916,29.5,34.329z M31.274,31.024
		c-0.197,0.41-0.692,0.581-1.104,0.383c-0.409-0.198-0.582-0.692-0.384-1.104c0.198-0.414,1.616-1.443,1.616-1.443
		S31.473,30.612,31.274,31.024z M33.043,27.718c-0.198,0.41-0.693,0.581-1.104,0.38c-0.407-0.197-0.579-0.69-0.384-1.104
		c0.2-0.412,1.618-1.44,1.618-1.44S33.246,27.308,33.043,27.718z M33.026,24.321c-1.105,0-2.166-0.351-3.062-0.966
		c-1.062,1.538-2.804,2.491-4.737,2.491c-0.18,0-0.358-0.01-0.537-0.029c0.012,0.506,0.014,1.589-0.136,1.901
		c-0.197,0.41-0.689,0.581-1.101,0.38c-0.406-0.197-0.577-0.69-0.383-1.104c0.144-0.29,0.89-0.894,1.315-1.218
		c-1.37-0.206-2.618-0.892-3.523-1.937c-0.963,0.818-2.193,1.29-3.487,1.29c-2.018,0-3.824-1.138-4.737-2.867
		c-0.445,0.153-0.912,0.237-1.391,0.237c-2.401,0-4.355-1.956-4.355-4.36c0-1.17,0.491-2.263,1.312-3.074
		c-0.106-0.412-0.183-0.834-0.183-1.265c0-2.765,2.252-5.015,5.018-5.015l0.177,0.022c0.58-2.081,2.483-3.594,4.723-3.594
		c1.834,0,3.475,1.039,4.318,2.598c0.846-0.693,1.896-1.104,3.012-1.104c2.278,0,4.188,1.614,4.658,3.76
		c0.698-0.36,1.474-0.561,2.284-0.561c2.766,0,5.018,2.254,5.018,5.017c0,0.176-0.038,0.348-0.057,0.521
		c0.813,0.974,1.279,2.175,1.279,3.46C38.449,21.892,36.018,24.321,33.026,24.321z"/>
	<path fill="#020202" d="M35.08,16.078l0.108-0.529c0.043-0.203,0.064-0.414,0.064-0.626c0-1.679-1.367-3.042-3.043-3.042
		c-1.021,0-1.965,0.503-2.531,1.352L27.92,12.37c0.096-0.286,0.146-0.583,0.146-0.886c0-1.547-1.259-2.805-2.801-2.805
		c-0.932,0-1.8,0.466-2.317,1.242l-0.395,0.512l-0.844-0.128l-0.753-0.104l-0.142-0.682c-0.281-1.352-1.495-2.338-2.88-2.338
		c-1.552,0-2.842,1.218-2.931,2.771l-0.072,1.188l-1.156-0.292c-0.253-0.062-0.501-0.094-0.74-0.094
		c-1.678,0-3.043,1.365-3.043,3.043c0,0.41,0.082,0.812,0.239,1.188l0.312,0.739l-0.657,0.456c-0.641,0.448-1.023,1.178-1.023,1.958
		c0,1.315,1.069,2.385,2.382,2.385c0.481,0,0.947-0.139,1.343-0.414l1.143-0.779l0.365,1.336c0.404,1.473,1.752,2.502,3.277,2.502
		c1.11,0,2.15-0.543,2.787-1.46l0.936-1.336l0.755,1.449c0.662,1.271,1.956,2.059,3.374,2.059c1.572,0,2.963-0.949,3.538-2.422
		l0.593-1.513l1.072,1.222c0.656,0.755,1.605,1.188,2.599,1.188c1.903,0,3.45-1.55,3.45-3.449c0-0.928-0.362-1.8-1.02-2.448
		L35.08,16.078z"/>
</g>
</svg>
