<?xml version="1.0" encoding="utf-8"?>
<!-- Generator: Adobe Illustrator 15.1.0, SVG Export Plug-In . SVG Version: 6.00 Build 0)  -->
<!DOCTYPE svg PUBLIC "-//W3C//DTD SVG 1.1//EN" "http://www.w3.org/Graphics/SVG/1.1/DTD/svg11.dtd">
<svg version="1.1"
	 id="Layer_1" sodipodi:docname="ecobee.svg" inkscape:version="0.48.2 r9819" xmlns:sodipodi="http://sodipodi.sourceforge.net/DTD/sodipodi-0.dtd" xmlns:inkscape="http://www.inkscape.org/namespaces/inkscape" xmlns:rdf="http://www.w3.org/1999/02/22-rdf-syntax-ns#" xmlns:svg="http://www.w3.org/2000/svg" xmlns:cc="http://creativecommons.org/ns#" xmlns:dc="http://purl.org/dc/elements/1.1/"
	 xmlns="http://www.w3.org/2000/svg" xmlns:xlink="http://www.w3.org/1999/xlink" x="0px" y="0px" width="44.637px"
	 height="44.637px" viewBox="0 0 44.637 44.637" enable-background="new 0 0 44.637 44.637" xml:space="preserve">
<g id="Layer_2" transform="translate(1.428,1.2719996)">
</g>
<g>
	<path d="M-0.1,0V44.73h44.737V0H-0.1z M7.672,36.615c0,0.287-0.292,0.521-0.655,0.521c-0.364,0-0.657-0.234-0.657-0.521v-2.802
		c0-0.291,0.293-0.523,0.657-0.523c0.362,0,0.655,0.232,0.655,0.523V36.615z M7.672,31.525c0,0.291-0.292,0.525-0.655,0.525
		c-0.364,0-0.657-0.234-0.657-0.525v-2.8c0-0.288,0.293-0.521,0.657-0.521c0.362,0,0.655,0.233,0.655,0.521V31.525z M10.058,34.778
		c0,0.289-0.293,0.524-0.656,0.524c-0.362,0-0.655-0.235-0.655-0.524v-2.799c0-0.291,0.293-0.523,0.655-0.523
		c0.363,0,0.656,0.233,0.656,0.523V34.778z M10.058,29.689c0,0.29-0.293,0.524-0.656,0.524c-0.362,0-0.655-0.234-0.655-0.524v-2.8
		c0-0.289,0.293-0.522,0.655-0.522c0.363,0,0.656,0.233,0.656,0.522V29.689z M12.441,36.615c0,0.287-0.292,0.521-0.653,0.521
		c-0.363,0-0.656-0.234-0.656-0.521v-2.802c0-0.291,0.293-0.523,0.656-0.523c0.36,0,0.653,0.232,0.653,0.523V36.615z M12.441,31.525
		c0,0.291-0.292,0.525-0.653,0.525c-0.363,0-0.656-0.234-0.656-0.525v-2.8c0-0.288,0.293-0.521,0.656-0.521
		c0.36,0,0.653,0.233,0.653,0.521V31.525z M14.828,34.778c0,0.289-0.292,0.524-0.655,0.524c-0.362,0-0.657-0.235-0.657-0.524v-2.799
		c0-0.291,0.294-0.523,0.657-0.523s0.655,0.233,0.655,0.523V34.778z M14.828,29.689c0,0.29-0.292,0.524-0.655,0.524
		c-0.362,0-0.657-0.234-0.657-0.524v-2.8c0-0.289,0.294-0.522,0.657-0.522s0.655,0.233,0.655,0.522V29.689z M17.391,36.615
		c0,0.287-0.292,0.521-0.655,0.521c-0.362,0-0.655-0.234-0.655-0.521v-2.802c0-0.291,0.293-0.523,0.655-0.523
		s0.655,0.232,0.655,0.523V36.615z M17.391,31.525c0,0.291-0.292,0.525-0.655,0.525c-0.362,0-0.655-0.234-0.655-0.525v-2.8
		c0-0.288,0.293-0.521,0.655-0.521s0.655,0.233,0.655,0.521V31.525z M19.781,34.778c0,0.289-0.295,0.524-0.659,0.524
		c-0.363,0-0.656-0.235-0.656-0.524v-2.799c0-0.291,0.293-0.523,0.656-0.523c0.364,0,0.659,0.233,0.659,0.523V34.778z
		 M19.781,29.689c0,0.29-0.295,0.524-0.659,0.524c-0.363,0-0.656-0.234-0.656-0.524v-2.8c0-0.289,0.293-0.522,0.656-0.522
		c0.364,0,0.659,0.233,0.659,0.522V29.689z M22.176,36.615c0,0.287-0.294,0.521-0.656,0.521c-0.366,0-0.661-0.234-0.661-0.521
		v-2.802c0-0.291,0.294-0.523,0.661-0.523c0.362,0,0.656,0.232,0.656,0.523V36.615z M22.176,31.525c0,0.291-0.294,0.525-0.656,0.525
		c-0.366,0-0.661-0.234-0.661-0.525v-2.8c0-0.288,0.294-0.521,0.661-0.521c0.362,0,0.656,0.233,0.656,0.521V31.525z M24.559,34.778
		c0,0.289-0.292,0.524-0.653,0.524c-0.363,0-0.656-0.235-0.656-0.524v-2.799c0-0.291,0.293-0.523,0.656-0.523
		c0.361,0,0.653,0.233,0.653,0.523V34.778z M24.559,29.689c0,0.29-0.292,0.524-0.653,0.524c-0.363,0-0.656-0.234-0.656-0.524v-2.8
		c0-0.289,0.293-0.522,0.656-0.522c0.361,0,0.653,0.233,0.653,0.522V29.689z M27.297,36.615c0,0.287-0.293,0.521-0.654,0.521
		c-0.364,0-0.656-0.234-0.656-0.521v-2.802c0-0.291,0.292-0.523,0.656-0.523c0.361,0,0.654,0.232,0.654,0.523V36.615z
		 M27.297,31.525c0,0.291-0.293,0.525-0.654,0.525c-0.364,0-0.656-0.234-0.656-0.525v-2.8c0-0.288,0.292-0.521,0.656-0.521
		c0.361,0,0.654,0.233,0.654,0.521V31.525z M29.683,34.778c0,0.289-0.293,0.524-0.655,0.524s-0.656-0.235-0.656-0.524v-2.799
		c0-0.291,0.294-0.523,0.656-0.523s0.655,0.233,0.655,0.523V34.778z M29.683,29.689c0,0.29-0.293,0.524-0.655,0.524
		s-0.656-0.234-0.656-0.524v-2.8c0-0.289,0.294-0.522,0.656-0.522s0.655,0.233,0.655,0.522V29.689z M32.067,36.615
		c0,0.287-0.292,0.521-0.653,0.521c-0.363,0-0.656-0.234-0.656-0.521v-2.802c0-0.291,0.293-0.523,0.656-0.523
		c0.361,0,0.653,0.232,0.653,0.523V36.615z M32.067,31.525c0,0.291-0.292,0.525-0.653,0.525c-0.363,0-0.656-0.234-0.656-0.525v-2.8
		c0-0.288,0.293-0.521,0.656-0.521c0.361,0,0.653,0.233,0.653,0.521V31.525z M34.452,34.778c0,0.289-0.292,0.524-0.655,0.524
		c-0.362,0-0.656-0.235-0.656-0.524v-2.799c0-0.291,0.294-0.523,0.656-0.523c0.363,0,0.655,0.233,0.655,0.523V34.778z
		 M34.452,29.689c0,0.29-0.292,0.524-0.655,0.524c-0.362,0-0.656-0.234-0.656-0.524v-2.8c0-0.289,0.294-0.522,0.656-0.522
		c0.363,0,0.655,0.233,0.655,0.522V29.689z M36.702,36.615c0,0.287-0.292,0.521-0.655,0.521s-0.656-0.234-0.656-0.521v-2.802
		c0-0.291,0.293-0.523,0.656-0.523s0.655,0.232,0.655,0.523V36.615z M36.702,31.525c0,0.291-0.292,0.525-0.655,0.525
		s-0.656-0.234-0.656-0.525v-2.8c0-0.288,0.293-0.521,0.656-0.521s0.655,0.233,0.655,0.521V31.525z M36.079,24.508l-0.048,0.021
		H7.897l-0.081-0.037l-0.078-0.011c-2.711-0.352-4.758-2.679-4.758-5.414c0-2.467,1.609-4.547,3.882-5.222
		c0.32-2.057,2.088-3.644,4.235-3.644c0.371,0,0.737,0.05,1.092,0.146c1.557-1.728,3.783-2.735,6.128-2.735
		c2.592,0,4.979,1.227,6.521,3.216c1.087-1.067,2.533-1.716,4.12-1.716c2.958,0,5.397,2.184,5.845,5.019
		c0.272-0.047,0.551-0.114,0.832-0.114c2.896,0,5.256,2.357,5.256,5.256C40.893,21.982,38.781,24.281,36.079,24.508z"/>
	<path d="M35.637,16.49c-0.494,0-0.981,0.134-1.413,0.389l-2.068,1.146l0.271-2.974c0-1.912-1.557-3.467-3.466-3.467
		c-1.336,0-2.526,0.749-3.114,1.958l-1.155,2.382l-1.085-2.415c-0.928-2.079-3.007-3.422-5.288-3.422
		c-1.873,0-3.641,0.923-4.726,2.463l-0.64,0.911l-0.975-0.542c-0.287-0.159-0.583-0.244-0.881-0.244c-1.007,0-1.83,0.823-1.83,1.829
		l0.014,0.114l0.186,1.366l-1.288,0.115c-1.553,0.132-2.728,1.411-2.728,2.97c0,1.497,1.119,2.771,2.604,2.958l-0.157,0.031h28.082
		l-0.104-0.014c1.428-0.121,2.545-1.338,2.545-2.771C38.42,17.737,37.174,16.49,35.637,16.49z"/>
</g>
</svg>
