<?xml version="1.0" encoding="utf-8"?>
<!-- Generator: Adobe Illustrator 15.1.0, SVG Export Plug-In . SVG Version: 6.00 Build 0)  -->
<!DOCTYPE svg PUBLIC "-//W3C//DTD SVG 1.1//EN" "http://www.w3.org/Graphics/SVG/1.1/DTD/svg11.dtd">
<svg version="1.1"
	 id="Layer_1" sodipodi:docname="ecobee.svg" inkscape:version="0.48.2 r9819" xmlns:sodipodi="http://sodipodi.sourceforge.net/DTD/sodipodi-0.dtd" xmlns:inkscape="http://www.inkscape.org/namespaces/inkscape" xmlns:rdf="http://www.w3.org/1999/02/22-rdf-syntax-ns#" xmlns:svg="http://www.w3.org/2000/svg" xmlns:cc="http://creativecommons.org/ns#" xmlns:dc="http://purl.org/dc/elements/1.1/"
	 xmlns="http://www.w3.org/2000/svg" xmlns:xlink="http://www.w3.org/1999/xlink" x="0px" y="0px" width="44.637px"
	 height="44.637px" viewBox="0 0 44.637 44.637" enable-background="new 0 0 44.637 44.637" xml:space="preserve">
<g id="Layer_2" transform="translate(1.428,1.2719996)">
</g>
<path d="M-0.1,0V44.73h44.737V0H-0.1z M37.973,23.101l-4.207,0.022l1.762,3.078l-0.719,1.19l-1.406-0.01l-2.434-4.26l-6.254,0.045
	l3.092,5.347l4.785-0.106l0.793,1.435l-0.727,1.208l-3.527-0.138l2.197,3.646l-0.816,1.327l-1.492-0.054l-2.272-3.845l-1.984,3.36
	l-1.125,0.034l-0.797-1.318l2.641-4.378l-3.017-5.296l-3.317,5.592l2.488,4.341l-0.726,1.255l-1.451-0.108l-1.64-3.045l-2.178,3.668
	l-1.457,0.018l-0.756-1.317l2.234-3.91l-3.898,0.019l-0.673-1.01l0.757-1.358l5.27-0.023l2.996-5.364h-6.596l-2.558,4.298H9.51
	l-0.654-1.384l1.843-2.845l-4.266-0.046L5.676,21.88l0.736-1.359h4.516L8.985,17.15l0.589-1.113l1.579,0.023l2.522,4.499
	l6.518-0.026l-3.256-5.615l-5.438-0.215l-0.626-1.065l0.718-1.39l3.797,0.01L13.36,8.598l0.53-1.263h-0.015l0.021-0.022l0.001,0.001
	L13.89,7.336l1.773,0.033l1.973,3.517l1.832-3.005l1.456,0.097l0.681,1.118l-2.551,4.319l3.341,5.789l3.172-5.438L22.979,8.98
	l0.611-0.99l1.494-0.095l1.99,3.231l2.051-3.614L30.629,7.4l0.756,1.435l-1.977,3.583l3.426,0.049l0.709,1.24l-0.701,1.196
	l-4.902-0.026l-3.299,5.745l6.115-0.095l2.85-4.624l1.218,0.027l0.825,1.32l-1.832,3.274l4.089,0.043l0.854,1.153L37.973,23.101z"/>
</svg>
