<?xml version="1.0" encoding="utf-8"?>
<!-- Generator: Adobe Illustrator 15.1.0, SVG Export Plug-In . SVG Version: 6.00 Build 0)  -->
<!DOCTYPE svg PUBLIC "-//W3C//DTD SVG 1.1//EN" "http://www.w3.org/Graphics/SVG/1.1/DTD/svg11.dtd">
<svg version="1.1"
	 id="Layer_1" sodipodi:docname="ecobee.svg" inkscape:version="0.48.2 r9819" xmlns:sodipodi="http://sodipodi.sourceforge.net/DTD/sodipodi-0.dtd" xmlns:inkscape="http://www.inkscape.org/namespaces/inkscape" xmlns:rdf="http://www.w3.org/1999/02/22-rdf-syntax-ns#" xmlns:svg="http://www.w3.org/2000/svg" xmlns:cc="http://creativecommons.org/ns#" xmlns:dc="http://purl.org/dc/elements/1.1/"
	 xmlns="http://www.w3.org/2000/svg" xmlns:xlink="http://www.w3.org/1999/xlink" x="0px" y="0px" width="44.637px"
	 height="44.637px" viewBox="0 0 44.637 44.637" enable-background="new 0 0 44.637 44.637" xml:space="preserve">
<g>
	<path d="M-0.1,0v44.731h44.737V0H-0.1z M38.59,16.055c0.254,0.644-0.062,1.367-0.707,1.619l-2.924,1.149
		c-0.646,0.254-1.371-0.063-1.622-0.707c-0.251-0.643,0.062-1.367,0.706-1.62l2.926-1.151C37.612,15.095,38.338,15.412,38.59,16.055
		z M30.766,12.422l2.227-2.221c0.483-0.487,1.274-0.487,1.766,0c0.49,0.487,0.49,1.278,0,1.767l-2.222,2.22
		c-0.49,0.492-1.28,0.492-1.77,0C30.278,13.703,30.278,12.91,30.766,12.422z M32.349,22.317c0,5.355-4.356,9.71-9.711,9.71
		c-5.359,0-9.714-4.356-9.714-9.71c0-5.352,4.356-9.709,9.714-9.709C27.991,12.607,32.349,16.966,32.349,22.317z M26.584,10.136
		l1.257-2.881c0.274-0.632,1.013-0.924,1.644-0.645c0.64,0.273,0.929,1.012,0.65,1.645l-1.256,2.879
		c-0.276,0.634-1.014,0.925-1.646,0.646C26.597,11.506,26.311,10.768,26.584,10.136z M21.384,6.431c0-0.691,0.558-1.251,1.252-1.251
		c0.692,0,1.254,0.56,1.254,1.251v3.143c0,0.691-0.562,1.253-1.254,1.253c-0.695,0-1.252-0.562-1.252-1.253V6.431z M16.37,6.367
		c0.64-0.253,1.364,0.063,1.62,0.703L19.14,10c0.252,0.643-0.064,1.371-0.707,1.621c-0.643,0.252-1.37-0.065-1.621-0.704L15.66,7.99
		C15.409,7.347,15.725,6.62,16.37,6.367z M10.514,10.201c0.491-0.487,1.281-0.487,1.771,0l2.223,2.221
		c0.486,0.488,0.486,1.28,0,1.767c-0.488,0.492-1.281,0.492-1.771,0l-2.223-2.22C10.025,11.481,10.025,10.689,10.514,10.201z
		 M6.924,15.467c0.275-0.631,1.014-0.92,1.646-0.643l2.882,1.255c0.634,0.275,0.922,1.015,0.646,1.646
		c-0.277,0.632-1.014,0.923-1.646,0.648L7.57,17.117C6.936,16.837,6.648,16.102,6.924,15.467z M5.494,22.317
		c0-0.688,0.56-1.25,1.25-1.25h3.145c0.689,0,1.251,0.562,1.251,1.25c0,0.693-0.562,1.25-1.251,1.25H6.745
		C6.054,23.567,5.494,23.01,5.494,22.317z M6.681,28.582c-0.252-0.644,0.063-1.369,0.705-1.623l2.928-1.15
		c0.644-0.252,1.365,0.066,1.621,0.709c0.251,0.644-0.064,1.369-0.708,1.621l-2.923,1.15C7.659,29.541,6.933,29.225,6.681,28.582z
		 M14.507,32.213l-2.222,2.221c-0.489,0.488-1.279,0.488-1.771,0c-0.489-0.485-0.489-1.276,0-1.766l2.221-2.224
		c0.489-0.487,1.283-0.487,1.771,0C14.993,30.934,14.993,31.723,14.507,32.213z M18.685,34.5l-1.255,2.881
		c-0.276,0.633-1.014,0.92-1.646,0.645c-0.633-0.274-0.919-1.014-0.646-1.646l1.256-2.879c0.274-0.633,1.011-0.924,1.646-0.648
		C18.674,33.129,18.962,33.865,18.685,34.5z M23.89,38.205c0,0.688-0.562,1.252-1.254,1.252c-0.695,0-1.252-0.562-1.252-1.252V35.06
		c0-0.688,0.558-1.25,1.252-1.25c0.692,0,1.254,0.562,1.254,1.25V38.205z M28.904,38.27c-0.644,0.252-1.367-0.063-1.621-0.707
		l-1.149-2.926c-0.253-0.641,0.062-1.367,0.707-1.621c0.643-0.254,1.37,0.064,1.62,0.707l1.147,2.924
		C29.865,37.291,29.545,38.02,28.904,38.27z M34.757,34.436c-0.489,0.488-1.28,0.488-1.766,0l-2.227-2.223
		c-0.488-0.488-0.488-1.277,0-1.766c0.488-0.489,1.279-0.488,1.771,0l2.221,2.221C35.247,33.156,35.247,33.948,34.757,34.436z
		 M38.348,29.168c-0.274,0.633-1.012,0.922-1.645,0.647l-2.884-1.258c-0.633-0.272-0.921-1.014-0.644-1.647
		c0.274-0.632,1.013-0.92,1.646-0.646l2.879,1.258C38.336,27.797,38.621,28.535,38.348,29.168z M38.526,23.567h-3.142
		c-0.692,0-1.253-0.557-1.253-1.25c0-0.688,0.561-1.25,1.253-1.25h3.142c0.689,0,1.251,0.562,1.251,1.25
		C39.777,23.01,39.215,23.567,38.526,23.567z"/>
	<path d="M22.636,15.11c-3.978,0-7.211,3.233-7.211,7.208c0,3.977,3.233,7.208,7.211,7.208c3.979,0,7.211-3.231,7.211-7.208
		C29.847,18.343,26.615,15.11,22.636,15.11z"/>
</g>
</svg>
