<?xml version="1.0" encoding="utf-8"?>
<!-- Generator: Adobe Illustrator 15.1.0, SVG Export Plug-In . SVG Version: 6.00 Build 0)  -->
<!DOCTYPE svg PUBLIC "-//W3C//DTD SVG 1.1//EN" "http://www.w3.org/Graphics/SVG/1.1/DTD/svg11.dtd">
<svg version="1.1"
	 id="Layer_1" sodipodi:docname="ecobee.svg" inkscape:version="0.48.2 r9819" xmlns:sodipodi="http://sodipodi.sourceforge.net/DTD/sodipodi-0.dtd" xmlns:inkscape="http://www.inkscape.org/namespaces/inkscape" xmlns:rdf="http://www.w3.org/1999/02/22-rdf-syntax-ns#" xmlns:svg="http://www.w3.org/2000/svg" xmlns:cc="http://creativecommons.org/ns#" xmlns:dc="http://purl.org/dc/elements/1.1/"
	 xmlns="http://www.w3.org/2000/svg" xmlns:xlink="http://www.w3.org/1999/xlink" x="0px" y="0px" width="44.637px"
	 height="44.637px" viewBox="0 0 44.637 44.637" enable-background="new 0 0 44.637 44.637" xml:space="preserve">
<g>
	<path d="M-0.1,0v44.73h44.737V0H-0.1z M22.014,33.36c-0.174,0.426-0.656,0.628-1.077,0.453c-0.423-0.172-0.626-0.655-0.453-1.076
		c0.174-0.424,1.521-1.541,1.521-1.541S22.186,32.938,22.014,33.36z M22.039,29.325c0.174-0.424,1.52-1.54,1.52-1.54
		s0.185,1.741,0.009,2.166c-0.171,0.421-0.652,0.625-1.073,0.45C22.071,30.229,21.867,29.748,22.039,29.325z M23.895,37.967
		c-0.174,0.423-0.654,0.625-1.076,0.455c-0.423-0.176-0.625-0.656-0.452-1.08c0.17-0.424,1.52-1.54,1.52-1.54
		S24.063,37.545,23.895,37.967z M25.448,34.56c-0.171,0.421-0.654,0.624-1.074,0.448c-0.424-0.172-0.627-0.652-0.455-1.077
		c0.173-0.42,1.521-1.539,1.521-1.539S25.621,34.134,25.448,34.56z M25.477,30.522c0.173-0.422,1.521-1.541,1.521-1.541
		s0.182,1.742,0.009,2.166c-0.171,0.422-0.653,0.623-1.073,0.451C25.506,31.426,25.303,30.946,25.477,30.522z M27.031,27.112
		c0.174-0.422,1.524-1.534,1.524-1.534s0.178,1.737,0.002,2.157c-0.17,0.426-0.651,0.627-1.073,0.453
		C27.061,28.017,26.86,27.534,27.031,27.112z M27.619,38.912c-0.175,0.422-0.656,0.626-1.078,0.452
		c-0.424-0.174-0.625-0.653-0.452-1.076c0.174-0.423,1.521-1.542,1.521-1.542S27.791,38.49,27.619,38.912z M29.178,35.5
		c-0.174,0.424-0.658,0.627-1.08,0.453c-0.422-0.172-0.625-0.654-0.451-1.078c0.173-0.42,1.521-1.539,1.521-1.539
		S29.348,35.078,29.178,35.5z M29.656,32.545c-0.427-0.176-0.625-0.656-0.457-1.078c0.176-0.424,1.524-1.541,1.524-1.541
		s0.178,1.742,0.006,2.166C30.559,32.514,30.076,32.716,29.656,32.545z M30.76,28.057c0.172-0.423,1.521-1.539,1.521-1.539
		s0.18,1.742,0.01,2.163c-0.174,0.427-0.655,0.626-1.077,0.453S30.584,28.479,30.76,28.057z M32.371,37.425
		c-0.172,0.424-0.654,0.627-1.075,0.454c-0.425-0.174-0.628-0.656-0.453-1.077c0.174-0.423,1.524-1.541,1.524-1.541
		S32.545,37.004,32.371,37.425z M33.93,34.017c-0.176,0.425-0.654,0.626-1.08,0.452c-0.422-0.174-0.623-0.654-0.449-1.078
		c0.173-0.422,1.521-1.539,1.521-1.539S34.104,33.594,33.93,34.017z M35.485,30.608c-0.175,0.42-0.654,0.623-1.077,0.449
		s-0.621-0.654-0.453-1.074c0.176-0.426,1.524-1.543,1.524-1.543S35.658,30.184,35.485,30.608z M37.041,27.198
		c-0.172,0.422-0.652,0.625-1.077,0.449c-0.421-0.172-0.624-0.651-0.45-1.073c0.173-0.426,1.521-1.536,1.521-1.536
		S37.215,26.772,37.041,27.198z M33.518,24.575c-1.104,0-2.164-0.353-3.061-0.968c-1.062,1.539-2.804,2.489-4.74,2.489
		c-0.176,0-0.352-0.012-0.523-0.024c-0.01,0.196-0.029,0.37-0.07,0.469c-0.172,0.42-0.655,0.625-1.075,0.449
		c-0.421-0.171-0.625-0.654-0.453-1.076l0.115-0.184c-0.908-0.34-1.72-0.896-2.358-1.635c-0.964,0.818-2.191,1.292-3.483,1.292
		c-0.534,0-1.049-0.085-1.538-0.231l-1.63,1.709h6.071L7.635,36.468l4.766-6.761l-4.686,0.307l5.543-7.287l-0.126-0.204
		c-0.445,0.152-0.91,0.236-1.388,0.236c-2.399,0-4.354-1.954-4.354-4.355c0-1.173,0.491-2.265,1.311-3.072
		c-0.107-0.413-0.181-0.832-0.181-1.269c0-2.764,2.249-5.01,5.015-5.01l0.176,0.022c0.581-2.077,2.479-3.593,4.719-3.593
		c1.835,0,3.469,1.04,4.312,2.595c0.843-0.691,1.896-1.101,3.017-1.101c2.283,0,4.192,1.613,4.66,3.756
		c0.699-0.355,1.475-0.556,2.285-0.556c2.762,0,5.012,2.246,5.012,5.012c0,0.174-0.035,0.345-0.055,0.521
		c0.813,0.971,1.28,2.172,1.28,3.457C38.942,22.154,36.506,24.575,33.518,24.575z"/>
	<path d="M35.568,16.339l0.112-0.525c0.043-0.205,0.064-0.416,0.064-0.626c0-1.678-1.364-3.04-3.039-3.04
		c-1.021,0-1.963,0.504-2.531,1.352l-1.756-0.863c0.096-0.285,0.143-0.583,0.143-0.885c0-1.549-1.256-2.802-2.803-2.802
		c-0.934,0-1.805,0.462-2.328,1.239l-0.392,0.515l-0.839-0.131l-0.749-0.104l-0.145-0.682c-0.281-1.354-1.494-2.334-2.877-2.334
		c-1.55,0-2.84,1.215-2.932,2.764l-0.068,1.189l-1.154-0.289c-0.254-0.064-0.502-0.096-0.739-0.096c-1.679,0-3.042,1.364-3.042,3.04
		c0,0.416,0.079,0.813,0.238,1.188l0.312,0.736l-0.654,0.455c-0.644,0.449-1.025,1.182-1.025,1.96c0,1.313,1.066,2.382,2.382,2.382
		c0.479,0,0.942-0.142,1.342-0.409l1.14-0.782l0.365,1.335c0.402,1.474,1.748,2.5,3.276,2.5c1.107,0,2.146-0.542,2.785-1.455
		l0.935-1.34l0.75,1.448c0.657,1.27,1.953,2.055,3.379,2.055c1.578,0,2.969-0.948,3.543-2.418l0.592-1.512l1.069,1.223
		c0.657,0.754,1.604,1.188,2.595,1.188c1.903,0,3.448-1.55,3.448-3.449c0-0.927-0.36-1.794-1.017-2.448L35.568,16.339z"/>
</g>
</svg>
