<?xml version="1.0" encoding="utf-8"?>
<!-- Generator: Adobe Illustrator 15.1.0, SVG Export Plug-In . SVG Version: 6.00 Build 0)  -->
<!DOCTYPE svg PUBLIC "-//W3C//DTD SVG 1.1//EN" "http://www.w3.org/Graphics/SVG/1.1/DTD/svg11.dtd">
<svg version="1.1"
	 id="Layer_1" sodipodi:docname="ecobee.svg" inkscape:version="0.48.2 r9819" xmlns:sodipodi="http://sodipodi.sourceforge.net/DTD/sodipodi-0.dtd" xmlns:inkscape="http://www.inkscape.org/namespaces/inkscape" xmlns:rdf="http://www.w3.org/1999/02/22-rdf-syntax-ns#" xmlns:svg="http://www.w3.org/2000/svg" xmlns:cc="http://creativecommons.org/ns#" xmlns:dc="http://purl.org/dc/elements/1.1/"
	 xmlns="http://www.w3.org/2000/svg" xmlns:xlink="http://www.w3.org/1999/xlink" x="0px" y="0px" width="44.637px"
	 height="44.637px" viewBox="0 0 44.637 44.637" enable-background="new 0 0 44.637 44.637" xml:space="preserve">
<g>
	<path d="M-0.1,0V44.73h44.737V0H-0.1z M36.49,24.869l-0.054,0.024h-13.6l-1.982,2.086h7.662l-16.58,12.111l6.008-8.528
		l-5.911,0.387l4.543-6.056h-8.46l-0.079-0.043l-0.08-0.01c-2.73-0.352-4.789-2.693-4.789-5.447c0-2.483,1.619-4.576,3.91-5.258
		c0.322-2.075,2.103-3.669,4.263-3.669c0.372,0,0.738,0.054,1.097,0.152c1.566-1.74,3.811-2.759,6.175-2.759
		c2.6,0,5.003,1.233,6.556,3.239c1.098-1.078,2.551-1.729,4.149-1.729c2.978,0,5.437,2.194,5.884,5.052
		c0.276-0.044,0.557-0.114,0.838-0.114c2.918,0,5.291,2.375,5.291,5.294C41.332,22.329,39.205,24.643,36.49,24.869z"/>
	<path d="M36.041,16.799c-0.498,0-0.988,0.136-1.424,0.394l-2.082,1.153l0.271-2.996c0-1.923-1.563-3.488-3.488-3.488
		c-1.344,0-2.547,0.757-3.135,1.975l-1.164,2.392L23.927,13.8c-0.938-2.095-3.029-3.446-5.314-3.446
		c-1.891,0-3.668,0.925-4.764,2.479l-0.644,0.917L12.229,13.2c-0.291-0.161-0.588-0.244-0.888-0.244
		c-1.015,0-1.844,0.827-1.844,1.84l0.017,0.112l0.184,1.377l-1.3,0.112c-1.562,0.141-2.739,1.426-2.739,2.995
		c0,1.506,1.124,2.787,2.615,2.98l-0.158,0.028h28.266l-0.101-0.012c1.436-0.122,2.561-1.348,2.561-2.788
		C38.844,18.056,37.588,16.799,36.041,16.799z"/>
</g>
<g id="Layer_2" transform="translate(1.428,1.2719996)">
</g>
</svg>
