<?xml version="1.0" encoding="utf-8"?>
<!-- Generator: Adobe Illustrator 15.1.0, SVG Export Plug-In . SVG Version: 6.00 Build 0)  -->
<!DOCTYPE svg PUBLIC "-//W3C//DTD SVG 1.1//EN" "http://www.w3.org/Graphics/SVG/1.1/DTD/svg11.dtd">
<svg version="1.1"
	 id="Layer_1" sodipodi:docname="ecobee.svg" inkscape:version="0.48.2 r9819" xmlns:sodipodi="http://sodipodi.sourceforge.net/DTD/sodipodi-0.dtd" xmlns:inkscape="http://www.inkscape.org/namespaces/inkscape" xmlns:rdf="http://www.w3.org/1999/02/22-rdf-syntax-ns#" xmlns:svg="http://www.w3.org/2000/svg" xmlns:cc="http://creativecommons.org/ns#" xmlns:dc="http://purl.org/dc/elements/1.1/"
	 xmlns="http://www.w3.org/2000/svg" xmlns:xlink="http://www.w3.org/1999/xlink" x="0px" y="0px" width="44.637px"
	 height="44.637px" viewBox="0 0 44.637 44.637" enable-background="new 0 0 44.637 44.637" xml:space="preserve">
<path d="M-0.1,0v44.73h44.737V0H-0.1z M11.801,26.188c0-0.828,0.672-1.5,1.5-1.5h9.952c0.828,0,1.5,0.672,1.5,1.5
	s-0.672,1.5-1.5,1.5h-9.952C12.473,27.688,11.801,27.016,11.801,26.188z M23.698,37.762h-0.255c-0.828,0-1.503-0.672-1.503-1.5
	s0.672-1.5,1.503-1.5h0.255c0.826,0,1.5,0.672,1.5,1.5S24.526,37.762,23.698,37.762z M23.698,32.906h-5.574
	c-0.828,0-1.5-0.673-1.5-1.5c0-0.828,0.672-1.5,1.5-1.5h5.574c0.828,0,1.5,0.672,1.5,1.5C25.198,32.234,24.526,32.906,23.698,32.906
	z M28.426,22.323H11.709c-0.828,0-1.5-0.675-1.5-1.504c0-0.826,0.672-1.5,1.5-1.5h16.717c0.829,0,1.5,0.674,1.5,1.5
	C29.926,21.649,29.254,22.323,28.426,22.323z M34.795,16.749H12.903c-0.827,0-1.5-0.671-1.5-1.5c0-0.828,0.673-1.5,1.5-1.5h21.892
	c0.828,0,1.5,0.672,1.5,1.5C36.293,16.077,35.621,16.749,34.795,16.749z M36.385,11.031H8.525c-0.827,0-1.5-0.673-1.5-1.5
	c0-0.828,0.673-1.5,1.5-1.5h27.86c0.828,0,1.5,0.672,1.5,1.5C37.885,10.358,37.213,11.031,36.385,11.031z"/>
</svg>
