<?xml version="1.0" encoding="utf-8"?>
<!-- Generator: Adobe Illustrator 15.1.0, SVG Export Plug-In . SVG Version: 6.00 Build 0)  -->
<!DOCTYPE svg PUBLIC "-//W3C//DTD SVG 1.1//EN" "http://www.w3.org/Graphics/SVG/1.1/DTD/svg11.dtd">
<svg version="1.1"
	 id="Layer_1" inkscape:version="0.48.2 r9819" sodipodi:docname="ecobee.svg" xmlns:svg="http://www.w3.org/2000/svg" xmlns:inkscape="http://www.inkscape.org/namespaces/inkscape" xmlns:cc="http://creativecommons.org/ns#" xmlns:dc="http://purl.org/dc/elements/1.1/" xmlns:sodipodi="http://sodipodi.sourceforge.net/DTD/sodipodi-0.dtd" xmlns:rdf="http://www.w3.org/1999/02/22-rdf-syntax-ns#"
	 xmlns="http://www.w3.org/2000/svg" xmlns:xlink="http://www.w3.org/1999/xlink" x="0px" y="0px" width="44.637px"
	 height="44.637px" viewBox="0 0 44.637 44.637" enable-background="new 0 0 44.637 44.637" xml:space="preserve">
<g>
	<path d="M20.09,20.73c-0.001,0-0.002-0.001-0.004-0.001c0,0,0,0-0.001,0c-0.101-0.042-0.201-0.085-0.278-0.142
		c-1-0.736-2.283-1.155-3.262-1.801c-0.375,0-0.75,0-1.123,0c-2.139-1.199-4.441-2.236-6.639-3.375c0,0.338,0,0.676,0,1.014
		c1.085,0.406,2.096,1.029,3.264,1.574c1.318,0.611,2.836,1.736,4.386,1.461c0.985,0.464,2.097,1.319,3.036,1.802
		c0.25,0.129,0.85,0.466,0.986,0.318c0.02-0.021,0.031-0.052,0.029-0.095C20.71,20.985,20.394,20.857,20.09,20.73z"/>
	<path d="M21.353,20.001c0.499-0.15,1.066-0.388,1.604-0.541c2.38-0.67,5.051-1.322,6.975-2.137c-1.83-0.609-3.39-1.486-5.175-2.139
		c-0.191-0.108-0.246-0.353-0.337-0.562c-1.735-0.564-3.322-1.389-4.951-2.139c-0.049-0.021-0.282-0.016-0.337,0
		c-1.564,0.4-3.376,0.844-5.173,1.236c-1.754,0.383-3.539,0.631-4.95,1.238c0,0,0.001,0,0.001,0c0,0,0,0-0.001,0
		c2.333,0.967,4.487,2.115,6.638,3.262c0.369-0.004,0.561-0.188,1.014-0.113c0.556,0.494,1.217,0.664,1.909,1.016
		c0.617,0.309,1.31,0.966,2.024,1.013C20.805,20.151,21.071,20.086,21.353,20.001z"/>
	<path d="M16.884,28.576l3.148,1.617l0.014-7.47c-1.051-0.489-2.047-1.15-3.162-1.575C16.884,23.625,16.884,26.098,16.884,28.576z"
		/>
	<path d="M9.01,24.41c1.911,1.277,4.025,2.449,6.075,3.59l0.11-7.75c-2.195-0.919-4.212-2.017-6.411-2.927L9.01,24.41z"/>
	<path d="M21.158,20.698L21.158,20.698C21.158,20.699,21.158,20.699,21.158,20.698c0.771,1.21,1.794,0.393,3.035,0.001
		c2.155-0.68,4.538-1.31,6.302-1.913v0c0,0,0.001,0,0.001,0c-0.088-0.426,0.135-0.539,0.109-0.9
		C27.38,18.747,24.415,19.868,21.158,20.698z"/>
	<path d="M20.594,30.373l1.238-0.451V24.86l-1.238-1.574C20.594,25.647,20.594,28.012,20.594,30.373z"/>
	<path d="M16.321,20.406h-0.562c0,2.113,0,6.06,0,7.896l0.562-0.123C16.354,26.16,16.299,22.453,16.321,20.406z"/>
	<path d="M0,0v44.637h44.637V0H0z M22.318,43.137C10.82,43.137,1.5,33.815,1.5,22.319c0-11.5,9.32-20.824,20.818-20.824
		c11.496,0,20.816,9.324,20.815,20.824C43.134,33.815,33.814,43.137,22.318,43.137z"/>
	<path d="M22.464,3.17c-10.574,0-19.146,8.575-19.146,19.147c0,10.573,8.574,19.146,19.146,19.146
		c10.574,0,19.144-8.572,19.145-19.146C41.609,11.745,33.038,3.17,22.464,3.17z M37.132,28.799
		c-3.236,0.965-6.438,1.963-9.674,2.924l-3.074-2.023l-3.793,1.348l-4.161-2.248c-0.412,0.076-0.853,0.121-1.236,0.225
		c-2.19-1.482-4.553-2.795-6.86-4.162c0.057-3.544-0.199-6.776-0.113-10.351c3.744-0.756,7.729-1.871,11.248-2.475
		c1.846,0.666,3.533,1.49,5.288,2.25c0.442-0.182,0.038,0.484,0.337,0.449c2.123,0.951,4.285,1.865,6.299,2.926
		c0.016,0.764-0.191,1.305-0.11,2.137c1.837,1.24,3.974,2.177,5.851,3.376C37.132,25.049,37.132,26.922,37.132,28.799z"/>
	<path d="M30.156,20.363c-2.567,0.725-5.56,1.643-8.438,2.362c0.285,0.492,0.897,0.637,1.351,0.9
		c0.484,0.277,0.941,0.596,1.464,0.898c0.683,0.396,2.334,1.537,3.036,1.574c0,0,0,0,0.001,0c0.573,0.033,1.509-0.438,2.25-0.674
		c2.331-0.742,4.559-1.342,6.637-2.136c-0.001-0.001-0.002-0.001-0.003-0.002c0.001,0,0.002-0.001,0.003-0.001
		c-0.909-0.512-1.823-0.873-2.799-1.344c-0.08-0.039-0.157-0.073-0.238-0.114c-0.679-0.342-2.074-1.375-2.932-1.48
		C30.365,20.331,30.253,20.335,30.156,20.363z"/>
	<path d="M36.232,23.848c-0.646,0.365-1.437,0.588-2.138,0.9c0,0.861,0,1.725,0,2.588c0.792,0.256,1.612,0.488,2.362,0.787
		c0-1.387,0-2.773,0.002-4.162C36.432,23.873,36.363,23.83,36.232,23.848z"/>
	<path d="M27.121,26.549c-1.87-0.869-3.485-1.988-5.287-2.926c0,0,0,0.001,0.001,0.001c-0.001,0-0.001-0.001-0.002-0.001
		c1.719,2.293,3.545,4.479,5.398,6.639v-0.001l0.001,0.001C27.313,28.906,27.046,27.897,27.121,26.549z"/>
</g>
</svg>
