<?xml version="1.0" encoding="utf-8"?>
<!-- Generator: Adobe Illustrator 15.1.0, SVG Export Plug-In . SVG Version: 6.00 Build 0)  -->
<!DOCTYPE svg PUBLIC "-//W3C//DTD SVG 1.1//EN" "http://www.w3.org/Graphics/SVG/1.1/DTD/svg11.dtd">
<svg version="1.1"
	 id="Layer_1" inkscape:version="0.48.1 r9760" sodipodi:docname="insteon_LED.svg" xmlns:svg="http://www.w3.org/2000/svg" xmlns:inkscape="http://www.inkscape.org/namespaces/inkscape" xmlns:cc="http://creativecommons.org/ns#" xmlns:dc="http://purl.org/dc/elements/1.1/" xmlns:sodipodi="http://sodipodi.sourceforge.net/DTD/sodipodi-0.dtd" xmlns:rdf="http://www.w3.org/1999/02/22-rdf-syntax-ns#"
	 xmlns="http://www.w3.org/2000/svg" xmlns:xlink="http://www.w3.org/1999/xlink" x="0px" y="0px" width="44.637px"
	 height="44.637px" viewBox="0 0 44.637 44.637" enable-background="new 0 0 44.637 44.637" xml:space="preserve">
<sodipodi:namedview  inkscape:window-height="1156" inkscape:window-maximized="0" showgrid="false" borderopacity="1" inkscape:current-layer="Layer_1" bordercolor="#666666" inkscape:cx="22.318501" objecttolerance="10" inkscape:cy="22.318501" inkscape:pageshadow="2" inkscape:pageopacity="0" inkscape:zoom="21.013957" guidetolerance="10" inkscape:window-y="0" inkscape:window-x="0" inkscape:window-width="1910" id="namedview11726" pagecolor="#ffffff" gridtolerance="10">
	</sodipodi:namedview>
<g>
	<polygon points="22.494,18.719 22.495,18.719 22.503,18.718 22.499,18.712 	"/>
	<path d="M22.465,3.102c-10.573,0-19.146,8.572-19.146,19.146c0,10.571,8.573,19.143,19.146,19.143
		c10.574,0,19.144-8.571,19.145-19.143C41.61,11.673,33.039,3.102,22.465,3.102z M21.175,18.357c0.026-0.109,0.06-0.207,0.091-0.286
		l0.461-1.313c-0.124-0.029-0.242-0.071-0.336-0.126c-0.395-0.232-0.58-0.703-0.495-1.258c0.047-0.299,0.163-0.542,0.345-0.726
		c0.2-0.202,0.474-0.337,0.752-0.37l0.119-0.007c0.172,0,0.295,0.047,0.383,0.107c0.07-0.054,0.159-0.096,0.278-0.114l0.122-0.009
		c0.326,0,0.608,0.178,0.688,0.232c0.172,0.117,0.311,0.278,0.4,0.463c0.168,0.349,0.224,0.904,0.008,1.292
		c-0.143,0.253-0.407,0.438-0.716,0.513c0.014,0.041,0.028,0.083,0.038,0.117l0.416,1.183c0.049,0.122,0.091,0.275,0.11,0.446
		c1.809-1.107,3.717-1.953,5.832-2.561l0.285-0.078c0.042-0.012,0.087-0.021,0.132-0.03c0.077-0.034,0.136-0.078,0.192-0.12
		l0.112-0.082c0.324-0.221,0.687-0.458,1.004-0.654c0.767-0.47,1.66-0.887,2.655-1.242c0.079-0.028,0.151-0.064,0.226-0.099
		l0.126-0.06c0.104-0.046,0.208-0.089,0.315-0.128c0.347-0.128,0.723-0.214,1.084-0.248c0.105-0.012,0.22-0.019,0.333-0.019
		l0.131-0.001c0.909,0,1.399,0.324,1.456,0.964c0.042,0.49-0.147,0.979-0.582,1.497c-0.218,0.259-0.46,0.477-0.763,0.688
		c-0.108,0.077-0.228,0.161-0.384,0.192c-0.349,0.11-3.917,1.192-12.354,3.052l0.048,0.265c0.036,0.176,0.074,0.362,0.088,0.51
		c0.011,0.126,0.004,0.254-0.005,0.382L23.77,20.78c1.812,0.074,3.602,0.206,5.053,0.315l0.238,0.021
		c0.159,0.015,0.32,0.031,0.476,0.031c0.107,0,0.212-0.012,0.317-0.024l0.199-0.021c0.277-0.022,0.562-0.04,0.849-0.053
		c1.721-0.208,3.285-0.146,4.336,0.202c0.777,0.146,1.318,0.387,1.713,0.771c0.259,0.25,0.671,0.869,0.375,1.416
		c-0.035,0.062-0.072,0.115-0.113,0.161c-0.215,0.3-0.651,0.423-1.002,0.522l-0.098,0.028c-0.115,0.034-0.23,0.064-0.343,0.095
		c-0.137,0.039-0.25,0.07-0.361,0.1c-0.086,0.028-0.189,0.058-0.307,0.074c-0.224,0.05-0.419,0.077-0.57,0.077
		c-0.562,0-8.243-2.183-10.806-2.916c-0.01,0.049-0.015,0.091-0.026,0.144l-0.028,0.126c-0.049,0.267-0.083,0.417-0.188,0.521
		c0.02-0.019,0.018,0.023,0.018,0.054c0.005,0.41,0.001,0.822-0.003,1.235l-0.005,0.824l0.005,0.24
		c0.006,0.184,0.011,0.368-0.007,0.543c-0.009,0.096-0.049,0.173-0.075,0.224c-0.015,0.063-0.01,0.17-0.005,0.274
		c0.003,0.065,0.006,0.131,0.006,0.193l0.008,1.052c0,0.058,0.004,0.116,0.008,0.176c0.009,0.132,0.018,0.269-0.004,0.406
		c-0.014,0.078-0.044,0.137-0.072,0.179c0.01,0.047,0.016,0.077,0.019,0.106c0.011,0.075,0.012,0.163,0.011,0.249
		c0,0.268,0.006,0.484,0.012,0.7c0.005,0.201,0.011,0.402,0.012,0.608c0.019,0.23-0.009,0.39-0.081,0.494
		c-0.009,0.097-0.003,0.232,0.002,0.347c0.012,0.308,0.017,0.565,0.021,0.821s0.01,0.51,0.019,0.739l0.005,0.133l-0.09,0.099
		c-0.01,0.024-0.004,0.136-0.001,0.202l0.056,1.337c0.012,0.155,0.019,0.247,0.005,0.337c-0.024,0.135-0.101,0.219-0.16,0.271
		l0.036,0.423l0.062,0.731c0.019,0.118,0.039,0.252,0.012,0.386c-0.025,0.122-0.095,0.201-0.148,0.252
		c0.004,0.02,0.008,0.041,0.012,0.059c0.01,0.047,0.019,0.095,0.025,0.141l0.013,0.089c0.021,0.126,0.043,0.27,0.025,0.403
		c-0.049,0.387-0.243,0.696-0.52,0.828l-0.066,0.031l-0.268-0.036c-0.207-0.106-0.466-0.335-0.527-0.825
		c-0.018-0.142,0.007-0.271,0.028-0.387l0.036-0.214c0.005-0.027,0.011-0.062,0.015-0.093c-0.065-0.062-0.138-0.151-0.156-0.287
		c-0.016-0.121,0.001-0.238,0.015-0.343l0.014-0.117c0.024-0.336,0.05-0.662,0.077-0.991l0.006-0.056
		c-0.066-0.056-0.139-0.143-0.159-0.278c-0.017-0.13-0.007-0.262,0.003-0.39l0.054-1.149c0.007-0.11,0.016-0.261,0.001-0.327
		c-0.027-0.025-0.075-0.1-0.083-0.203c-0.009-0.098-0.003-0.219,0.005-0.342c0.004-0.065,0.008-0.131,0.008-0.192
		c0-0.254,0.008-0.491,0.016-0.73l0.014-0.382c0.004-0.072,0.011-0.193,0.006-0.266l-0.03-0.022l-0.057-0.156
		c-0.023-0.09-0.015-0.178-0.007-0.255c0.007-0.349,0.014-0.604,0.021-0.847c0.002-0.08,0.001-0.166,0-0.254
		c-0.003-0.188-0.004-0.384,0.019-0.551c0.004-0.029,0.011-0.062,0.019-0.094c-0.029-0.039-0.056-0.091-0.069-0.157
		c-0.028-0.136-0.018-0.275-0.008-0.41c0.004-0.057,0.009-0.114,0.009-0.169v-0.53c0-0.131,0.005-0.264,0.011-0.396
		c0.009-0.214,0.019-0.427-0.001-0.623c-0.03-0.04-0.067-0.113-0.077-0.208c-0.016-0.126-0.016-0.265-0.013-0.403l-0.074-2.553
		c-0.079-0.116-0.1-0.271-0.117-0.396l-0.038-0.188c-0.015-0.06-0.021-0.114-0.031-0.17c-3.05,0.882-10.28,2.933-10.832,2.933
		c-0.153,0-0.349-0.027-0.597-0.082c-0.091-0.012-0.195-0.041-0.298-0.074c-0.095-0.024-0.208-0.056-0.316-0.088
		c-0.134-0.035-0.252-0.066-0.373-0.103l-0.096-0.027C8.358,24,7.709,23.818,7.618,23.219c-0.059-0.383,0.089-0.78,0.418-1.12
		c0.365-0.379,0.852-0.625,1.531-0.774c0.634-0.258,1.536-0.396,2.628-0.396c0.882,0,1.733,0.092,2.292,0.17l0.68,0.057
		c0.104,0.011,0.208,0.023,0.308,0.023c0.161,0,0.312-0.016,0.462-0.03l0.242-0.022c1.446-0.109,2.92-0.208,4.415-0.292l0.222-0.014
		c0.152-0.01,0.301-0.017,0.447-0.02l-0.001-0.06c-0.008-0.123-0.015-0.248-0.006-0.366c0.014-0.168,0.048-0.341,0.084-0.516
		c0.018-0.086,0.036-0.173,0.051-0.26c0.001-0.011,0.003-0.017,0.004-0.027c-8.868-1.946-12.43-3.063-12.465-3.074l-0.147-0.081
		c-0.035-0.022-0.068-0.047-0.101-0.071c-0.382-0.271-0.883-0.674-1.181-1.3c-0.103-0.217-0.218-0.512-0.192-0.877
		c0.026-0.367,0.231-0.679,0.549-0.836c0.188-0.093,0.379-0.108,0.564-0.123l0.171-0.016c0.401-0.049,0.843,0.032,1.112,0.089
		c0.316,0.067,0.599,0.16,0.888,0.29l0.128,0.061c0.074,0.036,0.146,0.071,0.224,0.099c0.996,0.355,1.89,0.772,2.656,1.242
		c0.318,0.196,0.68,0.434,1.004,0.654l0.115,0.083c0.056,0.042,0.113,0.085,0.152,0.101c0.083,0.036,0.175,0.056,0.266,0.078
		c0.063,0.015,0.126,0.03,0.188,0.047c2.116,0.608,4.025,1.454,5.833,2.561c0.005-0.04,0.006-0.083,0.015-0.12L21.175,18.357z"/>
	<path d="M0.001,0v44.637h44.636V0H0.001z M22.32,43.064c-11.498,0-20.818-9.32-20.818-20.815c0-11.5,9.32-20.821,20.818-20.821
		c11.496,0,20.816,9.321,20.816,20.821C43.136,33.743,33.816,43.064,22.32,43.064z"/>
</g>
</svg>
