<?xml version="1.0" encoding="utf-8"?>
<!-- Generator: Adobe Illustrator 15.1.0, SVG Export Plug-In . SVG Version: 6.00 Build 0)  -->
<!DOCTYPE svg PUBLIC "-//W3C//DTD SVG 1.1//EN" "http://www.w3.org/Graphics/SVG/1.1/DTD/svg11.dtd">
<svg version="1.1"
	 id="Layer_1" inkscape:version="0.48.2 r9819" sodipodi:docname="ecobee.svg" xmlns:svg="http://www.w3.org/2000/svg" xmlns:inkscape="http://www.inkscape.org/namespaces/inkscape" xmlns:cc="http://creativecommons.org/ns#" xmlns:dc="http://purl.org/dc/elements/1.1/" xmlns:sodipodi="http://sodipodi.sourceforge.net/DTD/sodipodi-0.dtd" xmlns:rdf="http://www.w3.org/1999/02/22-rdf-syntax-ns#"
	 xmlns="http://www.w3.org/2000/svg" xmlns:xlink="http://www.w3.org/1999/xlink" x="0px" y="0px" width="44.636px"
	 height="44.637px" viewBox="0 0 44.636 44.637" enable-background="new 0 0 44.636 44.637" xml:space="preserve">
<sodipodi:namedview  fit-margin-top="0" fit-margin-left="0" fit-margin-right="0" fit-margin-bottom="0" inkscape:window-height="480" inkscape:window-maximized="0" showgrid="false" borderopacity="1" inkscape:current-layer="Layer_1" bordercolor="#666666" inkscape:cx="22.148" objecttolerance="10" inkscape:cy="22.631" inkscape:pageshadow="2" inkscape:pageopacity="0" inkscape:zoom="0.18209877" guidetolerance="10" inkscape:window-y="0" inkscape:window-x="0" inkscape:window-width="640" id="namedview9" pagecolor="#ffffff" gridtolerance="10">
	</sodipodi:namedview>
<g>
	<path d="M32.852,19.657c-5.733-5.262-8.136-2.367-8.136-2.367s-2.055,2.058,2.714,6.825c4.767,4.768,8.405,3.039,8.405,2.619
		C35.835,26.735,38.065,24.444,32.852,19.657z"/>
	<path d="M19.923,17.29c0,0-2.404-2.895-8.136,2.367c-5.214,4.785-2.985,7.077-2.985,7.077c0,0.42,3.641,2.149,8.41-2.619
		C21.978,19.348,19.923,17.29,19.923,17.29z"/>
	<circle cx="25.527" cy="12.369" r="1.592"/>
	<circle cx="19.111" cy="12.369" r="1.592"/>
	<path d="M22.331,21.86H22.32h-0.012l-1.186-0.019c0,0-0.927,1.747-2.039,2.767c0,0,1.114,0.52,3.212,0.491h0.012
		c0.004,0,0.008-0.001,0.013,0c0.004-0.001,0.007,0,0.011,0h0.011c2.099,0.028,3.211-0.491,3.211-0.491
		c-1.11-1.019-2.038-2.767-2.038-2.767L22.331,21.86z"/>
	<path d="M0,0v44.637h44.636V0H0z M22.32,43.137c-11.499,0-20.82-9.321-20.82-20.817C1.5,10.821,10.821,1.5,22.32,1.5
		c11.496,0,20.816,9.32,20.816,20.819C43.136,33.816,33.816,43.137,22.32,43.137z"/>
	<path d="M22.465,3.175C11.891,3.175,3.32,11.746,3.32,22.32s8.572,19.144,19.145,19.144c10.574,0,19.144-8.57,19.144-19.144
		S33.039,3.175,22.465,3.175z M24.88,34.17c-0.889,2.459-2.429,2.736-2.555,2.756v0.002c0,0-0.003,0-0.004-0.002
		c-0.005,0.002-0.006,0.002-0.006,0.002v-0.002c-0.127-0.02-1.667-0.297-2.555-2.756c0,0-0.129-0.273,0.19-0.137
		c0,0,0.937,0.646,2.366,0.646l0.005,1.07l0.003-1.07c1.427,0,2.365-0.646,2.365-0.646C25.007,33.898,24.88,34.17,24.88,34.17z
		 M26.126,32.296c-1.238,1.124-3.64,1.163-3.802,1.164H22.32c-0.003,0-0.006,0-0.006,0c-0.163-0.001-2.564-0.04-3.804-1.164
		c-1.281-1.165-1.445-1.782-1.445-3.067c0,0-0.01-0.127,0.136-0.018c0,0,1.882,1.398,5.119,1.401
		c3.236-0.003,5.117-1.401,5.117-1.401c0.146-0.109,0.137,0.018,0.137,0.018C27.574,30.514,27.412,31.131,26.126,32.296z
		 M34.082,29.073c-2.949,0-5.726-2.074-5.726-2.074c-0.08-0.065-0.136-0.009-0.136-0.009c-2.379,1.991-5.67,1.876-5.899,1.865
		c-0.231,0.011-3.523,0.126-5.901-1.865c0,0-0.055-0.056-0.137,0.009c0,0-2.774,2.074-5.723,2.074c-2.946,0-3.876-2.14-3.876-3.521
		s0.42-3.257,2.831-6.023c2.411-2.764,5.669-4.074,6.769-4.34c0,0,0.073,0.02,0.11-0.136c0.036-0.154,0.172-0.592,0.172-0.592
		s0.028-0.035-0.028-0.108c-0.053-0.072-0.699-0.736-0.699-1.984c0-1.245,0.828-3.274,3.73-3.274c0,0,0.017,0,0.09-0.073
		c0.073-0.072,1.377-1.302,2.657-1.308V7.712c0.001,0,0.003,0.001,0.006,0.001c0,0,0.001-0.001,0.003-0.001v0.001
		c1.279,0.006,2.584,1.235,2.656,1.308c0.074,0.073,0.092,0.073,0.092,0.073c2.902,0,3.729,2.028,3.729,3.274
		c0,1.248-0.645,1.912-0.7,1.984c-0.054,0.073-0.024,0.108-0.024,0.108s0.133,0.438,0.172,0.592
		c0.035,0.155,0.106,0.136,0.106,0.136c1.101,0.265,4.358,1.575,6.771,4.34c2.41,2.768,2.83,4.642,2.83,6.023
		S37.03,29.073,34.082,29.073z"/>
</g>
</svg>
