<?xml version="1.0" encoding="utf-8"?>
<!-- Generator: Adobe Illustrator 15.1.0, SVG Export Plug-In . SVG Version: 6.00 Build 0)  -->
<!DOCTYPE svg PUBLIC "-//W3C//DTD SVG 1.1//EN" "http://www.w3.org/Graphics/SVG/1.1/DTD/svg11.dtd">
<svg version="1.1"
	 id="Layer_1" xmlns:dc="http://purl.org/dc/elements/1.1/" xmlns:cc="http://creativecommons.org/ns#" xmlns:svg="http://www.w3.org/2000/svg" xmlns:rdf="http://www.w3.org/1999/02/22-rdf-syntax-ns#" xmlns:sodipodi="http://sodipodi.sourceforge.net/DTD/sodipodi-0.dtd" xmlns:inkscape="http://www.inkscape.org/namespaces/inkscape" inkscape:version="0.48.1 r9760" sodipodi:docname="insteon_LED.svg"
	 xmlns="http://www.w3.org/2000/svg" xmlns:xlink="http://www.w3.org/1999/xlink" x="0px" y="0px" width="44.637px"
	 height="44.637px" viewBox="0 0 44.637 44.637" enable-background="new 0 0 44.637 44.637" xml:space="preserve">
<sodipodi:namedview  borderopacity="1" bordercolor="#666666" pagecolor="#ffffff" objecttolerance="10" id="namedview11726" guidetolerance="10" inkscape:pageopacity="0" gridtolerance="10" inkscape:pageshadow="2" inkscape:window-width="1910" inkscape:zoom="21.013957" inkscape:window-height="1156" inkscape:cy="22.318501" inkscape:cx="22.318501" inkscape:window-x="0" inkscape:window-y="0" inkscape:window-maximized="0" showgrid="false" inkscape:current-layer="Layer_1">
	</sodipodi:namedview>
<g id="g11706">
	<g id="g11708">
	</g>
	<g id="g11712">
	</g>
	<g id="g11716">
	</g>
	<g id="g11720">
	</g>
</g>
<path d="M22.465,3.102c-10.573,0-19.146,8.572-19.146,19.146c0,10.57,8.573,19.143,19.146,19.143
	c10.574,0,19.144-8.571,19.145-19.143C41.61,11.673,33.039,3.102,22.465,3.102z M0,0v44.637h44.637V0H0z M22.32,43.064
	c-11.498,0-20.817-9.319-20.817-20.814c0-11.5,9.319-20.821,20.817-20.821c11.496,0,20.816,9.321,20.816,20.821
	C43.136,33.743,33.816,43.064,22.32,43.064z M19.25,21.708c-1.609-0.025-2.73,0.521-3.729,1.106
	c-0.418,3.855,1.496,11.266-2.875,10.748c-1.094-0.129-2.054-1.292-2.249-2.375c-0.675-3.729,2.03-7.613,3.874-8.998l0.007-3.664
	h-1.121c-1.399-2.74-1.248-5.289-1.248-5.289h-0.003h0.898v-2.953c0,0,0.019-0.44,0.441-0.44c0.424,0,0.414,0.414,0.414,0.414v2.98
	h2.582h-0.027v-2.953c0,0,0.018-0.44,0.441-0.44c0.422,0,0.414,0.414,0.414,0.414v2.98h0.881c0,0,0.152,2.549-1.248,5.289h-1.221
	v2.787c0,0,2.265-0.973,3.768-1.031V9.451h12.26v23.655H19.25V21.708 M11.647,29.438c-0.086,1.285,0.076,2.92,1.375,2.875
	c2.269-0.079,0.967-6.199,1.125-8.374C13.147,25.005,11.805,27.084,11.647,29.438z M29.86,12.677h-8.998v7.249h8.998V12.677z"/>
</svg>
