<?xml version="1.0" encoding="utf-8"?>
<!-- Generator: Adobe Illustrator 15.1.0, SVG Export Plug-In . SVG Version: 6.00 Build 0)  -->
<!DOCTYPE svg PUBLIC "-//W3C//DTD SVG 1.1//EN" "http://www.w3.org/Graphics/SVG/1.1/DTD/svg11.dtd">
<svg version="1.1"
	 id="Layer_1" xmlns:inkscape="http://www.inkscape.org/namespaces/inkscape" xmlns:rdf="http://www.w3.org/1999/02/22-rdf-syntax-ns#" sodipodi:docname="insteon_LED.svg" xmlns:sodipodi="http://sodipodi.sourceforge.net/DTD/sodipodi-0.dtd" xmlns:svg="http://www.w3.org/2000/svg" xmlns:dc="http://purl.org/dc/elements/1.1/" xmlns:cc="http://creativecommons.org/ns#" inkscape:version="0.48.1 r9760"
	 xmlns="http://www.w3.org/2000/svg" xmlns:xlink="http://www.w3.org/1999/xlink" x="0px" y="0px" width="44.637px"
	 height="44.637px" viewBox="0 0 44.637 44.637" enable-background="new 0 0 44.637 44.637" xml:space="preserve">
<sodipodi:namedview  inkscape:cx="22.318501" inkscape:cy="22.318501" id="namedview11726" gridtolerance="10" bordercolor="#666666" borderopacity="1" inkscape:pageopacity="0" inkscape:pageshadow="2" inkscape:window-width="1910" inkscape:window-height="1156" inkscape:window-x="0" inkscape:window-y="0" inkscape:window-maximized="0" inkscape:current-layer="Layer_1" inkscape:zoom="21.013957" pagecolor="#ffffff" showgrid="false" objecttolerance="10" guidetolerance="10">
	</sodipodi:namedview>
<g id="g11706">
	<g id="g11708">
	</g>
	<g id="g11712">
	</g>
	<g id="g11716">
	</g>
	<g id="g11720">
	</g>
</g>
<g>
	<path d="M0,0v44.637h44.637V0H0z"/>
</g>
<g id="layer1" transform="translate(0,-796.36218)">
	<g id="g4726" transform="translate(-727,-21)">
		<path id="path4724" fill="#5D5F5F" d="M770.233,839.426c0.002,11.577-9.383,20.962-20.959,20.964
			c-11.576,0-20.962-9.383-20.963-20.959c0-0.002,0-0.003,0-0.005c-0.001-11.576,9.383-20.962,20.959-20.963
			c11.577-0.001,20.963,9.383,20.963,20.959C770.233,839.424,770.233,839.425,770.233,839.426z"/>
		
			<radialGradient id="path4642_1_" cx="1153.7014" cy="578.5538" r="35.4159" gradientTransform="matrix(0.2935 0.014 0.0282 -0.5912 394.5247 1145.0461)" gradientUnits="userSpaceOnUse">
			<stop  offset="0" style="stop-color:#F5F4F1"/>
			<stop  offset="1" style="stop-color:#F5F4F1;stop-opacity:0"/>
		</radialGradient>
		<path id="path4642" fill="url(#path4642_1_)" d="M770.233,839.426c0.002,11.577-9.383,20.962-20.959,20.964
			c-11.576,0-20.962-9.383-20.963-20.959c0-0.002,0-0.003,0-0.005c-0.001-11.576,9.383-20.962,20.959-20.963
			c11.577-0.001,20.963,9.383,20.963,20.959C770.233,839.424,770.233,839.425,770.233,839.426z"/>
		
			<radialGradient id="path4670_1_" cx="2713.5081" cy="872.17" r="35.4154" gradientTransform="matrix(0.1118 0.1235 0.4387 -0.3973 78.9221 837.4877)" gradientUnits="userSpaceOnUse">
			<stop  offset="0" style="stop-color:#F5F4F1"/>
			<stop  offset="1" style="stop-color:#F5F4F1;stop-opacity:0"/>
		</radialGradient>
		<path id="path4670" fill="url(#path4670_1_)" d="M770.233,839.426c0.002,11.577-9.383,20.962-20.959,20.964
			c-11.576,0-20.962-9.383-20.963-20.959c0-0.002,0-0.003,0-0.005c-0.001-11.576,9.383-20.962,20.959-20.963
			c11.577-0.001,20.963,9.383,20.963,20.959C770.233,839.424,770.233,839.425,770.233,839.426z"/>
		
			<radialGradient id="path4674_1_" cx="-183.2893" cy="189.3243" r="35.4155" gradientTransform="matrix(0.1432 -0.1435 -0.4268 -0.4259 840.4852 880.4593)" gradientUnits="userSpaceOnUse">
			<stop  offset="0" style="stop-color:#F5F4F1"/>
			<stop  offset="1" style="stop-color:#F5F4F1;stop-opacity:0"/>
		</radialGradient>
		<path id="path4674" fill="url(#path4674_1_)" d="M770.233,839.426c0.002,11.577-9.383,20.962-20.959,20.964
			c-11.576,0-20.962-9.383-20.963-20.959c0-0.002,0-0.003,0-0.005c-0.001-11.576,9.383-20.962,20.959-20.963
			c11.577-0.001,20.963,9.383,20.963,20.959C770.233,839.424,770.233,839.425,770.233,839.426z"/>
		
			<radialGradient id="path4678_1_" cx="720.5588" cy="1103.3624" r="35.4157" gradientTransform="matrix(0.3299 0.6645 0.6009 -0.2983 -170.2266 697.3865)" gradientUnits="userSpaceOnUse">
			<stop  offset="0" style="stop-color:#0E191C"/>
			<stop  offset="1" style="stop-color:#0E191C;stop-opacity:0"/>
		</radialGradient>
		<path id="path4678" fill="url(#path4678_1_)" d="M770.233,839.426c0.002,11.577-9.383,20.962-20.959,20.964
			c-11.576,0-20.962-9.383-20.963-20.959c0-0.002,0-0.003,0-0.005c-0.001-11.576,9.383-20.962,20.959-20.963
			c11.577-0.001,20.963,9.383,20.963,20.959C770.233,839.424,770.233,839.425,770.233,839.426z"/>
		
			<radialGradient id="path4688_1_" cx="976.4622" cy="485.2643" r="35.4038" gradientTransform="matrix(0.3517 -0.0116 -0.0196 -0.5915 415.9862 1158.314)" gradientUnits="userSpaceOnUse">
			<stop  offset="0" style="stop-color:#424A4B"/>
			<stop  offset="1" style="stop-color:#424A4B;stop-opacity:0"/>
		</radialGradient>
		<path id="path4688" fill="url(#path4688_1_)" d="M770.233,839.426c0.002,11.577-9.383,20.962-20.959,20.964
			c-11.576,0-20.962-9.383-20.963-20.959c0-0.002,0-0.003,0-0.005c-0.001-11.576,9.383-20.962,20.959-20.963
			c11.577-0.001,20.963,9.383,20.963,20.959C770.233,839.424,770.233,839.425,770.233,839.426z"/>
		
			<radialGradient id="path4706_1_" cx="1134.1731" cy="1180.4825" r="35.4161" gradientTransform="matrix(-0.1714 0.3664 0.6074 0.2841 245.6971 94.4254)" gradientUnits="userSpaceOnUse">
			<stop  offset="0" style="stop-color:#0A1314"/>
			<stop  offset="1" style="stop-color:#0A1314;stop-opacity:0"/>
		</radialGradient>
		<path id="path4706" fill="url(#path4706_1_)" d="M770.233,839.426c0.002,11.577-9.383,20.962-20.959,20.964
			c-11.576,0-20.962-9.383-20.963-20.959c0-0.002,0-0.003,0-0.005c-0.001-11.576,9.383-20.962,20.959-20.963
			c11.577-0.001,20.963,9.383,20.963,20.959C770.233,839.424,770.233,839.425,770.233,839.426z"/>
	</g>
	<g id="g4924">
		<path id="path3766" fill="#706062" d="M42.299,818.426c0.002,11.062-8.965,20.028-20.026,20.03
			c-11.061,0-20.029-8.965-20.03-20.026c0-0.001,0-0.002,0-0.004c-0.001-11.061,8.965-20.029,20.026-20.03
			c11.061-0.001,20.03,8.965,20.03,20.026C42.299,818.424,42.299,818.425,42.299,818.426z"/>
		<path id="path4556" fill="#767676" d="M42.299,818.426c0.002,11.062-8.965,20.028-20.026,20.03
			c-11.061,0-20.029-8.965-20.03-20.026c0-0.001,0-0.002,0-0.004c-0.001-11.061,8.965-20.029,20.026-20.03
			c11.061-0.001,20.03,8.965,20.03,20.026C42.299,818.424,42.299,818.425,42.299,818.426z"/>
		
			<radialGradient id="path4544_1_" cx="636.6458" cy="1138.9132" r="35.4154" gradientTransform="matrix(-0.0065 0.4072 0.5588 0.0089 -591.1158 548.5289)" gradientUnits="userSpaceOnUse">
			<stop  offset="0" style="stop-color:#444544"/>
			<stop  offset="1" style="stop-color:#706062;stop-opacity:0"/>
		</radialGradient>
		<path id="path4544" fill="url(#path4544_1_)" d="M42.299,818.426c0.002,11.062-8.965,20.028-20.026,20.03
			c-11.061,0-20.029-8.965-20.03-20.026c0-0.001,0-0.002,0-0.004c-0.001-11.061,8.965-20.029,20.026-20.03
			c11.061-0.001,20.03,8.965,20.03,20.026C42.299,818.424,42.299,818.425,42.299,818.426z"/>
		
			<radialGradient id="path4560_1_" cx="722.7678" cy="1931.2804" r="35.4152" gradientTransform="matrix(-0.0736 0.0829 0.1467 0.1302 -192.7415 518.9964)" gradientUnits="userSpaceOnUse">
			<stop  offset="0" style="stop-color:#CFCDC7"/>
			<stop  offset="1" style="stop-color:#CFCDC7;stop-opacity:0"/>
		</radialGradient>
		<path id="path4560" fill="url(#path4560_1_)" d="M42.299,818.426c0.002,11.062-8.965,20.028-20.026,20.03
			c-11.061,0-20.029-8.965-20.03-20.026c0-0.001,0-0.002,0-0.004c-0.001-11.061,8.965-20.029,20.026-20.03
			c11.061-0.001,20.03,8.965,20.03,20.026C42.299,818.424,42.299,818.425,42.299,818.426z"/>
		
			<radialGradient id="path4570_1_" cx="-1315.2107" cy="1524.7618" r="35.4165" gradientTransform="matrix(-0.1583 0.0052 0.007 0.2138 -195.9467 519.5024)" gradientUnits="userSpaceOnUse">
			<stop  offset="0" style="stop-color:#E0D8D4"/>
			<stop  offset="0.6765" style="stop-color:#E0D8D4;stop-opacity:0.4549"/>
			<stop  offset="1" style="stop-color:#E0D8D4;stop-opacity:0"/>
		</radialGradient>
		<path id="path4570" fill="url(#path4570_1_)" d="M42.299,818.426c0.002,11.062-8.965,20.028-20.026,20.03
			c-11.061,0-20.029-8.965-20.03-20.026c0-0.001,0-0.002,0-0.004c-0.001-11.061,8.965-20.029,20.026-20.03
			c11.061-0.001,20.03,8.965,20.03,20.026C42.299,818.424,42.299,818.425,42.299,818.426z"/>
		
			<radialGradient id="path4582_1_" cx="5225.2461" cy="1005.3536" r="35.4158" gradientTransform="matrix(0.0369 0.0445 0.2905 -0.2408 -477.8164 839.3922)" gradientUnits="userSpaceOnUse">
			<stop  offset="0" style="stop-color:#B1ABA9"/>
			<stop  offset="1" style="stop-color:#B1ABA9;stop-opacity:0"/>
		</radialGradient>
		<path id="path4582" fill="url(#path4582_1_)" d="M42.299,818.426c0.002,11.062-8.965,20.028-20.026,20.03
			c-11.061,0-20.029-8.965-20.03-20.026c0-0.001,0-0.002,0-0.004c-0.001-11.061,8.965-20.029,20.026-20.03
			c11.061-0.001,20.03,8.965,20.03,20.026C42.299,818.424,42.299,818.425,42.299,818.426z"/>
		
			<radialGradient id="path4592_1_" cx="265.843" cy="1302.1388" r="35.4153" gradientTransform="matrix(0.0193 0.3913 0.7443 -0.0367 -971.2438 762.9697)" gradientUnits="userSpaceOnUse">
			<stop  offset="0" style="stop-color:#473E3E"/>
			<stop  offset="1" style="stop-color:#473E3E;stop-opacity:0"/>
		</radialGradient>
		<path id="path4592" fill="url(#path4592_1_)" d="M42.299,818.426c0.002,11.062-8.965,20.028-20.026,20.03
			c-11.061,0-20.029-8.965-20.03-20.026c0-0.001,0-0.002,0-0.004c-0.001-11.061,8.965-20.029,20.026-20.03
			c11.061-0.001,20.03,8.965,20.03,20.026C42.299,818.424,42.299,818.425,42.299,818.426z"/>
		
			<radialGradient id="path4602_1_" cx="454.7395" cy="539.0807" r="35.4159" gradientTransform="matrix(0.2842 0.0163 0.0324 -0.5646 -123.6844 1096.6406)" gradientUnits="userSpaceOnUse">
			<stop  offset="0" style="stop-color:#B9B5B4"/>
			<stop  offset="1" style="stop-color:#9D9290;stop-opacity:0"/>
		</radialGradient>
		<path id="path4602" fill="url(#path4602_1_)" d="M42.299,818.426c0.002,11.062-8.965,20.028-20.026,20.03
			c-11.061,0-20.029-8.965-20.03-20.026c0-0.001,0-0.002,0-0.004c-0.001-11.061,8.965-20.029,20.026-20.03
			c11.061-0.001,20.03,8.965,20.03,20.026C42.299,818.424,42.299,818.425,42.299,818.426z"/>
		
			<radialGradient id="path4630_1_" cx="934.5618" cy="1769.1359" r="35.4156" gradientTransform="matrix(-0.0466 0.0652 0.4602 0.3287 -763.9796 165.0675)" gradientUnits="userSpaceOnUse">
			<stop  offset="0" style="stop-color:#626463"/>
			<stop  offset="1" style="stop-color:#626463;stop-opacity:0"/>
		</radialGradient>
		<path id="path4630" fill="url(#path4630_1_)" d="M42.299,818.426c0.002,11.062-8.965,20.028-20.026,20.03
			c-11.061,0-20.029-8.965-20.03-20.026c0-0.001,0-0.002,0-0.004c-0.001-11.061,8.965-20.029,20.026-20.03
			c11.061-0.001,20.03,8.965,20.03,20.026C42.299,818.424,42.299,818.425,42.299,818.426z"/>
	</g>
	<g id="g4879" transform="translate(-2.2167876e-7,-3.5831251e-6)">
		<g id="g4800">
			<path id="path3768" stroke="#000000" d="M40.405,818.426c0,10.015-8.117,18.134-18.131,18.134
				c-10.014,0.002-18.133-8.117-18.134-18.13c0-0.001,0-0.002,0-0.004c0-10.014,8.117-18.133,18.13-18.134
				c10.014-0.001,18.133,8.116,18.135,18.131C40.405,818.424,40.405,818.425,40.405,818.426z"/>
			<g id="g4785">
				
					<radialGradient id="path3874_1_" cx="-215.0378" cy="944.2628" r="14.4451" gradientTransform="matrix(0.7494 0 0 -0.7494 183.4243 1526.0729)" gradientUnits="userSpaceOnUse">
					<stop  offset="0" style="stop-color:#EA1117"/>
					<stop  offset="0.3695" style="stop-color:#CD0D14"/>
					<stop  offset="1" style="stop-color:#C10914;stop-opacity:0"/>
				</radialGradient>
				<path id="path3874" opacity="0.3805" fill="url(#path3874_1_)" enable-background="new    " d="M33.004,818.426
					c0,5.927-4.805,10.733-10.733,10.733c-5.928,0-10.732-4.807-10.732-10.733c0-5.928,4.805-10.732,10.732-10.732
					C28.199,807.693,33.004,812.498,33.004,818.426z"/>
				
					<radialGradient id="path3772_1_" cx="-274.3738" cy="1033.6232" r="14.4452" gradientTransform="matrix(1 0 0 -1 296.6445 1852.0491)" gradientUnits="userSpaceOnUse">
					<stop  offset="0" style="stop-color:#EA1117"/>
					<stop  offset="0.3695" style="stop-color:#D3070E"/>
					<stop  offset="1" style="stop-color:#C10914;stop-opacity:0"/>
				</radialGradient>
				<path id="path3772" fill="url(#path3772_1_)" d="M36.592,818.426c0,7.909-6.41,14.321-14.321,14.321
					c-7.909,0-14.321-6.412-14.321-14.321s6.412-14.321,14.321-14.321C30.182,804.105,36.592,810.517,36.592,818.426z"/>
				
					<radialGradient id="path3860_1_" cx="-284.8538" cy="1040.4816" r="7.2802" gradientTransform="matrix(1 0 0 -1 307.125 1859.2366)" gradientUnits="userSpaceOnUse">
					<stop  offset="0" style="stop-color:#EA1117"/>
					<stop  offset="1" style="stop-color:#EA1117;stop-opacity:0"/>
				</radialGradient>
				
					<path id="path3860" fill="url(#path3860_1_)" stroke="#EF1D00" stroke-width="1.5" stroke-linecap="round" stroke-linejoin="round" stroke-opacity="0" d="
					M29.428,818.756c0,3.952-3.203,7.157-7.157,7.157c-3.952,0-7.156-3.205-7.156-7.157s3.204-7.156,7.156-7.156
					C26.225,811.6,29.428,814.804,29.428,818.756z"/>
				
					<radialGradient id="path3796_1_" cx="43.344" cy="1101.13" r="3.325" gradientTransform="matrix(1.2737 0 0 -1.2737 -32.9377 2220.9492)" gradientUnits="userSpaceOnUse">
					<stop  offset="0" style="stop-color:#F8EE46"/>
					<stop  offset="1" style="stop-color:#D3321C;stop-opacity:0"/>
				</radialGradient>
				<path id="path3796" fill="url(#path3796_1_)" d="M27.871,818.426c0.002,3.093-2.504,5.601-5.597,5.603
					c-3.094,0.002-5.603-2.504-5.604-5.598c0-0.001,0-0.003,0-0.005c-0.001-3.093,2.505-5.602,5.599-5.603
					c3.092-0.002,5.602,2.505,5.602,5.598C27.871,818.423,27.871,818.425,27.871,818.426z"/>
				<path id="path3818" fill="#F4F846" d="M22.856,818.426c0,0.322-0.262,0.584-0.584,0.584s-0.583-0.262-0.583-0.584
					s0.261-0.583,0.583-0.583S22.856,818.104,22.856,818.426z"/>
			</g>
		</g>
		<g id="g4859">
			<g id="g4393">
				<path fill="#C9C9BF" d="M17.355,803.438l0.35,1.371c2.534-0.971,7.586-0.633,10.209,0.612l0.262-1.371
					C24.875,802.618,19.697,802.719,17.355,803.438z"/>
				
					<linearGradient id="SVGID_1_" gradientUnits="userSpaceOnUse" x1="-294.8557" y1="251.1041" x2="-294.2369" y2="251.9292" gradientTransform="matrix(1 0 0 -1 306 1057.9993)">
					<stop  offset="0" style="stop-color:#BEBBB6"/>
					<stop  offset="1" style="stop-color:#BEBBB6;stop-opacity:0"/>
				</linearGradient>
				<path fill="url(#SVGID_1_)" d="M10.821,806.033c-2.151,2.813-2.868,4.574-3.15,6.155c0.539-0.258,0.794-0.754,1.047-1.198
					c1.009-1.565,2.04-3.147,3.475-4.198L10.821,806.033z"/>
				
					<linearGradient id="SVGID_2_" gradientUnits="userSpaceOnUse" x1="-294.0178" y1="247.528" x2="-290.1389" y2="247.2804" gradientTransform="matrix(1 0 0 -1 306 1057.9993)">
					<stop  offset="0" style="stop-color:#FFFFFF"/>
					<stop  offset="1" style="stop-color:#FFFFFF;stop-opacity:0"/>
				</linearGradient>
				<path opacity="0.5377" fill="url(#SVGID_2_)" enable-background="new    " d="M10.821,810.73l1.867-1.371l1.575,1.546
					l-1.779,0.759L10.821,810.73z"/>
				<path opacity="0.5377" fill="#FFFFFF" enable-background="new    " d="M19.484,806.734c1.55-0.214,3.156-0.144,4.784,0.029
					c0.094,0.334,0.129,0.727,0.146,1.138c-1.527-0.113-3.053-0.22-4.581-0.029C19.764,807.539,19.632,807.144,19.484,806.734z"/>
				<path fill="#816461" d="M30.656,809.651l-0.848,1.079c0.447,0.157,1.023,0.349,1.779,0.584c0.197-0.235,0.467-0.544,0.818-0.934
					C31.92,810.104,31.371,809.85,30.656,809.651L30.656,809.651z"/>
				<path fill="#F15E4F" d="M16.275,813.909l0.847-0.642l0.379,0.583l-0.642,0.525L16.275,813.909z"/>
				<path fill="#EC4E3E" d="M20.767,811.488c0.959-0.155,1.827-0.037,2.713,0.029l-0.059,0.524
					c-0.866-0.026-1.731-0.091-2.596,0.029L20.767,811.488z"/>
				<path fill="#E66044" d="M20.914,813.617c1.208-0.253,2.28-0.166,3.178,0.351l0.234-0.467c-1.273-0.576-2.7-0.539-3.53-0.263
					L20.914,813.617z"/>
				
					<linearGradient id="SVGID_3_" gradientUnits="userSpaceOnUse" x1="-278.6052" y1="244.2301" x2="-279.2758" y2="244.3176" gradientTransform="matrix(1 0 0 -1 306 1057.9993)">
					<stop  offset="0" style="stop-color:#EA3231"/>
					<stop  offset="1" style="stop-color:#EA3231;stop-opacity:0"/>
				</linearGradient>
				<path fill="url(#SVGID_3_)" d="M27.592,814.201l0.352-0.496l-0.816-0.379l-0.438,0.379L27.592,814.201z"/>
				<path fill="#F74639" d="M26.776,815.514c-0.375-0.584-0.449-0.887-0.787-1.167l-0.262,0.175c0.406,0.37,0.738,0.797,0.99,1.283
					L26.776,815.514z"/>
				<path fill="#EF4D2B" d="M23.014,814.639c-0.477-0.125-0.954-0.098-1.43-0.029v-0.321c0.446-0.135,0.916-0.128,1.401-0.029
					L23.014,814.639z"/>
				<path fill="#EB5241" d="M19.076,814.492c-0.501,0.455-0.832,0.975-1.021,1.546l-0.175-0.175
					c0.194-0.621,0.495-1.213,0.992-1.721L19.076,814.492z"/>
				<path fill="#F7432E" d="M19.396,815.805l0.176-0.408l-0.438-0.175l-0.205,0.408L19.396,815.805z"/>
				<path fill="#F7432E" d="M25.405,815.776l0.205-0.32l-0.35-0.204l-0.293,0.233L25.405,815.776z"/>
				
					<linearGradient id="SVGID_4_" gradientUnits="userSpaceOnUse" x1="-271.0056" y1="249.4728" x2="-272.4908" y2="248.4001" gradientTransform="matrix(1 0 0 -1 306 1057.9993)">
					<stop  offset="0" style="stop-color:#8F908A"/>
					<stop  offset="1" style="stop-color:#8F908A;stop-opacity:0"/>
				</linearGradient>
				<path fill="url(#SVGID_4_)" d="M32.76,807.089l0.789-0.671c1.393,0.741,2.393,2.205,3.324,3.792l-0.408,0.408
					C35.26,809.384,34.043,808.17,32.76,807.089z"/>
			</g>
			<g id="path4462" opacity="0.9308" enable-background="new    ">
				<path fill="#35373C" d="M22.271,801.637c-2.005,0-3.93,0.355-5.713,1l0.387,0.026c1.674-0.56,3.464-0.696,5.326-0.696
					c2.479,0,4.833,0.371,6.952,1.335l0.484,0.067C27.465,802.261,24.942,801.637,22.271,801.637z"/>
			</g>
			<g id="path4469" opacity="0.3931" enable-background="new    ">
				<path fill="#BAB7B2" d="M9.355,807.701c-0.612,0.736-1.164,1.526-1.645,2.361l0.03,0.006c0.205-0.339,0.587-0.67,0.813-0.992
					c0.286-0.405,0.589-0.962,0.909-1.339L9.355,807.701z"/>
			</g>
		</g>
	</g>
</g>
</svg>
