<?xml version="1.0" encoding="utf-8"?>
<!-- Generator: Adobe Illustrator 15.1.0, SVG Export Plug-In . SVG Version: 6.00 Build 0)  -->
<!DOCTYPE svg PUBLIC "-//W3C//DTD SVG 1.1//EN" "http://www.w3.org/Graphics/SVG/1.1/DTD/svg11.dtd">
<svg version="1.1"
	 id="Layer_1" inkscape:version="0.48.2 r9819" sodipodi:docname="ecobee.svg" xmlns:svg="http://www.w3.org/2000/svg" xmlns:inkscape="http://www.inkscape.org/namespaces/inkscape" xmlns:cc="http://creativecommons.org/ns#" xmlns:dc="http://purl.org/dc/elements/1.1/" xmlns:sodipodi="http://sodipodi.sourceforge.net/DTD/sodipodi-0.dtd" xmlns:rdf="http://www.w3.org/1999/02/22-rdf-syntax-ns#"
	 xmlns="http://www.w3.org/2000/svg" xmlns:xlink="http://www.w3.org/1999/xlink" x="0px" y="0px" width="44.637px"
	 height="44.637px" viewBox="0 0 44.637 44.637" enable-background="new 0 0 44.637 44.637" xml:space="preserve">
<g>
	<path d="M0,0v44.637h44.637V0H0z M22.32,43.138c-11.498,0-20.818-9.322-20.818-20.818C1.501,10.823,10.822,1.5,22.32,1.5
		c11.496,0,20.816,9.323,20.816,20.819S33.816,43.138,22.32,43.138z"/>
	<path d="M22.465,3.175c-10.572,0-19.145,8.572-19.145,19.145c0,10.573,8.572,19.145,19.145,19.145
		c10.574,0,19.144-8.571,19.145-19.145C41.61,11.746,33.039,3.175,22.465,3.175z M30.49,21.355c0,1.194-0.969,2.162-2.162,2.162
		c-1.194,0-2.162-0.968-2.162-2.162c0-1.193,0.968-2.162,2.162-2.162C29.522,19.193,30.49,20.161,30.49,21.355z M27.57,15.516
		c0,1.194-0.968,2.162-2.161,2.162c-1.194,0-2.162-0.968-2.162-2.162s0.968-2.162,2.162-2.162
		C26.602,13.354,27.57,14.322,27.57,15.516z M24.652,21.355c0,1.195-0.968,2.163-2.162,2.163c-1.195,0-2.163-0.968-2.163-2.163
		c0-1.194,0.968-2.163,2.163-2.163C23.684,19.192,24.652,20.16,24.652,21.355z M22.452,7.458c1.194,0,2.163,0.968,2.163,2.163
		c0,1.194-0.969,2.163-2.163,2.163c-1.195,0-2.163-0.969-2.163-2.163C20.289,8.426,21.257,7.458,22.452,7.458z M19.568,13.353
		c1.195,0,2.163,0.969,2.163,2.163s-0.968,2.163-2.163,2.163c-1.194,0-2.163-0.969-2.163-2.163S18.373,13.353,19.568,13.353z
		 M16.613,19.193c1.194,0,2.162,0.969,2.162,2.162c0,1.194-0.968,2.162-2.162,2.162c-1.193,0-2.161-0.968-2.161-2.162
		C14.451,20.161,15.419,19.193,16.613,19.193z M11.439,27.194c0-1.194,0.969-2.162,2.163-2.162s2.163,0.968,2.163,2.162
		c0,1.195-0.969,2.163-2.163,2.163S11.439,28.389,11.439,27.194z M16.613,35.268c-1.193,0-2.161-0.968-2.161-2.162
		c0-1.193,0.968-2.162,2.161-2.162c1.194,0,2.162,0.969,2.162,2.162C18.775,34.3,17.807,35.268,16.613,35.268z M17.316,27.194
		c0-1.193,0.969-2.161,2.162-2.161c1.194,0,2.162,0.968,2.162,2.161c0,1.194-0.968,2.162-2.162,2.162
		C18.284,29.356,17.316,28.388,17.316,27.194z M22.49,35.269c-1.195,0-2.163-0.968-2.163-2.163c0-1.194,0.968-2.163,2.163-2.163
		c1.194,0,2.162,0.969,2.162,2.163C24.652,34.301,23.684,35.269,22.49,35.269z M23.156,27.194c0-1.193,0.968-2.161,2.161-2.161
		c1.194,0,2.162,0.968,2.162,2.161c0,1.194-0.968,2.162-2.162,2.162C24.124,29.356,23.156,28.388,23.156,27.194z M28.328,35.268
		c-1.194,0-2.162-0.968-2.162-2.162c0-1.193,0.968-2.162,2.162-2.162c1.193,0,2.162,0.969,2.162,2.162
		C30.49,34.3,29.522,35.268,28.328,35.268z M31.193,29.356c-1.193,0-2.161-0.968-2.161-2.162c0-1.193,0.968-2.161,2.161-2.161
		c1.194,0,2.162,0.968,2.162,2.161C33.355,28.388,32.387,29.356,31.193,29.356z"/>
</g>
</svg>
