<?xml version="1.0" encoding="utf-8"?>
<!-- Generator: Adobe Illustrator 15.1.0, SVG Export Plug-In . SVG Version: 6.00 Build 0)  -->
<!DOCTYPE svg PUBLIC "-//W3C//DTD SVG 1.1//EN" "http://www.w3.org/Graphics/SVG/1.1/DTD/svg11.dtd">
<svg version="1.1"
	 id="Layer_1" inkscape:version="0.48.2 r9819" sodipodi:docname="ecobee.svg" xmlns:svg="http://www.w3.org/2000/svg" xmlns:inkscape="http://www.inkscape.org/namespaces/inkscape" xmlns:cc="http://creativecommons.org/ns#" xmlns:dc="http://purl.org/dc/elements/1.1/" xmlns:sodipodi="http://sodipodi.sourceforge.net/DTD/sodipodi-0.dtd" xmlns:rdf="http://www.w3.org/1999/02/22-rdf-syntax-ns#"
	 xmlns="http://www.w3.org/2000/svg" xmlns:xlink="http://www.w3.org/1999/xlink" x="0px" y="0px" width="44.637px"
	 height="44.637px" viewBox="0 0 44.637 44.637" enable-background="new 0 0 44.637 44.637" xml:space="preserve">
<g>
	<path fill="#111111" d="M22.464,3.176c-10.573,0-19.146,8.571-19.146,19.144c0,10.573,8.572,19.146,19.146,19.146
		c10.575,0,19.145-8.571,19.145-19.145C41.609,11.748,33.039,3.176,22.464,3.176z M12.885,17.193c0-2.814,2.017-2.479,3.536-7.026
		c0.296-0.893,3.509,4.772,3.433,7.026c0,1.926-1.561,3.486-3.484,3.486S12.885,19.118,12.885,17.193z M25.603,35.637
		c-3.946,0-7.145-3.202-7.145-7.15c0-5.763,4.135-5.081,7.251-14.406c0.606-1.831,7.193,9.785,7.037,14.406
		C32.746,32.435,29.547,35.637,25.603,35.637z"/>
	<path fill="#111111" d="M0,0v44.637h44.637V0H0z M22.32,43.139C10.821,43.139,1.5,33.817,1.5,22.321
		C1.5,10.823,10.821,1.5,22.32,1.5c11.496,0,20.816,9.323,20.817,20.82C43.137,33.817,33.817,43.139,22.32,43.139z"/>
	<path fill="#111111" d="M23.048,30.271c-1.089-1.297-1.089-3.088,0-4.385c0.205-0.238,0.252-0.576,0.117-0.859
		c-0.132-0.285-0.422-0.466-0.736-0.46c-0.235,0.004-0.457,0.111-0.604,0.293c-1.567,1.869-1.567,4.574,0,6.441
		c1.772,2.111,4.944,2.391,7.059,0.617c2.111-1.773,2.389-4.945,0.617-7.06c-0.179-0.235-0.474-0.354-0.767-0.309
		s-0.534,0.25-0.631,0.531c-0.096,0.278-0.028,0.588,0.172,0.805c1.218,1.449,1.027,3.59-0.422,4.805
		C26.404,31.908,24.263,31.72,23.048,30.271z"/>
	<path fill="#111111" d="M25.249,29.901c0.25,0.146,0.559,0.146,0.807,0c0.25-0.146,0.4-0.414,0.396-0.702v-5.146
		c0.004-0.215-0.08-0.424-0.23-0.576c-0.152-0.151-0.359-0.237-0.576-0.235c-0.213,0.002-0.416,0.09-0.563,0.239
		c-0.15,0.154-0.232,0.359-0.229,0.572v5.146C24.849,29.487,24.999,29.755,25.249,29.901z"/>
</g>
</svg>
