<?xml version="1.0" encoding="utf-8"?>
<!-- Generator: Adobe Illustrator 15.1.0, SVG Export Plug-In . SVG Version: 6.00 Build 0)  -->
<!DOCTYPE svg PUBLIC "-//W3C//DTD SVG 1.1//EN" "http://www.w3.org/Graphics/SVG/1.1/DTD/svg11.dtd">
<svg version="1.1"
	 id="Layer_1" inkscape:version="0.48.2 r9819" sodipodi:docname="ecobee.svg" xmlns:svg="http://www.w3.org/2000/svg" xmlns:inkscape="http://www.inkscape.org/namespaces/inkscape" xmlns:cc="http://creativecommons.org/ns#" xmlns:dc="http://purl.org/dc/elements/1.1/" xmlns:sodipodi="http://sodipodi.sourceforge.net/DTD/sodipodi-0.dtd" xmlns:rdf="http://www.w3.org/1999/02/22-rdf-syntax-ns#"
	 xmlns="http://www.w3.org/2000/svg" xmlns:xlink="http://www.w3.org/1999/xlink" x="0px" y="0px" width="44.637px"
	 height="44.637px" viewBox="0 0 44.637 44.637" enable-background="new 0 0 44.637 44.637" xml:space="preserve">
<g>
	<path d="M22.465,3.185c-10.573,0-19.146,8.579-19.146,19.152s8.574,19.144,19.146,19.144c10.574,0,19.144-8.572,19.145-19.144
		C41.61,11.765,33.039,3.185,22.465,3.185z M36.475,20.911c0,0.148-0.185,0.178-0.262,0.189l-4.399,0.705
		c-0.929,1.873-2.793,3.535-6.497,3.535c-1.083,0-2.089-0.201-3.026-0.486c0.232,1.006,0.67,2.898,0.67,2.895
		c0.042,0.141,0.02,0.275-0.062,0.373c-0.076,0.092-0.194,0.137-0.334,0.123l-5.331-0.574c-0.085-0.01-0.262-0.029-0.269-0.18
		c-0.006-0.15,0.17-0.186,0.256-0.199l2.992-0.557c0.046-0.008,0.086-0.031,0.106-0.072c0.024-0.041,0.027-0.096,0.003-0.16
		c0,0-0.537-1.951-0.751-2.719c-0.064-0.031-0.135-0.064-0.197-0.094c-1.521-0.691-2.72-1.237-3.642-0.85
		c-0.572,0.242-1.025,0.852-1.387,1.873c-0.185,0.521-0.28,1.086-0.28,1.67c0,1.006,0.274,2.084,0.813,3.15
		c1.104,2.182,3.115,3.979,5.12,4.58c3.789,1.135,7.426,0.088,10.81-3.111l0.133-0.125c0.053-0.049,0.135-0.053,0.189-0.002
		c0.054,0.049,0.062,0.129,0.017,0.188c-0.044,0.057-4.222,5.414-10.654,4.793c-0.098-0.01-9.601-1.045-9.601-10.633
		c0-2.938,1.013-5.115,2.458-6.677l-1.712-0.689c-0.182-0.059-0.426,0.029-0.536,0.193l-2.767,4.09
		c-0.113,0.164-0.517,0.156-0.425-0.029l2.708-5.933c0.089-0.18,0.315-0.299,0.506-0.264l3.896,1.201
		c1.85-1.236,3.987-1.777,5.682-1.777c1.413,0,2.712,0.359,3.788,0.783c0.219-1.045,0.688-3.309,0.689-3.316
		c0.021-0.068,0.075-0.254,0.23-0.24c0.157,0.016,0.179,0.207,0.187,0.283c0,0,0.27,3.354,0.312,3.922
		c0.322,0.166,0.611,0.322,0.841,0.451l0.377,0.203c0.509,0.266,0.969,0.305,1.367,0.125c0.778-0.355,1.113-1.404,1.183-1.646
		c-0.278-0.16-1.612-0.979-2.016-1.895c-0.236-0.537-0.318-1.162-0.318-1.779c0-1.352,0.4-2.639,0.421-2.715
		c0.021-0.066,0.09-0.107,0.158-0.096c0.05,0.008,5.044,0.969,4.353,5.205c0.277,0.973,0.424,2.02,0.424,3.035
		c0,0.643-0.061,1.521-0.286,2.459l3.801,0.6C36.29,20.729,36.474,20.757,36.475,20.911z"/>
	<path d="M0,0v44.637h44.637V0H0z M22.32,43.156c-11.498,0-20.817-9.322-20.817-20.818c0-11.498,9.319-20.828,20.817-20.828
		c11.496,0,20.816,9.33,20.816,20.828C43.136,33.833,33.816,43.156,22.32,43.156z"/>
</g>
</svg>
