<?xml version="1.0" encoding="utf-8"?>
<!-- Generator: Adobe Illustrator 15.1.0, SVG Export Plug-In . SVG Version: 6.00 Build 0)  -->
<!DOCTYPE svg PUBLIC "-//W3C//DTD SVG 1.1//EN" "http://www.w3.org/Graphics/SVG/1.1/DTD/svg11.dtd">
<svg version="1.1"
	 id="Layer_1" inkscape:version="0.48.2 r9819" sodipodi:docname="ecobee.svg" xmlns:svg="http://www.w3.org/2000/svg" xmlns:inkscape="http://www.inkscape.org/namespaces/inkscape" xmlns:cc="http://creativecommons.org/ns#" xmlns:dc="http://purl.org/dc/elements/1.1/" xmlns:sodipodi="http://sodipodi.sourceforge.net/DTD/sodipodi-0.dtd" xmlns:rdf="http://www.w3.org/1999/02/22-rdf-syntax-ns#"
	 xmlns="http://www.w3.org/2000/svg" xmlns:xlink="http://www.w3.org/1999/xlink" x="0px" y="0px" width="44.637px"
	 height="44.637px" viewBox="0 0 44.637 44.637" enable-background="new 0 0 44.637 44.637" xml:space="preserve">
<g>
	<path d="M0,0.001v44.636h44.637V0.001H0z M22.32,43.038c-11.499,0-20.818-9.322-20.818-20.818c0-11.499,9.319-20.82,20.818-20.82
		c11.495,0,20.816,9.321,20.816,20.82C43.136,33.716,33.815,43.038,22.32,43.038z"/>
	<path d="M22.465,3.075c-10.574,0-19.146,8.572-19.146,19.146c0,10.572,8.572,19.145,19.146,19.145s19.144-8.573,19.145-19.145
		C41.61,11.647,33.039,3.075,22.465,3.075z M18.333,31.99c-5.388,0-12.047-4.384-12.047-9.77c0-5.387,6.659-9.77,12.047-9.77
		c4.074,0,7.569,2.506,9.035,6.057h-1.105c-1.401-2.979-4.428-5.045-7.93-5.045c-4.828,0-8.757,3.928-8.757,8.758
		c0,4.828,3.929,8.756,8.757,8.756c3.42,0,6.385-1.971,7.826-4.834h1.118C25.765,29.581,22.325,31.99,18.333,31.99z M25.2,19.77
		l-1.646,5.109h-1.082l-1.06-3.281c-0.079-0.264-0.143-0.555-0.143-0.555h-0.02c0,0-0.061,0.291-0.142,0.555l-1.051,3.281h-1.09
		l-1.642-5.109h1.039l1.061,3.584c0.08,0.265,0.12,0.546,0.131,0.546h0.021c0,0,0.051-0.281,0.131-0.546l1.109-3.572h0.899
		l1.1,3.572c0.08,0.265,0.144,0.546,0.144,0.546h0.02c0,0,0.04-0.281,0.121-0.546l1.07-3.584H25.2z M12.644,21.102
		c0-0.928,0.827-1.452,1.849-1.452c1.118,0,1.646,0.565,1.646,0.565l-0.395,0.736c0,0-0.454-0.454-1.262-0.454
		c-0.424,0-0.838,0.182-0.838,0.626c0,0.919,2.623,0.716,2.623,2.391c0,0.851-0.727,1.486-1.846,1.486
		c-1.252,0-1.939-0.748-1.939-0.748l0.475-0.696c0,0,0.575,0.596,1.465,0.596c0.423,0,0.847-0.223,0.847-0.637
		C15.268,22.577,12.644,22.768,12.644,21.102z M27.733,24.876h-1.056c0.268-0.838,0.414-1.731,0.414-2.657
		c0-0.849-0.124-1.669-0.35-2.447h1.051c0.204,0.782,0.311,1.602,0.311,2.447C28.103,23.14,27.972,24.031,27.733,24.876z
		 M32.506,24.879h-1.13l-1.907-5.109h1.039l1.241,3.454c0.102,0.282,0.162,0.695,0.172,0.695h0.021c0.01,0,0.081-0.413,0.183-0.695
		l1.241-3.454h1.028L32.506,24.879z M39.132,19.77h0.246l0.142,0.404c0.021,0.062,0.034,0.123,0.056,0.209h0.003
		c0.021-0.074,0.039-0.146,0.059-0.203l0.142-0.41h0.237l0.063,0.825h-0.165l-0.03-0.485c-0.004-0.063-0.004-0.143-0.006-0.229
		h-0.009c-0.022,0.072-0.05,0.17-0.069,0.246l-0.149,0.457H39.48l-0.147-0.471c-0.016-0.061-0.039-0.16-0.058-0.232h-0.01
		c0,0.076-0.003,0.154-0.006,0.229l-0.03,0.485H39.07L39.132,19.77z M38.332,19.77h0.689v0.138h-0.264v0.688h-0.164v-0.688h-0.262
		V19.77z M38.312,23.984c0.188,0,0.35-0.022,0.35-0.022v0.908c0,0-0.208,0.046-0.418,0.046c-0.678,0-2.28-0.256-2.28-2.444v-2.712
		h0.976v2.409C36.939,23.797,37.777,23.984,38.312,23.984z"/>
</g>
</svg>
