<?xml version="1.0" encoding="utf-8"?>
<!-- Generator: Adobe Illustrator 15.1.0, SVG Export Plug-In . SVG Version: 6.00 Build 0)  -->
<!DOCTYPE svg PUBLIC "-//W3C//DTD SVG 1.1//EN" "http://www.w3.org/Graphics/SVG/1.1/DTD/svg11.dtd">
<svg version="1.1" id="Layer_1" xmlns="http://www.w3.org/2000/svg" xmlns:xlink="http://www.w3.org/1999/xlink" x="0px" y="0px"
	 width="216px" height="216px" viewBox="0 0 216 216" enable-background="new 0 0 216 216" xml:space="preserve">
<path d="M107.752,7.611C52.369,7.611,7.314,52.67,7.314,108.053c0,55.379,45.055,100.43,100.438,100.43
	c55.375,0,100.426-45.051,100.426-100.43C208.178,52.67,163.127,7.611,107.752,7.611z"/>
<g>
	<path fill="#FFFFFF" d="M107.752,14.361c-51.742,0-93.688,41.949-93.688,93.691c0,51.73,41.945,93.68,93.688,93.68
		c51.73,0,93.676-41.949,93.676-93.68C201.428,56.311,159.482,14.361,107.752,14.361z M108.404,194.197
		c-47.582,0-86.152-38.57-86.152-86.145c0-47.582,38.57-86.152,86.152-86.152c47.578,0,86.148,38.57,86.148,86.152
		C194.553,155.627,155.982,194.197,108.404,194.197z"/>
</g>
<path id="path3_3_" fill="#F7EC3A" d="M135.479,148.889l-2.32,13.699c-4.641,2.191-9.668,3.789-14.977,4.719
	c-5.301,0.941-10.539,1.117-15.68,0.688l-7.727-12.148l9.668-10.238c3.219,0.273,6.512,0.133,9.836-0.457
	c3.312-0.582,6.469-1.578,9.395-2.938L135.479,148.889z"/>
<path id="path5_3_" fill="#7D3795" d="M80.494,67.17l1.855-13.688c4.641-2.191,9.668-3.781,14.965-4.719
	c5.301-0.934,10.547-1.125,15.68-0.68l6.566,12.738l-8.535,9.648c-3.215-0.266-6.52-0.133-9.832,0.445
	c-3.324,0.59-6.469,1.598-9.395,2.945L80.494,67.17z"/>
<path id="path11_3_" fill="#65B045" d="M85.643,152.561l-12.426,4.793c-4.199-2.973-8.086-6.508-11.566-10.625
	c-3.453-4.16-6.285-8.582-8.445-13.254l6.785-11.582l13.578,2.074c1.379,2.918,3.121,5.715,5.301,8.309
	c2.188,2.582,4.621,4.809,7.25,6.652L85.643,152.561z"/>
<path id="path7_3_" fill="#CEDD3A" d="M102.502,167.994c-5.133-0.445-10.281-1.551-15.344-3.406
	c-5.055-1.824-9.715-4.305-13.941-7.234l12.875-18.426c2.629,1.844,5.547,3.375,8.73,4.539c3.188,1.168,6.406,1.852,9.621,2.141
	L102.502,167.994z"/>
<path id="path13_3_" fill="#EE3424" d="M126.916,63.029l15.375-4.312c4.191,2.973,8.086,6.504,11.555,10.629
	c3.457,4.156,6.285,8.586,8.449,13.254l-7.262,13.613l-13.102-4.105c-1.375-2.922-3.121-5.711-5.301-8.305
	c-2.191-2.594-4.625-4.816-7.254-6.656L126.916,63.029z"/>
<path id="path9_3_" fill="#A81D4C" d="M112.971,48.119c5.133,0.43,10.281,1.574,15.344,3.402c5.055,1.828,9.75,4.293,13.941,7.23
	l-12.879,18.395c-2.625-1.844-5.555-3.371-8.734-4.531c-3.18-1.172-6.398-1.855-9.617-2.145L112.971,48.119z"/>
<path id="path19_3_" fill="#405DAA" d="M58.092,110.986l-10.293-8.16c0.438-5.137,1.574-10.293,3.402-15.352
	c1.828-5.051,4.297-9.746,7.23-13.938l14.039-0.027l4.395,12.895c-1.848,2.633-3.375,5.555-4.543,8.734
	c-1.164,3.184-1.84,6.398-2.137,9.617L58.092,110.986z"/>
<path id="path15_3_" fill="#0D92CD" d="M53.197,133.439c-2.191-4.637-3.789-9.664-4.723-14.965
	c-0.93-5.309-1.113-10.555-0.676-15.684l22.387,1.965c-0.273,3.215-0.133,6.52,0.449,9.844c0.586,3.316,1.59,6.469,2.941,9.395
	L53.197,133.439z"/>
<path id="path21_3_" fill="#F8991D" d="M156.924,102.35l10.75,10.941c-0.441,5.129-1.539,10.281-3.402,15.344
	c-1.828,5.055-4.297,9.738-7.234,13.941l-14.703,0.285l-3.691-13.168c1.844-2.621,3.375-5.551,4.543-8.73
	c1.16-3.172,1.848-6.402,2.137-9.625L156.924,102.35z"/>
<path id="path17_3_" fill="#F15622" d="M162.303,82.658c2.199,4.637,3.789,9.668,4.719,14.977
	c0.941,5.301,1.125,10.547,0.688,15.672l-22.387-1.969c0.297-3.215,0.168-6.512-0.422-9.836c-0.578-3.32-1.617-6.465-2.969-9.395
	L162.303,82.658z"/>
<path id="path23_3_" fill="#462F91" d="M58.432,73.506c2.973-4.207,6.508-8.09,10.629-11.57c4.156-3.453,8.578-6.281,13.254-8.445
	l9.508,20.363c-2.918,1.375-5.719,3.121-8.305,5.309c-2.594,2.18-4.816,4.613-6.652,7.242L58.432,73.506z"/>
<path id="path25_3_" fill="#F8BC16" d="M138.643,129.662l18.43,12.902c-2.969,4.207-6.504,8.09-10.633,11.566
	c-4.156,3.457-8.578,6.277-13.254,8.449l-9.512-20.367c2.93-1.371,5.723-3.109,8.305-5.297
	C134.572,134.736,136.807,132.291,138.643,129.662L138.643,129.662z"/>
<path id="circle27_3_" fill="none" stroke="#010101" stroke-width="0.0787" d="M70.607,114.607
	c-3.621-20.512,10.082-40.074,30.586-43.691c20.504-3.609,40.059,10.082,43.68,30.598c3.613,20.504-10.082,40.051-30.586,43.672
	C93.783,148.799,74.221,135.111,70.607,114.607z"/>
<path id="circle29_3_" fill="none" stroke="#010101" stroke-width="0.0787" d="M48.486,118.506
	C42.709,85.783,64.568,54.58,97.291,48.803c32.719-5.766,63.93,16.086,69.703,48.809c5.766,32.719-16.09,63.93-48.812,69.695
	C85.459,173.08,54.252,151.229,48.486,118.506z"/>
</svg>
