<?xml version="1.0" encoding="utf-8"?>
<!-- Generator: Adobe Illustrator 15.1.0, SVG Export Plug-In . SVG Version: 6.00 Build 0)  -->
<!DOCTYPE svg PUBLIC "-//W3C//DTD SVG 1.1//EN" "http://www.w3.org/Graphics/SVG/1.1/DTD/svg11.dtd">
<svg version="1.1" id="Layer_1" xmlns="http://www.w3.org/2000/svg" xmlns:xlink="http://www.w3.org/1999/xlink" x="0px" y="0px"
	 width="216px" height="216px" viewBox="0 0 216 216" enable-background="new 0 0 216 216" xml:space="preserve">
<path fill="#8AD5E8" d="M108.467,7C53.084,7,8.029,52.059,8.029,107.441c0,55.379,45.055,100.43,100.438,100.43
	c55.375,0,100.422-45.051,100.422-100.43C208.889,52.059,163.842,7,108.467,7z"/>
<g>
	<path fill="#FFFFFF" d="M108.467,13.75c-51.742,0-93.688,41.949-93.688,93.691c0,51.73,41.945,93.68,93.688,93.68
		c51.73,0,93.672-41.949,93.672-93.68C202.139,55.699,160.197,13.75,108.467,13.75z M109.115,193.586
		c-47.574,0-86.148-38.57-86.148-86.145c0-47.582,38.574-86.152,86.148-86.152c47.586,0,86.148,38.57,86.148,86.152
		C195.264,155.016,156.701,193.586,109.115,193.586z"/>
</g>
<g>
	<path fill-rule="evenodd" clip-rule="evenodd" d="M131.588,149.754c14.574-4.324,28.98-8.812,43.535-13.156
		c0-8.441,0-16.875,0-25.312c-8.449-5.391-18.062-9.609-26.328-15.188c-0.367-3.742,0.566-6.18,0.504-9.617
		c-9.062-4.762-18.793-8.875-28.344-13.156c-1.348,0.16,0.473-2.836-1.516-2.023c-7.898-3.414-15.492-7.129-23.797-10.125
		c-15.84,2.711-33.77,7.734-50.617,11.133c-0.387,16.082,0.766,30.621,0.512,46.57c10.383,6.152,21.012,12.055,30.879,18.73
		c1.719-0.477,3.707-0.676,5.562-1.012l18.727,10.121l17.066-6.07L131.588,149.754z M100.201,103.691
		c0.055,1.531-3.277-0.355-4.559-1.012c-4.23-2.168-9.23-6.02-13.664-8.098c-6.973,1.242-13.812-3.82-19.734-6.578
		c-5.258-2.453-9.805-5.254-14.688-7.086c0-1.52,0-3.039,0-4.555c9.895,5.117,20.25,9.785,29.875,15.18c1.676,0,3.363,0,5.051,0
		c4.414,2.914,10.18,4.801,14.68,8.102C98.557,100.66,101.557,100.684,100.201,103.691z M100.705,97.617
		c-3.219-0.211-6.332-3.164-9.109-4.551c-3.125-1.574-6.098-2.34-8.602-4.562c-2.039-0.344-2.891,0.492-4.551,0.508
		c-9.688-5.164-19.375-10.324-29.871-14.676c6.348-2.73,14.383-3.844,22.277-5.566c8.086-1.773,16.246-3.766,23.277-5.57
		c0.246-0.066,1.293-0.105,1.516,0c7.328,3.375,14.469,7.086,22.277,9.617c0.41,0.938,0.656,2.043,1.52,2.531
		c8.031,2.934,15.051,6.883,23.285,9.613c-8.656,3.676-20.676,6.602-31.387,9.621C107.541,95.652,103.334,97.789,100.705,97.617z
		 M103.236,100.148c14.66-3.734,28-8.777,42.52-12.656c0.117,1.633-0.895,2.141-0.5,4.051c-7.93,2.727-18.66,5.555-28.348,8.605
		C111.311,101.91,106.713,105.59,103.236,100.148z M130.576,143.18c-8.348-9.715-16.562-19.555-24.301-29.871
		c8.109,4.219,15.379,9.254,23.793,13.164C129.732,132.535,130.939,137.074,130.576,143.18z M172.08,133.559
		c-3.375-1.348-7.066-2.387-10.629-3.543c0-3.887,0-7.762,0-11.645c3.152-1.398,6.711-2.41,9.617-4.051
		c0.59-0.078,0.902,0.113,1.012,0.508C172.08,121.074,172.08,127.316,172.08,133.559z M142.221,121.41
		c-3.348,1.062-7.547,3.18-10.125,3.035c-3.168-0.168-10.594-5.301-13.672-7.086c-2.352-1.363-4.402-2.793-6.578-4.051
		c-2.051-1.18-4.805-1.836-6.078-4.051c12.953-3.238,26.418-7.367,37.969-10.629c3.496-0.984,11.195,4.836,14.676,6.582
		c4.809,2.418,9.246,4.09,13.668,6.578C162.729,115.371,152.709,118.07,142.221,121.41z"/>
	<path fill-rule="evenodd" clip-rule="evenodd" fill="#4D4C4D" d="M142.725,84.961c-8.656,3.676-20.676,6.602-31.387,9.621
		c-3.797,1.07-8.004,3.207-10.633,3.035c-3.219-0.211-6.332-3.164-9.109-4.551c-3.125-1.574-6.098-2.34-8.602-4.562
		c-2.039-0.344-2.891,0.492-4.551,0.508c-9.688-5.164-19.375-10.324-29.871-14.676c6.348-2.73,14.383-3.844,22.277-5.566
		c8.086-1.773,16.246-3.766,23.277-5.57c0.246-0.066,1.293-0.105,1.516,0c7.328,3.375,14.469,7.086,22.277,9.617
		c0.41,0.938,0.656,2.043,1.52,2.531C127.471,78.281,134.49,82.23,142.725,84.961z"/>
	<path fill-rule="evenodd" clip-rule="evenodd" fill="#737475" d="M47.557,76.363c9.895,5.117,20.25,9.785,29.875,15.18
		c1.676,0,3.363,0,5.051,0c4.414,2.914,10.18,4.801,14.68,8.102c1.395,1.016,4.395,1.039,3.039,4.047
		c0.055,1.531-3.277-0.355-4.559-1.012c-4.23-2.168-9.23-6.02-13.664-8.098c-6.973,1.242-13.812-3.82-19.734-6.578
		c-5.258-2.453-9.805-5.254-14.688-7.086C47.557,79.398,47.557,77.879,47.557,76.363z"/>
	<path fill-rule="evenodd" clip-rule="evenodd" fill="#F4971F" d="M47.557,84.961C57.463,89.066,66.529,94,76.416,98.129
		l-0.504,34.875c-9.227-5.125-18.742-10.406-27.34-16.152L47.557,84.961z"/>
	<path fill-rule="evenodd" clip-rule="evenodd" fill="#676767" d="M145.756,87.492c0.117,1.633-0.895,2.141-0.5,4.051
		c-7.93,2.727-18.66,5.555-28.348,8.605c-5.598,1.762-10.195,5.441-13.672,0C117.896,96.414,131.236,91.371,145.756,87.492z"/>
	<path fill-rule="evenodd" clip-rule="evenodd" fill="#C9C9C9" d="M172.08,111.789c-9.352,3.582-19.371,6.281-29.859,9.621
		c-3.348,1.062-7.547,3.18-10.125,3.035c-3.168-0.168-10.594-5.301-13.672-7.086c-2.352-1.363-4.402-2.793-6.578-4.051
		c-2.051-1.18-4.805-1.836-6.078-4.051c12.953-3.238,26.418-7.367,37.969-10.629c3.496-0.984,11.195,4.836,14.676,6.582
		C163.221,107.629,167.658,109.301,172.08,111.789z M139.182,108.246c5.254,2.664,10.645,6.422,16.699,2.027
		C150.881,107.797,145.193,104.5,139.182,108.246z M125.514,111.285c3.156,4.105,10.848,6.824,15.691,2.531
		C136.01,111.465,132.174,108.586,125.514,111.285z"/>
	<path fill-rule="evenodd" clip-rule="evenodd" fill="#F79323" d="M81.475,98.832c-0.105,9.211,0.148,25.891,0,34.98l-2.527,0.551
		c0-8.254,0-26.016,0-35.531H81.475z"/>
	<path fill-rule="evenodd" clip-rule="evenodd" fill="#F79323" d="M98.174,142.871l-14.168-7.285c0-11.141,0-22.277,0-33.414
		c5.016,1.902,9.5,4.887,14.227,7.086L98.174,142.871z"/>
	<path fill-rule="evenodd" clip-rule="evenodd" d="M155.881,110.273c-6.055,4.395-11.445,0.637-16.699-2.027
		C145.193,104.5,150.881,107.797,155.881,110.273z"/>
	<path fill-rule="evenodd" clip-rule="evenodd" d="M141.205,113.816c-4.844,4.293-12.535,1.574-15.691-2.531
		C132.174,108.586,136.01,111.465,141.205,113.816z"/>
	<path fill-rule="evenodd" clip-rule="evenodd" fill="#F79323" d="M100.705,143.684c0-10.629,0-21.262,0-31.895l5.57,7.09v22.781
		L100.705,143.684z"/>
	<path fill-rule="evenodd" clip-rule="evenodd" fill="#737373" d="M106.275,113.309c8.109,4.219,15.379,9.254,23.793,13.164
		c-0.336,6.062,0.871,10.602,0.508,16.707C122.229,133.465,114.014,123.625,106.275,113.309z"/>
	<path fill-rule="evenodd" clip-rule="evenodd" fill="#AAABAB" d="M172.08,133.559c-3.375-1.348-7.066-2.387-10.629-3.543
		c0-3.887,0-7.762,0-11.645c3.152-1.398,6.711-2.41,9.617-4.051c0.59-0.078,0.902,0.113,1.012,0.508
		C172.08,121.074,172.08,127.316,172.08,133.559z"/>
</g>
</svg>
