<?xml version="1.0" encoding="utf-8"?>
<!-- Generator: Adobe Illustrator 15.1.0, SVG Export Plug-In . SVG Version: 6.00 Build 0)  -->
<!DOCTYPE svg PUBLIC "-//W3C//DTD SVG 1.1//EN" "http://www.w3.org/Graphics/SVG/1.1/DTD/svg11.dtd">
<svg version="1.1" id="Layer_1" xmlns="http://www.w3.org/2000/svg" xmlns:xlink="http://www.w3.org/1999/xlink" x="0px" y="0px"
	 width="216px" height="216px" viewBox="0 0 216 216" enable-background="new 0 0 216 216" xml:space="preserve">
<g id="layer1_1_" transform="translate(0,-796.36218)">
	<g id="g4726" transform="translate(-727,-21)">
		<path id="path4724" fill="#5E6060" d="M929.039,924.561c0.008,52.098-42.223,94.328-94.316,94.34
			c-52.09,0-94.328-42.223-94.332-94.316c0-0.008,0-0.012,0-0.023c-0.008-52.09,42.223-94.328,94.312-94.332
			c52.098-0.004,94.336,42.223,94.336,94.316C929.039,924.554,929.039,924.557,929.039,924.561z"/>
		
			<radialGradient id="path4642_1_" cx="2388.8164" cy="1445.3319" r="159.371" gradientTransform="matrix(0.2935 0.014 -0.0282 0.5912 175.1629 -54.5696)" gradientUnits="userSpaceOnUse">
			<stop  offset="0" style="stop-color:#F5F4F1"/>
			<stop  offset="1" style="stop-color:#F5F4F1;stop-opacity:0"/>
		</radialGradient>
		<path id="path4642" fill="url(#path4642_1_)" d="M929.039,924.561c0.008,52.098-42.223,94.328-94.316,94.34
			c-52.09,0-94.328-42.223-94.332-94.316c0-0.008,0-0.012,0-0.023c-0.008-52.09,42.223-94.328,94.312-94.332
			c52.098-0.004,94.336,42.223,94.336,94.316C929.039,924.554,929.039,924.557,929.039,924.561z"/>
		
			<radialGradient id="path4670_1_" cx="5744.3418" cy="612.8983" r="159.3689" gradientTransform="matrix(0.1118 0.1235 -0.4387 0.3973 531.7596 -88.3683)" gradientUnits="userSpaceOnUse">
			<stop  offset="0" style="stop-color:#F5F4F1"/>
			<stop  offset="1" style="stop-color:#F5F4F1;stop-opacity:0"/>
		</radialGradient>
		<path id="path4670" fill="url(#path4670_1_)" d="M929.039,924.561c0.008,52.098-42.223,94.328-94.316,94.34
			c-52.09,0-94.328-42.223-94.332-94.316c0-0.008,0-0.012,0-0.023c-0.008-52.09,42.223-94.328,94.312-94.332
			c52.098-0.004,94.336,42.223,94.336,94.316C929.039,924.554,929.039,924.557,929.039,924.561z"/>
		
			<radialGradient id="path4674_1_" cx="-305.1772" cy="1996.9852" r="159.3695" gradientTransform="matrix(0.1432 -0.1435 0.4268 0.4259 -45.165 -29.5856)" gradientUnits="userSpaceOnUse">
			<stop  offset="0" style="stop-color:#F5F4F1"/>
			<stop  offset="1" style="stop-color:#F5F4F1;stop-opacity:0"/>
		</radialGradient>
		<path id="path4674" fill="url(#path4674_1_)" d="M929.039,924.561c0.008,52.098-42.223,94.328-94.316,94.34
			c-52.09,0-94.328-42.223-94.332-94.316c0-0.008,0-0.012,0-0.023c-0.008-52.09,42.223-94.328,94.312-94.332
			c52.098-0.004,94.336,42.223,94.336,94.316C929.039,924.554,929.039,924.557,929.039,924.561z"/>
		
			<radialGradient id="path4678_1_" cx="1556.0254" cy="410.0326" r="159.3689" gradientTransform="matrix(0.3299 0.6645 -0.6009 0.2983 483.2778 -197.3551)" gradientUnits="userSpaceOnUse">
			<stop  offset="0" style="stop-color:#101A1D"/>
			<stop  offset="1" style="stop-color:#101A1D;stop-opacity:0"/>
		</radialGradient>
		<path id="path4678" fill="url(#path4678_1_)" d="M929.039,924.561c0.008,52.098-42.223,94.328-94.316,94.34
			c-52.09,0-94.328-42.223-94.332-94.316c0-0.008,0-0.012,0-0.023c-0.008-52.09,42.223-94.328,94.312-94.332
			c52.098-0.004,94.336,42.223,94.336,94.316C929.039,924.554,929.039,924.557,929.039,924.561z"/>
		
			<radialGradient id="path4688_1_" cx="1967.0957" cy="1818.7303" r="159.3142" gradientTransform="matrix(0.3517 -0.0116 0.0196 0.5915 110.0536 -36.0283)" gradientUnits="userSpaceOnUse">
			<stop  offset="0" style="stop-color:#434B4C"/>
			<stop  offset="1" style="stop-color:#434B4C;stop-opacity:0"/>
		</radialGradient>
		<path id="path4688" fill="url(#path4688_1_)" d="M929.039,924.561c0.008,52.098-42.223,94.328-94.316,94.34
			c-52.09,0-94.328-42.223-94.332-94.316c0-0.008,0-0.012,0-0.023c-0.008-52.09,42.223-94.328,94.312-94.332
			c52.098-0.004,94.336,42.223,94.336,94.316C929.039,924.554,929.039,924.557,929.039,924.561z"/>
		
			<radialGradient id="path4706_1_" cx="1872.3467" cy="-362.005" r="159.3726" gradientTransform="matrix(-0.1714 0.3664 -0.6074 -0.2841 1021.493 162.4007)" gradientUnits="userSpaceOnUse">
			<stop  offset="0" style="stop-color:#0E1516"/>
			<stop  offset="1" style="stop-color:#0E1516;stop-opacity:0"/>
		</radialGradient>
		<path id="path4706" fill="url(#path4706_1_)" d="M929.039,924.561c0.008,52.098-42.223,94.328-94.316,94.34
			c-52.09,0-94.328-42.223-94.332-94.316c0-0.008,0-0.012,0-0.023c-0.008-52.09,42.223-94.328,94.312-94.332
			c52.098-0.004,94.336,42.223,94.336,94.316C929.039,924.554,929.039,924.557,929.039,924.561z"/>
	</g>
	<g id="g4924">
		<path id="path3766" fill="#716163" d="M197.836,903.561c0.008,49.781-40.34,90.129-90.117,90.137
			c-49.773,0-90.129-40.34-90.133-90.117c0-0.004,0-0.008,0-0.02c-0.004-49.77,40.344-90.129,90.113-90.133
			c49.777-0.008,90.137,40.344,90.137,90.117C197.836,903.554,197.836,903.557,197.836,903.561z"/>
		<path id="path4556" fill="#777777" d="M197.836,903.561c0.008,49.781-40.34,90.129-90.117,90.137
			c-49.773,0-90.129-40.34-90.133-90.117c0-0.004,0-0.008,0-0.02c-0.004-49.77,40.344-90.129,90.113-90.133
			c49.777-0.008,90.137,40.344,90.137,90.117C197.836,903.554,197.836,903.557,197.836,903.561z"/>
		
			<radialGradient id="path4544_1_" cx="1029.2139" cy="-255.776" r="159.3691" gradientTransform="matrix(-0.0065 0.4072 -0.5588 -0.0089 56.5164 479.8548)" gradientUnits="userSpaceOnUse">
			<stop  offset="0" style="stop-color:#454645"/>
			<stop  offset="1" style="stop-color:#716163;stop-opacity:0"/>
		</radialGradient>
		<path id="path4544" fill="url(#path4544_1_)" d="M197.836,903.561c0.008,49.781-40.34,90.129-90.117,90.137
			c-49.773,0-90.129-40.34-90.133-90.117c0-0.004,0-0.008,0-0.02c-0.004-49.77,40.344-90.129,90.113-90.133
			c49.777-0.008,90.137,40.344,90.137,90.117C197.836,903.554,197.836,903.557,197.836,903.561z"/>
		
			<radialGradient id="path4560_1_" cx="1004.542" cy="-3093.4507" r="159.3685" gradientTransform="matrix(-0.0736 0.0829 -0.1467 -0.1302 -204.1651 471.2553)" gradientUnits="userSpaceOnUse">
			<stop  offset="0" style="stop-color:#CFCDC7"/>
			<stop  offset="1" style="stop-color:#CFCDC7;stop-opacity:0"/>
		</radialGradient>
		<path id="path4560" fill="url(#path4560_1_)" d="M197.836,903.561c0.008,49.781-40.34,90.129-90.117,90.137
			c-49.773,0-90.129-40.34-90.133-90.117c0-0.004,0-0.008,0-0.02c-0.004-49.77,40.344-90.129,90.113-90.133
			c49.777-0.008,90.137,40.344,90.137,90.117C197.836,903.554,197.836,903.557,197.836,903.561z"/>
		
			<radialGradient id="path4570_1_" cx="-3523.6689" cy="-2120.667" r="159.3951" gradientTransform="matrix(-0.1583 0.0052 -0.007 -0.2138 -461.9496 559.5292)" gradientUnits="userSpaceOnUse">
			<stop  offset="0" style="stop-color:#E0D8D4"/>
			<stop  offset="0.6765" style="stop-color:#E0D8D4;stop-opacity:0.4549"/>
			<stop  offset="1" style="stop-color:#E0D8D4;stop-opacity:0"/>
		</radialGradient>
		<path id="path4570" fill="url(#path4570_1_)" d="M197.836,903.561c0.008,49.781-40.34,90.129-90.117,90.137
			c-49.773,0-90.129-40.34-90.133-90.117c0-0.004,0-0.008,0-0.02c-0.004-49.77,40.344-90.129,90.113-90.133
			c49.777-0.008,90.137,40.344,90.137,90.117C197.836,903.554,197.836,903.557,197.836,903.561z"/>
		
			<radialGradient id="path4582_1_" cx="12739.5176" cy="741.537" r="159.3716" gradientTransform="matrix(0.0369 0.0445 -0.2905 0.2408 -215.4615 209.3948)" gradientUnits="userSpaceOnUse">
			<stop  offset="0" style="stop-color:#B2ACAA"/>
			<stop  offset="1" style="stop-color:#B2ACAA;stop-opacity:0"/>
		</radialGradient>
		<path id="path4582" fill="url(#path4582_1_)" d="M197.836,903.561c0.008,49.781-40.34,90.129-90.117,90.137
			c-49.773,0-90.129-40.34-90.133-90.117c0-0.004,0-0.008,0-0.02c-0.004-49.77,40.344-90.129,90.113-90.133
			c49.777-0.008,90.137,40.344,90.137,90.117C197.836,903.554,197.836,903.557,197.836,903.561z"/>
		
			<radialGradient id="path4592_1_" cx="745.5693" cy="-48.4596" r="159.3695" gradientTransform="matrix(0.0193 0.3913 -0.7443 0.0367 -29.1631 617.1064)" gradientUnits="userSpaceOnUse">
			<stop  offset="0" style="stop-color:#483F3F"/>
			<stop  offset="1" style="stop-color:#483F3F;stop-opacity:0"/>
		</radialGradient>
		<path id="path4592" fill="url(#path4592_1_)" d="M197.836,903.561c0.008,49.781-40.34,90.129-90.117,90.137
			c-49.773,0-90.129-40.34-90.133-90.117c0-0.004,0-0.008,0-0.02c-0.004-49.77,40.344-90.129,90.113-90.133
			c49.777-0.008,90.137,40.344,90.137,90.117C197.836,903.554,197.836,903.557,197.836,903.561z"/>
		
			<radialGradient id="path4602_1_" cx="1013.1611" cy="1490.5946" r="159.3716" gradientTransform="matrix(0.2842 0.0163 -0.0324 0.5646 -128.5694 -38.8635)" gradientUnits="userSpaceOnUse">
			<stop  offset="0" style="stop-color:#B9B5B5"/>
			<stop  offset="1" style="stop-color:#9D9290;stop-opacity:0"/>
		</radialGradient>
		<path id="path4602" fill="url(#path4602_1_)" d="M197.836,903.561c0.008,49.781-40.34,90.129-90.117,90.137
			c-49.773,0-90.129-40.34-90.133-90.117c0-0.004,0-0.008,0-0.02c-0.004-49.77,40.344-90.129,90.113-90.133
			c49.777-0.008,90.137,40.344,90.137,90.117C197.836,903.554,197.836,903.557,197.836,903.561z"/>
		
			<radialGradient id="path4630_1_" cx="2171.1885" cy="-922.6793" r="159.371" gradientTransform="matrix(-0.0466 0.0652 -0.4602 -0.3287 -286.1289 409.6191)" gradientUnits="userSpaceOnUse">
			<stop  offset="0" style="stop-color:#636564"/>
			<stop  offset="1" style="stop-color:#636564;stop-opacity:0"/>
		</radialGradient>
		<path id="path4630" fill="url(#path4630_1_)" d="M197.836,903.561c0.008,49.781-40.34,90.129-90.117,90.137
			c-49.773,0-90.129-40.34-90.133-90.117c0-0.004,0-0.008,0-0.02c-0.004-49.77,40.344-90.129,90.113-90.133
			c49.777-0.008,90.137,40.344,90.137,90.117C197.836,903.554,197.836,903.557,197.836,903.561z"/>
	</g>
	<g id="g4879" transform="translate(-2.2167876e-7,-3.5831251e-6)">
		<g id="g4800">
			<path id="path3768" fill="#010101" stroke="#010101" stroke-width="4.5" d="M189.312,903.561c0,45.07-36.523,81.602-81.59,81.602
				c-45.062,0.012-81.598-36.52-81.602-81.582c0-0.004,0-0.008,0-0.02c0-45.059,36.527-81.598,81.582-81.602
				c45.066-0.004,81.598,36.523,81.609,81.59C189.312,903.554,189.312,903.557,189.312,903.561z"/>
			<g id="g4785">
				
					<radialGradient id="path3874_1_" cx="-341.1519" cy="1069.663" r="65.0618" gradientTransform="matrix(0.7494 0 0 0.7494 363.3721 101.9615)" gradientUnits="userSpaceOnUse">
					<stop  offset="0" style="stop-color:#E81D25"/>
					<stop  offset="0.3695" style="stop-color:#CD2027"/>
					<stop  offset="1" style="stop-color:#C12026;stop-opacity:0"/>
				</radialGradient>
				<path id="path3874" opacity="0.3805" fill="url(#path3874_1_)" enable-background="new    " d="M156.008,903.561
					c0,26.672-21.621,48.301-48.297,48.301s-48.293-21.633-48.293-48.301c0-26.672,21.621-48.289,48.293-48.289
					C134.387,855.268,156.008,876.89,156.008,903.561z"/>
				
					<radialGradient id="path3772_1_" cx="-494.9336" cy="855.8749" r="65.0028" gradientTransform="matrix(1 0 0 1 602.6445 47.6865)" gradientUnits="userSpaceOnUse">
					<stop  offset="0" style="stop-color:#E81D25"/>
					<stop  offset="0.3695" style="stop-color:#D32027"/>
					<stop  offset="1" style="stop-color:#C12026;stop-opacity:0"/>
				</radialGradient>
				<path id="path3772" fill="url(#path3772_1_)" d="M172.156,903.561c0,35.594-28.848,64.445-64.445,64.445
					c-35.594,0-64.445-28.852-64.445-64.445c0-35.59,28.852-64.445,64.445-64.445C143.309,839.116,172.156,867.972,172.156,903.561z
					"/>
				
					<radialGradient id="path3860_1_" cx="-505.4102" cy="850.1776" r="32.7551" gradientTransform="matrix(1 0 0 1 613.125 54.874)" gradientUnits="userSpaceOnUse">
					<stop  offset="0" style="stop-color:#E81D25"/>
					<stop  offset="1" style="stop-color:#E81D25;stop-opacity:0"/>
				</radialGradient>
				
					<path id="path3860" fill="url(#path3860_1_)" stroke="#EE2524" stroke-width="6.75" stroke-linecap="round" stroke-linejoin="round" stroke-opacity="0" d="
					M139.918,905.05c0,17.785-14.414,32.207-32.207,32.207c-17.785,0-32.199-14.422-32.199-32.207s14.414-32.203,32.199-32.203
					C125.504,872.847,139.918,887.265,139.918,905.05z"/>
				
					<radialGradient id="path3796_1_" cx="-237.9092" cy="708.4398" r="14.9628" gradientTransform="matrix(1.2737 0 0 1.2737 410.7344 1.2847)" gradientUnits="userSpaceOnUse">
					<stop  offset="0" style="stop-color:#F6ED4B"/>
					<stop  offset="1" style="stop-color:#D23527;stop-opacity:0"/>
				</radialGradient>
				<path id="path3796" fill="url(#path3796_1_)" d="M132.91,903.561c0.012,13.918-11.266,25.207-25.188,25.219
					c-13.922,0.008-25.211-11.27-25.215-25.195c0-0.004,0-0.012,0-0.023c-0.008-13.914,11.27-25.207,25.191-25.211
					c13.914-0.008,25.211,11.273,25.211,25.191C132.91,903.55,132.91,903.557,132.91,903.561z"/>
				<path id="path3818" fill="#EFEA4F" d="M110.34,903.561c0,1.453-1.176,2.629-2.625,2.629s-2.625-1.176-2.625-2.629
					c0-1.449,1.176-2.621,2.625-2.621S110.34,902.112,110.34,903.561z"/>
			</g>
		</g>
		<g id="g4859">
			<g id="g4393">
				<path fill="#C9C9BF" d="M85.586,836.116l1.578,6.168c11.406-4.367,34.137-2.848,45.941,2.758l1.176-6.172
					C119.43,832.429,96.125,832.882,85.586,836.116z"/>
				
					<linearGradient id="SVGID_1_" gradientUnits="userSpaceOnUse" x1="-554.3594" y1="1598.036" x2="-551.5748" y2="1594.3231" gradientTransform="matrix(1 0 0 1 612 -746.3633)">
					<stop  offset="0" style="stop-color:#BEBBB6"/>
					<stop  offset="1" style="stop-color:#BEBBB6;stop-opacity:0"/>
				</linearGradient>
				<path fill="url(#SVGID_1_)" d="M56.184,847.796c-9.676,12.656-12.902,20.578-14.172,27.695c2.426-1.16,3.57-3.395,4.711-5.387
					c4.539-7.047,9.18-14.164,15.637-18.895L56.184,847.796z"/>
				
					<linearGradient id="SVGID_2_" gradientUnits="userSpaceOnUse" x1="-550.5903" y1="1614.1395" x2="-533.1419" y2="1615.2533" gradientTransform="matrix(1 0 0 1 612 -746.3633)">
					<stop  offset="0" style="stop-color:#FFFFFF"/>
					<stop  offset="1" style="stop-color:#FFFFFF;stop-opacity:0"/>
				</linearGradient>
				<path opacity="0.5377" fill="url(#SVGID_2_)" enable-background="new    " d="M56.184,868.929l8.402-6.164l7.086,6.957
					l-8.004,3.414L56.184,868.929z"/>
				<path opacity="0.5377" fill="#FFFFFF" enable-background="new    " d="M95.168,850.952c6.977-0.969,14.203-0.652,21.527,0.125
					c0.422,1.504,0.582,3.277,0.66,5.125c-6.875-0.508-13.742-0.992-20.613-0.133C96.43,854.573,95.836,852.792,95.168,850.952z"/>
				<path fill="#836562" d="M145.445,864.077l-3.82,4.852c2.016,0.707,4.605,1.574,8.008,2.629c0.887-1.055,2.102-2.449,3.68-4.199
					C151.133,866.112,148.66,864.972,145.445,864.077L145.445,864.077z"/>
				<path fill="#F1604F" d="M80.727,883.237l3.812-2.891l1.707,2.625l-2.891,2.363L80.727,883.237z"/>
				<path fill="#EC503E" d="M100.941,872.343c4.316-0.695,8.223-0.164,12.207,0.129l-0.262,2.359
					c-3.898-0.117-7.793-0.41-11.684,0.133L100.941,872.343z"/>
				<path fill="#E56144" d="M101.605,881.925c5.434-1.137,10.258-0.746,14.301,1.578l1.055-2.102
					c-5.73-2.594-12.152-2.426-15.887-1.184L101.605,881.925z"/>
				
					<linearGradient id="SVGID_3_" gradientUnits="userSpaceOnUse" x1="-481.2339" y1="1628.9677" x2="-484.2529" y2="1628.5737" gradientTransform="matrix(1 0 0 1 612 -746.3633)">
					<stop  offset="0" style="stop-color:#E93433"/>
					<stop  offset="1" style="stop-color:#E93433;stop-opacity:0"/>
				</linearGradient>
				<path fill="url(#SVGID_3_)" d="M131.656,884.554l1.582-2.234l-3.672-1.703l-1.973,1.703L131.656,884.554z"/>
				<path fill="#F0493C" d="M127.98,890.46c-1.688-2.629-2.016-3.992-3.535-5.254l-1.184,0.789c1.828,1.664,3.32,3.59,4.457,5.773
					L127.98,890.46z"/>
				<path fill="#F04F2A" d="M111.055,886.522c-2.145-0.562-4.297-0.441-6.434-0.129v-1.445c2.004-0.605,4.121-0.574,6.301-0.133
					L111.055,886.522z"/>
				<path fill="#EB5441" d="M93.336,885.862c-2.258,2.047-3.746,4.387-4.598,6.957l-0.785-0.789
					c0.871-2.793,2.227-5.457,4.461-7.746L93.336,885.862z"/>
				<path fill="#EF4730" d="M94.773,891.768l0.789-1.836l-1.969-0.789l-0.922,1.84L94.773,891.768z"/>
				<path fill="#EF4730" d="M121.812,891.64l0.922-1.441l-1.574-0.918l-1.316,1.051L121.812,891.64z"/>
				
					<linearGradient id="SVGID_4_" gradientUnits="userSpaceOnUse" x1="-447.0347" y1="1605.3807" x2="-453.7151" y2="1610.2057" gradientTransform="matrix(1 0 0 1 612 -746.3633)">
					<stop  offset="0" style="stop-color:#8F908A"/>
					<stop  offset="1" style="stop-color:#8F908A;stop-opacity:0"/>
				</linearGradient>
				<path fill="url(#SVGID_4_)" d="M154.91,852.546l3.551-3.02c6.266,3.336,10.766,9.926,14.961,17.066l-1.84,1.836
					C166.16,862.874,160.684,857.413,154.91,852.546z"/>
			</g>
			<g id="path4462" opacity="0.9308" enable-background="new    ">
				<path fill="#36383D" d="M107.711,828.011c-9.023,0-17.688,1.602-25.711,4.5l1.742,0.121c7.535-2.523,15.59-3.133,23.969-3.133
					c11.156,0,21.746,1.668,31.281,6.008l2.18,0.301C131.082,830.819,119.727,828.011,107.711,828.011z"/>
			</g>
			<g id="path4469" opacity="0.3931" enable-background="new    ">
				<path fill="#BAB7B2" d="M49.586,855.304c-2.75,3.309-5.238,6.863-7.398,10.621l0.137,0.031c0.918-1.531,2.641-3.02,3.656-4.465
					c1.285-1.824,2.648-4.328,4.09-6.027L49.586,855.304z"/>
			</g>
		</g>
	</g>
</g>
</svg>
