<?xml version="1.0" encoding="UTF-8" standalone="no"?>
<!-- Created with Inkscape (http://www.inkscape.org/) -->

<svg
   xmlns:dc="http://purl.org/dc/elements/1.1/"
   xmlns:cc="http://creativecommons.org/ns#"
   xmlns:rdf="http://www.w3.org/1999/02/22-rdf-syntax-ns#"
   xmlns:svg="http://www.w3.org/2000/svg"
   xmlns="http://www.w3.org/2000/svg"
   version="1.1"
   width="216"
   height="216"
   viewBox="0 0 216 216"
   id="Layer_1"
   xml:space="preserve"><metadata
   id="metadata35"><rdf:RDF><cc:Work
       rdf:about=""><dc:format>image/svg+xml</dc:format><dc:type
         rdf:resource="http://purl.org/dc/dcmitype/StillImage" /><dc:title></dc:title></cc:Work></rdf:RDF></metadata><defs
   id="defs33" />
<g
   transform="translate(-201.85715,-384.98783)"
   id="layer4">
	<g
   transform="translate(2.1772501,2.17725)"
   id="g2207">
		
			<path
   d="m 408.511,490.171 c 0,55.262 -44.801,100.063 -100.068,100.063 -55.269,0 -100.069,-44.801 -100.069,-100.063 0,-55.266 44.801,-100.066 100.069,-100.066 55.267,0 100.068,44.801 100.068,100.066 z"
   id="path3256"
   style="opacity:0.98999999;fill:#f3f3f3;fill-opacity:0.14489997" />
		
			<radialGradient
   cx="148.907"
   cy="619.05573"
   r="103.9284"
   id="path2226_1_"
   gradientUnits="userSpaceOnUse"
   gradientTransform="matrix(0.9943,0.9646,1.0561,-1.0886,-440.4176,956.8771)">
			<stop
   id="stop7"
   style="stop-color:#1a1a1a;stop-opacity:0.68550003"
   offset="0" />
			<stop
   id="stop9"
   style="stop-color:#1a1a1a;stop-opacity:0"
   offset="1" />
		</radialGradient>
		
			<path
   d="m 408.511,490.171 c 0,55.262 -44.801,100.063 -100.068,100.063 -55.269,0 -100.069,-44.801 -100.069,-100.063 0,-55.266 44.801,-100.066 100.069,-100.066 55.267,0 100.068,44.801 100.068,100.066 z"
   id="path2226"
   style="opacity:0.98999999;fill:url(#path2226_1_)" />
		
			<radialGradient
   cx="425.091"
   cy="458.25299"
   r="103.9319"
   id="path3232_1_"
   gradientUnits="userSpaceOnUse"
   gradientTransform="matrix(0.5041,0.5041,1.0724,-1.0724,-518.4344,884.1863)">
			<stop
   id="stop13"
   style="stop-color:#c8c7c7;stop-opacity:0.6541"
   offset="0" />
			<stop
   id="stop15"
   style="stop-color:#ffffff;stop-opacity:0"
   offset="1" />
		</radialGradient>
		
			<path
   d="m 408.511,490.171 c 0,55.262 -44.801,100.063 -100.068,100.063 -55.269,0 -100.069,-44.801 -100.069,-100.063 0,-55.266 44.801,-100.066 100.069,-100.066 55.267,0 100.068,44.801 100.068,100.066 z"
   id="path3232"
   style="opacity:0.98999999;fill:url(#path3232_1_);stroke:#000000;stroke-width:1.54369998;stroke-linejoin:round;stroke-opacity:0.528" />
		
			<radialGradient
   cx="66.221397"
   cy="426.02841"
   r="121.0035"
   id="path3201_1_"
   gradientUnits="userSpaceOnUse"
   gradientTransform="matrix(1.3838,0,0,-1.3838,221.8482,1001.8866)">
			<stop
   id="stop19"
   style="stop-color:#c8c7c7;stop-opacity:0.6541"
   offset="0" />
			<stop
   id="stop21"
   style="stop-color:#ffffff;stop-opacity:0"
   offset="1" />
		</radialGradient>
		
			<path
   d="m 393.968,489.589 c 0,47.633 -38.609,86.235 -86.243,86.235 -47.628,0 -86.238,-38.602 -86.238,-86.235 0,-47.625 38.609,-86.238 86.238,-86.238 47.634,0 86.243,38.613 86.243,86.238 z"
   id="path3201"
   style="opacity:0.98999999;fill:url(#path3201_1_);stroke:#010101;stroke-width:4.73759985;stroke-linejoin:round" />
		
			<radialGradient
   cx="62.060799"
   cy="288.38919"
   r="121.0005"
   id="path3252_1_"
   gradientUnits="userSpaceOnUse"
   gradientTransform="matrix(1.3838,0,0,-1.3838,221.8482,1001.8866)">
			<stop
   id="stop25"
   style="stop-color:#1a1a1a;stop-opacity:0.68550003"
   offset="0" />
			<stop
   id="stop27"
   style="stop-color:#1a1a1a;stop-opacity:0"
   offset="1" />
		</radialGradient>
		
			<path
   d="m 393.968,489.589 c 0,47.633 -38.609,86.235 -86.243,86.235 -47.628,0 -86.238,-38.602 -86.238,-86.235 0,-47.625 38.609,-86.238 86.238,-86.238 47.634,0 86.243,38.613 86.243,86.238 z"
   id="path3252"
   style="opacity:0.98999999;fill:url(#path3252_1_)" />
		<path
   d="m 311.573,435.32 c -2.989,0.016 -5.852,1.406 -7.922,3.844 -2.094,2.441 -3.238,5.738 -3.184,9.145 v 82.227 c -0.062,4.617 2.059,8.898 5.539,11.254 3.493,2.309 7.797,2.309 11.286,0 3.48,-2.355 5.602,-6.637 5.555,-11.254 v -82.227 c 0.043,-3.445 -1.125,-6.773 -3.258,-9.207 -2.109,-2.454 -5.008,-3.825 -8.016,-3.782 z"
   id="path3224"
   style="opacity:0.98999999" />
	</g>
</g>
</svg>