<?xml version="1.0" encoding="utf-8"?>
<!-- Generator: Adobe Illustrator 15.1.0, SVG Export Plug-In . SVG Version: 6.00 Build 0)  -->
<!DOCTYPE svg PUBLIC "-//W3C//DTD SVG 1.1//EN" "http://www.w3.org/Graphics/SVG/1.1/DTD/svg11.dtd">
<svg version="1.1" id="Layer_1" xmlns="http://www.w3.org/2000/svg" xmlns:xlink="http://www.w3.org/1999/xlink" x="0px" y="0px"
	 width="216px" height="216px" viewBox="0 0 216 216" enable-background="new 0 0 216 216" xml:space="preserve">
<g id="layer4" transform="translate(-201.85715,-384.98783)" inkscape:groupmode="layer">
	<g id="g2207" transform="translate(2.1772501,2.17725)">
		
			<path id="path3256" sodipodi:type="arc" sodipodi:rx="64.822754" sodipodi:ry="64.822754" sodipodi:cy="445.63333" sodipodi:cx="306.54498" opacity="0.99" fill="#F3F3F3" fill-opacity="0.1449" enable-background="new    " d="
			M408.511,490.171c0,55.262-44.801,100.063-100.068,100.063c-55.269,0-100.069-44.801-100.069-100.063
			c0-55.266,44.801-100.066,100.069-100.066C363.71,390.105,408.511,434.906,408.511,490.171z"/>
		
			<radialGradient id="path2226_1_" cx="148.907" cy="619.0557" r="103.9284" gradientTransform="matrix(0.9943 0.9646 1.0561 -1.0886 -440.4176 956.8771)" gradientUnits="userSpaceOnUse">
			<stop  offset="0" style="stop-color:#1A1A1A;stop-opacity:0.6855"/>
			<stop  offset="1" style="stop-color:#1A1A1A;stop-opacity:0"/>
		</radialGradient>
		
			<path id="path2226" sodipodi:type="arc" sodipodi:rx="64.822754" sodipodi:ry="64.822754" sodipodi:cy="445.63333" sodipodi:cx="306.54498" opacity="0.99" fill="url(#path2226_1_)" enable-background="new    " d="
			M408.511,490.171c0,55.262-44.801,100.063-100.068,100.063c-55.269,0-100.069-44.801-100.069-100.063
			c0-55.266,44.801-100.066,100.069-100.066C363.71,390.105,408.511,434.906,408.511,490.171z"/>
		
			<radialGradient id="path3232_1_" cx="425.091" cy="458.253" r="103.9319" gradientTransform="matrix(0.5041 0.5041 1.0724 -1.0724 -518.4344 884.1863)" gradientUnits="userSpaceOnUse">
			<stop  offset="0" style="stop-color:#C8C7C7;stop-opacity:0.6541"/>
			<stop  offset="1" style="stop-color:#FFFFFF;stop-opacity:0"/>
		</radialGradient>
		
			<path id="path3232" sodipodi:type="arc" sodipodi:rx="64.822754" sodipodi:ry="64.822754" sodipodi:cy="445.63333" sodipodi:cx="306.54498" opacity="0.99" fill="url(#path3232_1_)" stroke="#000000" stroke-width="1.5437" stroke-linejoin="round" stroke-opacity="0.528" enable-background="new    " d="
			M408.511,490.171c0,55.262-44.801,100.063-100.068,100.063c-55.269,0-100.069-44.801-100.069-100.063
			c0-55.266,44.801-100.066,100.069-100.066C363.71,390.105,408.511,434.906,408.511,490.171z"/>
		
			<radialGradient id="path3201_1_" cx="66.2214" cy="426.0284" r="121.0035" gradientTransform="matrix(1.3838 0 0 -1.3838 221.8482 1001.8866)" gradientUnits="userSpaceOnUse">
			<stop  offset="0" style="stop-color:#C8C7C7;stop-opacity:0.6541"/>
			<stop  offset="1" style="stop-color:#FFFFFF;stop-opacity:0"/>
		</radialGradient>
		
			<path id="path3201" sodipodi:type="arc" sodipodi:rx="64.822754" sodipodi:ry="64.822754" sodipodi:cy="445.63333" sodipodi:cx="306.54498" opacity="0.99" fill="url(#path3201_1_)" stroke="#010101" stroke-width="4.7376" stroke-linejoin="round" enable-background="new    " d="
			M393.968,489.589c0,47.633-38.609,86.235-86.243,86.235c-47.628,0-86.238-38.602-86.238-86.235
			c0-47.625,38.609-86.238,86.238-86.238C355.359,403.351,393.968,441.964,393.968,489.589z"/>
		
			<radialGradient id="path3252_1_" cx="62.0608" cy="288.3892" r="121.0005" gradientTransform="matrix(1.3838 0 0 -1.3838 221.8482 1001.8866)" gradientUnits="userSpaceOnUse">
			<stop  offset="0" style="stop-color:#1A1A1A;stop-opacity:0.6855"/>
			<stop  offset="1" style="stop-color:#1A1A1A;stop-opacity:0"/>
		</radialGradient>
		
			<path id="path3252" sodipodi:type="arc" sodipodi:rx="64.822754" sodipodi:ry="64.822754" sodipodi:cy="445.63333" sodipodi:cx="306.54498" opacity="0.99" fill="url(#path3252_1_)" enable-background="new    " d="
			M393.968,489.589c0,47.633-38.609,86.235-86.243,86.235c-47.628,0-86.238-38.602-86.238-86.235
			c0-47.625,38.609-86.238,86.238-86.238C355.359,403.351,393.968,441.964,393.968,489.589z"/>
		<path id="path3224" opacity="0.99" enable-background="new    " d="M311.573,435.32c-2.989,0.016-5.852,1.406-7.922,3.844
			c-2.094,2.441-3.238,5.738-3.184,9.145v82.227c-0.062,4.617,2.059,8.898,5.539,11.254c3.493,2.309,7.797,2.309,11.286,0
			c3.48-2.355,5.602-6.637,5.555-11.254v-82.227c0.043-3.445-1.125-6.773-3.258-9.207
			C317.48,436.648,314.581,435.277,311.573,435.32z"/>
	</g>
</g>
</svg>
