<?xml version="1.0" encoding="utf-8"?>
<!-- Generator: Adobe Illustrator 15.1.0, SVG Export Plug-In . SVG Version: 6.00 Build 0)  -->
<!DOCTYPE svg PUBLIC "-//W3C//DTD SVG 1.1//EN" "http://www.w3.org/Graphics/SVG/1.1/DTD/svg11.dtd">
<svg version="1.1"
	 id="Layer_1" sodipodi:docname="insteon_LED.svg" inkscape:version="0.48.1 r9760" xmlns:sodipodi="http://sodipodi.sourceforge.net/DTD/sodipodi-0.dtd" xmlns:rdf="http://www.w3.org/1999/02/22-rdf-syntax-ns#" xmlns:dc="http://purl.org/dc/elements/1.1/" xmlns:cc="http://creativecommons.org/ns#" xmlns:inkscape="http://www.inkscape.org/namespaces/inkscape" xmlns:svg="http://www.w3.org/2000/svg"
	 xmlns="http://www.w3.org/2000/svg" xmlns:xlink="http://www.w3.org/1999/xlink" x="0px" y="0px" width="44.637px"
	 height="44.637px" viewBox="0 0 44.637 44.637" enable-background="new 0 0 44.637 44.637" xml:space="preserve">
<sodipodi:namedview  id="namedview11726" borderopacity="1" guidetolerance="10" inkscape:window-width="1910" inkscape:window-height="1156" inkscape:window-y="0" inkscape:pageshadow="2" inkscape:pageopacity="0" inkscape:window-x="0" inkscape:current-layer="Layer_1" inkscape:window-maximized="0" inkscape:zoom="21.013957" objecttolerance="10" inkscape:cx="22.318501" inkscape:cy="22.318501" bordercolor="#666666" showgrid="false" gridtolerance="10" pagecolor="#ffffff">
	</sodipodi:namedview>
<g id="g11706">
	<g id="g11708">
	</g>
	<g id="g11712">
	</g>
	<g id="g11716">
	</g>
	<g id="g11720">
	</g>
</g>
<g id="Livello_1_2_">
</g>
<path fill="#FFFFFF" d="M22.32,43.067c-11.498,0-20.812-9.312-20.812-20.812S10.82,1.434,22.32,1.434
	c11.496,0,20.816,9.321,20.816,20.821C43.136,33.749,33.816,43.07,22.32,43.067z"/>
<g>
	<path d="M22.465,3.108c-10.573,0-19.146,8.572-19.146,19.146c0,10.562,8.573,19.143,19.146,19.143
		c10.577,0,19.144-8.571,19.145-19.143C41.61,11.679,33.039,3.108,22.465,3.108z M27.578,37.433c0,0-0.244,1.528-4.832,1.528
		s-4.87-1.528-4.87-1.528s0-22.112,0-23.577c0-0.729,1.205-1.157,2.417-1.404V7.132h4.717v5.284
		c1.257,0.242,2.568,0.677,2.568,1.438C27.578,15.321,27.578,37.433,27.578,37.433z"/>
	<path d="M24.435,12.317V7.708H20.87v4.637c1.005-0.164,1.877-0.21,1.877-0.21S23.513,12.176,24.435,12.317z M23.014,9.077h1.084
		v0.828h-1.084V9.077z M22.366,9.906h-1.083V9.077h1.083V9.906z"/>
	<path d="M24.251,18.769c-0.3-0.157-0.698-0.027-0.854,0.274c-0.159,0.311-0.036,0.691,0.274,0.853
		c0.749,0.387,1.214,1.147,1.214,1.988c0,1.231-1.002,2.233-2.233,2.233c-1.23,0-2.232-1.002-2.232-2.233
		c0-0.899,0.536-1.708,1.364-2.058c0.154-0.066,0.275-0.189,0.341-0.348c0.062-0.155,0.062-0.33-0.004-0.483
		c-0.135-0.314-0.519-0.473-0.831-0.337c-1.301,0.55-2.141,1.814-2.141,3.226c0,1.931,1.571,3.502,3.501,3.502
		c1.933,0,3.501-1.571,3.501-3.502C26.154,20.565,25.425,19.372,24.251,18.769z"/>
</g>
</svg>
