<?xml version="1.0" encoding="utf-8"?>
<!-- Generator: Adobe Illustrator 15.1.0, SVG Export Plug-In . SVG Version: 6.00 Build 0)  -->
<!DOCTYPE svg PUBLIC "-//W3C//DTD SVG 1.1//EN" "http://www.w3.org/Graphics/SVG/1.1/DTD/svg11.dtd">
<svg version="1.1"
	 id="Layer_1" sodipodi:docname="insteon_LED.svg" inkscape:version="0.48.1 r9760" xmlns:sodipodi="http://sodipodi.sourceforge.net/DTD/sodipodi-0.dtd" xmlns:rdf="http://www.w3.org/1999/02/22-rdf-syntax-ns#" xmlns:dc="http://purl.org/dc/elements/1.1/" xmlns:cc="http://creativecommons.org/ns#" xmlns:inkscape="http://www.inkscape.org/namespaces/inkscape" xmlns:svg="http://www.w3.org/2000/svg"
	 xmlns="http://www.w3.org/2000/svg" xmlns:xlink="http://www.w3.org/1999/xlink" x="0px" y="0px" width="44.637px"
	 height="44.637px" viewBox="0 0 44.637 44.637" enable-background="new 0 0 44.637 44.637" xml:space="preserve">
<sodipodi:namedview  id="namedview11726" borderopacity="1" guidetolerance="10" inkscape:window-width="1910" inkscape:window-height="1156" inkscape:window-y="0" inkscape:pageshadow="2" inkscape:pageopacity="0" inkscape:window-x="0" inkscape:current-layer="Layer_1" inkscape:window-maximized="0" inkscape:zoom="21.013957" objecttolerance="10" inkscape:cx="22.318501" inkscape:cy="22.318501" bordercolor="#666666" showgrid="false" gridtolerance="10" pagecolor="#ffffff">
	</sodipodi:namedview>
<g id="g11706">
	<g id="g11708">
	</g>
	<g id="g11712">
	</g>
	<g id="g11716">
	</g>
	<g id="g11720">
	</g>
</g>
<g id="Livello_1_2_">
</g>
<path fill="#FFFFFF" d="M22.32,43.067c-11.498,0-20.812-9.312-20.812-20.812S10.82,1.434,22.32,1.434
	c11.496,0,20.816,9.321,20.816,20.821C43.136,33.749,33.816,43.07,22.32,43.067z"/>
<g>
	<path d="M17.942,36.105l-0.423-2.765H16.28l-0.444,2.765h-0.473v3.915c0.98,0.394,1.998,0.711,3.051,0.938v-4.854H17.942z"/>
	<path d="M22.465,3.108c-10.573,0-19.146,8.572-19.146,19.146c0,7.666,4.526,14.269,11.045,17.324v-3.475h-0.473l-0.457-2.983
		c-2.266-0.635-3.937-2.69-3.937-5.157V14.225c0-2.969,2.406-5.376,5.377-5.376h7.279c2.97,0,5.376,2.407,5.376,5.376v13.738
		c0,2.969-2.406,5.377-5.376,5.377H20.33l-0.445,2.765h-0.472v5.026c0.996,0.16,2.011,0.266,3.052,0.266
		c4.209,0,8.087-1.373,11.246-3.674v-6.618H33.24l-0.423-2.765h-0.547c-1.482,0-2.688-1.203-2.688-2.689v-6.868
		c0-1.483,1.204-2.688,2.688-2.688h3.642c1.484,0,2.688,1.205,2.688,2.688v6.868c0,1.486-1.203,2.689-2.688,2.689h-0.284
		l-0.444,2.765h-0.472v5.859c4.214-3.512,6.896-8.796,6.897-14.71C41.61,11.679,33.039,3.108,22.465,3.108z"/>
	<path d="M20.894,31.629c2.637,0,4.782-2.146,4.782-4.783v-0.242l-1.752-2.436v-5.941l1.752-2.66v-0.225
		c0-2.636-2.146-4.781-4.782-4.781h-5.046c-2.637,0-4.782,2.146-4.782,4.781v0.225l1.752,2.66v5.941l-1.752,2.436v0.242
		c0,2.638,2.146,4.783,4.782,4.783H20.894z M12.573,27.076l1.743-2.425v-6.875l-1.745-2.649c0.111-1.709,1.538-3.067,3.275-3.067
		h5.046c1.738,0,3.164,1.357,3.275,3.067l-1.745,2.649v6.875l1.744,2.425c-0.119,1.702-1.542,3.053-3.274,3.053h-5.046
		C14.115,30.129,12.692,28.781,12.573,27.076z"/>
</g>
</svg>
