<?xml version="1.0" encoding="utf-8"?>
<!-- Generator: Adobe Illustrator 15.1.0, SVG Export Plug-In . SVG Version: 6.00 Build 0)  -->
<!DOCTYPE svg PUBLIC "-//W3C//DTD SVG 1.1//EN" "http://www.w3.org/Graphics/SVG/1.1/DTD/svg11.dtd">
<svg version="1.1"
	 id="Layer_1" sodipodi:docname="insteon_LED.svg" inkscape:version="0.48.1 r9760" xmlns:rdf="http://www.w3.org/1999/02/22-rdf-syntax-ns#" xmlns:sodipodi="http://sodipodi.sourceforge.net/DTD/sodipodi-0.dtd" xmlns:inkscape="http://www.inkscape.org/namespaces/inkscape" xmlns:dc="http://purl.org/dc/elements/1.1/" xmlns:cc="http://creativecommons.org/ns#" xmlns:svg="http://www.w3.org/2000/svg"
	 xmlns="http://www.w3.org/2000/svg" xmlns:xlink="http://www.w3.org/1999/xlink" x="0px" y="0px" width="44.637px"
	 height="44.637px" viewBox="0 0 44.637 44.637" enable-background="new 0 0 44.637 44.637" xml:space="preserve">
<sodipodi:namedview  bordercolor="#666666" pagecolor="#ffffff" inkscape:window-maximized="0" inkscape:window-y="0" inkscape:window-x="0" inkscape:cx="22.318501" inkscape:window-height="1156" showgrid="false" inkscape:current-layer="Layer_1" inkscape:cy="22.318501" inkscape:pageshadow="2" id="namedview11726" inkscape:pageopacity="0" borderopacity="1" gridtolerance="10" inkscape:zoom="21.013957" inkscape:window-width="1910" guidetolerance="10" objecttolerance="10">
	</sodipodi:namedview>
<g id="g11706">
	<g id="g11708">
	</g>
	<g id="g11712">
	</g>
	<g id="g11716">
	</g>
	<g id="g11720">
	</g>
</g>
<g id="Livello_1_2_">
</g>
<path fill="#FFFFFF" d="M22.32,43.061c-11.498,0-20.812-9.313-20.812-20.812c0-11.5,9.313-20.821,20.812-20.821
	c11.496,0,20.816,9.321,20.816,20.821C43.136,33.743,33.816,43.064,22.32,43.061z"/>
<g>
	<rect x="12.011" y="13.853" width="21.376" height="14.465"/>
	<path d="M22.465,3.102c-10.573,0-19.146,8.572-19.146,19.146c0,10.567,8.573,19.143,19.146,19.143
		c10.577,0,19.144-8.574,19.145-19.143C41.61,11.673,33.039,3.102,22.465,3.102z M34.278,28.77c0,0.25-0.197,0.451-0.444,0.451
		h-8.46v2.713h3.562c0.245,0,0.445,0.203,0.445,0.451c0,0.25-0.2,0.451-0.445,0.451h-12.47c-0.246,0-0.445-0.201-0.445-0.451
		c0-0.248,0.199-0.451,0.445-0.451h3.562v-2.713h-8.462c-0.246,0-0.443-0.201-0.443-0.451V13.401c0-0.249,0.197-0.449,0.443-0.449
		h22.269c0.246,0,0.444,0.199,0.444,0.449V28.77L34.278,28.77z"/>
</g>
</svg>
