<?xml version="1.0" encoding="utf-8"?>
<!-- Generator: Adobe Illustrator 15.1.0, SVG Export Plug-In . SVG Version: 6.00 Build 0)  -->
<!DOCTYPE svg PUBLIC "-//W3C//DTD SVG 1.1//EN" "http://www.w3.org/Graphics/SVG/1.1/DTD/svg11.dtd">
<svg version="1.1"
	 id="Layer_1" sodipodi:docname="insteon_LED.svg" inkscape:version="0.48.1 r9760" xmlns:rdf="http://www.w3.org/1999/02/22-rdf-syntax-ns#" xmlns:sodipodi="http://sodipodi.sourceforge.net/DTD/sodipodi-0.dtd" xmlns:inkscape="http://www.inkscape.org/namespaces/inkscape" xmlns:dc="http://purl.org/dc/elements/1.1/" xmlns:cc="http://creativecommons.org/ns#" xmlns:svg="http://www.w3.org/2000/svg"
	 xmlns="http://www.w3.org/2000/svg" xmlns:xlink="http://www.w3.org/1999/xlink" x="0px" y="0px" width="44.637px"
	 height="44.637px" viewBox="0 0 44.637 44.637" enable-background="new 0 0 44.637 44.637" xml:space="preserve">
<sodipodi:namedview  bordercolor="#666666" pagecolor="#ffffff" inkscape:window-maximized="0" inkscape:window-y="0" inkscape:window-x="0" inkscape:cx="22.318501" inkscape:window-height="1156" showgrid="false" inkscape:current-layer="Layer_1" inkscape:cy="22.318501" inkscape:pageshadow="2" id="namedview11726" inkscape:pageopacity="0" borderopacity="1" gridtolerance="10" inkscape:zoom="21.013957" inkscape:window-width="1910" guidetolerance="10" objecttolerance="10">
	</sodipodi:namedview>
<g id="g11706">
	<g id="g11708">
	</g>
	<g id="g11712">
	</g>
	<g id="g11716">
	</g>
	<g id="g11720">
	</g>
</g>
<path fill="#FFFFFF" d="M22.32,43.061c-11.498,0-20.813-9.315-20.813-20.812c0-11.5,9.315-20.821,20.813-20.821
	c11.496,0,20.816,9.321,20.816,20.821C43.136,33.743,33.816,43.064,22.32,43.061z"/>
<g>
	<path d="M22.465,3.102c-10.573,0-19.146,8.572-19.146,19.146c0,10.569,8.573,19.143,19.146,19.143
		c10.577,0,19.144-8.574,19.145-19.143C41.61,11.673,33.039,3.102,22.465,3.102z M17.406,13.289
		c-0.178,2.272-1.184,3.717-3.449,3.899C14.076,14.861,15.267,13.601,17.406,13.289z M17.555,29.789
		c-1.35,0.266-1.961-0.63-3.3-0.601c-1.207,0.027-1.986,0.869-2.851,0.75c-2.19-0.301-5.562-7.512-3.149-10.951
		c0.623-0.887,2.042-1.771,3.6-1.649c0.944,0.075,1.314,0.739,2.25,0.75c0.56,0.007,1.262-0.625,2.25-0.75
		c1.477-0.188,2.68,0.134,3.75,1.35c-0.107,0.853-1.034,1.206-1.35,2.101c-0.211,0.599-0.328,1.466-0.15,2.25
		c0.305,1.34,1.33,1.723,2.101,2.701C19.694,27.175,19.32,29.444,17.555,29.789z M28.211,26.94l0.149,1.95
		c-4.891,1.413-4.5-3.247-4.5-7.463h-1.353c0-0.6,0-1.219,0-1.819c0.452,0,0.902,0,1.353,0c0-0.6,0-1.218,0-1.817l2.001-0.5
		c0,0.8,0,1.518,0,2.317c0.75,0,1.898,0,2.648,0l0.05,1.819c-0.649,0-1.998,0-2.646,0C25.869,23.903,25.351,28.049,28.211,26.94z
		 M38.711,19.607c-1.24,3.062-2.401,6.182-3.601,9.283c-0.801,0-1.601,0-2.399,0c-1.108-3.091-2.229-6.305-3.45-9.283h2.7
		l1.95,6.884c0.887-2.163,1.451-4.632,2.25-6.884C37.011,19.607,37.862,19.607,38.711,19.607z"/>
</g>
</svg>
