<?xml version="1.0" encoding="utf-8"?>
<!-- Generator: Adobe Illustrator 15.1.0, SVG Export Plug-In . SVG Version: 6.00 Build 0)  -->
<!DOCTYPE svg PUBLIC "-//W3C//DTD SVG 1.1//EN" "http://www.w3.org/Graphics/SVG/1.1/DTD/svg11.dtd">
<svg version="1.1"
	 id="Layer_1" sodipodi:docname="insteon_LED.svg" inkscape:version="0.48.1 r9760" xmlns:rdf="http://www.w3.org/1999/02/22-rdf-syntax-ns#" xmlns:sodipodi="http://sodipodi.sourceforge.net/DTD/sodipodi-0.dtd" xmlns:inkscape="http://www.inkscape.org/namespaces/inkscape" xmlns:dc="http://purl.org/dc/elements/1.1/" xmlns:cc="http://creativecommons.org/ns#" xmlns:svg="http://www.w3.org/2000/svg"
	 xmlns="http://www.w3.org/2000/svg" xmlns:xlink="http://www.w3.org/1999/xlink" x="0px" y="0px" width="44.637px"
	 height="44.637px" viewBox="0 0 44.637 44.637" enable-background="new 0 0 44.637 44.637" xml:space="preserve">
<sodipodi:namedview  bordercolor="#666666" pagecolor="#ffffff" inkscape:window-maximized="0" inkscape:window-y="0" inkscape:window-x="0" inkscape:cx="22.318501" inkscape:window-height="1156" showgrid="false" inkscape:current-layer="Layer_1" inkscape:cy="22.318501" inkscape:pageshadow="2" id="namedview11726" inkscape:pageopacity="0" borderopacity="1" gridtolerance="10" inkscape:zoom="21.013957" inkscape:window-width="1910" guidetolerance="10" objecttolerance="10">
	</sodipodi:namedview>
<g id="g11706">
	<g id="g11708">
	</g>
	<g id="g11712">
	</g>
	<g id="g11716">
	</g>
	<g id="g11720">
	</g>
</g>
<path fill="#FFFFFF" d="M43.136,22.249c0-11.5-9.32-20.821-20.816-20.821c-11.498,0-20.814,9.321-20.814,20.821
	c0,11.495,9.316,20.812,20.814,20.812C33.816,43.064,43.136,33.743,43.136,22.249z"/>
<path d="M41.61,22.248c-0.001,10.568-8.567,19.143-19.145,19.143c-10.573,0-19.146-8.572-19.146-19.143
	c0-10.574,8.573-19.146,19.146-19.146C33.039,3.102,41.61,11.673,41.61,22.248z"/>
<path fill="#FFFFFF" d="M6.14,23.16c0,8.014,11.02,10.998,16.463,2.838c5.642,8.461,16.217,4.914,16.217-2.851
	c0-7.766-10.526-11.499-16.217-2.829C17.209,11.75,6.14,15.146,6.14,23.16L6.14,23.16z"/>
<path d="M9.033,23.16c0-5.784,8.173-7.609,11.975,0C17.132,30.487,9.033,28.944,9.033,23.16L9.033,23.16z"/>
<path d="M24.196,23.16c3.427-7.76,11.82-5.621,11.796,0.012C35.965,28.807,27.522,30.561,24.196,23.16z"/>
<rect x="12.106" y="22.348" fill="#FFFFFF" width="4.851" height="1.602"/>
<polygon fill="#FFFFFF" points="29.705,25.524 31.406,25.524 31.406,23.924 33.006,23.924 33.006,22.223 31.406,22.223 
	31.406,20.622 29.705,20.622 29.705,22.223 28.105,22.223 28.105,23.924 29.705,23.924 "/>
</svg>
