<?xml version="1.0" encoding="utf-8"?>
<!-- Generator: Adobe Illustrator 15.1.0, SVG Export Plug-In . SVG Version: 6.00 Build 0)  -->
<!DOCTYPE svg PUBLIC "-//W3C//DTD SVG 1.1//EN" "http://www.w3.org/Graphics/SVG/1.1/DTD/svg11.dtd">
<svg version="1.1"
	 id="Layer_1" sodipodi:docname="insteon_LED.svg" inkscape:version="0.48.1 r9760" xmlns:rdf="http://www.w3.org/1999/02/22-rdf-syntax-ns#" xmlns:sodipodi="http://sodipodi.sourceforge.net/DTD/sodipodi-0.dtd" xmlns:inkscape="http://www.inkscape.org/namespaces/inkscape" xmlns:dc="http://purl.org/dc/elements/1.1/" xmlns:cc="http://creativecommons.org/ns#" xmlns:svg="http://www.w3.org/2000/svg"
	 xmlns="http://www.w3.org/2000/svg" xmlns:xlink="http://www.w3.org/1999/xlink" x="0px" y="0px" width="44.637px"
	 height="44.637px" viewBox="0 0 44.637 44.637" enable-background="new 0 0 44.637 44.637" xml:space="preserve">
<sodipodi:namedview  bordercolor="#666666" pagecolor="#ffffff" inkscape:window-maximized="0" inkscape:window-y="0" inkscape:window-x="0" inkscape:cx="22.318501" inkscape:window-height="1156" showgrid="false" inkscape:current-layer="Layer_1" inkscape:cy="22.318501" inkscape:pageshadow="2" id="namedview11726" inkscape:pageopacity="0" borderopacity="1" gridtolerance="10" inkscape:zoom="21.013957" inkscape:window-width="1910" guidetolerance="10" objecttolerance="10">
	</sodipodi:namedview>
<g id="g11706">
	<g id="g11708">
	</g>
	<g id="g11712">
	</g>
	<g id="g11716">
	</g>
	<g id="g11720">
	</g>
</g>
<path fill="#FFFFFF" d="M22.32,43.061c-11.498,0-20.812-9.314-20.812-20.812c0-11.5,9.314-20.821,20.812-20.821
	c11.496,0,20.816,9.321,20.816,20.821C43.136,33.743,33.816,43.064,22.32,43.061z"/>
<g>
	<path d="M22.465,3.102c-10.573,0-19.146,8.572-19.146,19.146c0,10.568,8.573,19.143,19.146,19.143
		c10.577,0,19.144-8.574,19.145-19.143C41.61,11.673,33.039,3.102,22.465,3.102z M6.809,22.448c0-3.233,0.979-6.237,2.655-8.732
		l6.489,11.099c0.968,2.676,3.527,4.585,6.534,4.585c1.138,0,2.206-0.271,3.152-0.755l-5.411,9.322
		C12.641,36.871,6.809,30.342,6.809,22.448z M16.657,22.448c0-3.224,2.609-5.833,5.83-5.833c3.224,0,5.833,2.609,5.833,5.833
		c0,3.223-2.609,5.834-5.833,5.834C19.268,28.281,16.657,25.67,16.657,22.448z M38.169,22.448c0,8.66-7.021,15.682-15.683,15.682
		c-0.35,0-0.694-0.012-1.038-0.035L28.6,25.771l-0.004-0.002c0.537-0.984,0.842-2.117,0.842-3.318c0-2.444-1.262-4.596-3.169-5.833
		h10.778C37.771,18.417,38.169,20.386,38.169,22.448z M22.453,15.497L22.453,15.497c-3.646,0.019-6.628,2.845-6.896,6.428
		l-5.376-9.195c2.871-3.632,7.316-5.963,12.306-5.963c6.165,0,11.497,3.559,14.062,8.73H22.453z"/>
</g>
</svg>
