<?xml version="1.0" encoding="utf-8"?>
<!-- Generator: Adobe Illustrator 15.1.0, SVG Export Plug-In . SVG Version: 6.00 Build 0)  -->
<!DOCTYPE svg PUBLIC "-//W3C//DTD SVG 1.1//EN" "http://www.w3.org/Graphics/SVG/1.1/DTD/svg11.dtd">
<svg version="1.1"
	 id="Layer_1" sodipodi:docname="ecobee.svg" inkscape:version="0.48.2 r9819" xmlns:svg="http://www.w3.org/2000/svg" xmlns:rdf="http://www.w3.org/1999/02/22-rdf-syntax-ns#" xmlns:dc="http://purl.org/dc/elements/1.1/" xmlns:inkscape="http://www.inkscape.org/namespaces/inkscape" xmlns:sodipodi="http://sodipodi.sourceforge.net/DTD/sodipodi-0.dtd" xmlns:cc="http://creativecommons.org/ns#"
	 xmlns="http://www.w3.org/2000/svg" xmlns:xlink="http://www.w3.org/1999/xlink" x="0px" y="0px" width="44.637px"
	 height="44.637px" viewBox="0 0 44.637 44.637" enable-background="new 0 0 44.637 44.637" xml:space="preserve">
<g>
	<path fill="#FFFFFF" d="M22.32,43.138c-11.498,0-20.813-9.322-20.813-20.818C1.501,10.823,10.821,1.5,22.32,1.5
		c11.496,0,20.816,9.323,20.816,20.814C43.136,33.815,33.816,43.138,22.32,43.138z"/>
	<path d="M22.465,3.176C11.892,3.176,3.32,11.747,3.32,22.32c0,10.573,8.571,19.146,19.146,19.146S41.61,32.895,41.61,22.321
		C41.61,11.748,33.039,3.176,22.465,3.176z M34.889,24.674c-0.521,2.632-1.741,4.694-3.288,6.301
		c-1.042,1.082-2.239,2.008-3.696,2.699c-1.434,0.682-3.167,1.205-5.124,1.26c-2.106,0.06-3.908-0.354-5.399-0.996
		c-1.521-0.653-2.735-1.492-3.864-2.53c-1.082-0.996-2.017-2.286-2.7-3.696c-0.512-1.056-0.923-2.274-1.128-3.672
		c-0.365-2.501,0.071-5.054,0.853-6.853c0.653-1.506,1.48-2.748,2.532-3.863c1.545-1.643,3.513-2.838,6.023-3.564
		c0.407-0.118,0.872-0.202,1.332-0.264c0.486-0.066,0.979-0.108,1.488-0.133c2.122-0.102,3.933,0.388,5.398,0.996
		c0.754,0.312,1.444,0.689,2.088,1.116c1.933,1.279,3.414,2.981,4.478,5.112c0.706,1.417,1.177,3.167,1.26,5.137
		C35.186,22.778,35.067,23.779,34.889,24.674z"/>
	<path d="M23.573,16.694c-1.424-0.337-2.817-0.013-3.793,0.492c-1.008,0.523-1.796,1.331-2.315,2.269
		c-0.542,0.977-0.844,2.423-0.564,3.792c0.258,1.256,0.852,2.16,1.646,2.938c0.779,0.769,1.786,1.275,3.096,1.478
		c1.441,0.222,2.841-0.254,3.685-0.806c0.895-0.583,1.659-1.402,2.137-2.446c0.464-1.019,0.674-2.601,0.252-3.876
		c0.501-1.428,1.002-2.849,1.488-4.272c0.162-0.477,0.361-0.946,0.491-1.438c-0.013,0-0.016-0.011-0.024-0.013
		C27.646,15.448,25.592,16.053,23.573,16.694z"/>
</g>
</svg>
