<?xml version="1.0" encoding="utf-8"?>
<!-- Generator: Adobe Illustrator 15.1.0, SVG Export Plug-In . SVG Version: 6.00 Build 0)  -->
<!DOCTYPE svg PUBLIC "-//W3C//DTD SVG 1.1//EN" "http://www.w3.org/Graphics/SVG/1.1/DTD/svg11.dtd">
<svg version="1.1"
	 id="Layer_1" sodipodi:docname="insteon_LED.svg" inkscape:version="0.48.1 r9760" xmlns:rdf="http://www.w3.org/1999/02/22-rdf-syntax-ns#" xmlns:sodipodi="http://sodipodi.sourceforge.net/DTD/sodipodi-0.dtd" xmlns:inkscape="http://www.inkscape.org/namespaces/inkscape" xmlns:dc="http://purl.org/dc/elements/1.1/" xmlns:cc="http://creativecommons.org/ns#" xmlns:svg="http://www.w3.org/2000/svg"
	 xmlns="http://www.w3.org/2000/svg" xmlns:xlink="http://www.w3.org/1999/xlink" x="0px" y="0px" width="44.637px"
	 height="44.637px" viewBox="0 0 44.637 44.637" enable-background="new 0 0 44.637 44.637" xml:space="preserve">
<sodipodi:namedview  bordercolor="#666666" pagecolor="#ffffff" inkscape:window-maximized="0" inkscape:window-y="0" inkscape:window-x="0" inkscape:cx="22.318501" inkscape:window-height="1156" showgrid="false" inkscape:current-layer="Layer_1" inkscape:cy="22.318501" inkscape:pageshadow="2" id="namedview11726" inkscape:pageopacity="0" borderopacity="1" gridtolerance="10" inkscape:zoom="21.013957" inkscape:window-width="1910" guidetolerance="10" objecttolerance="10">
	</sodipodi:namedview>
<g id="g11706">
	<g id="g11708">
	</g>
	<g id="g11712">
	</g>
	<g id="g11716">
	</g>
	<g id="g11720">
	</g>
</g>
<g>
	<path fill="#FFFFFF" d="M22.32,43.063c-11.498,0-20.812-9.314-20.812-20.812c0-11.5,9.314-20.821,20.812-20.821
		c11.496,0,20.816,9.321,20.816,20.821C43.136,33.743,33.816,43.064,22.32,43.063z"/>
	<path d="M22.465,3.102c-10.573,0-19.146,8.572-19.146,19.146c0,10.566,8.573,19.143,19.146,19.143
		c10.575,0,19.144-8.572,19.145-19.143C41.61,11.673,33.039,3.102,22.465,3.102z M38.934,20.998c0,5.025-4.09,9.117-9.117,9.117
		c-3.83,0-7.107-2.375-8.457-5.729l-8.35,0.537c0.006,0.104-0.015,0.211-0.093,0.288l-1.077,1.078
		c-0.07,0.068-0.165,0.108-0.265,0.108h-5.2c-0.101,0-0.195-0.039-0.267-0.107l-0.934-0.936C5.13,25.31,5.098,25.256,5.08,25.198
		c-0.19-0.646,0.005-1.499,0.026-1.597c0.021-0.081,0.066-0.151,0.132-0.205l1.634-1.305c0.065-0.053,0.147-0.082,0.232-0.082h4.536
		c0.132,0,0.254,0.069,0.322,0.182l0.138,0.229c0.023,0.039,0.03,0.082,0.038,0.124l1.2-0.235l-0.189,0.035
		c0,0,0.025-0.449,0.444-0.667c0.412-0.215,0.156-0.406,0.074-0.437c0,0-0.124-0.138,0.022-0.604
		c0.078-0.237,0.187-0.416,0.188-0.417c-0.468-0.084-0.869-0.359-1.117-0.743c0,0.006,0.001,0.017,0.001,0.024
		c0,0.355-0.291,0.646-0.646,0.646c-0.359,0-0.65-0.29-0.65-0.646c0-0.359,0.291-0.65,0.65-0.65c0.17,0,0.323,0.069,0.439,0.176
		c-0.043-0.147-0.063-0.307-0.063-0.469c0-0.932,0.755-1.688,1.688-1.688s1.689,0.755,1.689,1.688c0,0.169-0.025,0.332-0.071,0.485
		c0.118-0.118,0.28-0.192,0.46-0.192c0.359,0,0.65,0.291,0.649,0.652c0,0.355-0.291,0.646-0.65,0.646
		c-0.357,0-0.648-0.29-0.648-0.646c0-0.019,0.001-0.031,0.002-0.047c-0.233,0.372-0.608,0.645-1.051,0.748
		c0.004,0.003,0.006,0.005,0.008,0.008c0.033,0.058,0.288,0.767,0.288,0.767s0.032,0.156-0.029,0.272
		c-0.066,0.115-0.24,0.205-0.157,0.379c0.08,0.165,0.36,0.205,0.38,0.345l5.658-1.109c0.069-4.967,4.128-8.984,9.107-8.984
		C34.843,11.88,38.934,15.971,38.934,20.998z"/>
	<path d="M32.767,20.824c-1.696,0-3.077,1.38-3.077,3.074c0,1.696,1.381,3.077,3.077,3.077s3.077-1.381,3.077-3.077
		C35.844,22.204,34.463,20.824,32.767,20.824z"/>
	<path d="M25.677,16.559l-0.15,0.046l-0.943,1.817l0.668-0.047c0.608-0.043,1.513-0.065,2.682-0.065c3.831,0,9.345,0.235,9.4,0.237
		l0.604,0.026l-0.721-1.604l-0.2-0.032c-2.94-0.467-5.548-0.704-7.743-0.704C26.776,16.233,25.721,16.545,25.677,16.559z"/>
</g>
</svg>
