<?xml version="1.0" encoding="utf-8"?>
<!-- Generator: Adobe Illustrator 15.1.0, SVG Export Plug-In . SVG Version: 6.00 Build 0)  -->
<!DOCTYPE svg PUBLIC "-//W3C//DTD SVG 1.1//EN" "http://www.w3.org/Graphics/SVG/1.1/DTD/svg11.dtd">
<svg version="1.1"
	 id="Layer_1" sodipodi:docname="insteon_LED.svg" inkscape:version="0.48.1 r9760" xmlns:rdf="http://www.w3.org/1999/02/22-rdf-syntax-ns#" xmlns:sodipodi="http://sodipodi.sourceforge.net/DTD/sodipodi-0.dtd" xmlns:inkscape="http://www.inkscape.org/namespaces/inkscape" xmlns:dc="http://purl.org/dc/elements/1.1/" xmlns:cc="http://creativecommons.org/ns#" xmlns:svg="http://www.w3.org/2000/svg"
	 xmlns="http://www.w3.org/2000/svg" xmlns:xlink="http://www.w3.org/1999/xlink" x="0px" y="0px" width="44.637px"
	 height="44.637px" viewBox="0 0 44.637 44.637" enable-background="new 0 0 44.637 44.637" xml:space="preserve">
<sodipodi:namedview  bordercolor="#666666" pagecolor="#ffffff" inkscape:window-maximized="0" inkscape:window-y="0" inkscape:window-x="0" inkscape:cx="22.318501" inkscape:window-height="1156" showgrid="false" inkscape:current-layer="Layer_1" inkscape:cy="22.318501" inkscape:pageshadow="2" id="namedview11726" inkscape:pageopacity="0" borderopacity="1" gridtolerance="10" inkscape:zoom="21.013957" inkscape:window-width="1910" guidetolerance="10" objecttolerance="10">
	</sodipodi:namedview>
<g id="g11706">
	<g id="g11708">
	</g>
	<g id="g11712">
	</g>
	<g id="g11716">
	</g>
	<g id="g11720">
	</g>
</g>
<path fill="#FFFFFF" d="M22.32,43.064c-11.498,0-20.816-9.318-20.816-20.813c0-11.5,9.318-20.821,20.816-20.821
	c11.496,0,20.816,9.321,20.816,20.821C43.136,33.743,33.816,43.064,22.32,43.064z"/>
<path d="M22.465,3.102c-10.573,0-19.146,8.572-19.146,19.146c0,10.569,8.573,19.143,19.146,19.143
	c10.574,0,19.144-8.571,19.145-19.143C41.61,11.673,33.039,3.102,22.465,3.102z"/>
<path fill="#FFFFFF" d="M19.25,21.708c-1.609-0.025-2.73,0.521-3.729,1.105c-0.418,3.855,1.496,11.267-2.875,10.748
	c-1.094-0.129-2.054-1.292-2.249-2.375c-0.675-3.729,2.03-7.612,3.874-8.998l0.007-3.664h-1.12
	c-1.399-2.739-1.248-5.289-1.248-5.289h-0.004h0.898v-2.952c0,0,0.02-0.44,0.441-0.44c0.424,0,0.414,0.414,0.414,0.414v2.979h2.582
	h-0.027v-2.952c0,0,0.018-0.44,0.44-0.44s0.414,0.414,0.414,0.414v2.979h0.882c0,0,0.151,2.55-1.248,5.289h-1.222v2.787
	c0,0,2.266-0.973,3.769-1.03V9.451h12.26v23.654H19.25V21.708 M11.647,29.438c-0.086,1.285,0.076,2.92,1.375,2.875
	c2.27-0.079,0.967-6.198,1.125-8.374C13.147,25.005,11.805,27.084,11.647,29.438z M29.86,12.677h-8.998v7.249h8.998V12.677z"/>
</svg>
