<?xml version="1.0" encoding="utf-8"?>
<!-- Generator: Adobe Illustrator 15.1.0, SVG Export Plug-In . SVG Version: 6.00 Build 0)  -->
<!DOCTYPE svg PUBLIC "-//W3C//DTD SVG 1.1//EN" "http://www.w3.org/Graphics/SVG/1.1/DTD/svg11.dtd">
<svg version="1.1"
	 id="Layer_1" sodipodi:docname="ecobee.svg" inkscape:version="0.48.2 r9819" xmlns:svg="http://www.w3.org/2000/svg" xmlns:rdf="http://www.w3.org/1999/02/22-rdf-syntax-ns#" xmlns:dc="http://purl.org/dc/elements/1.1/" xmlns:inkscape="http://www.inkscape.org/namespaces/inkscape" xmlns:sodipodi="http://sodipodi.sourceforge.net/DTD/sodipodi-0.dtd" xmlns:cc="http://creativecommons.org/ns#"
	 xmlns="http://www.w3.org/2000/svg" xmlns:xlink="http://www.w3.org/1999/xlink" x="0px" y="0px" width="44.637px"
	 height="44.637px" viewBox="0 0 44.637 44.637" enable-background="new 0 0 44.637 44.637" xml:space="preserve">
<title>Layer 1</title>
<path fill="#FFFFFF" d="M22.32,43.138c-11.498,0-20.812-9.322-20.812-20.818C1.501,10.823,10.821,1.5,22.32,1.5
	c11.496,0,20.816,9.323,20.816,20.812C43.136,33.815,33.816,43.138,22.32,43.138z"/>
<g>
	<path fill="#020202" d="M22.465,3.176C11.892,3.176,3.32,11.747,3.32,22.32c0,10.573,8.571,19.146,19.146,19.146
		S41.61,32.895,41.61,22.321C41.61,11.748,33.039,3.176,22.465,3.176z M10.658,19.837c-0.15,0.148-0.354,0.248-0.581,0.261
		c-0.496,0.029-0.925-0.347-0.952-0.841c-0.01-0.163-0.206-4.072,3.279-7.559c3.461-3.459,7.576-3.541,7.755-3.541
		c0.495-0.009,0.903,0.393,0.907,0.887c0.008,0.496-0.392,0.905-0.889,0.908c-0.029,0.003-3.576,0.095-6.5,3.019
		c-2.92,2.921-2.758,6.146-2.758,6.173C10.939,19.412,10.835,19.66,10.658,19.837z M13.435,20.08
		c-0.496,0.023-0.917-0.348-0.949-0.844c-0.006-0.111-0.141-2.787,2.227-5.152c2.337-2.337,5.144-2.396,5.261-2.397
		c0.496-0.006,0.905,0.396,0.912,0.891c0.001,0.251-0.099,0.479-0.265,0.646c-0.159,0.159-0.384,0.255-0.627,0.263
		c-0.018,0.001-2.205,0.069-4.01,1.871c-1.771,1.771-1.699,3.698-1.696,3.779C14.308,19.63,13.929,20.054,13.435,20.08z
		 M17.482,19.107c0.014,0.49-0.369,0.913-0.861,0.938c-0.492,0.02-0.906-0.347-0.938-0.841c-0.012-0.161-0.059-1.62,1.244-2.923
		c1.275-1.275,2.775-1.329,2.945-1.331c0.496-0.009,0.902,0.392,0.907,0.89c0.001,0.25-0.1,0.479-0.265,0.646
		c-0.159,0.159-0.38,0.263-0.627,0.266c-0.027,0.001-0.926,0.042-1.688,0.805C17.467,18.284,17.479,19.074,17.482,19.107z
		 M34.808,30.631l-7.876,4.5c-0.002,0.002-0.005,0.002-0.007,0.002c-0.004,0.002-0.007,0.006-0.011,0.008
		c-0.111,0.062-0.232,0.092-0.354,0.092c-0.121,0-0.239-0.037-0.348-0.096c-0.01-0.006-0.021-0.004-0.029-0.008
		c-0.004-0.004-0.006-0.008-0.011-0.012c-0.009-0.008-0.021-0.01-0.029-0.018l-6.749-4.5c-0.208-0.139-0.334-0.371-0.334-0.625
		v-7.87c0-0.007,0.002-0.013,0.002-0.019c0-0.002-0.002-0.004-0.002-0.008c0-0.01,0.005-0.014,0.005-0.021
		c0.01-0.121,0.04-0.238,0.104-0.342c0.001-0.002,0.002-0.002,0.003-0.004c0.062-0.104,0.146-0.188,0.254-0.248
		c0.005-0.004,0.007-0.01,0.013-0.014l7.874-4.491c0.247-0.145,0.555-0.131,0.789,0.025l6.75,4.489
		c0.061,0.037,0.088,0.1,0.131,0.146c0.036,0.041,0.081,0.07,0.107,0.121c0.038,0.062,0.045,0.145,0.06,0.223
		c0.013,0.045,0.036,0.086,0.036,0.133v7.876h0.002C35.186,30.25,35.041,30.498,34.808,30.631z"/>
	<polygon fill="#020202" points="27.655,18.499 21.237,22.158 26.59,25.725 33.01,22.06 	"/>
	<polygon fill="#020202" points="20.561,29.58 25.81,33.08 25.81,27.006 20.561,23.506 	"/>
	<polygon fill="#020202" points="27.31,33.19 33.686,29.545 33.686,23.399 27.31,27.041 	"/>
</g>
</svg>
