<?xml version="1.0" encoding="utf-8"?>
<!-- Generator: Adobe Illustrator 15.1.0, SVG Export Plug-In . SVG Version: 6.00 Build 0)  -->
<!DOCTYPE svg PUBLIC "-//W3C//DTD SVG 1.1//EN" "http://www.w3.org/Graphics/SVG/1.1/DTD/svg11.dtd">
<svg version="1.1"
	 id="Layer_1" sodipodi:docname="ecobee.svg" inkscape:version="0.48.2 r9819" xmlns:svg="http://www.w3.org/2000/svg" xmlns:rdf="http://www.w3.org/1999/02/22-rdf-syntax-ns#" xmlns:dc="http://purl.org/dc/elements/1.1/" xmlns:inkscape="http://www.inkscape.org/namespaces/inkscape" xmlns:sodipodi="http://sodipodi.sourceforge.net/DTD/sodipodi-0.dtd" xmlns:cc="http://creativecommons.org/ns#"
	 xmlns="http://www.w3.org/2000/svg" xmlns:xlink="http://www.w3.org/1999/xlink" x="0px" y="0px" width="44.637px"
	 height="44.637px" viewBox="0 0 44.637 44.637" enable-background="new 0 0 44.637 44.637" xml:space="preserve">
<title>Layer 1</title>
<path fill="#FFFFFF" d="M22.32,43.138c-11.498,0-20.812-9.322-20.812-20.818C1.501,10.823,10.821,1.5,22.32,1.5
	c11.496,0,20.816,9.323,20.816,20.812C43.136,33.815,33.816,43.138,22.32,43.138z"/>
<g>
	<path d="M22.465,3.176C11.892,3.176,3.32,11.747,3.32,22.32c0,10.573,8.571,19.146,19.146,19.146S41.61,32.895,41.61,22.321
		C41.61,11.748,33.039,3.176,22.465,3.176z M18.349,15.086c0,0.113-0.091,0.205-0.205,0.205h-0.502l0.001,0.857
		c0,0.573-0.316,1.108-0.615,1.421c-0.002,0.001-0.004,0.005-0.006,0.006v0.001c-0.003,0.003-0.004,0.004-0.008,0.006
		c-0.036,0.038-1.984,2.025-1.984,2.025c-0.11,0.142-0.186,0.334-0.189,0.516v0.675c0.83,0.244,1.416,1.011,1.416,1.885
		c0,1.088-0.884,1.972-1.971,1.972c-1.084,0-1.969-0.884-1.969-1.972c0-0.875,0.586-1.641,1.416-1.885v-0.039
		c-0.006-0.175-0.079-0.369-0.205-0.523c-0.002,0-1.932-1.819-1.97-1.854c-0.006-0.007-0.011-0.01-0.018-0.02
		c-0.353-0.37-0.613-1.2-0.613-1.698l0.001-0.396c-0.428-0.21-0.707-0.646-0.707-1.128c0-0.697,0.565-1.264,1.263-1.264
		c0.695,0,1.263,0.565,1.263,1.264c0,0.48-0.279,0.918-0.708,1.128c0.001,0.063,0.001,0.228,0.001,0.7
		c0.004,0.175,0.078,0.368,0.204,0.525l1.491,1.401v-7.229h-1.076c-0.075,0-0.146-0.042-0.183-0.11s-0.029-0.149,0.015-0.212
		l1.631-2.361c0.039-0.055,0.103-0.088,0.169-0.088c0.067,0,0.132,0.033,0.17,0.088l1.637,2.361
		c0.043,0.062,0.048,0.143,0.014,0.212c-0.034,0.068-0.105,0.11-0.182,0.11h-1.083v6.556l1.504-1.543
		c0.112-0.142,0.187-0.332,0.19-0.514c0-0.45,0-0.719,0-0.871h-0.5c-0.115,0-0.207-0.093-0.207-0.207v-2.111
		c0-0.115,0.092-0.206,0.207-0.206h2.11c0.113,0,0.205,0.093,0.198,0.205V15.086z M34.808,30.631l-7.876,4.5
		c-0.002,0.002-0.005,0.002-0.007,0.002c-0.004,0.002-0.007,0.006-0.011,0.008c-0.111,0.062-0.232,0.092-0.354,0.092
		c-0.121,0-0.239-0.037-0.348-0.096c-0.01-0.006-0.021-0.004-0.029-0.008c-0.004-0.004-0.006-0.008-0.011-0.012
		c-0.009-0.008-0.021-0.01-0.029-0.018l-6.749-4.5c-0.208-0.139-0.334-0.371-0.334-0.625v-7.87c0-0.007,0.002-0.013,0.002-0.019
		c0-0.002-0.002-0.004-0.002-0.008c0-0.01,0.005-0.014,0.005-0.021c0.01-0.121,0.04-0.238,0.104-0.342
		c0.001-0.002,0.002-0.002,0.003-0.004c0.062-0.104,0.146-0.188,0.254-0.248c0.005-0.004,0.007-0.01,0.013-0.014l7.874-4.491
		c0.247-0.145,0.555-0.131,0.789,0.025l6.75,4.489c0.061,0.037,0.088,0.1,0.131,0.146c0.036,0.041,0.081,0.07,0.107,0.121
		c0.038,0.062,0.045,0.145,0.06,0.223c0.013,0.045,0.036,0.086,0.036,0.133v7.876h0.002C35.186,30.25,35.041,30.498,34.808,30.631z"
		/>
	<polygon points="27.655,18.499 21.237,22.158 26.59,25.725 33.01,22.06 	"/>
	<polygon points="20.561,29.58 25.81,33.08 25.81,27.006 20.561,23.506 	"/>
	<polygon points="27.31,33.19 33.686,29.545 33.686,23.399 27.31,27.041 	"/>
</g>
</svg>
