<?xml version="1.0" encoding="utf-8"?>
<!-- Generator: Adobe Illustrator 15.1.0, SVG Export Plug-In . SVG Version: 6.00 Build 0)  -->
<!DOCTYPE svg PUBLIC "-//W3C//DTD SVG 1.1//EN" "http://www.w3.org/Graphics/SVG/1.1/DTD/svg11.dtd">
<svg version="1.1"
	 id="Layer_1" sodipodi:docname="ecobee.svg" inkscape:version="0.48.2 r9819" xmlns:svg="http://www.w3.org/2000/svg" xmlns:rdf="http://www.w3.org/1999/02/22-rdf-syntax-ns#" xmlns:dc="http://purl.org/dc/elements/1.1/" xmlns:inkscape="http://www.inkscape.org/namespaces/inkscape" xmlns:sodipodi="http://sodipodi.sourceforge.net/DTD/sodipodi-0.dtd" xmlns:cc="http://creativecommons.org/ns#"
	 xmlns="http://www.w3.org/2000/svg" xmlns:xlink="http://www.w3.org/1999/xlink" x="0px" y="0px" width="44.637px"
	 height="44.637px" viewBox="0 0 44.637 44.637" enable-background="new 0 0 44.637 44.637" xml:space="preserve">
<title>Layer 1</title>
<path fill="#FFFFFF" d="M22.32,43.138c-11.498,0-20.814-9.322-20.814-20.818C1.501,10.823,10.821,1.5,22.32,1.5
	c11.496,0,20.816,9.323,20.816,20.815C43.136,33.815,33.816,43.138,22.32,43.138z"/>
<g>
	<path fill="#020202" d="M22.465,3.176C11.892,3.176,3.32,11.747,3.32,22.32c0,10.573,8.571,19.146,19.146,19.146
		S41.61,32.895,41.61,22.321C41.61,11.748,33.039,3.176,22.465,3.176z M13.215,12.231l-0.011,0.047l-0.021-0.01
		C13.195,12.256,13.207,12.245,13.215,12.231z M29.598,33.557l-7.876,4.5c-0.002,0.002-0.005,0.002-0.007,0.002
		c-0.004,0.002-0.007,0.006-0.011,0.008c-0.111,0.062-0.232,0.092-0.354,0.092c-0.121,0-0.239-0.037-0.348-0.096
		c-0.01-0.006-0.021-0.004-0.029-0.008c-0.004-0.004-0.006-0.008-0.011-0.012c-0.009-0.006-0.021-0.008-0.029-0.016l-6.75-4.5
		c-0.208-0.139-0.334-0.371-0.334-0.625V25.03c0-0.007,0.002-0.013,0.002-0.019c0-0.002-0.002-0.004-0.002-0.008
		c0-0.008,0.005-0.012,0.005-0.021c0.008-0.121,0.04-0.238,0.104-0.342c0.001-0.002,0.002-0.002,0.003-0.004
		c0.062-0.102,0.147-0.186,0.254-0.248c0.005-0.004,0.007-0.01,0.013-0.014l7.875-4.491c0.247-0.143,0.553-0.131,0.789,0.027
		l6.75,4.489c0.059,0.037,0.088,0.098,0.131,0.146c0.036,0.041,0.081,0.072,0.107,0.121c0.038,0.064,0.045,0.145,0.06,0.223
		c0.011,0.045,0.036,0.086,0.036,0.133v7.88h0.002C29.976,33.176,29.831,33.424,29.598,33.557z M39.739,21.463
		c0,2.008-1.849,3.646-4.137,3.682c-0.426,1.122-1.83,2.05-4.128,2.729v-2.069c1.612-0.552,2.169-1.104,2.275-1.336
		c-0.021-0.045-0.035-0.082-0.049-0.119c-0.124-0.343-0.052-0.726,0.192-0.996c0.242-0.271,0.614-0.389,0.97-0.296
		c0.287,0.071,0.483,0.121,0.661,0.121c1.218,0,2.244-0.785,2.244-1.713c0-0.93-1.026-1.715-2.244-1.715
		c-0.022,0-0.102,0.02-0.156,0.034c-0.098,0.022-0.191,0.047-0.291,0.062c-0.335,0.056-0.678-0.063-0.9-0.321
		c-0.225-0.255-0.302-0.606-0.203-0.934c0.176-0.583,0.258-1.081,0.258-1.565c0-3.398-3.138-6.166-6.994-6.166
		c-2.667,0-5.064,1.324-6.261,3.457c-0.265,0.477-0.863,0.646-1.339,0.378c-1.742-0.974-3.677,0.299-4.181,2.438
		c-0.065,0.279-0.249,0.515-0.502,0.647c-0.254,0.132-0.555,0.147-0.818,0.043c-0.746-0.297-1.586-0.451-2.428-0.451
		c-2.464,0-4.545,1.257-4.545,2.745c0,1.278,1.665,2.46,3.791,2.687c0.333,0.036,0.625,0.238,0.773,0.538
		c0.15,0.3,0.14,0.655-0.033,0.943c-0.062,0.105-0.074,0.146-0.076,0.151c0.003,0.059,0.16,0.322,0.731,0.67v2.2
		c-1.688-0.731-2.597-1.646-2.688-2.729c-2.646-0.619-4.47-2.388-4.47-4.462c0-2.646,2.862-4.716,6.517-4.716
		c0.729,0,1.462,0.094,2.159,0.271c0.828-1.979,2.582-3.29,4.529-3.29c0.453,0,0.902,0.073,1.343,0.216
		c1.646-2.306,4.439-3.707,7.497-3.707c4.942,0,8.965,3.649,8.965,8.135c0,0.266-0.018,0.527-0.051,0.797
		C38.178,18.083,39.739,19.617,39.739,21.463z"/>
	<polygon fill="#020202" points="22.445,21.421 16.026,25.08 21.38,28.651 27.8,24.983 	"/>
	<polygon fill="#020202" points="15.35,32.506 20.6,36.006 20.6,29.932 15.35,26.432 	"/>
	<polygon fill="#020202" points="22.1,36.115 28.476,32.471 28.476,26.323 22.1,29.967 	"/>
</g>
</svg>
