<?xml version="1.0" encoding="utf-8"?>
<!-- Generator: Adobe Illustrator 15.1.0, SVG Export Plug-In . SVG Version: 6.00 Build 0)  -->
<!DOCTYPE svg PUBLIC "-//W3C//DTD SVG 1.1//EN" "http://www.w3.org/Graphics/SVG/1.1/DTD/svg11.dtd">
<svg version="1.1"
	 id="Layer_1" sodipodi:docname="insteon_LED.svg" inkscape:version="0.48.1 r9760" xmlns:sodipodi="http://sodipodi.sourceforge.net/DTD/sodipodi-0.dtd" xmlns:rdf="http://www.w3.org/1999/02/22-rdf-syntax-ns#" xmlns:dc="http://purl.org/dc/elements/1.1/" xmlns:cc="http://creativecommons.org/ns#" xmlns:inkscape="http://www.inkscape.org/namespaces/inkscape" xmlns:svg="http://www.w3.org/2000/svg"
	 xmlns="http://www.w3.org/2000/svg" xmlns:xlink="http://www.w3.org/1999/xlink" x="0px" y="0px" width="44.637px"
	 height="44.637px" viewBox="0 0 44.637 44.637" enable-background="new 0 0 44.637 44.637" xml:space="preserve">
<sodipodi:namedview  id="namedview11726" borderopacity="1" guidetolerance="10" inkscape:window-width="1910" inkscape:window-height="1156" inkscape:window-y="0" inkscape:pageshadow="2" inkscape:pageopacity="0" inkscape:window-x="0" inkscape:current-layer="Layer_1" inkscape:window-maximized="0" inkscape:zoom="21.013957" objecttolerance="10" inkscape:cx="22.318501" inkscape:cy="22.318501" bordercolor="#666666" showgrid="false" gridtolerance="10" pagecolor="#ffffff">
	</sodipodi:namedview>
<g id="g11706">
	<g id="g11708">
	</g>
	<g id="g11712">
	</g>
	<g id="g11716">
	</g>
	<g id="g11720">
	</g>
</g>
<g id="Livello_1_2_">
</g>
<path fill="#FFFFFF" d="M22.32,43.067c-11.498,0-20.812-9.312-20.812-20.812S10.82,1.434,22.32,1.434
	c11.496,0,20.816,9.321,20.816,20.821C43.136,33.749,33.816,43.07,22.32,43.067z"/>
<g>
	<path d="M22.465,3.108c-10.573,0-19.146,8.572-19.146,19.146c0,10.562,8.573,19.143,19.146,19.143
		c10.577,0,19.144-8.571,19.145-19.143C41.61,11.679,33.039,3.108,22.465,3.108z M36.436,21.537l-0.012,2.365l-0.016,2.888
		c-0.201,2.32-0.43,2.737-0.473,2.8c-0.566,0.798-0.992,1.29-2.471,1.399c-1.508,0.107-6.9,0.381-10.051,0.381
		c-0.387,0-0.739-0.005-1.078-0.016c-2.854,0.077-9.407-0.244-11.103-0.365c-1.479-0.109-1.899-0.604-2.471-1.399
		c-0.043-0.06-0.269-0.479-0.469-2.744l-0.019-2.939l-0.014-2.367l-0.016-2.563c0.213-2.917,0.465-3.411,0.515-3.479
		c0.568-0.796,0.99-1.29,2.471-1.398c1.513-0.11,6.902-0.381,10.049-0.381c0.388,0,0.739,0.005,1.079,0.013
		c2.855-0.081,9.406,0.244,11.104,0.368c1.479,0.109,1.902,0.604,2.471,1.398c0.049,0.066,0.303,0.562,0.516,3.458L36.436,21.537z"
		/>
	<path d="M35.496,22.339h-7.907c-0.144-2.664-2.345-4.794-5.056-4.794c-2.713,0-4.914,2.13-5.057,4.794H9.079
		c-0.147,0-0.271,0.119-0.273,0.265c-0.003,0.149,0.117,0.274,0.275,0.277h8.396c0.148,2.656,2.349,4.778,5.056,4.778
		c2.704,0,4.903-2.122,5.054-4.778h7.915c0.143,0,0.264-0.11,0.272-0.25l-0.003-0.054C35.757,22.441,35.641,22.339,35.496,22.339z
		 M22.533,26.44c-2.132,0-3.857-1.719-3.857-3.837c0-2.121,1.728-3.837,3.857-3.837c2.129,0,3.855,1.716,3.855,3.837
		C26.391,24.721,24.662,26.44,22.533,26.44z"/>
	<path d="M24.633,20.568l-2.198,1.846c-0.116,0.088-0.146,0.251-0.064,0.371l0.043,0.048c0.05,0.046,0.114,0.068,0.184,0.068
		c0.07,0,0.137-0.024,0.181-0.066l2.203-1.851c0.114-0.095,0.135-0.261,0.042-0.38C24.933,20.494,24.767,20.466,24.633,20.568z"/>
</g>
</svg>
