<?xml version="1.0" encoding="utf-8"?>
<!-- Generator: Adobe Illustrator 15.1.0, SVG Export Plug-In . SVG Version: 6.00 Build 0)  -->
<!DOCTYPE svg PUBLIC "-//W3C//DTD SVG 1.1//EN" "http://www.w3.org/Graphics/SVG/1.1/DTD/svg11.dtd">
<svg version="1.1"
	 id="Layer_1" sodipodi:docname="insteon_LED.svg" inkscape:version="0.48.1 r9760" xmlns:rdf="http://www.w3.org/1999/02/22-rdf-syntax-ns#" xmlns:sodipodi="http://sodipodi.sourceforge.net/DTD/sodipodi-0.dtd" xmlns:inkscape="http://www.inkscape.org/namespaces/inkscape" xmlns:dc="http://purl.org/dc/elements/1.1/" xmlns:cc="http://creativecommons.org/ns#" xmlns:svg="http://www.w3.org/2000/svg"
	 xmlns="http://www.w3.org/2000/svg" xmlns:xlink="http://www.w3.org/1999/xlink" x="0px" y="0px" width="44.637px"
	 height="44.637px" viewBox="0 0 44.637 44.637" enable-background="new 0 0 44.637 44.637" xml:space="preserve">
<sodipodi:namedview  bordercolor="#666666" pagecolor="#ffffff" inkscape:window-maximized="0" inkscape:window-y="0" inkscape:window-x="0" inkscape:cx="22.318501" inkscape:window-height="1156" showgrid="false" inkscape:current-layer="Layer_1" inkscape:cy="22.318501" inkscape:pageshadow="2" id="namedview11726" inkscape:pageopacity="0" borderopacity="1" gridtolerance="10" inkscape:zoom="21.013957" inkscape:window-width="1910" guidetolerance="10" objecttolerance="10">
	</sodipodi:namedview>
<g id="g11706">
	<g id="g11708">
	</g>
	<g id="g11712">
	</g>
	<g id="g11716">
	</g>
	<g id="g11720">
	</g>
</g>
<path fill="#FFFFFF" d="M22.32,43.063c-11.498,0-20.814-9.316-20.814-20.812c0-11.5,9.316-20.821,20.814-20.821
	c11.496,0,20.816,9.321,20.816,20.821C43.136,33.743,33.816,43.064,22.32,43.063z"/>
<path d="M22.465,3.102c-10.573,0-19.146,8.572-19.146,19.146c0,10.568,8.573,19.143,19.146,19.143
	c10.575,0,19.144-8.572,19.145-19.143C41.61,11.673,33.039,3.102,22.465,3.102z M33.19,22.384c0.047,0-0.312,1.099-0.396,1.097
	c-1.088,2.349-3.32,3.226-6.928,3.589c1.17,0.724,1.506,1.631,1.506,4.086c0,2.453-0.035,2.782-0.026,3.35
	c0.013,0.924,1.396,1.369,1.343,1.667s-1.155,0.25-1.672,0.071c-1.464-0.5-1.315-1.695-1.315-1.695l-0.05-3.282
	c0,0,0.101-1.767-0.563-1.767v5.373c0,1.167,0.832,1.521,0.832,1.952c0,0.741-1.521-0.069-1.988-0.532
	c-0.713-0.705-0.631-2.197-0.615-3.378c0.019-1.142-0.01-3.634-0.01-3.634l-0.483,0.01c0,0,0.198,5.449-0.256,6.438
	c-0.587,1.277-2.358,1.715-2.358,1.133c0-0.391,0.436-0.266,0.678-1.141c0.206-0.746,0.135-6.299,0.135-6.299
	s-0.566,0.33-0.566,1.37c0,0.478-0.015,3.195-0.015,4.005c0,1.019-1.471,1.598-2.179,1.598c-0.357,0-0.803-0.018-0.803-0.203
	c0-0.471,1.346-0.747,1.346-1.728c0-0.849-0.018-3.034-0.018-3.034s-0.68,0.115-1.646,0.115c-2.439,0-3.211-1.529-3.579-2.386
	c-0.478-1.114-1.097-1.639-1.755-2.059c-0.404-0.258-0.497-0.561-0.029-0.646c2.159-0.4,2.711,2.405,4.154,2.854
	c1.028,0.318,2.354,0.181,3.011-0.238c0.087-0.854,0.717-1.596,1.24-1.985c-3.668-0.349-5.843-1.601-6.971-3.611
	c-0.016,0-0.531-1.094-0.488-1.094c-0.353-1.021-0.51-2.191-0.51-3.498c0-2.319,0.736-3.194,1.723-4.431
	c-0.755-2.646,0.271-4.452,0.271-4.452s1.588-0.323,4.588,1.788c1.626-0.686,5.965-0.742,8.016-0.152
	c1.259-0.817,3.562-1.979,4.492-1.654c0.251,0.398,0.793,1.56,0.329,4.108c0.315,0.559,1.954,1.75,1.961,5.118
	C33.567,20.448,33.434,21.497,33.19,22.384z"/>
</svg>
