<?xml version="1.0" encoding="utf-8"?>
<!-- Generator: Adobe Illustrator 15.1.0, SVG Export Plug-In . SVG Version: 6.00 Build 0)  -->
<!DOCTYPE svg PUBLIC "-//W3C//DTD SVG 1.1//EN" "http://www.w3.org/Graphics/SVG/1.1/DTD/svg11.dtd">
<svg version="1.1"
	 id="Layer_1" sodipodi:docname="ecobee.svg" inkscape:version="0.48.2 r9819" xmlns:cc="http://creativecommons.org/ns#" xmlns:dc="http://purl.org/dc/elements/1.1/" xmlns:rdf="http://www.w3.org/1999/02/22-rdf-syntax-ns#" xmlns:inkscape="http://www.inkscape.org/namespaces/inkscape" xmlns:sodipodi="http://sodipodi.sourceforge.net/DTD/sodipodi-0.dtd" xmlns:svg="http://www.w3.org/2000/svg"
	 xmlns="http://www.w3.org/2000/svg" xmlns:xlink="http://www.w3.org/1999/xlink" x="0px" y="0px" width="44.637px"
	 height="44.637px" viewBox="0 0 44.637 44.637" enable-background="new 0 0 44.637 44.637" xml:space="preserve">
<title>Layer 1</title>
<path fill="#FFFFFF" d="M22.32,43.138c-11.498,0-20.812-9.322-20.812-20.818C1.501,10.823,10.821,1.5,22.32,1.5
	c11.496,0,20.816,9.323,20.816,20.812C43.136,33.815,33.816,43.138,22.32,43.138z"/>
<g>
	<path d="M22.465,3.176C11.892,3.176,3.32,11.747,3.32,22.32c0,10.573,8.571,19.146,19.146,19.146S41.61,32.895,41.61,22.321
		C41.61,11.748,33.039,3.176,22.465,3.176z M29.938,23.858c-1.566,1.949-4.915,3.705-5.583,11.44c0,0.454-0.31,1.413-1.711,1.413
		c-1.405,0-1.688-0.959-1.688-1.413c-0.67-7.735-4.045-9.488-5.61-11.44c-1.29-1.598-2.063-3.638-2.063-5.855
		c0-5.178,4.189-9.379,9.361-9.379c5.166,0,9.358,4.201,9.358,9.379C32.002,20.22,31.23,22.26,29.938,23.858z"/>
	<path d="M22.496,14.99c1.668,0,3.021,1.354,3.021,3.023c0,1.672-1.354,3.027-3.021,3.027c-1.671,0-3.026-1.355-3.026-3.027
		C19.47,16.342,20.825,14.99,22.496,14.99z"/>
</g>
</svg>
