<?xml version="1.0" encoding="utf-8"?>
<!-- Generator: Adobe Illustrator 15.1.0, SVG Export Plug-In . SVG Version: 6.00 Build 0)  -->
<!DOCTYPE svg PUBLIC "-//W3C//DTD SVG 1.1//EN" "http://www.w3.org/Graphics/SVG/1.1/DTD/svg11.dtd">
<svg version="1.1"
	 id="Layer_1" sodipodi:docname="insteon_LED.svg" inkscape:version="0.48.1 r9760" xmlns:rdf="http://www.w3.org/1999/02/22-rdf-syntax-ns#" xmlns:sodipodi="http://sodipodi.sourceforge.net/DTD/sodipodi-0.dtd" xmlns:inkscape="http://www.inkscape.org/namespaces/inkscape" xmlns:dc="http://purl.org/dc/elements/1.1/" xmlns:cc="http://creativecommons.org/ns#" xmlns:svg="http://www.w3.org/2000/svg"
	 xmlns="http://www.w3.org/2000/svg" xmlns:xlink="http://www.w3.org/1999/xlink" x="0px" y="0px" width="44.637px"
	 height="44.637px" viewBox="0 0 44.637 44.637" enable-background="new 0 0 44.637 44.637" xml:space="preserve">
<sodipodi:namedview  bordercolor="#666666" pagecolor="#ffffff" inkscape:window-maximized="0" inkscape:window-y="0" inkscape:window-x="0" inkscape:cx="22.318501" inkscape:window-height="1156" showgrid="false" inkscape:current-layer="Layer_1" inkscape:cy="22.318501" inkscape:pageshadow="2" id="namedview11726" inkscape:pageopacity="0" borderopacity="1" gridtolerance="10" inkscape:zoom="21.013957" inkscape:window-width="1910" guidetolerance="10" objecttolerance="10">
	</sodipodi:namedview>
<g id="g11706">
	<g id="g11708">
	</g>
	<g id="g11712">
	</g>
	<g id="g11716">
	</g>
	<g id="g11720">
	</g>
</g>
<path fill="#FFFFFF" d="M22.32,43.061c-11.498,0-20.812-9.314-20.812-20.812c0-11.5,9.314-20.821,20.812-20.821
	c11.496,0,20.816,9.321,20.816,20.821C43.136,33.743,33.816,43.064,22.32,43.061z"/>
<g>
	<circle cx="22.846" cy="19.108" r="1.417"/>
	<circle cx="15.321" cy="22.344" r="1.417"/>
	<circle cx="17.846" cy="13.834" r="1.417"/>
	<circle cx="23.279" cy="32.876" r="2.36"/>
	<circle cx="25.403" cy="9.219" r="1.417"/>
	<circle cx="29.953" cy="22.082" r="1.417"/>
	<path d="M22.465,3.102c-10.573,0-19.146,8.572-19.146,19.146c0,10.568,8.573,19.143,19.146,19.143
		c10.577,0,19.144-8.574,19.145-19.143C41.61,11.673,33.039,3.102,22.465,3.102z M29.953,25.107c-1.67,0-3.024-1.354-3.024-3.023
		c0-0.188,0.021-0.373,0.053-0.555l-1.573-0.821c-0.271,0.429-0.641,0.785-1.08,1.034v6.208c2.277,0.48,3.988,2.505,3.988,4.928
		c0,2.784-2.256,5.041-5.038,5.041c-2.78,0-5.036-2.257-5.036-5.041c0-2.206,1.42-4.076,3.395-4.76h-0.018V21.87
		c-0.449-0.2-0.843-0.509-1.145-0.891l-2.16,0.96c0.02,0.135,0.03,0.27,0.03,0.404c0,1.669-1.354,3.023-3.024,3.023
		c-1.67,0-3.022-1.354-3.022-3.023c0-1.67,1.354-3.024,3.022-3.024c1.06,0,1.988,0.546,2.528,1.367l2.032-0.983
		c-0.039-0.192-0.062-0.393-0.062-0.597c0-0.553,0.151-1.068,0.41-1.516l-0.945-1.097c-0.43,0.23-0.918,0.362-1.438,0.362
		c-1.67,0-3.024-1.354-3.024-3.022s1.354-3.024,3.024-3.024s3.023,1.354,3.023,3.024c0,0.646-0.205,1.248-0.556,1.74l0.896,0.988
		c0.458-0.294,0.998-0.468,1.578-0.479l1.126-4.235c-0.914-0.52-1.533-1.502-1.533-2.631c0-1.67,1.349-3.024,3.019-3.024
		c1.674,0,3.025,1.354,3.025,3.024s-1.354,3.024-3.025,3.024c-0.01,0-0.021-0.001-0.031-0.001l-1.214,4.145
		c1.013,0.49,1.708,1.522,1.708,2.72c0,0.125-0.01,0.247-0.021,0.367l1.65,0.854c0.549-0.77,1.443-1.271,2.461-1.271
		c1.67,0,3.021,1.354,3.021,3.023C32.977,23.752,31.623,25.107,29.953,25.107z"/>
</g>
</svg>
