<?xml version="1.0" encoding="utf-8"?>
<!-- Generator: Adobe Illustrator 15.1.0, SVG Export Plug-In . SVG Version: 6.00 Build 0)  -->
<!DOCTYPE svg PUBLIC "-//W3C//DTD SVG 1.1//EN" "http://www.w3.org/Graphics/SVG/1.1/DTD/svg11.dtd">
<svg version="1.1"
	 id="Layer_1" sodipodi:docname="ecobee.svg" inkscape:version="0.48.2 r9819" xmlns:rdf="http://www.w3.org/1999/02/22-rdf-syntax-ns#" xmlns:sodipodi="http://sodipodi.sourceforge.net/DTD/sodipodi-0.dtd" xmlns:inkscape="http://www.inkscape.org/namespaces/inkscape" xmlns:dc="http://purl.org/dc/elements/1.1/" xmlns:cc="http://creativecommons.org/ns#" xmlns:svg="http://www.w3.org/2000/svg"
	 xmlns="http://www.w3.org/2000/svg" xmlns:xlink="http://www.w3.org/1999/xlink" x="0px" y="0px" width="44.637px"
	 height="44.637px" viewBox="0 0 44.637 44.637" enable-background="new 0 0 44.637 44.637" xml:space="preserve">
<path fill="#FFFFFF" d="M22.32,43.138c-11.498,0-20.817-9.322-20.817-20.818C1.501,10.823,10.822,1.5,22.32,1.5
	c11.496,0,20.816,9.323,20.816,20.818C43.136,33.815,33.816,43.138,22.32,43.138z"/>
<g>
	<path d="M22.465,3.175C11.892,3.175,3.32,11.747,3.32,22.32c0,10.573,8.573,19.146,19.146,19.146
		c10.574,0,19.144-8.571,19.145-19.146C41.61,11.746,33.039,3.175,22.465,3.175z M23.074,32.76c-5.988,0-10.844-4.854-10.844-10.836
		c0-5.989,4.854-10.842,10.844-10.842c1.816,0,3.535,0.45,5.041,1.244c-1.004,1.14-1.615,2.624-1.615,4.26
		c0,3.562,2.891,6.451,6.457,6.451c0.31,0,0.607-0.029,0.904-0.07C33.334,28.463,28.707,32.76,23.074,32.76z"/>
</g>
</svg>
