<?xml version="1.0" encoding="utf-8"?>
<!-- Generator: Adobe Illustrator 15.1.0, SVG Export Plug-In . SVG Version: 6.00 Build 0)  -->
<!DOCTYPE svg PUBLIC "-//W3C//DTD SVG 1.1//EN" "http://www.w3.org/Graphics/SVG/1.1/DTD/svg11.dtd">
<svg version="1.1"
	 id="Layer_1" sodipodi:docname="ecobee.svg" inkscape:version="0.48.2 r9819" xmlns:rdf="http://www.w3.org/1999/02/22-rdf-syntax-ns#" xmlns:sodipodi="http://sodipodi.sourceforge.net/DTD/sodipodi-0.dtd" xmlns:inkscape="http://www.inkscape.org/namespaces/inkscape" xmlns:dc="http://purl.org/dc/elements/1.1/" xmlns:cc="http://creativecommons.org/ns#" xmlns:svg="http://www.w3.org/2000/svg"
	 xmlns="http://www.w3.org/2000/svg" xmlns:xlink="http://www.w3.org/1999/xlink" x="0px" y="0px" width="44.637px"
	 height="44.637px" viewBox="0 0 44.637 44.637" enable-background="new 0 0 44.637 44.637" xml:space="preserve">
<path fill="#FFFFFF" d="M22.32,43.062c-11.498,0-20.814-9.316-20.814-20.812c0-11.5,9.316-20.821,20.814-20.821
	c11.496,0,20.816,9.321,20.816,20.821C43.136,33.743,33.816,43.062,22.32,43.062z"/>
<g>
	<path d="M22.4,35.592v0.006l0.013-0.004l0.011,0.004v-0.006l6.868-1.904l1.62-18.146h-8.488H22.4h-8.482l1.62,18.146L22.4,35.592z
		 M22.392,18.143H22.4h6.521l-0.062,0.699l-0.115,1.32l-0.056,0.586h-0.009H22.4h-0.008h-3.678l0.238,2.668h3.438h0.01h5.35h0.702
		l-0.063,0.7l-0.611,6.856l-0.04,0.441l-5.337,1.48h-0.002l-0.006,0.002v-0.002l-0.004,0.002l-5.336-1.479l-0.365-4.092h1.205h1.41
		l0.186,2.076l2.901,0.783l0.009-0.002l2.901-0.783l0.303-3.379H22.4h-0.008H16.57l-0.64-7.18l-0.062-0.699H22.392z"/>
	<path d="M22.465,3.102c-10.574,0-19.146,8.572-19.146,19.146c0,10.569,8.574,19.143,19.146,19.143
		c10.574,0,19.144-8.571,19.145-19.143C41.61,11.673,33.039,3.102,22.465,3.102z M27.722,8.027h1.324v2.652h1.863v1.312h-3.188
		L27.722,8.027z M23.983,8.027l0.854,1.396l0.85-1.396h1.381v3.961H25.75v-1.963l-0.912,1.408h-0.022L23.9,10.025v1.963h-1.297
		l-0.001-3.961H23.983z M18.366,8.027h3.651v1.314h-1.166v2.646h-1.321V9.341h-1.164V8.027z M13.931,8.027h1.324v1.312h1.211V8.027
		h1.324v3.961h-1.324v-1.322h-1.211v1.322h-1.324V8.027z M30.912,35.042l-8.524,2.363l-8.5-2.359l-1.894-21.245h20.812
		L30.912,35.042z"/>
</g>
</svg>
