<?xml version="1.0" encoding="utf-8"?>
<!-- Generator: Adobe Illustrator 15.1.0, SVG Export Plug-In . SVG Version: 6.00 Build 0)  -->
<!DOCTYPE svg PUBLIC "-//W3C//DTD SVG 1.1//EN" "http://www.w3.org/Graphics/SVG/1.1/DTD/svg11.dtd">
<svg version="1.1"
	 id="Layer_1" sodipodi:docname="ecobee.svg" inkscape:version="0.48.2 r9819" xmlns:rdf="http://www.w3.org/1999/02/22-rdf-syntax-ns#" xmlns:sodipodi="http://sodipodi.sourceforge.net/DTD/sodipodi-0.dtd" xmlns:inkscape="http://www.inkscape.org/namespaces/inkscape" xmlns:dc="http://purl.org/dc/elements/1.1/" xmlns:cc="http://creativecommons.org/ns#" xmlns:svg="http://www.w3.org/2000/svg"
	 xmlns="http://www.w3.org/2000/svg" xmlns:xlink="http://www.w3.org/1999/xlink" x="0px" y="0px" width="44.637px"
	 height="44.637px" viewBox="0 0 44.637 44.637" enable-background="new 0 0 44.637 44.637" xml:space="preserve">
<path fill="#FFFFFF" d="M22.319,43.066c-11.5,0-20.814-9.316-20.814-20.812c0-11.5,9.315-20.822,20.815-20.822
	c11.495,0,20.816,9.321,20.815,20.822C43.135,33.745,33.814,43.066,22.319,43.066z"/>
<g>
	<path d="M22.465,3.102c-10.576,0-19.146,8.572-19.146,19.146c0,10.568,8.572,19.144,19.146,19.144
		c10.572,0,19.144-8.571,19.145-19.144C41.61,11.674,33.037,3.102,22.465,3.102z M22.516,37.248c-0.861,0-1.623-0.521-1.99-1.232
		h3.974C24.132,36.742,23.382,37.248,22.516,37.248z M25.91,34.946c0,0.237-0.18,0.432-0.393,0.432H19.5
		c-0.215,0-0.395-0.192-0.395-0.432v-0.397c0-0.237,0.18-0.427,0.395-0.427h6.021c0.213,0,0.393,0.188,0.393,0.427L25.91,34.946
		L25.91,34.946z M25.91,33.11c0,0.238-0.18,0.434-0.393,0.434H19.5c-0.215,0-0.395-0.193-0.395-0.434V32.71
		c0-0.238,0.18-0.427,0.395-0.427h6.021c0.213,0,0.393,0.188,0.393,0.427L25.91,33.11L25.91,33.11z M25.91,31.276
		c0,0.236-0.18,0.432-0.393,0.432H19.5c-0.215,0-0.395-0.193-0.395-0.432v-0.398c0-0.236,0.18-0.432,0.395-0.432h6.021
		c0.213,0,0.393,0.193,0.393,0.432L25.91,31.276L25.91,31.276z M27.441,27.658c-0.277,1.688-0.674,2.085-1.948,2.085
		c-0.546,0-2.032,0-2.979,0s-2.436,0-2.979,0c-1.276,0-1.673-0.396-1.948-2.085c-0.336-2.021-0.814-7.137-2.245-11.312h14.351
		C28.05,21.686,27.777,25.637,27.441,27.658z M31.586,11.16l-1.797,4.639H15.233l-1.837-4.918c0,0-1.306-3.635,9.116-3.635
		C32.705,7.246,31.586,11.16,31.586,11.16z"/>
</g>
</svg>
