<?xml version="1.0" encoding="utf-8"?>
<!-- Generator: Adobe Illustrator 15.1.0, SVG Export Plug-In . SVG Version: 6.00 Build 0)  -->
<!DOCTYPE svg PUBLIC "-//W3C//DTD SVG 1.1//EN" "http://www.w3.org/Graphics/SVG/1.1/DTD/svg11.dtd">
<svg version="1.1"
	 id="Layer_1" sodipodi:docname="insteon_LED.svg" inkscape:version="0.48.1 r9760" xmlns:svg="http://www.w3.org/2000/svg" xmlns:rdf="http://www.w3.org/1999/02/22-rdf-syntax-ns#" xmlns:dc="http://purl.org/dc/elements/1.1/" xmlns:inkscape="http://www.inkscape.org/namespaces/inkscape" xmlns:sodipodi="http://sodipodi.sourceforge.net/DTD/sodipodi-0.dtd" xmlns:cc="http://creativecommons.org/ns#"
	 xmlns="http://www.w3.org/2000/svg" xmlns:xlink="http://www.w3.org/1999/xlink" x="0px" y="0px" width="44.637px"
	 height="44.637px" viewBox="0 0 44.637 44.637" enable-background="new 0 0 44.637 44.637" xml:space="preserve">
<sodipodi:namedview  objecttolerance="10" inkscape:current-layer="Layer_1" showgrid="false" guidetolerance="10" gridtolerance="10" inkscape:window-y="0" inkscape:window-maximized="0" inkscape:window-height="1156" inkscape:zoom="21.013957" inkscape:window-width="1910" inkscape:window-x="0" id="namedview11726" borderopacity="1" inkscape:cy="22.318501" inkscape:pageshadow="2" bordercolor="#666666" inkscape:cx="22.318501" inkscape:pageopacity="0" pagecolor="#ffffff">
	</sodipodi:namedview>
<g id="g11706">
	<g id="g11708">
	</g>
	<g id="g11712">
	</g>
	<g id="g11716">
	</g>
	<g id="g11720">
	</g>
</g>
<path fill="#FFFFFF" d="M22.32,43.061c-11.498,0-20.813-9.315-20.813-20.812c0-11.5,9.315-20.821,20.813-20.821
	c11.496,0,20.816,9.321,20.816,20.821C43.136,33.743,33.816,43.064,22.32,43.061z"/>
<g>
	<path fill="none" d="M22.32,1.428c-11.498,0-20.813,9.321-20.813,20.821c0,11.495,9.315,20.812,20.813,20.812
		c11.496,0.003,20.816-9.316,20.816-20.812C43.136,10.749,33.816,1.428,22.32,1.428z M22.465,41.391
		c-10.573,0-19.146-8.572-19.146-19.143c0-10.574,8.573-19.146,19.146-19.146c10.574,0,19.145,8.571,19.145,19.146
		C41.609,32.817,33.042,41.391,22.465,41.391z"/>
	<path d="M22.465,3.102c-10.573,0-19.146,8.572-19.146,19.146c0,10.569,8.573,19.143,19.146,19.143
		c10.577,0,19.144-8.574,19.145-19.143C41.61,11.673,33.039,3.102,22.465,3.102z M36.242,19.246c0.446,0,0.811,0.362,0.811,0.81
		s-0.363,0.811-0.811,0.811h-2.095v0.674h2.095c0.446,0,0.811,0.362,0.811,0.81s-0.363,0.812-0.811,0.812h-2.095v0.676h2.095
		c0.446,0,0.811,0.363,0.811,0.81c0,0.448-0.363,0.812-0.811,0.812h-2.095v0.677h2.095c0.446,0,0.811,0.363,0.811,0.811
		c0,0.448-0.363,0.812-0.811,0.812h-2.095v0.675h2.095c0.446,0,0.811,0.362,0.811,0.811c0,0.447-0.363,0.811-0.811,0.811h-2.177
		c-0.342,1.992-1.907,3.562-3.899,3.902v2.177c0,0.448-0.363,0.81-0.812,0.81c-0.447,0-0.811-0.36-0.811-0.81v-2.094h-0.676v2.094
		c0,0.448-0.362,0.81-0.812,0.81c-0.447,0-0.81-0.36-0.81-0.81v-2.094H25.57v2.094c0,0.448-0.362,0.81-0.811,0.81
		s-0.811-0.36-0.811-0.81v-2.094h-0.675v2.094c0,0.448-0.362,0.81-0.811,0.81s-0.811-0.36-0.811-0.81v-2.094h-0.676v2.094
		c0,0.448-0.363,0.81-0.811,0.81c-0.448,0-0.812-0.36-0.812-0.81v-2.094h-0.676v2.094c0,0.448-0.363,0.81-0.81,0.81
		c-0.448,0-0.812-0.36-0.812-0.81v-2.094h-0.675v2.094c0,0.448-0.363,0.81-0.812,0.81c-0.447,0-0.811-0.36-0.811-0.81v-2.177
		c-1.992-0.341-3.56-1.908-3.902-3.902H8.69c-0.446,0-0.81-0.363-0.81-0.811c0-0.448,0.363-0.811,0.81-0.811h2.095v-0.675H8.69
		c-0.446,0-0.81-0.362-0.81-0.812c0-0.446,0.363-0.811,0.81-0.811h2.095v-0.677H8.69c-0.446,0-0.81-0.362-0.81-0.812
		c0-0.445,0.363-0.81,0.81-0.81h2.095V23.16H8.69c-0.446,0-0.81-0.363-0.81-0.812s0.363-0.81,0.81-0.81h2.095v-0.674H8.69
		c-0.446,0-0.81-0.363-0.81-0.811s0.363-0.81,0.81-0.81h2.095v-0.679H8.69c-0.446,0-0.81-0.361-0.81-0.81s0.363-0.81,0.81-0.81
		h2.095V16.27H8.69c-0.446,0-0.81-0.361-0.81-0.81c0-0.447,0.363-0.811,0.81-0.811h2.176c0.343-1.991,1.909-3.559,3.9-3.9V8.575
		c0-0.447,0.363-0.811,0.811-0.811s0.811,0.362,0.811,0.811v2.094h0.676V8.575c0-0.447,0.363-0.811,0.812-0.811
		c0.447,0,0.81,0.362,0.81,0.811v2.094h0.677V8.575c0-0.447,0.363-0.811,0.812-0.811s0.811,0.362,0.811,0.811v2.094h0.676V8.575
		c0-0.447,0.362-0.811,0.811-0.811s0.81,0.362,0.81,0.811v2.094h0.674V8.575c0-0.447,0.362-0.811,0.811-0.811
		s0.812,0.362,0.812,0.811v2.094h0.679V8.575c0-0.447,0.362-0.811,0.81-0.811c0.448,0,0.812,0.362,0.812,0.811v2.094h0.676V8.575
		c0-0.447,0.363-0.811,0.811-0.811c0.448,0,0.812,0.362,0.812,0.811v2.176c1.99,0.343,3.559,1.91,3.899,3.9h2.177
		c0.446,0,0.811,0.362,0.811,0.811s-0.363,0.81-0.811,0.81h-2.095v0.678h2.095c0.446,0,0.811,0.362,0.811,0.81
		s-0.363,0.81-0.811,0.81h-2.095v0.679L36.242,19.246L36.242,19.246z"/>
	<path d="M28.436,13.802H16.496c-1.423,0-2.581,1.157-2.581,2.58v11.938c0,1.423,1.158,2.581,2.581,2.581h11.939
		c1.422,0,2.58-1.158,2.58-2.581V16.382C31.016,14.96,29.858,13.802,28.436,13.802z M23.876,28.741c-0.837,0-1.558-0.298-2.16-0.889
		c-0.604-0.592-0.904-1.389-0.904-2.393v-4.64H19.61v-1.61h1.202v-2.993h2.006v2.993h2.509v1.612h-2.509v4.693
		c0,0.453,0.119,0.814,0.358,1.083c0.238,0.27,0.557,0.404,0.949,0.404c0.469,0,0.896-0.209,1.291-0.628l0.822,1.416
		C25.535,28.425,24.748,28.741,23.876,28.741z"/>
</g>
</svg>
