<?xml version="1.0" encoding="utf-8"?>
<!-- Generator: Adobe Illustrator 15.1.0, SVG Export Plug-In . SVG Version: 6.00 Build 0)  -->
<!DOCTYPE svg PUBLIC "-//W3C//DTD SVG 1.1//EN" "http://www.w3.org/Graphics/SVG/1.1/DTD/svg11.dtd">
<svg version="1.1"
	 id="Layer_1" sodipodi:docname="ecobee.svg" inkscape:version="0.48.2 r9819" xmlns:rdf="http://www.w3.org/1999/02/22-rdf-syntax-ns#" xmlns:sodipodi="http://sodipodi.sourceforge.net/DTD/sodipodi-0.dtd" xmlns:inkscape="http://www.inkscape.org/namespaces/inkscape" xmlns:dc="http://purl.org/dc/elements/1.1/" xmlns:cc="http://creativecommons.org/ns#" xmlns:svg="http://www.w3.org/2000/svg"
	 xmlns="http://www.w3.org/2000/svg" xmlns:xlink="http://www.w3.org/1999/xlink" x="0px" y="0px" width="44.637px"
	 height="44.637px" viewBox="0 0 44.637 44.637" enable-background="new 0 0 44.637 44.637" xml:space="preserve">
<path fill="#FFFFFF" d="M22.32,43.139C10.821,43.139,1.5,33.817,1.5,22.321C1.5,10.823,10.821,1.5,22.32,1.5
	c11.496,0,20.816,9.323,20.817,20.818C43.137,33.817,33.817,43.139,22.32,43.139z"/>
<g>
	<path d="M22.464,3.176c-10.573,0-19.146,8.571-19.146,19.144c0,10.573,8.572,19.146,19.146,19.146
		c10.575,0,19.145-8.571,19.145-19.146C41.609,11.748,33.039,3.176,22.464,3.176z M12.885,17.193c0-2.812,2.017-2.479,3.536-7.024
		c0.296-0.895,3.509,4.771,3.433,7.024c0,1.928-1.561,3.486-3.482,3.486C14.447,20.679,12.885,19.118,12.885,17.193z M25.603,35.637
		c-3.944,0-7.145-3.202-7.145-7.15c0-5.763,4.135-5.079,7.251-14.404c0.604-1.831,7.191,9.785,7.037,14.404
		C32.746,32.435,29.547,35.637,25.603,35.637z"/>
	<path d="M23.048,30.271c-1.089-1.297-1.089-3.088,0-4.385c0.205-0.238,0.252-0.576,0.117-0.859
		c-0.132-0.283-0.422-0.466-0.736-0.46c-0.235,0.004-0.457,0.111-0.604,0.293c-1.567,1.869-1.567,4.574,0,6.441
		c1.771,2.111,4.942,2.391,7.059,0.617c2.111-1.773,2.389-4.945,0.617-7.062c-0.181-0.233-0.476-0.354-0.769-0.309
		s-0.532,0.25-0.631,0.531c-0.096,0.276-0.026,0.588,0.172,0.805c1.22,1.449,1.027,3.59-0.422,4.805
		C26.404,31.908,24.263,31.72,23.048,30.271z"/>
	<path d="M25.249,29.901c0.25,0.146,0.559,0.146,0.807,0c0.25-0.146,0.4-0.414,0.396-0.7v-5.146c0.004-0.215-0.08-0.424-0.23-0.576
		c-0.152-0.149-0.359-0.235-0.576-0.233c-0.213,0.002-0.416,0.09-0.562,0.237c-0.15,0.154-0.232,0.359-0.229,0.572V29.2
		C24.849,29.487,24.999,29.755,25.249,29.901z"/>
</g>
</svg>
