<?xml version="1.0" encoding="utf-8"?>
<!-- Generator: Adobe Illustrator 15.1.0, SVG Export Plug-In . SVG Version: 6.00 Build 0)  -->
<!DOCTYPE svg PUBLIC "-//W3C//DTD SVG 1.1//EN" "http://www.w3.org/Graphics/SVG/1.1/DTD/svg11.dtd">
<svg version="1.1"
	 id="Layer_1" sodipodi:docname="insteon_LED.svg" inkscape:version="0.48.1 r9760" xmlns:rdf="http://www.w3.org/1999/02/22-rdf-syntax-ns#" xmlns:sodipodi="http://sodipodi.sourceforge.net/DTD/sodipodi-0.dtd" xmlns:inkscape="http://www.inkscape.org/namespaces/inkscape" xmlns:dc="http://purl.org/dc/elements/1.1/" xmlns:cc="http://creativecommons.org/ns#" xmlns:svg="http://www.w3.org/2000/svg"
	 xmlns="http://www.w3.org/2000/svg" xmlns:xlink="http://www.w3.org/1999/xlink" x="0px" y="0px" width="44.637px"
	 height="44.637px" viewBox="0 0 44.637 44.637" enable-background="new 0 0 44.637 44.637" xml:space="preserve">
<sodipodi:namedview  bordercolor="#666666" pagecolor="#ffffff" inkscape:window-maximized="0" inkscape:window-y="0" inkscape:window-x="0" inkscape:cx="22.318501" inkscape:window-height="1156" showgrid="false" inkscape:current-layer="Layer_1" inkscape:cy="22.318501" inkscape:pageshadow="2" id="namedview11726" inkscape:pageopacity="0" borderopacity="1" gridtolerance="10" inkscape:zoom="21.013957" inkscape:window-width="1910" guidetolerance="10" objecttolerance="10">
	</sodipodi:namedview>
<g id="g11706">
	<g id="g11708">
	</g>
	<g id="g11712">
	</g>
	<g id="g11716">
	</g>
	<g id="g11720">
	</g>
</g>
<path fill="#FFFFFF" d="M22.32,43.061c-11.498,0-20.813-9.315-20.813-20.812c0-11.5,9.315-20.821,20.813-20.821
	c11.496,0,20.816,9.321,20.816,20.821C43.136,33.743,33.816,43.064,22.32,43.061z"/>
<path d="M22.465,3.102c-10.573,0-19.146,8.572-19.146,19.146c0,10.569,8.573,19.143,19.146,19.143
	c10.577,0,19.144-8.574,19.145-19.143C41.61,11.673,33.039,3.102,22.465,3.102z"/>
<path fill="#FFFFFF" d="M33.174,32.861h-21.71c-1.734,0-3.146-1.41-3.146-3.146V14.94c0-1.402,1.278-3.359,3.36-3.359h21.28
	c1.759,0,3.359,1.56,3.359,3.272v14.861C36.32,31.449,34.908,32.861,33.174,32.861z M11.679,12.7c-1.449,0-2.24,1.479-2.24,2.239
	v14.775c0,1.117,0.908,2.026,2.025,2.026h21.71c1.117,0,2.026-0.909,2.026-2.026V14.854c0-1.087-1.11-2.152-2.241-2.152L11.679,12.7
	L11.679,12.7z M32.959,30.62H12.239c-0.309,0-0.56-0.25-0.56-0.561V14.38c0-0.31,0.251-0.561,0.56-0.561h20.721
	c0.31,0,0.56,0.251,0.56,0.561v15.681C33.519,30.37,33.269,30.62,32.959,30.62z M12.799,29.501H32.4V14.94H12.799V29.501z
	 M10.559,21.381c0.464,0,0.84,0.376,0.84,0.84c0,0.463-0.376,0.84-0.84,0.84s-0.84-0.377-0.84-0.84
	C9.719,21.757,10.095,21.381,10.559,21.381z"/>
</svg>
