<?xml version="1.0" encoding="utf-8"?>
<!-- Generator: Adobe Illustrator 15.1.0, SVG Export Plug-In . SVG Version: 6.00 Build 0)  -->
<!DOCTYPE svg PUBLIC "-//W3C//DTD SVG 1.1//EN" "http://www.w3.org/Graphics/SVG/1.1/DTD/svg11.dtd">
<svg version="1.1"
	 id="Layer_1" sodipodi:docname="insteon_LED.svg" inkscape:version="0.48.1 r9760" xmlns:rdf="http://www.w3.org/1999/02/22-rdf-syntax-ns#" xmlns:sodipodi="http://sodipodi.sourceforge.net/DTD/sodipodi-0.dtd" xmlns:inkscape="http://www.inkscape.org/namespaces/inkscape" xmlns:dc="http://purl.org/dc/elements/1.1/" xmlns:cc="http://creativecommons.org/ns#" xmlns:svg="http://www.w3.org/2000/svg"
	 xmlns="http://www.w3.org/2000/svg" xmlns:xlink="http://www.w3.org/1999/xlink" x="0px" y="0px" width="44.637px"
	 height="44.637px" viewBox="0 0 44.637 44.637" enable-background="new 0 0 44.637 44.637" xml:space="preserve">
<sodipodi:namedview  bordercolor="#666666" pagecolor="#ffffff" inkscape:window-maximized="0" inkscape:window-y="0" inkscape:window-x="0" inkscape:cx="22.318501" inkscape:window-height="1156" showgrid="false" inkscape:current-layer="Layer_1" inkscape:cy="22.318501" inkscape:pageshadow="2" id="namedview11726" inkscape:pageopacity="0" borderopacity="1" gridtolerance="10" inkscape:zoom="21.013957" inkscape:window-width="1910" guidetolerance="10" objecttolerance="10">
	</sodipodi:namedview>
<g id="g11706">
	<g id="g11708">
	</g>
	<g id="g11712">
	</g>
	<g id="g11716">
	</g>
	<g id="g11720">
	</g>
</g>
<path fill="#FFFFFF" d="M22.32,43.061c-11.498,0-20.812-9.314-20.812-20.812c0-11.5,9.314-20.821,20.812-20.821
	c11.496,0,20.816,9.321,20.816,20.821C43.136,33.743,33.816,43.064,22.32,43.061z"/>
<g>
	<path d="M22.664,24.492c-1.502,0-2.722,1.219-2.722,2.721c0,1.503,1.22,2.721,2.722,2.721c1.501,0,2.72-1.218,2.72-2.721
		C25.384,25.711,24.165,24.492,22.664,24.492z M22.664,28.26c-0.577,0-1.046-0.47-1.046-1.047c0-0.578,0.469-1.047,1.046-1.047
		c0.576,0,1.045,0.469,1.045,1.047C23.709,27.79,23.24,28.26,22.664,28.26z"/>
	<path d="M26.974,14.026h-8.622c-0.508,0-0.919,0.411-0.919,0.923v6.948c0,0.511,0.411,0.921,0.919,0.921h8.622
		c0.511,0,0.922-0.41,0.922-0.921v-6.948C27.896,14.437,27.485,14.026,26.974,14.026z"/>
	<path d="M22.465,3.102c-10.573,0-19.146,8.572-19.146,19.146c0,10.568,8.573,19.143,19.146,19.143
		c10.577,0,19.144-8.574,19.145-19.143C41.61,11.673,33.039,3.102,22.465,3.102z M29.989,30.353c0,0.925-0.747,1.676-1.674,1.676
		H17.013c-0.925,0-1.675-0.751-1.675-1.676V13.608c0-0.926,0.75-1.674,1.675-1.674h11.302c0.927,0,1.674,0.749,1.674,1.674V30.353z"
		/>
</g>
<g id="Livello_1_2_">
</g>
</svg>
