<?xml version="1.0" encoding="utf-8"?>
<!-- Generator: Adobe Illustrator 15.1.0, SVG Export Plug-In . SVG Version: 6.00 Build 0)  -->
<!DOCTYPE svg PUBLIC "-//W3C//DTD SVG 1.1//EN" "http://www.w3.org/Graphics/SVG/1.1/DTD/svg11.dtd">
<svg version="1.1"
	 id="Layer_1" xmlns:inkscape="http://www.inkscape.org/namespaces/inkscape" sodipodi:docname="insteon_LED.svg" xmlns:sodipodi="http://sodipodi.sourceforge.net/DTD/sodipodi-0.dtd" xmlns:svg="http://www.w3.org/2000/svg" xmlns:rdf="http://www.w3.org/1999/02/22-rdf-syntax-ns#" xmlns:cc="http://creativecommons.org/ns#" xmlns:dc="http://purl.org/dc/elements/1.1/" inkscape:version="0.48.1 r9760"
	 xmlns="http://www.w3.org/2000/svg" xmlns:xlink="http://www.w3.org/1999/xlink" x="0px" y="0px" width="44.637px"
	 height="44.637px" viewBox="0 0 44.637 44.637" enable-background="new 0 0 44.637 44.637" xml:space="preserve">
<sodipodi:namedview  id="namedview11726" inkscape:window-maximized="0" showgrid="false" pagecolor="#ffffff" borderopacity="1" inkscape:window-x="0" gridtolerance="10" guidetolerance="10" objecttolerance="10" inkscape:pageopacity="0" inkscape:pageshadow="2" inkscape:zoom="21.013957" inkscape:cx="22.318501" inkscape:cy="22.318501" inkscape:current-layer="Layer_1" inkscape:window-width="1910" inkscape:window-height="1156" inkscape:window-y="0" bordercolor="#666666">
	</sodipodi:namedview>
<g id="g11706">
	<g id="g11708">
	</g>
	<g id="g11712">
	</g>
	<g id="g11716">
	</g>
	<g id="g11720">
	</g>
</g>
<path fill="#FFFFFF" d="M22.32,43.061c-11.498,0-20.812-9.312-20.812-20.812S10.82,1.428,22.32,1.428
	c11.496,0,20.816,9.321,20.816,20.821C43.136,33.743,33.816,43.064,22.32,43.061z"/>
<g>
	<path d="M22.49,17.329c-5.243,0-9.511,4.265-9.511,9.507s4.268,9.508,9.511,9.508c5.24,0,9.507-4.266,9.507-9.508
		S27.733,17.329,22.49,17.329z M22.506,34.093c-3.016,0-5.47-2.454-5.47-5.471c0-3.019,2.454-5.472,5.47-5.472
		c3.017,0,5.47,2.453,5.47,5.472C27.976,31.639,25.523,34.093,22.506,34.093z"/>
	<path d="M28.697,17.161v-5.068c0-2.096-1.702-3.8-3.8-3.8h-5.013c-2.096,0-3.801,1.705-3.801,3.8v5.19
		c1.833-1.233,4.037-1.954,6.407-1.954C24.777,15.329,26.904,16.008,28.697,17.161z"/>
	<path d="M22.506,24.352c-2.354,0-4.271,1.916-4.271,4.271c0,2.354,1.916,4.271,4.271,4.271c2.354,0,4.271-1.916,4.271-4.271
		C26.777,26.268,24.861,24.352,22.506,24.352z M23.213,28.875l0.258,2.231h-1.768l0.266-2.153c-0.677-0.223-1.169-0.852-1.169-1.601
		c0-0.934,0.756-1.688,1.69-1.688c0.933,0,1.688,0.757,1.688,1.688C24.18,28.027,23.782,28.605,23.213,28.875z"/>
	<path d="M22.465,3.102c-10.573,0-19.146,8.572-19.146,19.146c0,10.565,8.573,19.143,19.146,19.143
		c10.577,0,19.144-8.574,19.145-19.143C41.61,11.673,33.039,3.102,22.465,3.102z M22.49,38.344c-6.348,0-11.511-5.162-11.511-11.508
		c0-3.026,1.186-5.776,3.104-7.833v-6.91c0-3.198,2.602-5.8,5.801-5.8h5.013c3.198,0,5.8,2.602,5.8,5.8v6.691
		c2.038,2.075,3.303,4.919,3.303,8.052C33.997,33.182,28.835,38.344,22.49,38.344z"/>
</g>
</svg>
