<?xml version="1.0" encoding="utf-8"?>
<!-- Generator: Adobe Illustrator 15.1.0, SVG Export Plug-In . SVG Version: 6.00 Build 0)  -->
<!DOCTYPE svg PUBLIC "-//W3C//DTD SVG 1.1//EN" "http://www.w3.org/Graphics/SVG/1.1/DTD/svg11.dtd">
<svg version="1.1"
	 id="Layer_1" sodipodi:docname="insteon_LED.svg" inkscape:version="0.48.1 r9760" xmlns:rdf="http://www.w3.org/1999/02/22-rdf-syntax-ns#" xmlns:sodipodi="http://sodipodi.sourceforge.net/DTD/sodipodi-0.dtd" xmlns:inkscape="http://www.inkscape.org/namespaces/inkscape" xmlns:dc="http://purl.org/dc/elements/1.1/" xmlns:cc="http://creativecommons.org/ns#" xmlns:svg="http://www.w3.org/2000/svg"
	 xmlns="http://www.w3.org/2000/svg" xmlns:xlink="http://www.w3.org/1999/xlink" x="0px" y="0px" width="44.637px"
	 height="44.637px" viewBox="0 0 44.637 44.637" enable-background="new 0 0 44.637 44.637" xml:space="preserve">
<sodipodi:namedview  bordercolor="#666666" pagecolor="#ffffff" inkscape:window-maximized="0" inkscape:window-y="0" inkscape:window-x="0" inkscape:cx="22.318501" inkscape:window-height="1156" showgrid="false" inkscape:current-layer="Layer_1" inkscape:cy="22.318501" inkscape:pageshadow="2" id="namedview11726" inkscape:pageopacity="0" borderopacity="1" gridtolerance="10" inkscape:zoom="21.013957" inkscape:window-width="1910" guidetolerance="10" objecttolerance="10">
	</sodipodi:namedview>
<g id="g11706">
	<g id="g11708">
	</g>
	<g id="g11712">
	</g>
	<g id="g11716">
	</g>
	<g id="g11720">
	</g>
</g>
<path fill="#FFFFFF" d="M22.32,42.961c-11.498,0-20.812-9.314-20.812-20.812c0-11.5,9.312-20.819,20.812-20.819
	c11.496,0,20.816,9.319,20.816,20.819C43.136,33.644,33.816,42.964,22.32,42.961z"/>
<g>
	<path d="M18.83,14.304c-0.17,0.015-0.379,0.073-0.521,0.146c0.355,0.237,0.805,0.44,1.341,0.605l0.171,0.053
		c1.257,0.353,3.104,0.57,5.818,0.57c3.247,0,5.706-0.496,7.066-1.361c-0.603,0.002-1.479,0.005-2.772,0.005
		C25.441,14.323,18.83,14.304,18.83,14.304z"/>
	<path d="M33.411,11.913c-0.136,0.197-0.368,0.308-0.659,0.308c-0.348,0-0.771-0.152-1.163-0.418
		c-0.755-0.508-1.085-1.201-0.786-1.646c0.063-0.095,0.206-0.232,0.465-0.283c-1.446-0.784-3.394-1.408-5.63-1.408
		c-4.545,0-8.386,1.848-8.386,4.036c0,0.037,0.004,0.074,0.005,0.11l16.564,0.38c0.048-0.158,0.079-0.321,0.079-0.491
		c0-0.237-0.14-0.538-0.394-0.867C33.495,11.734,33.468,11.829,33.411,11.913z"/>
	<path d="M22.465,3.002c-10.573,0-19.146,8.572-19.146,19.146c0,10.569,8.573,19.145,19.146,19.145
		c10.577,0,19.144-8.574,19.145-19.145C41.61,11.573,33.039,3.002,22.465,3.002z M23.998,33.453c0,0-2.445,0.544-3.721-0.331
		c0,0-1.273,2.605-1.103,3.86l-1.179,0.059c0,0,1.978-5.193,2.891-5.802l-1.081,0.923c0,0-2.252-5.211,6.988-8.608
		c5.271-1.933,5.165-4.945,5.165-4.945S33.036,32.162,23.998,33.453z M34.775,13.483c-0.034,0.124-0.233,0.744-0.733,0.817
		c-0.017,0.002-0.039,0.005-0.153,0.008c-1.291,1.353-4.172,2.122-8.249,2.122c-2.57,0-4.54-0.193-5.988-0.598
		c-0.197,0.206-0.398,0.479-0.432,0.685l-0.014,0.074l-0.014,0.33h-0.05c-0.477,2.516-2.833,14.898-3.176,15.955
		c-0.025,0.128-0.313,1.548-0.66,2.759c-0.426,1.49-1.229,1.651-1.554,1.651c-0.31,0-0.598-0.135-0.75-0.35
		c-0.085-0.119-0.281-0.403,0.252-3.579l-0.007-0.003l0.061-0.313l0.074-0.426l0.008,0.003l3.113-16.109v-4.008
		c0-2.64,4.098-4.786,9.136-4.786c4.889,0,9.014,2.94,9.014,4.786c0,0.175-0.021,0.344-0.056,0.508l0.311,0.007L34.775,13.483z"/>
	<path d="M14.254,32.755c0.129,0.025,0.274,0.045,0.418,0.045c0.389,0,0.44-0.139,0.461-0.19c0.215-0.588,1.926-9.409,3.094-15.562
		H17.29L14.254,32.755z"/>
</g>
</svg>
