<?xml version="1.0" encoding="utf-8"?>
<!-- Generator: Adobe Illustrator 15.1.0, SVG Export Plug-In . SVG Version: 6.00 Build 0)  -->
<!DOCTYPE svg PUBLIC "-//W3C//DTD SVG 1.1//EN" "http://www.w3.org/Graphics/SVG/1.1/DTD/svg11.dtd">
<svg version="1.1"
	 id="Layer_1" inkscape:version="0.48.2 r9819" sodipodi:docname="ecobee.svg" xmlns:svg="http://www.w3.org/2000/svg" xmlns:sodipodi="http://sodipodi.sourceforge.net/DTD/sodipodi-0.dtd" xmlns:rdf="http://www.w3.org/1999/02/22-rdf-syntax-ns#" xmlns:inkscape="http://www.inkscape.org/namespaces/inkscape" xmlns:dc="http://purl.org/dc/elements/1.1/" xmlns:cc="http://creativecommons.org/ns#"
	 xmlns="http://www.w3.org/2000/svg" xmlns:xlink="http://www.w3.org/1999/xlink" x="0px" y="0px" width="44.637px"
	 height="44.637px" viewBox="0 0 44.637 44.637" enable-background="new 0 0 44.637 44.637" xml:space="preserve">
<title>Layer 1</title>
<path fill="#FFFFFF" d="M22.32,43.138c-11.498,0-20.812-9.322-20.812-20.818C1.501,10.823,10.821,1.5,22.32,1.5
	c11.496,0,20.816,9.323,20.816,20.812C43.136,33.815,33.816,43.138,22.32,43.138z"/>
<path fill="none" d="M22.32,1.5C10.821,1.5,1.501,10.823,1.508,22.32c0,11.496,9.312,20.818,20.812,20.818
	c11.496,0,20.816-9.323,20.816-20.826C43.136,10.823,33.816,1.5,22.32,1.5z M22.466,41.466c-10.575,0-19.146-8.573-19.146-19.146
	c0-10.569,8.572-19.144,19.146-19.144s19.145,8.572,19.145,19.145C41.61,32.895,33.041,41.466,22.466,41.466z"/>
<g>
	<polygon fill="none" points="34.696,16.011 10.14,16.011 8.548,17.412 36.541,17.412 	"/>
	<path fill="#FFFFFF" d="M37.594,17.491c0.014,0.012,0.02,0.027,0.029,0.042C37.613,17.518,37.608,17.503,37.594,17.491z"/>
	<path fill="#FFFFFF" d="M7.561,17.526c0.008-0.01,0.01-0.021,0.021-0.031C7.571,17.503,7.57,17.516,7.561,17.526z"/>
</g>
<g>
	<path d="M22.465,3.176C11.892,3.176,3.32,11.747,3.32,22.32c0,10.573,8.571,19.146,19.146,19.146S41.61,32.895,41.61,22.321
		C41.61,11.748,33.039,3.176,22.465,3.176z M37.594,17.491c0.014,0.012,0.02,0.027,0.029,0.042c0.032,0.042,0.053,0.087,0.059,0.14
		c0.001,0.011,0.012,0.018,0.012,0.029v9.816c0,0.16-0.13,0.29-0.29,0.29h-0.787v0.497c0,0.107-0.061,0.206-0.154,0.257
		c-0.025,0.014-0.626,0.323-1.886,0.323c-0.557,0-1.162-0.06-1.803-0.179c-0.126-0.022-0.222-0.125-0.234-0.252l-0.074-0.646H12.844
		v0.497c0,0.107-0.06,0.206-0.155,0.257c-0.024,0.014-0.625,0.323-1.885,0.323c-0.556,0-1.162-0.06-1.802-0.179
		c-0.125-0.022-0.222-0.125-0.236-0.252L8.691,27.81H7.779c-0.159,0-0.291-0.13-0.291-0.29v-9.816c0-0.012,0.011-0.018,0.012-0.027
		c0.005-0.056,0.025-0.104,0.062-0.149c0.008-0.01,0.01-0.021,0.021-0.031c0.003-0.002,0.003-0.008,0.006-0.011l2.252-1.98
		c0.053-0.047,0.121-0.073,0.191-0.073h24.764c0.062,0,0.125,0.021,0.176,0.06l2.611,1.98
		C37.587,17.476,37.588,17.486,37.594,17.491z"/>
	<polygon points="10.14,16.011 8.548,17.412 36.541,17.412 34.696,16.011 	"/>
	<path d="M30.742,18.421H14.624c-0.201,0-0.363,0.162-0.363,0.363v3.782c0,0.201,0.162,0.363,0.363,0.363h16.118
		c0.199,0,0.362-0.163,0.362-0.363v-3.782C31.106,18.583,30.943,18.421,30.742,18.421z M30.379,22.204H14.987v-3.059h15.393V22.204z
		"/>
	<path d="M11.074,19.503c-1.343,0-2.435,1.091-2.435,2.433s1.092,2.436,2.435,2.436c1.342,0,2.433-1.094,2.433-2.436
		S12.416,19.503,11.074,19.503z M11.074,23.644c-0.942,0-1.708-0.766-1.708-1.708c0-0.94,0.767-1.708,1.708-1.708
		c0.94,0,1.708,0.767,1.708,1.708C12.782,22.878,12.016,23.644,11.074,23.644z"/>
	<path d="M34.241,19.502c-1.344,0-2.437,1.092-2.437,2.434c0,1.343,1.093,2.437,2.437,2.437c1.342,0,2.435-1.094,2.435-2.437
		C36.676,20.594,35.583,19.502,34.241,19.502z M34.241,23.645c-0.942,0-1.709-0.767-1.709-1.709c0-0.941,0.767-1.708,1.709-1.708
		c0.941,0,1.708,0.768,1.708,1.708C35.949,22.878,35.184,23.645,34.241,23.645z"/>
</g>
</svg>
