<?xml version="1.0" encoding="utf-8"?>
<!-- Generator: Adobe Illustrator 15.1.0, SVG Export Plug-In . SVG Version: 6.00 Build 0)  -->
<!DOCTYPE svg PUBLIC "-//W3C//DTD SVG 1.1//EN" "http://www.w3.org/Graphics/SVG/1.1/DTD/svg11.dtd">
<svg version="1.1"
	 id="Layer_1" sodipodi:docname="ecobee.svg" inkscape:version="0.48.2 r9819" xmlns:rdf="http://www.w3.org/1999/02/22-rdf-syntax-ns#" xmlns:sodipodi="http://sodipodi.sourceforge.net/DTD/sodipodi-0.dtd" xmlns:inkscape="http://www.inkscape.org/namespaces/inkscape" xmlns:dc="http://purl.org/dc/elements/1.1/" xmlns:cc="http://creativecommons.org/ns#" xmlns:svg="http://www.w3.org/2000/svg"
	 xmlns="http://www.w3.org/2000/svg" xmlns:xlink="http://www.w3.org/1999/xlink" x="0px" y="0px" width="44.637px"
	 height="44.637px" viewBox="0 0 44.637 44.637" enable-background="new 0 0 44.637 44.637" xml:space="preserve">
<g>
	<path fill="#FFFFFF" d="M22.319,43.139C10.821,43.139,1.5,33.817,1.5,22.321S10.82,1.501,22.318,1.501
		c11.497,0,20.817,9.323,20.817,20.819C43.136,33.817,33.816,43.139,22.319,43.139z"/>
	<path d="M22.464,3.175c-10.573,0-19.146,8.572-19.146,19.145c0,10.573,8.572,19.146,19.146,19.146
		c10.575,0,19.145-8.571,19.145-19.146C41.609,11.746,33.039,3.175,22.464,3.175z M21.574,22.4l-0.923-2.23l-2.986,7.576h-0.573
		l-2.777-7.23l-1.298,4.518v0.084H8.358c-0.238,0.412-0.683,0.693-1.195,0.693c-0.768,0-1.389-0.623-1.389-1.389
		c0-0.769,0.621-1.388,1.389-1.388c0.502,0,0.938,0.269,1.182,0.667h3.551l1.938-6.793h0.513l3.021,7.306l2.865-7.306h0.637
		l1.417,3.41L21.574,22.4z M37.41,18.841c0.766,0,1.389,0.623,1.389,1.389c0,0.769-0.623,1.39-1.389,1.39
		c-0.5,0-0.938-0.271-1.182-0.667h-3.555l-1.938,6.793h-0.512l-3.02-7.308l-2.867,7.308h-0.633l-1.418-3.412l0.71-2.082l0.922,2.23
		l2.987-7.574h0.573l2.775,7.229l1.299-4.516v-0.084h4.66C36.455,19.122,36.896,18.841,37.41,18.841z"/>
</g>
</svg>
