<?xml version="1.0" encoding="utf-8"?>
<!-- Generator: Adobe Illustrator 15.1.0, SVG Export Plug-In . SVG Version: 6.00 Build 0)  -->
<!DOCTYPE svg PUBLIC "-//W3C//DTD SVG 1.1//EN" "http://www.w3.org/Graphics/SVG/1.1/DTD/svg11.dtd">
<svg version="1.1"
	 id="Layer_1" inkscape:version="0.48.2 r9819" sodipodi:docname="ecobee.svg" xmlns:inkscape="http://www.inkscape.org/namespaces/inkscape" xmlns:sodipodi="http://sodipodi.sourceforge.net/DTD/sodipodi-0.dtd" xmlns:rdf="http://www.w3.org/1999/02/22-rdf-syntax-ns#" xmlns:svg="http://www.w3.org/2000/svg" xmlns:cc="http://creativecommons.org/ns#" xmlns:dc="http://purl.org/dc/elements/1.1/"
	 xmlns="http://www.w3.org/2000/svg" xmlns:xlink="http://www.w3.org/1999/xlink" x="0px" y="0px" width="44.637px"
	 height="44.637px" viewBox="0 0 44.637 44.637" enable-background="new 0 0 44.637 44.637" xml:space="preserve">
<path fill="#FFFFFF" d="M21.815,43.138C10.318,43.138,1,33.816,1,22.32C0.996,10.823,10.316,1.5,21.815,1.5
	c11.496,0,20.816,9.323,20.816,20.815C42.631,33.815,33.311,43.138,21.815,43.138z"/>
<g>
	<path d="M31.472,20.978c-2.426-0.788-4.72-1.187-6.825-1.187c-4.604,0-7.151,1.908-8.047,2.742c0.206,0.004,0.43,0.007,0.667,0.007
		c4.145,0,12.41-0.669,13.18-0.996C30.886,21.357,31.237,21.143,31.472,20.978z"/>
	<ellipse cx="31.513" cy="26.591" rx="1.767" ry="1.642"/>
	<ellipse cx="11.286" cy="26.591" rx="1.764" ry="1.642"/>
	<path d="M21.96,3.176c-10.573,0-19.146,8.571-19.146,19.144c0,10.573,8.571,19.146,19.146,19.146s19.144-8.571,19.144-19.146
		C41.105,11.748,32.534,3.176,21.96,3.176z M37.138,19.338c0.317,0.918,0.564,2.418,0,2.922c0,0,0.744,0.607,0.336,2.298
		c-0.404,1.696-0.898,1.907-0.898,1.907s-0.646,0.609-2.537,0.901c-0.374,0.925-1.388,1.586-2.578,1.586
		c-0.998,0-1.842-0.428-2.32-1.118c-0.02-0.046-0.391-0.559-4.136-0.487c-3.881,0.071-8.966,0.106-8.966,0.106
		s-1.75,0.352-2.216,0.352c-0.442,0.797-1.356,1.147-2.441,1.147c-1.069,0-1.994-0.534-2.444-1.312
		c-0.401-0.065-1.473-0.287-1.473-0.717c0-0.479-1.699-2.022-1.325-3.854c0.041-0.193,0.104-0.393,0.196-0.594
		c0.926-2.021,4.092-4.241,9.259-4.265c2.979-1.655,6.187-2.495,9.547-2.495c5.447,0,9.438,2.254,9.477,2.276
		c0.127,0.095,0.246,0.188,0.354,0.278C35.669,18.39,36.912,18.684,37.138,19.338z"/>
	<path d="M34.345,18.406C34.33,18.4,30.449,16.21,25.14,16.21c-3.803,0-7.401,1.1-10.688,3.27c-0.111,0.179-0.573,0.994-0.295,1.94
		c0.21,0.482,0.665,0.591,1.008,0.591c0.076,0,0.14-0.004,0.186-0.011c0.472-0.491,3.462-3.38,8.979-3.476
		c5.629-0.1,10.104,1.788,10.917,2.151c0.122-0.096,0.319-0.296,0.341-0.59C35.616,19.615,35.187,19.032,34.345,18.406z"/>
</g>
</svg>
