<?xml version="1.0" encoding="utf-8"?>
<!-- Generator: Adobe Illustrator 15.1.0, SVG Export Plug-In . SVG Version: 6.00 Build 0)  -->
<!DOCTYPE svg PUBLIC "-//W3C//DTD SVG 1.1//EN" "http://www.w3.org/Graphics/SVG/1.1/DTD/svg11.dtd">
<svg version="1.1"
	 id="Layer_1" xmlns:inkscape="http://www.inkscape.org/namespaces/inkscape" inkscape:version="0.48.2 r9819" xmlns:cc="http://creativecommons.org/ns#" xmlns:rdf="http://www.w3.org/1999/02/22-rdf-syntax-ns#" sodipodi:docname="ecobee.svg" xmlns:dc="http://purl.org/dc/elements/1.1/" xmlns:sodipodi="http://sodipodi.sourceforge.net/DTD/sodipodi-0.dtd" xmlns:svg="http://www.w3.org/2000/svg"
	 xmlns="http://www.w3.org/2000/svg" xmlns:xlink="http://www.w3.org/1999/xlink" x="0px" y="0px" width="44.637px"
	 height="44.637px" viewBox="0 0 44.637 44.637" enable-background="new 0 0 44.637 44.637" xml:space="preserve">
<title>Layer 1</title>
<path fill="#FFFFFF" d="M22.32,43.045c-11.499,0-20.812-9.322-20.812-20.818C1.501,10.731,10.821,1.408,22.32,1.408
	c11.496,0,20.816,9.322,20.816,20.812C43.136,33.722,33.816,43.045,22.32,43.045z"/>
<g>
	<path d="M28.049,21.68H17.344c-0.299,0-0.534,0.244-0.534,0.543v10.066h11.78V22.223C28.59,21.924,28.351,21.68,28.049,21.68z
		 M20.096,26.407h-2.01v-1.359h2.01V26.407z M23.741,26.407h-2.006v-1.359h2.006V26.407z M27.487,26.407h-2.01v-1.359h2.01V26.407z"
		/>
	<path d="M22.466,3.084c-10.574,0-19.146,8.572-19.146,19.144c0,10.573,8.571,19.146,19.146,19.146s19.144-8.571,19.145-19.146
		C41.611,11.656,33.04,3.084,22.466,3.084z M13.728,10.611h3.3L17,12.565l-3.271,2.955L13.728,10.611L13.728,10.611z M32.081,33.14
		L32.081,33.14c-0.001,0.302-0.241,0.53-0.541,0.53h-2.95H16.81h-2.54c-0.3,0-0.542-0.229-0.542-0.53V21.526l9.181-8.129
		l9.174,8.126L32.081,33.14L32.081,33.14z M34.606,22.027l-11.7-10.361L11.206,22.027l-1.372-1.549L22.853,8.951l0.056,0.059
		l0.051-0.059l13.017,11.526L34.606,22.027z"/>
</g>
</svg>
