<?xml version="1.0" encoding="utf-8"?>
<!-- Generator: Adobe Illustrator 15.1.0, SVG Export Plug-In . SVG Version: 6.00 Build 0)  -->
<!DOCTYPE svg PUBLIC "-//W3C//DTD SVG 1.1//EN" "http://www.w3.org/Graphics/SVG/1.1/DTD/svg11.dtd">
<svg version="1.1"
	 id="Layer_1" xmlns:dc="http://purl.org/dc/elements/1.1/" xmlns:cc="http://creativecommons.org/ns#" xmlns:svg="http://www.w3.org/2000/svg" xmlns:rdf="http://www.w3.org/1999/02/22-rdf-syntax-ns#" xmlns:sodipodi="http://sodipodi.sourceforge.net/DTD/sodipodi-0.dtd" xmlns:inkscape="http://www.inkscape.org/namespaces/inkscape" inkscape:version="0.48.1 r9760" sodipodi:docname="insteon_LED.svg"
	 xmlns="http://www.w3.org/2000/svg" xmlns:xlink="http://www.w3.org/1999/xlink" x="0px" y="0px" width="44.637px"
	 height="44.637px" viewBox="0 0 44.637 44.637" enable-background="new 0 0 44.637 44.637" xml:space="preserve">
<sodipodi:namedview  id="namedview11726" bordercolor="#666666" borderopacity="1" inkscape:window-width="1910" inkscape:zoom="21.013957" objecttolerance="10" pagecolor="#ffffff" gridtolerance="10" guidetolerance="10" inkscape:pageopacity="0" inkscape:pageshadow="2" inkscape:window-height="1156" inkscape:cy="22.318501" showgrid="false" inkscape:cx="22.318501" inkscape:window-x="0" inkscape:window-y="0" inkscape:window-maximized="0" inkscape:current-layer="Layer_1">
	</sodipodi:namedview>
<g id="g11706">
	<g id="g11708">
	</g>
	<g id="g11712">
	</g>
	<g id="g11716">
	</g>
	<g id="g11720">
	</g>
</g>
<g id="Livello_1_2_">
</g>
<path fill="#FFFFFF" d="M22.32,43.061c-11.498,0-20.812-9.312-20.812-20.812S10.82,1.428,22.32,1.428
	c11.496,0,20.816,9.321,20.816,20.821C43.136,33.743,33.816,43.064,22.32,43.061z"/>
<g>
	<path d="M16.372,15.422c0.051,0.033,0.101,0.063,0.148,0.091c0.004-0.031,0.012-0.062,0.012-0.093c0-0.261-0.138-0.482-0.332-0.626
		l0.149,0.43L16.372,15.422z"/>
	<path d="M17.094,9.246c-0.935-0.104-1.579-0.2-1.798-0.234c-3.505,0.047-6.343,2.909-6.343,6.425c0,0.003,0.001,0.007,0.001,0.013
		c0.14,0.657,0.249,1.337,0.334,2.021c0.83,2.48,3.131,4.286,5.86,4.383c0.078-0.002,0.153-0.012,0.231-0.012
		s0.153,0.01,0.229,0.012c1.688-0.061,3.215-0.768,4.327-1.89l-2.592-2.475l-0.814-0.527l0.354,3.397
		c0.009,0.083-0.047,0.158-0.128,0.176c-0.011,0.002-0.021,0.003-0.031,0.003c-0.068,0-0.133-0.046-0.151-0.115l-1.109-3.788
		c-0.565-0.129-0.997-0.612-0.997-1.215c0-0.42,0.219-0.776,0.534-1.007l-0.526-3.549c-0.012-0.082,0.04-0.159,0.12-0.181
		c0.079-0.021,0.162,0.024,0.189,0.104l1.201,3.412c0.577,0.118,1.021,0.606,1.021,1.221c0,0.156-0.029,0.305-0.081,0.441
		l0.929,1.26l-0.013,0.011l2.422,2.473c0.341-0.397,0.631-0.842,0.867-1.314c0.097-0.234,0.188-0.442,0.266-0.616
		c0.262-0.697,0.409-1.448,0.409-2.235C21.811,12.486,19.81,9.999,17.094,9.246z"/>
	<path d="M15.621,28.266c-0.165,0.025-0.31,0.108-0.423,0.219l0.246,0.259C15.482,28.61,15.532,28.459,15.621,28.266z"/>
	<path d="M14.95,15.42c0,0.27,0.142,0.499,0.349,0.641l-0.104-0.346l-0.104-0.718C15.01,15.12,14.95,15.26,14.95,15.42z"/>
	<path d="M16.011,29.324l0.2,0.338c0.188-0.146,0.321-0.361,0.321-0.619c0-0.031-0.008-0.062-0.012-0.092
		c-0.187,0.097-0.387,0.261-0.539,0.346L16.011,29.324z"/>
	<path d="M12.509,22.414c-1.181-0.488-2.21-1.269-3-2.247c0.066,1.606,0.031,3.174-0.047,4.556
		C10.259,23.714,11.305,22.912,12.509,22.414z"/>
	<path d="M17.847,27.332l0.013,0.012l-0.929,1.258c0.052,0.139,0.081,0.287,0.081,0.441c0,0.432-0.229,0.796-0.561,1.023
		l1.952,3.302c0.032,0.027,0.054,0.069,0.054,0.116c0,0.09-0.071,0.16-0.16,0.16c-0.002,0-0.005,0-0.008,0
		c-0.044,0-0.088-0.019-0.12-0.054l-3.106-3.503c-0.266-0.173-0.454-0.433-0.532-0.749l-2.335-3.502
		c-0.046-0.069-0.03-0.161,0.032-0.214c0.064-0.051,0.159-0.045,0.216,0.014l2.416,2.496c0.229-0.222,0.538-0.361,0.884-0.361
		c0.104,0,0.21,0.016,0.31,0.039l1.298-0.838l2.398-2.29c-1.097-1.016-2.54-1.651-4.136-1.711c-0.076,0.002-0.151,0.012-0.229,0.012
		s-0.153-0.01-0.231-0.012c-2.791,0.102-5.135,1.98-5.917,4.543c-0.128,1.191-0.251,1.969-0.267,2.067l-0.004-0.001
		c0.104,3.456,2.938,6.234,6.419,6.234c3.545,0,6.429-2.884,6.429-6.429c0-1.681-0.651-3.209-1.714-4.354L17.847,27.332z"/>
	<path d="M24.66,9.54c-0.597,0.023-1.188,0.039-1.763,0.039c-1.014,0-1.984-0.034-2.881-0.085c1.033,0.807,1.853,1.874,2.354,3.104
		C22.864,11.391,23.656,10.341,24.66,9.54z"/>
	<path d="M20.115,22.273c0-0.332,0.042-0.688,0.104-1.052c-0.587,0.492-1.249,0.896-1.967,1.192c0.675,0.277,1.3,0.652,1.858,1.104
		C20.115,23.339,20.115,22.983,20.115,22.273z"/>
	<path d="M29.361,9.008c-0.058,0-0.11,0.007-0.17,0.009c-0.573,0.117-1.162,0.211-1.758,0.288c-2.604,0.821-4.502,3.259-4.502,6.133
		c0,1.642,0.623,3.136,1.638,4.271l2.524-2.577l-0.014-0.011l0.93-1.26c-0.052-0.138-0.081-0.285-0.081-0.441
		c0-0.093,0.034-0.174,0.053-0.262l-2.639-2.581c-0.059-0.06-0.063-0.151-0.012-0.217c0.051-0.062,0.144-0.077,0.212-0.031
		l3.036,2.004c0.187-0.107,0.391-0.187,0.62-0.187c0.698,0,1.271,0.57,1.271,1.271c0,0.104-0.036,0.198-0.06,0.295l2.884,2.534
		c0.053,0.024,0.089,0.081,0.089,0.143c0,0.088-0.071,0.16-0.16,0.16c-0.002,0-0.006-0.001-0.008,0
		c-0.028,0-0.057-0.007-0.082-0.023l-3.344-2.003c-0.181,0.098-0.373,0.165-0.59,0.165c-0.107,0-0.213-0.015-0.312-0.04L27.59,17.49
		l-2.688,2.566c1.104,1.066,2.591,1.738,4.229,1.796c0.078-0.002,0.153-0.012,0.229-0.012c0.078,0,0.153,0.01,0.231,0.012
		c2.765-0.099,5.091-1.944,5.895-4.473c0.078-0.608,0.178-1.208,0.297-1.795c0.001-0.05,0.008-0.101,0.008-0.15
		C35.789,11.892,32.906,9.008,29.361,9.008z"/>
	<path d="M22.465,3.102c-10.573,0-19.146,8.572-19.146,19.146c0,10.565,8.573,19.143,19.146,19.143
		c10.577,0,19.144-8.574,19.145-19.143C41.61,11.673,33.039,3.102,22.465,3.102z M36.93,15.539
		c-0.014,0.062-0.021,0.129-0.036,0.191c-0.023,0.646-0.127,1.272-0.305,1.867c-0.453,3.69-0.168,7.668,0.078,9.934
		c0.149,0.597,0.241,1.217,0.241,1.857c0,4.162-3.388,7.548-7.55,7.548c-3.156,0-5.864-1.951-6.987-4.709
		c-1.124,2.758-3.831,4.709-6.989,4.709c-4.162,0-7.548-3.386-7.548-7.548c0-0.703,0.104-1.381,0.284-2.027
		c0.236-2.27,0.492-6.085,0.07-9.638c-0.215-0.675-0.333-1.392-0.349-2.133c-0.003-0.012-0.004-0.025-0.007-0.037l0.005-0.001
		c-0.001-0.04-0.006-0.078-0.006-0.118c0-4.163,3.386-7.549,7.548-7.549c0.645,0,1.268,0.09,1.865,0.243
		c2.262,0.245,6.243,0.532,9.938,0.08c0.604-0.184,1.236-0.284,1.893-0.31c0.058-0.012,0.115-0.021,0.175-0.031l0.005,0.022
		c0.036,0,0.07-0.005,0.104-0.005c4.162,0,7.55,3.387,7.55,7.549c0,0.033-0.007,0.064-0.007,0.099L36.93,15.539z"/>
	<path d="M29.592,22.974c-0.078,0.002-0.153,0.012-0.231,0.012c-0.076,0-0.151-0.01-0.229-0.012
		c-1.545,0.058-2.951,0.656-4.033,1.619l2.494,2.382l1.299,0.838c0.1-0.023,0.202-0.039,0.312-0.039c0.379,0,0.709,0.177,0.94,0.438
		l2.921-2.119c0.067-0.049,0.159-0.039,0.214,0.024c0.057,0.062,0.055,0.154-0.005,0.216l-2.856,2.992
		c-0.118,0.501-0.519,0.874-1.031,0.95l-3.34,2.652c-0.029,0.023-0.064,0.035-0.102,0.035c-0.042,0-0.084-0.018-0.113-0.049
		c-0.06-0.062-0.062-0.152-0.007-0.216l2.429-2.836c-0.192-0.225-0.32-0.506-0.32-0.821c0-0.154,0.029-0.307,0.081-0.441
		l-0.93-1.258l0.014-0.012l-2.353-2.401c-1.118,1.157-1.812,2.729-1.812,4.46c0,3.545,2.885,6.429,6.43,6.429
		c3.518,0,6.378-2.837,6.427-6.342c-0.034-0.217-0.129-0.854-0.232-1.79C34.823,25.039,32.444,23.076,29.592,22.974z"/>
	<path d="M32.234,22.414c1.22,0.504,2.272,1.317,3.073,2.344c-0.081-1.398-0.118-2.988-0.05-4.622
		C34.463,21.131,33.426,21.921,32.234,22.414z"/>
	<path d="M29.97,15.329c-0.047-0.394-0.368-0.7-0.771-0.7c-0.049,0-0.089,0.019-0.134,0.027l0.553,0.361L29.97,15.329z"/>
	<path d="M29.753,28.493c-0.117-0.115-0.267-0.201-0.437-0.229c0.078,0.169,0.126,0.305,0.161,0.426L29.753,28.493z"/>
	<path d="M26.487,22.414c-0.682-0.282-1.312-0.66-1.879-1.12c0.131,0.62,0.218,1.265,0.218,1.913c0,0.052-0.005,0.109-0.009,0.17
		C25.328,22.99,25.886,22.662,26.487,22.414z"/>
	<path d="M28.417,28.951c-0.004,0.029-0.01,0.061-0.01,0.092c0,0.172,0.064,0.321,0.156,0.451l0.247-0.288
		C28.688,29.122,28.549,29.02,28.417,28.951z"/>
</g>
</svg>
