<?xml version="1.0" encoding="utf-8"?>
<!-- Generator: Adobe Illustrator 15.1.0, SVG Export Plug-In . SVG Version: 6.00 Build 0)  -->
<!DOCTYPE svg PUBLIC "-//W3C//DTD SVG 1.1//EN" "http://www.w3.org/Graphics/SVG/1.1/DTD/svg11.dtd">
<svg version="1.1"
	 id="Layer_1" sodipodi:docname="ecobee.svg" inkscape:version="0.48.2 r9819" xmlns:rdf="http://www.w3.org/1999/02/22-rdf-syntax-ns#" xmlns:sodipodi="http://sodipodi.sourceforge.net/DTD/sodipodi-0.dtd" xmlns:inkscape="http://www.inkscape.org/namespaces/inkscape" xmlns:dc="http://purl.org/dc/elements/1.1/" xmlns:cc="http://creativecommons.org/ns#" xmlns:svg="http://www.w3.org/2000/svg"
	 xmlns="http://www.w3.org/2000/svg" xmlns:xlink="http://www.w3.org/1999/xlink" x="0px" y="0px" width="44.637px"
	 height="44.637px" viewBox="0 0 44.637 44.637" enable-background="new 0 0 44.637 44.637" xml:space="preserve">
<g>
	<path fill="#FFFFFF" d="M22.32,42.986c-11.499,0-20.817-9.32-20.817-20.815c0-11.499,9.318-20.82,20.817-20.82
		c11.495,0,20.816,9.322,20.816,20.82C43.136,33.664,33.815,42.986,22.32,42.986z"/>
	<path d="M22.465,3.024C11.891,3.024,3.32,11.597,3.32,22.17c0,10.57,8.571,19.143,19.146,19.143
		c10.573,0,19.144-8.571,19.145-19.143C41.61,11.596,33.039,3.024,22.465,3.024z M17.71,16.833h5.678v1.264H17.71V16.833z
		 M16.705,25.52h-1.732v-4.117c0-0.243-0.04-0.445-0.118-0.604c-0.148-0.301-0.428-0.451-0.831-0.451
		c-0.466,0-0.789,0.194-0.968,0.582c-0.09,0.205-0.136,0.453-0.136,0.742v3.849h-1.702v-3.849c0-0.384-0.04-0.663-0.119-0.838
		c-0.143-0.312-0.421-0.467-0.836-0.467c-0.48,0-0.807,0.152-0.973,0.467c-0.092,0.179-0.139,0.441-0.139,0.795v3.892H7.438v-6.455
		h1.645v0.944c0.21-0.337,0.408-0.576,0.594-0.719c0.328-0.253,0.754-0.38,1.275-0.38c0.492,0,0.895,0.107,1.197,0.325
		c0.244,0.202,0.433,0.462,0.559,0.776c0.223-0.379,0.496-0.658,0.822-0.836c0.351-0.178,0.736-0.268,1.164-0.268
		c0.284,0.002,0.565,0.058,0.844,0.168c0.275,0.109,0.526,0.305,0.754,0.582c0.182,0.225,0.305,0.502,0.367,0.83
		c0.038,0.218,0.06,0.535,0.06,0.954L16.705,25.52z M23.177,24.729c-0.546,0.674-1.374,1.014-2.485,1.014
		c-1.109,0-1.938-0.34-2.484-1.014c-0.545-0.674-0.818-1.482-0.818-2.433c0-0.932,0.273-1.74,0.818-2.424
		c0.546-0.686,1.375-1.025,2.484-1.025c1.111,0,1.939,0.342,2.485,1.025c0.546,0.683,0.819,1.492,0.819,2.424
		C23.997,23.244,23.723,24.055,23.177,24.729z M27.68,20.318h-1.049v3.417c0,0.268,0.033,0.432,0.1,0.496
		c0.067,0.064,0.273,0.1,0.617,0.1c0.051,0,0.106-0.002,0.164-0.004c0.057-0.002,0.113-0.006,0.168-0.01v1.264l-0.8,0.029
		c-0.8,0.027-1.345-0.109-1.638-0.416c-0.189-0.191-0.285-0.49-0.285-0.896v-3.979h-0.901v-0.001v-1.205h0.901v-1.642h1.674v1.642
		h1.049V20.318z M32.392,20.648c-0.001,0.001-1.286-0.604-1.745,0.631c-0.098,0.265-0.193,0.635-0.193,1.151v3.089H28.75v-6.466
		h1.611v1.127c0.264-0.431,0.489-0.725,0.686-0.883c0,0,0.645-0.791,1.834-0.1L32.392,20.648z M37.624,19.198l-0.488,1.449
		c-0.001,0.001-1.285-0.604-1.745,0.631c-0.098,0.265-0.195,0.635-0.195,1.151v3.089h-1.701v-6.466h1.612v1.127
		c0.263-0.431,0.488-0.725,0.685-0.883C35.79,19.297,36.435,18.506,37.624,19.198z"/>
</g>
<path d="M20.686,20.276c-0.494,0-0.875,0.176-1.143,0.524c-0.269,0.349-0.4,0.848-0.4,1.495c0,0.646,0.134,1.146,0.4,1.5
	c0.268,0.352,0.646,0.527,1.143,0.527s0.873-0.177,1.141-0.527c0.266-0.354,0.396-0.854,0.396-1.5c0-0.647-0.133-1.146-0.396-1.495
	C21.559,20.449,21.18,20.276,20.686,20.276z"/>
</svg>
