<?xml version="1.0" encoding="utf-8"?>
<!-- Generator: Adobe Illustrator 15.1.0, SVG Export Plug-In . SVG Version: 6.00 Build 0)  -->
<!DOCTYPE svg PUBLIC "-//W3C//DTD SVG 1.1//EN" "http://www.w3.org/Graphics/SVG/1.1/DTD/svg11.dtd">
<svg version="1.1"
	 id="Layer_1" xmlns:cc="http://creativecommons.org/ns#" xmlns:svg="http://www.w3.org/2000/svg" xmlns:dc="http://purl.org/dc/elements/1.1/" sodipodi:docname="insteon_LED.svg" inkscape:version="0.48.1 r9760" xmlns:sodipodi="http://sodipodi.sourceforge.net/DTD/sodipodi-0.dtd" xmlns:inkscape="http://www.inkscape.org/namespaces/inkscape" xmlns:rdf="http://www.w3.org/1999/02/22-rdf-syntax-ns#"
	 xmlns="http://www.w3.org/2000/svg" xmlns:xlink="http://www.w3.org/1999/xlink" x="0px" y="0px" width="44.637px"
	 height="44.637px" viewBox="0 0 44.637 44.637" enable-background="new 0 0 44.637 44.637" xml:space="preserve">
<sodipodi:namedview  pagecolor="#ffffff" borderopacity="1" inkscape:window-height="1156" objecttolerance="10" gridtolerance="10" guidetolerance="10" id="namedview11726" inkscape:pageopacity="0" inkscape:pageshadow="2" inkscape:window-width="1910" showgrid="false" inkscape:zoom="21.013957" inkscape:cx="22.318501" inkscape:cy="22.318501" inkscape:current-layer="Layer_1" inkscape:window-x="0" inkscape:window-y="0" inkscape:window-maximized="0" bordercolor="#666666">
	</sodipodi:namedview>
<g id="g11706">
	<g id="g11708">
	</g>
	<g id="g11712">
	</g>
	<g id="g11716">
	</g>
	<g id="g11720">
	</g>
</g>
<g id="Livello_1_2_">
</g>
<path fill="#FFFFFF" d="M22.32,43.067c-11.498,0-20.812-9.312-20.812-20.812S10.82,1.434,22.32,1.434
	c11.496,0,20.816,9.321,20.816,20.821C43.136,33.749,33.816,43.07,22.32,43.067z"/>
<g>
	<circle cx="22.455" cy="21.984" r="2.417"/>
	<path d="M22.465,3.108c-10.573,0-19.146,8.572-19.146,19.146c0,10.562,8.573,19.143,19.146,19.143
		c10.577,0,19.144-8.566,19.145-19.143C41.61,11.679,33.039,3.108,22.465,3.108z M37.109,20.856
		c0.164,0.362,0.254,0.786,0.254,1.231c0,0.446-0.09,0.87-0.254,1.231c-0.455,0.999-1.274,1.648-2.424,1.566
		c-1.183-0.084-3.544-0.748-5.448-1.083c-0.018,0.065-0.032,0.132-0.051,0.197c1.816,0.661,4.192,1.266,5.259,1.785
		c1.035,0.504,1.421,1.476,1.314,2.568c-0.038,0.396-0.172,0.808-0.395,1.193c-0.223,0.387-0.514,0.708-0.836,0.939
		c-0.894,0.638-1.928,0.79-2.882,0.145c-0.984-0.665-2.7-2.424-4.183-3.667c-0.048,0.049-0.097,0.096-0.146,0.143
		c1.242,1.483,3.003,3.199,3.668,4.184c0.646,0.955,0.493,1.988-0.146,2.882c-0.23,0.323-0.553,0.613-0.938,0.837
		c-0.386,0.223-0.799,0.356-1.193,0.395c-1.093,0.106-2.064-0.279-2.568-1.315c-0.521-1.07-1.129-3.46-1.793-5.28
		c-0.064,0.018-0.13,0.034-0.195,0.05c0.334,1.909,1.003,4.283,1.087,5.472c0.082,1.149-0.566,1.969-1.566,2.423
		c-0.361,0.164-0.786,0.255-1.231,0.255s-0.869-0.091-1.23-0.255c-1-0.454-1.648-1.273-1.567-2.423
		c0.084-1.19,0.756-3.572,1.089-5.482c-0.064-0.017-0.129-0.031-0.193-0.05c-0.666,1.821-1.274,4.218-1.797,5.291
		c-0.504,1.035-1.476,1.421-2.568,1.314c-0.395-0.038-0.808-0.172-1.193-0.395c-0.386-0.223-0.708-0.514-0.939-0.836
		c-0.638-0.894-0.791-1.928-0.146-2.882c0.669-0.99,2.443-2.719,3.688-4.206c-0.048-0.047-0.094-0.094-0.14-0.142
		c-1.488,1.244-3.217,3.019-4.207,3.688c-0.955,0.646-1.988,0.493-2.882-0.146c-0.323-0.23-0.613-0.553-0.836-0.938
		c-0.223-0.386-0.356-0.798-0.395-1.193c-0.106-1.093,0.279-2.064,1.315-2.568c1.074-0.523,3.477-1.133,5.298-1.8
		c-0.018-0.063-0.033-0.128-0.049-0.192c-1.912,0.334-4.299,1.007-5.491,1.091c-1.149,0.082-1.968-0.567-2.423-1.566
		c-0.164-0.361-0.255-0.785-0.255-1.231c0-0.445,0.091-0.869,0.255-1.231c0.455-1,1.274-1.648,2.423-1.567
		c1.191,0.084,3.574,0.757,5.485,1.09c0.016-0.064,0.032-0.129,0.05-0.193c-1.821-0.666-4.22-1.276-5.293-1.798
		c-1.036-0.504-1.421-1.475-1.315-2.568c0.039-0.395,0.172-0.808,0.395-1.193c0.223-0.386,0.514-0.708,0.836-0.938
		c0.894-0.639,1.927-0.791,2.882-0.146c0.987,0.667,2.71,2.434,4.195,3.678c0.047-0.048,0.093-0.097,0.141-0.144
		c-1.244-1.485-3.01-3.207-3.677-4.194c-0.645-0.954-0.493-1.988,0.146-2.882c0.23-0.323,0.552-0.613,0.938-0.836
		c0.386-0.223,0.798-0.356,1.193-0.395c1.093-0.106,2.064,0.279,2.568,1.315c0.52,1.069,1.127,3.453,1.79,5.271
		c0.065-0.019,0.131-0.034,0.197-0.051c-0.335-1.906-1.002-4.274-1.086-5.46c-0.082-1.149,0.567-1.968,1.567-2.423
		c0.361-0.165,0.786-0.255,1.231-0.255s0.869,0.09,1.231,0.255c0.999,0.455,1.648,1.274,1.566,2.423
		c-0.084,1.184-0.748,3.544-1.084,5.449c0.067,0.017,0.134,0.033,0.2,0.052c0.661-1.817,1.266-4.192,1.785-5.259
		c0.504-1.036,1.476-1.421,2.568-1.315c0.395,0.039,0.808,0.172,1.193,0.395c0.386,0.223,0.708,0.513,0.938,0.836
		c0.639,0.894,0.791,1.927,0.146,2.882c-0.663,0.981-2.414,2.69-3.657,4.169c0.05,0.049,0.1,0.098,0.149,0.148
		c1.479-1.243,3.188-2.994,4.169-3.657c0.955-0.645,1.988-0.493,2.882,0.146c0.323,0.23,0.613,0.552,0.837,0.938
		c0.223,0.386,0.355,0.798,0.395,1.193c0.105,1.093-0.279,2.064-1.315,2.568c-1.064,0.519-3.438,1.124-5.254,1.784
		c0.019,0.066,0.035,0.133,0.052,0.2c1.903-0.336,4.26-0.999,5.441-1.083C35.834,19.208,36.654,19.857,37.109,20.856z"/>
</g>
</svg>
