<?xml version="1.0" encoding="utf-8"?>
<!-- Generator: Adobe Illustrator 15.1.0, SVG Export Plug-In . SVG Version: 6.00 Build 0)  -->
<!DOCTYPE svg PUBLIC "-//W3C//DTD SVG 1.1//EN" "http://www.w3.org/Graphics/SVG/1.1/DTD/svg11.dtd">
<svg version="1.1"
	 id="Layer_1" xmlns:sodipodi="http://sodipodi.sourceforge.net/DTD/sodipodi-0.dtd" sodipodi:docname="insteon_LED.svg" xmlns:svg="http://www.w3.org/2000/svg" xmlns:rdf="http://www.w3.org/1999/02/22-rdf-syntax-ns#" xmlns:inkscape="http://www.inkscape.org/namespaces/inkscape" inkscape:version="0.48.1 r9760" xmlns:cc="http://creativecommons.org/ns#" xmlns:dc="http://purl.org/dc/elements/1.1/"
	 xmlns="http://www.w3.org/2000/svg" xmlns:xlink="http://www.w3.org/1999/xlink" x="0px" y="0px" width="44.637px"
	 height="44.637px" viewBox="0 0 44.637 44.637" enable-background="new 0 0 44.637 44.637" xml:space="preserve">
<sodipodi:namedview  id="namedview11726" inkscape:window-maximized="0" showgrid="false" pagecolor="#ffffff" guidetolerance="10" borderopacity="1" inkscape:window-x="0" gridtolerance="10" inkscape:zoom="21.013957" objecttolerance="10" inkscape:pageopacity="0" inkscape:pageshadow="2" inkscape:cx="22.318501" inkscape:cy="22.318501" inkscape:current-layer="Layer_1" inkscape:window-width="1910" inkscape:window-height="1156" inkscape:window-y="0" bordercolor="#666666">
	</sodipodi:namedview>
<g id="g11706">
	<g id="g11708">
	</g>
	<g id="g11712">
	</g>
	<g id="g11716">
	</g>
	<g id="g11720">
	</g>
</g>
<path fill="#FFFFFF" d="M22.32,43.061c-11.498,0-20.812-9.312-20.812-20.812S10.82,1.428,22.32,1.428
	c11.496,0,20.816,9.321,20.816,20.821C43.136,33.743,33.816,43.064,22.32,43.061z"/>
<g>
	<path d="M22.465,3.102c-10.573,0-19.146,8.572-19.146,19.146c0,10.564,8.573,19.143,19.146,19.143
		c10.577,0,19.144-8.574,19.145-19.143C41.61,11.673,33.039,3.102,22.465,3.102z M17.272,8.245c0,0,0-1.49,1.491-1.49h7.281
		c1.492,0,1.492,1.49,1.492,1.49v3.222H17.272V8.245z M27.536,36.612c0,0,0,1.491-1.492,1.491h-7.281
		c-1.491,0-1.491-1.491-1.491-1.491v-3.22h10.266L27.536,36.612L27.536,36.612z M31.818,19.413h-0.862
		c0.004,0.396,0.006,0.797,0.008,1.199h0.854v3.234h-0.851c-0.003,0.415-0.006,0.828-0.007,1.24h0.856v5.753h-0.98
		c-0.101,2.448-0.269,4.344-0.533,5.115h-1.85v-3.224H16.401v3.224h-1.849c-0.532-1.539-0.669-7.557-0.665-13.511h-0.85v-5.756
		h0.891c0.056-4.316,0.147-7.633,0.147-7.633H16.4v2.685c0,0,0.061,0.507,0.508,0.507h11.041c0.444,0,0.505-0.507,0.505-0.507V9.058
		h2.324c0,0,0.052,1.856,0.103,4.602h0.938V19.413z"/>
	<rect x="17.237" y="15.738" width="10.74" height="13.42"/>
</g>
</svg>
