<?xml version="1.0" encoding="utf-8"?>
<!-- Generator: Adobe Illustrator 15.1.0, SVG Export Plug-In . SVG Version: 6.00 Build 0)  -->
<!DOCTYPE svg PUBLIC "-//W3C//DTD SVG 1.1//EN" "http://www.w3.org/Graphics/SVG/1.1/DTD/svg11.dtd">
<svg version="1.1"
	 id="Layer_1" sodipodi:docname="insteon_LED.svg" inkscape:version="0.48.1 r9760" xmlns:rdf="http://www.w3.org/1999/02/22-rdf-syntax-ns#" xmlns:sodipodi="http://sodipodi.sourceforge.net/DTD/sodipodi-0.dtd" xmlns:inkscape="http://www.inkscape.org/namespaces/inkscape" xmlns:dc="http://purl.org/dc/elements/1.1/" xmlns:cc="http://creativecommons.org/ns#" xmlns:svg="http://www.w3.org/2000/svg"
	 xmlns="http://www.w3.org/2000/svg" xmlns:xlink="http://www.w3.org/1999/xlink" x="0px" y="0px" width="44.637px"
	 height="44.637px" viewBox="0 0 44.637 44.637" enable-background="new 0 0 44.637 44.637" xml:space="preserve">
<sodipodi:namedview  bordercolor="#666666" pagecolor="#ffffff" inkscape:window-maximized="0" inkscape:window-y="0" inkscape:window-x="0" inkscape:cx="22.318501" inkscape:window-height="1156" showgrid="false" inkscape:current-layer="Layer_1" inkscape:cy="22.318501" inkscape:pageshadow="2" id="namedview11726" inkscape:pageopacity="0" borderopacity="1" gridtolerance="10" inkscape:zoom="21.013957" inkscape:window-width="1910" guidetolerance="10" objecttolerance="10">
	</sodipodi:namedview>
<g id="g11706">
	<g id="g11708">
	</g>
	<g id="g11712">
	</g>
	<g id="g11716">
	</g>
	<g id="g11720">
	</g>
</g>
<g id="Livello_1_2_">
</g>
<path fill="#FFFFFF" d="M22.32,43.061c-11.498,0-20.812-9.312-20.812-20.812c0-11.5,9.312-20.821,20.812-20.821
	c11.496,0,20.816,9.321,20.816,20.821C43.136,33.743,33.816,43.064,22.32,43.061z"/>
<g>
	<path d="M22.465,3.102c-10.573,0-19.146,8.572-19.146,19.146c0,10.566,8.573,19.143,19.146,19.143
		c10.577,0,19.144-8.574,19.145-19.143C41.61,11.673,33.039,3.102,22.465,3.102z M22.701,35.469c-6.12,0-11.079-4.959-11.079-11.075
		c0-0.728,0.076-1.438,0.209-2.13h-0.003c0,0,0.005-0.027,0.009-0.039c0.101-0.508,0.242-0.999,0.409-1.476
		c0.775-2.462,2.765-7.447,7.023-11.232c0,0,3.918-3.328,8.033,0.881c3.22,3.3,4.875,7.015,5.728,10.023
		c0.476,1.232,0.747,2.574,0.747,3.973C33.779,30.51,28.819,35.469,22.701,35.469z"/>
	<path d="M22.701,16.516c-4.348,0-7.883,3.534-7.883,7.883c0,4.345,3.535,7.879,7.883,7.879c4.345,0,7.879-3.534,7.879-7.879
		C30.58,20.05,27.046,16.516,22.701,16.516z M22.701,31.168c-2.941,0-5.443-1.89-6.376-4.511h12.751
		C28.143,29.281,25.641,31.168,22.701,31.168z M16.25,22.345c0.871-2.735,3.431-4.72,6.451-4.72c3.018,0,5.577,1.984,6.448,4.72
		H16.25z"/>
	<path d="M21.646,14.102c0.367-0.175,0.75-0.235,1.103-0.241c0.348,0.006,0.729,0.065,1.099,0.241
		c1.149,0.547,2.132-0.819,2.023-1.531c-0.11-0.712-0.93-1.039-1.505-1.094c-0.574-0.054-1.449-0.101-1.449-0.101h-0.34
		c0,0-0.877,0.047-1.451,0.101c-0.576,0.055-1.396,0.382-1.504,1.094C19.513,13.281,20.496,14.649,21.646,14.102z"/>
</g>
</svg>
