<?xml version="1.0" encoding="utf-8"?>
<!-- Generator: Adobe Illustrator 15.1.0, SVG Export Plug-In . SVG Version: 6.00 Build 0)  -->
<!DOCTYPE svg PUBLIC "-//W3C//DTD SVG 1.1//EN" "http://www.w3.org/Graphics/SVG/1.1/DTD/svg11.dtd">
<svg version="1.1"
	 id="Layer_1" inkscape:version="0.48.1 r9760" sodipodi:docname="insteon_LED.svg" xmlns:inkscape="http://www.inkscape.org/namespaces/inkscape" xmlns:svg="http://www.w3.org/2000/svg" xmlns:cc="http://creativecommons.org/ns#" xmlns:dc="http://purl.org/dc/elements/1.1/" xmlns:rdf="http://www.w3.org/1999/02/22-rdf-syntax-ns#" xmlns:sodipodi="http://sodipodi.sourceforge.net/DTD/sodipodi-0.dtd"
	 xmlns="http://www.w3.org/2000/svg" xmlns:xlink="http://www.w3.org/1999/xlink" x="0px" y="0px" width="44.637px"
	 height="44.637px" viewBox="0 0 44.637 44.637" enable-background="new 0 0 44.637 44.637" xml:space="preserve">
<sodipodi:namedview  borderopacity="1" inkscape:cy="22.318501" inkscape:cx="22.318501" inkscape:pageopacity="0" guidetolerance="10" id="namedview11726" inkscape:window-maximized="0" inkscape:window-width="1910" inkscape:current-layer="Layer_1" pagecolor="#ffffff" inkscape:pageshadow="2" bordercolor="#666666" inkscape:window-y="0" gridtolerance="10" inkscape:window-height="1156" showgrid="false" objecttolerance="10" inkscape:zoom="21.013957" inkscape:window-x="0">
	</sodipodi:namedview>
<g id="g11706">
	<g id="g11708">
	</g>
	<g id="g11712">
	</g>
	<g id="g11716">
	</g>
	<g id="g11720">
	</g>
</g>
<g id="Livello_1_2_">
</g>
<path fill="#FFFFFF" d="M22.32,43.067c-11.498,0-20.812-9.312-20.812-20.812S10.82,1.434,22.32,1.434
	c11.496,0,20.816,9.321,20.816,20.821C43.136,33.749,33.816,43.07,22.32,43.067z"/>
<g>
	<path fill="none" d="M22.32,1.434c-11.5,0-20.812,9.321-20.812,20.821S10.82,43.067,22.32,43.067
		c11.496,0.003,20.816-9.315,20.816-20.812C43.136,10.755,33.816,1.434,22.32,1.434z"/>
	<path d="M39.905,23.592l-3.324,0.576v2.367c0,0.932-0.756,1.688-1.688,1.688h-1.686V16.738h1.686c0.934,0,1.688,0.758,1.688,1.688
		v2.444l3.324,0.631v0.663h1.7c-0.049-10.533-8.596-19.058-19.14-19.058c-10.542,0-19.092,8.524-19.142,19.058H5.08V21.5
		l3.324-0.631v-0.051v-2.395c0-0.932,0.758-1.688,1.688-1.688h1.609v11.485h-1.609c-0.932,0-1.688-0.756-1.688-1.688v-2.367
		L5.08,23.592v-0.726H3.35c0.327,10.274,8.75,18.528,19.116,18.528c10.37,0,18.787-8.244,19.113-18.528h-1.676L39.905,23.592
		L39.905,23.592z M32.205,28.223H12.703V16.738h19.502V28.223z"/>
	<path fill="#FFFFFF" d="M26.53,26.217h-1.543l-0.838-1.76h-3.183l0.61-1.229h1.987l-0.979-2.04l0.73-1.475L26.53,26.217z
		 M22.564,18.191l0.647,1.31l-3.331,6.719h-1.427L22.564,18.191z"/>
	<polygon points="23.211,19.498 22.564,18.191 18.454,26.217 19.881,26.217 	"/>
	<polygon points="23.565,23.228 21.576,23.228 20.966,24.457 24.149,24.457 24.987,26.217 26.53,26.217 23.317,19.713 
		22.585,21.188 	"/>
</g>
</svg>
