<?xml version="1.0" encoding="utf-8"?>
<!-- Generator: Adobe Illustrator 15.1.0, SVG Export Plug-In . SVG Version: 6.00 Build 0)  -->
<!DOCTYPE svg PUBLIC "-//W3C//DTD SVG 1.1//EN" "http://www.w3.org/Graphics/SVG/1.1/DTD/svg11.dtd">
<svg version="1.1"
	 id="Layer_1" sodipodi:docname="ecobee.svg" inkscape:version="0.48.2 r9819" xmlns:cc="http://creativecommons.org/ns#" xmlns:sodipodi="http://sodipodi.sourceforge.net/DTD/sodipodi-0.dtd" xmlns:rdf="http://www.w3.org/1999/02/22-rdf-syntax-ns#" xmlns:inkscape="http://www.inkscape.org/namespaces/inkscape" xmlns:dc="http://purl.org/dc/elements/1.1/" xmlns:svg="http://www.w3.org/2000/svg"
	 xmlns="http://www.w3.org/2000/svg" xmlns:xlink="http://www.w3.org/1999/xlink" x="0px" y="0px" width="44.637px"
	 height="44.637px" viewBox="0 0 44.637 44.637" enable-background="new 0 0 44.637 44.637" xml:space="preserve">
<path fill="#FFFFFF" d="M22.32,43.138c-11.498,0-20.812-9.322-20.812-20.818C1.501,10.823,10.821,1.5,22.32,1.5
	c11.496,0,20.816,9.323,20.816,20.812C43.136,33.815,33.816,43.138,22.32,43.138z"/>
<g>
	<path d="M24.485,23.774c0.6-0.717,0.951-2.017,0.986-3.324c0.03-1.033-0.157-2.09-0.479-2.825
		c-0.494-1.028-1.204-1.519-2.262-1.541c-0.95-0.023-1.622,0.25-2.131,0.867c-0.579,0.775-0.952,1.988-0.992,3.344
		c-0.026,0.989,0.185,2.092,0.509,2.806c0.467,1.029,1.183,1.521,2.341,1.549C23.323,24.672,23.997,24.389,24.485,23.774z
		 M21.373,22.637c-0.308-0.521-0.454-1.43-0.431-2.305c0.019-0.694,0.151-1.445,0.373-1.934c0.29-0.691,0.693-1.006,1.283-0.989
		c0.025,0.003,0.05,0.003,0.073,0c0.495,0.052,0.807,0.229,1.058,0.674c0.309,0.562,0.461,1.406,0.438,2.333
		c-0.021,0.641-0.188,1.449-0.375,1.875c-0.307,0.721-0.693,1.031-1.294,1.018C21.965,23.293,21.622,23.076,21.373,22.637z"/>
	<path fill="#231F20" d="M24.87,30.826c1.217,0.554,2.604,0.543,4.018-0.026c2.075-0.837,3.771-3.33,3.013-6.056
		c-0.423-1.52-1.346-2.575-2.847-3.25v7.828h-6.071C23.516,29.982,24.156,30.502,24.87,30.826z"/>
	<path d="M16.407,17.227c0.63,0.015,0.895,0.194,1.333,0.91l1.232-0.49c-0.522-1.172-1.289-1.723-2.534-1.756
		c-0.934-0.021-1.639,0.281-2.146,0.873c-0.601,0.711-0.979,2.008-1.015,3.316c-0.026,1.038,0.182,2.094,0.531,2.832
		c0.504,1.027,1.269,1.516,2.49,1.549c1.186,0.031,2.017-0.564,2.538-1.764l-1.23-0.503c-0.34,0.659-0.755,0.94-1.312,0.935
		c-0.575-0.021-0.939-0.238-1.229-0.675c-0.304-0.527-0.479-1.437-0.46-2.338c0.024-0.7,0.146-1.41,0.375-1.901
		C15.282,17.491,15.742,17.205,16.407,17.227z"/>
	<path d="M22.465,3.176C11.892,3.176,3.32,11.747,3.32,22.32c0,10.573,8.571,19.146,19.146,19.146S41.61,32.895,41.61,22.321
		C41.61,11.748,33.039,3.176,22.465,3.176z M35.563,32.568c-1.742,2.263-4.499,3.884-7.193,4.231
		c-0.514,0.065-1.021,0.098-1.519,0.098c-4.782,0-8.782-2.971-10.229-7.572H9.941V10.328h19.113v5.216
		c4.323,0.92,7.5,3.94,8.442,8.169C38.192,26.847,37.487,30.074,35.563,32.568z"/>
	<path d="M29.054,17.597v1.76c2.507,0.87,4.115,2.491,4.773,4.853c1.056,3.805-1.304,7.282-4.19,8.444
		c-0.963,0.391-1.927,0.583-2.865,0.583c-0.941,0-1.86-0.194-2.729-0.59c-1.425-0.646-2.632-1.827-3.454-3.323h-1.863
		c1.612,4.195,5.715,5.967,9.386,5.49c2.188-0.28,4.438-1.609,5.866-3.468c1.562-2.021,2.132-4.646,1.565-7.198
		C34.797,20.801,32.418,18.446,29.054,17.597z"/>
</g>
</svg>
