<?xml version="1.0" encoding="utf-8"?>
<!-- Generator: Adobe Illustrator 15.1.0, SVG Export Plug-In . SVG Version: 6.00 Build 0)  -->
<!DOCTYPE svg PUBLIC "-//W3C//DTD SVG 1.1//EN" "http://www.w3.org/Graphics/SVG/1.1/DTD/svg11.dtd">
<svg version="1.1"
	 id="Layer_1" sodipodi:docname="ecobee.svg" inkscape:version="0.48.2 r9819" xmlns:svg="http://www.w3.org/2000/svg" xmlns:rdf="http://www.w3.org/1999/02/22-rdf-syntax-ns#" xmlns:dc="http://purl.org/dc/elements/1.1/" xmlns:inkscape="http://www.inkscape.org/namespaces/inkscape" xmlns:sodipodi="http://sodipodi.sourceforge.net/DTD/sodipodi-0.dtd" xmlns:cc="http://creativecommons.org/ns#"
	 xmlns="http://www.w3.org/2000/svg" xmlns:xlink="http://www.w3.org/1999/xlink" x="0px" y="0px" width="44.637px"
	 height="44.637px" viewBox="0 0 44.637 44.637" enable-background="new 0 0 44.637 44.637" xml:space="preserve">
<path fill="#FFFFFF" d="M22.32,43.138c-11.498,0-20.812-9.322-20.812-20.818C1.501,10.823,10.821,1.5,22.32,1.5
	c11.496,0,20.816,9.323,20.816,20.812C43.136,33.815,33.816,43.138,22.32,43.138z"/>
<g>
	<path fill="#231F20" d="M24.87,30.826c1.217,0.554,2.604,0.543,4.018-0.026c2.075-0.837,3.771-3.33,3.013-6.056
		c-0.423-1.52-1.346-2.575-2.847-3.25v7.828h-6.071C23.516,29.982,24.156,30.502,24.87,30.826z"/>
	<path d="M22.465,3.176C11.892,3.176,3.32,11.747,3.32,22.32c0,10.573,8.571,19.146,19.146,19.146S41.61,32.895,41.61,22.321
		C41.61,11.748,33.039,3.176,22.465,3.176z M35.563,32.568c-1.742,2.263-4.499,3.884-7.193,4.231
		c-0.514,0.065-1.021,0.098-1.519,0.098c-4.782,0-8.782-2.971-10.229-7.572H9.941V10.328h19.113v5.216
		c4.323,0.92,7.5,3.94,8.442,8.169C38.192,26.847,37.487,30.074,35.563,32.568z"/>
	<path d="M29.054,17.597v1.76c2.507,0.87,4.115,2.491,4.773,4.853c1.056,3.805-1.304,7.282-4.19,8.444
		c-0.963,0.391-1.927,0.583-2.865,0.583c-0.941,0-1.86-0.194-2.729-0.59c-1.425-0.646-2.632-1.827-3.454-3.323h-1.863
		c1.612,4.195,5.715,5.967,9.386,5.49c2.188-0.28,4.438-1.609,5.866-3.468c1.562-2.021,2.132-4.646,1.565-7.198
		C34.797,20.801,32.418,18.446,29.054,17.597z"/>
	<path d="M19.377,27.514c0.517-0.957,0.853-2.361,1.662-2.986c0.154-0.118,0.345-0.213,0.565-0.225
		c1.108-0.076,2.261,0.684,3.252,0.941c0.021-0.453-0.264-0.826-0.414-1.25c-0.239-0.666-0.459-1.43-0.455-2.339
		c0.101-0.071,0.115-0.213,0.191-0.305c0.715-0.827,2.113-1.024,3.023-1.662c-0.738-0.391-1.554-0.696-2.23-1.096
		c-0.602-0.353-1.014-0.726-0.908-1.663c0.054-0.485,0.209-1.104,0.377-1.587c0.146-0.427,0.478-0.78,0.416-1.174
		c-1.055,0.355-1.819,1.003-3.291,0.945c-1.074-0.727-1.513-2.094-2.189-3.212c-0.009-0.046-0.043-0.023-0.077,0
		c-0.023,0.002-0.044,0.006-0.038,0.036c-0.395,0.955-0.806,2.358-1.587,2.947c-0.738,0.56-1.822-0.113-2.722-0.264
		c-0.321-0.174-0.731-0.45-1.136-0.416c0.341,1.146,0.937,2.039,0.91,3.553c-0.342,0.554-1.015,0.875-1.664,1.209
		c-0.254,0.134-0.535,0.269-0.795,0.38c-0.249,0.105-0.646,0.118-0.718,0.414c0.45,0.222,0.915,0.337,1.399,0.568
		c0.515,0.248,1.426,0.673,1.586,1.133c0.134,0.376,0.065,0.872,0.039,1.209c-0.076,0.93-0.563,1.735-0.757,2.532
		c0.558-0.064,1.01-0.455,1.588-0.642c0.516-0.164,1.065-0.315,1.775-0.262c0.676,0.508,1.119,1.25,1.551,2
		C18.944,26.709,19.054,27.217,19.377,27.514z M15.937,21.087c-0.387-1.188-0.234-2.304,0.25-3.186
		c0.542-0.986,1.505-1.673,2.617-1.822c0.04-0.005,0.079-0.016,0.12-0.02c0.278-0.027,0.548-0.026,0.806,0
		c1.811,0.184,3.085,1.604,3.281,3.101c0.184,1.439-0.447,2.545-1.138,3.214c-0.493,0.477-0.979,0.693-1.625,0.868
		c-0.239,0.064-0.475,0.104-0.704,0.118C17.934,23.467,16.574,22.415,15.937,21.087z"/>
</g>
</svg>
