<?xml version="1.0" encoding="utf-8"?>
<!-- Generator: Adobe Illustrator 15.1.0, SVG Export Plug-In . SVG Version: 6.00 Build 0)  -->
<!DOCTYPE svg PUBLIC "-//W3C//DTD SVG 1.1//EN" "http://www.w3.org/Graphics/SVG/1.1/DTD/svg11.dtd">
<svg version="1.1"
	 id="Layer_1" sodipodi:docname="ecobee.svg" inkscape:version="0.48.2 r9819" xmlns:svg="http://www.w3.org/2000/svg" xmlns:rdf="http://www.w3.org/1999/02/22-rdf-syntax-ns#" xmlns:dc="http://purl.org/dc/elements/1.1/" xmlns:inkscape="http://www.inkscape.org/namespaces/inkscape" xmlns:sodipodi="http://sodipodi.sourceforge.net/DTD/sodipodi-0.dtd" xmlns:cc="http://creativecommons.org/ns#"
	 xmlns="http://www.w3.org/2000/svg" xmlns:xlink="http://www.w3.org/1999/xlink" x="0px" y="0px" width="44.637px"
	 height="44.637px" viewBox="0 0 44.637 44.637" enable-background="new 0 0 44.637 44.637" xml:space="preserve">
<path fill="#FFFFFF" d="M22.32,43.138c-11.498,0-20.812-9.322-20.812-20.818C1.501,10.823,10.821,1.5,22.32,1.5
	c11.496,0,20.816,9.323,20.816,20.812C43.136,33.815,33.816,43.138,22.32,43.138z"/>
<g>
	<path d="M24.87,30.826c1.217,0.554,2.604,0.543,4.018-0.026c2.075-0.837,3.771-3.33,3.013-6.056
		c-0.423-1.521-1.346-2.575-2.847-3.25v7.828h-6.071C23.516,29.982,24.156,30.502,24.87,30.826z"/>
	<path d="M22.465,3.176C11.892,3.176,3.32,11.747,3.32,22.32c0,10.573,8.571,19.146,19.146,19.146S41.61,32.895,41.61,22.321
		C41.61,11.748,33.039,3.176,22.465,3.176z M35.563,32.568c-1.742,2.264-4.499,3.885-7.192,4.231
		c-0.515,0.065-1.021,0.098-1.52,0.098c-4.782,0-8.782-2.971-10.229-7.571H9.941V10.328h19.113v5.216
		c4.323,0.92,7.5,3.939,8.442,8.169C38.192,26.847,37.487,30.074,35.563,32.568z"/>
	<path d="M29.054,17.597v1.76c2.507,0.87,4.115,2.491,4.773,4.854c1.056,3.805-1.305,7.282-4.19,8.443
		c-0.963,0.392-1.927,0.583-2.865,0.583c-0.94,0-1.859-0.193-2.729-0.59c-1.425-0.646-2.632-1.827-3.454-3.322h-1.863
		c1.612,4.194,5.715,5.967,9.386,5.489c2.188-0.279,4.438-1.608,5.866-3.468c1.562-2.021,2.132-4.646,1.565-7.198
		C34.797,20.801,32.418,18.446,29.054,17.597z"/>
	<path d="M17.354,23.373c0.895-2.746,3.039-4.301,3.578-6.396c0.539-2.095-3.986-7.043-2.521-5.234
		c1.467,1.804-0.728,4.544-3.42,9.156c-2.69,4.611,3.329,6.938,3.811,6.982C19.282,27.924,16.461,26.117,17.354,23.373z"/>
	<path d="M20.99,20.354c-0.502,0.781-1.039,1.291-1.966,2.957c-0.925,1.668,0.963,3.31,0.603,2.746
		c-0.36-0.565,0.078-1.712,0.649-2.406c0.573-0.692,0.959-1.234,1.344-1.793c0.762-1.121,0.963-1.835,0.966-2.454
		c0.003-0.62-0.004-0.816-0.248-1.484c-0.246-0.667-0.804-1.538-0.511-0.945c0.146,0.297,0.215,0.84,0.053,1.48
		C21.718,19.096,21.49,19.573,20.99,20.354z"/>
	<path d="M20.895,25.455c-0.414,1.108-0.347,2.391-0.115,1.979c0.232-0.416,0.235-0.682,1.939-2.194
		c1.703-1.514,1.96-2.672,1.97-3.657c0.011-0.987-0.204-1.433-0.585-2.034c-0.379-0.604-0.909-1.545-0.459-0.7
		c0.451,0.844,0.097,2.428-0.466,3.478C22.616,23.373,21.309,24.349,20.895,25.455z"/>
</g>
</svg>
