<?xml version="1.0" encoding="utf-8"?>
<!-- Generator: Adobe Illustrator 15.1.0, SVG Export Plug-In . SVG Version: 6.00 Build 0)  -->
<!DOCTYPE svg PUBLIC "-//W3C//DTD SVG 1.1//EN" "http://www.w3.org/Graphics/SVG/1.1/DTD/svg11.dtd">
<svg version="1.1"
	 id="Layer_1" sodipodi:docname="ecobee.svg" inkscape:version="0.48.2 r9819" xmlns:svg="http://www.w3.org/2000/svg" xmlns:rdf="http://www.w3.org/1999/02/22-rdf-syntax-ns#" xmlns:dc="http://purl.org/dc/elements/1.1/" xmlns:inkscape="http://www.inkscape.org/namespaces/inkscape" xmlns:sodipodi="http://sodipodi.sourceforge.net/DTD/sodipodi-0.dtd" xmlns:cc="http://creativecommons.org/ns#"
	 xmlns="http://www.w3.org/2000/svg" xmlns:xlink="http://www.w3.org/1999/xlink" x="0px" y="0px" width="44.637px"
	 height="44.637px" viewBox="0 0 44.637 44.637" enable-background="new 0 0 44.637 44.637" xml:space="preserve">
<path fill="#FFFFFF" d="M22.32,43.138c-11.498,0-20.812-9.322-20.812-20.818C1.501,10.823,10.821,1.5,22.32,1.5
	c11.496,0,20.816,9.323,20.816,20.812C43.136,33.815,33.816,43.138,22.32,43.138z"/>
<g>
	<path d="M24.87,30.826c1.217,0.554,2.604,0.543,4.018-0.026c2.075-0.837,3.771-3.33,3.013-6.056
		c-0.423-1.521-1.346-2.575-2.847-3.25v7.828h-6.071C23.516,29.982,24.156,30.502,24.87,30.826z"/>
	<path d="M22.465,3.176C11.892,3.176,3.32,11.747,3.32,22.32c0,10.573,8.571,19.146,19.146,19.146S41.61,32.895,41.61,22.321
		C41.61,11.748,33.039,3.176,22.465,3.176z M35.563,32.568c-1.742,2.264-4.499,3.885-7.192,4.231
		c-0.515,0.065-1.021,0.098-1.52,0.098c-4.782,0-8.782-2.971-10.229-7.571H9.941V10.328h19.113v5.216
		c4.323,0.92,7.5,3.939,8.442,8.169C38.192,26.847,37.487,30.074,35.563,32.568z"/>
	<path d="M29.054,17.597v1.76c2.507,0.87,4.115,2.491,4.773,4.854c1.056,3.805-1.305,7.282-4.19,8.443
		c-0.963,0.392-1.927,0.583-2.865,0.583c-0.94,0-1.859-0.193-2.729-0.59c-1.425-0.646-2.632-1.827-3.454-3.322h-1.863
		c1.612,4.194,5.715,5.967,9.386,5.489c2.188-0.279,4.438-1.608,5.866-3.468c1.562-2.021,2.132-4.646,1.565-7.198
		C34.797,20.801,32.418,18.446,29.054,17.597z"/>
	<path d="M24.424,27.922l-0.52-1.506c-1.484-1.494-5.494-5.492-6.991-6.991c-0.156-0.156-0.356-0.304-0.408-0.537
		c-0.062-0.295,0.079-0.493,0.225-0.64c0.312-0.309,0.584-0.584,0.888-0.887c0.15-0.148,0.284-0.314,0.448-0.438
		c0.089-0.065,0.183-0.118,0.313-0.13c0.133-0.01,0.262,0.02,0.365,0.078c0.174,0.1,0.321,0.284,0.461,0.424
		c1.338,1.341,5.136,5.145,6.464,6.473c0.148,0.15,0.295,0.302,0.457,0.438l1.506,0.501l-0.508-1.507
		c-1.685-1.679-7.262-7.254-8.943-8.937c-0.285-0.287-0.59-0.726-1.146-0.698c-0.271,0.017-0.481,0.129-0.646,0.279
		c-0.325,0.295-0.61,0.616-0.928,0.914c-0.263-0.229-2.188-2.175-2.437-2.423c-0.173-0.175-0.38-0.372-0.562-0.559l-0.985,0.986
		c0.439,0.438,2.573,2.565,2.983,3C14.23,16,14.005,16.23,13.764,16.47c-0.229,0.233-0.497,0.456-0.494,0.911
		c0.002,0.447,0.287,0.7,0.537,0.95c1.738,1.737,7.377,7.374,9.102,9.089L24.424,27.922z"/>
</g>
</svg>
