<?xml version="1.0" encoding="utf-8"?>
<!-- Generator: Adobe Illustrator 15.1.0, SVG Export Plug-In . SVG Version: 6.00 Build 0)  -->
<!DOCTYPE svg PUBLIC "-//W3C//DTD SVG 1.1//EN" "http://www.w3.org/Graphics/SVG/1.1/DTD/svg11.dtd">
<svg version="1.1"
	 id="Layer_1" sodipodi:docname="ecobee.svg" inkscape:version="0.48.2 r9819" xmlns:svg="http://www.w3.org/2000/svg" xmlns:rdf="http://www.w3.org/1999/02/22-rdf-syntax-ns#" xmlns:dc="http://purl.org/dc/elements/1.1/" xmlns:inkscape="http://www.inkscape.org/namespaces/inkscape" xmlns:sodipodi="http://sodipodi.sourceforge.net/DTD/sodipodi-0.dtd" xmlns:cc="http://creativecommons.org/ns#"
	 xmlns="http://www.w3.org/2000/svg" xmlns:xlink="http://www.w3.org/1999/xlink" x="0px" y="0px" width="44.637px"
	 height="44.637px" viewBox="0 0 44.637 44.637" enable-background="new 0 0 44.637 44.637" xml:space="preserve">
<path fill="#FFFFFF" d="M22.32,43.138c-11.498,0-20.812-9.322-20.812-20.818C1.501,10.823,10.821,1.5,22.32,1.5
	c11.496,0,20.816,9.323,20.816,20.812C43.136,33.815,33.816,43.138,22.32,43.138z"/>
<g>
	<path d="M24.87,30.826c1.217,0.554,2.604,0.543,4.018-0.026c2.075-0.837,3.771-3.33,3.013-6.056
		c-0.423-1.521-1.346-2.575-2.847-3.25v7.828h-6.071C23.516,29.982,24.156,30.502,24.87,30.826z"/>
	<path d="M22.465,3.176C11.892,3.176,3.32,11.747,3.32,22.32c0,10.573,8.571,19.146,19.146,19.146S41.61,32.895,41.61,22.321
		C41.61,11.748,33.039,3.176,22.465,3.176z M35.563,32.568c-1.742,2.268-4.499,3.889-7.188,4.231
		c-0.519,0.065-1.021,0.098-1.521,0.098c-4.782,0-8.782-2.971-10.229-7.567H9.941v-19h19.113v5.216
		c4.323,0.92,7.5,3.938,8.442,8.169C38.192,26.847,37.487,30.074,35.563,32.568z"/>
	<path d="M29.054,17.597v1.76c2.507,0.87,4.115,2.491,4.773,4.854c1.056,3.805-1.309,7.282-4.19,8.439
		c-0.963,0.396-1.927,0.583-2.865,0.583c-0.938,0-1.855-0.189-2.729-0.59c-1.425-0.646-2.632-1.827-3.454-3.318h-1.863
		c1.612,4.19,5.715,5.967,9.386,5.485c2.188-0.275,4.438-1.604,5.866-3.468c1.562-2.021,2.132-4.646,1.565-7.198
		C34.797,20.801,32.418,18.446,29.054,17.597z"/>
	<path d="M26.453,19.573c0-3.854-3.141-6.99-6.992-6.99c-3.855,0-6.992,3.136-6.992,6.99c0,3.854,3.137,6.987,6.992,6.987
		C23.316,26.563,26.453,23.427,26.453,19.573z M14.07,19.573c0-2.977,2.419-5.395,5.396-5.395c2.972,0,5.392,2.418,5.392,5.395
		c0,2.973-2.42,5.391-5.392,5.391C16.489,24.963,14.07,22.545,14.07,19.573z"/>
	<path d="M16.462,17.693c0.033-0.002,0.133-0.132,0.165-0.165c0.377-0.406,0.797-0.838,1.147-1.218
		c-0.143-0.15-0.273-0.312-0.438-0.453c-0.438,0.462-0.883,0.912-1.304,1.394c0.1,0.107,0.193,0.229,0.303,0.346
		C16.36,17.615,16.431,17.695,16.462,17.693z"/>
	<path d="M17.571,20.709c-0.057-0.062-0.145-0.203-0.223-0.227c-0.003-0.001-0.006,0-0.008,0c-0.431,0.474-0.882,0.917-1.304,1.396
		c0.145,0.152,0.271,0.312,0.438,0.446c0.43-0.469,0.871-0.92,1.303-1.387C17.734,20.862,17.65,20.795,17.571,20.709z"/>
	<path d="M17.895,21.776c-0.325,0.352-0.662,0.694-0.973,1.044c0.133,0.163,0.282,0.312,0.433,0.453
		c0.443-0.462,0.891-0.922,1.317-1.396c-0.146-0.155-0.279-0.316-0.432-0.461C18.132,21.531,18.009,21.654,17.895,21.776z"/>
	<path d="M21.725,18.643c0.452-0.452,0.88-0.93,1.325-1.39c-0.153-0.146-0.277-0.323-0.439-0.461
		c-0.435,0.47-0.878,0.933-1.313,1.396C21.433,18.345,21.578,18.495,21.725,18.643z"/>
	<path d="M17.348,18.651c0.433-0.477,0.896-0.927,1.317-1.408c-0.142-0.155-0.281-0.308-0.437-0.446
		c-0.438,0.462-0.876,0.93-1.313,1.39C17.057,18.34,17.203,18.494,17.348,18.651z"/>
	<path d="M21.17,17.355c0.265-0.29,0.544-0.57,0.82-0.86c0.032-0.037,0.157-0.144,0.155-0.185c-0.001-0.015-0.072-0.095-0.094-0.115
		c-0.103-0.107-0.254-0.251-0.331-0.327c-0.438,0.466-0.892,0.918-1.313,1.396c0.145,0.146,0.271,0.305,0.432,0.432
		C20.959,17.598,21.062,17.475,21.17,17.355z"/>
	<path d="M21.293,22.82c0.136,0.16,0.286,0.312,0.438,0.453c0.443-0.46,0.879-0.927,1.318-1.39c-0.141-0.16-0.281-0.32-0.433-0.468
		C22.172,21.879,21.728,22.345,21.293,22.82z"/>
	<path d="M21.839,20.594c-0.039-0.043-0.079-0.106-0.121-0.107c-0.438,0.47-0.888,0.926-1.317,1.396
		c0.149,0.146,0.282,0.312,0.446,0.446c0.438-0.46,0.872-0.923,1.312-1.387C22.072,20.828,21.947,20.709,21.839,20.594z"/>
	<path d="M17.95,19.568c0,0.885,0.713,1.599,1.593,1.599c0.881,0,1.595-0.714,1.595-1.599c0-0.88-0.714-1.594-1.595-1.594
		C18.663,17.974,17.95,18.688,17.95,19.568z M19.543,18.617c0.521,0,0.95,0.425,0.95,0.946c0,0.524-0.429,0.95-0.95,0.95
		c-0.524,0-0.95-0.426-0.95-0.95C18.593,19.042,19.019,18.617,19.543,18.617z"/>
	<circle cx="19.543" cy="19.567" r="0.319"/>
</g>
</svg>
