<?xml version="1.0" encoding="utf-8"?>
<!-- Generator: Adobe Illustrator 15.1.0, SVG Export Plug-In . SVG Version: 6.00 Build 0)  -->
<!DOCTYPE svg PUBLIC "-//W3C//DTD SVG 1.1//EN" "http://www.w3.org/Graphics/SVG/1.1/DTD/svg11.dtd">
<svg version="1.1"
	 id="Layer_1" sodipodi:docname="ecobee.svg" inkscape:version="0.48.2 r9819" xmlns:svg="http://www.w3.org/2000/svg" xmlns:rdf="http://www.w3.org/1999/02/22-rdf-syntax-ns#" xmlns:dc="http://purl.org/dc/elements/1.1/" xmlns:inkscape="http://www.inkscape.org/namespaces/inkscape" xmlns:sodipodi="http://sodipodi.sourceforge.net/DTD/sodipodi-0.dtd" xmlns:cc="http://creativecommons.org/ns#"
	 xmlns="http://www.w3.org/2000/svg" xmlns:xlink="http://www.w3.org/1999/xlink" x="0px" y="0px" width="44.637px"
	 height="44.637px" viewBox="0 0 44.637 44.637" enable-background="new 0 0 44.637 44.637" xml:space="preserve">
<path fill="#FFFFFF" d="M22.32,43.138c-11.498,0-20.812-9.322-20.812-20.818C1.501,10.823,10.821,1.5,22.32,1.5
	c11.496,0,20.816,9.323,20.816,20.812C43.136,33.815,33.816,43.138,22.32,43.138z"/>
<g>
	<path d="M24.87,30.826c1.217,0.554,2.604,0.543,4.018-0.026c2.075-0.837,3.771-3.33,3.013-6.056
		c-0.423-1.521-1.346-2.575-2.847-3.25v7.828h-6.071C23.516,29.982,24.156,30.502,24.87,30.826z"/>
	<path d="M22.465,3.176C11.892,3.176,3.32,11.747,3.32,22.32c0,10.573,8.571,19.146,19.146,19.146S41.61,32.895,41.61,22.321
		C41.61,11.748,33.039,3.176,22.465,3.176z M35.563,32.568c-1.742,2.264-4.499,3.885-7.192,4.231
		c-0.515,0.065-1.021,0.098-1.52,0.098c-4.782,0-8.782-2.971-10.229-7.571H9.941V10.328h19.113v5.216
		c4.323,0.92,7.5,3.939,8.442,8.169C38.192,26.847,37.487,30.074,35.563,32.568z"/>
	<path d="M29.054,17.597v1.76c2.507,0.87,4.115,2.491,4.773,4.854c1.056,3.805-1.305,7.282-4.19,8.443
		c-0.963,0.392-1.927,0.583-2.865,0.583c-0.94,0-1.859-0.193-2.729-0.59c-1.425-0.646-2.632-1.827-3.454-3.322h-1.863
		c1.612,4.194,5.715,5.967,9.386,5.489c2.188-0.279,4.438-1.608,5.866-3.468c1.562-2.021,2.132-4.646,1.565-7.198
		C34.797,20.801,32.418,18.446,29.054,17.597z"/>
	<polygon points="13.712,21.565 12.103,16.534 10.854,16.534 13.24,24.074 14.163,24.074 16.573,16.534 15.299,16.534 	"/>
	<path d="M21.262,23.365c0.529-0.663,0.821-1.855,0.821-3.049c0-0.944-0.19-1.901-0.505-2.565c-0.475-0.923-1.14-1.351-2.095-1.351
		c-0.866,0-1.475,0.271-1.925,0.844c-0.506,0.721-0.821,1.835-0.821,3.072c0,0.899,0.216,1.9,0.529,2.542
		c0.449,0.923,1.114,1.353,2.172,1.353C20.227,24.21,20.834,23.938,21.262,23.365z M18.403,22.409
		c-0.293-0.475-0.449-1.295-0.449-2.094c0-0.631,0.102-1.315,0.293-1.768c0.248-0.642,0.607-0.936,1.146-0.936
		c0.024,0,0.045,0,0.067,0c0.45,0.034,0.745,0.192,0.979,0.586c0.293,0.507,0.45,1.271,0.45,2.114
		c0.001,0.586-0.135,1.33-0.293,1.724c-0.259,0.664-0.604,0.957-1.159,0.957C18.955,22.994,18.639,22.803,18.403,22.409z"/>
	<path d="M25.659,24.21c1.079,0,1.821-0.562,2.271-1.666l-1.136-0.428c-0.292,0.605-0.663,0.877-1.17,0.877
		c-0.528,0-0.865-0.191-1.137-0.585c-0.292-0.475-0.473-1.296-0.473-2.117c0-0.642,0.103-1.292,0.293-1.744
		c0.256-0.662,0.661-0.933,1.271-0.933c0.573,0,0.82,0.156,1.237,0.799l1.113-0.474c-0.506-1.059-1.214-1.54-2.351-1.54
		c-0.854,0-1.485,0.291-1.936,0.844c-0.528,0.664-0.843,1.857-0.843,3.051c0,0.943,0.214,1.899,0.548,2.563
		C23.837,23.781,24.545,24.21,25.659,24.21z"/>
</g>
</svg>
