<?xml version="1.0" encoding="utf-8"?>
<!-- Generator: Adobe Illustrator 15.1.0, SVG Export Plug-In . SVG Version: 6.00 Build 0)  -->
<!DOCTYPE svg PUBLIC "-//W3C//DTD SVG 1.1//EN" "http://www.w3.org/Graphics/SVG/1.1/DTD/svg11.dtd">
<svg version="1.1"
	 id="Layer_1" sodipodi:docname="ecobee.svg" inkscape:version="0.48.2 r9819" xmlns:svg="http://www.w3.org/2000/svg" xmlns:rdf="http://www.w3.org/1999/02/22-rdf-syntax-ns#" xmlns:dc="http://purl.org/dc/elements/1.1/" xmlns:inkscape="http://www.inkscape.org/namespaces/inkscape" xmlns:sodipodi="http://sodipodi.sourceforge.net/DTD/sodipodi-0.dtd" xmlns:cc="http://creativecommons.org/ns#"
	 xmlns="http://www.w3.org/2000/svg" xmlns:xlink="http://www.w3.org/1999/xlink" x="0px" y="0px" width="44.637px"
	 height="44.637px" viewBox="0 0 44.637 44.637" enable-background="new 0 0 44.637 44.637" xml:space="preserve">
<path fill="#FFFFFF" d="M22.32,43.138c-11.498,0-20.812-9.322-20.812-20.818C1.501,10.823,10.821,1.5,22.32,1.5
	c11.496,0,20.816,9.323,20.816,20.812C43.136,33.815,33.816,43.138,22.32,43.138z"/>
<g>
	<path d="M24.87,30.826c1.217,0.554,2.604,0.543,4.018-0.026c2.075-0.837,3.771-3.33,3.013-6.056
		c-0.423-1.521-1.346-2.575-2.847-3.25v7.828h-6.071C23.516,29.982,24.156,30.502,24.87,30.826z"/>
	<path d="M22.465,3.176C11.892,3.176,3.32,11.747,3.32,22.32c0,10.573,8.571,19.146,19.146,19.146S41.61,32.895,41.61,22.321
		C41.61,11.748,33.039,3.176,22.465,3.176z M35.563,32.568c-1.742,2.264-4.499,3.885-7.192,4.231
		c-0.515,0.065-1.021,0.098-1.52,0.098c-4.782,0-8.782-2.971-10.229-7.571H9.941V10.328h19.113v5.216
		c4.323,0.92,7.5,3.939,8.442,8.169C38.192,26.847,37.487,30.074,35.563,32.568z"/>
	<path d="M29.054,17.597v1.76c2.507,0.87,4.115,2.491,4.773,4.854c1.056,3.805-1.305,7.282-4.19,8.443
		c-0.963,0.392-1.927,0.583-2.865,0.583c-0.94,0-1.859-0.193-2.729-0.59c-1.425-0.646-2.632-1.827-3.454-3.322h-1.863
		c1.612,4.194,5.715,5.967,9.386,5.489c2.188-0.279,4.438-1.608,5.866-3.468c1.562-2.021,2.132-4.646,1.565-7.198
		C34.797,20.801,32.418,18.446,29.054,17.597z"/>
	<path d="M20.911,26.717c0.412-0.412,0.618-0.912,0.618-1.498h3.713c0.286,0,0.534-0.104,0.742-0.312
		c0.21-0.212,0.313-0.459,0.313-0.744c-1.046-0.888-1.837-1.985-2.373-3.289c-0.534-1.305-0.802-2.681-0.802-4.122
		c0-0.91-0.266-1.633-0.795-2.167c-0.533-0.533-1.261-0.858-2.188-0.968c0.045-0.101,0.066-0.202,0.066-0.308
		c0-0.22-0.077-0.406-0.23-0.561c-0.155-0.155-0.342-0.233-0.562-0.233c-0.223,0-0.408,0.078-0.563,0.233
		c-0.152,0.153-0.229,0.341-0.229,0.561c0,0.104,0.021,0.207,0.064,0.308c-0.926,0.107-1.652,0.433-2.184,0.968
		c-0.528,0.533-0.793,1.256-0.793,2.167c0,1.441-0.27,2.817-0.805,4.122c-0.532,1.304-1.324,2.401-2.372,3.289
		c0,0.285,0.104,0.532,0.314,0.744c0.209,0.209,0.457,0.312,0.743,0.312h3.706c0,0.586,0.206,1.086,0.62,1.498
		c0.413,0.414,0.912,0.621,1.497,0.621S20.499,27.131,20.911,26.717z"/>
</g>
</svg>
