<?xml version="1.0" encoding="utf-8"?>
<!-- Generator: Adobe Illustrator 15.1.0, SVG Export Plug-In . SVG Version: 6.00 Build 0)  -->
<!DOCTYPE svg PUBLIC "-//W3C//DTD SVG 1.1//EN" "http://www.w3.org/Graphics/SVG/1.1/DTD/svg11.dtd">
<svg version="1.1"
	 id="Layer_1" sodipodi:docname="ecobee.svg" inkscape:version="0.48.2 r9819" xmlns:svg="http://www.w3.org/2000/svg" xmlns:rdf="http://www.w3.org/1999/02/22-rdf-syntax-ns#" xmlns:dc="http://purl.org/dc/elements/1.1/" xmlns:inkscape="http://www.inkscape.org/namespaces/inkscape" xmlns:sodipodi="http://sodipodi.sourceforge.net/DTD/sodipodi-0.dtd" xmlns:cc="http://creativecommons.org/ns#"
	 xmlns="http://www.w3.org/2000/svg" xmlns:xlink="http://www.w3.org/1999/xlink" x="0px" y="0px" width="44.637px"
	 height="44.637px" viewBox="0 0 44.637 44.637" enable-background="new 0 0 44.637 44.637" xml:space="preserve">
<path fill="#FFFFFF" d="M22.32,43.138c-11.498,0-20.812-9.322-20.812-20.818C1.501,10.823,10.821,1.5,22.32,1.5
	c11.496,0,20.816,9.323,20.816,20.812C43.136,33.815,33.816,43.138,22.32,43.138z"/>
<g>
	<path d="M22.291,13.559c-4.867,0-8.812,3.943-8.812,8.811c0,4.864,3.943,8.811,8.812,8.811c4.862,0,8.81-3.945,8.81-8.811
		C31.101,17.503,27.155,13.559,22.291,13.559z M22.291,29.531c-3.957,0-7.163-3.207-7.163-7.163s3.206-7.162,7.163-7.162
		c3.955,0,7.163,3.206,7.163,7.162C29.453,26.324,26.245,29.531,22.291,29.531z"/>
	<circle cx="22.291" cy="22.369" r="5.116"/>
	<path d="M22.465,3.176C11.892,3.176,3.32,11.747,3.32,22.32c0,10.573,8.571,19.146,19.146,19.146S41.61,32.895,41.61,22.321
		C41.61,11.748,33.039,3.176,22.465,3.176z M22.291,33.205c-5.987,0-10.838-4.854-10.838-10.838c0-5.984,4.851-10.834,10.838-10.834
		c5.98,0,10.836,4.85,10.836,10.834C33.127,28.353,28.273,33.205,22.291,33.205z"/>
</g>
</svg>
