<?xml version="1.0" encoding="utf-8"?>
<!-- Generator: Adobe Illustrator 15.1.0, SVG Export Plug-In . SVG Version: 6.00 Build 0)  -->
<!DOCTYPE svg PUBLIC "-//W3C//DTD SVG 1.1//EN" "http://www.w3.org/Graphics/SVG/1.1/DTD/svg11.dtd">
<svg version="1.1"
	 id="Layer_1" sodipodi:docname="ecobee.svg" inkscape:version="0.48.2 r9819" xmlns:svg="http://www.w3.org/2000/svg" xmlns:rdf="http://www.w3.org/1999/02/22-rdf-syntax-ns#" xmlns:dc="http://purl.org/dc/elements/1.1/" xmlns:inkscape="http://www.inkscape.org/namespaces/inkscape" xmlns:sodipodi="http://sodipodi.sourceforge.net/DTD/sodipodi-0.dtd" xmlns:cc="http://creativecommons.org/ns#"
	 xmlns="http://www.w3.org/2000/svg" xmlns:xlink="http://www.w3.org/1999/xlink" x="0px" y="0px" width="44.637px"
	 height="44.637px" viewBox="0 0 44.637 44.637" enable-background="new 0 0 44.637 44.637" xml:space="preserve">
<path fill="#FFFFFF" d="M22.32,43.138c-11.498,0-20.812-9.322-20.812-20.818C1.501,10.823,10.821,1.5,22.32,1.5
	c11.496,0,20.816,9.323,20.816,20.812C43.136,33.815,33.816,43.138,22.32,43.138z"/>
<g>
	<path d="M24.87,30.826c1.217,0.554,2.604,0.543,4.018-0.026c2.075-0.837,3.771-3.33,3.013-6.056
		c-0.423-1.521-1.346-2.575-2.847-3.25v7.828h-6.071C23.516,29.982,24.156,30.502,24.87,30.826z"/>
	<path d="M22.465,3.176C11.892,3.176,3.32,11.747,3.32,22.32c0,10.573,8.571,19.146,19.146,19.146S41.61,32.895,41.61,22.321
		C41.61,11.748,33.039,3.176,22.465,3.176z M35.563,32.568c-1.742,2.264-4.499,3.885-7.192,4.231
		c-0.515,0.065-1.021,0.098-1.52,0.098c-4.782,0-8.782-2.971-10.229-7.571H9.941V10.328h19.113v5.216
		c4.323,0.92,7.5,3.939,8.442,8.169C38.192,26.847,37.487,30.074,35.563,32.568z"/>
	<path d="M29.054,17.597v1.76c2.507,0.87,4.115,2.491,4.773,4.854c1.056,3.805-1.305,7.282-4.19,8.443
		c-0.963,0.392-1.927,0.583-2.865,0.583c-0.94,0-1.859-0.193-2.729-0.59c-1.425-0.646-2.632-1.827-3.454-3.322h-1.863
		c1.612,4.194,5.715,5.967,9.386,5.489c2.188-0.279,4.438-1.608,5.866-3.468c1.562-2.021,2.132-4.646,1.565-7.198
		C34.797,20.801,32.418,18.446,29.054,17.597z"/>
	<path d="M16.303,15.126H14.83l-3.238,9.397h1.586l0.924-2.64h2.933l0.924,2.64h1.584L16.303,15.126z M14.619,20.37l0.967-2.636
		l0.911,2.636H14.619z"/>
	<path d="M23.523,24.692c0.337,0,0.631-0.071,0.955-0.137l0.363,0.555l1.121-0.711l-0.324-0.537
		c0.758-0.784,1.221-2.369,1.221-4.052c0-1.149-0.237-2.341-0.631-3.169c-0.59-1.178-1.416-1.683-2.663-1.683
		c-1.021,0-1.777,0.338-2.339,1.052c-0.601,0.826-1.021,2.284-1.021,3.798c0,1.178,0.268,2.37,0.658,3.199
		C21.45,24.156,22.25,24.692,23.523,24.692z M22.079,17.636c0.294-0.826,0.757-1.163,1.482-1.163c0.562,0,0.953,0.236,1.248,0.729
		c0.323,0.591,0.562,1.586,0.562,2.607c0.002,1.122-0.234,2.144-0.629,2.733l-0.855-1.246l-1.076,0.713l0.753,1.165
		c-0.435,0-0.753-0.141-0.993-0.366c-0.533-0.534-0.854-1.682-0.854-2.999C21.717,19.052,21.842,18.198,22.079,17.636z"/>
</g>
</svg>
