<?xml version="1.0" encoding="utf-8"?>
<!-- Generator: Adobe Illustrator 15.1.0, SVG Export Plug-In . SVG Version: 6.00 Build 0)  -->
<!DOCTYPE svg PUBLIC "-//W3C//DTD SVG 1.1//EN" "http://www.w3.org/Graphics/SVG/1.1/DTD/svg11.dtd">
<svg version="1.1"
	 id="Layer_1" sodipodi:docname="ecobee.svg" inkscape:version="0.48.2 r9819" xmlns:svg="http://www.w3.org/2000/svg" xmlns:rdf="http://www.w3.org/1999/02/22-rdf-syntax-ns#" xmlns:dc="http://purl.org/dc/elements/1.1/" xmlns:inkscape="http://www.inkscape.org/namespaces/inkscape" xmlns:sodipodi="http://sodipodi.sourceforge.net/DTD/sodipodi-0.dtd" xmlns:cc="http://creativecommons.org/ns#"
	 xmlns="http://www.w3.org/2000/svg" xmlns:xlink="http://www.w3.org/1999/xlink" x="0px" y="0px" width="44.637px"
	 height="44.637px" viewBox="0 0 44.637 44.637" enable-background="new 0 0 44.637 44.637" xml:space="preserve">
<path fill="#FFFFFF" d="M22.32,43.138c-11.498,0-20.812-9.322-20.812-20.818C1.501,10.823,10.821,1.5,22.32,1.5
	c11.496,0,20.816,9.323,20.816,20.812C43.136,33.815,33.816,43.138,22.32,43.138z"/>
<g>
	<path d="M24.87,30.826c1.217,0.554,2.604,0.543,4.018-0.026c2.075-0.837,3.771-3.33,3.013-6.056
		c-0.423-1.521-1.346-2.575-2.847-3.25v7.828h-6.071C23.516,29.982,24.156,30.502,24.87,30.826z"/>
	<path d="M22.465,3.176C11.892,3.176,3.32,11.747,3.32,22.32c0,10.573,8.571,19.146,19.146,19.146S41.61,32.895,41.61,22.321
		C41.61,11.748,33.039,3.176,22.465,3.176z M35.563,32.568c-1.742,2.264-4.499,3.885-7.192,4.231
		c-0.515,0.065-1.021,0.098-1.52,0.098c-4.782,0-8.782-2.971-10.229-7.571H9.941V10.328h19.113v5.216
		c4.323,0.92,7.5,3.939,8.442,8.169C38.192,26.847,37.487,30.074,35.563,32.568z"/>
	<path d="M29.054,17.597v1.76c2.507,0.87,4.115,2.491,4.773,4.854c1.056,3.805-1.305,7.282-4.19,8.443
		c-0.963,0.392-1.927,0.583-2.865,0.583c-0.94,0-1.859-0.193-2.729-0.59c-1.425-0.646-2.632-1.827-3.454-3.322h-1.863
		c1.612,4.194,5.715,5.967,9.386,5.489c2.188-0.279,4.438-1.608,5.866-3.468c1.562-2.021,2.132-4.646,1.565-7.198
		C34.797,20.801,32.418,18.446,29.054,17.597z"/>
	<path d="M20.626,22.961c0.449-0.286,0.858-0.498,1.346-0.858c0.342-0.254,0.83-0.912,1.305-0.897c0.56,0.015,1.152,1.17,1.39,1.632
		c0.608,1.196,0.746,2.542,0.774,4.243c0.463,0,0.925,0,1.386,0l-0.736-4.441c-0.43-0.201-0.562-0.71-0.775-1.061
		c-0.451-0.745-0.977-1.354-1.631-1.958c-0.317-0.295-0.59-0.644-0.897-0.898c-0.273-0.227-0.654-0.39-0.979-0.611
		c-0.311-0.212-0.588-0.511-0.896-0.692c-0.562-0.334-1.24-0.624-1.877-0.897c-0.652-0.279-1.326-0.58-2.04-0.734
		c-0.006-0.228-0.498-0.183-0.448-0.326c3.577-0.006,5.926,1.413,7.874,3.182c0.266,0.24,0.531,0.539,0.896,0.652
		c0.318-1.002-0.032-2.009-0.444-2.653c-0.492-0.769-1.396-1.704-2.162-2.243c-0.715-0.506-1.308-0.705-2.203-0.897
		c-2.816-0.609-6.441,0.339-8.608,1.143c0.058,0.289,0.326,0.446,0.489,0.65c0.172,0.213,0.292,0.459,0.492,0.651
		c0.666,1.447,1.055,3.199,1.916,4.609C15.787,22.177,17.969,24.088,20.626,22.961z"/>
</g>
</svg>
