<?xml version="1.0" encoding="utf-8"?>
<!-- Generator: Adobe Illustrator 15.1.0, SVG Export Plug-In . SVG Version: 6.00 Build 0)  -->
<!DOCTYPE svg PUBLIC "-//W3C//DTD SVG 1.1//EN" "http://www.w3.org/Graphics/SVG/1.1/DTD/svg11.dtd">
<svg version="1.1"
	 id="Layer_1" sodipodi:docname="ecobee.svg" inkscape:version="0.48.2 r9819" xmlns:rdf="http://www.w3.org/1999/02/22-rdf-syntax-ns#" xmlns:sodipodi="http://sodipodi.sourceforge.net/DTD/sodipodi-0.dtd" xmlns:inkscape="http://www.inkscape.org/namespaces/inkscape" xmlns:dc="http://purl.org/dc/elements/1.1/" xmlns:cc="http://creativecommons.org/ns#" xmlns:svg="http://www.w3.org/2000/svg"
	 xmlns="http://www.w3.org/2000/svg" xmlns:xlink="http://www.w3.org/1999/xlink" x="0px" y="0px" width="44.637px"
	 height="44.637px" viewBox="0 0 44.637 44.637" enable-background="new 0 0 44.637 44.637" xml:space="preserve">
<path fill="#FFFFFF" d="M22.32,43.138c-11.498,0-20.817-9.322-20.817-20.818C1.501,10.823,10.821,1.5,22.32,1.5
	c11.496,0,20.816,9.323,20.816,20.818C43.136,33.815,33.816,43.138,22.32,43.138z"/>
<g>
	<path d="M22.465,3.176C11.892,3.176,3.32,11.747,3.32,22.32c0,10.573,8.571,19.146,19.146,19.146S41.61,32.895,41.61,22.321
		C41.61,11.748,33.039,3.176,22.465,3.176z M14.971,10.414c0.117-0.131,2.914-3.227,8.175-3.227c5.223,0,8.396,3.045,8.529,3.177
		c0.379,0.368,0.386,0.979,0.016,1.355c-0.371,0.379-0.979,0.387-1.356,0.015c-0.024-0.021-2.776-2.627-7.188-2.627
		c-4.404,0-6.714,2.553-6.735,2.577c-0.19,0.215-0.455,0.324-0.722,0.324c-0.226,0-0.453-0.079-0.635-0.241
		C14.657,11.416,14.619,10.811,14.971,10.414z M23.097,15.973c-1.104,0-1.688,0.604-1.714,0.631
		c-0.359,0.379-0.964,0.41-1.353,0.056c-0.387-0.354-0.425-0.945-0.075-1.34c0.112-0.13,1.178-1.267,3.142-1.267
		c1.926,0,3.098,1.092,3.228,1.217c0.379,0.37,0.386,0.979,0.016,1.357c-0.189,0.191-0.438,0.289-0.688,0.289
		c-0.24,0-0.482-0.092-0.672-0.274C24.959,16.622,24.25,15.973,23.097,15.973z M24.324,18.2c0,0.54-0.438,0.978-0.979,0.978
		s-0.978-0.438-0.978-0.978c0-0.541,0.438-0.979,0.978-0.979S24.324,17.659,24.324,18.2z M23.085,12.651
		c-2.672,0-4.074,1.506-4.132,1.567c-0.356,0.39-0.961,0.423-1.354,0.069c-0.393-0.354-0.43-0.952-0.08-1.35
		c0.08-0.09,1.996-2.209,5.565-2.209c3.527,0,5.688,2.072,5.777,2.159c0.381,0.37,0.388,0.979,0.017,1.358
		c-0.188,0.191-0.437,0.29-0.687,0.29c-0.24,0-0.482-0.095-0.671-0.274C27.508,14.25,25.805,12.651,23.085,12.651z M20.882,21.928
		c0.001-0.001,0.135-0.073,0.442-0.073c0.244,0,0.527,0.044,0.843,0.132c0.993,0.275,7.927,1.944,10.607,2.589l-6.325,4.69
		c-0.018,0.013-0.423,0.3-1.194,0.3c-0.28,0-0.576-0.038-0.881-0.114c-1.274-0.318-7.755-2.37-10.287-3.177L20.882,21.928z
		 M13.204,12.278l-0.018-0.01c0.009-0.012,0.021-0.023,0.029-0.037L13.204,12.278z M33.435,30.929l-0.294,0.207
		c-0.391-0.413-1.117-0.729-1.864-0.406c-0.917,0.398-3.786,2.006-4.436,3.383c-0.34,0.723-0.483,1.206-0.544,1.498l-1.511,0.736
		l-1.634-0.723c-0.021-1.26-0.92-1.717-1.014-1.76c-0.225-0.078-5.523-1.916-6.627-2.123l-0.181-0.019
		c-0.25,0-0.477,0.104-0.639,0.295c-0.178,0.21-0.255,0.51-0.281,0.805l-0.992-0.495v-5.213c2.222,0.706,9.324,2.962,10.711,3.309
		c0.384,0.096,0.762,0.145,1.124,0.145c1.113,0,1.731-0.451,1.792-0.498l6.388-4.735L33.435,30.929L33.435,30.929z"/>
</g>
</svg>
