<?xml version="1.0" encoding="utf-8"?>
<!-- Generator: Adobe Illustrator 15.1.0, SVG Export Plug-In . SVG Version: 6.00 Build 0)  -->
<!DOCTYPE svg PUBLIC "-//W3C//DTD SVG 1.1//EN" "http://www.w3.org/Graphics/SVG/1.1/DTD/svg11.dtd">
<svg version="1.1"
	 id="Layer_1" sodipodi:docname="ecobee.svg" inkscape:version="0.48.2 r9819" xmlns:inkscape="http://www.inkscape.org/namespaces/inkscape" xmlns:cc="http://creativecommons.org/ns#" xmlns:sodipodi="http://sodipodi.sourceforge.net/DTD/sodipodi-0.dtd" xmlns:rdf="http://www.w3.org/1999/02/22-rdf-syntax-ns#" xmlns:svg="http://www.w3.org/2000/svg" xmlns:dc="http://purl.org/dc/elements/1.1/"
	 xmlns="http://www.w3.org/2000/svg" xmlns:xlink="http://www.w3.org/1999/xlink" x="0px" y="0px" width="44.637px"
	 height="44.637px" viewBox="0 0 44.637 44.637" enable-background="new 0 0 44.637 44.637" xml:space="preserve">
<path fill="#FFFFFF" d="M22.32,43.139c-11.496,0-20.812-9.322-20.812-20.818C1.503,10.824,10.823,1.501,22.321,1.501
	c11.494,0,20.814,9.323,20.813,20.813C43.134,33.816,33.814,43.139,22.32,43.139z"/>
<g>
	<path d="M22.466,3.177c-10.572,0-19.146,8.572-19.146,19.144c0,10.573,8.571,19.146,19.146,19.146s19.143-8.571,19.144-19.146
		C41.61,11.749,33.039,3.177,22.466,3.177z M21.148,9.327h2.215c0.188,0,0.34,0.229,0.34,0.509s-0.151,0.509-0.34,0.509h-2.215
		c-0.188,0-0.339-0.229-0.339-0.509S20.96,9.327,21.148,9.327z M17.092,13.318c5.764-4.831,10.326,0,10.326,0v0.933H17.092V13.318z
		 M14.992,36.079c-0.115-2.427,2.885-2.264,3-4.688c0.023-0.031,0.062-0.052,0.104-0.066c4.729,0.045,3.663-0.094,8.33,0.066
		c0.115,2.425,3.115,2.261,3,4.688C24.88,36.136,19.575,36.137,14.992,36.079z M28.771,23.769c-0.422,0.521-1.064,0.994-1.859,1.154
		c-0.256,0.051-0.381,0.003-0.635,0.024c-0.139,0.875-0.501,4.217-0.641,5.076c-2.127,0.114-4.727,0.115-6.854,0
		c-0.403-1.907-0.613-4.021-0.931-6.062c0,0-0.729-6.748-0.758-8.482l10.196-0.034l-0.197,3.112c0.039,0.01,2.301,1.532,2.406,2.928
		C29.573,22.463,29.217,23.214,28.771,23.769z"/>
	<path d="M27.335,20.166c-0.084-0.023-0.177-0.007-0.214,0c-0.136,0.026-0.228,0.114-0.29,0.241
		c-0.04,0.281-0.081,0.563-0.123,0.848c0,0.271,0.014,0.561,0.014,0.819c0,0.566,0.029,1.061,0.307,1.178
		c0.205,0.086,0.495-0.005,0.659-0.165C28.388,22.404,28.241,20.422,27.335,20.166z"/>
</g>
</svg>
