<?xml version="1.0" encoding="utf-8"?>
<!-- Generator: Adobe Illustrator 15.1.0, SVG Export Plug-In . SVG Version: 6.00 Build 0)  -->
<!DOCTYPE svg PUBLIC "-//W3C//DTD SVG 1.1//EN" "http://www.w3.org/Graphics/SVG/1.1/DTD/svg11.dtd">
<svg version="1.1"
	 id="Layer_1" sodipodi:docname="ecobee.svg" inkscape:version="0.48.2 r9819" xmlns:svg="http://www.w3.org/2000/svg" xmlns:rdf="http://www.w3.org/1999/02/22-rdf-syntax-ns#" xmlns:dc="http://purl.org/dc/elements/1.1/" xmlns:inkscape="http://www.inkscape.org/namespaces/inkscape" xmlns:sodipodi="http://sodipodi.sourceforge.net/DTD/sodipodi-0.dtd" xmlns:cc="http://creativecommons.org/ns#"
	 xmlns="http://www.w3.org/2000/svg" xmlns:xlink="http://www.w3.org/1999/xlink" x="0px" y="0px" width="44.637px"
	 height="44.637px" viewBox="0 0 44.637 44.637" enable-background="new 0 0 44.637 44.637" xml:space="preserve">
<path fill="#FFFFFF" d="M22.32,43.138c-11.498,0-20.814-9.322-20.814-20.818C1.501,10.823,10.821,1.5,22.32,1.5
	c11.496,0,20.816,9.323,20.816,20.815C43.136,33.815,33.816,43.138,22.32,43.138z"/>
<g>
	<path d="M22.465,3.176C11.892,3.176,3.32,11.747,3.32,22.32c0,10.573,8.571,19.146,19.146,19.146S41.61,32.895,41.61,22.321
		C41.61,11.748,33.039,3.176,22.465,3.176z M31.624,11.283l0.893-1.097c0.24-0.295,0.67-0.339,0.965-0.1
		c0.295,0.24,0.338,0.672,0.101,0.965l-0.896,1.098c-0.106,0.134-0.256,0.215-0.41,0.242c-0.188,0.033-0.393-0.014-0.555-0.145
		C31.429,12.01,31.384,11.577,31.624,11.283z M27.314,8.232l0.578-1.291c0.154-0.345,0.56-0.5,0.906-0.346
		c0.344,0.156,0.5,0.562,0.344,0.908l-0.578,1.29c-0.096,0.216-0.289,0.356-0.506,0.396c-0.131,0.023-0.27,0.009-0.399-0.05
		C27.312,8.984,27.157,8.577,27.314,8.232z M22.714,5.288c0.38-0.007,0.689,0.297,0.698,0.676l0.02,1.413
		c0.006,0.378-0.297,0.689-0.676,0.696c-0.043,0.002-0.088-0.005-0.129-0.011c-0.318-0.057-0.562-0.332-0.566-0.666L22.04,5.983
		C22.032,5.604,22.335,5.293,22.714,5.288z M16.855,6.304c0.354-0.136,0.75,0.042,0.888,0.396l0.502,1.32
		c0.135,0.354-0.043,0.751-0.396,0.886c-0.041,0.018-0.084,0.026-0.125,0.034c-0.318,0.058-0.641-0.118-0.76-0.432l-0.504-1.322
		C16.324,6.835,16.502,6.439,16.855,6.304z M11.737,9.268c0.24-0.295,0.673-0.339,0.968-0.1l1.096,0.893
		c0.293,0.24,0.338,0.672,0.1,0.965c-0.108,0.134-0.256,0.216-0.414,0.243c-0.188,0.034-0.391-0.013-0.553-0.144l-1.096-0.896
		C11.543,9.992,11.498,9.561,11.737,9.268z M8.164,13.952c0.161-0.346,0.568-0.492,0.914-0.331l1.278,0.601
		c0.344,0.162,0.491,0.571,0.331,0.913c-0.075,0.154-0.196,0.269-0.343,0.336c-0.176,0.079-0.383,0.083-0.572-0.006l-1.279-0.604
		C8.15,14.701,8.003,14.294,8.164,13.952z M6.972,19.882c-0.006-0.38,0.297-0.691,0.677-0.697l1.413-0.021
		c0.379-0.005,0.69,0.297,0.696,0.675c0.001,0.171-0.058,0.329-0.16,0.452c-0.124,0.147-0.308,0.241-0.517,0.245l-1.415,0.02
		C7.289,20.562,6.978,20.26,6.972,19.882z M22.732,36.662c-7.402,0-13.189-4.461-14.402-11.902h14.189l2.084-7.716
		c-0.014-0.003-0.026-0.003-0.041-0.005c-0.399-0.035-1.408,0.359-1.796,0.475c-0.123,0.038-0.255-0.01-0.328-0.116
		c-0.07-0.107-0.063-0.249,0.018-0.35l3.881-5.429c0.076-0.096,0.207-0.134,0.322-0.093c0.114,0.039,0.194,0.148,0.196,0.271
		l0.484,6.354c0.002,0.131-0.08,0.246-0.203,0.287c-0.041,0.013-0.08,0.018-0.119,0.014c-0.084-0.009-0.164-0.053-0.215-0.124
		c-0.281-0.404-0.648-0.727-1.075-0.949l-1.992,7.38h13.396C36.045,32.201,30.134,36.662,22.732,36.662z M38.615,20.896
		c-0.007,0.377-0.317,0.681-0.694,0.674l-1.415-0.02c-0.209-0.004-0.394-0.097-0.518-0.245c-0.103-0.124-0.16-0.281-0.159-0.452
		c0.006-0.378,0.316-0.68,0.695-0.675l1.413,0.021C38.319,20.204,38.621,20.515,38.615,20.896z M37.051,14.683
		c0.162,0.342,0.014,0.75-0.327,0.91l-1.28,0.603c-0.189,0.088-0.396,0.085-0.569,0.007c-0.147-0.066-0.271-0.183-0.346-0.336
		c-0.159-0.343-0.012-0.75,0.33-0.912l1.281-0.602C36.484,14.191,36.893,14.338,37.051,14.683z"/>
</g>
</svg>
