<?xml version="1.0" encoding="utf-8"?>
<!-- Generator: Adobe Illustrator 15.1.0, SVG Export Plug-In . SVG Version: 6.00 Build 0)  -->
<!DOCTYPE svg PUBLIC "-//W3C//DTD SVG 1.1//EN" "http://www.w3.org/Graphics/SVG/1.1/DTD/svg11.dtd">
<svg version="1.1"
	 id="Layer_1" xmlns:svg="http://www.w3.org/2000/svg" xmlns:rdf="http://www.w3.org/1999/02/22-rdf-syntax-ns#" xmlns:cc="http://creativecommons.org/ns#" xmlns:dc="http://purl.org/dc/elements/1.1/" sodipodi:docname="insteon_LED.svg" xmlns:inkscape="http://www.inkscape.org/namespaces/inkscape" xmlns:sodipodi="http://sodipodi.sourceforge.net/DTD/sodipodi-0.dtd" inkscape:version="0.48.1 r9760"
	 xmlns="http://www.w3.org/2000/svg" xmlns:xlink="http://www.w3.org/1999/xlink" x="0px" y="0px" width="44.637px"
	 height="44.637px" viewBox="0 0 44.637 44.637" enable-background="new 0 0 44.637 44.637" xml:space="preserve">
<sodipodi:namedview  inkscape:window-maximized="0" inkscape:window-y="0" inkscape:window-x="0" inkscape:window-height="1156" inkscape:window-width="1910" showgrid="false" inkscape:current-layer="Layer_1" inkscape:cy="22.318501" inkscape:zoom="21.013957" inkscape:pageshadow="2" bordercolor="#666666" borderopacity="1" inkscape:cx="22.318501" inkscape:pageopacity="0" pagecolor="#ffffff" id="namedview11726" guidetolerance="10" objecttolerance="10" gridtolerance="10">
	</sodipodi:namedview>
<g id="g11706">
	<g id="g11708">
	</g>
	<g id="g11712">
	</g>
	<g id="g11716">
	</g>
	<g id="g11720">
	</g>
</g>
<path fill="none" d="M22.32,1.428c-11.498,0-20.813,9.321-20.813,20.821c0,11.496,9.315,20.812,20.813,20.812
	c11.496,0.003,20.816-9.317,20.816-20.812C43.136,10.749,33.816,1.428,22.32,1.428z M22.465,41.391
	c-10.573,0-19.146-8.573-19.146-19.143c0-10.574,8.573-19.146,19.146-19.146c10.574,0,19.145,8.571,19.145,19.146
	C41.609,32.817,33.042,41.391,22.465,41.391z"/>
<g>
	<path fill="#FFFFFF" d="M22.32,43.061c-11.498,0-20.813-9.315-20.813-20.812c0-11.5,9.315-20.821,20.813-20.821
		c11.496,0,20.816,9.321,20.816,20.821C43.136,33.743,33.816,43.064,22.32,43.061z"/>
	<g>
		<path d="M10.842,26.922c0.777-0.084,1.574-0.527,2.176-0.848c0.662-0.35,1.218-0.723,1.832-1.209
			c0.873-0.691,1.627-1.365,2.281-2.252c0.215-0.292,0.463-0.647,0.535-0.984c0.098-0.452-0.068-0.63-0.328-0.778
			c-0.302-0.012-0.513-0.051-0.794,0c-0.362,0.066-0.734,0.23-1.089,0.38c-1.064,0.45-1.885,1.007-2.766,1.674
			c-0.59,0.445-1.018,0.889-1.537,1.407c-0.229,0.227-0.478,0.498-0.691,0.795c-0.212,0.293-0.443,0.668-0.518,0.967
			C9.781,26.714,10.192,26.99,10.842,26.922z"/>
		<path d="M22.465,3.102c-10.573,0-19.146,8.572-19.146,19.146c0,10.569,8.573,19.143,19.146,19.143
			c10.577,0,19.144-8.574,19.145-19.143C41.61,11.673,33.039,3.102,22.465,3.102z M10.201,24.657
			c0.355-0.479,0.775-0.942,1.176-1.376c1.716-1.699,3.547-3.289,5.996-4.262c0.574-0.194,1.594-0.402,1.918,0.155
			c0.18,0.881-0.236,1.62-0.657,2.247c-0.81,1.206-1.745,2.191-2.816,3.149c-1.098,0.986-2.149,1.764-3.524,2.455
			c-0.448,0.225-0.934,0.447-1.417,0.568c-0.467,0.119-1.138,0.221-1.642,0.088c-0.09-0.061-0.209-0.092-0.311-0.139
			c-0.447,0.56-0.782,1.208-1.158,1.832c-0.375,0.619-0.74,1.246-1.106,1.865c0.12-0.373,0.275-0.731,0.433-1.07
			c0.156-0.34,0.32-0.668,0.501-0.984c0.296-0.695,0.659-1.322,1.003-1.971c-0.24-0.707-0.008-1.496,0.224-2.074
			c0.635-1.573,1.653-3.02,2.782-4.134c1.35-1.332,3.006-2.388,4.77-3.162c0.029-0.068,0.129-0.067,0.173-0.121
			c-0.114-0.067-0.151,0.075-0.294,0.035c-0.836,0.313-1.625,0.659-2.385,1.037c-2.268,1.126-4.179,2.667-5.91,4.35
			c0.338-0.798,0.662-1.614,0.969-2.449c3.229-2.26,7.062-3.915,12.354-4.113c-0.357,0.171-0.767,0.205-1.141,0.311
			c-3.589,1.019-6.728,2.695-8.777,5.288c-0.662,0.833-1.311,1.752-1.555,2.908C9.992,25.073,10.087,24.813,10.201,24.657z
			 M23.717,19.486c-0.053,2.385,0.016,4.877-0.035,7.261c-0.421-0.011-0.886,0.022-1.281-0.016
			c-0.039-2.373-0.006-4.809-0.018-7.211c-0.576-0.091-1.346,0.011-1.951-0.052c-0.041-0.363-0.006-0.8-0.018-1.192
			c0-0.03,0.012-0.045,0.035-0.052c1.733,0.012,3.515-0.023,5.22,0.017c0.028,0.37,0.028,0.857,0,1.227
			C25.053,19.509,24.362,19.475,23.717,19.486z M32.271,25.953c-0.083,0.153-0.261,0.214-0.397,0.294
			c-0.4,0.231-0.893,0.474-1.452,0.57c-1.459,0.251-2.703-0.246-3.542-0.897c-0.855-0.668-1.554-1.699-1.659-2.946
			c-0.125-1.476,0.422-2.641,1.141-3.436c0.747-0.827,1.705-1.344,3.128-1.469c0.104-0.009,0.217-0.007,0.311,0
			c1.037,0.07,1.875,0.394,2.472,0.916c0.04,0.519,0.005,1.111,0.016,1.659c-0.124,0.027-0.227-0.159-0.327-0.259
			c-0.68-0.68-1.925-1.357-3.283-0.898c-1.224,0.413-2.469,1.846-2.092,3.625c0.26,1.211,1.33,2.355,2.679,2.497
			c0.817,0.087,1.515-0.159,2.021-0.484c0.376-0.24,0.666-0.566,0.986-0.83C32.299,24.807,32.299,25.442,32.271,25.953z
			 M37.955,21.059c-0.09,0.774-0.504,1.344-1.055,1.692c-0.571,0.359-1.332,0.486-2.264,0.429c-0.092,1.104,0.012,2.41-0.051,3.552
			c-0.395,0.028-0.904,0.028-1.296,0c0-2.828,0-5.645,0-8.472c-0.002-0.03,0.013-0.045,0.033-0.052
			c0.999,0.023,1.911-0.057,2.714,0.086C37.223,18.506,38.129,19.547,37.955,21.059z"/>
		<path d="M34.604,19.538c0.01,0.789-0.023,1.624,0.016,2.384c0.842,0.081,1.59-0.081,1.901-0.587
			c0.062-0.239,0.141-0.425,0.138-0.657c-0.008-0.979-0.823-1.282-2.004-1.192C34.629,19.496,34.612,19.513,34.604,19.538z"/>
	</g>
</g>
</svg>
