<?xml version="1.0" encoding="utf-8"?>
<!-- Generator: Adobe Illustrator 15.1.0, SVG Export Plug-In . SVG Version: 6.00 Build 0)  -->
<!DOCTYPE svg PUBLIC "-//W3C//DTD SVG 1.1//EN" "http://www.w3.org/Graphics/SVG/1.1/DTD/svg11.dtd">
<svg version="1.1"
	 id="Layer_1" sodipodi:docname="insteon_LED.svg" inkscape:version="0.48.1 r9760" xmlns:rdf="http://www.w3.org/1999/02/22-rdf-syntax-ns#" xmlns:sodipodi="http://sodipodi.sourceforge.net/DTD/sodipodi-0.dtd" xmlns:inkscape="http://www.inkscape.org/namespaces/inkscape" xmlns:dc="http://purl.org/dc/elements/1.1/" xmlns:cc="http://creativecommons.org/ns#" xmlns:svg="http://www.w3.org/2000/svg"
	 xmlns="http://www.w3.org/2000/svg" xmlns:xlink="http://www.w3.org/1999/xlink" x="0px" y="0px" width="44.637px"
	 height="44.637px" viewBox="0 0 44.637 44.637" enable-background="new 0 0 44.637 44.637" xml:space="preserve">
<sodipodi:namedview  bordercolor="#666666" pagecolor="#ffffff" inkscape:window-maximized="0" inkscape:window-y="0" inkscape:window-x="0" inkscape:cx="22.318501" inkscape:window-height="1156" showgrid="false" inkscape:current-layer="Layer_1" inkscape:cy="22.318501" inkscape:pageshadow="2" id="namedview11726" inkscape:pageopacity="0" borderopacity="1" gridtolerance="10" inkscape:zoom="21.013957" inkscape:window-width="1910" guidetolerance="10" objecttolerance="10">
	</sodipodi:namedview>
<g id="g11706">
	<g id="g11708">
	</g>
	<g id="g11712">
	</g>
	<g id="g11716">
	</g>
	<g id="g11720">
	</g>
</g>
<path fill="#FFFFFF" d="M22.32,43.063c-11.498,0-20.815-9.317-20.815-20.812c0-11.5,9.317-20.821,20.815-20.821
	c11.496,0,20.816,9.321,20.816,20.821C43.136,33.743,33.816,43.064,22.32,43.063z"/>
<g>
	<path d="M22.465,3.102c-10.573,0-19.146,8.572-19.146,19.146c0,10.569,8.573,19.143,19.146,19.143
		c10.575,0,19.144-8.572,19.145-19.143C41.61,11.673,33.039,3.102,22.465,3.102z M30.849,17.865
		c-0.354-1.662-2.404-1.629-4.285-1.766c-1.445,6.449-2.676,13.114-4.033,19.655c-1.423-6.473-2.634-13.157-4.03-19.655
		c-1.857,0.158-3.988,0.043-4.283,1.766c-1.309-0.453-2.521-1.008-3.213-2.078c1.744-0.66,4.689-0.949,7.309-1.07
		c0.784-0.037,1.957-0.291,2.709-0.064c0.641,0.194,0.936,1.269,1.446,1.64c0.526-0.504,0.938-1.121,1.45-1.641
		c3.768-0.025,7.268,0.211,10.08,1.137C33.487,16.769,32.091,17.408,30.849,17.865z M34.563,14.906
		c-0.383,0.074-2.15-0.583-2.709-0.694c-6.561-1.316-15.789-1.078-21.418,0.756c-0.271-0.326-0.754-0.75-0.757-1.135
		c7.096-2.04,18.544-2.044,25.642,0C35.255,14.163,34.956,14.826,34.563,14.906z"/>
</g>
</svg>
