<?xml version="1.0" encoding="utf-8"?>
<!-- Generator: Adobe Illustrator 15.1.0, SVG Export Plug-In . SVG Version: 6.00 Build 0)  -->
<!DOCTYPE svg PUBLIC "-//W3C//DTD SVG 1.1//EN" "http://www.w3.org/Graphics/SVG/1.1/DTD/svg11.dtd">
<svg version="1.1"
	 id="Layer_1" sodipodi:docname="insteon_LED.svg" inkscape:version="0.48.1 r9760" xmlns:rdf="http://www.w3.org/1999/02/22-rdf-syntax-ns#" xmlns:sodipodi="http://sodipodi.sourceforge.net/DTD/sodipodi-0.dtd" xmlns:inkscape="http://www.inkscape.org/namespaces/inkscape" xmlns:dc="http://purl.org/dc/elements/1.1/" xmlns:cc="http://creativecommons.org/ns#" xmlns:svg="http://www.w3.org/2000/svg"
	 xmlns="http://www.w3.org/2000/svg" xmlns:xlink="http://www.w3.org/1999/xlink" x="0px" y="0px" width="44.637px"
	 height="44.637px" viewBox="0 0 44.637 44.637" enable-background="new 0 0 44.637 44.637" xml:space="preserve">
<sodipodi:namedview  bordercolor="#666666" pagecolor="#ffffff" inkscape:window-maximized="0" inkscape:window-y="0" inkscape:window-x="0" inkscape:cx="22.318501" inkscape:window-height="1156" showgrid="false" inkscape:current-layer="Layer_1" inkscape:cy="22.318501" inkscape:pageshadow="2" id="namedview11726" inkscape:pageopacity="0" borderopacity="1" gridtolerance="10" inkscape:zoom="21.013957" inkscape:window-width="1910" guidetolerance="10" objecttolerance="10">
	</sodipodi:namedview>
<g id="g11706">
	<g id="g11708">
	</g>
	<g id="g11712">
	</g>
	<g id="g11716">
	</g>
	<g id="g11720">
	</g>
</g>
<g id="Livello_1_2_">
</g>
<path fill="#FFFFFF" d="M22.32,43.061c-11.498,0-20.812-9.313-20.812-20.812c0-11.5,9.313-20.821,20.812-20.821
	c11.496,0,20.816,9.321,20.816,20.821C43.136,33.743,33.816,43.064,22.32,43.061z"/>
<g>
	<path d="M22.465,3.102c-10.573,0-19.146,8.572-19.146,19.146c0,10.567,8.573,19.143,19.146,19.143
		c10.577,0,19.144-8.574,19.145-19.143C41.61,11.673,33.039,3.102,22.465,3.102z M38.235,16.515c0.016,0.012,0.03,0.021,0.043,0.036
		c0.042,0.047,0.074,0.101,0.089,0.164c0.001,0.001,0.002,0.002,0.002,0.003l0.639,3.008c0.021,0.107-0.003,0.219-0.069,0.307
		l-14.05,18.362c-0.014,0.02-0.035,0.027-0.052,0.043c-0.01,0.01-0.012,0.022-0.022,0.03c-0.008,0.006-0.018,0.003-0.024,0.009
		c-0.061,0.038-0.126,0.065-0.198,0.065c-0.023,0-0.047-0.002-0.07-0.007c-0.024-0.006-0.044-0.024-0.067-0.034
		c-0.021-0.009-0.044-0.006-0.063-0.02L6.66,27.101c-0.078-0.05-0.135-0.127-0.159-0.216l-0.896-3.247
		c-0.002-0.007,0.002-0.013,0-0.02c-0.002-0.011-0.009-0.02-0.011-0.029c-0.008-0.057,0-0.113,0.017-0.167
		c0.003-0.01,0.011-0.016,0.015-0.025c0.016-0.038,0.032-0.076,0.06-0.106l14.28-16.07c0.114-0.13,0.302-0.163,0.455-0.083
		l17.754,9.329C38.198,16.477,38.214,16.498,38.235,16.515z"/>
	<polygon points="11.683,17.67 29.028,27.528 29.64,26.753 12.347,16.923 	"/>
	<polygon points="12.955,16.24 30.202,26.042 30.817,25.267 13.618,15.491 	"/>
	<polygon points="6.538,23.46 23.581,34.406 26.924,30.185 27.341,29.657 9.86,19.721 	"/>
	<polygon points="10.469,19.037 27.904,28.948 28.464,28.24 11.075,18.354 	"/>
	<polygon points="14.226,14.808 31.379,24.556 31.992,23.781 14.89,14.061 	"/>
	<polygon points="18.056,10.497 33.518,16.797 33.18,17.627 17.425,11.208 16.77,11.946 33.73,21.587 37.426,16.918 20.332,7.936 	
		"/>
	<polygon points="15.498,13.377 32.555,23.071 33.167,22.298 16.161,12.63 	"/>
</g>
</svg>
