<?xml version="1.0" encoding="utf-8"?>
<!-- Generator: Adobe Illustrator 15.1.0, SVG Export Plug-In . SVG Version: 6.00 Build 0)  -->
<!DOCTYPE svg PUBLIC "-//W3C//DTD SVG 1.1//EN" "http://www.w3.org/Graphics/SVG/1.1/DTD/svg11.dtd">
<svg version="1.1"
	 id="Layer_1" sodipodi:docname="ecobee.svg" inkscape:version="0.48.2 r9819" xmlns:cc="http://creativecommons.org/ns#" xmlns:dc="http://purl.org/dc/elements/1.1/" xmlns:rdf="http://www.w3.org/1999/02/22-rdf-syntax-ns#" xmlns:inkscape="http://www.inkscape.org/namespaces/inkscape" xmlns:sodipodi="http://sodipodi.sourceforge.net/DTD/sodipodi-0.dtd" xmlns:svg="http://www.w3.org/2000/svg"
	 xmlns="http://www.w3.org/2000/svg" xmlns:xlink="http://www.w3.org/1999/xlink" x="0px" y="0px" width="44.637px"
	 height="44.637px" viewBox="0 0 44.637 44.637" enable-background="new 0 0 44.637 44.637" xml:space="preserve">
<title>Layer 1</title>
<path fill="#FFFFFF" d="M22.32,43.138c-11.498,0-20.812-9.322-20.812-20.818C1.501,10.823,10.821,1.5,22.32,1.5
	c11.496,0,20.816,9.323,20.816,20.812C43.136,33.815,33.816,43.138,22.32,43.138z"/>
<g>
	<path d="M22.465,3.176C11.892,3.176,3.32,11.747,3.32,22.32c0,10.573,8.571,19.146,19.146,19.146S41.61,32.895,41.61,22.321
		C41.61,11.748,33.039,3.176,22.465,3.176z M33.574,17.488c0.011,0.241,0.017,0.484,0.017,0.729c0,7.44-5.663,16.019-16.018,16.019
		c-3.18,0-6.139-0.933-8.631-2.529c0.44,0.053,0.89,0.079,1.344,0.079c2.638,0,5.064-0.9,6.991-2.41
		c-2.464-0.045-4.542-1.673-5.259-3.909c0.344,0.065,0.696,0.101,1.06,0.101c0.514,0,1.011-0.067,1.482-0.196
		c-2.575-0.519-4.516-2.793-4.516-5.521c0-0.023,0-0.047,0-0.071c0.76,0.422,1.627,0.675,2.55,0.704
		c-1.511-1.009-2.504-2.731-2.504-4.686c0-1.032,0.277-1.999,0.762-2.83c2.777,3.406,6.925,5.646,11.604,5.882
		c-0.097-0.412-0.146-0.842-0.146-1.283c0-3.108,2.521-5.629,5.629-5.629c1.619,0,3.082,0.685,4.108,1.777
		c1.283-0.252,2.488-0.721,3.576-1.366c-0.421,1.315-1.313,2.418-2.477,3.115c1.14-0.136,2.225-0.439,3.233-0.886
		C35.629,15.703,34.675,16.694,33.574,17.488z"/>
</g>
</svg>
