<?xml version="1.0" encoding="utf-8"?>
<!-- Generator: Adobe Illustrator 15.1.0, SVG Export Plug-In . SVG Version: 6.00 Build 0)  -->
<!DOCTYPE svg PUBLIC "-//W3C//DTD SVG 1.1//EN" "http://www.w3.org/Graphics/SVG/1.1/DTD/svg11.dtd">
<svg version="1.1"
	 id="Layer_1" sodipodi:docname="ecobee.svg" inkscape:version="0.48.2 r9819" xmlns:svg="http://www.w3.org/2000/svg" xmlns:rdf="http://www.w3.org/1999/02/22-rdf-syntax-ns#" xmlns:dc="http://purl.org/dc/elements/1.1/" xmlns:inkscape="http://www.inkscape.org/namespaces/inkscape" xmlns:sodipodi="http://sodipodi.sourceforge.net/DTD/sodipodi-0.dtd" xmlns:cc="http://creativecommons.org/ns#"
	 xmlns="http://www.w3.org/2000/svg" xmlns:xlink="http://www.w3.org/1999/xlink" x="0px" y="0px" width="44.637px"
	 height="44.637px" viewBox="0 0 44.637 44.637" enable-background="new 0 0 44.637 44.637" xml:space="preserve">
<path fill="#FFFFFF" d="M22.32,43.138c-11.498,0-20.814-9.322-20.814-20.818C1.501,10.823,10.822,1.5,22.32,1.5
	c11.496,0,20.816,9.323,20.816,20.815C43.136,33.815,33.816,43.138,22.32,43.138z"/>
<g>
	<path d="M22.465,3.175C11.892,3.175,3.32,11.747,3.32,22.32c0,10.573,8.573,19.146,19.146,19.146
		c10.574,0,19.144-8.571,19.145-19.146C41.61,11.746,33.039,3.175,22.465,3.175z M19.811,36.99c-0.094-0.36-0.229-0.729-0.367-1.146
		c-0.186-0.438-0.354-0.88-0.542-1.312h2.495c0.311,0.775,1.062,1.334,1.95,1.334s1.646-0.558,1.95-1.334h2.227
		c0.103,0.904,0.213,1.71,0.336,2.457L19.811,36.99L19.811,36.99z M33.68,17.442c-0.097,0.094-0.865,1.054-1.58,2.068
		c-1.157,1.646-2.521,3.271-2.547,3.209c-0.213,0.485-0.615,0.987-0.753,2.262c-0.214,1.957-0.534,3.488-1.172,4.859
		c-0.283,0.466-0.284,0.791-0.356,1.152c0.03,0.832,0.076,1.571,0.131,2.264H25.37c-0.23-0.908-1.047-1.582-2.026-1.582
		c-0.979,0-1.796,0.674-2.026,1.582h-3.021c-0.496-0.914-1.158-1.82-2.229-2.726c-1.104-0.812-1.913-2.256-2.612-3.958
		c-0.449-0.565-0.749-1.355-1.363-1.824c-0.511-0.394-0.778-0.979-1.178-1.438c-0.366-0.421-0.626-0.979-1.041-1.151
		c-0.388-0.374-0.739-0.624-0.688-0.938c0.12-0.66,1.537-1.008,2.991-0.039c0.913,0.608,1.917,1.385,2.78,2.5
		c-0.021,0.334,2.45,0.543,2.45,0.543c0.396-0.562,0.347-1.281,0.252-2.01l-0.585-2.933l-0.44-1.805
		c-0.216-0.599-0.432-1.692-0.648-2.723L15.548,13.1c-0.242-0.523-0.462-1.294-0.648-2.489c0.293-1.439,1.131-2.099,2.225-0.421
		c1.187,2.543,1.393,5.908,3.141,8.084c0.414,0.152,0.784,0.178,0.923-0.502l-0.021-3.12l0.168-2.597l0.229-2.934
		c0.153-1.352,0.646-1.83,1.129-1.826c0.624,0.006,1.242,0.812,1.134,1.617c-0.106,1.254-0.144,2.67,0,4.293
		c-0.021,0.875,0.042,1.812,0.127,2.641l-0.168,1.779c-0.028,1.146,0.464,0.396,0.856,0l1.047-3.271l0.336-1.439l0.668-2.937
		c0.37-1.077,2.146-1.327,2.033,0.839c-0.3,1.677-0.761,2.929-0.899,5.026L27.47,17.35l-0.525,2.016
		c0.022,0.869,0.188,1.098,1.008,0.92c1.546-1.193,2.641-2.462,3.876-3.707c0.507-0.533,0.979-1.111,1.594-1.486
		c0.965-0.227,1.467-0.097,0.979,0.905C34.473,15.958,34.039,17.106,33.68,17.442z"/>
</g>
</svg>
