<?xml version="1.0" encoding="utf-8"?>
<!-- Generator: Adobe Illustrator 15.1.0, SVG Export Plug-In . SVG Version: 6.00 Build 0)  -->
<!DOCTYPE svg PUBLIC "-//W3C//DTD SVG 1.1//EN" "http://www.w3.org/Graphics/SVG/1.1/DTD/svg11.dtd">
<svg version="1.1"
	 id="Layer_1" xmlns:sodipodi="http://sodipodi.sourceforge.net/DTD/sodipodi-0.dtd" sodipodi:docname="insteon_LED.svg" xmlns:svg="http://www.w3.org/2000/svg" xmlns:rdf="http://www.w3.org/1999/02/22-rdf-syntax-ns#" xmlns:inkscape="http://www.inkscape.org/namespaces/inkscape" inkscape:version="0.48.1 r9760" xmlns:cc="http://creativecommons.org/ns#" xmlns:dc="http://purl.org/dc/elements/1.1/"
	 xmlns="http://www.w3.org/2000/svg" xmlns:xlink="http://www.w3.org/1999/xlink" x="0px" y="0px" width="44.637px"
	 height="44.637px" viewBox="0 0 44.637 44.637" enable-background="new 0 0 44.637 44.637" xml:space="preserve">
<sodipodi:namedview  id="namedview11726" inkscape:window-maximized="0" showgrid="false" pagecolor="#ffffff" guidetolerance="10" borderopacity="1" inkscape:window-x="0" gridtolerance="10" inkscape:zoom="21.013957" objecttolerance="10" inkscape:pageopacity="0" inkscape:pageshadow="2" inkscape:cx="22.318501" inkscape:cy="22.318501" inkscape:current-layer="Layer_1" inkscape:window-width="1910" inkscape:window-height="1156" inkscape:window-y="0" bordercolor="#666666">
	</sodipodi:namedview>
<path fill="#FFFFFF" d="M22.32,43.062c-11.498,0-20.812-9.314-20.812-20.812c0-11.5,9.314-20.821,20.812-20.821
	c11.496,0,20.816,9.321,20.816,20.821C43.136,33.743,33.816,43.062,22.32,43.062z"/>
<g>
	<path d="M8.462,19.778v5.165c0,0.262,0.211,0.474,0.471,0.474h1.377v-6.108H8.933C8.673,19.307,8.462,19.518,8.462,19.778z"/>
	<path d="M34.865,19.308v6.108h0.972c0.26,0,0.471-0.212,0.471-0.475v-5.164c0-0.26-0.211-0.471-0.471-0.471L34.865,19.308
		L34.865,19.308z"/>
	<path d="M22.465,3.102c-10.574,0-19.146,8.572-19.146,19.146c0,10.567,8.574,19.143,19.146,19.143
		c10.574,0,19.144-8.571,19.145-19.143C41.61,11.673,33.039,3.102,22.465,3.102z M37.307,19.781v5.163
		c0,0.813-0.66,1.475-1.471,1.475h-0.657c-0.052,0.331,0.424,1.325,0.578,2.093c0.166,0.834,0.056,1.561-0.613,2.292
		c-0.668,0.73-1.336,1.94-1.336,1.94c-1.226,3.174-3.844,2.449-3.844,2.449c-4.677-0.224-13.921,0.058-15.702,0
		c-1.782-0.055-2.338-1.225-2.729-1.947c-0.39-0.728-0.725-1.783-1.447-2.339c-0.726-0.56-1.114-2.008-0.726-2.729
		c0.33-0.614,0.618-1.5,0.699-1.76H8.933c-0.811,0-1.471-0.661-1.471-1.475v-5.165c0-0.811,0.66-1.471,1.471-1.471h1.142
		c-0.062-0.198-0.362-1.146-0.712-1.794c-0.389-0.725,0-2.172,0.726-2.729c0.723-0.56,1.058-1.615,1.447-2.342
		c0.39-0.723,0.945-1.893,2.729-1.946c1.781-0.058,11.025,0.223,15.702,0c0,0,2.618-0.727,3.844,2.45c0,0,0.668,1.209,1.336,1.938
		c0.669,0.732,0.779,1.456,0.613,2.291c-0.161,0.799-0.67,1.844-0.568,2.129h0.647C36.648,18.307,37.308,18.967,37.307,19.781z"/>
	<path d="M29.945,18.999c-2.191-0.13-4.28-2.754-4.349-3.977c-0.029-0.52-0.396-0.704-0.524-0.753h-2.326l-3.096,3.248
		c-1.121,5.917,4.015,7.305,4.608,7.444h2.968l3.271-3.216V19.45C30.495,19.313,30.187,19.101,29.945,18.999z"/>
	<path d="M31.27,11.95H13.766v-0.001c-0.794,0-1.438,0.646-1.438,1.438v17.508c0,0.794,0.646,1.44,1.438,1.44H31.27
		c0.794,0,1.439-0.646,1.439-1.44V13.39C32.709,12.596,32.063,11.95,31.27,11.95z M31.493,22.166l-3.858,3.797l-3.536-0.012
		c-0.068-0.016-6.877-1.521-5.403-8.771l0.028-0.142l3.588-3.769l2.955,0.016c0.434,0.106,1.267,0.599,1.325,1.684
		c0.044,0.778,1.807,2.988,3.468,3.035l0.152,0.028c0.132,0.046,1.28,0.479,1.28,1.419L31.493,22.166L31.493,22.166z"/>
</g>
</svg>
