<?xml version="1.0" encoding="utf-8"?>
<!-- Generator: Adobe Illustrator 15.1.0, SVG Export Plug-In . SVG Version: 6.00 Build 0)  -->
<!DOCTYPE svg PUBLIC "-//W3C//DTD SVG 1.1//EN" "http://www.w3.org/Graphics/SVG/1.1/DTD/svg11.dtd">
<svg version="1.1"
	 id="Layer_1" xmlns:dc="http://purl.org/dc/elements/1.1/" inkscape:version="0.48.1 r9760" xmlns:rdf="http://www.w3.org/1999/02/22-rdf-syntax-ns#" xmlns:svg="http://www.w3.org/2000/svg" xmlns:sodipodi="http://sodipodi.sourceforge.net/DTD/sodipodi-0.dtd" sodipodi:docname="insteon_LED.svg" xmlns:inkscape="http://www.inkscape.org/namespaces/inkscape" xmlns:cc="http://creativecommons.org/ns#"
	 xmlns="http://www.w3.org/2000/svg" xmlns:xlink="http://www.w3.org/1999/xlink" x="0px" y="0px" width="44.637px"
	 height="44.637px" viewBox="0 0 44.637 44.637" enable-background="new 0 0 44.637 44.637" xml:space="preserve">
<sodipodi:namedview  inkscape:window-y="0" objecttolerance="10" pagecolor="#ffffff" borderopacity="1" guidetolerance="10" inkscape:cy="22.318501" inkscape:window-x="0" inkscape:window-width="1910" inkscape:pageopacity="0" showgrid="false" inkscape:zoom="21.013957" gridtolerance="10" inkscape:window-height="1156" inkscape:pageshadow="2" inkscape:window-maximized="0" inkscape:current-layer="Layer_1" id="namedview11726" inkscape:cx="22.318501" bordercolor="#666666">
	</sodipodi:namedview>
<g id="g11706">
	<g id="g11708">
	</g>
	<g id="g11712">
	</g>
	<g id="g11716">
	</g>
	<g id="g11720">
	</g>
</g>
<g id="Livello_1_2_">
</g>
<path fill="#FFFFFF" d="M22.32,43.061c-11.498,0-20.812-9.312-20.812-20.812c0-11.5,9.312-20.821,20.812-20.821
	c11.496,0,20.816,9.321,20.816,20.821C43.136,33.743,33.816,43.064,22.32,43.061z"/>
<g>
	<circle fill="#050505" cx="7.299" cy="28.572" r="0.359"/>
	<circle fill="#050505" cx="7.263" cy="15.801" r="0.359"/>
	<circle fill="#050505" cx="16.186" cy="37.456" r="0.358"/>
	<path fill="#050505" d="M21.024,22.323c-0.387,0-0.7-0.313-0.7-0.7s0.313-0.7,0.7-0.7c0.302,0,0.557,0.191,0.654,0.458
		c-0.003-0.02-0.002-0.037-0.006-0.056c-0.185-1.048-1.002-1.777-1.826-1.632c-0.823,0.146-1.341,1.111-1.157,2.157
		c0.186,1.046,1.002,1.773,1.826,1.628c0.703-0.124,1.179-0.845,1.19-1.704C21.635,22.088,21.357,22.323,21.024,22.323z"/>
	<circle fill="#050505" cx="28.858" cy="7.119" r="0.358"/>
	<circle fill="#050505" cx="15.934" cy="7.119" r="0.358"/>
	<path fill="#050505" d="M22.465,3.102c-10.573,0-19.146,8.572-19.146,19.146c0,10.566,8.573,19.143,19.146,19.143
		c10.577,0,19.144-8.574,19.145-19.143C41.61,11.673,33.039,3.102,22.465,3.102z M37.529,14.742c0.583,0,1.06,0.475,1.06,1.059
		c0,0.583-0.477,1.059-1.06,1.059c-0.14,0-0.271-0.028-0.395-0.077l-2.892,2.866c-0.064,0.065-0.154,0.102-0.246,0.102h-4.781v0.015
		c0,0-2.328,3.106-2.246,5.087h7.459c0.095,0,0.186,0.039,0.252,0.107l2.512,2.603c0.097-0.028,0.195-0.049,0.302-0.049
		c0.584,0,1.061,0.475,1.061,1.06c0,0.584-0.477,1.059-1.061,1.059s-1.059-0.475-1.059-1.059c0-0.222,0.068-0.427,0.186-0.597
		l-2.342-2.424h-8.136c-0.432,0.294-0.932,0.672-1.26,1.045v3.699l3.963,3.723c0.07,0.066,0.11,0.158,0.11,0.256v2.188
		c0.411,0.145,0.708,0.533,0.708,0.994c0,0.584-0.476,1.059-1.06,1.059s-1.059-0.475-1.059-1.059c0-0.461,0.297-0.851,0.709-0.995
		v-2.036l-3.962-3.723c-0.07-0.066-0.11-0.158-0.11-0.254v-3.354c-0.478-0.187-1.315-0.489-1.688-0.489
		c-0.382,0-1.354,0.369-1.888,0.584v4.55c0,0.097-0.039,0.188-0.109,0.256l-3.962,3.723v0.745c0.41,0.146,0.709,0.534,0.709,0.995
		c0,0.584-0.476,1.059-1.06,1.059c-0.583,0-1.059-0.475-1.059-1.059c0-0.461,0.297-0.851,0.708-0.994v-0.898
		c0-0.096,0.04-0.188,0.109-0.254l3.962-3.724v-4.899c-0.62-0.788-1.907-1.724-2.162-1.904h-6.259l-3.308,3.203
		c0.112,0.169,0.178,0.369,0.178,0.587c0,0.584-0.475,1.059-1.059,1.059s-1.06-0.475-1.06-1.059s0.476-1.06,1.06-1.06
		c0.107,0,0.211,0.021,0.309,0.051l3.494-3.384c0.065-0.062,0.153-0.099,0.244-0.099h6.351c-0.17-1.805-1.564-4.324-1.865-4.85
		l-2.987-3.082H8.258c-0.146,0.412-0.534,0.709-0.994,0.709c-0.584,0-1.059-0.475-1.059-1.059s0.475-1.059,1.059-1.059
		c0.46,0,0.849,0.297,0.994,0.709h4.733c0.095,0,0.186,0.038,0.251,0.105l2.53,2.61v-1.791c0-1.42,0.442-2.735,1.192-3.822
		l-1.107-1.146c-0.062-0.065-0.098-0.152-0.098-0.244V8.16c-0.501-0.083-0.885-0.518-0.885-1.041c0-0.584,0.475-1.06,1.059-1.06
		s1.06,0.476,1.06,1.06c0,0.391-0.217,0.729-0.532,0.913l-0.001,2.99l0.938,0.974c1.233-1.438,3.058-2.353,5.098-2.356
		c-0.004,0-0.009-0.001-0.015-0.001h0.028c-0.005,0-0.009,0.001-0.015,0.001c1.707,0.003,3.261,0.647,4.444,1.699V8.348
		c0-0.104,0.048-0.204,0.129-0.271l0.784-0.642c-0.032-0.101-0.054-0.206-0.054-0.316c0-0.584,0.475-1.06,1.059-1.06
		s1.06,0.476,1.06,1.06s-0.476,1.059-1.06,1.059c-0.217,0-0.419-0.066-0.587-0.179l-0.63,0.515v3.537
		c0.98,1.17,1.574,2.678,1.574,4.325v2.674h4.637l2.758-2.734c-0.086-0.152-0.139-0.326-0.139-0.515
		C36.471,15.218,36.945,14.742,37.529,14.742z"/>
	<circle fill="#050505" cx="37.529" cy="15.801" r="0.359"/>
	<circle fill="#050505" cx="37.492" cy="28.572" r="0.359"/>
	<path fill="#050505" d="M25.077,19.694c-0.824-0.146-1.643,0.584-1.827,1.632c-0.002,0.019-0.002,0.036-0.005,0.056
		c0.099-0.267,0.354-0.458,0.654-0.458c0.388,0,0.699,0.312,0.699,0.7c0,0.387-0.312,0.7-0.699,0.7
		c-0.334,0-0.612-0.234-0.683-0.548c0.011,0.859,0.488,1.58,1.19,1.704c0.823,0.146,1.641-0.582,1.825-1.628
		C26.418,20.804,25.901,19.839,25.077,19.694z"/>
	<circle fill="#050505" cx="28.606" cy="37.456" r="0.358"/>
</g>
</svg>
