<?xml version="1.0" encoding="utf-8"?>
<!-- Generator: Adobe Illustrator 15.1.0, SVG Export Plug-In . SVG Version: 6.00 Build 0)  -->
<!DOCTYPE svg PUBLIC "-//W3C//DTD SVG 1.1//EN" "http://www.w3.org/Graphics/SVG/1.1/DTD/svg11.dtd">
<svg version="1.1"
	 id="Layer_1" sodipodi:docname="insteon_LED.svg" inkscape:version="0.48.1 r9760" xmlns:rdf="http://www.w3.org/1999/02/22-rdf-syntax-ns#" xmlns:inkscape="http://www.inkscape.org/namespaces/inkscape" xmlns:sodipodi="http://sodipodi.sourceforge.net/DTD/sodipodi-0.dtd" xmlns:dc="http://purl.org/dc/elements/1.1/" xmlns:svg="http://www.w3.org/2000/svg" xmlns:cc="http://creativecommons.org/ns#"
	 xmlns="http://www.w3.org/2000/svg" xmlns:xlink="http://www.w3.org/1999/xlink" x="0px" y="0px" width="44.637px"
	 height="44.637px" viewBox="0 0 44.637 44.637" enable-background="new 0 0 44.637 44.637" xml:space="preserve">
<sodipodi:namedview  id="namedview11726" inkscape:window-height="1156" objecttolerance="10" borderopacity="1" pagecolor="#ffffff" gridtolerance="10" inkscape:window-maximized="0" guidetolerance="10" inkscape:pageopacity="0" inkscape:pageshadow="2" inkscape:window-width="1910" showgrid="false" inkscape:zoom="21.013957" inkscape:cx="22.318501" inkscape:cy="22.318501" inkscape:current-layer="Layer_1" inkscape:window-x="0" inkscape:window-y="0" bordercolor="#666666">
	</sodipodi:namedview>
<g id="g11706">
	<g id="g11708">
	</g>
	<g id="g11712">
	</g>
	<g id="g11716">
	</g>
	<g id="g11720">
	</g>
</g>
<g id="Livello_1_2_">
</g>
<g>
	<path fill-rule="evenodd" clip-rule="evenodd" fill="#FFFFFF" d="M22.32,43.067c-11.498,0-20.812-9.312-20.812-20.812
		S10.82,1.434,22.32,1.434c11.496,0,20.816,9.321,20.816,20.821C43.136,33.749,33.816,43.07,22.32,43.067z"/>
	<path fill-rule="evenodd" clip-rule="evenodd" d="M22.465,3.108c-10.573,0-19.146,8.572-19.146,19.146
		c0,10.562,8.573,19.143,19.146,19.143c10.577,0,19.144-8.565,19.145-19.143C41.61,11.679,33.039,3.108,22.465,3.108z M8.058,22.154
		c-0.733,0-1.467,0-2.2,0c0.714-10.486,6.468-15.93,16.801-16.799c0,0.733,0,1.466,0,2.2C13.835,8.466,8.752,13.115,8.058,22.154z
		 M12.457,22.154c-0.733,0-1.467,0-2.2,0c0.436-7.632,5.199-11.998,12.402-12.199c0,0.733,0,1.466,0,2.199
		C16.295,12.526,13.144,16.107,12.457,22.154z M22.659,28.957c-4.577,0.055-8.224-4.748-6.402-9.406
		c0.595-1.517,2.483-3.767,6.001-3.997c2.684-0.175,5.637,1.535,6.602,3.997C30.674,24.189,27.156,28.903,22.659,28.957z"/>
	<path fill-rule="evenodd" clip-rule="evenodd" d="M20.256,18.553c-0.37,0.695-0.783,1.449-1.2,2.098h2.801l-2.801,4.707
		c1.867,0,3.737,0,5.604,0l1.201-2c-1,0-2,0-3,0c1.023-1.581,2.027-3.178,3-4.804C23.994,18.553,22.124,18.553,20.256,18.553z"/>
</g>
</svg>
