<?xml version="1.0" encoding="utf-8"?>
<!-- Generator: Adobe Illustrator 15.1.0, SVG Export Plug-In . SVG Version: 6.00 Build 0)  -->
<!DOCTYPE svg PUBLIC "-//W3C//DTD SVG 1.1//EN" "http://www.w3.org/Graphics/SVG/1.1/DTD/svg11.dtd">
<svg version="1.1" id="Layer_1" xmlns="http://www.w3.org/2000/svg" xmlns:xlink="http://www.w3.org/1999/xlink" x="0px" y="0px"
	 width="360px" height="72px" viewBox="0 0 360 72" enable-background="new 0 0 360 72" xml:space="preserve">
<g>
	<path fill="#FFFFFF" d="M73.455,32.685v8.383c0,0.812,0.213,1.457,0.64,1.937c0.427,0.479,0.992,0.72,1.696,0.72
		c0.832,0,1.6-0.373,2.304-1.119l1.472,2.527c-1.259,1.131-2.667,1.696-4.224,1.696c-1.494,0-2.779-0.528-3.856-1.584
		c-1.078-1.056-1.616-2.479-1.616-4.272v-8.288h-2.144v-2.88h2.144v-5.344h3.584v5.344h4.48v2.88H73.455z"/>
	<path fill="#FFFFFF" d="M86.03,37.613v9.216h-3.584V23.117h3.584v9.792c0.512-1.045,1.285-1.867,2.32-2.464
		c1.034-0.597,2.149-0.896,3.344-0.896c1.92,0,3.472,0.587,4.656,1.76c1.184,1.173,1.776,2.87,1.776,5.088v10.432h-3.584v-9.345
		c0-3.135-1.302-4.703-3.904-4.703c-1.237,0-2.315,0.411-3.232,1.232C86.489,34.834,86.03,36.035,86.03,37.613z"/>
	<path fill="#FFFFFF" d="M119.406,39.885h-13.344c0.085,1.238,0.65,2.235,1.696,2.992c1.045,0.758,2.24,1.137,3.584,1.137
		c2.133,0,3.754-0.672,4.864-2.017l2.048,2.239c-1.835,1.899-4.224,2.849-7.168,2.849c-2.389,0-4.421-0.794-6.096-2.384
		c-1.675-1.59-2.512-3.707-2.512-6.352c0-2.709,0.853-4.854,2.56-6.434s3.701-2.368,5.984-2.368c2.347,0,4.331,0.699,5.952,2.096
		s2.432,3.323,2.432,5.776V39.885z M106.062,37.068h9.76c0-1.428-0.448-2.527-1.344-3.295s-1.984-1.152-3.264-1.152
		c-1.344,0-2.539,0.4-3.584,1.2C106.584,34.621,106.062,35.704,106.062,37.068z"/>
	<path fill="#FFFFFF" d="M134.958,32.685v8.383c0,0.812,0.213,1.457,0.64,1.937c0.427,0.479,0.992,0.72,1.696,0.72
		c0.832,0,1.6-0.373,2.304-1.119l1.472,2.527c-1.259,1.131-2.667,1.696-4.224,1.696c-1.494,0-2.779-0.528-3.856-1.584
		c-1.078-1.056-1.616-2.479-1.616-4.272v-8.288h-2.144v-2.88h2.144v-5.344h3.584v5.344h4.48v2.88H134.958z"/>
	<path fill="#FFFFFF" d="M147.533,37.613v9.216h-3.584V23.117h3.584v9.792c0.512-1.045,1.285-1.867,2.32-2.464
		c1.034-0.597,2.149-0.896,3.344-0.896c1.92,0,3.472,0.587,4.656,1.76c1.184,1.173,1.776,2.87,1.776,5.088v10.432h-3.584v-9.345
		c0-3.135-1.302-4.703-3.904-4.703c-1.237,0-2.315,0.411-3.232,1.232C147.992,34.834,147.533,36.035,147.533,37.613z"/>
	<path fill="#FFFFFF" d="M165.773,26.429c-0.448-0.458-0.672-0.997-0.672-1.616c0-0.618,0.224-1.141,0.672-1.568
		c0.448-0.427,0.981-0.64,1.6-0.64c0.64,0,1.173,0.213,1.6,0.64c0.426,0.427,0.64,0.95,0.64,1.568c0,0.619-0.224,1.158-0.672,1.616
		c-0.448,0.459-0.971,0.688-1.568,0.688C166.754,27.117,166.221,26.888,165.773,26.429z M169.133,46.829h-3.584V29.805h3.584V46.829
		z"/>
	<path fill="#FFFFFF" d="M179.053,37.613v9.216h-3.584V29.805h3.584v3.104c0.576-1.045,1.371-1.867,2.384-2.464
		c1.014-0.597,2.106-0.896,3.279-0.896c1.92,0,3.473,0.587,4.656,1.76c1.184,1.173,1.775,2.87,1.775,5.088v10.432h-3.584v-9.345
		c0-3.135-1.301-4.703-3.903-4.703c-1.237,0-2.315,0.411-3.232,1.232C179.511,34.834,179.053,36.035,179.053,37.613z"/>
	<path fill="#FFFFFF" d="M211.661,29.805v14.847c0,3.009-0.815,5.265-2.448,6.769c-1.632,1.505-3.675,2.257-6.128,2.257
		c-2.667,0-5.035-0.801-7.104-2.4l1.696-2.721c1.664,1.26,3.402,1.889,5.216,1.889c1.58,0,2.864-0.438,3.856-1.312
		s1.487-2.271,1.487-4.19v-2.176c-0.533,1.002-1.297,1.803-2.287,2.398c-0.992,0.598-2.107,0.896-3.346,0.896
		c-2.261,0-4.117-0.789-5.566-2.367c-1.451-1.578-2.178-3.584-2.178-6.016c0-2.263,0.727-4.183,2.178-5.762
		c1.449-1.579,3.307-2.368,5.566-2.368c2.24,0,4.064,0.928,5.474,2.784v-2.528L211.661,29.805L211.661,29.805z M203.213,42.797
		c1.43,0,2.598-0.49,3.504-1.472s1.36-2.197,1.36-3.647c0-1.473-0.459-2.715-1.376-3.729c-0.918-1.013-2.08-1.52-3.488-1.52
		c-1.492,0-2.672,0.523-3.536,1.568s-1.296,2.272-1.296,3.681c0,1.387,0.432,2.586,1.296,3.6
		C200.541,42.292,201.721,42.797,203.213,42.797z"/>
	<path fill="#FFFFFF" d="M236.333,41.581c0,1.728-0.588,3.077-1.761,4.048c-1.174,0.971-2.678,1.456-4.512,1.456
		c-1.237,0-2.523-0.224-3.856-0.672s-2.513-1.077-3.535-1.888l1.728-2.784c1.984,1.493,3.904,2.239,5.761,2.239
		c0.811,0,1.45-0.187,1.92-0.561c0.47-0.372,0.704-0.848,0.704-1.424c0-0.854-1.131-1.621-3.393-2.305
		c-0.171-0.063-0.299-0.106-0.384-0.129c-3.542-0.959-5.312-2.56-5.312-4.798c0-1.579,0.613-2.843,1.84-3.792
		c1.227-0.949,2.715-1.424,4.464-1.424c2.177,0,4.139,0.576,5.889,1.728l-1.344,2.656c-1.388-0.917-2.892-1.376-4.513-1.376
		c-0.854,0-1.547,0.155-2.08,0.464c-0.533,0.31-0.801,0.773-0.801,1.392c0,0.277,0.064,0.518,0.192,0.72
		c0.128,0.202,0.341,0.374,0.64,0.512c0.299,0.139,0.582,0.246,0.849,0.32c0.267,0.074,0.635,0.171,1.104,0.288
		c0.469,0.118,0.853,0.229,1.151,0.336c0.769,0.235,1.401,0.46,1.903,0.673c0.5,0.214,1.039,0.513,1.615,0.896
		s1.008,0.864,1.297,1.44C236.188,40.173,236.333,40.834,236.333,41.581z"/>
	<path fill="#FFFFFF" d="M256.652,29.805l-8.256,20.224c-0.492,1.109-1.195,1.984-2.112,2.623c-0.917,0.641-1.931,0.961-3.04,0.961
		c-1.557,0-2.965-0.566-4.225-1.696l1.633-2.912c0.746,0.704,1.578,1.056,2.496,1.056c0.683,0,1.273-0.287,1.775-0.862
		c0.501-0.576,0.752-1.205,0.752-1.89c0-0.299-2.294-6.133-6.88-17.502h3.841l5.088,12.543l5.088-12.543L256.652,29.805
		L256.652,29.805z"/>
	<path fill="#FFFFFF" d="M272.076,41.581c0,1.728-0.588,3.077-1.76,4.048c-1.174,0.971-2.678,1.456-4.512,1.456
		c-1.238,0-2.523-0.224-3.856-0.672c-1.335-0.448-2.513-1.077-3.536-1.888l1.729-2.784c1.983,1.493,3.903,2.239,5.76,2.239
		c0.812,0,1.451-0.187,1.92-0.561c0.47-0.372,0.705-0.848,0.705-1.424c0-0.854-1.131-1.621-3.394-2.305
		c-0.171-0.063-0.299-0.106-0.384-0.129c-3.541-0.959-5.312-2.56-5.312-4.798c0-1.579,0.612-2.843,1.84-3.792
		c1.228-0.949,2.715-1.424,4.465-1.424c2.176,0,4.139,0.576,5.888,1.728l-1.344,2.656c-1.388-0.917-2.892-1.376-4.513-1.376
		c-0.854,0-1.547,0.155-2.08,0.464c-0.532,0.31-0.799,0.773-0.799,1.392c0,0.277,0.062,0.518,0.19,0.72
		c0.128,0.202,0.341,0.374,0.642,0.512c0.297,0.139,0.58,0.246,0.848,0.32c0.267,0.074,0.635,0.171,1.104,0.288
		c0.471,0.118,0.854,0.229,1.152,0.336c0.77,0.235,1.402,0.46,1.904,0.673c0.5,0.214,1.039,0.513,1.615,0.896
		c0.575,0.384,1.008,0.864,1.297,1.44C271.932,40.173,272.076,40.834,272.076,41.581z"/>
	<path fill="#FFFFFF" d="M281.324,32.685v8.383c0,0.812,0.213,1.457,0.64,1.937s0.992,0.72,1.696,0.72
		c0.832,0,1.6-0.373,2.304-1.119l1.474,2.527c-1.261,1.131-2.668,1.696-4.226,1.696c-1.493,0-2.778-0.528-3.854-1.584
		c-1.078-1.056-1.616-2.479-1.616-4.272v-8.288h-2.146v-2.88h2.146v-5.344h3.584v5.344h4.479v2.88H281.324z"/>
	<path fill="#FFFFFF" d="M306.284,39.885h-13.345c0.084,1.238,0.649,2.235,1.695,2.992c1.045,0.758,2.24,1.137,3.584,1.137
		c2.133,0,3.756-0.672,4.864-2.017l2.048,2.239c-1.835,1.899-4.224,2.849-7.168,2.849c-2.39,0-4.422-0.794-6.096-2.384
		c-1.676-1.59-2.514-3.707-2.514-6.352c0-2.709,0.854-4.854,2.562-6.434c1.706-1.579,3.701-2.368,5.983-2.368
		c2.347,0,4.33,0.699,5.951,2.096s2.434,3.323,2.434,5.776L306.284,39.885L306.284,39.885z M292.939,37.068h9.761
		c0-1.428-0.448-2.527-1.345-3.295s-1.983-1.152-3.265-1.152c-1.344,0-2.539,0.4-3.584,1.2
		C293.462,34.621,292.939,35.704,292.939,37.068z"/>
	<path fill="#FFFFFF" d="M314.22,37.613v9.216h-3.584V29.805h3.584v3.104c0.513-1.045,1.285-1.867,2.32-2.464
		c1.034-0.597,2.148-0.896,3.344-0.896c2.688,0,4.513,1.109,5.473,3.328c1.686-2.218,3.786-3.328,6.304-3.328
		c1.921,0,3.473,0.587,4.656,1.76c1.185,1.173,1.775,2.87,1.775,5.088v10.432h-3.584v-9.345c0-3.135-1.302-4.703-3.904-4.703
		c-1.216,0-2.276,0.389-3.184,1.168c-0.907,0.779-1.382,1.915-1.424,3.408v9.472h-3.585v-9.345c0-1.62-0.287-2.811-0.863-3.567
		s-1.482-1.136-2.721-1.136s-2.314,0.411-3.231,1.232C314.678,34.834,314.22,36.035,314.22,37.613z"/>
</g>
<circle fill="#231F20" stroke="#231F20" stroke-width="6" stroke-miterlimit="10" cx="37.342" cy="36.064" r="18.693"/>
<circle stroke="#FFFFFF" stroke-width="2" stroke-miterlimit="10" cx="37.342" cy="36.064" r="18.693"/>
<g>
	<path fill="#FFFFFF" d="M37.668,33.113v8.385c0,0.811,0.213,1.455,0.64,1.936c0.427,0.479,0.992,0.721,1.696,0.721
		c0.832,0,1.6-0.373,2.304-1.12l1.472,2.528c-1.259,1.131-2.667,1.695-4.224,1.695c-1.494,0-2.779-0.527-3.856-1.584
		c-1.078-1.057-1.616-2.48-1.616-4.271v-8.288H31.94v-2.88h2.144V24.89h3.584v5.344h4.48v2.88h-4.48V33.113z"/>
</g>
</svg>
