<?xml version="1.0" encoding="utf-8"?>
<!-- Generator: Adobe Illustrator 15.1.0, SVG Export Plug-In . SVG Version: 6.00 Build 0)  -->
<!DOCTYPE svg PUBLIC "-//W3C//DTD SVG 1.1//EN" "http://www.w3.org/Graphics/SVG/1.1/DTD/svg11.dtd">
<svg version="1.1"
	 id="Layer_1" xmlns:rdf="http://www.w3.org/1999/02/22-rdf-syntax-ns#" xmlns:sodipodi="http://sodipodi.sourceforge.net/DTD/sodipodi-0.dtd" xmlns:dc="http://purl.org/dc/elements/1.1/" xmlns:cc="http://creativecommons.org/ns#" xmlns:inkscape="http://www.inkscape.org/namespaces/inkscape" xmlns:svg="http://www.w3.org/2000/svg" sodipodi:docname="presence.svg" inkscape:version="0.48.2 r9819"
	 xmlns="http://www.w3.org/2000/svg" xmlns:xlink="http://www.w3.org/1999/xlink" x="0px" y="0px" width="44.637px"
	 height="44.637px" viewBox="0 0 44.637 44.637" enable-background="new 0 0 44.637 44.637" xml:space="preserve">
<sodipodi:namedview  fit-margin-top="0" gridtolerance="10" fit-margin-left="0" id="namedview9" fit-margin-right="0" inkscape:window-width="1031" inkscape:window-x="0" fit-margin-bottom="0" inkscape:window-y="0" guidetolerance="10" inkscape:pageopacity="0" inkscape:pageshadow="2" inkscape:cx="-14.200334" inkscape:cy="13.582093" objecttolerance="10" borderopacity="1" bordercolor="#666666" showgrid="false" inkscape:current-layer="Layer_1" inkscape:window-height="859" inkscape:zoom="3.774151" pagecolor="#ffffff" inkscape:window-maximized="0">
	</sodipodi:namedview>
<path id="path3" inkscape:connector-curvature="0" fill="#222222" d="M22.32,0C10.013,0,0,10.013,0,22.32
	C0,34.627,10.014,44.637,22.32,44.637c12.311,0,22.316-10.012,22.316-22.317C44.636,10.013,34.626,0,22.32,0z"/>
<g id="g5" transform="translate(-463.852,-625.994)">
	<path id="path7" inkscape:connector-curvature="0" fill="#222222" d="M486.172,627.494c-11.499,0-20.814,9.315-20.814,20.813
		c0,11.496,9.315,20.817,20.814,20.817c11.496,0,20.816-9.321,20.816-20.817S497.668,627.494,486.172,627.494z M486.317,667.457
		c-10.572,0-19.146-8.57-19.146-19.146c0-10.568,8.571-19.145,19.146-19.145s19.145,8.571,19.145,19.145
		C505.462,658.887,496.891,667.457,486.317,667.457z"/>
</g>
<g id="layer1_1_" transform="translate(-235.03708,-20.292285)" inkscape:groupmode="layer" inkscape:label="Layer 1">
	<path id="path69759" fill="none" stroke="#FFFFFF" stroke-width="1.1" d="M249.99,31.076c-0.127,0.004-0.256,0.039-0.373,0.106
		l-7.543,4.355c-0.376,0.218-0.506,0.695-0.287,1.072l2.568,4.451c0.22,0.377,0.697,0.505,1.073,0.287l3.942-2.276V55.7
		c0,0.435,0.352,0.785,0.786,0.785h14.565c0.438,0,0.787-0.352,0.787-0.785V39.051l3.982,2.299c0.378,0.218,0.854,0.09,1.072-0.287
		l2.568-4.451c0.217-0.377,0.091-0.854-0.285-1.072l-7.545-4.355c-0.153-0.088-0.323-0.12-0.484-0.101
		c-0.031-0.004-0.062-0.007-0.097-0.007h-4.171c-0.062,0.496-1.423,0.893-3.093,0.893c-1.669,0-3.029-0.396-3.091-0.893h-4.211
		c-0.025,0-0.051,0.003-0.075,0.005C250.051,31.079,250.022,31.076,249.99,31.076z"/>
</g>
<circle fill="#FFFFFF" stroke="#000000" stroke-width="0.405" stroke-miterlimit="10" cx="22.75" cy="19.431" r="3.786"/>
<g>
	<path fill="#231F20" stroke="#231F20" stroke-width="0.405" stroke-miterlimit="10" d="M22.815,18.832v1.697
		c0,0.165,0.043,0.295,0.128,0.393c0.086,0.097,0.199,0.146,0.343,0.146c0.17,0,0.324-0.075,0.468-0.227l0.297,0.511
		c-0.253,0.229-0.54,0.344-0.854,0.344c-0.301,0-0.561-0.105-0.778-0.32c-0.218-0.213-0.327-0.501-0.327-0.864v-1.678h-0.434v-0.584
		h0.434v-1.082h0.725v1.082h0.906v0.584L22.815,18.832L22.815,18.832z"/>
</g>
</svg>
