<?xml version="1.0" encoding="UTF-8"?>
<!DOCTYPE svg PUBLIC "-//W3C//DTD SVG 1.1//EN" "http://www.w3.org/Graphics/SVG/1.1/DTD/svg11.dtd">
<svg version="1.1" xmlns="http://www.w3.org/2000/svg" xmlns:xlink="http://www.w3.org/1999/xlink" x="0px" y="0px" width="10" height="10" viewBox="0, 0, 10, 10">
  <g id="Layer 1">
    <path d="M-1.772,5.854 L-1.417,6.511 L0.105,7.595 L2.116,7.851 L3.228,7.941 L3.131,8.028 L2.775,7.784 L3.31,8.303 L3.928,9.361 L4.329,10.008 L4.329,10.008 C4.376,10.084 4.43,10.153 4.49,10.217 L4.49,10.217 L4.966,10.717 L5.911,11.719 L5.502,11.009 L10.537,5.043 L10.435,5.081 L11.065,4.834 L9.69,4.736 L7.177,4.479 L5.602,4.276 L5.031,4.178 L5.09,4.183 L5.554,4.408 L4.678,3.755 L3.734,2.025 L3.713,0.81 L3.925,0.804 L3.46,2.141 L2.094,3.75 L1.704,4.051 L1.071,4.174 L2.444,4.039 L4.771,4.277 L6.183,4.384 L6.183,4.384 C7.851,4.51 10.345,2.846 11.754,0.667 C13.163,-1.512 12.953,-3.382 11.286,-3.509 L9.905,-3.613 L6.649,-3.839 L5.273,-3.705 L5.273,-3.705 C5.072,-3.685 4.86,-3.644 4.639,-3.582 L4.639,-3.582 L2.434,-2.773 L-1.641,0.369 L-3.714,3.758 L-4.159,6.121 L-3.714,8.615 L-2.118,11.063 L-1.241,11.717 L-1.241,11.717 C-1.108,11.817 -0.953,11.892 -0.778,11.942 L-0.778,11.942 L-0.449,12.024 L0.277,12.145 L1.962,12.362 L4.638,12.632 L6.437,12.739 L8.264,12.465 L8.369,12.426 L8.369,12.426 C8.683,12.309 9.007,12.155 9.333,11.967 C11.515,10.711 13.338,8.246 13.404,6.46 L13.404,6.46 L13.034,4.701 L12.081,3.692 L11.604,3.19 L11.765,3.398 L11.359,2.744 L10.355,1.206 L9.818,0.685 L9.818,0.685 C9.716,0.586 9.597,0.504 9.463,0.441 L9.463,0.441 L8.346,0.049 L7.066,-0.05 L6.618,0.102 L6.098,0.039 L5.741,-0.621 C5.062,-1.874 2.83,-1.44 0.755,0.349 C-1.32,2.137 -2.451,4.601 -1.772,5.854 L-1.772,5.854" fill="#B4B4B4" fill-opacity="0.3"/>
  </g>
  <defs/>
</svg>
