<?xml version="1.0" encoding="UTF-8" standalone="no"?>
<!-- Created with Inkscape (http://www.inkscape.org/) -->

<svg
   xmlns:dc="http://purl.org/dc/elements/1.1/"
   xmlns:cc="http://creativecommons.org/ns#"
   xmlns:rdf="http://www.w3.org/1999/02/22-rdf-syntax-ns#"
   xmlns:svg="http://www.w3.org/2000/svg"
   xmlns="http://www.w3.org/2000/svg"
   xmlns:sodipodi="http://sodipodi.sourceforge.net/DTD/sodipodi-0.dtd"
   xmlns:inkscape="http://www.inkscape.org/namespaces/inkscape"
   id="svg2"
   version="1.1"
   inkscape:version="0.48.2 r9819"
   width="118.47375"
   height="35.202499"
   xml:space="preserve"
   sodipodi:docname="cancel.svg"><metadata
     id="metadata8"><rdf:RDF><cc:Work
         rdf:about=""><dc:format>image/svg+xml</dc:format><dc:type
           rdf:resource="http://purl.org/dc/dcmitype/StillImage" /><dc:title /></cc:Work></rdf:RDF></metadata><defs
     id="defs6"><linearGradient
       x1="0"
       y1="0"
       x2="1"
       y2="0"
       gradientUnits="userSpaceOnUse"
       gradientTransform="matrix(0,28.161621,28.161621,0,612.49951,598.16113)"
       spreadMethod="pad"
       id="linearGradient24"><stop
         style="stop-opacity:1;stop-color:#4d4c4e"
         offset="0"
         id="stop26" /><stop
         style="stop-opacity:1;stop-color:#373535"
         offset="1"
         id="stop28" /></linearGradient><linearGradient
       x1="0"
       y1="0"
       x2="1"
       y2="0"
       gradientUnits="userSpaceOnUse"
       gradientTransform="matrix(0,23.661621,23.661621,0,612.49951,600.41113)"
       spreadMethod="pad"
       id="linearGradient44"><stop
         style="stop-opacity:1;stop-color:#373535"
         offset="0"
         id="stop46" /><stop
         style="stop-opacity:1;stop-color:#4d4c4e"
         offset="1"
         id="stop48" /></linearGradient><linearGradient
       x1="0"
       y1="0"
       x2="1"
       y2="0"
       gradientUnits="userSpaceOnUse"
       gradientTransform="matrix(90.278809,0,0,-90.278809,567.35986,618.0459)"
       spreadMethod="pad"
       id="linearGradient64"><stop
         style="stop-opacity:1;stop-color:#373535"
         offset="0"
         id="stop66" /><stop
         style="stop-opacity:1;stop-color:#82d4f7"
         offset="0.507767"
         id="stop68" /><stop
         style="stop-opacity:1;stop-color:#373535"
         offset="1"
         id="stop70" /></linearGradient><linearGradient
       x1="0"
       y1="0"
       x2="1"
       y2="0"
       gradientUnits="userSpaceOnUse"
       gradientTransform="matrix(90.278809,0,0,90.278809,567.35986,605.99121)"
       spreadMethod="pad"
       id="linearGradient86"><stop
         style="stop-opacity:1;stop-color:#373535"
         offset="0"
         id="stop88" /><stop
         style="stop-opacity:1;stop-color:#82d4f7"
         offset="0.507767"
         id="stop90" /><stop
         style="stop-opacity:1;stop-color:#373535"
         offset="1"
         id="stop92" /></linearGradient></defs><sodipodi:namedview
     pagecolor="#ffffff"
     bordercolor="#666666"
     borderopacity="1"
     objecttolerance="10"
     gridtolerance="10"
     guidetolerance="10"
     inkscape:pageopacity="0"
     inkscape:pageshadow="2"
     inkscape:window-width="640"
     inkscape:window-height="480"
     id="namedview4"
     showgrid="false"
     fit-margin-top="0"
     fit-margin-left="0"
     fit-margin-right="0"
     fit-margin-bottom="0"
     inkscape:zoom="3.9850318"
     inkscape:cx="50.516016"
     inkscape:cy="8.700847"
     inkscape:window-x="0"
     inkscape:window-y="0"
     inkscape:window-maximized="0"
     inkscape:current-layer="g10" /><g
     id="g10"
     inkscape:groupmode="layer"
     inkscape:label="cancel"
     transform="matrix(1.25,0,0,-1.25,-706.3875,782.90375)"><g
   id="g12"><g
     id="g14"><g
       id="g20"><g
         id="g22"><path
           d="m 579.19,626.323 c -7.764,0 -14.08,-6.317 -14.08,-14.08 l 0,0 c 0,-7.765 6.316,-14.082 14.08,-14.082 l 0,0 66.617,0 c 7.765,0 14.082,6.317 14.082,14.082 l 0,0 c 0,7.763 -6.317,14.08 -14.082,14.08 l 0,0 -66.617,0 z"
           style="fill:url(#linearGradient24);stroke:none"
           id="path30"
           inkscape:connector-curvature="0" /></g></g></g></g><g
   id="g32"><g
     id="g34"><g
       id="g40"><g
         id="g42"><path
           d="m 579.19,624.073 c -6.534,0 -11.83,-5.297 -11.83,-11.83 l 0,0 c 0,-6.535 5.296,-11.832 11.83,-11.832 l 0,0 66.617,0 c 6.535,0 11.832,5.297 11.832,11.832 l 0,0 c 0,6.533 -5.297,11.83 -11.832,11.83 l 0,0 -66.617,0 z"
           style="fill:url(#linearGradient44);stroke:none"
           id="path50"
           inkscape:connector-curvature="0" /></g></g></g></g><g
   id="g52"><g
     id="g54"><g
       id="g60"><g
         id="g62"><path
           d="m 579.19,624.073 c -6.534,0 -11.83,-5.297 -11.83,-11.83 l 0,0 c 0,-0.076 0.009,-0.15 0.012,-0.224 l 0,0 c 0.119,6.429 5.361,11.605 11.818,11.605 l 0,0 66.617,0 c 6.459,0 11.701,-5.176 11.82,-11.605 l 0,0 c 0,0.074 0.012,0.148 0.012,0.224 l 0,0 c 0,6.533 -5.297,11.83 -11.832,11.83 l 0,0 -66.617,0 z"
           style="fill:url(#linearGradient64);stroke:none"
           id="path72"
           inkscape:connector-curvature="0" /></g></g></g></g><g
   id="g74"><g
     id="g76"><g
       id="g82"><g
         id="g84"><path
           d="m 645.807,600.413 -66.617,0 c -6.457,0 -11.699,5.176 -11.818,11.606 l 0,0 c -0.003,-0.075 -0.012,-0.149 -0.012,-0.225 l 0,0 c 0,-6.533 5.296,-11.83 11.83,-11.83 l 0,0 66.617,0 c 6.535,0 11.832,5.297 11.832,11.83 l 0,0 c 0,0.076 -0.012,0.15 -0.012,0.225 l 0,0 c -0.119,-6.43 -5.361,-11.606 -11.82,-11.606"
           style="fill:url(#linearGradient86);stroke:none"
           id="path94"
           inkscape:connector-curvature="0" /></g></g></g></g><g
   transform="matrix(1,0,0,-1,585.6401,608.1465)"
   style=""
   id="text96"><path
     d="M 7.308,-1.904 5.894,-2.436 c -0.3639996,0.7559992 -0.8260006,1.092 -1.456,1.092 -0.6579993,0 -1.0780003,-0.2380005 -1.414,-0.728 -0.3639996,-0.5879994 -0.588,-1.610001 -0.588,-2.632 0,-0.7979992 0.1260002,-1.6100006 0.364,-2.17 0.3219997,-0.8259992 0.8260008,-1.162 1.582,-1.162 0.7139993,0 1.0220005,0.1960008 1.54,0.994 L 7.308,-7.63 C 6.6780006,-8.9459987 5.7959986,-9.548 4.382,-9.548 c -1.0639989,0 -1.8480006,0.3640007 -2.408,1.05 -0.6579993,0.8259992 -1.05,2.3100015 -1.05,3.794 0,1.1759988 0.2660004,2.3660008 0.686,3.192 0.6019994,1.14799885 1.4840014,1.68 2.87,1.68 1.3439987,0 2.2680006,-0.70000137 2.828,-2.072"
     style="font-size:14px;font-variant:normal;font-weight:normal;font-stretch:normal;writing-mode:lr-tb;fill:#75cff5;fill-opacity:1;fill-rule:nonzero;stroke:none;font-family:Roadgeek 2005 Series D;-inkscape-font-specification:Roadgeek2005SeriesD"
     id="path3064" /><path
     d="m 16.464,0 -3.234,-9.38 -1.47,0 L 8.5260004,0 10.108,0 l 0.924,-2.632 2.926,0 0.924,2.632 1.582,0 m -3.038,-4.144 -1.876,0 0.966,-2.632 0.91,2.632"
     style="font-size:14px;font-variant:normal;font-weight:normal;font-stretch:normal;writing-mode:lr-tb;fill:#75cff5;fill-opacity:1;fill-rule:nonzero;stroke:none;font-family:Roadgeek 2005 Series D;-inkscape-font-specification:Roadgeek2005SeriesD"
     id="path3066" /><path
     d="m 24.261999,0 0,-9.38 -1.484,0 0,5.992 -3.416,-5.992 -1.484,0 0,9.38 1.484,0 0,-6.356 3.584,6.356 1.316,0"
     style="font-size:14px;font-variant:normal;font-weight:normal;font-stretch:normal;writing-mode:lr-tb;fill:#75cff5;fill-opacity:1;fill-rule:nonzero;stroke:none;font-family:Roadgeek 2005 Series D;-inkscape-font-specification:Roadgeek2005SeriesD"
     id="path3068" /><path
     d="m 32.69,-1.904 -1.414,-0.532 c -0.364,0.7559992 -0.826001,1.092 -1.456,1.092 -0.657999,0 -1.078,-0.2380005 -1.414,-0.728 -0.364,-0.5879994 -0.588,-1.610001 -0.588,-2.632 0,-0.7979992 0.126,-1.6100006 0.364,-2.17 0.322,-0.8259992 0.826001,-1.162 1.582,-1.162 0.713999,0 1.022,0.1960008 1.54,0.994 L 32.69,-7.63 c -0.629999,-1.3159987 -1.512001,-1.918 -2.926,-1.918 -1.063999,0 -1.848001,0.3640007 -2.408,1.05 -0.657999,0.8259992 -1.05,2.3100015 -1.05,3.794 0,1.1759988 0.266,2.3660008 0.686,3.192 0.601999,1.14799885 1.484001,1.68 2.87,1.68 1.343999,0 2.268001,-0.70000137 2.828,-2.072"
     style="font-size:14px;font-variant:normal;font-weight:normal;font-stretch:normal;writing-mode:lr-tb;fill:#75cff5;fill-opacity:1;fill-rule:nonzero;stroke:none;font-family:Roadgeek 2005 Series D;-inkscape-font-specification:Roadgeek2005SeriesD"
     id="path3070" /><path
     d="m 40.557998,0 0,-1.512 -4.34,0 0,-2.576 2.73,0 0,-1.512 -2.73,0 0,-2.296 4.046,0 0,-1.484 -5.53,0 0,9.38 5.824,0"
     style="font-size:14px;font-variant:normal;font-weight:normal;font-stretch:normal;writing-mode:lr-tb;fill:#75cff5;fill-opacity:1;fill-rule:nonzero;stroke:none;font-family:Roadgeek 2005 Series D;-inkscape-font-specification:Roadgeek2005SeriesD"
     id="path3072" /><path
     d="m 47.964,0 0,-1.386 -4.34,0 0,-7.994 -1.484,0 0,9.38 5.824,0"
     style="font-size:14px;font-variant:normal;font-weight:normal;font-stretch:normal;writing-mode:lr-tb;fill:#75cff5;fill-opacity:1;fill-rule:nonzero;stroke:none;font-family:Roadgeek 2005 Series D;-inkscape-font-specification:Roadgeek2005SeriesD"
     id="path3074" /></g>
</g></svg>