<?xml version="1.0" encoding="UTF-8" standalone="no"?>
<!-- Created with Inkscape (http://www.inkscape.org/) -->

<svg
   xmlns:dc="http://purl.org/dc/elements/1.1/"
   xmlns:cc="http://creativecommons.org/ns#"
   xmlns:rdf="http://www.w3.org/1999/02/22-rdf-syntax-ns#"
   xmlns:svg="http://www.w3.org/2000/svg"
   xmlns="http://www.w3.org/2000/svg"
   xmlns:sodipodi="http://sodipodi.sourceforge.net/DTD/sodipodi-0.dtd"
   xmlns:inkscape="http://www.inkscape.org/namespaces/inkscape"
   id="svg3287"
   version="1.1"
   inkscape:version="0.48.2 r9819"
   width="330.50125"
   height="35.202499"
   xml:space="preserve"
   sodipodi:docname="display.ai"><metadata
     id="metadata3293"><rdf:RDF><cc:Work
         rdf:about=""><dc:format>image/svg+xml</dc:format><dc:type
           rdf:resource="http://purl.org/dc/dcmitype/StillImage" /><dc:title></dc:title></cc:Work></rdf:RDF></metadata><defs
     id="defs3291"><linearGradient
       x1="0"
       y1="0"
       x2="1"
       y2="0"
       gradientUnits="userSpaceOnUse"
       gradientTransform="matrix(0,28.161621,28.161621,0,612.65283,598.49805)"
       spreadMethod="pad"
       id="linearGradient3309"><stop
         style="stop-opacity:1;stop-color:#4d4c4e"
         offset="0"
         id="stop3311" /><stop
         style="stop-opacity:1;stop-color:#373535"
         offset="1"
         id="stop3313" /></linearGradient><linearGradient
       x1="0"
       y1="0"
       x2="1"
       y2="0"
       gradientUnits="userSpaceOnUse"
       gradientTransform="matrix(0,23.661621,23.661621,0,612.65283,600.74805)"
       spreadMethod="pad"
       id="linearGradient3329"><stop
         style="stop-opacity:1;stop-color:#373535"
         offset="0"
         id="stop3331" /><stop
         style="stop-opacity:1;stop-color:#4d4c4e"
         offset="1"
         id="stop3333" /></linearGradient><linearGradient
       x1="0"
       y1="0"
       x2="1"
       y2="0"
       gradientUnits="userSpaceOnUse"
       gradientTransform="matrix(259.90039,0,0,-259.90039,482.70215,618.38281)"
       spreadMethod="pad"
       id="linearGradient3349"><stop
         style="stop-opacity:1;stop-color:#373535"
         offset="0"
         id="stop3351" /><stop
         style="stop-opacity:1;stop-color:#82d4f7"
         offset="0.507767"
         id="stop3353" /><stop
         style="stop-opacity:1;stop-color:#373535"
         offset="1"
         id="stop3355" /></linearGradient><linearGradient
       x1="0"
       y1="0"
       x2="1"
       y2="0"
       gradientUnits="userSpaceOnUse"
       gradientTransform="matrix(259.90039,0,0,259.90039,482.70215,606.32812)"
       spreadMethod="pad"
       id="linearGradient3371"><stop
         style="stop-opacity:1;stop-color:#373535"
         offset="0"
         id="stop3373" /><stop
         style="stop-opacity:1;stop-color:#82d4f7"
         offset="0.507767"
         id="stop3375" /><stop
         style="stop-opacity:1;stop-color:#373535"
         offset="1"
         id="stop3377" /></linearGradient></defs><sodipodi:namedview
     pagecolor="#ffffff"
     bordercolor="#666666"
     borderopacity="1"
     objecttolerance="10"
     gridtolerance="10"
     guidetolerance="10"
     inkscape:pageopacity="0"
     inkscape:pageshadow="2"
     inkscape:window-width="640"
     inkscape:window-height="480"
     id="namedview3289"
     showgrid="false"
     fit-margin-top="0"
     fit-margin-left="0"
     fit-margin-right="0"
     fit-margin-bottom="0"
     inkscape:zoom="0.15424837"
     inkscape:cx="164.435"
     inkscape:cy="16.8775"
     inkscape:window-x="0"
     inkscape:window-y="0"
     inkscape:window-maximized="0"
     inkscape:current-layer="g3295" /><g
     id="g3295"
     inkscape:groupmode="layer"
     inkscape:label="display"
     transform="matrix(1.25,0,0,-1.25,-600.565,783.325)"><g
       id="g3297"><g
         id="g3299"><g
           id="g3305"><g
             id="g3307"><path
               d="m 494.532,626.66 c -7.763,0 -14.08,-6.316 -14.08,-14.079 l 0,0 c 0,-7.767 6.317,-14.083 14.08,-14.083 l 0,0 236.237,0 c 7.767,0 14.084,6.316 14.084,14.083 l 0,0 c 0,7.763 -6.317,14.079 -14.084,14.079 l 0,0 -236.237,0 z"
               style="fill:url(#linearGradient3309);stroke:none"
               id="path3315"
               inkscape:connector-curvature="0" /></g></g></g></g><g
       id="g3317"><g
         id="g3319"><g
           id="g3325"><g
             id="g3327"><path
               d="m 494.532,624.41 c -6.533,0 -11.83,-5.296 -11.83,-11.829 l 0,0 c 0,-6.536 5.297,-11.833 11.83,-11.833 l 0,0 236.237,0 c 6.536,0 11.834,5.297 11.834,11.833 l 0,0 c 0,6.533 -5.298,11.829 -11.834,11.829 l 0,0 -236.237,0 z"
               style="fill:url(#linearGradient3329);stroke:none"
               id="path3335"
               inkscape:connector-curvature="0" /></g></g></g></g><g
       id="g3337"><g
         id="g3339"><g
           id="g3345"><g
             id="g3347"><path
               d="m 494.532,624.41 c -6.533,0 -11.83,-5.296 -11.83,-11.829 l 0,0 c 0,-0.077 0.009,-0.152 0.012,-0.226 l 0,0 c 0.12,6.43 5.361,11.606 11.818,11.606 l 0,0 236.237,0 c 6.461,0 11.701,-5.176 11.822,-11.606 l 0,0 c 0,0.074 0.012,0.149 0.012,0.226 l 0,0 c 0,6.533 -5.298,11.829 -11.834,11.829 l 0,0 -236.237,0 z"
               style="fill:url(#linearGradient3349);stroke:none"
               id="path3357"
               inkscape:connector-curvature="0" /></g></g></g></g><g
       id="g3359"><g
         id="g3361"><g
           id="g3367"><g
             id="g3369"><path
               d="m 730.769,600.75 -236.237,0 c -6.457,0 -11.698,5.176 -11.818,11.605 l 0,0 c -0.003,-0.074 -0.012,-0.148 -0.012,-0.225 l 0,0 c 0,-6.533 5.297,-11.829 11.83,-11.829 l 0,0 236.237,0 c 6.536,0 11.834,5.296 11.834,11.829 l 0,0 c 0,0.077 -0.012,0.151 -0.012,0.225 l 0,0 C 742.47,605.926 737.23,600.75 730.769,600.75"
               style="fill:url(#linearGradient3371);stroke:none"
               id="path3379"
               inkscape:connector-curvature="0" /></g></g></g></g></g></svg>