<?xml version="1.0" encoding="utf-8"?>
<!-- Generator: Adobe Illustrator 15.1.0, SVG Export Plug-In . SVG Version: 6.00 Build 0)  -->
<!DOCTYPE svg PUBLIC "-//W3C//DTD SVG 1.1//EN" "http://www.w3.org/Graphics/SVG/1.1/DTD/svg11.dtd">
<svg version="1.1"
	 id="svg3053" xmlns:dc="http://purl.org/dc/elements/1.1/" sodipodi:docname="floor.plan.ai" xmlns:sodipodi="http://sodipodi.sourceforge.net/DTD/sodipodi-0.dtd" xmlns:cc="http://creativecommons.org/ns#" inkscape:version="0.48.2 r9819" xmlns:svg="http://www.w3.org/2000/svg" xmlns:rdf="http://www.w3.org/1999/02/22-rdf-syntax-ns#" xmlns:inkscape="http://www.inkscape.org/namespaces/inkscape"
	 xmlns="http://www.w3.org/2000/svg" xmlns:xlink="http://www.w3.org/1999/xlink" x="0px" y="0px" width="420.596px"
	 height="328.516px" viewBox="0 0 420.596 328.516" enable-background="new 0 0 420.596 328.516" xml:space="preserve">
<sodipodi:namedview  fit-margin-right="0" inkscape:pageopacity="0" guidetolerance="10" inkscape:current-layer="g3061" fit-margin-left="0" gridtolerance="10" inkscape:window-height="480" inkscape:pageshadow="2" id="namedview3055" inkscape:window-width="640" inkscape:window-x="0" inkscape:zoom="0.15424837" showgrid="false" inkscape:cy="164.54106" borderopacity="1" fit-margin-bottom="0" inkscape:window-y="0" inkscape:cx="209.6365" pagecolor="#ffffff" fit-margin-top="0" bordercolor="#666666" objecttolerance="10" inkscape:window-maximized="0">
	</sodipodi:namedview>
<g id="g3063" transform="translate(773.5176,667.1396)">
	<path id="path3065" inkscape:connector-curvature="0" d="M-361.984-572.09v-93.475h-403.148v93.475h-6.474v231.903h417.109V-572.09
		H-361.984z"/>
</g>
<g id="g3067" transform="translate(724.3545,481.6172)">
	<path id="path3069" inkscape:connector-curvature="0" fill="#FFFFFF" d="M-374.274-154.664v-18.286h-32.243v5.956h-13.522v11.946
		L-374.274-154.664z"/>
</g>
<g id="g3071" transform="translate(724.3545,481.6172)">
	
		<path id="path3073" inkscape:connector-curvature="0" fill="none" stroke="#FFFFFF" stroke-width="1.25" stroke-miterlimit="10" d="
		M-374.274-154.664v-18.286h-32.243v5.956h-13.522v11.946L-374.274-154.664z"/>
</g>
<g id="g3075" transform="translate(534.8647,741.7881)">
	
		<path id="path3077" inkscape:connector-curvature="0" fill="none" stroke="#FFFFFF" stroke-width="1.25" stroke-miterlimit="10" d="
		M-421.647-740.049l-104.833-0.165v93.468h403.34v-93.468l-104.401,0.165"/>
</g>
<path id="path3079" inkscape:connector-curvature="0" fill="none" stroke="#FFFFFF" stroke-width="1.25" stroke-miterlimit="10" d="
	M1.017,94.041h117.04v149.741H1.017V94.041z"/>
<path id="path3081" inkscape:connector-curvature="0" fill="none" stroke="#FFFFFF" stroke-width="1.25" stroke-miterlimit="10" d="
	M119.228,225.444h126.672v102.015H119.228V225.444z"/>
<g id="g3083" transform="translate(446.0337,548.4648)">
	
		<path id="path3085" inkscape:connector-curvature="0" fill="none" stroke="#FFFFFF" stroke-width="1.25" stroke-miterlimit="10" d="
		M-443.855-305.071v83.17h116.011l0.353-34.413h22.699v-27.531h-23.749l0.284-42.949h-39.311v21.725L-443.855-305.071
		L-443.855-305.071z"/>
</g>
<g id="g3087" transform="translate(684.999,562.3711)">
	
		<path id="path3089" inkscape:connector-curvature="0" fill="none" stroke="#FFFFFF" stroke-width="1.25" stroke-miterlimit="10" d="
		M-384.113-336.36v-4.698h6.272v-40.587l10.137-0.366V-417.8h-9.769v-22.136h-4.797v-27.99l-185.355-0.14l0.402,131.706H-384.113z"
		/>
</g>
<g id="g3091" transform="translate(685.2578,667.0293)">
	
		<path id="path3093" inkscape:connector-curvature="0" fill="none" stroke="#FFFFFF" stroke-width="1.25" stroke-miterlimit="10" d="
		M-384.049-571.841v27.564h6.217v2.7h11.566v72.013l-11.997-0.102v24.313h54.716l0.207,25.447h57.52l-0.416-152.074
		L-384.049-571.841z"/>
</g>
<g id="g3095" transform="translate(640.8047,562.3711)">
	
		<path id="path3097" inkscape:connector-curvature="0" fill="none" stroke="#FFFFFF" stroke-width="1.25" stroke-miterlimit="10" d="
		M-395.162-336.36h55.242v-4.344h60.829l0.206,25.45h57.52l-0.413,79.835h-68.949v-18.286h-32.243v5.956h-13.522v11.946h-58.672
		L-395.162-336.36z"/>
</g>
<g id="g3099" transform="translate(688.2979,643.9629)">
	
		<path id="path3101" inkscape:connector-curvature="0" fill="none" stroke="#FFFFFF" stroke-width="1.25" stroke-miterlimit="10" d="
		M-383.289-519.942l14.968-0.207v72.963h-14.803v-6.147h-5.755v-14.921h15.584v-28.382h-15.584v-13.596h5.585L-383.289-519.942z"/>
</g>
<g id="g3103">
	<g>
		<defs>
			<rect id="SVGID_1_" x="-555.363" y="-601.025" width="1530" height="1530"/>
		</defs>
		<clipPath id="SVGID_2_">
			<use xlink:href="#SVGID_1_"  overflow="visible"/>
		</clipPath>
		<g id="g3105" clip-path="url(#SVGID_2_)">
			<g id="g3111" transform="translate(747.6162,546.9736)">
				<path id="path3113" inkscape:connector-curvature="0" fill="#FFFFFF" stroke="#FFFFFF" stroke-width="1.25" d="M-368.46-301.716
					v-26.797c0-11.555-17.175-11.383-17.175,0v27.229h51.592v-10.994h-11.066v10.769 M-363.687-307.347v-8.693
					c0-5.434,9.409-5.611,9.409,0v8.266 M-352.385-301.227v-6.108h-13.385v6.108"/>
			</g>
			<g id="g3115" transform="translate(689.7988,565.4609)">
				<path id="path3117" inkscape:connector-curvature="0" fill="none" stroke="#FFFFFF" stroke-width="2.5" d="M-382.914-343.312
					l0.116-24.791 M-277.362-500.277h7.089 M-689.799-496.292h7.975 M-384.982-482.212v12.208 M-382.798-368.103l19.128,0.103
					 M-571.607-238.893v-34.345h23.586 M-548.021-307.586v7.035h-24v-141.936 M-548.021-238.893v-14.897 M-444.156-238.893v-73.245
					 M-312.567-239.31v-28.551 M-328.293-368.826v62.481h-5.792 M-270.358-318.344h-57.521 M-611.748-322.067v-45.104
					 M-687.888-322.067h21.518 M-328.085-343.794h-60.829 M-687.888-368.001h10.759 M-681.414-470.42v-93.466l104.83,0.165
					 M-615.735-470.42h110.309 M-454.062-470.42h108.203 M-313.438-470.42h42.668v162.936 M-270.771-296.957v4.632
					 M-270.771-272.959v4.631 M-270.771-257.804v19.296h-194.467 M-489.948-238.508h-197.94V-470.42h43.945 M-579.125-563.73
					l196.647,0.009l104.4-0.165v93.466 M-654.576-368.002h50.691 M-582.575-368.002h10.551 M-341.947-368.002h39.518
					 M-279.254-368.002h8.483 M-497.689-339.45h-74.333 M-645.265-322.067h44.69 M-580.712-322.067h9.105 M-356.845-306.345h-49.656
					 M-430.501-306.345h-14.07 M-312.567-292.275v-25.653 M-444.156-328.277v-11.172 M-548.021-326.62v-12.416 M-548.021-267.861
					v-10.759 M-572.435-459.45v-21.932 M-572.022-343.794h-39.312 M-388.914-470.272v10.299 M-388.914-374.826v35.379h-70.153
					 M-391.19-442.71h9.991"/>
			</g>
			<g id="g3119" transform="translate(685.4951,666.6484)">
				
					<path id="path3121" inkscape:connector-curvature="0" fill="none" stroke="#FFFFFF" stroke-width="1.25" stroke-miterlimit="10" d="
					M-383.99-570.984h17.793v7.241h-12.825v2.896h-4.969L-383.99-570.984L-383.99-570.984z"/>
			</g>
			<g id="g3123" transform="translate(710.1973,483.7314)">
				<path id="path3125" inkscape:connector-curvature="0" fill="none" stroke="#FFFFFF" stroke-width="1.25" d="M-377.814-159.421
					v-16.294 M-405.748-169.895v8.438h12.22v-13.967h32.879v16.295"/>
			</g>
			<path id="path3127" inkscape:connector-curvature="0" fill="#FFFFFF" stroke="#FFFFFF" stroke-width="1.25" d="M3.307,241.807
				h12.778v-12.604H3.307V241.807z"/>
			<g id="g3129" transform="translate(500.7271,556.0273)">
				<path id="path3131" inkscape:connector-curvature="0" fill="#FFFFFF" stroke="#FFFFFF" stroke-width="1.25" d="
					M-430.182-322.087h-8.694c-5.433,0-5.61-9.406,0-9.406h8.266 M-424.125-333.467h-6.046v13.463h6.046V-333.467z"/>
			</g>
			<g id="g3133" transform="translate(505.6558,583.9951)">
				<path id="path3135" inkscape:connector-curvature="0" fill="#FFFFFF" d="M-428.95-385.015h-27.221
					c-11.56,0-11.387,17.173,0,17.173h27.221V-385.015z"/>
			</g>
			<g id="g3137" transform="translate(505.6558,583.9951)">
				<path id="path3139" inkscape:connector-curvature="0" fill="none" stroke="#FFFFFF" stroke-width="1.25" d="M-428.95-385.015
					h-27.221c-11.56,0-11.387,17.173,0,17.173h27.221V-385.015z"/>
			</g>
			<g id="g3141" transform="translate(598.0049,708.6597)">
				<path id="path3143" inkscape:connector-curvature="0" fill="#7F7E7E" d="M-405.862-665.51c-0.296-0.156-0.485-0.188-1-0.188
					h-2.156v2.561h2.156c0.515,0,0.703-0.031,1-0.171c0.36-0.188,0.625-0.673,0.625-1.109
					C-405.237-664.854-405.502-665.291-405.862-665.51 M-405.159-661.807c-0.485,0.219-1.11,0.36-1.921,0.36h-1.938v4.561h-1.655
					v-10.466h3.593c0.844,0,1.406,0.077,1.921,0.329c0.908,0.438,1.61,1.546,1.61,2.609
					C-403.548-663.307-404.252-662.213-405.159-661.807"/>
			</g>
			<g id="g3145" transform="translate(603.918,707.8096)">
				<path id="path3147" inkscape:connector-curvature="0" fill="#7F7E7E" d="M-404.384-663.597l-1.078,2.937h2.094L-404.384-663.597
					z M-401.744-656.037l-1.031-2.938h-3.264l-1.031,2.938h-1.768l3.611-10.466h1.64l3.609,10.466H-401.744z"/>
			</g>
			<g id="g3149" transform="translate(611.2051,708.96)">
				<path id="path3151" inkscape:connector-curvature="0" fill="#7F7E7E" d="M-402.562-666.186v8.998h-1.655v-8.998h-2.39v-1.469
					h6.468v1.469H-402.562z"/>
			</g>
			<path id="path3153" inkscape:connector-curvature="0" fill="#7F7E7E" d="M212.612,41.306h1.688v10.466h-1.688V41.306z"/>
			<g id="g3155" transform="translate(621.667,708.2847)">
				<path id="path3157" inkscape:connector-curvature="0" fill="#7F7E7E" d="M-399.947-664.666
					c-0.328-0.547-0.734-0.765-1.359-0.812h-0.093c-0.751,0-1.25,0.406-1.595,1.296c-0.264,0.625-0.404,1.577-0.404,2.452
					c0,1.109,0.219,2.249,0.625,2.905c0.328,0.547,0.766,0.812,1.437,0.812c0.765,0,1.25-0.406,1.608-1.328
					c0.219-0.547,0.406-1.578,0.406-2.39C-399.322-662.901-399.542-663.963-399.947-664.666 M-398.807-657.496
					c-0.594,0.796-1.437,1.171-2.53,1.171c-1.469,0-2.39-0.594-3.015-1.875c-0.438-0.89-0.734-2.281-0.734-3.53
					c0-1.719,0.438-3.265,1.141-4.265c0.625-0.798,1.469-1.173,2.67-1.173c1.328,0,2.251,0.594,2.906,1.875
					c0.438,0.921,0.702,2.25,0.702,3.562C-397.667-660.074-398.073-658.418-398.807-657.496"/>
			</g>
			<g id="g3159" transform="translate(593.4819,619.6895)">
				<path id="path3161" inkscape:connector-curvature="0" fill="#7F7E7E" d="M-406.993-465.327v-10.466h1.655v8.92h4.842v1.546
					H-406.993z"/>
			</g>
			<path id="path3163" inkscape:connector-curvature="0" fill="#7F7E7E" d="M194.535,143.896h1.689v10.466h-1.689V143.896z"/>
			<g id="g3165" transform="translate(606.2051,619.6895)">
				<path id="path3167" inkscape:connector-curvature="0" fill="#7F7E7E" d="M-403.812-465.327h-1.281l-3.311-10.466h1.735
					l2.234,6.982l2.203-6.982h1.766L-403.812-465.327z"/>
			</g>
			<path id="path3169" inkscape:connector-curvature="0" fill="#7F7E7E" d="M207.285,143.896h1.688v10.466h-1.688V143.896z"/>
			<g id="g3171" transform="translate(617.9922,619.6895)">
				<path id="path3173" inkscape:connector-curvature="0" fill="#7F7E7E" d="M-400.865-465.327l-3.999-7.093v7.093h-1.654v-10.466
					h1.654l3.812,6.686v-6.686h1.655v10.466H-400.865z"/>
			</g>
			<g id="g3175" transform="translate(624.043,619.5391)">
				<path id="path3177" inkscape:connector-curvature="0" fill="#7F7E7E" d="M-399.353-464.988c-1.578,0-2.499-0.595-3.124-1.906
					c-0.438-0.921-0.688-2.218-0.688-3.499c0-1.688,0.469-3.344,1.171-4.265c0.625-0.765,1.5-1.171,2.687-1.171
					c1.608,0,2.562,0.671,3.264,2.311l-1.577,0.625c-0.438-0.906-0.891-1.248-1.688-1.248c-0.844,0-1.405,0.374-1.766,1.296
					c-0.265,0.625-0.404,1.578-0.404,2.451c0,1.109,0.186,2.203,0.515,2.874c0.329,0.579,0.812,0.844,1.437,0.844
					c1.062,0,1.827-0.671,1.827-1.623v-0.44h-1.905v-1.655h3.562v2.095C-396.04-466.395-397.432-464.988-399.353-464.988"/>
			</g>
			<g id="g3179" transform="translate(599.2422,611.5879)">
				<path id="path3181" inkscape:connector-curvature="0" fill="#7F7E7E" d="M-405.553-447.098
					c-0.283-0.156-0.405-0.185-0.953-0.185h-1.985v2.561h1.985c0.514,0,0.686-0.031,0.953-0.173
					c0.405-0.233,0.655-0.671,0.655-1.108S-405.145-446.879-405.553-447.098 M-404.818-438.476l-1.688-4.562h-1.985v4.562h-1.655
					v-10.466h3.453c0.812,0,1.36,0.078,1.875,0.329c0.92,0.439,1.578,1.546,1.578,2.609c0,1.108-0.655,2.202-1.624,2.64l1.843,4.889
					H-404.818z"/>
			</g>
			<g id="g3183" transform="translate(606.6172,611.2129)">
				<path id="path3185" inkscape:connector-curvature="0" fill="#7F7E7E" d="M-403.709-446.254
					c-0.329-0.548-0.734-0.764-1.359-0.811h-0.094c-0.751,0-1.25,0.404-1.594,1.297c-0.264,0.625-0.406,1.576-0.406,2.451
					c0,1.108,0.221,2.25,0.625,2.904c0.33,0.548,0.766,0.812,1.438,0.812c0.765,0,1.25-0.405,1.609-1.326
					c0.22-0.549,0.406-1.58,0.406-2.39C-403.084-444.489-403.302-445.551-403.709-446.254 M-402.569-439.084
					c-0.594,0.796-1.436,1.172-2.53,1.172c-1.469,0-2.389-0.595-3.014-1.875c-0.44-0.89-0.735-2.279-0.735-3.529
					c0-1.719,0.437-3.266,1.14-4.267c0.625-0.795,1.469-1.17,2.671-1.17c1.329,0,2.249,0.595,2.906,1.874
					c0.436,0.921,0.701,2.25,0.701,3.563C-401.427-441.662-401.834-440.006-402.569-439.084"/>
			</g>
			<g id="g3187" transform="translate(614.2305,611.2129)">
				<path id="path3189" inkscape:connector-curvature="0" fill="#7F7E7E" d="M-401.806-446.254c-0.329-0.548-0.735-0.764-1.36-0.811
					h-0.093c-0.751,0-1.25,0.404-1.593,1.297c-0.264,0.625-0.405,1.576-0.405,2.451c0,1.108,0.219,2.25,0.625,2.904
					c0.327,0.548,0.766,0.812,1.438,0.812c0.764,0,1.25-0.405,1.608-1.326c0.219-0.549,0.405-1.58,0.405-2.39
					C-401.181-444.489-401.401-445.551-401.806-446.254 M-400.666-439.084c-0.593,0.796-1.435,1.172-2.528,1.172
					c-1.47,0-2.39-0.595-3.015-1.875c-0.439-0.89-0.734-2.279-0.734-3.529c0-1.719,0.437-3.266,1.14-4.267
					c0.625-0.795,1.469-1.17,2.669-1.17c1.328,0,2.25,0.595,2.906,1.874c0.438,0.921,0.701,2.25,0.701,3.563
					C-399.526-441.662-399.933-440.006-400.666-439.084"/>
			</g>
			<g id="g3191" transform="translate(623.1045,604.6895)">
				<path id="path3193" inkscape:connector-curvature="0" fill="#7F7E7E" d="M-399.588-431.576v-6.062l-2.421,6.062l-2.423-6.062
					v6.062h-1.653v-10.467h1.653l2.423,5.873l2.421-5.873h1.656v10.467H-399.588z"/>
			</g>
			<g id="g3195" transform="translate(477.439,631.0498)">
				<path id="path3197" inkscape:connector-curvature="0" fill="#7F7E7E" d="M-436.004-490.888v-6.061l-2.422,6.061l-2.421-6.061
					v6.061h-1.656v-10.466h1.656l2.421,5.874l2.422-5.874h1.655v10.466H-436.004z"/>
			</g>
			<g id="g3199" transform="translate(483.5889,637.0986)">
				<path id="path3201" inkscape:connector-curvature="0" fill="#7F7E7E" d="M-434.466-504.497l-1.078,2.938h2.093L-434.466-504.497
					z M-431.826-496.936l-1.031-2.939h-3.265l-1.031,2.939h-1.766l3.609-10.466h1.64l3.609,10.466H-431.826z"/>
			</g>
			<g id="g3203" transform="translate(492.6631,631.5498)">
				<path id="path3205" inkscape:connector-curvature="0" fill="#7F7E7E" d="M-432.198-492.013c-0.578,0.515-1.39,0.812-2.281,0.812
					c-1.796,0-3.11-1.062-3.811-2.656l1.577-0.576c0.438,0.985,1.25,1.546,2.234,1.546c0.969,0,1.625-0.672,1.625-1.546
					c0-1.39-1.625-1.625-2.984-2.171c-0.625-0.25-2.015-0.875-2.015-2.609c0-2.047,1.39-2.826,3.265-2.826
					c1.469,0,2.469,0.841,2.984,2.138l-1.469,0.438c0,0-0.375-0.89-1.547-0.921h-0.107c-0.719,0-1.5,0.28-1.5,1.11v0.107
					c0.14,1.939,5.061,0.658,5.061,4.766C-431.167-493.449-431.542-492.607-432.198-492.013"/>
			</g>
			<g id="g3207" transform="translate(497.4009,638.248)">
				<path id="path3209" inkscape:connector-curvature="0" fill="#7F7E7E" d="M-431.013-507.083v8.998h-1.656v-8.998h-2.39v-1.469
					h6.468v1.469H-431.013z"/>
			</g>
			<g id="g3211" transform="translate(500.5757,631.0498)">
				<path id="path3213" inkscape:connector-curvature="0" fill="#7F7E7E" d="M-430.22-490.888v-10.466h6.171v1.656h-4.515v2.561
					h3.046v1.688h-3.046v2.875h4.844v1.688h-6.5V-490.888z"/>
			</g>
			<g id="g3215" transform="translate(510.8628,637.9473)">
				<path id="path3217" inkscape:connector-curvature="0" fill="#7F7E7E" d="M-427.648-506.407
					c-0.281-0.156-0.406-0.187-0.952-0.187h-1.984v2.56h1.984c0.515,0,0.688-0.03,0.952-0.171c0.406-0.235,0.656-0.671,0.656-1.109
					C-426.992-505.752-427.24-506.19-427.648-506.407 M-426.913-497.786l-1.688-4.561h-1.984v4.561h-1.655v-10.466h3.453
					c0.812,0,1.359,0.078,1.875,0.329c0.921,0.438,1.578,1.546,1.578,2.61c0,1.109-0.656,2.203-1.625,2.639l1.844,4.889H-426.913z"
					/>
			</g>
			<g id="g3219" transform="translate(470.7637,619.6367)">
				<path id="path3221" inkscape:connector-curvature="0" fill="#7F7E7E" d="M-437.672-465.208
					c-0.219-0.079-0.328-0.079-0.688-0.079h-2.094v2.876h2.5c0.844,0,1.281-0.406,1.281-1.219
					C-436.672-464.317-437.079-464.989-437.672-465.208 M-438.033-469.534h-2.421v2.561h1.983c0.469,0,0.688-0.062,0.984-0.281
					c0.375-0.296,0.594-0.735,0.594-1.219C-436.891-469.176-437.297-469.534-438.033-469.534 M-436.672-460.974
					c-0.375,0.14-1,0.25-1.469,0.25h-3.968v-10.466h3.968c1.656,0,2.906,1.14,2.906,2.64c0,1.03-0.485,1.796-1.469,2.359
					c1.094,0.515,1.719,1.39,1.719,2.529C-434.985-462.523-435.689-461.379-436.672-460.974"/>
			</g>
			<g id="g3223" transform="translate(474.3267,616.0498)">
				<path id="path3225" inkscape:connector-curvature="0" fill="#7F7E7E" d="M-436.782-457.138v-10.466h6.17v1.656h-4.515v2.561
					h3.046v1.688h-3.046v2.875h4.843v1.688h-6.498V-457.138z"/>
			</g>
			<g id="g3227" transform="translate(484.6128,622.748)">
				<path id="path3229" inkscape:connector-curvature="0" fill="#7F7E7E" d="M-434.21-472.208c-0.265-0.249-0.625-0.438-1.062-0.438
					h-1.875v7.123h1.656c0.548,0,0.875-0.11,1.173-0.406c0.625-0.625,0.952-1.765,0.952-3.155
					C-433.367-470.49-433.694-471.661-434.21-472.208 M-433.523-464.43c-0.39,0.375-0.952,0.561-1.5,0.594h-0.594h-3.186v-10.466
					h3.374c1.062,0,1.469,0.11,2.031,0.549c1.094,0.953,1.719,2.607,1.719,4.668C-431.679-466.991-432.335-465.335-433.523-464.43"
					/>
			</g>
			<g id="g3231" transform="translate(492.1377,622.9473)">
				<path id="path3233" inkscape:connector-curvature="0" fill="#7F7E7E" d="M-432.329-472.657
					c-0.281-0.156-0.406-0.187-0.953-0.187h-1.983v2.56h1.983c0.515,0,0.688-0.03,0.953-0.171c0.406-0.235,0.656-0.671,0.656-1.109
					C-431.673-472.002-431.923-472.44-432.329-472.657 M-431.594-464.036l-1.688-4.561h-1.983v4.561h-1.656v-10.466h3.452
					c0.812,0,1.359,0.078,1.875,0.329c0.921,0.438,1.578,1.546,1.578,2.61c0,1.109-0.656,2.203-1.625,2.639l1.844,4.889H-431.594z"
					/>
			</g>
			<g id="g3235" transform="translate(499.5127,622.5723)">
				<path id="path3237" inkscape:connector-curvature="0" fill="#7F7E7E" d="M-430.485-471.813
					c-0.329-0.547-0.734-0.765-1.359-0.812h-0.094c-0.75,0-1.25,0.404-1.592,1.296c-0.265,0.625-0.406,1.576-0.406,2.453
					c0,1.107,0.219,2.249,0.625,2.905c0.329,0.546,0.765,0.812,1.438,0.812c0.765,0,1.25-0.406,1.609-1.326
					c0.219-0.549,0.406-1.58,0.406-2.39C-429.86-470.048-430.079-471.11-430.485-471.813 M-429.345-464.645
					c-0.594,0.798-1.438,1.174-2.53,1.174c-1.469,0-2.39-0.596-3.015-1.875c-0.438-0.891-0.734-2.28-0.734-3.53
					c0-1.719,0.438-3.266,1.141-4.266c0.625-0.795,1.468-1.171,2.671-1.171c1.328,0,2.25,0.595,2.906,1.875
					c0.438,0.92,0.703,2.249,0.703,3.562C-428.204-467.223-428.61-465.565-429.345-464.645"/>
			</g>
			<g id="g3239" transform="translate(507.126,622.5723)">
				<path id="path3241" inkscape:connector-curvature="0" fill="#7F7E7E" d="M-428.582-471.813
					c-0.329-0.547-0.734-0.765-1.359-0.812h-0.094c-0.75,0-1.25,0.404-1.592,1.296c-0.265,0.625-0.406,1.576-0.406,2.453
					c0,1.107,0.219,2.249,0.625,2.905c0.329,0.546,0.765,0.812,1.438,0.812c0.765,0,1.25-0.406,1.609-1.326
					c0.219-0.549,0.406-1.58,0.406-2.39C-427.958-470.048-428.177-471.11-428.582-471.813 M-427.442-464.645
					c-0.594,0.798-1.438,1.174-2.53,1.174c-1.469,0-2.39-0.596-3.015-1.875c-0.438-0.891-0.734-2.28-0.734-3.53
					c0-1.719,0.438-3.266,1.141-4.266c0.625-0.795,1.468-1.171,2.671-1.171c1.328,0,2.25,0.595,2.906,1.875
					c0.438,0.92,0.703,2.249,0.703,3.562C-426.302-467.223-426.708-465.565-427.442-464.645"/>
			</g>
			<g id="g3243" transform="translate(516,616.0498)">
				<path id="path3245" inkscape:connector-curvature="0" fill="#7F7E7E" d="M-426.363-457.138v-6.061l-2.421,6.061l-2.421-6.061
					v6.061h-1.655v-10.466h1.655l2.421,5.874l2.421-5.874h1.656v10.466H-426.363z"/>
			</g>
			<g id="g3247" transform="translate(482.4199,517.4492)">
				<path id="path3249" inkscape:connector-curvature="0" fill="#7F7E7E" d="M-434.759-235.286v-4.56h-3.811v4.56h-1.655v-10.466
					h1.655v4.217h3.811v-4.217h1.656v10.466H-434.759z"/>
			</g>
			<g id="g3251" transform="translate(489.6826,523.9727)">
				<path id="path3253" inkscape:connector-curvature="0" fill="#7F7E7E" d="M-432.943-249.964
					c-0.329-0.548-0.734-0.765-1.359-0.812h-0.094c-0.75,0-1.25,0.405-1.592,1.297c-0.265,0.625-0.406,1.576-0.406,2.452
					c0,1.107,0.219,2.249,0.625,2.905c0.329,0.546,0.765,0.811,1.438,0.811c0.765,0,1.25-0.404,1.608-1.327
					c0.219-0.548,0.406-1.579,0.406-2.39C-432.319-248.199-432.538-249.26-432.943-249.964 M-431.803-242.794
					c-0.594,0.798-1.438,1.174-2.53,1.174c-1.469,0-2.39-0.595-3.015-1.875c-0.438-0.89-0.733-2.28-0.733-3.53
					c0-1.719,0.438-3.266,1.141-4.265c0.625-0.796,1.467-1.171,2.671-1.171c1.327,0,2.25,0.594,2.905,1.873
					c0.438,0.922,0.703,2.25,0.703,3.562C-430.663-245.371-431.069-243.715-431.803-242.794"/>
			</g>
			<g id="g3255" transform="translate(498.5566,517.4492)">
				<path id="path3257" inkscape:connector-curvature="0" fill="#7F7E7E" d="M-430.725-235.286v-6.062l-2.421,6.062l-2.421-6.062
					v6.062h-1.655v-10.466h1.655l2.421,5.873l2.421-5.873h1.656v10.466H-430.725z"/>
			</g>
			<g id="g3259" transform="translate(501.8828,517.4492)">
				<path id="path3261" inkscape:connector-curvature="0" fill="#7F7E7E" d="M-429.893-235.286v-10.466h6.171v1.656h-4.515v2.562
					h3.046v1.688h-3.046v2.873h4.844v1.689h-6.5V-235.286z"/>
			</g>
			<g id="g3263" transform="translate(478.3066,508.9727)">
				<path id="path3265" inkscape:connector-curvature="0" fill="#7F7E7E" d="M-435.787-216.214
					c-0.329-0.548-0.733-0.765-1.358-0.812h-0.094c-0.75,0-1.25,0.405-1.593,1.297c-0.265,0.625-0.406,1.576-0.406,2.452
					c0,1.107,0.219,2.249,0.625,2.905c0.329,0.546,0.765,0.811,1.438,0.811c0.765,0,1.25-0.404,1.609-1.327
					c0.219-0.548,0.406-1.579,0.406-2.39C-435.162-214.449-435.381-215.51-435.787-216.214 M-434.647-209.044
					c-0.594,0.798-1.438,1.174-2.53,1.174c-1.469,0-2.39-0.595-3.015-1.875c-0.438-0.89-0.734-2.28-0.734-3.53
					c0-1.719,0.438-3.266,1.142-4.266c0.625-0.795,1.467-1.17,2.671-1.17c1.328,0,2.25,0.594,2.906,1.873
					c0.438,0.922,0.703,2.25,0.703,3.562C-433.506-211.621-433.912-209.965-434.647-209.044"/>
			</g>
			<g id="g3267" transform="translate(483.3066,509.4971)">
				<path id="path3269" inkscape:connector-curvature="0" fill="#7F7E7E" d="M-434.537-217.394v2.561h3.046v1.688h-3.046v4.562
					h-1.656v-10.466h6.499v1.656H-434.537z"/>
			</g>
			<g id="g3271" transform="translate(489.7446,509.4971)">
				<path id="path3273" inkscape:connector-curvature="0" fill="#7F7E7E" d="M-432.927-217.394v2.561h3.046v1.688h-3.046v4.562
					h-1.656v-10.466h6.499v1.656H-432.927z"/>
			</g>
			<path id="path3275" inkscape:connector-curvature="0" fill="#7F7E7E" d="M63.209,290.447h1.688v10.466h-1.688V290.447z"/>
			<g id="g3277" transform="translate(501.207,502.2988)">
				<path id="path3279" inkscape:connector-curvature="0" fill="#7F7E7E" d="M-430.062-201.197c-1.546,0-2.53-0.596-3.202-1.875
					c-0.469-0.922-0.765-2.25-0.765-3.562c0-1.655,0.438-3.312,1.172-4.234c0.625-0.765,1.5-1.171,2.687-1.171
					c1.577,0,2.561,0.671,3.265,2.14l-1.546,0.655c-0.578-0.89-0.921-1.108-1.719-1.108c-0.844,0-1.406,0.375-1.765,1.296
					c-0.265,0.625-0.406,1.531-0.406,2.421c0,1.141,0.25,2.281,0.656,2.938c0.375,0.548,0.844,0.812,1.578,0.812
					c0.702,0,1.219-0.375,1.625-1.219l1.577,0.595C-427.531-201.978-428.562-201.197-430.062-201.197"/>
			</g>
			<g id="g3281" transform="translate(505.5576,502.4492)">
				<path id="path3283" inkscape:connector-curvature="0" fill="#7F7E7E" d="M-428.974-201.536v-10.466h6.17v1.656h-4.515v2.562
					h3.046v1.688h-3.046v2.873h4.843v1.689h-6.498V-201.536z"/>
			</g>
			<g id="g3285" transform="translate(572.0508,522.6133)">
				<path id="path3287" inkscape:connector-curvature="0" fill="#7F7E7E" d="M-412.351-246.905v-10.466h6.171v1.657h-4.515v2.562
					h3.046v1.688h-3.046v2.873h4.844v1.689h-6.5V-246.905z"/>
			</g>
			<g id="g3289" transform="translate(583.187,522.6133)">
				<path id="path3291" inkscape:connector-curvature="0" fill="#7F7E7E" d="M-409.567-246.905l-3.999-7.093v7.093h-1.656v-10.466
					h1.656l3.811,6.688v-6.688h1.656v10.466H-409.567z"/>
			</g>
			<g id="g3293" transform="translate(588.8628,529.8125)">
				<path id="path3295" inkscape:connector-curvature="0" fill="#7F7E7E" d="M-408.148-263.104v8.998h-1.656v-8.998h-2.39v-1.468
					h6.467v1.468H-408.148z"/>
			</g>
			<g id="g3297" transform="translate(595.7129,529.5117)">
				<path id="path3299" inkscape:connector-curvature="0" fill="#7F7E7E" d="M-406.436-262.427
					c-0.281-0.156-0.406-0.185-0.952-0.185h-1.984v2.56h1.984c0.515,0,0.688-0.03,0.952-0.173c0.406-0.234,0.656-0.671,0.656-1.108
					S-406.03-262.208-406.436-262.427 M-405.702-253.805l-1.688-4.56h-1.984v4.56h-1.656v-10.466h3.453
					c0.812,0,1.359,0.079,1.875,0.33c0.921,0.438,1.579,1.545,1.579,2.608c0,1.109-0.656,2.203-1.625,2.641l1.841,4.887H-405.702z"
					/>
			</g>
			<g id="g3301" transform="translate(601.9746,528.6621)">
				<path id="path3303" inkscape:connector-curvature="0" fill="#7F7E7E" d="M-404.87-260.516l-1.076,2.938h2.093L-404.87-260.516z
					 M-402.23-252.954l-1.031-2.938h-3.264l-1.03,2.938h-1.767l3.61-10.466h1.64l3.609,10.466H-402.23z"/>
			</g>
			<g id="g3305" transform="translate(611.2871,522.6133)">
				<path id="path3307" inkscape:connector-curvature="0" fill="#7F7E7E" d="M-402.542-246.905l-3.999-7.093v7.093h-1.655v-10.466
					h1.655l3.812,6.688v-6.688h1.655v10.466H-402.542z"/>
			</g>
			<g id="g3309" transform="translate(617.4619,522.4629)">
				<path id="path3311" inkscape:connector-curvature="0" fill="#7F7E7E" d="M-400.998-246.566c-1.547,0-2.53-0.596-3.203-1.875
					c-0.469-0.92-0.765-2.25-0.765-3.562c0-1.656,0.438-3.312,1.171-4.232c0.625-0.768,1.5-1.174,2.688-1.174
					c1.578,0,2.562,0.672,3.265,2.141l-1.546,0.655c-0.578-0.89-0.922-1.108-1.719-1.108c-0.844,0-1.406,0.375-1.766,1.296
					c-0.266,0.625-0.405,1.531-0.405,2.42c0,1.142,0.249,2.284,0.655,2.938c0.375,0.548,0.844,0.812,1.578,0.812
					c0.702,0,1.219-0.375,1.625-1.219l1.577,0.594C-398.468-247.348-399.498-246.566-400.998-246.566"/>
			</g>
			<g id="g3313" transform="translate(621.8135,522.6133)">
				<path id="path3315" inkscape:connector-curvature="0" fill="#7F7E7E" d="M-399.91-246.905v-10.466h6.172v1.657h-4.516v2.562
					h3.049v1.688h-3.049v2.873h4.843v1.689h-6.499V-246.905z"/>
			</g>
			<g id="g3317" transform="translate(590.5176,507.6133)">
				<path id="path3319" inkscape:connector-curvature="0" fill="#7F7E7E" d="M-407.734-213.155v-4.56h-3.811v4.56h-1.655v-10.466
					h1.655v4.219h3.811v-4.219h1.656v10.466H-407.734z"/>
			</g>
			<g id="g3321" transform="translate(596.6689,513.6621)">
				<path id="path3323" inkscape:connector-curvature="0" fill="#7F7E7E" d="M-406.196-226.766l-1.078,2.939h2.093L-406.196-226.766
					z M-403.556-219.204l-1.031-2.938h-3.265l-1.031,2.938h-1.766l3.608-10.466h1.64l3.607,10.466H-403.556z"/>
			</g>
			<g id="g3325" transform="translate(601.457,507.6133)">
				<path id="path3327" inkscape:connector-curvature="0" fill="#7F7E7E" d="M-404.999-213.155v-10.466h1.655v8.921h4.842v1.545
					H-404.999z"/>
			</g>
			<g id="g3329" transform="translate(607.8945,507.6133)">
				<path id="path3331" inkscape:connector-curvature="0" fill="#7F7E7E" d="M-403.39-213.155v-10.466h1.655v8.921h4.842v1.545
					H-403.39z"/>
			</g>
			<g id="g3333" transform="translate(676.7344,510.2207)">
				<path id="path3335" inkscape:connector-curvature="0" fill="#7F7E7E" d="M-386.18-219.021l-2.653-4.953l-1.094,1.359v3.594
					h-1.656v-10.467h1.656v4.154l3.295-4.154h2.143l-3.234,4.078l3.451,6.389H-386.18z"/>
			</g>
			<path id="path3337" inkscape:connector-curvature="0" fill="#7F7E7E" d="M294.259,280.732h1.688v10.466h-1.688V280.732z"/>
			<g id="g3339" transform="translate(685.5479,517.4189)">
				<path id="path3341" inkscape:connector-curvature="0" fill="#7F7E7E" d="M-383.977-235.218v8.997h-1.654v-8.997h-2.391v-1.469
					h6.467v1.469H-383.977z"/>
			</g>
			<g id="g3343" transform="translate(691.7227,510.0703)">
				<path id="path3345" inkscape:connector-curvature="0" fill="#7F7E7E" d="M-382.433-218.684c-1.545,0-2.529-0.596-3.203-1.875
					c-0.469-0.92-0.765-2.25-0.765-3.562c0-1.655,0.438-3.311,1.173-4.232c0.625-0.767,1.498-1.173,2.685-1.173
					c1.579,0,2.562,0.671,3.266,2.14l-1.547,0.656c-0.577-0.89-0.921-1.108-1.719-1.108c-0.844,0-1.405,0.375-1.765,1.296
					c-0.266,0.625-0.405,1.531-0.405,2.42c0,1.143,0.249,2.283,0.655,2.939c0.375,0.547,0.844,0.811,1.578,0.811
					c0.703,0,1.219-0.375,1.624-1.219l1.579,0.594C-379.902-219.465-380.934-218.684-382.433-218.684"/>
			</g>
			<g id="g3347" transform="translate(700.4473,510.2207)">
				<path id="path3349" inkscape:connector-curvature="0" fill="#7F7E7E" d="M-380.252-219.021v-4.562h-3.813v4.562h-1.653v-10.467
					h1.653v4.217h3.813v-4.217h1.654v10.467H-380.252z"/>
			</g>
			<g id="g3351" transform="translate(703.7734,510.2207)">
				<path id="path3353" inkscape:connector-curvature="0" fill="#7F7E7E" d="M-379.42-219.021v-10.467h6.172v1.656h-4.516v2.561
					h3.049v1.688h-3.049v2.875h4.842v1.688H-379.42L-379.42-219.021z"/>
			</g>
			<g id="g3355" transform="translate(714.9092,510.2207)">
				<path id="path3357" inkscape:connector-curvature="0" fill="#7F7E7E" d="M-376.636-219.021l-3.999-7.094v7.094h-1.655v-10.467
					h1.655l3.812,6.686v-6.686h1.655v10.467H-376.636z"/>
			</g>
			<g id="g3359" transform="translate(768.915,496.2139)">
				<path id="path3361" inkscape:connector-curvature="0" fill="#7F7E7E" d="M-363.135-187.507c0,1.547-0.597,2.53-1.875,3.203
					c-0.921,0.469-2.25,0.765-3.563,0.765c-1.654,0-3.311-0.438-4.232-1.171c-0.767-0.625-1.172-1.5-1.172-2.687
					c0-1.579,0.67-2.562,2.141-3.265l0.654,1.546c-0.89,0.577-1.108,0.921-1.108,1.719c0,0.844,0.375,1.405,1.296,1.765
					c0.625,0.266,1.531,0.405,2.42,0.405c1.142,0,2.283-0.249,2.939-0.655c0.547-0.375,0.81-0.844,0.81-1.578
					c0-0.703-0.374-1.219-1.218-1.624l0.594-1.579C-363.916-190.036-363.135-189.005-363.135-187.507"/>
			</g>
			<g id="g3363" transform="translate(768.7646,500.5645)">
				<path id="path3365" inkscape:connector-curvature="0" fill="#7F7E7E" d="M-363.173-197.295h-10.466v-1.656h8.92v-4.842h1.546
					V-197.295z"/>
			</g>
			<g id="g3367" transform="translate(762.2412,510.9385)">
				<path id="path3369" inkscape:connector-curvature="0" fill="#7F7E7E" d="M-364.804-220.638c-0.547,0.329-0.765,0.735-0.811,1.36
					v0.091c0,0.753,0.404,1.25,1.296,1.596c0.625,0.264,1.576,0.404,2.452,0.404c1.108,0,2.249-0.219,2.905-0.625
					c0.547-0.326,0.811-0.766,0.811-1.438c0-0.764-0.404-1.25-1.326-1.607c-0.549-0.219-1.579-0.406-2.391-0.406
					C-363.039-221.263-364.1-221.042-364.804-220.638 M-357.633-221.777c0.797,0.593,1.173,1.435,1.173,2.528
					c0,1.469-0.596,2.391-1.875,3.016c-0.89,0.439-2.279,0.734-3.529,0.734c-1.719,0-3.267-0.438-4.267-1.141
					c-0.795-0.625-1.17-1.469-1.17-2.67c0-1.328,0.594-2.25,1.874-2.906c0.92-0.438,2.25-0.701,3.562-0.701
					C-360.211-222.917-358.555-222.511-357.633-221.777"/>
			</g>
			<g id="g3371" transform="translate(768.2646,518.9004)">
				<path id="path3373" inkscape:connector-curvature="0" fill="#7F7E7E" d="M-363.298-238.551c0.516,0.577,0.812,1.389,0.812,2.278
					c0,1.799-1.063,3.11-2.656,3.812l-0.577-1.579c0.985-0.436,1.545-1.25,1.545-2.233c0-0.966-0.67-1.625-1.545-1.625
					c-1.39,0-1.625,1.625-2.171,2.986c-0.25,0.622-0.875,2.013-2.609,2.013c-2.046,0-2.826-1.391-2.826-3.263
					c0-1.47,0.843-2.469,2.139-2.985l0.438,1.469c0,0-0.89,0.377-0.921,1.547v0.108c0,0.72,0.281,1.501,1.11,1.501h0.108
					c1.938-0.143,0.656-5.062,4.765-5.062C-364.733-239.582-363.892-239.207-363.298-238.551"/>
			</g>
			<g id="g3375" transform="translate(768.7646,521.1396)">
				<path id="path3377" inkscape:connector-curvature="0" fill="#7F7E7E" d="M-363.173-243.59h-10.466v-6.171h1.656v4.515h2.562
					v-3.048h1.688v3.048h2.874v-4.843h1.688v6.499H-363.173z"/>
			</g>
			<g id="g3379" transform="translate(761.5664,530.251)">
				<path id="path3381" inkscape:connector-curvature="0" fill="#7F7E7E" d="M-364.972-264.091h8.997v1.656h-8.997v2.39h-1.469
					v-6.468h1.469V-264.091z"/>
			</g>
			<g id="g3383" transform="translate(723.7461,631.5498)">
				<path id="path3385" inkscape:connector-curvature="0" fill="#7F7E7E" d="M-374.427-492.013c-0.578,0.515-1.391,0.812-2.28,0.812
					c-1.798,0-3.11-1.062-3.812-2.656l1.579-0.576c0.436,0.985,1.25,1.546,2.233,1.546c0.967,0,1.625-0.672,1.625-1.546
					c0-1.39-1.625-1.625-2.985-2.171c-0.623-0.25-2.014-0.875-2.014-2.609c0-2.047,1.391-2.826,3.264-2.826
					c1.469,0,2.469,0.841,2.984,2.138l-1.469,0.438c0,0-0.375-0.89-1.547-0.921h-0.108c-0.72,0-1.501,0.28-1.501,1.11v0.107
					c0.143,1.939,5.063,0.658,5.063,4.766C-373.396-493.449-373.771-492.607-374.427-492.013"/>
			</g>
			<g id="g3387" transform="translate(725.9844,631.0498)">
				<path id="path3389" inkscape:connector-curvature="0" fill="#7F7E7E" d="M-373.867-490.888v-10.466h6.172v1.656h-4.516v2.561
					h3.049v1.688h-3.049v2.875h4.842v1.688h-6.498V-490.888z"/>
			</g>
			<g id="g3391" transform="translate(735.5967,630.9004)">
				<path id="path3393" inkscape:connector-curvature="0" fill="#7F7E7E" d="M-371.464-490.551c-1.547,0-2.529-0.595-3.203-1.875
					c-0.469-0.92-0.765-2.249-0.765-3.562c0-1.655,0.438-3.31,1.171-4.232c0.625-0.767,1.5-1.173,2.687-1.173
					c1.579,0,2.562,0.671,3.265,2.142l-1.546,0.654c-0.577-0.889-0.921-1.108-1.719-1.108c-0.844,0-1.405,0.375-1.765,1.296
					c-0.266,0.625-0.405,1.53-0.405,2.42c0,1.142,0.249,2.283,0.655,2.939c0.375,0.546,0.844,0.811,1.578,0.811
					c0.703,0,1.219-0.375,1.624-1.219l1.579,0.594C-368.935-491.333-369.964-490.551-371.464-490.551"/>
			</g>
			<g id="g3395" transform="translate(743.8838,637.5723)">
				<path id="path3397" inkscape:connector-curvature="0" fill="#7F7E7E" d="M-369.393-505.563c-0.329-0.547-0.735-0.765-1.36-0.812
					h-0.092c-0.752,0-1.25,0.404-1.594,1.296c-0.266,0.625-0.405,1.576-0.405,2.453c0,1.107,0.219,2.249,0.625,2.905
					c0.327,0.546,0.765,0.812,1.437,0.812c0.765,0,1.25-0.406,1.608-1.326c0.219-0.549,0.406-1.58,0.406-2.39
					C-368.768-503.798-368.987-504.86-369.393-505.563 M-368.253-498.395c-0.594,0.798-1.436,1.174-2.529,1.174
					c-1.469,0-2.391-0.596-3.016-1.875c-0.438-0.891-0.733-2.28-0.733-3.53c0-1.719,0.438-3.266,1.14-4.266
					c0.625-0.795,1.469-1.171,2.672-1.171c1.327,0,2.25,0.595,2.904,1.875c0.439,0.92,0.703,2.249,0.703,3.562
					C-367.112-500.973-367.519-499.315-368.253-498.395"/>
			</g>
			<g id="g3399" transform="translate(752.083,631.0498)">
				<path id="path3401" inkscape:connector-curvature="0" fill="#7F7E7E" d="M-367.343-490.888l-3.999-7.092v7.092h-1.654v-10.466
					h1.654l3.812,6.686v-6.686h1.655v10.466H-367.343z"/>
			</g>
			<g id="g3403" transform="translate(758.9336,637.748)">
				<path id="path3405" inkscape:connector-curvature="0" fill="#7F7E7E" d="M-365.63-505.958c-0.267-0.249-0.625-0.438-1.062-0.438
					h-1.875v7.123h1.657c0.546,0,0.873-0.11,1.17-0.406c0.625-0.625,0.955-1.765,0.955-3.155
					C-364.785-504.24-365.115-505.411-365.63-505.958 M-364.941-498.18c-0.392,0.375-0.955,0.561-1.499,0.594h-0.596h-3.187v-10.466
					h3.374c1.062,0,1.469,0.11,2.03,0.549c1.094,0.953,1.719,2.607,1.719,4.668C-363.1-500.741-363.755-499.085-364.941-498.18"/>
			</g>
			<g id="g3407" transform="translate(718.6152,619.6367)">
				<path id="path3409" inkscape:connector-curvature="0" fill="#7F7E7E" d="M-375.71-465.208c-0.22-0.079-0.33-0.079-0.688-0.079
					h-2.094v2.876h2.5c0.844,0,1.281-0.406,1.281-1.219C-374.71-464.317-375.116-464.989-375.71-465.208 M-376.068-469.534h-2.424
					v2.561h1.983c0.469,0,0.689-0.062,0.985-0.281c0.375-0.296,0.595-0.735,0.595-1.219
					C-374.929-469.176-375.335-469.534-376.068-469.534 M-374.71-460.974c-0.375,0.14-1,0.25-1.469,0.25h-3.969v-10.466h3.969
					c1.655,0,2.904,1.14,2.904,2.64c0,1.03-0.482,1.796-1.469,2.359c1.094,0.515,1.719,1.39,1.719,2.529
					C-373.024-462.523-373.726-461.379-374.71-460.974"/>
			</g>
			<g id="g3411" transform="translate(722.1787,616.0498)">
				<path id="path3413" inkscape:connector-curvature="0" fill="#7F7E7E" d="M-374.819-457.138v-10.466h6.173v1.656h-4.517v2.561
					h3.048v1.688h-3.048v2.875h4.843v1.688h-6.499V-457.138z"/>
			</g>
			<g id="g3415" transform="translate(732.4648,622.748)">
				<path id="path3417" inkscape:connector-curvature="0" fill="#7F7E7E" d="M-372.247-472.208
					c-0.267-0.249-0.625-0.438-1.062-0.438h-1.875v7.123h1.656c0.547,0,0.873-0.11,1.171-0.406c0.625-0.625,0.954-1.765,0.954-3.155
					C-371.403-470.49-371.732-471.661-372.247-472.208 M-371.56-464.43c-0.391,0.375-0.954,0.561-1.499,0.594h-0.595h-3.187v-10.466
					h3.374c1.062,0,1.469,0.11,2.028,0.549c1.094,0.953,1.719,2.607,1.719,4.668C-369.718-466.991-370.372-465.335-371.56-464.43"/>
			</g>
			<g id="g3419" transform="translate(739.9902,622.9473)">
				<path id="path3421" inkscape:connector-curvature="0" fill="#7F7E7E" d="M-370.366-472.657
					c-0.282-0.156-0.406-0.187-0.955-0.187h-1.983v2.56h1.983c0.517,0,0.689-0.03,0.955-0.171c0.405-0.235,0.655-0.671,0.655-1.109
					C-369.711-472.002-369.96-472.44-370.366-472.657 M-369.632-464.036l-1.689-4.561h-1.983v4.561h-1.655v-10.466h3.454
					c0.81,0,1.358,0.078,1.874,0.329c0.92,0.438,1.578,1.546,1.578,2.61c0,1.109-0.657,2.203-1.625,2.639l1.843,4.889H-369.632z"/>
			</g>
			<g id="g3423" transform="translate(747.3652,622.5723)">
				<path id="path3425" inkscape:connector-curvature="0" fill="#7F7E7E" d="M-368.522-471.813c-0.33-0.547-0.734-0.765-1.359-0.812
					h-0.093c-0.753,0-1.25,0.404-1.595,1.296c-0.265,0.625-0.405,1.576-0.405,2.453c0,1.107,0.22,2.249,0.625,2.905
					c0.328,0.546,0.766,0.812,1.438,0.812c0.765,0,1.25-0.406,1.608-1.326c0.219-0.549,0.406-1.58,0.406-2.39
					C-367.897-470.048-368.117-471.11-368.522-471.813 M-367.382-464.645c-0.594,0.798-1.437,1.174-2.53,1.174
					c-1.469,0-2.391-0.596-3.016-1.875c-0.438-0.891-0.733-2.28-0.733-3.53c0-1.719,0.437-3.266,1.14-4.266
					c0.625-0.795,1.469-1.171,2.671-1.171c1.328,0,2.25,0.595,2.906,1.875c0.438,0.92,0.701,2.249,0.701,3.562
					C-366.242-467.223-366.648-465.565-367.382-464.645"/>
			</g>
			<g id="g3427" transform="translate(754.9775,622.5723)">
				<path id="path3429" inkscape:connector-curvature="0" fill="#7F7E7E" d="M-366.619-471.813c-0.329-0.547-0.735-0.765-1.36-0.812
					h-0.092c-0.752,0-1.25,0.404-1.594,1.296c-0.264,0.625-0.405,1.576-0.405,2.453c0,1.107,0.219,2.249,0.625,2.905
					c0.327,0.546,0.767,0.812,1.438,0.812c0.764,0,1.25-0.406,1.607-1.326c0.22-0.549,0.406-1.58,0.406-2.39
					C-365.994-470.048-366.214-471.11-366.619-471.813 M-365.479-464.645c-0.592,0.798-1.435,1.174-2.528,1.174
					c-1.47,0-2.39-0.596-3.015-1.875c-0.439-0.891-0.734-2.28-0.734-3.53c0-1.719,0.437-3.266,1.141-4.266
					c0.625-0.795,1.469-1.171,2.67-1.171c1.327,0,2.25,0.595,2.906,1.875c0.438,0.92,0.701,2.249,0.701,3.562
					C-364.339-467.223-364.745-465.565-365.479-464.645"/>
			</g>
			<g id="g3431" transform="translate(763.8516,616.0498)">
				<path id="path3433" inkscape:connector-curvature="0" fill="#7F7E7E" d="M-364.401-457.138v-6.061l-2.422,6.061l-2.422-6.061
					v6.061h-1.655v-10.466h1.655l2.422,5.874l2.422-5.874h1.656v10.466H-364.401z"/>
			</g>
			<g id="g3435" transform="translate(661.8252,544.7998)">
				<path id="path3437" inkscape:connector-curvature="0" fill="#7F7E7E" d="M-389.907-296.825c-0.577,0.516-1.39,0.812-2.28,0.812
					c-1.799,0-3.109-1.062-3.812-2.656l1.579-0.576c0.437,0.985,1.25,1.546,2.233,1.546c0.967,0,1.625-0.672,1.625-1.546
					c0-1.39-1.625-1.625-2.984-2.171c-0.624-0.25-2.014-0.875-2.014-2.609c0-2.047,1.39-2.826,3.264-2.826
					c1.469,0,2.469,0.842,2.983,2.138l-1.469,0.438c0,0-0.375-0.89-1.546-0.921h-0.109c-0.72,0-1.501,0.28-1.501,1.11v0.107
					c0.143,1.938,5.062,0.657,5.062,4.766C-388.876-298.261-389.251-297.42-389.907-296.825"/>
			</g>
			<g id="g3439" transform="translate(666.5625,551.498)">
				<path id="path3441" inkscape:connector-curvature="0" fill="#7F7E7E" d="M-388.723-311.896v8.998h-1.653v-8.998h-2.391v-1.469
					h6.467v1.469H-388.723z"/>
			</g>
			<g id="g3443" transform="translate(672.5635,550.3486)">
				<path id="path3445" inkscape:connector-curvature="0" fill="#7F7E7E" d="M-387.223-309.31l-1.076,2.938h2.092L-387.223-309.31z
					 M-384.582-301.749l-1.031-2.938h-3.265l-1.03,2.938h-1.766l3.608-10.466h1.642l3.608,10.466H-384.582z"/>
			</g>
			<path id="path3447" inkscape:connector-curvature="0" fill="#7F7E7E" d="M291.327,238.133h1.688V248.6h-1.688V238.133z"/>
			<g id="g3449" transform="translate(684.375,551.1973)">
				<path id="path3451" inkscape:connector-curvature="0" fill="#7F7E7E" d="M-384.27-311.219c-0.282-0.156-0.406-0.188-0.955-0.188
					h-1.983v2.561h1.983c0.517,0,0.688-0.029,0.955-0.171c0.406-0.235,0.655-0.671,0.655-1.108
					C-383.614-310.565-383.863-311.002-384.27-311.219 M-383.536-302.598l-1.688-4.562h-1.983v4.562h-1.654v-10.467h3.453
					c0.81,0,1.358,0.078,1.873,0.329c0.922,0.438,1.579,1.546,1.579,2.61c0,1.108-0.656,2.202-1.625,2.639l1.843,4.889H-383.536z"/>
			</g>
			<g id="g3453" transform="translate(693.2744,544.2998)">
				<path id="path3455" inkscape:connector-curvature="0" fill="#7F7E7E" d="M-382.045-295.7h-1.469l-1.655-6.717l-1.607,6.717
					h-1.47l-1.545-10.466h1.686l0.812,5.514l1.327-5.514h1.608l1.358,5.514l0.814-5.514h1.686L-382.045-295.7z"/>
			</g>
			<g id="g3457" transform="translate(695.751,544.2998)">
				<path id="path3459" inkscape:connector-curvature="0" fill="#7F7E7E" d="M-381.426-295.7v-10.466h6.171v1.656h-4.515v2.562
					h3.048v1.688h-3.048v2.875h4.843v1.688h-6.499V-295.7z"/>
			</g>
			<g id="g3461" transform="translate(702.3633,544.2998)">
				<path id="path3463" inkscape:connector-curvature="0" fill="#7F7E7E" d="M-379.772-295.7v-10.466h1.653v8.92h4.843v1.546
					H-379.772z"/>
			</g>
			<g id="g3465" transform="translate(708.8008,544.2998)">
				<path id="path3467" inkscape:connector-curvature="0" fill="#7F7E7E" d="M-378.163-295.7v-10.466h1.655v8.92h4.842v1.546
					H-378.163z"/>
			</g>
		</g>
	</g>
</g>
</svg>
