<?xml version="1.0" encoding="UTF-8" standalone="no"?>
<!-- Created with Inkscape (http://www.inkscape.org/) -->

<svg
   xmlns:dc="http://purl.org/dc/elements/1.1/"
   xmlns:cc="http://creativecommons.org/ns#"
   xmlns:rdf="http://www.w3.org/1999/02/22-rdf-syntax-ns#"
   xmlns:svg="http://www.w3.org/2000/svg"
   xmlns="http://www.w3.org/2000/svg"
   xmlns:sodipodi="http://sodipodi.sourceforge.net/DTD/sodipodi-0.dtd"
   xmlns:inkscape="http://www.inkscape.org/namespaces/inkscape"
   id="svg3049"
   version="1.1"
   inkscape:version="0.48.2 r9819"
   width="18.93375"
   height="18.934999"
   xml:space="preserve"
   sodipodi:docname="knob.small.ai"><metadata
     id="metadata3055"><rdf:RDF><cc:Work
         rdf:about=""><dc:format>image/svg+xml</dc:format><dc:type
           rdf:resource="http://purl.org/dc/dcmitype/StillImage" /><dc:title></dc:title></cc:Work></rdf:RDF></metadata><defs
     id="defs3053"><linearGradient
       x1="0"
       y1="0"
       x2="1"
       y2="0"
       gradientUnits="userSpaceOnUse"
       gradientTransform="matrix(-10.711563,-10.711563,10.711563,-10.711563,618.15234,617.30029)"
       spreadMethod="pad"
       id="linearGradient3071"><stop
         style="stop-opacity:1;stop-color:#373535"
         offset="0"
         id="stop3073" /><stop
         style="stop-opacity:1;stop-color:#82d4f7"
         offset="0.507767"
         id="stop3075" /><stop
         style="stop-opacity:1;stop-color:#373535"
         offset="1"
         id="stop3077" /></linearGradient><clipPath
       clipPathUnits="userSpaceOnUse"
       id="clipPath3085"><path
         d="m 605.641,612.488 c -10e-4,-0.017 -0.002,-0.033 -0.003,-0.05 l 0,0 c -0.01,-0.162 -0.016,-0.326 -0.016,-0.49 l 0,0 c 0,-0.023 0,-0.045 0,-0.067 l 0,0 c 0,-0.002 0,-0.004 0,-0.006 l 0,0 c 0.008,-0.839 0.161,-1.644 0.434,-2.391 l 0,0 c 1.557,-4.111 6.942,-5.482 10.249,-3.781 l 0,0 c 0.334,0.183 0.652,0.39 0.949,0.621 l 0,0 c 3.442,2.779 3.347,8.864 -0.284,11.464 l 0,0 c -1.05,0.751 -2.406,1.119 -3.814,1.119 l 0,0 c -3.454,0 -7.218,-2.213 -7.515,-6.419"
         id="path3087"
         inkscape:connector-curvature="0" /></clipPath></defs><sodipodi:namedview
     pagecolor="#ffffff"
     bordercolor="#666666"
     borderopacity="1"
     objecttolerance="10"
     gridtolerance="10"
     guidetolerance="10"
     inkscape:pageopacity="0"
     inkscape:pageshadow="2"
     inkscape:window-width="640"
     inkscape:window-height="480"
     id="namedview3051"
     showgrid="false"
     fit-margin-top="0"
     fit-margin-left="0"
     fit-margin-right="0"
     fit-margin-bottom="0"
     inkscape:zoom="0.15424837"
     inkscape:cx="8.46875"
     inkscape:cy="9.53625"
     inkscape:window-x="0"
     inkscape:window-y="0"
     inkscape:window-maximized="0"
     inkscape:current-layer="g3057" /><g
     id="g3057"
     inkscape:groupmode="layer"
     inkscape:label="knob.small"
     transform="matrix(1.25,0,0,-1.25,-756.53125,774.39875)"><g
       id="g3059"><g
         id="g3061"><g
           id="g3067"><g
             id="g3069"><path
               d="m 605.225,611.946 c 0,-4.184 3.389,-7.575 7.572,-7.575 l 0,0 c 4.185,0 7.575,3.391 7.575,7.575 l 0,0 c 0,4.183 -3.39,7.573 -7.575,7.573 l 0,0 c -4.183,0 -7.572,-3.39 -7.572,-7.573"
               style="fill:url(#linearGradient3071);stroke:none"
               id="path3079"
               inkscape:connector-curvature="0" /></g></g></g></g><g
       id="g3081"><g
         id="g3083"
         clip-path="url(#clipPath3085)"><g
           id="g3089"><g
             id="g3091"
             transform="scale(1,-1)"><g
               id="g3093"><path
                 d="m 612.79783,-611.94779 c -5.32433,0 -4.78525,0 -7.17593,0 0,-0.16504 0.006,-0.32813 0.0156,-0.49024 2.38677,0.16406 1.96293,0.20508 7.1603,0.49024 0,0 0,0 0,0 z"
                 style="fill:#373535;fill-opacity:1;fill-rule:nonzero;stroke:none"
                 id="path3095"
                 inkscape:connector-curvature="0" /><path
                 d="m 612.79783,-611.94779 c -5.19737,-0.28516 -4.77353,-0.32618 -7.1603,-0.49024 0.0254,-0.37452 -0.0635,-0.69875 -0.13721,-1.02541 2.22417,0.44727 2.52837,0.68116 7.29751,1.51565 0,0 0,0 0,0 z"
                 style="fill:#373535;fill-opacity:1;fill-rule:nonzero;stroke:none"
                 id="path3097"
                 inkscape:connector-curvature="0" /><path
                 d="m 612.79783,-611.94779 c -4.76914,-0.83449 -5.07334,-1.06838 -7.29751,-1.51565 -0.0737,-0.32667 -0.13233,-0.65627 -0.0454,-1.04006 1.86722,1.07082 3.5157,0.5127 7.34292,2.55571 0,0 0,0 0,0 z"
                 style="fill:#3e3c3d;fill-opacity:1;fill-rule:nonzero;stroke:none"
                 id="path3099"
                 inkscape:connector-curvature="0" /><path
                 d="m 612.79783,-611.94779 c -3.82722,-2.04301 -5.4757,-1.48489 -7.34292,-2.55571 0.0869,-0.3838 0.31885,-0.8218 0.82619,-1.36673 1.50979,1.69339 3.63142,0.67091 6.51673,3.92244 0,0 0,0 0,0 z"
                 style="fill:#4d4c4e;fill-opacity:1;fill-rule:nonzero;stroke:none"
                 id="path3101"
                 inkscape:connector-curvature="0" /><path
                 d="m 612.79783,-611.94779 c -2.88531,-3.25153 -5.00694,-2.22905 -6.51673,-3.92244 0.50684,-0.54542 1.2886,-1.19729 2.47563,-2.00835 1.34769,1.97759 1.58402,2.12993 4.0411,5.93079 0,0 0,0 0,0 z"
                 style="fill:#5a5a5c;fill-opacity:1;fill-rule:nonzero;stroke:none"
                 id="path3103"
                 inkscape:connector-curvature="0" /><path
                 d="m 612.79783,-611.94779 c -2.45708,-3.80086 -2.69341,-3.9532 -4.0411,-5.93079 0.47316,-0.32276 0.99856,-0.58399 1.55375,-0.7798 0.99514,2.01372 0.66798,2.8111 2.48735,6.71059 0,0 0,0 0,0 z"
                 style="fill:#606163;fill-opacity:1;fill-rule:nonzero;stroke:none"
                 id="path3105"
                 inkscape:connector-curvature="0" /><path
                 d="m 612.79783,-611.94779 c -1.81937,-3.89949 -1.49221,-4.69687 -2.48735,-6.71059 0.55567,-0.19629 1.14162,-0.32764 1.7349,-0.39063 0.21924,2.09477 0.33643,2.98541 0.75245,7.10122 0,0 0,0 0,0 z"
                 style="fill:#5a5a5c;fill-opacity:1;fill-rule:nonzero;stroke:none"
                 id="path3107"
                 inkscape:connector-curvature="0" /><path
                 d="m 612.79783,-611.94779 c -0.41602,-4.11581 -0.53321,-5.00645 -0.75245,-7.10122 0.59327,-0.063 1.19485,-0.0581 1.78275,0.0176 -0.55665,2.17583 -0.043,2.75152 -1.0303,7.08364 0,0 0,0 0,0 z"
                 style="fill:#4d4c4e;fill-opacity:1;fill-rule:nonzero;stroke:none"
                 id="path3109"
                 inkscape:connector-curvature="0" /><path
                 d="m 612.79783,-611.94779 c 0.98733,-4.33212 0.47365,-4.90781 1.0303,-7.08364 0.58693,0.0762 1.16018,0.22266 1.6973,0.44386 -0.9092,2.21196 -1.10256,2.20903 -2.7276,6.63978 0,0 0,0 0,0 z"
                 style="fill:#3e3c3d;fill-opacity:1;fill-rule:nonzero;stroke:none"
                 id="path3111"
                 inkscape:connector-curvature="0" /><path
                 d="m 612.79783,-611.94779 c 1.62504,-4.43075 1.8184,-4.42782 2.7276,-6.63978 0.2129,0.0874 0.38575,0.10009 0.55861,0.11816 -1.07424,2.07964 -1.32523,2.39458 -3.28621,6.52162 0,0 0,0 0,0 z"
                 style="fill:#373535;fill-opacity:1;fill-rule:nonzero;stroke:none"
                 id="path3113"
                 inkscape:connector-curvature="0" /><path
                 d="m 612.79783,-611.94779 c 1.96098,-4.12704 2.21197,-4.44198 3.28621,-6.52162 0.17188,0.0181 0.34473,0.0415 0.55665,0.14844 -1.43948,1.78715 -1.14163,2.91364 -3.84286,6.37318 0,0 0,0 0,0 z"
                 style="fill:#3e3c3d;fill-opacity:1;fill-rule:nonzero;stroke:none"
                 id="path3115"
                 inkscape:connector-curvature="0" /><path
                 d="m 612.79783,-611.94779 c 2.70123,-3.45954 2.40338,-4.58603 3.84286,-6.37318 0.21094,0.10694 0.46192,0.29835 0.79103,0.65236 -1.80277,1.49466 -1.19241,2.92877 -4.63389,5.72082 0,0 0,0 0,0 z"
                 style="fill:#4d4c4e;fill-opacity:1;fill-rule:nonzero;stroke:none"
                 id="path3117"
                 inkscape:connector-curvature="0" /><path
                 d="m 612.79783,-611.94779 c 3.44148,-2.79205 2.83112,-4.22616 4.63389,-5.72082 0.33009,0.35401 0.73928,0.87062 1.26663,1.62992 -1.96879,1.36233 -2.12309,1.60257 -5.90052,4.0909 0,0 0,0 0,0 z"
                 style="fill:#5a5a5c;fill-opacity:1;fill-rule:nonzero;stroke:none"
                 id="path3119"
                 inkscape:connector-curvature="0" /><path
                 d="m 612.79783,-611.94779 c 3.77743,-2.48833 3.93173,-2.72857 5.90052,-4.0909 0.20704,0.29834 0.39161,0.61378 0.55275,0.94289 -2.03423,1.14358 -2.43853,1.05959 -6.45327,3.14801 0,0 0,0 0,0 z"
                 style="fill:#606163;fill-opacity:1;fill-rule:nonzero;stroke:none"
                 id="path3121"
                 inkscape:connector-curvature="0" /><path
                 d="m 612.79783,-611.94779 c 4.01474,-2.08842 4.41904,-2.00443 6.45327,-3.14801 0.16113,0.32959 0.29785,0.67335 0.40723,1.02834 -2.18266,0.66115 -2.32231,0.91164 -6.8605,2.11967 0,0 0,0 0,0 z"
                 style="fill:#5a5a5c;fill-opacity:1;fill-rule:nonzero;stroke:none"
                 id="path3123"
                 inkscape:connector-curvature="0" /><path
                 d="m 612.79783,-611.94779 c 4.53819,-1.20803 4.67784,-1.45852 6.8605,-2.11967 0.10938,0.35499 0.19239,0.72169 0.2461,1.09621 -2.32817,0.17823 -2.04496,0.69582 -7.1066,1.02346 0,0 0,0 0,0 z"
                 style="fill:#4d4c4e;fill-opacity:1;fill-rule:nonzero;stroke:none"
                 id="path3125"
                 inkscape:connector-curvature="0" /><path
                 d="m 612.79783,-611.94779 c 5.06164,-0.32764 4.77843,-0.84523 7.1066,-1.02346 0.0547,0.37452 0.0801,0.75734 0.0732,1.14554 -2.39555,-0.041 -1.87992,-0.0498 -7.17984,-0.12208 0,0 0,0 0,0 z"
                 style="fill:#3e3c3d;fill-opacity:1;fill-rule:nonzero;stroke:none"
                 id="path3127"
                 inkscape:connector-curvature="0" /><path
                 d="m 612.79783,-611.94779 c 5.29992,0.0723 4.78429,0.0811 7.17984,0.12208 -0.005,0.32471 0.0771,0.58595 0.14747,0.84914 -2.28325,-0.30226 -2.36919,-0.40968 -7.32731,-0.97122 0,0 0,0 0,0 z"
                 style="fill:#373535;fill-opacity:1;fill-rule:nonzero;stroke:none"
                 id="path3129"
                 inkscape:connector-curvature="0" /><path
                 d="m 612.79783,-611.94779 c 4.95812,0.56154 5.04406,0.66896 7.32731,0.97122 0.0703,0.2627 0.13086,0.52735 0.0811,0.85841 -2.03422,-0.87697 -3.20026,-0.19238 -7.40836,-1.82963 0,0 0,0 0,0 z"
                 style="fill:#3e3c3d;fill-opacity:1;fill-rule:nonzero;stroke:none"
                 id="path3131"
                 inkscape:connector-curvature="0" /><path
                 d="m 612.79783,-611.94779 c 4.2081,1.63725 5.37414,0.95266 7.40836,1.82963 -0.0498,0.33106 -0.20801,0.72853 -0.57325,1.25882 -1.78715,-1.45316 -3.37702,-0.37501 -6.83511,-3.08845 0,0 0,0 0,0 z"
                 style="fill:#4d4c4e;fill-opacity:1;fill-rule:nonzero;stroke:none"
                 id="path3133"
                 inkscape:connector-curvature="0" /><path
                 d="m 612.79783,-611.94779 c 3.45809,2.71344 5.04796,1.63529 6.83511,3.08845 -0.36622,0.52931 -0.93947,1.19045 -1.81937,2.04887 -1.67289,-1.71293 -1.89848,-1.93559 -5.01574,-5.13732 0,0 0,0 0,0 z"
                 style="fill:#5a5a5c;fill-opacity:1;fill-rule:nonzero;stroke:none"
                 id="path3135"
                 inkscape:connector-curvature="0" /><path
                 d="m 612.79783,-611.94779 c 3.11726,3.20173 3.34285,3.42439 5.01574,5.13732 -0.40822,0.39844 -0.87405,0.74611 -1.37992,1.03615 -1.33401,-1.81156 -1.1426,-2.70806 -3.63582,-6.17347 0,0 0,0 0,0 z"
                 style="fill:#606163;fill-opacity:1;fill-rule:nonzero;stroke:none"
                 id="path3137"
                 inkscape:connector-curvature="0" /><path
                 d="m 612.79783,-611.94779 c 2.49322,3.46541 2.30181,4.36191 3.63582,6.17347 -0.50684,0.29005 -1.05275,0.5215 -1.61917,0.68849 -0.5879,-2.02738 -0.89748,-2.81451 -2.01665,-6.86196 0,0 0,0 0,0 z"
                 style="fill:#5a5a5c;fill-opacity:1;fill-rule:nonzero;stroke:none"
                 id="path3139"
                 inkscape:connector-curvature="0" /><path
                 d="m 612.79783,-611.94779 c 1.11917,4.04745 1.42875,4.83458 2.01665,6.86196 -0.5674,0.167 -1.15628,0.26857 -1.74808,0.29689 0.15918,-2.24322 -0.52297,-2.52935 -0.26857,-7.15885 0,0 0,0 0,0 z"
                 style="fill:#4d4c4e;fill-opacity:1;fill-rule:nonzero;stroke:none"
                 id="path3141"
                 inkscape:connector-curvature="0" /><path
                 d="m 612.79783,-611.94779 c -0.2544,4.6295 0.42775,4.91563 0.26857,7.15885 -0.59181,0.0293 -1.18704,-0.0137 -1.76664,-0.13673 0.49903,-2.34184 0.61915,-2.12895 1.49807,-7.02212 0,0 0,0 0,0 z"
                 style="fill:#3e3c3d;fill-opacity:1;fill-rule:nonzero;stroke:none"
                 id="path3143"
                 inkscape:connector-curvature="0" /><path
                 d="m 612.79783,-611.94779 c -0.87892,4.89317 -0.99904,4.68028 -1.49807,7.02212 -0.10889,-0.0234 -0.20509,-0.0312 -0.29396,-0.0332 0.54836,-2.31645 0.81936,-2.16606 1.79203,-6.98892 0,0 0,0 0,0 z"
                 style="fill:#373535;fill-opacity:1;fill-rule:nonzero;stroke:none"
                 id="path3145"
                 inkscape:connector-curvature="0" /><path
                 d="m 612.79783,-611.94779 c -0.97267,4.82286 -1.24367,4.67247 -1.79203,6.98892 -0.0893,-9.8e-4 -0.17187,0.005 -0.25488,0.01 0.67775,-2.2481 0.82765,-2.3604 2.04691,-6.99869 0,0 0,0 0,0 z"
                 style="fill:#3a3838;fill-opacity:1;fill-rule:nonzero;stroke:none"
                 id="path3147"
                 inkscape:connector-curvature="0" /><path
                 d="m 612.79783,-611.94779 c -1.21926,4.63829 -1.36916,4.75059 -2.04691,6.99869 -0.16505,0.009 -0.33009,0.0137 -0.54689,-0.0508 1.07034,-2.04105 0.62599,-2.87213 2.5938,-6.9479 0,0 0,0 0,0 z"
                 style="fill:#3f3e3f;fill-opacity:1;fill-rule:nonzero;stroke:none"
                 id="path3149"
                 inkscape:connector-curvature="0" /><path
                 d="m 612.79783,-611.94779 c -1.96781,4.07577 -1.52346,4.90685 -2.5938,6.9479 -0.2168,-0.0644 -0.48536,-0.19824 -0.85793,-0.46485 1.4639,-1.83402 0.73537,-2.96979 3.45173,-6.48305 0,0 0,0 0,0 z"
                 style="fill:#515152;fill-opacity:1;fill-rule:nonzero;stroke:none"
                 id="path3151"
                 inkscape:connector-curvature="0" /><path
                 d="m 612.79783,-611.94779 c -2.71636,3.51326 -1.98783,4.64903 -3.45173,6.48305 -0.18604,-0.13379 -0.39796,-0.30079 -0.64259,-0.50978 1.5933,-1.76566 1.13137,-2.64458 4.09432,-5.97327 0,0 0,0 0,0 z"
                 style="fill:#616264;fill-opacity:1;fill-rule:nonzero;stroke:none"
                 id="path3153"
                 inkscape:connector-curvature="0" /><path
                 d="m 612.79783,-611.94779 c -2.96295,3.32869 -2.50102,4.20761 -4.09432,5.97327 -0.24463,-0.20898 -0.5215,-0.45899 -0.83742,-0.75782 1.64261,-1.73832 1.87504,-1.95708 4.93174,-5.21545 0,0 0,0 0,0 z"
                 style="fill:#666769;fill-opacity:1;fill-rule:nonzero;stroke:none"
                 id="path3155"
                 inkscape:connector-curvature="0" /><path
                 d="m 612.79783,-611.94779 c -3.0567,3.25837 -3.28913,3.47713 -4.93174,5.21545 -0.19336,-0.18263 -0.37598,-0.37599 -0.54786,-0.57912 1.81449,-1.53616 2.03813,-1.793 5.4796,-4.63633 0,0 0,0 0,0 z"
                 style="fill:#68696b;fill-opacity:1;fill-rule:nonzero;stroke:none"
                 id="path3157"
                 inkscape:connector-curvature="0" /><path
                 d="m 612.79783,-611.94779 c -3.44147,2.84333 -3.66511,3.10017 -5.4796,4.63633 -0.17188,-0.20313 -0.33253,-0.41602 -0.48146,-0.63771 1.98637,-1.33401 2.13481,-1.57034 5.96106,-3.99862 0,0 0,0 0,0 z"
                 style="fill:#646567;fill-opacity:1;fill-rule:nonzero;stroke:none"
                 id="path3159"
                 inkscape:connector-curvature="0" /><path
                 d="m 612.79783,-611.94779 c -1.91312,1.21438 -2.90679,1.88041 -3.67048,2.40972 -0.0962,-0.14356 -0.20753,-0.31934 -0.32081,-0.51466 0.85451,-0.37696 1.96098,-0.87013 3.99129,-1.89506 0,0 0,0 0,0 z"
                 style="fill:#606163;fill-opacity:1;fill-rule:nonzero;stroke:none"
                 id="path3161"
                 inkscape:connector-curvature="0" /><path
                 d="m 612.79783,-611.94779 c -2.03031,1.02493 -3.13678,1.5181 -3.99129,1.89506 -0.11328,-0.19434 -0.22852,-0.40821 -0.33204,-0.62794 0.86867,-0.2959 2.03569,-0.66017 4.32333,-1.26712 0,0 0,0 0,0 z"
                 style="fill:#5e5e60;fill-opacity:1;fill-rule:nonzero;stroke:none"
                 id="path3163"
                 inkscape:connector-curvature="0" /><path
                 d="m 612.79783,-611.94779 c -2.28764,0.60695 -3.45466,0.97122 -4.32333,1.26712 -0.10303,-0.21875 -0.19434,-0.44337 -0.25977,-0.65919 0.84621,-0.19825 2.03813,-0.41847 4.5831,-0.60793 0,0 0,0 0,0 z"
                 style="fill:#565658;fill-opacity:1;fill-rule:nonzero;stroke:none"
                 id="path3165"
                 inkscape:connector-curvature="0" /><path
                 d="m 612.79783,-611.94779 c -2.54497,0.18946 -3.73689,0.40968 -4.5831,0.60793 -0.0654,-0.21583 -0.10498,-0.42286 -0.10498,-0.60793 0.82961,0 2.02592,0 4.68808,0 0,0 0,0 0,0 z"
                 style="fill:#49494a;fill-opacity:1;fill-rule:nonzero;stroke:none"
                 id="path3167"
                 inkscape:connector-curvature="0" /><path
                 d="m 609.12735,-609.53807 c -0.76369,0.52931 -1.29739,0.9219 -2.29058,1.5889 -0.3838,-0.57227 -0.68751,-1.20217 -0.89553,-1.87308 1.09475,-0.33497 1.66508,-0.56154 2.53326,-0.85842 0.20655,0.43849 0.46095,0.85646 0.65285,1.1426 z"
                 style="fill:#606163;fill-opacity:1;fill-rule:nonzero;stroke:none"
                 id="path3169"
                 inkscape:connector-curvature="0" /><path
                 d="m 608.4745,-610.68067 c -0.86818,0.29688 -1.43851,0.52345 -2.53326,0.85842 -0.20752,-0.67189 -0.31934,-1.38577 -0.31934,-2.12554 1.19534,0 1.65824,0 2.48785,0 0,0.36964 0.15869,0.82912 0.36475,1.26712 z"
                 style="fill:#525254;fill-opacity:1;fill-rule:nonzero;stroke:none"
                 id="path3171"
                 inkscape:connector-curvature="0" /></g></g></g></g></g></g></svg>