<?xml version="1.0" encoding="UTF-8" standalone="no"?>
<!-- Created with Inkscape (http://www.inkscape.org/) -->

<svg
   xmlns:dc="http://purl.org/dc/elements/1.1/"
   xmlns:cc="http://creativecommons.org/ns#"
   xmlns:rdf="http://www.w3.org/1999/02/22-rdf-syntax-ns#"
   xmlns:svg="http://www.w3.org/2000/svg"
   xmlns="http://www.w3.org/2000/svg"
   xmlns:sodipodi="http://sodipodi.sourceforge.net/DTD/sodipodi-0.dtd"
   xmlns:inkscape="http://www.inkscape.org/namespaces/inkscape"
   id="svg5021"
   version="1.1"
   inkscape:version="0.48.2 r9819"
   width="180.57875"
   height="32.942501"
   xml:space="preserve"
   sodipodi:docname="media.controller.ai"><metadata
     id="metadata5027"><rdf:RDF><cc:Work
         rdf:about=""><dc:format>image/svg+xml</dc:format><dc:type
           rdf:resource="http://purl.org/dc/dcmitype/StillImage" /><dc:title></dc:title></cc:Work></rdf:RDF></metadata><defs
     id="defs5025"><linearGradient
       x1="0"
       y1="0"
       x2="1"
       y2="0"
       gradientUnits="userSpaceOnUse"
       gradientTransform="matrix(0,26.354492,-26.354492,0,553.16895,598.83496)"
       spreadMethod="pad"
       id="linearGradient5043"><stop
         style="stop-opacity:1;stop-color:#4d4c4e"
         offset="0"
         id="stop5045" /><stop
         style="stop-opacity:1;stop-color:#373535"
         offset="1"
         id="stop5047" /></linearGradient><linearGradient
       x1="0"
       y1="0"
       x2="1"
       y2="0"
       gradientUnits="userSpaceOnUse"
       gradientTransform="matrix(0,24.350586,-24.350586,0,553.16992,599.83691)"
       spreadMethod="pad"
       id="linearGradient5063"><stop
         style="stop-opacity:1;stop-color:#373535"
         offset="0"
         id="stop5065" /><stop
         style="stop-opacity:1;stop-color:#4d4c4e"
         offset="1"
         id="stop5067" /></linearGradient><linearGradient
       x1="0"
       y1="0"
       x2="1"
       y2="0"
       gradientUnits="userSpaceOnUse"
       gradientTransform="matrix(-24.347656,0,0,-24.347656,565.34277,618.02588)"
       spreadMethod="pad"
       id="linearGradient5083"><stop
         style="stop-opacity:1;stop-color:#373535"
         offset="0"
         id="stop5085" /><stop
         style="stop-opacity:1;stop-color:#82d4f7"
         offset="0.507767"
         id="stop5087" /><stop
         style="stop-opacity:1;stop-color:#373535"
         offset="1"
         id="stop5089" /></linearGradient><linearGradient
       x1="0"
       y1="0"
       x2="1"
       y2="0"
       gradientUnits="userSpaceOnUse"
       gradientTransform="matrix(-24.347656,0,0,24.347656,565.34277,606)"
       spreadMethod="pad"
       id="linearGradient5105"><stop
         style="stop-opacity:1;stop-color:#373535"
         offset="0"
         id="stop5107" /><stop
         style="stop-opacity:1;stop-color:#82d4f7"
         offset="0.507767"
         id="stop5109" /><stop
         style="stop-opacity:1;stop-color:#373535"
         offset="1"
         id="stop5111" /></linearGradient><clipPath
       clipPathUnits="userSpaceOnUse"
       id="clipPath5119"><path
         d="m 0,1224 1224,0 L 1224,0 0,0 0,1224 z"
         id="path5121"
         inkscape:connector-curvature="0" /></clipPath><radialGradient
       fx="0"
       fy="0"
       cx="0"
       cy="0"
       r="1"
       gradientUnits="userSpaceOnUse"
       gradientTransform="matrix(-11.629807,0,0,-11.629807,558.93652,615.99268)"
       spreadMethod="pad"
       id="radialGradient5139"><stop
         style="stop-opacity:1;stop-color:#007da8"
         offset="0"
         id="stop5141" /><stop
         style="stop-opacity:1;stop-color:#69cef6"
         offset="1"
         id="stop5143" /></radialGradient><clipPath
       clipPathUnits="userSpaceOnUse"
       id="clipPath5151"><path
         d="m 0,1224 1224,0 L 1224,0 0,0 0,1224 z"
         id="path5153"
         inkscape:connector-curvature="0" /></clipPath><linearGradient
       x1="0"
       y1="0"
       x2="1"
       y2="0"
       gradientUnits="userSpaceOnUse"
       gradientTransform="matrix(6.0673828,0,0,-6.0673828,546.44434,609.66113)"
       spreadMethod="pad"
       id="linearGradient5171"><stop
         style="stop-opacity:1;stop-color:#373535"
         offset="0"
         id="stop5173" /><stop
         style="stop-opacity:1;stop-color:#82d4f7"
         offset="0.507767"
         id="stop5175" /><stop
         style="stop-opacity:1;stop-color:#373535"
         offset="1"
         id="stop5177" /></linearGradient><linearGradient
       x1="0"
       y1="0"
       x2="1"
       y2="0"
       gradientUnits="userSpaceOnUse"
       gradientTransform="matrix(6.0664062,0,0,-6.0664062,553.16699,609.66113)"
       spreadMethod="pad"
       id="linearGradient5193"><stop
         style="stop-opacity:1;stop-color:#373535"
         offset="0"
         id="stop5195" /><stop
         style="stop-opacity:1;stop-color:#82d4f7"
         offset="0.507767"
         id="stop5197" /><stop
         style="stop-opacity:1;stop-color:#373535"
         offset="1"
         id="stop5199" /></linearGradient><radialGradient
       fx="0"
       fy="0"
       cx="0"
       cy="0"
       r="1"
       gradientUnits="userSpaceOnUse"
       gradientTransform="matrix(-11.629959,0,0,-11.629959,551.83105,615.99268)"
       spreadMethod="pad"
       id="radialGradient5215"><stop
         style="stop-opacity:1;stop-color:#007da8"
         offset="0"
         id="stop5217" /><stop
         style="stop-opacity:1;stop-color:#69cef6"
         offset="1"
         id="stop5219" /></radialGradient><linearGradient
       x1="0"
       y1="0"
       x2="1"
       y2="0"
       gradientUnits="userSpaceOnUse"
       gradientTransform="matrix(0,26.353027,26.353027,0,612.22412,598.83594)"
       spreadMethod="pad"
       id="linearGradient5235"><stop
         style="stop-opacity:1;stop-color:#4d4c4e"
         offset="0"
         id="stop5237" /><stop
         style="stop-opacity:1;stop-color:#373535"
         offset="1"
         id="stop5239" /></linearGradient><linearGradient
       x1="0"
       y1="0"
       x2="1"
       y2="0"
       gradientUnits="userSpaceOnUse"
       gradientTransform="matrix(0,24.349121,24.349121,0,612.22412,599.83789)"
       spreadMethod="pad"
       id="linearGradient5255"><stop
         style="stop-opacity:1;stop-color:#373535"
         offset="0"
         id="stop5257" /><stop
         style="stop-opacity:1;stop-color:#4d4c4e"
         offset="1"
         id="stop5259" /></linearGradient><linearGradient
       x1="0"
       y1="0"
       x2="1"
       y2="0"
       gradientUnits="userSpaceOnUse"
       gradientTransform="matrix(24.347656,0,0,-24.347656,600.0498,618.02588)"
       spreadMethod="pad"
       id="linearGradient5275"><stop
         style="stop-opacity:1;stop-color:#373535"
         offset="0"
         id="stop5277" /><stop
         style="stop-opacity:1;stop-color:#82d4f7"
         offset="0.507767"
         id="stop5279" /><stop
         style="stop-opacity:1;stop-color:#373535"
         offset="1"
         id="stop5281" /></linearGradient><linearGradient
       x1="0"
       y1="0"
       x2="1"
       y2="0"
       gradientUnits="userSpaceOnUse"
       gradientTransform="matrix(24.347656,0,0,24.347656,600.0498,606)"
       spreadMethod="pad"
       id="linearGradient5297"><stop
         style="stop-opacity:1;stop-color:#373535"
         offset="0"
         id="stop5299" /><stop
         style="stop-opacity:1;stop-color:#82d4f7"
         offset="0.507767"
         id="stop5301" /><stop
         style="stop-opacity:1;stop-color:#373535"
         offset="1"
         id="stop5303" /></linearGradient><linearGradient
       x1="0"
       y1="0"
       x2="1"
       y2="0"
       gradientUnits="userSpaceOnUse"
       gradientTransform="matrix(-6.0673828,0,0,-6.0673828,618.94824,609.62109)"
       spreadMethod="pad"
       id="linearGradient5319"><stop
         style="stop-opacity:1;stop-color:#373535"
         offset="0"
         id="stop5321" /><stop
         style="stop-opacity:1;stop-color:#82d4f7"
         offset="0.507767"
         id="stop5323" /><stop
         style="stop-opacity:1;stop-color:#373535"
         offset="1"
         id="stop5325" /></linearGradient><clipPath
       clipPathUnits="userSpaceOnUse"
       id="clipPath5333"><path
         d="m 0,1224 1224,0 L 1224,0 0,0 0,1224 z"
         id="path5335"
         inkscape:connector-curvature="0" /></clipPath><radialGradient
       fx="0"
       fy="0"
       cx="0"
       cy="0"
       r="1"
       gradientUnits="userSpaceOnUse"
       gradientTransform="matrix(11.629807,0,0,-11.629807,606.45264,615.99268)"
       spreadMethod="pad"
       id="radialGradient5353"><stop
         style="stop-opacity:1;stop-color:#007da8"
         offset="0"
         id="stop5355" /><stop
         style="stop-opacity:1;stop-color:#69cef6"
         offset="1"
         id="stop5357" /></radialGradient><clipPath
       clipPathUnits="userSpaceOnUse"
       id="clipPath5365"><path
         d="m 0,1224 1224,0 L 1224,0 0,0 0,1224 z"
         id="path5367"
         inkscape:connector-curvature="0" /></clipPath><linearGradient
       x1="0"
       y1="0"
       x2="1"
       y2="0"
       gradientUnits="userSpaceOnUse"
       gradientTransform="matrix(-6.0664062,0,0,-6.0664062,612.22559,609.66113)"
       spreadMethod="pad"
       id="linearGradient5385"><stop
         style="stop-opacity:1;stop-color:#373535"
         offset="0"
         id="stop5387" /><stop
         style="stop-opacity:1;stop-color:#82d4f7"
         offset="0.507767"
         id="stop5389" /><stop
         style="stop-opacity:1;stop-color:#373535"
         offset="1"
         id="stop5391" /></linearGradient><radialGradient
       fx="0"
       fy="0"
       cx="0"
       cy="0"
       r="1"
       gradientUnits="userSpaceOnUse"
       gradientTransform="matrix(11.629944,0,0,-11.629944,613.55859,615.99268)"
       spreadMethod="pad"
       id="radialGradient5407"><stop
         style="stop-opacity:1;stop-color:#007da8"
         offset="0"
         id="stop5409" /><stop
         style="stop-opacity:1;stop-color:#69cef6"
         offset="1"
         id="stop5411" /></radialGradient><linearGradient
       x1="0"
       y1="0"
       x2="1"
       y2="0"
       gradientUnits="userSpaceOnUse"
       gradientTransform="matrix(0,26.353027,26.353027,0,582.69531,598.83594)"
       spreadMethod="pad"
       id="linearGradient5427"><stop
         style="stop-opacity:1;stop-color:#4d4c4e"
         offset="0"
         id="stop5429" /><stop
         style="stop-opacity:1;stop-color:#373535"
         offset="1"
         id="stop5431" /></linearGradient><linearGradient
       x1="0"
       y1="0"
       x2="1"
       y2="0"
       gradientUnits="userSpaceOnUse"
       gradientTransform="matrix(0,24.349121,24.349121,0,582.6958,599.83789)"
       spreadMethod="pad"
       id="linearGradient5447"><stop
         style="stop-opacity:1;stop-color:#373535"
         offset="0"
         id="stop5449" /><stop
         style="stop-opacity:1;stop-color:#4d4c4e"
         offset="1"
         id="stop5451" /></linearGradient><linearGradient
       x1="0"
       y1="0"
       x2="1"
       y2="0"
       gradientUnits="userSpaceOnUse"
       gradientTransform="matrix(24.34668,0,0,-24.34668,570.52246,618.02588)"
       spreadMethod="pad"
       id="linearGradient5467"><stop
         style="stop-opacity:1;stop-color:#373535"
         offset="0"
         id="stop5469" /><stop
         style="stop-opacity:1;stop-color:#82d4f7"
         offset="0.507767"
         id="stop5471" /><stop
         style="stop-opacity:1;stop-color:#373535"
         offset="1"
         id="stop5473" /></linearGradient><linearGradient
       x1="0"
       y1="0"
       x2="1"
       y2="0"
       gradientUnits="userSpaceOnUse"
       gradientTransform="matrix(24.34668,0,0,24.34668,570.52246,606)"
       spreadMethod="pad"
       id="linearGradient5489"><stop
         style="stop-opacity:1;stop-color:#373535"
         offset="0"
         id="stop5491" /><stop
         style="stop-opacity:1;stop-color:#82d4f7"
         offset="0.507767"
         id="stop5493" /><stop
         style="stop-opacity:1;stop-color:#373535"
         offset="1"
         id="stop5495" /></linearGradient><clipPath
       clipPathUnits="userSpaceOnUse"
       id="clipPath5503"><path
         d="m 0,1224 1224,0 L 1224,0 0,0 0,1224 z"
         id="path5505"
         inkscape:connector-curvature="0" /></clipPath><linearGradient
       x1="0"
       y1="0"
       x2="1"
       y2="0"
       gradientUnits="userSpaceOnUse"
       gradientTransform="matrix(11.275391,0,0,-11.275391,577.05762,607.68848)"
       spreadMethod="pad"
       id="linearGradient5523"><stop
         style="stop-opacity:1;stop-color:#373535"
         offset="0"
         id="stop5525" /><stop
         style="stop-opacity:1;stop-color:#82d4f7"
         offset="0.507767"
         id="stop5527" /><stop
         style="stop-opacity:1;stop-color:#373535"
         offset="1"
         id="stop5529" /></linearGradient><radialGradient
       fx="0"
       fy="0"
       cx="0"
       cy="0"
       r="1"
       gradientUnits="userSpaceOnUse"
       gradientTransform="matrix(9.7596436,0,0,-9.7596436,582.75781,607.48242)"
       spreadMethod="pad"
       id="radialGradient5545"><stop
         style="stop-opacity:1;stop-color:#69cef6"
         offset="0"
         id="stop5547" /><stop
         style="stop-opacity:1;stop-color:#007da8"
         offset="1"
         id="stop5549" /></radialGradient><linearGradient
       x1="0"
       y1="0"
       x2="1"
       y2="0"
       gradientUnits="userSpaceOnUse"
       gradientTransform="matrix(0,26.353027,26.353027,0,671.27832,598.83594)"
       spreadMethod="pad"
       id="linearGradient5565"><stop
         style="stop-opacity:1;stop-color:#4d4c4e"
         offset="0"
         id="stop5567" /><stop
         style="stop-opacity:1;stop-color:#373535"
         offset="1"
         id="stop5569" /></linearGradient><linearGradient
       x1="0"
       y1="0"
       x2="1"
       y2="0"
       gradientUnits="userSpaceOnUse"
       gradientTransform="matrix(0,24.349121,24.349121,0,671.27832,599.83789)"
       spreadMethod="pad"
       id="linearGradient5585"><stop
         style="stop-opacity:1;stop-color:#373535"
         offset="0"
         id="stop5587" /><stop
         style="stop-opacity:1;stop-color:#4d4c4e"
         offset="1"
         id="stop5589" /></linearGradient><linearGradient
       x1="0"
       y1="0"
       x2="1"
       y2="0"
       gradientUnits="userSpaceOnUse"
       gradientTransform="matrix(24.347656,0,0,-24.347656,659.10449,618.02588)"
       spreadMethod="pad"
       id="linearGradient5605"><stop
         style="stop-opacity:1;stop-color:#373535"
         offset="0"
         id="stop5607" /><stop
         style="stop-opacity:1;stop-color:#82d4f7"
         offset="0.507767"
         id="stop5609" /><stop
         style="stop-opacity:1;stop-color:#373535"
         offset="1"
         id="stop5611" /></linearGradient><linearGradient
       x1="0"
       y1="0"
       x2="1"
       y2="0"
       gradientUnits="userSpaceOnUse"
       gradientTransform="matrix(24.347656,0,0,24.347656,659.10449,606)"
       spreadMethod="pad"
       id="linearGradient5627"><stop
         style="stop-opacity:1;stop-color:#373535"
         offset="0"
         id="stop5629" /><stop
         style="stop-opacity:1;stop-color:#82d4f7"
         offset="0.507767"
         id="stop5631" /><stop
         style="stop-opacity:1;stop-color:#373535"
         offset="1"
         id="stop5633" /></linearGradient><clipPath
       clipPathUnits="userSpaceOnUse"
       id="clipPath5641"><path
         d="m 0,1224 1224,0 L 1224,0 0,0 0,1224 z"
         id="path5643"
         inkscape:connector-curvature="0" /></clipPath><linearGradient
       x1="0"
       y1="0"
       x2="1"
       y2="0"
       gradientUnits="userSpaceOnUse"
       gradientTransform="matrix(11.672852,0,0,-11.672852,665.43945,610.66602)"
       spreadMethod="pad"
       id="linearGradient5661"><stop
         style="stop-opacity:1;stop-color:#373535"
         offset="0"
         id="stop5663" /><stop
         style="stop-opacity:1;stop-color:#82d4f7"
         offset="0.507767"
         id="stop5665" /><stop
         style="stop-opacity:1;stop-color:#373535"
         offset="1"
         id="stop5667" /></linearGradient><radialGradient
       fx="0"
       fy="0"
       cx="0"
       cy="0"
       r="1"
       gradientUnits="userSpaceOnUse"
       gradientTransform="matrix(0,15.224899,15.224899,0,661.4707,608.56836)"
       spreadMethod="pad"
       id="radialGradient5683"><stop
         style="stop-opacity:1;stop-color:#69cef6"
         offset="0"
         id="stop5685" /><stop
         style="stop-opacity:1;stop-color:#007da8"
         offset="1"
         id="stop5687" /></radialGradient><clipPath
       clipPathUnits="userSpaceOnUse"
       id="clipPath5695"><path
         d="m 0,1224 1224,0 L 1224,0 0,0 0,1224 z"
         id="path5697"
         inkscape:connector-curvature="0" /></clipPath><linearGradient
       x1="0"
       y1="0"
       x2="1"
       y2="0"
       gradientUnits="userSpaceOnUse"
       gradientTransform="matrix(11.761719,0,0,-11.761719,665.39746,606.99805)"
       spreadMethod="pad"
       id="linearGradient5715"><stop
         style="stop-opacity:1;stop-color:#373535"
         offset="0"
         id="stop5717" /><stop
         style="stop-opacity:1;stop-color:#82d4f7"
         offset="0.507767"
         id="stop5719" /><stop
         style="stop-opacity:1;stop-color:#373535"
         offset="1"
         id="stop5721" /></linearGradient><radialGradient
       fx="0"
       fy="0"
       cx="0"
       cy="0"
       r="1"
       gradientUnits="userSpaceOnUse"
       gradientTransform="matrix(0,-19.505737,13.174972,0,661.43457,609.31055)"
       spreadMethod="pad"
       id="radialGradient5737"><stop
         style="stop-opacity:1;stop-color:#69cef6"
         offset="0"
         id="stop5739" /><stop
         style="stop-opacity:1;stop-color:#007da8"
         offset="1"
         id="stop5741" /></radialGradient><linearGradient
       x1="0"
       y1="0"
       x2="1"
       y2="0"
       gradientUnits="userSpaceOnUse"
       gradientTransform="matrix(0,26.353027,26.353027,0,641.75195,598.83594)"
       spreadMethod="pad"
       id="linearGradient5757"><stop
         style="stop-opacity:1;stop-color:#4d4c4e"
         offset="0"
         id="stop5759" /><stop
         style="stop-opacity:1;stop-color:#373535"
         offset="1"
         id="stop5761" /></linearGradient><linearGradient
       x1="0"
       y1="0"
       x2="1"
       y2="0"
       gradientUnits="userSpaceOnUse"
       gradientTransform="matrix(0,24.349121,24.349121,0,641.75195,599.83789)"
       spreadMethod="pad"
       id="linearGradient5777"><stop
         style="stop-opacity:1;stop-color:#373535"
         offset="0"
         id="stop5779" /><stop
         style="stop-opacity:1;stop-color:#4d4c4e"
         offset="1"
         id="stop5781" /></linearGradient><linearGradient
       x1="0"
       y1="0"
       x2="1"
       y2="0"
       gradientUnits="userSpaceOnUse"
       gradientTransform="matrix(24.348633,0,0,-24.348633,629.57715,618.02588)"
       spreadMethod="pad"
       id="linearGradient5797"><stop
         style="stop-opacity:1;stop-color:#373535"
         offset="0"
         id="stop5799" /><stop
         style="stop-opacity:1;stop-color:#82d4f7"
         offset="0.507767"
         id="stop5801" /><stop
         style="stop-opacity:1;stop-color:#373535"
         offset="1"
         id="stop5803" /></linearGradient><linearGradient
       x1="0"
       y1="0"
       x2="1"
       y2="0"
       gradientUnits="userSpaceOnUse"
       gradientTransform="matrix(24.348633,0,0,24.348633,629.57715,606)"
       spreadMethod="pad"
       id="linearGradient5819"><stop
         style="stop-opacity:1;stop-color:#373535"
         offset="0"
         id="stop5821" /><stop
         style="stop-opacity:1;stop-color:#82d4f7"
         offset="0.507767"
         id="stop5823" /><stop
         style="stop-opacity:1;stop-color:#373535"
         offset="1"
         id="stop5825" /></linearGradient><clipPath
       clipPathUnits="userSpaceOnUse"
       id="clipPath5833"><path
         d="m 0,1224 1224,0 L 1224,0 0,0 0,1224 z"
         id="path5835"
         inkscape:connector-curvature="0" /></clipPath><linearGradient
       x1="0"
       y1="0"
       x2="1"
       y2="0"
       gradientUnits="userSpaceOnUse"
       gradientTransform="matrix(3.9023438,0,0,-3.9023438,637.05371,607.48145)"
       spreadMethod="pad"
       id="linearGradient5853"><stop
         style="stop-opacity:1;stop-color:#373535"
         offset="0"
         id="stop5855" /><stop
         style="stop-opacity:1;stop-color:#82d4f7"
         offset="0.507767"
         id="stop5857" /><stop
         style="stop-opacity:1;stop-color:#373535"
         offset="1"
         id="stop5859" /></linearGradient><radialGradient
       fx="0"
       fy="0"
       cx="0"
       cy="0"
       r="1"
       gradientUnits="userSpaceOnUse"
       gradientTransform="matrix(25.576706,0,0,11.419678,636.9873,603.50195)"
       spreadMethod="pad"
       id="radialGradient5875"><stop
         style="stop-opacity:1;stop-color:#69cef6"
         offset="0"
         id="stop5877" /><stop
         style="stop-opacity:1;stop-color:#007da8"
         offset="1"
         id="stop5879" /></radialGradient><clipPath
       clipPathUnits="userSpaceOnUse"
       id="clipPath5887"><path
         d="m 0,1224 1224,0 L 1224,0 0,0 0,1224 z"
         id="path5889"
         inkscape:connector-curvature="0" /></clipPath><linearGradient
       x1="0"
       y1="0"
       x2="1"
       y2="0"
       gradientUnits="userSpaceOnUse"
       gradientTransform="matrix(3.9042969,0,0,-3.9042969,642.54785,607.48145)"
       spreadMethod="pad"
       id="linearGradient5907"><stop
         style="stop-opacity:1;stop-color:#373535"
         offset="0"
         id="stop5909" /><stop
         style="stop-opacity:1;stop-color:#82d4f7"
         offset="0.507767"
         id="stop5911" /><stop
         style="stop-opacity:1;stop-color:#373535"
         offset="1"
         id="stop5913" /></linearGradient><radialGradient
       fx="0"
       fy="0"
       cx="0"
       cy="0"
       r="1"
       gradientUnits="userSpaceOnUse"
       gradientTransform="matrix(25.577301,0,0,11.419937,642.47559,603.50195)"
       spreadMethod="pad"
       id="radialGradient5929"><stop
         style="stop-opacity:1;stop-color:#69cef6"
         offset="0"
         id="stop5931" /><stop
         style="stop-opacity:1;stop-color:#007da8"
         offset="1"
         id="stop5933" /></radialGradient></defs><sodipodi:namedview
     pagecolor="#ffffff"
     bordercolor="#666666"
     borderopacity="1"
     objecttolerance="10"
     gridtolerance="10"
     guidetolerance="10"
     inkscape:pageopacity="0"
     inkscape:pageshadow="2"
     inkscape:window-width="640"
     inkscape:window-height="480"
     id="namedview5023"
     showgrid="false"
     fit-margin-top="0"
     fit-margin-left="0"
     fit-margin-right="0"
     fit-margin-bottom="0"
     inkscape:zoom="0.15424837"
     inkscape:cx="90.01125"
     inkscape:cy="16.455"
     inkscape:window-x="0"
     inkscape:window-y="0"
     inkscape:window-maximized="0"
     inkscape:current-layer="g5029" /><g
     id="g5029"
     inkscape:groupmode="layer"
     inkscape:label="media.controller"
     transform="matrix(1.25,0,0,-1.25,-674.98875,781.4875)"><g
       id="g5031"><g
         id="g5033"><g
           id="g5039"><g
             id="g5041"><path
               d="m 539.991,612.013 c 0,-7.279 5.899,-13.177 13.177,-13.177 l 0,0 c 7.277,0 13.178,5.898 13.178,13.177 l 0,0 c 0,7.278 -5.901,13.177 -13.178,13.177 l 0,0 c -7.278,0 -13.177,-5.899 -13.177,-13.177"
               style="fill:url(#linearGradient5043);stroke:none"
               id="path5049"
               inkscape:connector-curvature="0" /></g></g></g></g><g
       id="g5051"><g
         id="g5053"><g
           id="g5059"><g
             id="g5061"><path
               d="m 540.995,612.013 c 0,-6.712 5.461,-12.175 12.173,-12.175 l 0,0 c 6.714,0 12.175,5.463 12.175,12.175 l 0,0 c 0,6.714 -5.461,12.175 -12.175,12.175 l 0,0 c -6.712,0 -12.173,-5.461 -12.173,-12.175"
               style="fill:url(#linearGradient5063);stroke:none"
               id="path5069"
               inkscape:connector-curvature="0" /></g></g></g></g><g
       id="g5071"><g
         id="g5073"><g
           id="g5079"><g
             id="g5081"><path
               d="m 540.995,612.013 c 0,-0.05 0.006,-0.097 0.006,-0.149 l 0,0 c 0.082,6.644 5.505,12.025 12.167,12.025 l 0,0 c 6.662,0 12.083,-5.381 12.165,-12.025 l 0,0 c 0.002,0.052 0.01,0.099 0.01,0.149 l 0,0 c 0,6.714 -5.461,12.175 -12.175,12.175 l 0,0 c -6.712,0 -12.173,-5.461 -12.173,-12.175"
               style="fill:url(#linearGradient5083);stroke:none"
               id="path5091"
               inkscape:connector-curvature="0" /></g></g></g></g><g
       id="g5093"><g
         id="g5095"><g
           id="g5101"><g
             id="g5103"><path
               d="m 553.168,600.139 c -6.662,0 -12.085,5.378 -12.167,12.023 l 0,0 c 0,-0.05 -0.006,-0.1 -0.006,-0.15 l 0,0 c 0,-6.713 5.461,-12.174 12.173,-12.174 l 0,0 c 6.714,0 12.175,5.461 12.175,12.174 l 0,0 c 0,0.05 -0.008,0.1 -0.01,0.15 l 0,0 c -0.082,-6.645 -5.503,-12.023 -12.165,-12.023"
               style="fill:url(#linearGradient5105);stroke:none"
               id="path5113"
               inkscape:connector-curvature="0" /></g></g></g></g><g
       id="g5115"><g
         id="g5117"
         clip-path="url(#clipPath5119)"><g
           id="g5123"
           transform="translate(558.4346,607.6621)"><path
             d="m 0,0 c 0.077,0 0.153,0.012 0.225,0.036 0.359,0.12 0.574,0.474 0.574,0.943 l 0,6.959 c 0,0.468 -0.215,0.82 -0.574,0.943 C 0.153,8.904 0.077,8.916 0.002,8.916 -0.377,8.916 -0.76,8.641 -1.113,8.342 L -4.959,5.098 C -5.154,4.934 -5.268,4.7 -5.268,4.459 c 0,-0.242 0.114,-0.475 0.309,-0.641 L -1.113,0.575 C -0.76,0.276 -0.379,0 0,0"
             style="fill:#373535;fill-opacity:1;fill-rule:nonzero;stroke:none"
             id="path5125"
             inkscape:connector-curvature="0" /></g></g></g><g
       id="g5127"><g
         id="g5129"><g
           id="g5135"><g
             id="g5137"><path
               d="m 557.539,615.743 -3.844,-3.245 c -0.251,-0.207 -0.251,-0.547 0,-0.757 l 0,0 3.844,-3.245 c 0.247,-0.207 0.703,-0.581 1.011,-0.477 l 0,0 c 0.209,0.071 0.343,0.289 0.343,0.622 l 0,0 0,3.478 0,3.481 c 0,0.33 -0.134,0.548 -0.343,0.618 l 0,0 c -0.037,0.013 -0.076,0.019 -0.117,0.019 l 0,0 c -0.298,0 -0.677,-0.311 -0.894,-0.494"
               style="fill:url(#radialGradient5139);stroke:none"
               id="path5145"
               inkscape:connector-curvature="0" /></g></g></g></g><g
       id="g5147"><g
         id="g5149"
         clip-path="url(#clipPath5151)"><g
           id="g5155"
           transform="translate(551.7139,607.6621)"><path
             d="m 0,0 c 0.077,0 0.152,0.012 0.225,0.036 0.359,0.12 0.573,0.474 0.573,0.943 l 0,6.959 c 0,0.468 -0.214,0.82 -0.573,0.943 -0.073,0.023 -0.148,0.035 -0.224,0.035 -0.38,0 -0.762,-0.275 -1.116,-0.574 L -4.961,5.098 C -5.155,4.934 -5.27,4.7 -5.27,4.459 c 0,-0.242 0.115,-0.475 0.309,-0.641 L -1.115,0.575 C -0.761,0.276 -0.38,0 0,0"
             style="fill:#373535;fill-opacity:1;fill-rule:nonzero;stroke:none"
             id="path5157"
             inkscape:connector-curvature="0" /></g></g></g><g
       id="g5159"><g
         id="g5161"><g
           id="g5167"><g
             id="g5169"><path
               d="m 546.444,611.753 c 0,-0.242 0.114,-0.475 0.309,-0.64 l 0,0 3.845,-3.244 c 0.355,-0.299 0.736,-0.575 1.116,-0.575 l 0,0 c 0.077,0 0.152,0.011 0.224,0.036 l 0,0 c 0.36,0.121 0.574,0.472 0.574,0.943 l 0,0 0,0.551 c 0,-0.47 -0.214,-0.821 -0.574,-0.943 l 0,0 c -0.072,-0.025 -0.147,-0.035 -0.224,-0.035 l 0,0 c -0.38,0 -0.761,0.275 -1.116,0.576 l 0,0 -3.845,3.242 c -0.117,0.1 -0.194,0.229 -0.242,0.364 l 0,0 c -0.036,-0.087 -0.067,-0.18 -0.067,-0.275"
               style="fill:url(#linearGradient5171);stroke:none"
               id="path5179"
               inkscape:connector-curvature="0" /></g></g></g></g><g
       id="g5181"><g
         id="g5183"><g
           id="g5189"><g
             id="g5191"><path
               d="m 553.167,611.753 c 0,-0.242 0.113,-0.475 0.309,-0.64 l 0,0 3.845,-3.244 c 0.354,-0.299 0.735,-0.575 1.114,-0.575 l 0,0 c 0.077,0 0.153,0.011 0.224,0.036 l 0,0 c 0.36,0.121 0.574,0.472 0.574,0.943 l 0,0 0,0.551 c 0,-0.47 -0.214,-0.821 -0.574,-0.943 l 0,0 c -0.071,-0.025 -0.147,-0.035 -0.224,-0.035 l 0,0 c -0.379,0 -0.76,0.275 -1.114,0.576 l 0,0 -3.845,3.242 c -0.117,0.1 -0.194,0.229 -0.244,0.364 l 0,0 c -0.034,-0.087 -0.065,-0.18 -0.065,-0.275"
               style="fill:url(#linearGradient5193);stroke:none"
               id="path5201"
               inkscape:connector-curvature="0" /></g></g></g></g><g
       id="g5203"><g
         id="g5205"><g
           id="g5211"><g
             id="g5213"><path
               d="m 550.817,615.743 -3.844,-3.245 c -0.25,-0.207 -0.25,-0.547 0,-0.757 l 0,0 3.844,-3.245 c 0.248,-0.207 0.704,-0.581 1.012,-0.477 l 0,0 c 0.208,0.071 0.342,0.289 0.342,0.622 l 0,0 0,3.478 0,3.481 c 0,0.33 -0.134,0.548 -0.342,0.618 l 0,0 c -0.037,0.013 -0.077,0.019 -0.117,0.019 l 0,0 c -0.298,0 -0.676,-0.311 -0.895,-0.494"
               style="fill:url(#radialGradient5215);stroke:none"
               id="path5221"
               inkscape:connector-curvature="0" /></g></g></g></g><g
       id="g5223"><g
         id="g5225"><g
           id="g5231"><g
             id="g5233"><path
               d="m 599.047,612.013 c 0,-7.279 5.901,-13.177 13.178,-13.177 l 0,0 c 7.278,0 13.176,5.898 13.176,13.177 l 0,0 c 0,7.278 -5.898,13.177 -13.176,13.177 l 0,0 c -7.277,0 -13.178,-5.899 -13.178,-13.177"
               style="fill:url(#linearGradient5235);stroke:none"
               id="path5241"
               inkscape:connector-curvature="0" /></g></g></g></g><g
       id="g5243"><g
         id="g5245"><g
           id="g5251"><g
             id="g5253"><path
               d="m 600.05,612.013 c 0,-6.712 5.461,-12.175 12.175,-12.175 l 0,0 c 6.711,0 12.172,5.463 12.172,12.175 l 0,0 c 0,6.714 -5.461,12.175 -12.172,12.175 l 0,0 c -6.714,0 -12.175,-5.461 -12.175,-12.175"
               style="fill:url(#linearGradient5255);stroke:none"
               id="path5261"
               inkscape:connector-curvature="0" /></g></g></g></g><g
       id="g5263"><g
         id="g5265"><g
           id="g5271"><g
             id="g5273"><path
               d="m 600.05,612.013 c 0,-0.05 0.008,-0.097 0.01,-0.149 l 0,0 c 0.08,6.644 5.502,12.025 12.165,12.025 l 0,0 c 6.662,0 12.084,-5.381 12.164,-12.025 l 0,0 c 0,0.052 0.008,0.099 0.008,0.149 l 0,0 c 0,6.714 -5.461,12.175 -12.172,12.175 l 0,0 c -6.714,0 -12.175,-5.461 -12.175,-12.175"
               style="fill:url(#linearGradient5275);stroke:none"
               id="path5283"
               inkscape:connector-curvature="0" /></g></g></g></g><g
       id="g5285"><g
         id="g5287"><g
           id="g5293"><g
             id="g5295"><path
               d="m 612.225,600.139 c -6.663,0 -12.085,5.378 -12.165,12.023 l 0,0 c -0.002,-0.05 -0.01,-0.1 -0.01,-0.15 l 0,0 c 0,-6.713 5.461,-12.174 12.175,-12.174 l 0,0 c 6.711,0 12.172,5.461 12.172,12.174 l 0,0 c 0,0.05 -0.008,0.1 -0.008,0.15 l 0,0 c -0.08,-6.645 -5.502,-12.023 -12.164,-12.023"
               style="fill:url(#linearGradient5297);stroke:none"
               id="path5305"
               inkscape:connector-curvature="0" /></g></g></g></g><g
       id="g5307"><g
         id="g5309"><g
           id="g5315"><g
             id="g5317"><path
               d="m 618.639,611.624 -3.845,-3.241 c -0.355,-0.301 -0.736,-0.576 -1.116,-0.576 l 0,0 c -0.077,0 -0.152,0.01 -0.224,0.035 l 0,0 c -0.36,0.121 -0.573,0.473 -0.573,0.943 l 0,0 0,-0.551 c 0,-0.471 0.213,-0.823 0.573,-0.943 l 0,0 c 0.072,-0.027 0.147,-0.037 0.224,-0.037 l 0,0 c 0.38,0 0.761,0.276 1.116,0.576 l 0,0 3.845,3.242 c 0.195,0.167 0.309,0.4 0.309,0.641 l 0,0 c 0,0.095 -0.031,0.187 -0.067,0.275 l 0,0 c -0.048,-0.136 -0.124,-0.263 -0.242,-0.364"
               style="fill:url(#linearGradient5319);stroke:none"
               id="path5327"
               inkscape:connector-curvature="0" /></g></g></g></g><g
       id="g5329"><g
         id="g5331"
         clip-path="url(#clipPath5333)"><g
           id="g5337"
           transform="translate(606.957,607.6621)"><path
             d="m 0,0 c -0.076,0 -0.152,0.012 -0.224,0.036 -0.359,0.12 -0.574,0.474 -0.574,0.943 l 0,6.959 c 0,0.468 0.215,0.82 0.574,0.943 0.072,0.023 0.148,0.035 0.223,0.035 0.379,0 0.762,-0.275 1.115,-0.574 L 4.96,5.098 C 5.155,4.934 5.269,4.7 5.269,4.459 5.269,4.217 5.155,3.984 4.96,3.818 L 1.114,0.575 C 0.761,0.276 0.38,0 0,0"
             style="fill:#373535;fill-opacity:1;fill-rule:nonzero;stroke:none"
             id="path5339"
             inkscape:connector-curvature="0" /></g></g></g><g
       id="g5341"><g
         id="g5343"><g
           id="g5349"><g
             id="g5351"><path
               d="m 606.843,616.218 c -0.209,-0.07 -0.343,-0.288 -0.343,-0.618 l 0,0 0,-3.481 0,-3.478 c 0,-0.333 0.134,-0.551 0.343,-0.622 l 0,0 c 0.308,-0.104 0.763,0.27 1.011,0.477 l 0,0 3.844,3.245 c 0.25,0.21 0.25,0.55 0,0.757 l 0,0 -3.844,3.245 c -0.218,0.183 -0.596,0.494 -0.894,0.494 l 0,0 c -0.041,0 -0.08,-0.006 -0.117,-0.019"
               style="fill:url(#radialGradient5353);stroke:none"
               id="path5359"
               inkscape:connector-curvature="0" /></g></g></g></g><g
       id="g5361"><g
         id="g5363"
         clip-path="url(#clipPath5365)"><g
           id="g5369"
           transform="translate(613.6787,607.6621)"><path
             d="m 0,0 c -0.077,0 -0.152,0.012 -0.225,0.036 -0.359,0.12 -0.573,0.474 -0.573,0.943 l 0,6.959 c 0,0.468 0.214,0.82 0.573,0.943 0.073,0.023 0.148,0.035 0.224,0.035 0.38,0 0.762,-0.275 1.116,-0.574 L 4.961,5.098 C 5.155,4.934 5.27,4.7 5.27,4.459 5.27,4.217 5.155,3.984 4.961,3.818 L 1.115,0.575 C 0.761,0.276 0.38,0 0,0"
             style="fill:#373535;fill-opacity:1;fill-rule:nonzero;stroke:none"
             id="path5371"
             inkscape:connector-curvature="0" /></g></g></g><g
       id="g5373"><g
         id="g5375"><g
           id="g5381"><g
             id="g5383"><path
               d="m 611.917,611.664 -3.846,-3.242 c -0.353,-0.301 -0.734,-0.576 -1.114,-0.576 l 0,0 c -0.076,0 -0.153,0.01 -0.224,0.035 l 0,0 c -0.359,0.122 -0.574,0.473 -0.574,0.943 l 0,0 0,-0.551 c 0,-0.471 0.215,-0.822 0.574,-0.943 l 0,0 c 0.071,-0.025 0.148,-0.036 0.224,-0.036 l 0,0 c 0.38,0 0.761,0.276 1.114,0.575 l 0,0 3.846,3.244 c 0.195,0.165 0.309,0.398 0.309,0.64 l 0,0 c 0,0.095 -0.031,0.188 -0.065,0.275 l 0,0 c -0.05,-0.135 -0.127,-0.264 -0.244,-0.364"
               style="fill:url(#linearGradient5385);stroke:none"
               id="path5393"
               inkscape:connector-curvature="0" /></g></g></g></g><g
       id="g5395"><g
         id="g5397"><g
           id="g5403"><g
             id="g5405"><path
               d="m 613.563,616.218 c -0.208,-0.07 -0.342,-0.288 -0.342,-0.618 l 0,0 0,-3.481 0,-3.478 c 0,-0.333 0.134,-0.551 0.342,-0.622 l 0,0 c 0.309,-0.104 0.764,0.27 1.012,0.477 l 0,0 3.844,3.245 c 0.251,0.21 0.251,0.55 0,0.757 l 0,0 -3.844,3.245 c -0.218,0.183 -0.596,0.494 -0.894,0.494 l 0,0 c -0.041,0 -0.081,-0.006 -0.118,-0.019"
               style="fill:url(#radialGradient5407);stroke:none"
               id="path5413"
               inkscape:connector-curvature="0" /></g></g></g></g><g
       id="g5415"><g
         id="g5417"><g
           id="g5423"><g
             id="g5425"><path
               d="m 569.518,612.013 c 0,-7.279 5.901,-13.177 13.176,-13.177 l 0,0 c 7.281,0 13.178,5.898 13.178,13.177 l 0,0 c 0,7.278 -5.897,13.177 -13.178,13.177 l 0,0 c -7.275,0 -13.176,-5.899 -13.176,-13.177"
               style="fill:url(#linearGradient5427);stroke:none"
               id="path5433"
               inkscape:connector-curvature="0" /></g></g></g></g><g
       id="g5435"><g
         id="g5437"><g
           id="g5443"><g
             id="g5445"><path
               d="m 570.523,612.013 c 0,-6.712 5.461,-12.175 12.171,-12.175 l 0,0 c 6.714,0 12.175,5.463 12.175,12.175 l 0,0 c 0,6.714 -5.461,12.175 -12.175,12.175 l 0,0 c -6.71,0 -12.171,-5.461 -12.171,-12.175"
               style="fill:url(#linearGradient5447);stroke:none"
               id="path5453"
               inkscape:connector-curvature="0" /></g></g></g></g><g
       id="g5455"><g
         id="g5457"><g
           id="g5463"><g
             id="g5465"><path
               d="m 570.523,612.013 c 0,-0.05 0.006,-0.097 0.008,-0.149 l 0,0 c 0.081,6.644 5.501,12.025 12.163,12.025 l 0,0 c 6.665,0 12.087,-5.381 12.168,-12.025 l 0,0 c 0,0.052 0.007,0.099 0.007,0.149 l 0,0 c 0,6.714 -5.461,12.175 -12.175,12.175 l 0,0 c -6.71,0 -12.171,-5.461 -12.171,-12.175"
               style="fill:url(#linearGradient5467);stroke:none"
               id="path5475"
               inkscape:connector-curvature="0" /></g></g></g></g><g
       id="g5477"><g
         id="g5479"><g
           id="g5485"><g
             id="g5487"><path
               d="m 582.694,600.139 c -6.662,0 -12.082,5.378 -12.163,12.023 l 0,0 c -0.002,-0.05 -0.008,-0.1 -0.008,-0.15 l 0,0 c 0,-6.713 5.461,-12.174 12.171,-12.174 l 0,0 c 6.714,0 12.175,5.461 12.175,12.174 l 0,0 c 0,0.05 -0.007,0.1 -0.007,0.15 l 0,0 c -0.081,-6.645 -5.503,-12.023 -12.168,-12.023"
               style="fill:url(#linearGradient5489);stroke:none"
               id="path5497"
               inkscape:connector-curvature="0" /></g></g></g></g><g
       id="g5499"><g
         id="g5501"
         clip-path="url(#clipPath5503)"><g
           id="g5507"
           transform="translate(579.251,606.3711)"><path
             d="m 0,0 c -1.209,0 -2.193,0.984 -2.193,2.194 l 0,6.888 c 0,1.21 0.984,2.195 2.193,2.195 l 6.889,0 c 1.209,0 2.193,-0.985 2.193,-2.195 l 0,-6.888 C 9.082,0.984 8.098,0 6.889,0 L 0,0 z"
             style="fill:#373535;fill-opacity:1;fill-rule:nonzero;stroke:none"
             id="path5509"
             inkscape:connector-curvature="0" /></g></g></g><g
       id="g5511"><g
         id="g5513"><g
           id="g5519"><g
             id="g5521"><path
               d="m 586.139,606.959 -6.888,0 c -1.209,0 -2.194,0.985 -2.194,2.193 l 0,0 0,-0.733 c 0,-1.21 0.985,-2.194 2.194,-2.194 l 0,0 6.888,0 c 1.21,0 2.194,0.984 2.194,2.194 l 0,0 0,0.733 c 0,-1.208 -0.984,-2.193 -2.194,-2.193"
               style="fill:url(#linearGradient5523);stroke:none"
               id="path5531"
               inkscape:connector-curvature="0" /></g></g></g></g><g
       id="g5533"><g
         id="g5535"><g
           id="g5541"><g
             id="g5543"><path
               d="m 579.251,616.916 c -0.808,0 -1.463,-0.655 -1.463,-1.463 l 0,0 0,-6.887 c 0,-0.81 0.655,-1.466 1.463,-1.466 l 0,0 6.888,0 c 0.809,0 1.465,0.656 1.465,1.466 l 0,0 0,6.887 c 0,0.808 -0.656,1.463 -1.465,1.463 l 0,0 -6.888,0 z"
               style="fill:url(#radialGradient5545);stroke:none"
               id="path5551"
               inkscape:connector-curvature="0" /></g></g></g></g><g
       id="g5553"><g
         id="g5555"><g
           id="g5561"><g
             id="g5563"><path
               d="m 658.102,612.013 c 0,-7.279 5.899,-13.177 13.177,-13.177 l 0,0 c 7.279,0 13.175,5.898 13.175,13.177 l 0,0 c 0,7.278 -5.896,13.177 -13.175,13.177 l 0,0 c -7.278,0 -13.177,-5.899 -13.177,-13.177"
               style="fill:url(#linearGradient5565);stroke:none"
               id="path5571"
               inkscape:connector-curvature="0" /></g></g></g></g><g
       id="g5573"><g
         id="g5575"><g
           id="g5581"><g
             id="g5583"><path
               d="m 659.104,612.013 c 0,-6.712 5.461,-12.175 12.175,-12.175 l 0,0 c 6.711,0 12.173,5.463 12.173,12.175 l 0,0 c 0,6.714 -5.462,12.175 -12.173,12.175 l 0,0 c -6.714,0 -12.175,-5.461 -12.175,-12.175"
               style="fill:url(#linearGradient5585);stroke:none"
               id="path5591"
               inkscape:connector-curvature="0" /></g></g></g></g><g
       id="g5593"><g
         id="g5595"><g
           id="g5601"><g
             id="g5603"><path
               d="m 659.104,612.013 c 0,-0.05 0.007,-0.097 0.008,-0.149 l 0,0 c 0.082,6.644 5.504,12.025 12.167,12.025 l 0,0 c 6.661,0 12.085,-5.381 12.167,-12.025 l 0,0 c 0,0.052 0.006,0.099 0.006,0.149 l 0,0 c 0,6.714 -5.462,12.175 -12.173,12.175 l 0,0 c -6.714,0 -12.175,-5.461 -12.175,-12.175"
               style="fill:url(#linearGradient5605);stroke:none"
               id="path5613"
               inkscape:connector-curvature="0" /></g></g></g></g><g
       id="g5615"><g
         id="g5617"><g
           id="g5623"><g
             id="g5625"><path
               d="m 671.279,600.139 c -6.663,0 -12.085,5.378 -12.167,12.023 l 0,0 c -10e-4,-0.05 -0.008,-0.1 -0.008,-0.15 l 0,0 c 0,-6.713 5.461,-12.174 12.175,-12.174 l 0,0 c 6.711,0 12.173,5.461 12.173,12.174 l 0,0 c 0,0.05 -0.006,0.1 -0.006,0.15 l 0,0 c -0.082,-6.645 -5.506,-12.023 -12.167,-12.023"
               style="fill:url(#linearGradient5627);stroke:none"
               id="path5635"
               inkscape:connector-curvature="0" /></g></g></g></g><g
       id="g5637"><g
         id="g5639"
         clip-path="url(#clipPath5641)"><g
           id="g5645"
           transform="translate(677.1123,611.1426)"><path
             d="m 0,0 c 0,-0.104 -0.014,-0.203 -0.047,-0.293 -0.159,-0.471 -0.621,-0.754 -1.236,-0.754 l -9.107,0 c -0.614,0 -1.075,0.283 -1.236,0.754 -0.03,0.09 -0.047,0.189 -0.047,0.291 0,0.496 0.363,0.996 0.755,1.461 l 4.248,5.034 c 0.213,0.253 0.517,0.402 0.834,0.402 0.316,0 0.621,-0.149 0.838,-0.402 L -0.754,1.459 C -0.359,0.994 0,0.496 0,0"
             style="fill:#373535;fill-opacity:1;fill-rule:nonzero;stroke:none"
             id="path5647"
             inkscape:connector-curvature="0" /></g></g></g><g
       id="g5649"><g
         id="g5651"><g
           id="g5657"><g
             id="g5659"><path
               d="m 677.065,611.229 c -0.159,-0.408 -0.621,-0.653 -1.236,-0.653 l 0,0 -9.106,0 c -0.615,0 -1.076,0.245 -1.237,0.653 l 0,0 c -10e-4,0.003 0,0.005 -10e-4,0.007 l 0,0 c -0.022,-0.077 -0.046,-0.156 -0.046,-0.233 l 0,0 c 0,-0.088 0.017,-0.175 0.047,-0.253 l 0,0 c 0.161,-0.408 0.622,-0.654 1.237,-0.654 l 0,0 9.106,0 c 0.615,0 1.077,0.246 1.236,0.654 l 0,0 c 0.034,0.078 0.047,0.165 0.047,0.255 l 0,0 c 0,0.079 -0.023,0.155 -0.045,0.233 l 0,0 c -0.002,-0.004 0,-0.006 -0.002,-0.009"
               style="fill:url(#linearGradient5661);stroke:none"
               id="path5669"
               inkscape:connector-curvature="0" /></g></g></g></g><g
       id="g5671"><g
         id="g5673"><g
           id="g5679"><g
             id="g5681"><path
               d="m 670.783,617.348 -4.248,-5.034 c -0.272,-0.324 -0.762,-0.919 -0.624,-1.322 l 0,0 c 0.092,-0.274 0.377,-0.449 0.812,-0.449 l 0,0 4.556,0 4.55,0 c 0.435,0 0.723,0.175 0.814,0.449 l 0,0 c 0.137,0.403 -0.351,0.998 -0.622,1.322 l 0,0 -4.248,5.034 c -0.137,0.162 -0.317,0.243 -0.496,0.243 l 0,0 c -0.179,0 -0.358,-0.081 -0.494,-0.243"
               style="fill:url(#radialGradient5683);stroke:none"
               id="path5689"
               inkscape:connector-curvature="0" /></g></g></g></g><g
       id="g5691"><g
         id="g5693"
         clip-path="url(#clipPath5695)"><g
           id="g5699"
           transform="translate(666.5596,606.3008)"><path
             d="m 0,0 c -0.652,0 -1.162,0.652 -1.162,1.486 0,0.834 0.51,1.489 1.162,1.489 l 9.434,0 C 10.088,2.975 10.6,2.32 10.6,1.486 10.6,0.652 10.088,0 9.434,0 L 0,0 z"
             style="fill:#373535;fill-opacity:1;fill-rule:nonzero;stroke:none"
             id="path5701"
             inkscape:connector-curvature="0" /></g></g></g><g
       id="g5703"><g
         id="g5705"><g
           id="g5711"><g
             id="g5713"><path
               d="m 675.993,606.668 -9.433,0 c -0.575,0 -1.02,0.52 -1.121,1.212 l 0,0 c -0.012,-0.093 -0.042,-0.176 -0.042,-0.276 l 0,0 c 0,-0.835 0.51,-1.488 1.163,-1.488 l 0,0 9.433,0 c 0.654,0 1.166,0.653 1.166,1.488 l 0,0 c 0,0.1 -0.029,0.183 -0.043,0.276 l 0,0 c -0.102,-0.692 -0.546,-1.212 -1.123,-1.212"
               style="fill:url(#linearGradient5715);stroke:none"
               id="path5723"
               inkscape:connector-curvature="0" /></g></g></g></g><g
       id="g5725"><g
         id="g5727"><g
           id="g5733"><g
             id="g5735"><path
               d="m 666.56,608.783 c -0.372,0 -0.672,-0.446 -0.672,-0.996 l 0,0 c 0,-0.547 0.3,-0.996 0.672,-0.996 l 0,0 9.433,0 c 0.371,0 0.676,0.449 0.676,0.996 l 0,0 c 0,0.55 -0.305,0.996 -0.676,0.996 l 0,0 -9.433,0 z"
               style="fill:url(#radialGradient5737);stroke:none"
               id="path5743"
               inkscape:connector-curvature="0" /></g></g></g></g><g
       id="g5745"><g
         id="g5747"><g
           id="g5753"><g
             id="g5755"><path
               d="m 628.575,612.013 c 0,-7.279 5.899,-13.177 13.176,-13.177 l 0,0 c 7.279,0 13.176,5.898 13.176,13.177 l 0,0 c 0,7.278 -5.897,13.177 -13.176,13.177 l 0,0 c -7.277,0 -13.176,-5.899 -13.176,-13.177"
               style="fill:url(#linearGradient5757);stroke:none"
               id="path5763"
               inkscape:connector-curvature="0" /></g></g></g></g><g
       id="g5765"><g
         id="g5767"><g
           id="g5773"><g
             id="g5775"><path
               d="m 629.577,612.013 c 0,-6.712 5.461,-12.175 12.174,-12.175 l 0,0 c 6.713,0 12.175,5.463 12.175,12.175 l 0,0 c 0,6.714 -5.462,12.175 -12.175,12.175 l 0,0 c -6.713,0 -12.174,-5.461 -12.174,-12.175"
               style="fill:url(#linearGradient5777);stroke:none"
               id="path5783"
               inkscape:connector-curvature="0" /></g></g></g></g><g
       id="g5785"><g
         id="g5787"><g
           id="g5793"><g
             id="g5795"><path
               d="m 629.577,612.013 c 0,-0.05 0.008,-0.097 0.009,-0.149 l 0,0 c 0.082,6.644 5.503,12.025 12.165,12.025 l 0,0 c 6.662,0 12.085,-5.381 12.168,-12.025 l 0,0 c 0,0.052 0.007,0.099 0.007,0.149 l 0,0 c 0,6.714 -5.462,12.175 -12.175,12.175 l 0,0 c -6.713,0 -12.174,-5.461 -12.174,-12.175"
               style="fill:url(#linearGradient5797);stroke:none"
               id="path5805"
               inkscape:connector-curvature="0" /></g></g></g></g><g
       id="g5807"><g
         id="g5809"><g
           id="g5815"><g
             id="g5817"><path
               d="m 641.751,600.139 c -6.662,0 -12.083,5.378 -12.165,12.023 l 0,0 c -10e-4,-0.05 -0.009,-0.1 -0.009,-0.15 l 0,0 c 0,-6.713 5.461,-12.174 12.174,-12.174 l 0,0 c 6.713,0 12.175,5.461 12.175,12.174 l 0,0 c 0,0.05 -0.007,0.1 -0.007,0.15 l 0,0 c -0.083,-6.645 -5.506,-12.023 -12.168,-12.023"
               style="fill:url(#linearGradient5819);stroke:none"
               id="path5827"
               inkscape:connector-curvature="0" /></g></g></g></g><g
       id="g5829"><g
         id="g5831"
         clip-path="url(#clipPath5833)"><g
           id="g5837"
           transform="translate(640.9561,607.916)"><path
             d="m 0,0 c 0,-0.566 -0.857,-1.01 -1.951,-1.01 -1.094,0 -1.951,0.444 -1.951,1.01 l 0,8.18 c 0,0.564 0.857,1.011 1.951,1.011 C -0.857,9.191 0,8.744 0,8.18 L 0,0 z"
             style="fill:#373535;fill-opacity:1;fill-rule:nonzero;stroke:none"
             id="path5839"
             inkscape:connector-curvature="0" /></g></g></g><g
       id="g5841"><g
         id="g5843"><g
           id="g5849"><g
             id="g5851"><path
               d="m 639.004,607.19 c -1.093,0 -1.951,0.444 -1.951,1.008 l 0,0 0,-0.424 c 0,-0.565 0.858,-1.008 1.951,-1.008 l 0,0 c 1.095,0 1.952,0.443 1.952,1.008 l 0,0 0,0.424 c 0,-0.564 -0.857,-1.008 -1.952,-1.008"
               style="fill:url(#linearGradient5853);stroke:none"
               id="path5861"
               inkscape:connector-curvature="0" /></g></g></g></g><g
       id="g5863"><g
         id="g5865"><g
           id="g5871"><g
             id="g5873"><path
               d="m 637.699,616.096 0,-8.18 c 0,-0.322 0.587,-0.582 1.305,-0.582 l 0,0 c 0.719,0 1.309,0.26 1.309,0.582 l 0,0 0,8.18 c 0,0.321 -0.59,0.584 -1.309,0.584 l 0,0 c -0.718,0 -1.305,-0.263 -1.305,-0.584"
               style="fill:url(#radialGradient5875);stroke:none"
               id="path5881"
               inkscape:connector-curvature="0" /></g></g></g></g><g
       id="g5883"><g
         id="g5885"
         clip-path="url(#clipPath5887)"><g
           id="g5891"
           transform="translate(646.4521,607.916)"><path
             d="m 0,0 c 0,-0.566 -0.857,-1.01 -1.953,-1.01 -1.094,0 -1.951,0.444 -1.951,1.01 l 0,8.18 c 0,0.564 0.857,1.011 1.951,1.011 C -0.857,9.191 0,8.744 0,8.18 L 0,0 z"
             style="fill:#373535;fill-opacity:1;fill-rule:nonzero;stroke:none"
             id="path5893"
             inkscape:connector-curvature="0" /></g></g></g><g
       id="g5895"><g
         id="g5897"><g
           id="g5903"><g
             id="g5905"><path
               d="m 644.499,607.19 c -1.094,0 -1.951,0.444 -1.951,1.008 l 0,0 0,-0.424 c 0,-0.565 0.857,-1.008 1.951,-1.008 l 0,0 c 1.095,0 1.953,0.443 1.953,1.008 l 0,0 0,0.424 c 0,-0.564 -0.858,-1.008 -1.953,-1.008"
               style="fill:url(#linearGradient5907);stroke:none"
               id="path5915"
               inkscape:connector-curvature="0" /></g></g></g></g><g
       id="g5917"><g
         id="g5919"><g
           id="g5925"><g
             id="g5927"><path
               d="m 643.192,616.096 0,-8.18 c 0,-0.322 0.588,-0.582 1.307,-0.582 l 0,0 c 0.719,0 1.307,0.26 1.307,0.582 l 0,0 0,8.18 c 0,0.321 -0.588,0.584 -1.307,0.584 l 0,0 c -0.719,0 -1.307,-0.263 -1.307,-0.584"
               style="fill:url(#radialGradient5929);stroke:none"
               id="path5935"
               inkscape:connector-curvature="0" /></g></g></g></g></g></svg>