<?xml version="1.0" encoding="UTF-8" standalone="no"?>
<!-- Created with Inkscape (http://www.inkscape.org/) -->

<svg
   xmlns:dc="http://purl.org/dc/elements/1.1/"
   xmlns:cc="http://creativecommons.org/ns#"
   xmlns:rdf="http://www.w3.org/1999/02/22-rdf-syntax-ns#"
   xmlns:svg="http://www.w3.org/2000/svg"
   xmlns="http://www.w3.org/2000/svg"
   xmlns:sodipodi="http://sodipodi.sourceforge.net/DTD/sodipodi-0.dtd"
   xmlns:inkscape="http://www.inkscape.org/namespaces/inkscape"
   id="svg3015"
   version="1.1"
   inkscape:version="0.48.2 r9819"
   width="55.7925"
   height="55.798752"
   xml:space="preserve"
   sodipodi:docname="metawatch.ai"><metadata
     id="metadata3021"><rdf:RDF><cc:Work
         rdf:about=""><dc:format>image/svg+xml</dc:format><dc:type
           rdf:resource="http://purl.org/dc/dcmitype/StillImage" /><dc:title></dc:title></cc:Work></rdf:RDF></metadata><defs
     id="defs3019"><clipPath
       clipPathUnits="userSpaceOnUse"
       id="clipPath3029"><path
         d="m 0,1224 1224,0 L 1224,0 0,0 0,1224 z"
         id="path3031"
         inkscape:connector-curvature="0" /></clipPath></defs><sodipodi:namedview
     pagecolor="#ffffff"
     bordercolor="#666666"
     borderopacity="1"
     objecttolerance="10"
     gridtolerance="10"
     guidetolerance="10"
     inkscape:pageopacity="0"
     inkscape:pageshadow="2"
     inkscape:window-width="640"
     inkscape:window-height="480"
     id="namedview3017"
     showgrid="false"
     fit-margin-top="0"
     fit-margin-left="0"
     fit-margin-right="0"
     fit-margin-bottom="0"
     inkscape:zoom="0.15424837"
     inkscape:cx="27.073"
     inkscape:cy="28.18275"
     inkscape:window-x="0"
     inkscape:window-y="0"
     inkscape:window-maximized="0"
     inkscape:current-layer="g3023" /><g
     id="g3023"
     inkscape:groupmode="layer"
     inkscape:label="metawatch"
     transform="matrix(1.25,0,0,-1.25,-737.927,792.616)"><g
       id="g3025"><g
         id="g3027"
         clip-path="url(#clipPath3029)"><g
           id="g3033"
           transform="translate(612.6606,634.0928)"><path
             d="m 0,0 c -12.307,0 -22.319,-10.014 -22.319,-22.32 0,-12.306 10.013,-22.319 22.319,-22.319 12.306,0 22.315,10.012 22.315,22.318 C 22.315,-10.015 12.306,0 0,0"
             style="fill:#2f2f2f;fill-opacity:1;fill-rule:nonzero;stroke:none"
             id="path3035"
             inkscape:connector-curvature="0" /></g><g
           id="g3037"
           transform="translate(612.8057,592.6289)"><path
             d="m 0,0 c -10.571,0 -19.146,8.57 -19.146,19.144 0,10.573 8.574,19.145 19.146,19.145 10.574,0 19.146,-8.571 19.146,-19.145 C 19.146,8.57 10.574,0 0,0 m -0.145,39.964 c -11.499,0 -20.819,-9.322 -20.819,-20.82 0,-11.496 9.32,-20.818 20.819,-20.818 11.498,0 20.816,9.322 20.816,20.818 0.002,11.498 -9.318,20.82 -20.816,20.82"
             style="fill:#ffffff;fill-opacity:1;fill-rule:nonzero;stroke:none"
             id="path3039"
             inkscape:connector-curvature="0" /></g><g
           id="g3041"
           transform="translate(611.208,617.187)"><path
             d="M 0,0 -0.636,0 -3.502,-7.306 -6.521,0 l -0.512,0 -1.938,-6.793 -3.552,0 c -0.244,0.398 -0.68,0.667 -1.182,0.667 -0.767,0 -1.387,-0.622 -1.387,-1.388 0,-0.767 0.62,-1.39 1.387,-1.39 0.515,0 0.957,0.281 1.197,0.696 l 4.659,0 0,0.085 1.298,4.516 2.777,-7.23 0.573,0 2.988,7.576 0.921,-2.232 0.709,2.082 L 0,0 z"
             style="fill:#ffffff;fill-opacity:1;fill-rule:nonzero;stroke:none"
             id="path3043"
             inkscape:connector-curvature="0" /></g><g
           id="g3045"
           transform="translate(614.0459,606.3486)"><path
             d="M 0,0 0.633,0 3.501,7.306 6.521,0 l 0.512,0 1.938,6.793 3.553,0 c 0.245,-0.398 0.681,-0.667 1.181,-0.667 0.767,0 1.389,0.621 1.389,1.388 0,0.766 -0.622,1.389 -1.389,1.389 -0.515,0 -0.955,-0.281 -1.195,-0.695 l -4.661,0 0,-0.084 -1.3,-4.516 -2.777,7.23 -0.574,0 L 0.211,3.263 -0.71,5.494 -1.42,3.412 0,0 z"
             style="fill:#ffffff;fill-opacity:1;fill-rule:nonzero;stroke:none"
             id="path3047"
             inkscape:connector-curvature="0" /></g><g
           id="g3049"
           transform="translate(611.208,617.187)"><path
             d="M 0,0 -0.636,0 -3.502,-7.306 -6.521,0 l -0.512,0 -1.938,-6.793 -3.552,0 c -0.244,0.398 -0.68,0.667 -1.182,0.667 -0.767,0 -1.387,-0.622 -1.387,-1.388 0,-0.767 0.62,-1.39 1.387,-1.39 0.515,0 0.957,0.281 1.197,0.696 l 4.659,0 0,0.085 1.298,4.516 2.777,-7.23 0.573,0 2.988,7.576 0.921,-2.232 0.709,2.082 L 0,0 z"
             style="fill:#ffffff;fill-opacity:1;fill-rule:nonzero;stroke:none"
             id="path3051"
             inkscape:connector-curvature="0" /></g></g></g></g></svg>