<?xml version="1.0" encoding="utf-8"?>
<!-- Generator: Adobe Illustrator 15.1.0, SVG Export Plug-In . SVG Version: 6.00 Build 0)  -->
<!DOCTYPE svg PUBLIC "-//W3C//DTD SVG 1.1//EN" "http://www.w3.org/Graphics/SVG/1.1/DTD/svg11.dtd">
<svg version="1.1"
	 id="svg2" xmlns:dc="http://purl.org/dc/elements/1.1/" sodipodi:docname="window.ai" xmlns:sodipodi="http://sodipodi.sourceforge.net/DTD/sodipodi-0.dtd" xmlns:cc="http://creativecommons.org/ns#" inkscape:version="0.48.2 r9819" xmlns:svg="http://www.w3.org/2000/svg" xmlns:rdf="http://www.w3.org/1999/02/22-rdf-syntax-ns#" xmlns:inkscape="http://www.inkscape.org/namespaces/inkscape"
	 xmlns="http://www.w3.org/2000/svg" xmlns:xlink="http://www.w3.org/1999/xlink" x="0px" y="0px" width="598.57px"
	 height="497.348px" viewBox="0 0 598.57 497.348" enable-background="new 0 0 598.57 497.348" xml:space="preserve">
<sodipodi:namedview  fit-margin-right="0" inkscape:pageopacity="0" guidetolerance="10" inkscape:current-layer="g10" fit-margin-left="0" gridtolerance="10" inkscape:window-height="480" inkscape:pageshadow="2" id="namedview4" inkscape:window-width="640" inkscape:window-x="0" inkscape:zoom="0.15424837" showgrid="false" inkscape:cy="271.12" borderopacity="1" fit-margin-bottom="0" inkscape:window-y="0" inkscape:cx="233.25125" pagecolor="#ffffff" fit-margin-top="0" bordercolor="#666666" objecttolerance="10" inkscape:window-maximized="0">
	</sodipodi:namedview>
<rect fill="#717272" width="598.57" height="497.348"/>
<path fill="#1D1D1D" d="M460.002,131.457h-0.627H139.396h-0.752H14.462v343.684c0,2.762,2.239,5,5,5h118.084h1.098h0.752h319.979
	h0.627h1.23h5.02h112.932c2.761,0,5-2.238,5-5V131.457H460.002z"/>
<path fill="#343434" d="M593.966,490.021c0,1.382-1.119,2.5-2.5,2.5H7.104c-1.381,0-2.5-1.118-2.5-2.5V7.863
	c0-1.379,1.119-2.5,2.5-2.5h584.361c1.381,0,2.5,1.121,2.5,2.5V490.021z"/>
<polyline fill="#1D1D1D" points="14.462,131.457 14.462,62.779 584.064,62.779 584.064,130.207 14.234,130.207 "/>
<text transform="matrix(1 0 0 1 63.7197 41.144)" fill="#FFFFFF" font-family="'Roadgeek2005SeriesD'" font-size="26.2344">StickNfind</text>
<path fill="none" stroke="#FFFFFF" stroke-width="1.25" stroke-miterlimit="10" d="M62.681,152.619"/>
<text transform="matrix(1 0 0 1 31.5537 102.5771)" fill="#FFFFFF" font-family="'Roadgeek2005SeriesD'" font-size="17.5">DEVICE STATUS</text>
<text transform="matrix(1 0 0 1 348.5088 102.5771)" fill="#FFFFFF" font-family="'Roadgeek2005SeriesD'" font-size="17.5">PRESENCE</text>
<g>
	<linearGradient id="SVGID_1_" gradientUnits="userSpaceOnUse" x1="496.1055" y1="107.0742" x2="496.1055" y2="88.1465">
		<stop  offset="0.0052" style="stop-color:#6D6E70"/>
		<stop  offset="1" style="stop-color:#231F20"/>
	</linearGradient>
	<path fill="url(#SVGID_1_)" d="M445.148,107.074c-4.348,0-7.885-4.246-7.885-9.465c0-5.217,3.537-9.463,7.885-9.463h101.91
		c4.35,0,7.888,4.246,7.888,9.463c0,5.219-3.538,9.465-7.888,9.465H445.148z"/>
	<linearGradient id="SVGID_2_" gradientUnits="userSpaceOnUse" x1="496.1064" y1="106.3223" x2="496.1064" y2="88.8975">
		<stop  offset="0.0052" style="stop-color:#6D6E70"/>
		<stop  offset="1" style="stop-color:#231F20"/>
	</linearGradient>
	<path fill="url(#SVGID_2_)" d="M547.059,88.897h-101.91c-3.933,0-7.133,3.909-7.133,8.712c0,4.805,3.2,8.713,7.133,8.713h101.91
		c3.936,0,7.139-3.908,7.139-8.713C554.197,92.807,550.994,88.897,547.059,88.897z"/>
	<radialGradient id="SVGID_3_" cx="537.7793" cy="85.7021" r="60.7821" gradientUnits="userSpaceOnUse">
		<stop  offset="0" style="stop-color:#0078A4"/>
		<stop  offset="0.0808" style="stop-color:#1489B4"/>
		<stop  offset="0.226" style="stop-color:#30A1CB"/>
		<stop  offset="0.3813" style="stop-color:#47B4DE"/>
		<stop  offset="0.5495" style="stop-color:#57C2EB"/>
		<stop  offset="0.7399" style="stop-color:#60CAF3"/>
		<stop  offset="1" style="stop-color:#63CCF5"/>
	</radialGradient>
	<path fill="url(#SVGID_3_)" d="M445.148,105.794c-3.669,0-6.652-3.671-6.652-8.185c0-4.512,2.983-8.184,6.652-8.184h101.91
		c3.672,0,6.657,3.672,6.657,8.184c0,4.514-2.985,8.185-6.657,8.185H445.148z"/>
	<g>
		<linearGradient id="SVGID_4_" gradientUnits="userSpaceOnUse" x1="540.207" y1="90.916" x2="553.5958" y2="104.3048">
			<stop  offset="0" style="stop-color:#231F20"/>
			<stop  offset="0.0732" style="stop-color:#333E46"/>
			<stop  offset="0.2296" style="stop-color:#537D90"/>
			<stop  offset="0.3593" style="stop-color:#6AABC7"/>
			<stop  offset="0.4556" style="stop-color:#79C7E9"/>
			<stop  offset="0.5078" style="stop-color:#7ED2F6"/>
			<stop  offset="1" style="stop-color:#231F20"/>
		</linearGradient>
		<circle fill="url(#SVGID_4_)" cx="546.9" cy="97.609" r="9.467"/>
		<g>
			<g>
				<g>
					<defs>
						<path id="SVGID_5_" d="M546.902,97.611L546.902,97.611c7.985,0,5.381,0,8.972,0c0-7.927-9.526-10.637-14.187-7.301
							c-4.661,3.336-4.661,11.265,0,14.599c4.66,3.335,14.187,0.63,14.187-7.298C552.283,97.611,554.888,97.611,546.902,97.611z"/>
					</defs>
					<clipPath id="SVGID_6_">
						<use xlink:href="#SVGID_5_"  overflow="visible"/>
					</clipPath>
					<g clip-path="url(#SVGID_6_)">
						<image overflow="visible" width="20" height="19" xlink:href="D12E064.png"  transform="matrix(1 0 0 1 536.7852 88.1738)">
						</image>
					</g>
				</g>
			</g>
		</g>
	</g>
</g>
<linearGradient id="SVGID_7_" gradientUnits="userSpaceOnUse" x1="222.855" y1="107.0742" x2="222.855" y2="88.1465">
	<stop  offset="0.0052" style="stop-color:#6D6E70"/>
	<stop  offset="1" style="stop-color:#231F20"/>
</linearGradient>
<path fill="url(#SVGID_7_)" d="M171.899,107.074c-4.35,0-7.887-4.246-7.887-9.465c0-5.217,3.537-9.463,7.887-9.463h101.909
	c4.35,0,7.889,4.246,7.889,9.463c0,5.219-3.539,9.465-7.889,9.465H171.899z"/>
<linearGradient id="SVGID_8_" gradientUnits="userSpaceOnUse" x1="222.8555" y1="106.3223" x2="222.8555" y2="88.8975">
	<stop  offset="0.0052" style="stop-color:#6D6E70"/>
	<stop  offset="1" style="stop-color:#231F20"/>
</linearGradient>
<path fill="url(#SVGID_8_)" d="M273.809,88.897H171.899c-3.935,0-7.135,3.909-7.135,8.712c0,4.805,3.2,8.713,7.135,8.713h101.909
	c3.935,0,7.138-3.908,7.138-8.713C280.946,92.807,277.743,88.897,273.809,88.897z"/>
<radialGradient id="SVGID_9_" cx="264.5308" cy="85.7021" r="60.7814" gradientUnits="userSpaceOnUse">
	<stop  offset="0" style="stop-color:#0078A4"/>
	<stop  offset="0.0808" style="stop-color:#1489B4"/>
	<stop  offset="0.226" style="stop-color:#30A1CB"/>
	<stop  offset="0.3813" style="stop-color:#47B4DE"/>
	<stop  offset="0.5495" style="stop-color:#57C2EB"/>
	<stop  offset="0.7399" style="stop-color:#60CAF3"/>
	<stop  offset="1" style="stop-color:#63CCF5"/>
</radialGradient>
<path fill="url(#SVGID_9_)" d="M171.899,105.794c-3.669,0-6.654-3.671-6.654-8.185c0-4.512,2.985-8.184,6.654-8.184h101.909
	c3.671,0,6.658,3.672,6.658,8.184c0,4.514-2.987,8.185-6.658,8.185H171.899z"/>
<g>
	<linearGradient id="SVGID_10_" gradientUnits="userSpaceOnUse" x1="266.9561" y1="90.915" x2="280.3455" y2="104.3045">
		<stop  offset="0" style="stop-color:#231F20"/>
		<stop  offset="0.0732" style="stop-color:#333E46"/>
		<stop  offset="0.2296" style="stop-color:#537D90"/>
		<stop  offset="0.3593" style="stop-color:#6AABC7"/>
		<stop  offset="0.4556" style="stop-color:#79C7E9"/>
		<stop  offset="0.5078" style="stop-color:#7ED2F6"/>
		<stop  offset="1" style="stop-color:#231F20"/>
	</linearGradient>
	<circle fill="url(#SVGID_10_)" cx="273.65" cy="97.609" r="9.467"/>
	<g>
		<g>
			<g>
				<defs>
					<path id="SVGID_11_" d="M273.651,97.611L273.651,97.611c7.987,0,5.381,0,8.972,0c0-7.927-9.526-10.637-14.187-7.301
						c-4.661,3.336-4.661,11.265,0,14.599c4.66,3.335,14.187,0.63,14.187-7.298C279.032,97.611,281.639,97.611,273.651,97.611z"/>
				</defs>
				<clipPath id="SVGID_12_">
					<use xlink:href="#SVGID_11_"  overflow="visible"/>
				</clipPath>
				<g clip-path="url(#SVGID_12_)">
					<image overflow="visible" width="20" height="19" xlink:href="D12E065.png"  transform="matrix(1 0 0 1 263.7852 88.1738)">
					</image>
				</g>
			</g>
		</g>
	</g>
</g>
<g>
	<linearGradient id="SVGID_13_" gradientUnits="userSpaceOnUse" x1="488.7607" y1="52.5137" x2="488.7607" y2="17.3115">
		<stop  offset="0" style="stop-color:#404041"/>
		<stop  offset="0.3497" style="stop-color:#3D3C3D"/>
		<stop  offset="0.6944" style="stop-color:#323031"/>
		<stop  offset="1" style="stop-color:#231F20"/>
	</linearGradient>
	<path fill="url(#SVGID_13_)" d="M416.499,52.514c-9.704,0-17.601-7.895-17.601-17.602c0-9.705,7.896-17.601,17.601-17.601h144.521
		c9.707,0,17.603,7.896,17.603,17.601c0,9.707-7.896,17.602-17.603,17.602H416.499z"/>
	<linearGradient id="SVGID_14_" gradientUnits="userSpaceOnUse" x1="488.7607" y1="49.7012" x2="488.7607" y2="20.124">
		<stop  offset="0" style="stop-color:#231F20"/>
		<stop  offset="0.3056" style="stop-color:#323031"/>
		<stop  offset="0.6503" style="stop-color:#3D3C3D"/>
		<stop  offset="1" style="stop-color:#404041"/>
	</linearGradient>
	<path fill="url(#SVGID_14_)" d="M575.811,34.912c0,8.168-6.621,14.789-14.79,14.789H416.499c-8.167,0-14.788-6.621-14.788-14.789
		l0,0c0-8.167,6.621-14.788,14.788-14.788h144.521C569.189,20.124,575.811,26.745,575.811,34.912L575.811,34.912z"/>
	<linearGradient id="SVGID_15_" gradientUnits="userSpaceOnUse" x1="401.7109" y1="27.6582" x2="575.8105" y2="27.6582">
		<stop  offset="0" style="stop-color:#231F20"/>
		<stop  offset="0.0732" style="stop-color:#333E46"/>
		<stop  offset="0.2296" style="stop-color:#537D90"/>
		<stop  offset="0.3593" style="stop-color:#6AABC7"/>
		<stop  offset="0.4556" style="stop-color:#79C7E9"/>
		<stop  offset="0.5078" style="stop-color:#7ED2F6"/>
		<stop  offset="1" style="stop-color:#231F20"/>
	</linearGradient>
	<path fill="url(#SVGID_15_)" d="M416.499,20.686h144.521c8.073,0,14.626,6.47,14.775,14.507c0-0.093,0.015-0.186,0.015-0.28
		c0-8.167-6.621-14.788-14.79-14.788H416.499c-8.167,0-14.788,6.621-14.788,14.788c0,0.095,0.013,0.188,0.016,0.28
		C401.877,27.155,408.428,20.686,416.499,20.686z"/>
	
		<linearGradient id="SVGID_16_" gradientUnits="userSpaceOnUse" x1="401.7109" y1="705.5605" x2="575.8105" y2="705.5605" gradientTransform="matrix(1 0 0 -1 0 748.2871)">
		<stop  offset="0" style="stop-color:#231F20"/>
		<stop  offset="0.0732" style="stop-color:#333E46"/>
		<stop  offset="0.2296" style="stop-color:#537D90"/>
		<stop  offset="0.3593" style="stop-color:#6AABC7"/>
		<stop  offset="0.4556" style="stop-color:#79C7E9"/>
		<stop  offset="0.5078" style="stop-color:#7ED2F6"/>
		<stop  offset="1" style="stop-color:#231F20"/>
	</linearGradient>
	<path fill="url(#SVGID_16_)" d="M416.499,49.699h144.521c8.073,0,14.626-6.47,14.775-14.507c0,0.093,0.015,0.186,0.015,0.28
		c0,8.167-6.621,14.788-14.79,14.788H416.499c-8.167,0-14.788-6.621-14.788-14.788c0-0.095,0.013-0.188,0.016-0.28
		C401.877,43.229,408.428,49.699,416.499,49.699z"/>
</g>
<text transform="matrix(1 0 0 1 415.9551 40.0312)" fill="#6FCCF4" font-family="'Roadgeek2005SeriesD'" font-size="17.5">ALARM MODE</text>
<g>
	<text transform="matrix(1 0 0 1 536.2402 40.0312)" fill="#FAAF40" font-family="'Roadgeek2005SeriesD'" font-size="17.5">ON</text>
</g>
<g>
	<g>
		<circle fill="#1D1D1D" cx="293.83" cy="309.211" r="158.226"/>
		<g>
			<g>
				<g>
					<defs>
						<path id="SVGID_17_" d="M293.828,309.211L293.828,309.211c16.686,0,28.91,0,38.666,0c9.753,0,17.013,0,22.94,0
							c5.933,0,10.519,0,14.496,0c3.975,0,7.316,0,10.559,0s6.366,0,9.877,0c3.509,0,7.021,0,13.115,0c6.09,0,12.409,0,19.086,0
							c6.676,0,13.702,0,21.206,0c0-17.277-2.909-33.498-7.965-48.351c-5.058-14.851-12.263-28.34-21.004-40.255
							c-8.742-11.917-19.027-22.255-30.353-30.861c-11.326-8.604-23.7-15.475-36.732-20.496
							c-13.024-5.022-26.715-8.192-40.742-9.413c-14.027-1.214-28.336-0.415-41.547,2.121c-13.21,2.528-25.636,6.756-37.111,12.339
							c-11.479,5.59-22.016,12.534-31.464,20.556c-9.447,8.017-17.805,17.108-24.936,27.047
							c-7.133,9.938-13.033,20.726-17.556,32.149c-4.522,11.426-7.666,23.499-9.263,36.034c-1.601,12.534-1.601,25.722,0,38.26
							c1.597,12.535,4.74,24.609,9.263,36.034c4.522,11.423,10.423,22.217,17.556,32.154c7.131,9.938,15.488,19.027,24.94,27.042
							c9.443,8.018,19.98,14.962,31.459,20.546c11.476,5.583,23.896,9.811,37.111,12.346c13.208,2.531,27.518,3.339,41.547,2.121
							c14.022-1.223,27.718-4.392,40.742-9.412c13.032-5.021,25.406-11.89,36.732-20.496c11.325-8.605,21.604-18.941,30.347-30.859
							c8.741-11.915,15.952-25.406,21.01-40.257c5.056-14.852,7.965-31.063,7.965-48.349c-7.504,0-14.53,0-21.206,0
							c-6.677,0-12.996,0-19.086,0c-6.095,0-9.606,0-13.115,0c-3.511,0-6.635,0-9.877,0s-6.584,0-10.559,0
							c-3.978,0-8.563,0-14.499,0c-5.925,0-13.185,0-22.938,0C322.738,309.211,310.514,309.211,293.828,309.211z"/>
					</defs>
					<use xlink:href="#SVGID_17_"  overflow="visible" fill="#1D1D1D"/>
					<clipPath id="SVGID_18_">
						<use xlink:href="#SVGID_17_"  overflow="visible"/>
					</clipPath>
					<g clip-path="url(#SVGID_18_)">
						
							<image overflow="visible" width="300" height="300" xlink:href="D12E063.png"  transform="matrix(1 0 0 1 143.7852 159.1738)">
						</image>
					</g>
				</g>
			</g>
		</g>
	</g>
</g>
<line fill="none" stroke="#231F20" stroke-width="2.5" stroke-miterlimit="10" x1="163.738" y1="231.569" x2="260.537" y2="287.532"/>
<line fill="none" stroke="#231F20" stroke-width="2.5" stroke-miterlimit="10" x1="432.963" y1="233.082" x2="336.162" y2="289.045"/>
<path fill="#111111" d="M296.572,254.86c-29.78,0-54.006,24.235-54.006,54.019s24.226,54.006,54.006,54.006
	c29.783,0,54.006-24.223,54.006-54.006S326.355,254.86,296.572,254.86"/>
<line fill="none" stroke="#231F20" stroke-width="2.5" stroke-miterlimit="10" x1="299.839" y1="341.687" x2="299.839" y2="464.495"/>
<path fill="#FFFFFF" d="M296.572,258.493c-27.822,0-50.38,22.558-50.38,50.386c0,27.822,22.558,50.38,50.38,50.38
	s50.38-22.558,50.38-50.38C346.952,281.051,324.395,258.493,296.572,258.493 M296.924,355.205
	c-25.585,0-46.329-20.744-46.329-46.326c0-7.756,1.905-15.066,5.273-21.489c7.746-14.77,23.225-24.844,41.056-24.844
	c25.591,0,46.328,20.745,46.328,46.333C343.252,334.461,322.515,355.205,296.924,355.205"/>
<path fill="#FFFFFF" d="M317.84,287.621c-0.613-0.59-1.581-0.573-2.172,0.029c-0.591,0.604-0.574,1.56,0.023,2.15v-0.006
	c4.915,4.815,7.96,11.497,7.96,18.906c0,7.58-3.181,14.404-8.291,19.226c-0.615,0.579-0.645,1.547-0.059,2.162
	c0.3,0.319,0.708,0.472,1.109,0.472c0.378,0,0.757-0.129,1.049-0.412c5.696-5.365,9.261-12.998,9.249-21.447
	C326.721,300.447,323.312,292.969,317.84,287.621 M312.76,292.43c-0.613-0.584-1.577-0.562-2.162,0.059
	c-0.582,0.609-0.558,1.578,0.053,2.157c3.705,3.534,6.021,8.526,6.021,14.056c0,5.596-2.355,10.629-6.133,14.174
	c-0.617,0.573-0.648,1.542-0.07,2.162c0.308,0.32,0.705,0.484,1.115,0.484c0.374,0,0.751-0.141,1.047-0.426
	c4.371-4.093,7.098-9.93,7.098-16.395C319.729,302.303,317.05,296.525,312.76,292.43 M307.534,297.109
	c-0.635-0.555-1.603-0.496-2.159,0.13c-0.561,0.633-0.507,1.601,0.124,2.151c2.569,2.297,4.187,5.612,4.187,9.311
	c0,3.551-1.486,6.74-3.861,9.016c-0.609,0.574-0.631,1.543-0.053,2.156c0.301,0.314,0.699,0.473,1.104,0.473
	c0.385,0,0.769-0.141,1.06-0.42c2.958-2.816,4.808-6.811,4.808-11.225C312.743,304.093,310.723,299.952,307.534,297.109"/>
<path fill="#FFFFFF" d="M276.129,330.13c0.609,0.591,1.581,0.579,2.17-0.029c0.59-0.597,0.578-1.564-0.029-2.163v0.013
	c-4.908-4.809-7.957-11.492-7.957-18.906c0-7.581,3.188-14.398,8.296-19.219c0.614-0.579,0.641-1.55,0.062-2.162
	c-0.302-0.319-0.71-0.474-1.118-0.474c-0.371,0-0.756,0.129-1.049,0.408c-5.692,5.375-9.254,13.004-9.254,21.446
	C267.25,317.303,270.659,324.789,276.129,330.13 M281.209,325.315c0.609,0.591,1.579,0.562,2.158-0.054
	c0.582-0.609,0.559-1.578-0.055-2.156c-3.709-3.545-6.014-8.525-6.014-14.062c0-5.589,2.349-10.618,6.128-14.168
	c0.615-0.573,0.649-1.542,0.07-2.161c-0.305-0.32-0.709-0.48-1.116-0.48c-0.373,0-0.748,0.143-1.047,0.414
	c-4.365,4.101-7.095,9.938-7.095,16.396C274.239,315.441,276.915,321.232,281.209,325.315 M286.435,320.642
	c0.631,0.556,1.601,0.502,2.155-0.136c0.568-0.633,0.508-1.596-0.127-2.156c-2.566-2.287-4.184-5.589-4.184-9.306
	c0-3.545,1.486-6.729,3.861-9.011c0.615-0.578,0.633-1.547,0.059-2.156c-0.303-0.312-0.705-0.478-1.109-0.478
	c-0.385,0-0.763,0.141-1.059,0.425c-2.956,2.812-4.809,6.806-4.809,11.22C281.223,313.659,283.24,317.8,286.435,320.642"/>
<path fill="#FFFFFF" d="M305.292,308.879c0,4.591-3.716,8.301-8.312,8.301c-4.592,0-8.305-3.71-8.305-8.301s3.713-8.312,8.305-8.312
	C301.576,300.566,305.292,304.288,305.292,308.879"/>
<path fill="none" stroke="#231F20" stroke-width="2.5" stroke-miterlimit="10" d="M163.738,231.569"/>
<path fill="#7D7C80" d="M229.541,357.492l-0.045,0.148c-0.511,1.602-1.172,3.424-1.965,5.369c1.569,0.381,3.235-0.379,3.938-1.885
	c0.802-1.714,0.066-3.745-1.636-4.562C229.735,356.887,229.635,357.197,229.541,357.492"/>
<path fill="#7D7C80" d="M195.615,352.165c-0.117-0.071-0.238-0.151-0.371-0.208c-1.388-0.645-3.031-0.046-3.678,1.338
	c-0.641,1.389-0.044,3.034,1.338,3.68c0.129,0.063,0.264,0.112,0.405,0.151c-0.444,3.077,0.732,9.024,3.61,11.194
	c0.006,0.002,0.008,0.01,0.019,0.008c0.001,0.009,0.009,0.013,0.019,0.022c0.017,0.011,0.039,0.026,0.061,0.036
	c1.282,0.932,6.213,4.085,9.819,7.281c2.575,2.301,4.316,4.967,4.3,5.258c-0.005,0.028,0,0.053-0.002,0.076
	c-0.007,0.027-0.006,0.043-0.006,0.043c-0.09,1.358,0.977,2.002,0.977,2.002c2.049,0.964,3.328-0.783,5.076-3.545
	c1.631-2.564,4.18-7.522,5.967-11.355c1.788-3.83,3.272-7.539,4.193-10.43c0.988-3.12,2.064-6.777-0.01-7.671
	c-0.039-0.015-1.035-0.368-2.031,0.605l-0.002-0.003c0,0-0.005,0.007-0.021,0.025c-0.023,0.018-0.042,0.041-0.062,0.064
	c-0.21,0.195-3.382,0.581-6.813,0.079c-4.768-0.707-10.328-2.464-11.865-2.845c-0.023-0.01-0.052-0.011-0.072-0.014
	c-0.009-0.002-0.015-0.004-0.024-0.009c-0.009-0.004-0.013-0.005-0.023-0.001C202.909,347.139,197.696,349.854,195.615,352.165"/>
<path fill="#DC9728" d="M305.22,190.948c1.914,0,3.468,1.552,3.468,3.463c0,1.918-1.554,3.468-3.468,3.468s-3.463-1.55-3.463-3.468
	C301.757,192.5,303.306,190.948,305.22,190.948"/>
<path fill="#DC9728" d="M289.289,206.74c1.264,0,2.287,1.026,2.287,2.289c0,1.265-1.023,2.295-2.287,2.295
	c-1.266,0-2.291-1.03-2.291-2.295C286.998,207.767,288.023,206.74,289.289,206.74"/>
<path fill="#DC9728" d="M285.975,212.448h6.175c0.029,0,1.722-0.151,2.01-0.177c0.38-1.182,2.81-8.74,3.661-11.385
	c0.05-0.156,0.136-0.27,0.212-0.393c0.06-0.074,0.119-0.151,0.185-0.225c0.649-0.721,1.609-1.232,2.965-1.232h8.661
	c2.884,0,4.039,2.307,4.039,4.035v10.684c0,0.799-0.645,1.443-1.448,1.443c-0.795,0-1.437-0.645-1.437-1.443v-10.103h-1.154v26.846
	c0,1.113-0.905,2.021-2.022,2.021c-1.116,0-2.023-0.908-2.023-2.021v-15.3h-1.15v15.3c0,1.113-0.906,2.021-2.025,2.021
	c-1.117,0-2.021-0.908-2.021-2.021v-26.846h-0.634c-1.007,3.134-2.011,6.266-3.022,9.399c-0.153,0.484-0.485,0.771-0.859,0.9
	l0.011,0.013l-3.697,1.064v16.074c0,0.739-0.611,1.347-1.349,1.347c-0.743,0-1.347-0.607-1.347-1.347v-8.032h-1.057v8.032
	c0,0.739-0.598,1.347-1.343,1.347c-0.741,0-1.351-0.607-1.351-1.347v-15.019h-1.034v5.089c0,0.555-0.453,1.01-1.008,1.01
	c-0.551,0-0.987-0.455-0.987-1.01v-5.787C282.924,213.764,284.35,212.448,285.975,212.448"/>
<rect x="375.097" y="354.34" transform="matrix(0.5442 -0.839 0.839 0.5442 -129.7758 479.7228)" fill="#7D7C80" width="2.961" height="9.895"/>
<rect x="377.783" y="351.108" transform="matrix(0.545 -0.8385 0.8385 0.545 -126.226 479.5209)" fill="#7D7C80" width="1.79" height="9.893"/>
<rect x="379.74" y="348.69" transform="matrix(0.5446 -0.8387 0.8387 0.5446 -123.438 479.9283)" fill="#7D7C80" width="1.013" height="9.895"/>
<path fill="#7D7C80" d="M370.816,359.074l-3.249,5.004l-4.154-2.698c-0.274-0.178-0.64-0.175-0.919,0.017
	c-0.276,0.188-0.413,0.525-0.342,0.859l2.907,13.689c0.044,0.207,0.175,0.404,0.356,0.522c0.188,0.121,0.418,0.16,0.635,0.121
	l13.684-2.915c0.219-0.047,0.407-0.176,0.528-0.359c0.06-0.092,0.097-0.195,0.122-0.301c0.061-0.334-0.084-0.667-0.374-0.855
	l-4.146-2.691l3.25-5.003L370.816,359.074z"/>
<rect x="389.027" y="360.851" transform="matrix(-0.5444 0.8388 -0.8388 -0.5444 909.9424 237.3963)" fill="#7D7C80" width="2.956" height="9.891"/>
<rect x="387.507" y="364.086" transform="matrix(-0.5445 0.8388 -0.8388 -0.5445 909.4181 244.1849)" fill="#7D7C80" width="1.795" height="9.89"/>
<rect x="386.328" y="366.504" transform="matrix(-0.5442 0.8389 -0.8389 -0.5442 908.981 249.0616)" fill="#7D7C80" width="1.014" height="9.891"/>
<path fill="#7D7C80" d="M401.029,348.502l-13.687,2.914c-0.325,0.065-0.584,0.326-0.647,0.661c-0.056,0.327,0.084,0.667,0.367,0.851
	l4.152,2.697l-3.247,5l8.293,5.385l3.249-5l4.156,2.701c0.275,0.178,0.645,0.17,0.916-0.018c0.097-0.061,0.173-0.145,0.23-0.232
	c0.118-0.183,0.168-0.408,0.113-0.627l-2.909-13.691c-0.038-0.215-0.167-0.404-0.357-0.527
	C401.479,348.498,401.251,348.457,401.029,348.502"/>
<path fill="#121212" d="M36.475,11.59c-12.307,0-22.318,10.014-22.318,22.32c0,12.308,10.012,22.318,22.318,22.318
	S58.791,46.217,58.791,33.91C58.791,21.604,48.781,11.59,36.475,11.59z"/>
<g>
	<path fill="#FFFFFF" d="M36.475,13.089c-11.498,0-20.818,9.323-20.818,20.82s9.32,20.818,20.818,20.818
		c11.496,0,20.816-9.321,20.816-20.818C57.291,22.413,47.971,13.089,36.475,13.089z M36.62,53.054
		c-10.572,0-19.146-8.571-19.146-19.145c0-10.572,8.572-19.146,19.146-19.146c10.574,0,19.145,8.572,19.145,19.146
		C55.764,44.482,47.194,53.054,36.62,53.054z"/>
</g>
<path fill="#FFFFFF" d="M47.112,34.627c-3.566,0-6.457-2.889-6.457-6.451c0-1.636,0.612-3.12,1.615-4.26
	c-1.505-0.794-3.224-1.244-5.041-1.244c-5.988,0-10.843,4.854-10.843,10.842c0,5.981,4.854,10.835,10.843,10.835
	c5.633,0,10.26-4.297,10.788-9.792C47.721,34.598,47.422,34.627,47.112,34.627"/>
</svg>
