<?xml version="1.0" encoding="utf-8"?>
<!-- Generator: Adobe Illustrator 15.1.0, SVG Export Plug-In . SVG Version: 6.00 Build 0)  -->
<!DOCTYPE svg PUBLIC "-//W3C//DTD SVG 1.1//EN" "http://www.w3.org/Graphics/SVG/1.1/DTD/svg11.dtd">
<svg version="1.1"
	 id="svg2" xmlns:dc="http://purl.org/dc/elements/1.1/" sodipodi:docname="window.ai" xmlns:sodipodi="http://sodipodi.sourceforge.net/DTD/sodipodi-0.dtd" xmlns:cc="http://creativecommons.org/ns#" inkscape:version="0.48.2 r9819" xmlns:svg="http://www.w3.org/2000/svg" xmlns:rdf="http://www.w3.org/1999/02/22-rdf-syntax-ns#" xmlns:inkscape="http://www.inkscape.org/namespaces/inkscape"
	 xmlns="http://www.w3.org/2000/svg" xmlns:xlink="http://www.w3.org/1999/xlink" x="0px" y="0px" width="598.57px"
	 height="497.348px" viewBox="0 0 598.57 497.348" enable-background="new 0 0 598.57 497.348" xml:space="preserve">
<rect fill="#717272" width="598.57" height="497.35"/>
<path fill="#1D1D1D" d="M460.002,131.458h-0.627H139.521h-0.877H14.462v343.685c0,2.761,2.239,5,5,5h118.084h1.098h0.877h319.854
	h0.627h1.23h5.02h112.932c2.761,0,5-2.239,5-5V131.458H460.002z"/>
<path fill="#343434" d="M593.966,490.022c0,1.383-1.119,2.5-2.5,2.5H7.104c-1.381,0-2.5-1.117-2.5-2.5V7.865
	c0-1.381,1.119-2.5,2.5-2.5h584.361c1.381,0,2.5,1.119,2.5,2.5V490.022z"/>
<polygon fill="#1D1D1D" points="476.303,253.034 476.303,178.254 153.784,178.254 153.784,253.034 148.605,253.034 148.605,438.557 
	482.293,438.557 482.293,253.034 "/>
<g>
	<path fill="#FFFFFF" d="M42.82,155.254h-1.645l-1.855-7.526l-1.802,7.526h-1.646l-1.732-11.726h1.89l0.91,6.178l1.487-6.178h1.803
		l1.523,6.178l0.91-6.178h1.89L42.82,155.254z"/>
	<path fill="#FFFFFF" d="M52.41,155.254v-5.11h-4.271v5.11h-1.855v-11.726h1.855v4.725h4.271v-4.725h1.855v11.726H52.41z"/>
	<path fill="#FFFFFF" d="M57.064,155.254v-11.726h6.913v1.855h-5.058v2.87h3.413v1.891h-3.413v3.22h5.425v1.89H57.064z"/>
	<path fill="#FFFFFF" d="M72.29,155.254l-1.89-5.11h-2.223v5.11h-1.855v-11.726h3.868c0.91,0,1.522,0.087,2.1,0.367
		c1.033,0.49,1.768,1.733,1.768,2.923c0,1.243-0.735,2.468-1.82,2.958l2.065,5.478H72.29z M71.467,145.593
		c-0.315-0.175-0.455-0.21-1.068-0.21h-2.223v2.87h2.223c0.578,0,0.77-0.035,1.068-0.192c0.455-0.262,0.735-0.752,0.735-1.243
		C72.202,146.328,71.922,145.838,71.467,145.593z"/>
	<path fill="#FFFFFF" d="M76.278,155.254v-11.726h6.914v1.855h-5.058v2.87h3.413v1.891h-3.413v3.22h5.426v1.89H76.278z"/>
	<path fill="#FFFFFF" d="M89.403,155.254v-11.726h1.89v11.726H89.403z"/>
	<path fill="#FFFFFF" d="M100.096,154.554c-0.647,0.578-1.558,0.91-2.555,0.91c-2.013,0-3.483-1.19-4.271-2.975l1.768-0.648
		c0.49,1.103,1.4,1.733,2.503,1.733c1.085,0,1.82-0.752,1.82-1.733c0-1.558-1.82-1.82-3.343-2.433c-0.7-0.28-2.258-0.98-2.258-2.923
		c0-2.292,1.558-3.167,3.658-3.167c1.645,0,2.765,0.945,3.343,2.397l-1.645,0.49c0,0-0.42-0.998-1.733-1.033
		c-0.052,0-0.087,0-0.123,0c-0.805,0-1.68,0.315-1.68,1.243c0,0.035,0,0.087,0,0.123c0.158,2.17,5.671,0.735,5.671,5.338
		C101.251,152.944,100.831,153.889,100.096,154.554z"/>
	<path fill="#FFFFFF" d="M114.376,155.254v-6.791l-2.712,6.791l-2.713-6.791v6.791h-1.855v-11.726h1.855l2.713,6.581l2.712-6.581
		h1.855v11.726H114.376z"/>
	<path fill="#FFFFFF" d="M119.03,155.254v-11.726h6.913v1.855h-5.058v2.87h3.413v1.891h-3.413v3.22h5.425v1.89H119.03z"/>
	<path fill="#FFFFFF" d="M131.788,145.173v10.081h-1.855v-10.081h-2.678v-1.645h7.246v1.645H131.788z"/>
	<path fill="#FFFFFF" d="M143.146,155.254l-1.155-3.291h-3.658l-1.155,3.291H135.2l4.043-11.726h1.837l4.043,11.726H143.146z
		 M140.188,146.783l-1.208,3.29h2.345L140.188,146.783z"/>
	<path fill="#FFFFFF" d="M154.538,155.254h-1.645l-1.855-7.526l-1.802,7.526h-1.646l-1.732-11.726h1.89l0.91,6.178l1.487-6.178
		h1.803l1.523,6.178l0.91-6.178h1.89L154.538,155.254z"/>
	<path fill="#FFFFFF" d="M164.916,155.254l-1.155-3.291h-3.658l-1.155,3.291h-1.978l4.043-11.726h1.837l4.043,11.726H164.916z
		 M161.958,146.783l-1.208,3.29h2.345L161.958,146.783z"/>
	<path fill="#FFFFFF" d="M172.16,145.173v10.081h-1.855v-10.081h-2.678v-1.645h7.246v1.645H172.16z"/>
	<path fill="#FFFFFF" d="M180.805,155.464c-1.733,0-2.835-0.665-3.588-2.1c-0.525-1.033-0.857-2.521-0.857-3.991
		c0-1.855,0.49-3.71,1.312-4.743c0.7-0.858,1.68-1.312,3.01-1.312c1.768,0,2.87,0.752,3.658,2.397l-1.732,0.735
		c-0.647-0.998-1.033-1.243-1.925-1.243c-0.945,0-1.575,0.42-1.978,1.453c-0.298,0.7-0.455,1.715-0.455,2.712
		c0,1.278,0.28,2.556,0.735,3.291c0.42,0.613,0.945,0.91,1.768,0.91c0.788,0,1.365-0.42,1.82-1.365l1.768,0.665
		C183.64,154.589,182.485,155.464,180.805,155.464z"/>
	<path fill="#FFFFFF" d="M193.02,155.254v-5.11h-4.271v5.11h-1.855v-11.726h1.855v4.725h4.271v-4.725h1.855v11.726H193.02z"/>
	<path fill="#FFFFFF" d="M202.732,149.706c-0.612,0.525-0.735,0.735-0.91,1.277c-0.07,0.315-0.07,0.403-0.122,1.103h-1.715
		c0-0.612,0-0.735,0.035-0.945c0.035-0.7,0.245-1.19,0.577-1.61c0.158-0.21,0.368-0.455,1.19-1.155c0.7-0.612,0.98-1.103,0.98-1.768
		c0-1.067-0.7-1.715-1.803-1.715c-1.277,0-1.89,0.735-1.978,2.346h-1.89c0.035-1.12,0.245-1.82,0.7-2.468
		c0.735-0.963,1.803-1.488,3.255-1.488c2.135,0,3.57,1.348,3.57,3.255C204.623,147.798,204.255,148.428,202.732,149.706z
		 M200.842,153.276c0.578,0,1.068,0.49,1.068,1.12c0,0.577-0.49,1.067-1.068,1.067c-0.612,0-1.12-0.49-1.12-1.067
		C199.722,153.766,200.23,153.276,200.842,153.276z"/>
</g>
<polyline fill="#1D1D1D" points="14.462,131.458 14.462,62.78 584.064,62.78 584.064,130.208 14.234,130.208 "/>
<g>
	<path fill="#FFFFFF" d="M70.536,27.287v15.108h-2.78V27.287h-4.013v-2.466h10.859v2.466H70.536z"/>
	<path fill="#FFFFFF" d="M83.128,32.585c-0.577-0.419-0.997-0.734-1.679-0.734c-1.6,0-1.784,0.918-1.784,2.518v8.026h-2.833V29.569
		h2.833v0.629c0.682-0.629,0.997-0.944,1.967-0.944c0.997,0,1.417,0.367,1.862,0.866L83.128,32.585z"/>
	<path fill="#FFFFFF" d="M92.074,42.396v-0.367c-0.446,0.367-1.547,0.551-2.544,0.551c-2.57,0-4.8-1.652-4.8-4.748
		c0-2.754,2.465-4.17,4.931-4.17c0.761,0,1.547,0.131,2.229,0.419c0-0.21-0.052-2.046-1.915-2.229
		c-0.157-0.026-0.288-0.026-0.446-0.026c-1.574,0-2.807,1.128-3.147,1.626l-0.787-2.702c1.207-0.971,2.781-1.469,4.302-1.469
		c2.544,0,4.879,1.416,4.879,4.538v8.577H92.074z M91.942,36.599c-0.551-0.236-1.495-0.524-2.387-0.524
		c-1.075,0-2.046,0.419-2.046,1.81c0,1.758,1.049,2.256,2.151,2.256c0.892,0,1.81-0.341,2.282-0.577V36.599z"/>
	<path fill="#FFFFFF" d="M102.725,42.631c-4.433,0-5.351-3.383-5.351-6.715c0-2.833,0.918-6.662,5.351-6.662
		c2.781,0,4.276,1.364,4.879,3.226l-2.833,0.971c-0.314-1.049-0.918-1.6-2.046-1.6c-2.151,0-2.518,2.78-2.518,4.065
		c0,1.312,0.367,4.145,2.518,4.145c1.443,0,2.046-1.128,2.229-2.413l2.833,0.734C107.289,40.665,105.952,42.631,102.725,42.631z"/>
	<path fill="#FFFFFF" d="M118.203,42.396l-3.698-7.213l-1.6,1.653v5.561h-2.833V25.871l2.833-1.364v8.761l3.515-3.698h3.567
		l-3.384,3.515l4.8,9.312H118.203z"/>
	<path fill="#FFFFFF" d="M124.92,27.418c-0.787,0-1.469-0.63-1.469-1.417c0-0.813,0.682-1.495,1.469-1.495
		c0.813,0,1.495,0.682,1.495,1.495C126.415,26.789,125.733,27.418,124.92,27.418z M123.582,42.396V29.569h2.754v12.826H123.582z"/>
	<path fill="#FFFFFF" d="M137.432,42.396v-8.499c0-1.679-1.102-2.046-2.597-2.046c-1.102,0.052-2.151,0.682-2.151,2.151v8.394
		h-2.833V29.569h2.781v0.419c0.839-0.524,1.81-0.787,2.78-0.787c2.413,0,4.8,1.574,4.8,4.38v8.813H137.432z"/>
	<path fill="#FFFFFF" d="M142.864,36.101c0-0.053,0-0.105,0-0.184c0.052-3.226,1.075-6.688,4.774-6.688c0.184,0,0.367,0,0.577,0.026
		c0.866,0.079,2.099,0.446,2.414,0.734v-0.419h2.78v11.174c0,0.367,0.026,0.892,0.026,1.521c0,2.361-0.551,6.007-5.875,6.531
		l-1.364-2.072c1.6-0.394,4.433-0.997,4.433-3.148v-1.547c-0.787,0.499-1.469,0.682-2.466,0.682
		C144.333,42.71,142.864,39.667,142.864,36.101z M148.214,40.113c0.079,0,0.158,0,0.263,0c0.839,0,1.469-0.236,2.098-0.865v-6.479
		c-0.734-0.734-1.364-0.918-2.151-0.918c-2.098,0.052-2.728,2.072-2.728,3.856c0,0.079,0,0.131,0,0.209
		C145.749,37.7,146.326,40.061,148.214,40.113z"/>
	<path fill="#FFFFFF" d="M174.054,42.396V32.218l-4.065,10.177l-4.065-10.177v10.177h-2.78V24.821h2.78l4.065,9.863l4.065-9.863
		h2.781v17.574H174.054z"/>
	<path fill="#FFFFFF" d="M182.87,37.149c0.131,1.417,0.682,2.912,2.413,2.912c1.18,0,2.098-0.682,2.413-1.81l2.282,1.443
		c-0.735,1.652-2.099,2.938-4.695,2.938c-4.433,0-5.298-3.383-5.298-6.715c0-2.833,0.865-6.662,5.298-6.662
		c4.59,0,5.115,3.908,5.115,7.003c0,0.314,0,0.603,0,0.892H182.87z M185.283,31.851c-2.151,0-2.466,1.417-2.466,2.702h4.8
		C187.618,33.32,187.381,31.851,185.283,31.851z"/>
	<path fill="#FFFFFF" d="M197.875,42.081c-0.944,0.446-1.417,0.551-2.098,0.551c-0.079,0-0.158,0-0.236,0
		c-1.862,0-2.413-1.547-2.413-3.331v-7.134h-1.862v-2.597h1.862v-3.699l2.702-1.364v5.062h2.229v2.518h-2.229v6.793
		c0,0.865,0.131,1.232,0.918,1.232c0.629,0,0.944-0.184,1.495-0.603L197.875,42.081z"/>
	<path fill="#FFFFFF" d="M206.637,42.396v-0.367c-0.446,0.367-1.547,0.551-2.544,0.551c-2.57,0-4.8-1.652-4.8-4.748
		c0-2.754,2.465-4.17,4.931-4.17c0.761,0,1.547,0.131,2.229,0.419c0-0.21-0.052-2.046-1.915-2.229
		c-0.157-0.026-0.288-0.026-0.446-0.026c-1.574,0-2.807,1.128-3.147,1.626l-0.787-2.702c1.207-0.971,2.781-1.469,4.302-1.469
		c2.544,0,4.879,1.416,4.879,4.538v8.577H206.637z M206.506,36.599c-0.551-0.236-1.495-0.524-2.387-0.524
		c-1.075,0-2.046,0.419-2.046,1.81c0,1.758,1.049,2.256,2.151,2.256c0.892,0,1.81-0.341,2.282-0.577V36.599z"/>
	<path fill="#FFFFFF" d="M224.45,42.396h-2.466l-2.78-11.279l-2.702,11.279h-2.466l-2.597-17.574h2.833l1.364,9.259l2.229-9.259
		h2.702l2.282,9.259l1.364-9.259h2.833L224.45,42.396z"/>
	<path fill="#FFFFFF" d="M235.757,42.396v-0.367c-0.446,0.367-1.547,0.551-2.544,0.551c-2.57,0-4.8-1.652-4.8-4.748
		c0-2.754,2.465-4.17,4.931-4.17c0.761,0,1.547,0.131,2.229,0.419c0-0.21-0.052-2.046-1.915-2.229
		c-0.157-0.026-0.288-0.026-0.446-0.026c-1.574,0-2.807,1.128-3.147,1.626l-0.787-2.702c1.207-0.971,2.781-1.469,4.302-1.469
		c2.544,0,4.879,1.416,4.879,4.538v8.577H235.757z M235.626,36.599c-0.551-0.236-1.495-0.524-2.387-0.524
		c-1.075,0-2.046,0.419-2.046,1.81c0,1.758,1.049,2.256,2.151,2.256c0.892,0,1.81-0.341,2.282-0.577V36.599z"/>
	<path fill="#FFFFFF" d="M246.802,42.081c-0.944,0.446-1.417,0.551-2.098,0.551c-0.079,0-0.158,0-0.236,0
		c-1.862,0-2.413-1.547-2.413-3.331v-7.134h-1.862v-2.597h1.862v-3.699l2.702-1.364v5.062h2.229v2.518h-2.229v6.793
		c0,0.865,0.131,1.232,0.918,1.232c0.63,0,0.944-0.184,1.495-0.603L246.802,42.081z"/>
	<path fill="#FFFFFF" d="M253.754,42.631c-4.433,0-5.351-3.383-5.351-6.715c0-2.833,0.918-6.662,5.351-6.662
		c2.781,0,4.276,1.364,4.879,3.226l-2.833,0.971c-0.314-1.049-0.918-1.6-2.046-1.6c-2.151,0-2.518,2.78-2.518,4.065
		c0,1.312,0.367,4.145,2.518,4.145c1.443,0,2.046-1.128,2.229-2.413l2.833,0.734C258.318,40.665,256.98,42.631,253.754,42.631z"/>
	<path fill="#FFFFFF" d="M268.681,42.396v-8.499c0-1.679-1.102-2.046-2.597-2.046c-1.102,0.052-2.151,0.682-2.151,2.151v8.394H261.1
		V25.871l2.781-1.364v5.482c0.839-0.524,1.81-0.787,2.78-0.787c2.413,0,4.8,1.574,4.8,4.38v8.813H268.681z"/>
</g>
<path fill="none" stroke="#FFFFFF" stroke-width="1.25" stroke-miterlimit="10" d="M62.681,152.62"/>
<g>
	<path fill="#FFFFFF" d="M38.87,101.913c-0.438,0.42-1.068,0.63-1.68,0.665c-0.123,0-0.368,0-0.665,0h-3.57V90.852h3.78
		c1.19,0,1.645,0.123,2.275,0.612c1.225,1.068,1.925,2.923,1.925,5.233C40.935,99.043,40.2,100.898,38.87,101.913z M38.1,93.197
		c-0.298-0.28-0.7-0.49-1.19-0.49h-2.1v7.981h1.855c0.613,0,0.98-0.123,1.313-0.455c0.7-0.7,1.067-1.978,1.067-3.536
		C39.044,95.123,38.677,93.81,38.1,93.197z"/>
	<path fill="#FFFFFF" d="M43.488,102.578V90.852h6.914v1.855h-5.058v2.87h3.413v1.891h-3.413v3.22h5.426v1.89H43.488z"/>
	<path fill="#FFFFFF" d="M56.859,102.578h-1.435l-3.71-11.726h1.942l2.503,7.823l2.468-7.823h1.978L56.859,102.578z"/>
	<path fill="#FFFFFF" d="M62.336,102.578V90.852h1.89v11.726H62.336z"/>
	<path fill="#FFFFFF" d="M71.226,102.788c-1.733,0-2.835-0.665-3.588-2.1c-0.525-1.033-0.857-2.521-0.857-3.991
		c0-1.855,0.49-3.71,1.312-4.743c0.7-0.858,1.68-1.312,3.01-1.312c1.768,0,2.87,0.752,3.658,2.397l-1.732,0.735
		c-0.647-0.998-1.033-1.243-1.925-1.243c-0.945,0-1.575,0.42-1.978,1.453c-0.298,0.7-0.455,1.715-0.455,2.712
		c0,1.278,0.28,2.556,0.735,3.291c0.42,0.613,0.945,0.91,1.768,0.91c0.788,0,1.365-0.42,1.82-1.365l1.768,0.665
		C74.062,101.913,72.906,102.788,71.226,102.788z"/>
	<path fill="#FFFFFF" d="M77.315,102.578V90.852h6.914v1.855h-5.058v2.87h3.413v1.891h-3.413v3.22h5.426v1.89H77.315z"/>
	<path fill="#FFFFFF" d="M96.443,101.878c-0.647,0.578-1.558,0.91-2.555,0.91c-2.013,0-3.483-1.19-4.271-2.975l1.768-0.648
		c0.49,1.103,1.4,1.733,2.503,1.733c1.085,0,1.82-0.752,1.82-1.733c0-1.558-1.82-1.82-3.343-2.433c-0.7-0.28-2.258-0.98-2.258-2.923
		c0-2.292,1.558-3.167,3.658-3.167c1.645,0,2.765,0.945,3.343,2.397l-1.645,0.49c0,0-0.42-0.998-1.733-1.033
		c-0.052,0-0.087,0-0.123,0c-0.805,0-1.68,0.315-1.68,1.243c0,0.035,0,0.087,0,0.123c0.158,2.17,5.671,0.735,5.671,5.338
		C97.599,100.268,97.178,101.213,96.443,101.878z"/>
	<path fill="#FFFFFF" d="M103.075,92.497v10.081h-1.855V92.497h-2.678v-1.645h7.246v1.645H103.075z"/>
	<path fill="#FFFFFF" d="M114.433,102.578l-1.155-3.291h-3.658l-1.155,3.291h-1.978l4.043-11.726h1.837l4.043,11.726H114.433z
		 M111.475,94.107l-1.208,3.29h2.345L111.475,94.107z"/>
	<path fill="#FFFFFF" d="M121.678,92.497v10.081h-1.855V92.497h-2.678v-1.645h7.246v1.645H121.678z"/>
	<path fill="#FFFFFF" d="M133.561,100.811c-0.612,1.155-2.013,1.978-3.448,1.978s-2.835-0.823-3.465-1.978
		c-0.315-0.7-0.525-1.523-0.525-2.433v-7.526h1.855v7.526c0,1.522,0.857,2.52,2.135,2.52c1.277,0,2.135-0.998,2.135-2.52v-7.526
		h1.855v7.526C134.103,99.288,133.893,100.11,133.561,100.811z"/>
	<path fill="#FFFFFF" d="M142.905,101.878c-0.647,0.578-1.558,0.91-2.555,0.91c-2.013,0-3.483-1.19-4.271-2.975l1.768-0.648
		c0.49,1.103,1.4,1.733,2.503,1.733c1.085,0,1.82-0.752,1.82-1.733c0-1.558-1.82-1.82-3.343-2.433c-0.7-0.28-2.258-0.98-2.258-2.923
		c0-2.292,1.558-3.167,3.658-3.167c1.645,0,2.765,0.945,3.343,2.397l-1.645,0.49c0,0-0.42-0.998-1.733-1.033
		c-0.052,0-0.087,0-0.123,0c-0.805,0-1.68,0.315-1.68,1.243c0,0.035,0,0.087,0,0.123c0.158,2.17,5.671,0.735,5.671,5.338
		C144.061,100.268,143.64,101.213,142.905,101.878z"/>
</g>
<g>
	<path fill="#FFFFFF" d="M377.713,97.065c-0.542,0.245-1.242,0.403-2.152,0.403h-2.171v5.11h-1.854V90.852h4.025
		c0.945,0,1.575,0.087,2.152,0.367c1.016,0.49,1.803,1.733,1.803,2.923C379.516,95.385,378.729,96.61,377.713,97.065z
		 M376.926,92.917c-0.333-0.175-0.543-0.21-1.12-0.21h-2.416v2.87h2.416c0.577,0,0.787-0.035,1.12-0.192
		c0.402-0.21,0.7-0.752,0.7-1.243C377.626,93.652,377.328,93.162,376.926,92.917z"/>
	<path fill="#FFFFFF" d="M388.037,101.476c-0.665,0.893-1.609,1.312-2.835,1.312c-1.646,0-2.678-0.665-3.378-2.1
		c-0.49-0.998-0.822-2.555-0.822-3.956c0-1.925,0.49-3.658,1.277-4.778c0.7-0.893,1.646-1.312,2.993-1.312
		c1.487,0,2.521,0.665,3.255,2.1c0.49,1.033,0.788,2.52,0.788,3.99C389.315,98.588,388.86,100.443,388.037,101.476z M386.76,93.442
		c-0.367-0.613-0.822-0.858-1.522-0.91c-0.035,0-0.07,0-0.105,0c-0.84,0-1.399,0.455-1.785,1.453
		c-0.297,0.7-0.455,1.768-0.455,2.748c0,1.243,0.245,2.521,0.7,3.255c0.368,0.613,0.857,0.91,1.61,0.91
		c0.857,0,1.4-0.455,1.803-1.488c0.245-0.612,0.455-1.768,0.455-2.678C387.46,95.42,387.215,94.23,386.76,93.442z"/>
	<path fill="#FFFFFF" d="M399.554,102.578h-1.646l-1.855-7.526l-1.803,7.526h-1.645l-1.733-11.726h1.891l0.91,6.178l1.487-6.178
		h1.803l1.522,6.178l0.91-6.178h1.891L399.554,102.578z"/>
	<path fill="#FFFFFF" d="M403.018,102.578V90.852h6.913v1.855h-5.059v2.87h3.413v1.891h-3.413v3.22h5.426v1.89H403.018z"/>
	<path fill="#FFFFFF" d="M418.242,102.578l-1.89-5.11h-2.224v5.11h-1.854V90.852h3.867c0.91,0,1.523,0.087,2.101,0.367
		c1.033,0.49,1.768,1.733,1.768,2.923c0,1.243-0.734,2.468-1.82,2.958l2.065,5.478H418.242z M417.42,92.917
		c-0.315-0.175-0.455-0.21-1.067-0.21h-2.224v2.87h2.224c0.577,0,0.77-0.035,1.067-0.192c0.455-0.262,0.734-0.752,0.734-1.243
		C418.154,93.652,417.875,93.162,417.42,92.917z"/>
</g>
<g>
	<linearGradient id="SVGID_1_" gradientUnits="userSpaceOnUse" x1="496.1055" y1="107.0762" x2="496.1055" y2="88.1475">
		<stop  offset="0.0052" style="stop-color:#6D6E70"/>
		<stop  offset="1" style="stop-color:#231F20"/>
	</linearGradient>
	<path fill="url(#SVGID_1_)" d="M445.148,107.076c-4.348,0-7.885-4.247-7.885-9.466c0-5.217,3.537-9.463,7.885-9.463h101.91
		c4.35,0,7.888,4.246,7.888,9.463c0,5.219-3.538,9.466-7.888,9.466H445.148z"/>
	<linearGradient id="SVGID_2_" gradientUnits="userSpaceOnUse" x1="496.1064" y1="106.3242" x2="496.1064" y2="88.8984">
		<stop  offset="0.0052" style="stop-color:#6D6E70"/>
		<stop  offset="1" style="stop-color:#231F20"/>
	</linearGradient>
	<path fill="url(#SVGID_2_)" d="M547.059,88.898h-101.91c-3.933,0-7.133,3.91-7.133,8.712c0,4.805,3.2,8.714,7.133,8.714h101.91
		c3.936,0,7.139-3.909,7.139-8.714C554.197,92.809,550.994,88.898,547.059,88.898z"/>
	<radialGradient id="SVGID_3_" cx="537.7793" cy="85.7031" r="60.7839" gradientUnits="userSpaceOnUse">
		<stop  offset="0" style="stop-color:#0078A4"/>
		<stop  offset="0.0808" style="stop-color:#1489B4"/>
		<stop  offset="0.226" style="stop-color:#30A1CB"/>
		<stop  offset="0.3813" style="stop-color:#47B4DE"/>
		<stop  offset="0.5495" style="stop-color:#57C2EB"/>
		<stop  offset="0.7399" style="stop-color:#60CAF3"/>
		<stop  offset="1" style="stop-color:#63CCF5"/>
	</radialGradient>
	<path fill="url(#SVGID_3_)" d="M445.148,105.796c-3.669,0-6.652-3.671-6.652-8.186c0-4.512,2.983-8.184,6.652-8.184h101.91
		c3.672,0,6.657,3.672,6.657,8.184c0,4.515-2.985,8.186-6.657,8.186H445.148z"/>
	<g>
		<linearGradient id="SVGID_4_" gradientUnits="userSpaceOnUse" x1="540.2061" y1="90.917" x2="553.5955" y2="104.3064">
			<stop  offset="0" style="stop-color:#231F20"/>
			<stop  offset="0.0732" style="stop-color:#333E46"/>
			<stop  offset="0.2296" style="stop-color:#537D90"/>
			<stop  offset="0.3593" style="stop-color:#6AABC7"/>
			<stop  offset="0.4556" style="stop-color:#79C7E9"/>
			<stop  offset="0.5078" style="stop-color:#7ED2F6"/>
			<stop  offset="1" style="stop-color:#231F20"/>
		</linearGradient>
		<circle fill="url(#SVGID_4_)" cx="546.9" cy="97.61" r="9.467"/>
		<g>
			<g>
				<g>
					<defs>
						<path id="SVGID_5_" d="M546.902,97.613L546.902,97.613c7.985,0,5.381,0,8.972,0c0-7.927-9.526-10.638-14.187-7.301
							c-4.661,3.336-4.661,11.265,0,14.599c4.66,3.334,14.187,0.629,14.187-7.298C552.283,97.613,554.888,97.613,546.902,97.613z"/>
					</defs>
					<clipPath id="SVGID_6_">
						<use xlink:href="#SVGID_5_"  overflow="visible"/>
					</clipPath>
					<g clip-path="url(#SVGID_6_)">
						<image overflow="visible" width="20" height="19" xlink:href="2D3B0933.png"  transform="matrix(1 0 0 1 536.7852 88.1738)">
						</image>
					</g>
				</g>
			</g>
		</g>
	</g>
</g>
<linearGradient id="SVGID_7_" gradientUnits="userSpaceOnUse" x1="222.855" y1="107.0762" x2="222.855" y2="88.1475">
	<stop  offset="0.0052" style="stop-color:#6D6E70"/>
	<stop  offset="1" style="stop-color:#231F20"/>
</linearGradient>
<path fill="url(#SVGID_7_)" d="M171.899,107.076c-4.35,0-7.887-4.247-7.887-9.466c0-5.217,3.537-9.463,7.887-9.463h101.909
	c4.35,0,7.889,4.246,7.889,9.463c0,5.219-3.539,9.466-7.889,9.466H171.899z"/>
<linearGradient id="SVGID_8_" gradientUnits="userSpaceOnUse" x1="222.8555" y1="106.3242" x2="222.8555" y2="88.8984">
	<stop  offset="0.0052" style="stop-color:#6D6E70"/>
	<stop  offset="1" style="stop-color:#231F20"/>
</linearGradient>
<path fill="url(#SVGID_8_)" d="M273.809,88.898H171.899c-3.935,0-7.135,3.91-7.135,8.712c0,4.805,3.2,8.714,7.135,8.714h101.909
	c3.935,0,7.138-3.909,7.138-8.714C280.946,92.809,277.743,88.898,273.809,88.898z"/>
<radialGradient id="SVGID_9_" cx="264.5308" cy="85.7031" r="60.7832" gradientUnits="userSpaceOnUse">
	<stop  offset="0" style="stop-color:#0078A4"/>
	<stop  offset="0.0808" style="stop-color:#1489B4"/>
	<stop  offset="0.226" style="stop-color:#30A1CB"/>
	<stop  offset="0.3813" style="stop-color:#47B4DE"/>
	<stop  offset="0.5495" style="stop-color:#57C2EB"/>
	<stop  offset="0.7399" style="stop-color:#60CAF3"/>
	<stop  offset="1" style="stop-color:#63CCF5"/>
</radialGradient>
<path fill="url(#SVGID_9_)" d="M171.899,105.796c-3.669,0-6.654-3.671-6.654-8.186c0-4.512,2.985-8.184,6.654-8.184h101.909
	c3.671,0,6.658,3.672,6.658,8.184c0,4.515-2.987,8.186-6.658,8.186H171.899z"/>
<g>
	<linearGradient id="SVGID_10_" gradientUnits="userSpaceOnUse" x1="266.9565" y1="90.9175" x2="280.346" y2="104.3069">
		<stop  offset="0" style="stop-color:#231F20"/>
		<stop  offset="0.0732" style="stop-color:#333E46"/>
		<stop  offset="0.2296" style="stop-color:#537D90"/>
		<stop  offset="0.3593" style="stop-color:#6AABC7"/>
		<stop  offset="0.4556" style="stop-color:#79C7E9"/>
		<stop  offset="0.5078" style="stop-color:#7ED2F6"/>
		<stop  offset="1" style="stop-color:#231F20"/>
	</linearGradient>
	<circle fill="url(#SVGID_10_)" cx="273.65" cy="97.61" r="9.467"/>
	<g>
		<g>
			<g>
				<defs>
					<path id="SVGID_11_" d="M273.651,97.613L273.651,97.613c7.987,0,5.381,0,8.972,0c0-7.927-9.526-10.638-14.187-7.301
						c-4.661,3.336-4.661,11.265,0,14.599c4.66,3.334,14.187,0.629,14.187-7.298C279.032,97.613,281.639,97.613,273.651,97.613z"/>
				</defs>
				<clipPath id="SVGID_12_">
					<use xlink:href="#SVGID_11_"  overflow="visible"/>
				</clipPath>
				<g clip-path="url(#SVGID_12_)">
					<image overflow="visible" width="20" height="19" xlink:href="2D3B0931.png"  transform="matrix(1 0 0 1 263.7852 88.1738)">
					</image>
				</g>
			</g>
		</g>
	</g>
</g>
<g>
	<linearGradient id="SVGID_13_" gradientUnits="userSpaceOnUse" x1="529.9648" y1="44.3486" x2="529.9648" y2="25.4199">
		<stop  offset="0.0052" style="stop-color:#6D6E70"/>
		<stop  offset="1" style="stop-color:#231F20"/>
	</linearGradient>
	<path fill="url(#SVGID_13_)" d="M514.486,44.349c-4.35,0-7.889-4.247-7.889-9.466c0-5.217,3.539-9.463,7.889-9.463h30.959
		c4.35,0,7.887,4.246,7.887,9.463c0,5.219-3.537,9.466-7.887,9.466H514.486z"/>
	
		<linearGradient id="SVGID_14_" gradientUnits="userSpaceOnUse" x1="1420.0781" y1="43.5967" x2="1420.0781" y2="26.1709" gradientTransform="matrix(-1 0 0 1 1950.043 0)">
		<stop  offset="0.0052" style="stop-color:#6D6E70"/>
		<stop  offset="1" style="stop-color:#231F20"/>
	</linearGradient>
	<path fill="url(#SVGID_14_)" d="M514.486,26.171h30.959c3.935,0,7.135,3.91,7.135,8.712c0,4.805-3.2,8.714-7.135,8.714h-30.959
		c-3.935,0-7.138-3.909-7.138-8.714C507.349,30.081,510.552,26.171,514.486,26.171z"/>
	
		<linearGradient id="SVGID_15_" gradientUnits="userSpaceOnUse" x1="1420.0791" y1="43.0684" x2="1420.0791" y2="26.6992" gradientTransform="matrix(-1 0 0 1 1950.043 0)">
		<stop  offset="0" style="stop-color:#231F20"/>
		<stop  offset="0.9948" style="stop-color:#6D6E70"/>
	</linearGradient>
	<path fill="url(#SVGID_15_)" d="M545.445,43.068c3.67,0,6.654-3.671,6.654-8.186c0-4.512-2.984-8.184-6.654-8.184h-30.959
		c-3.671,0-6.658,3.672-6.658,8.184c0,4.515,2.987,8.186,6.658,8.186H545.445z"/>
	<g>
		
			<linearGradient id="SVGID_16_" gradientUnits="userSpaceOnUse" x1="1428.7051" y1="28.189" x2="1442.0945" y2="41.5784" gradientTransform="matrix(-1 0 0 1 1950.043 0)">
			<stop  offset="0" style="stop-color:#231F20"/>
			<stop  offset="0.0732" style="stop-color:#333E46"/>
			<stop  offset="0.2296" style="stop-color:#537D90"/>
			<stop  offset="0.3593" style="stop-color:#6AABC7"/>
			<stop  offset="0.4556" style="stop-color:#79C7E9"/>
			<stop  offset="0.5078" style="stop-color:#7ED2F6"/>
			<stop  offset="1" style="stop-color:#231F20"/>
		</linearGradient>
		<circle fill="url(#SVGID_16_)" cx="514.644" cy="34.883" r="9.467"/>
		<g>
			<g>
				<g>
					<defs>
						<path id="SVGID_17_" d="M514.644,34.881L514.644,34.881c-7.987,0-5.386,0-8.97,0c0-7.926,9.523-10.636,14.185-7.3
							s4.661,11.265,0,14.6c-4.661,3.334-14.185,0.63-14.185-7.3C509.258,34.881,506.656,34.881,514.644,34.881z"/>
					</defs>
					<clipPath id="SVGID_18_">
						<use xlink:href="#SVGID_17_"  overflow="visible"/>
					</clipPath>
					<g clip-path="url(#SVGID_18_)">
						<image overflow="visible" width="20" height="19" xlink:href="2D3B0937.png"  transform="matrix(1 0 0 1 504.7852 25.1738)">
						</image>
					</g>
				</g>
			</g>
		</g>
	</g>
</g>
<g>
	<path fill="#787878" d="M488.344,37.247c-0.475,0.637-1.149,0.937-2.024,0.937c-1.175,0-1.912-0.475-2.412-1.5
		c-0.35-0.712-0.587-1.825-0.587-2.824c0-1.375,0.35-2.612,0.912-3.412c0.5-0.638,1.175-0.938,2.137-0.938
		c1.062,0,1.8,0.475,2.324,1.5c0.351,0.737,0.562,1.8,0.562,2.85C489.256,35.185,488.931,36.51,488.344,37.247z M487.432,31.511
		c-0.263-0.438-0.588-0.612-1.088-0.65c-0.024,0-0.05,0-0.074,0c-0.601,0-1,0.325-1.275,1.037c-0.212,0.5-0.324,1.262-0.324,1.962
		c0,0.887,0.175,1.799,0.5,2.324c0.262,0.438,0.612,0.65,1.149,0.65c0.612,0,1-0.325,1.287-1.062
		c0.175-0.438,0.325-1.262,0.325-1.912C487.932,32.923,487.756,32.073,487.432,31.511z"/>
	<path fill="#787878" d="M495.631,38.034l-3.199-5.674v5.674h-1.324v-8.373h1.324l3.05,5.349v-5.349h1.324v8.373H495.631z"/>
</g>
<g>
	<path fill="#787878" d="M563.64,37.247c-0.475,0.637-1.149,0.937-2.024,0.937c-1.175,0-1.912-0.475-2.412-1.5
		c-0.35-0.712-0.587-1.825-0.587-2.824c0-1.375,0.35-2.612,0.912-3.412c0.5-0.638,1.175-0.938,2.137-0.938
		c1.062,0,1.8,0.475,2.324,1.5c0.351,0.737,0.562,1.8,0.562,2.85C564.552,35.185,564.227,36.51,563.64,37.247z M562.728,31.511
		c-0.263-0.438-0.588-0.612-1.088-0.65c-0.024,0-0.05,0-0.074,0c-0.601,0-1,0.325-1.275,1.037c-0.212,0.5-0.324,1.262-0.324,1.962
		c0,0.887,0.175,1.799,0.5,2.324c0.262,0.438,0.612,0.65,1.149,0.65c0.612,0,1-0.325,1.287-1.062
		c0.175-0.438,0.325-1.262,0.325-1.912C563.228,32.923,563.052,32.073,562.728,31.511z"/>
	<path fill="#787878" d="M567.728,30.986v2.049h2.438v1.35h-2.438v3.649h-1.324v-8.373h5.198v1.325H567.728z"/>
	<path fill="#787878" d="M574.165,30.986v2.049h2.438v1.35h-2.438v3.649h-1.324v-8.373h5.198v1.325H574.165z"/>
</g>
<path fill="#111111" d="M36.446,12.081c-12.307,0-22.319,10.014-22.319,22.32S24.14,56.72,36.446,56.72
	c12.306,0,22.315-10.012,22.315-22.318S48.752,12.081,36.446,12.081"/>
<path fill="#FFFFFF" d="M36.446,13.581c-11.499,0-20.819,9.322-20.819,20.82c0,11.496,9.32,20.818,20.819,20.818
	c11.497,0,20.816-9.322,20.816-20.818C57.263,22.903,47.943,13.581,36.446,13.581 M36.591,53.545
	c-10.571,0-19.146-8.571-19.146-19.144c0-10.573,8.574-19.145,19.146-19.145c10.574,0,19.146,8.571,19.146,19.145
	C55.736,44.974,47.165,53.545,36.591,53.545"/>
<path fill="#FFFFFF" d="M34.993,28.987h-0.636l-2.866,7.306l-3.019-7.306H27.96l-1.938,6.793H22.47
	c-0.244-0.398-0.68-0.667-1.182-0.667c-0.767,0-1.387,0.621-1.387,1.388c0,0.766,0.62,1.389,1.387,1.389
	c0.515,0,0.957-0.281,1.197-0.695h4.659V37.11l1.298-4.516l2.777,7.23h0.573l2.988-7.576l0.921,2.232l0.709-2.082L34.993,28.987z"/>
<path fill="#FFFFFF" d="M37.831,39.825h0.633l2.868-7.306l3.02,7.306h0.512l1.938-6.793h3.553c0.244,0.398,0.681,0.667,1.181,0.667
	c0.767,0,1.389-0.621,1.389-1.388c0-0.766-0.622-1.389-1.389-1.389c-0.515,0-0.955,0.281-1.195,0.695H45.68v0.084l-1.3,4.516
	l-2.776-7.23H41.03l-2.988,7.576l-0.921-2.232l-0.71,2.082L37.831,39.825z"/>
<path fill="#FFFFFF" d="M34.993,28.987h-0.636l-2.866,7.306l-3.019-7.306H27.96l-1.938,6.793H22.47
	c-0.244-0.398-0.68-0.667-1.182-0.667c-0.767,0-1.387,0.621-1.387,1.388c0,0.766,0.62,1.389,1.387,1.389
	c0.515,0,0.957-0.281,1.197-0.695h4.659V37.11l1.298-4.516l2.777,7.23h0.573l2.988-7.576l0.921,2.232l0.709-2.082L34.993,28.987z"/>
<path id="path8282" fill="#FFFFFF" stroke="#FFFFFF" stroke-width="1.25" stroke-miterlimit="10" d="M427.14,438.557v-14.629
	h-25.794v4.764h-10.819v9.558L427.14,438.557z"/>
<path id="path2921_1_" fill="none" stroke="#FFFFFF" stroke-width="1.25" stroke-miterlimit="10" d="M237.65,178.386l-83.866-0.132
	v74.773h322.672v-74.773l-83.521,0.132"/>
<rect id="rect2913" x="147.889" y="252.226" fill="none" stroke="#FFFFFF" stroke-width="1.25" stroke-miterlimit="10" width="93.632" height="119.793"/>
<rect id="rect2905" x="242.458" y="357.35" fill="none" stroke="#FFFFFF" stroke-width="1.25" stroke-miterlimit="10" width="101.337" height="81.611"/>
<path id="path12742" fill="none" stroke="#FFFFFF" stroke-width="1.25" stroke-miterlimit="10" d="M148.819,371.709v66.536h92.809
	l0.282-27.53h18.159v-22.026H241.07l0.227-34.359h-31.449v17.38H148.819z"/>
<path id="path10951" fill="none" stroke="#FFFFFF" stroke-width="1.25" stroke-miterlimit="10" d="M387.784,357.803v-3.758h5.018
	v-32.47l8.11-0.294v-28.63h-7.815v-17.71h-3.838V252.55l-148.284-0.112l0.322,105.365H387.784z"/>
<path id="path9173" fill="none" stroke="#FFFFFF" stroke-width="1.25" stroke-miterlimit="10" d="M388.043,253.144v22.052h4.974
	v2.16h9.253v57.61l-9.598-0.081v19.451h43.773l0.165,20.358h46.016l-0.333-121.66L388.043,253.144z"/>
<path id="path5621" fill="none" stroke="#FFFFFF" stroke-width="1.25" stroke-miterlimit="10" d="M343.59,357.803h44.194v-3.475
	h48.663l0.165,20.359h46.016l-0.331,63.869h-55.159v-14.629h-25.795v4.764h-10.819v9.558h-46.936L343.59,357.803L343.59,357.803z"/>
<path id="rect4730" fill="none" stroke="#FFFFFF" stroke-width="1.25" stroke-miterlimit="10" d="M391.083,276.211l11.974-0.165
	v58.37h-11.842v-4.918h-4.604V317.56h12.467v-22.705h-12.467v-10.877h4.468L391.083,276.211L391.083,276.211z"/>
<path id="path8286" fill="#FFFFFF" stroke="#FFFFFF" stroke-width="1.25" d="M463.262,373.591v-4.887h-10.708v4.887 M454.22,368.696
	v-6.955c0-4.347,7.527-4.489,7.527,0v6.613 M450.401,373.2v-21.436c0-9.244-13.74-9.107-13.74,0v21.781h41.274v-8.795h-8.854v8.615"
	/>
<path id="rect2050" fill="none" stroke="#FFFFFF" stroke-width="2.5" d="M385.963,275.195h7.993 M387.784,329.502v28.303h-56.123
	 M387.784,253.144v8.24 M381.659,357.805 M241.297,354.328h-31.449 M240.967,261.803v-17.546 M260.498,415.074v-8.607
	 M260.498,368.066v-9.932 M343.59,366.741v-8.937 M448.861,395.543v-20.524 M354.514,384.287h-11.256 M413.439,384.287h-39.725
	 M234.345,371.709h7.284 M182.703,371.709h35.752 M300.763,357.803h-59.466 M475.512,334.962h6.787 M425.357,334.962h31.614
	 M232.855,334.962h8.441 M175.254,334.962h40.553 M235.615,178.379l157.318,0.007l83.52-0.132v74.773 M306.957,438.557H148.605
	V253.028h35.156 M482.299,423.12v15.437H326.725 M482.299,410.996v3.704 M482.299,391.797v3.706 M448.164,253.028h34.135v130.348
	 M335.666,253.028h86.562 M206.327,253.028h88.247 M153.784,253.027v-74.773l83.864,0.132 M148.605,334.962h8.607 M436.447,354.328
	h-48.663 M148.605,371.709h17.214 M209.517,371.709v-36.084 M482.628,374.688h-46.017 M436.281,334.302v49.985h-4.635
	 M448.861,437.915v-22.841 M343.59,438.248v-58.595 M260.498,438.248V426.33 M260.498,383.294v5.628h-19.2V275.374 M241.629,438.248
	v-27.477h18.869 M392.677,334.88l15.301,0.082 M392.584,384.287 M390.929,243.593v9.767 M147.076,232.329h6.38 M477.025,229.141
	h5.671 M392.584,354.713l0.093-19.833"/>
<path id="rect5618" fill="none" stroke="#FFFFFF" stroke-width="1.25" stroke-miterlimit="10" d="M388.28,253.526h14.235v5.793
	h-10.261v2.317h-3.975V253.526L388.28,253.526z"/>
<path id="path8284" fill="none" stroke="#FFFFFF" stroke-width="1.25" d="M390.636,428.062v6.75h9.775V423.64h26.304v13.036
	 M412.982,436.442v-13.035"/>
<path id="path12735" fill="#FFFFFF" stroke="#FFFFFF" stroke-width="1.25" d="M149.721,370.439h10.223v-10.083h-10.223V370.439z"/>
<path id="path12737" fill="#FFFFFF" stroke="#FFFFFF" stroke-width="1.25" d="M208.357,365.812v-10.769h-4.837v10.769H208.357z
	 M203.512,364.146h-6.955c-4.346,0-4.488-7.525,0-7.525h6.613"/>
<path id="path12729" fill="#FFFFFF" stroke="#FFFFFF" stroke-width="1.25" d="M208.441,336.179h-21.777
	c-9.248,0-9.11,13.738,0,13.738h21.777V336.179z"/>
<g>
	<path fill="#787878" d="M301.353,214.476c-0.388,0.175-0.888,0.288-1.537,0.288h-1.55v3.649h-1.324v-8.373h2.874
		c0.675,0,1.125,0.062,1.537,0.263c0.726,0.35,1.287,1.237,1.287,2.087C302.64,213.276,302.078,214.151,301.353,214.476z
		 M300.79,211.514c-0.237-0.125-0.388-0.15-0.8-0.15h-1.725v2.049h1.725c0.412,0,0.562-0.025,0.8-0.137
		c0.288-0.15,0.5-0.538,0.5-0.887C301.29,212.039,301.078,211.689,300.79,211.514z"/>
	<path fill="#787878" d="M308.815,218.412l-0.825-2.35h-2.611l-0.825,2.35h-1.413l2.888-8.373h1.312l2.888,8.373H308.815z
		 M306.703,212.364l-0.862,2.349h1.675L306.703,212.364z"/>
	<path fill="#787878" d="M313.99,211.214v7.198h-1.324v-7.198h-1.912v-1.175h5.174v1.175H313.99z"/>
	<path fill="#787878" d="M317.166,218.412v-8.373h1.35v8.373H317.166z"/>
	<path fill="#787878" d="M325.364,217.625c-0.475,0.637-1.149,0.937-2.024,0.937c-1.175,0-1.912-0.475-2.412-1.5
		c-0.35-0.712-0.587-1.825-0.587-2.824c0-1.375,0.35-2.612,0.912-3.412c0.5-0.638,1.175-0.938,2.137-0.938
		c1.062,0,1.8,0.475,2.324,1.5c0.351,0.737,0.562,1.8,0.562,2.85C326.276,215.563,325.951,216.888,325.364,217.625z
		 M324.452,211.889c-0.263-0.438-0.588-0.612-1.088-0.65c-0.024,0-0.05,0-0.074,0c-0.601,0-1,0.325-1.275,1.037
		c-0.212,0.5-0.324,1.262-0.324,1.962c0,0.887,0.175,1.799,0.5,2.324c0.262,0.438,0.612,0.65,1.149,0.65
		c0.612,0,1-0.325,1.287-1.062c0.175-0.438,0.325-1.262,0.325-1.912C324.952,213.301,324.776,212.451,324.452,211.889z"/>
</g>
<g>
	<path fill="#787878" d="M296.267,300.484v-8.373h1.324v7.136h3.874v1.237H296.267z"/>
	<path fill="#787878" d="M302.704,300.484v-8.373h1.35v8.373H302.704z"/>
	<path fill="#787878" d="M308.99,300.484h-1.025l-2.648-8.373h1.387l1.787,5.586l1.762-5.586h1.413L308.99,300.484z"/>
	<path fill="#787878" d="M312.904,300.484v-8.373h1.35v8.373H312.904z"/>
	<path fill="#787878" d="M320.777,300.484l-3.199-5.674v5.674h-1.324v-8.373h1.324l3.05,5.349v-5.349h1.324v8.373H320.777z"/>
	<path fill="#787878" d="M326.828,300.635c-1.262,0-1.999-0.476-2.499-1.525c-0.351-0.737-0.55-1.774-0.55-2.799
		c0-1.35,0.375-2.675,0.937-3.412c0.5-0.612,1.2-0.937,2.149-0.937c1.287,0,2.05,0.537,2.612,1.849l-1.263,0.5
		c-0.35-0.725-0.712-0.999-1.35-0.999c-0.675,0-1.124,0.3-1.412,1.037c-0.212,0.5-0.324,1.262-0.324,1.962
		c0,0.887,0.149,1.762,0.412,2.299c0.263,0.463,0.649,0.675,1.149,0.675c0.85,0,1.462-0.537,1.462-1.299v-0.351h-1.524v-1.324h2.85
		v1.675C329.478,299.51,328.365,300.635,326.828,300.635z"/>
	<path fill="#787878" d="M302.615,315.484l-1.35-3.649h-1.587v3.649h-1.325v-8.373h2.762c0.65,0,1.088,0.062,1.5,0.263
		c0.737,0.35,1.262,1.237,1.262,2.087c0,0.887-0.524,1.762-1.299,2.112l1.475,3.911H302.615z M302.027,308.586
		c-0.225-0.125-0.324-0.149-0.762-0.149h-1.587v2.049h1.587c0.412,0,0.55-0.024,0.762-0.138c0.325-0.187,0.525-0.537,0.525-0.887
		S302.353,308.761,302.027,308.586z"/>
	<path fill="#787878" d="M310.314,314.697c-0.475,0.637-1.149,0.938-2.024,0.938c-1.175,0-1.911-0.476-2.411-1.5
		c-0.351-0.712-0.588-1.824-0.588-2.824c0-1.375,0.35-2.612,0.912-3.412c0.5-0.637,1.175-0.937,2.138-0.937
		c1.062,0,1.799,0.475,2.324,1.499c0.35,0.737,0.562,1.8,0.562,2.85C311.228,312.635,310.902,313.96,310.314,314.697z
		 M309.402,308.961c-0.262-0.438-0.587-0.612-1.087-0.649c-0.025,0-0.05,0-0.075,0c-0.6,0-1,0.324-1.274,1.037
		c-0.212,0.5-0.325,1.262-0.325,1.962c0,0.887,0.176,1.8,0.5,2.324c0.263,0.438,0.612,0.649,1.149,0.649
		c0.612,0,1-0.324,1.287-1.062c0.176-0.438,0.325-1.263,0.325-1.912C309.902,310.373,309.728,309.523,309.402,308.961z"/>
	<path fill="#787878" d="M317.928,314.697c-0.475,0.637-1.149,0.938-2.024,0.938c-1.175,0-1.912-0.476-2.412-1.5
		c-0.35-0.712-0.587-1.824-0.587-2.824c0-1.375,0.35-2.612,0.912-3.412c0.5-0.637,1.175-0.937,2.137-0.937
		c1.062,0,1.8,0.475,2.324,1.499c0.351,0.737,0.562,1.8,0.562,2.85C318.84,312.635,318.515,313.96,317.928,314.697z
		 M317.016,308.961c-0.263-0.438-0.588-0.612-1.088-0.649c-0.024,0-0.05,0-0.074,0c-0.601,0-1,0.324-1.275,1.037
		c-0.212,0.5-0.324,1.262-0.324,1.962c0,0.887,0.175,1.8,0.5,2.324c0.262,0.438,0.612,0.649,1.149,0.649
		c0.612,0,1-0.324,1.287-1.062c0.175-0.438,0.325-1.263,0.325-1.912C317.516,310.373,317.34,309.523,317.016,308.961z"/>
	<path fill="#787878" d="M325.89,315.484v-4.849l-1.937,4.849l-1.938-4.849v4.849h-1.324v-8.373h1.324l1.938,4.699l1.937-4.699
		h1.325v8.373H325.89z"/>
</g>
<g>
	<path fill="#787878" d="M180.224,289.124v-4.849l-1.938,4.849l-1.937-4.849v4.849h-1.325v-8.373h1.325l1.937,4.699l1.938-4.699
		h1.324v8.373H180.224z"/>
	<path fill="#787878" d="M188.486,289.124l-0.825-2.35h-2.612l-0.825,2.35h-1.413l2.887-8.373h1.312l2.887,8.373H188.486z
		 M186.374,283.075l-0.862,2.35h1.674L186.374,283.075z"/>
	<path fill="#787878" d="M195.448,288.624c-0.462,0.412-1.112,0.65-1.825,0.65c-1.437,0-2.487-0.851-3.049-2.125l1.262-0.462
		c0.35,0.787,1,1.237,1.787,1.237c0.775,0,1.3-0.538,1.3-1.237c0-1.112-1.3-1.3-2.387-1.737c-0.5-0.2-1.612-0.7-1.612-2.087
		c0-1.638,1.112-2.262,2.612-2.262c1.175,0,1.975,0.675,2.387,1.712l-1.175,0.35c0,0-0.3-0.712-1.237-0.737
		c-0.038,0-0.062,0-0.087,0c-0.575,0-1.2,0.225-1.2,0.888c0,0.024,0,0.062,0,0.087c0.112,1.55,4.049,0.525,4.049,3.812
		C196.273,287.475,195.973,288.149,195.448,288.624z"/>
	<path fill="#787878" d="M200.186,281.926v7.198h-1.325v-7.198h-1.912v-1.175h5.174v1.175H200.186z"/>
	<path fill="#787878" d="M203.361,289.124v-8.373h4.937v1.325h-3.612v2.049h2.437v1.35h-2.437v2.3h3.875v1.35H203.361z"/>
	<path fill="#787878" d="M214.236,289.124l-1.35-3.649h-1.587v3.649h-1.324v-8.373h2.762c0.65,0,1.087,0.062,1.5,0.263
		c0.737,0.35,1.262,1.237,1.262,2.087c0,0.887-0.525,1.762-1.3,2.112l1.475,3.911H214.236z M213.648,282.226
		c-0.225-0.125-0.325-0.149-0.762-0.149h-1.587v2.049h1.587c0.412,0,0.55-0.024,0.762-0.138c0.325-0.187,0.525-0.537,0.525-0.887
		S213.974,282.4,213.648,282.226z"/>
	<path fill="#787878" d="M174.349,303.924c-0.3,0.112-0.8,0.2-1.175,0.2H170v-8.373h3.174c1.325,0,2.325,0.912,2.325,2.112
		c0,0.824-0.388,1.437-1.175,1.887c0.875,0.412,1.375,1.112,1.375,2.024S175.136,303.6,174.349,303.924z M173.261,297.076h-1.937
		v2.049h1.587c0.375,0,0.55-0.05,0.787-0.225c0.3-0.237,0.475-0.588,0.475-0.975C174.174,297.363,173.849,297.076,173.261,297.076z
		 M173.549,300.537c-0.175-0.062-0.262-0.062-0.55-0.062h-1.675v2.3h2c0.675,0,1.025-0.325,1.025-0.975
		C174.349,301.25,174.024,300.712,173.549,300.537z"/>
	<path fill="#787878" d="M177.112,304.124v-8.373h4.936v1.325h-3.612v2.049h2.437v1.35h-2.437v2.3h3.874v1.35H177.112z"/>
	<path fill="#787878" d="M187.948,303.649c-0.312,0.3-0.762,0.449-1.2,0.475c-0.087,0-0.262,0-0.475,0h-2.549v-8.373h2.699
		c0.85,0,1.175,0.088,1.625,0.438c0.875,0.763,1.375,2.087,1.375,3.736C189.423,301.6,188.898,302.925,187.948,303.649z
		 M187.398,297.426c-0.212-0.2-0.5-0.35-0.85-0.35h-1.5v5.698h1.325c0.438,0,0.7-0.088,0.938-0.325c0.5-0.5,0.762-1.412,0.762-2.524
		C188.073,298.801,187.811,297.863,187.398,297.426z"/>
	<path fill="#787878" d="M195.511,304.124l-1.35-3.649h-1.587v3.649h-1.325v-8.373h2.762c0.65,0,1.087,0.062,1.5,0.263
		c0.737,0.35,1.262,1.237,1.262,2.087c0,0.887-0.525,1.762-1.3,2.112l1.475,3.911H195.511z M194.923,297.226
		c-0.225-0.125-0.325-0.149-0.762-0.149h-1.587v2.049h1.587c0.412,0,0.55-0.024,0.762-0.138c0.325-0.187,0.525-0.537,0.525-0.887
		S195.248,297.4,194.923,297.226z"/>
	<path fill="#787878" d="M203.21,303.337c-0.475,0.637-1.15,0.938-2.024,0.938c-1.175,0-1.912-0.476-2.412-1.5
		c-0.35-0.712-0.587-1.824-0.587-2.824c0-1.375,0.35-2.612,0.913-3.412c0.5-0.637,1.174-0.937,2.137-0.937
		c1.062,0,1.8,0.475,2.325,1.499c0.35,0.737,0.562,1.8,0.562,2.85C204.123,301.274,203.798,302.6,203.21,303.337z M202.298,297.601
		c-0.263-0.438-0.587-0.612-1.087-0.649c-0.025,0-0.05,0-0.075,0c-0.6,0-1,0.324-1.274,1.037c-0.212,0.5-0.325,1.262-0.325,1.962
		c0,0.887,0.175,1.8,0.5,2.324c0.263,0.438,0.612,0.65,1.15,0.65c0.612,0,1-0.325,1.287-1.062c0.175-0.438,0.325-1.263,0.325-1.912
		C202.798,299.013,202.623,298.163,202.298,297.601z"/>
	<path fill="#787878" d="M210.823,303.337c-0.475,0.637-1.15,0.938-2.024,0.938c-1.175,0-1.912-0.476-2.412-1.5
		c-0.35-0.712-0.587-1.824-0.587-2.824c0-1.375,0.35-2.612,0.913-3.412c0.5-0.637,1.174-0.937,2.137-0.937
		c1.062,0,1.8,0.475,2.325,1.499c0.35,0.737,0.562,1.8,0.562,2.85C211.735,301.274,211.41,302.6,210.823,303.337z M209.911,297.601
		c-0.263-0.438-0.587-0.612-1.087-0.649c-0.025,0-0.05,0-0.075,0c-0.6,0-1,0.324-1.274,1.037c-0.212,0.5-0.325,1.262-0.325,1.962
		c0,0.887,0.175,1.8,0.5,2.324c0.263,0.438,0.612,0.65,1.15,0.65c0.612,0,1-0.325,1.287-1.062c0.175-0.438,0.325-1.263,0.325-1.912
		C210.41,299.013,210.235,298.163,209.911,297.601z"/>
	<path fill="#787878" d="M218.785,304.124v-4.849l-1.937,4.849l-1.937-4.849v4.849h-1.324v-8.373h1.324l1.937,4.699l1.937-4.699
		h1.325v8.373H218.785z"/>
</g>
<g>
	<path fill="#787878" d="M185.205,402.725v-3.649h-3.049v3.649h-1.324v-8.373h1.324v3.374h3.049v-3.374h1.325v8.373H185.205z"/>
	<path fill="#787878" d="M193.38,401.938c-0.475,0.637-1.15,0.938-2.024,0.938c-1.175,0-1.912-0.476-2.412-1.5
		c-0.35-0.712-0.587-1.824-0.587-2.824c0-1.375,0.35-2.612,0.913-3.412c0.5-0.637,1.174-0.937,2.137-0.937
		c1.062,0,1.8,0.475,2.324,1.499c0.35,0.737,0.562,1.8,0.562,2.85C194.292,399.875,193.967,401.2,193.38,401.938z M192.468,396.201
		c-0.263-0.438-0.587-0.612-1.087-0.649c-0.025,0-0.05,0-0.075,0c-0.6,0-1,0.324-1.274,1.037c-0.212,0.5-0.325,1.262-0.325,1.962
		c0,0.887,0.175,1.8,0.5,2.324c0.263,0.438,0.612,0.649,1.15,0.649c0.612,0,1-0.324,1.287-1.062
		c0.175-0.438,0.325-1.263,0.325-1.912C192.967,397.613,192.792,396.764,192.468,396.201z"/>
	<path fill="#787878" d="M201.342,402.725v-4.849l-1.937,4.849l-1.937-4.849v4.849h-1.324v-8.373h1.324l1.937,4.699l1.937-4.699
		h1.325v8.373H201.342z"/>
	<path fill="#787878" d="M204.668,402.725v-8.373h4.937v1.325h-3.612v2.049h2.437v1.35h-2.437v2.3h3.875v1.35H204.668z"/>
	<path fill="#787878" d="M182.004,416.938c-0.475,0.637-1.15,0.938-2.024,0.938c-1.175,0-1.912-0.476-2.412-1.5
		c-0.35-0.712-0.587-1.824-0.587-2.824c0-1.375,0.35-2.612,0.913-3.412c0.5-0.637,1.174-0.937,2.137-0.937
		c1.062,0,1.8,0.475,2.325,1.499c0.35,0.737,0.562,1.8,0.562,2.85C182.917,414.875,182.592,416.2,182.004,416.938z M181.092,411.201
		c-0.263-0.438-0.587-0.612-1.087-0.649c-0.025,0-0.05,0-0.075,0c-0.6,0-1,0.324-1.274,1.037c-0.212,0.5-0.325,1.262-0.325,1.962
		c0,0.887,0.175,1.8,0.5,2.324c0.263,0.438,0.612,0.649,1.15,0.649c0.612,0,1-0.324,1.287-1.062
		c0.175-0.438,0.325-1.263,0.325-1.912C181.592,412.613,181.417,411.764,181.092,411.201z"/>
	<path fill="#787878" d="M186.092,410.677v2.049h2.437v1.35h-2.437v3.649h-1.325v-8.373h5.199v1.325H186.092z"/>
	<path fill="#787878" d="M192.53,410.677v2.049h2.437v1.35h-2.437v3.649h-1.325v-8.373h5.199v1.325H192.53z"/>
	<path fill="#787878" d="M197.643,417.725v-8.373h1.35v8.373H197.643z"/>
	<path fill="#787878" d="M203.992,417.875c-1.237,0-2.024-0.476-2.562-1.5c-0.375-0.737-0.612-1.8-0.612-2.85
		c0-1.324,0.35-2.649,0.938-3.387c0.5-0.612,1.2-0.937,2.149-0.937c1.262,0,2.049,0.537,2.612,1.712l-1.237,0.524
		c-0.462-0.712-0.737-0.887-1.375-0.887c-0.675,0-1.125,0.3-1.412,1.037c-0.212,0.5-0.325,1.225-0.325,1.937
		c0,0.912,0.2,1.825,0.525,2.35c0.3,0.438,0.675,0.649,1.262,0.649c0.562,0,0.975-0.3,1.3-0.975l1.262,0.476
		C206.017,417.25,205.192,417.875,203.992,417.875z"/>
	<path fill="#787878" d="M208.343,417.725v-8.373h4.936v1.325h-3.612v2.049h2.437v1.35h-2.437v2.3h3.874v1.35H208.343z"/>
</g>
<g>
	<path fill="#787878" d="M274.836,397.561v-8.373h4.937v1.325h-3.612v2.049h2.437v1.35h-2.437v2.3h3.875v1.35H274.836z"/>
	<path fill="#787878" d="M285.972,397.561l-3.199-5.674v5.674h-1.325v-8.373h1.325l3.049,5.349v-5.349h1.325v8.373H285.972z"/>
	<path fill="#787878" d="M291.648,390.362v7.198h-1.325v-7.198h-1.912v-1.175h5.174v1.175H291.648z"/>
	<path fill="#787878" d="M299.085,397.561l-1.35-3.649h-1.587v3.649h-1.325v-8.373h2.762c0.65,0,1.087,0.062,1.5,0.263
		c0.737,0.35,1.263,1.237,1.263,2.087c0,0.887-0.525,1.762-1.3,2.112l1.474,3.911H299.085z M298.498,390.662
		c-0.225-0.125-0.325-0.149-0.762-0.149h-1.587v2.049h1.587c0.412,0,0.55-0.024,0.762-0.138c0.325-0.187,0.525-0.537,0.525-0.887
		S298.822,390.837,298.498,390.662z"/>
	<path fill="#787878" d="M306.872,397.561l-0.825-2.35h-2.611l-0.824,2.35h-1.413l2.888-8.373h1.312l2.887,8.373H306.872z
		 M304.76,391.512l-0.861,2.35h1.674L304.76,391.512z"/>
	<path fill="#787878" d="M314.072,397.561l-3.199-5.674v5.674h-1.324v-8.373h1.324l3.05,5.349v-5.349h1.324v8.373H314.072z"/>
	<path fill="#787878" d="M320.247,397.711c-1.237,0-2.024-0.476-2.562-1.5c-0.375-0.737-0.612-1.8-0.612-2.85
		c0-1.324,0.35-2.649,0.937-3.387c0.5-0.612,1.2-0.937,2.149-0.937c1.263,0,2.05,0.537,2.612,1.712l-1.237,0.524
		c-0.462-0.712-0.737-0.887-1.375-0.887c-0.675,0-1.124,0.3-1.412,1.037c-0.212,0.5-0.324,1.225-0.324,1.937
		c0,0.912,0.199,1.825,0.524,2.35c0.3,0.438,0.675,0.649,1.263,0.649c0.562,0,0.975-0.3,1.299-0.975l1.263,0.476
		C322.271,397.086,321.447,397.711,320.247,397.711z"/>
	<path fill="#787878" d="M324.599,397.561v-8.373h4.937v1.325h-3.612v2.049h2.438v1.35h-2.438v2.3h3.874v1.35H324.599z"/>
	<path fill="#787878" d="M293.303,412.561v-3.649h-3.049v3.649h-1.324v-8.373h1.324v3.374h3.049v-3.374h1.325v8.373H293.303z"/>
	<path fill="#787878" d="M301.566,412.561l-0.825-2.35h-2.612l-0.825,2.35h-1.413l2.887-8.373h1.312l2.887,8.373H301.566z
		 M299.454,406.512l-0.862,2.35h1.674L299.454,406.512z"/>
	<path fill="#787878" d="M304.242,412.561v-8.373h1.324v7.136h3.874v1.237H304.242z"/>
	<path fill="#787878" d="M310.68,412.561v-8.373h1.324v7.136h3.874v1.237H310.68z"/>
</g>
<g>
	<path fill="#787878" d="M379.52,409.953l-2.124-3.962l-0.875,1.088v2.874h-1.324v-8.373h1.324v3.324l2.637-3.324h1.713
		l-2.587,3.262l2.762,5.111H379.52z"/>
	<path fill="#787878" d="M382.483,409.953v-8.373h1.35v8.373H382.483z"/>
	<path fill="#787878" d="M388.333,402.755v7.198h-1.324v-7.198h-1.912v-1.175h5.174v1.175H388.333z"/>
	<path fill="#787878" d="M394.508,410.104c-1.237,0-2.024-0.476-2.562-1.5c-0.375-0.737-0.612-1.8-0.612-2.85
		c0-1.324,0.35-2.649,0.937-3.387c0.5-0.612,1.2-0.937,2.149-0.937c1.263,0,2.05,0.537,2.612,1.712l-1.237,0.524
		c-0.462-0.712-0.737-0.887-1.375-0.887c-0.675,0-1.124,0.3-1.412,1.037c-0.212,0.5-0.324,1.225-0.324,1.937
		c0,0.912,0.199,1.825,0.524,2.35c0.3,0.438,0.675,0.649,1.263,0.649c0.562,0,0.975-0.3,1.299-0.975l1.263,0.476
		C396.532,409.479,395.707,410.104,394.508,410.104z"/>
	<path fill="#787878" d="M403.232,409.953v-3.649h-3.05v3.649h-1.324v-8.373h1.324v3.374h3.05v-3.374h1.324v8.373H403.232z"/>
	<path fill="#787878" d="M406.559,409.953v-8.373h4.937v1.325h-3.612v2.049h2.438v1.35h-2.438v2.3h3.874v1.35H406.559z"/>
	<path fill="#787878" d="M417.694,409.953l-3.199-5.674v5.674h-1.324v-8.373h1.324l3.05,5.349v-5.349h1.324v8.373H417.694z"/>
</g>
<g>
	<path fill="#787878" d="M471.7,423.96c0,1.237-0.476,2.024-1.5,2.562c-0.737,0.375-1.8,0.612-2.85,0.612
		c-1.324,0-2.649-0.35-3.387-0.937c-0.612-0.5-0.937-1.2-0.937-2.149c0-1.263,0.537-2.05,1.712-2.612l0.524,1.237
		c-0.712,0.462-0.887,0.737-0.887,1.375c0,0.675,0.3,1.124,1.037,1.412c0.5,0.212,1.225,0.324,1.937,0.324
		c0.912,0,1.825-0.199,2.35-0.524c0.438-0.3,0.649-0.675,0.649-1.263c0-0.562-0.3-0.975-0.975-1.299l0.476-1.263
		C471.075,421.936,471.7,422.761,471.7,423.96z"/>
	<path fill="#787878" d="M471.55,419.609h-8.373v-1.324h7.136v-3.874h1.237V419.609z"/>
	<path fill="#787878" d="M470.763,408.323c0.637,0.475,0.938,1.149,0.938,2.024c0,1.175-0.476,1.912-1.5,2.412
		c-0.712,0.35-1.824,0.587-2.824,0.587c-1.375,0-2.612-0.35-3.412-0.912c-0.637-0.5-0.937-1.175-0.937-2.137
		c0-1.062,0.475-1.8,1.499-2.324c0.737-0.351,1.8-0.562,2.85-0.562C468.7,407.411,470.025,407.736,470.763,408.323z
		 M465.026,409.235c-0.438,0.263-0.612,0.588-0.649,1.088c0,0.024,0,0.05,0,0.074c0,0.601,0.324,1,1.037,1.275
		c0.5,0.212,1.262,0.324,1.962,0.324c0.887,0,1.8-0.175,2.324-0.5c0.438-0.262,0.649-0.612,0.649-1.149c0-0.612-0.324-1-1.062-1.287
		c-0.438-0.175-1.263-0.325-1.912-0.325C466.438,408.735,465.589,408.911,465.026,409.235z"/>
	<path fill="#787878" d="M471.05,401.273c0.412,0.462,0.65,1.112,0.65,1.824c0,1.438-0.851,2.487-2.125,3.05l-0.462-1.263
		c0.787-0.35,1.236-1,1.236-1.787c0-0.774-0.537-1.3-1.236-1.3c-1.112,0-1.3,1.3-1.737,2.388c-0.2,0.499-0.7,1.611-2.087,1.611
		c-1.638,0-2.262-1.112-2.262-2.611c0-1.175,0.675-1.975,1.712-2.387l0.35,1.175c0,0-0.712,0.3-0.737,1.236c0,0.038,0,0.062,0,0.088
		c0,0.575,0.225,1.2,0.888,1.2c0.024,0,0.062,0,0.087,0c1.55-0.113,0.525-4.05,3.812-4.05
		C469.9,400.448,470.575,400.748,471.05,401.273z"/>
	<path fill="#787878" d="M471.55,399.034h-8.373v-4.937h1.325v3.612h2.049v-2.438h1.35v2.438h2.3v-3.874h1.35V399.034z"/>
	<path fill="#787878" d="M464.352,389.923h7.198v1.324h-7.198v1.912h-1.175v-5.174h1.175V389.923z"/>
</g>
<g>
	<path fill="#787878" d="M426.531,288.624c-0.462,0.412-1.112,0.65-1.824,0.65c-1.438,0-2.487-0.851-3.05-2.125l1.263-0.462
		c0.35,0.787,1,1.237,1.787,1.237c0.774,0,1.3-0.538,1.3-1.237c0-1.112-1.3-1.3-2.388-1.737c-0.499-0.2-1.611-0.7-1.611-2.087
		c0-1.638,1.112-2.262,2.611-2.262c1.175,0,1.975,0.675,2.387,1.712l-1.175,0.35c0,0-0.3-0.712-1.236-0.737
		c-0.038,0-0.062,0-0.088,0c-0.575,0-1.2,0.225-1.2,0.888c0,0.024,0,0.062,0,0.087c0.113,1.55,4.05,0.525,4.05,3.812
		C427.356,287.475,427.057,288.149,426.531,288.624z"/>
	<path fill="#787878" d="M428.77,289.124v-8.373h4.937v1.325h-3.612v2.049h2.438v1.35h-2.438v2.3h3.874v1.35H428.77z"/>
	<path fill="#787878" d="M438.382,289.274c-1.237,0-2.024-0.476-2.562-1.5c-0.375-0.737-0.612-1.8-0.612-2.85
		c0-1.324,0.35-2.649,0.937-3.387c0.5-0.612,1.2-0.937,2.149-0.937c1.263,0,2.05,0.537,2.612,1.712l-1.237,0.524
		c-0.462-0.712-0.737-0.887-1.375-0.887c-0.675,0-1.124,0.3-1.412,1.037c-0.212,0.5-0.324,1.225-0.324,1.937
		c0,0.912,0.199,1.825,0.524,2.35c0.3,0.438,0.675,0.65,1.263,0.65c0.562,0,0.975-0.301,1.299-0.976l1.263,0.476
		C440.406,288.649,439.582,289.274,438.382,289.274z"/>
	<path fill="#787878" d="M447.581,288.337c-0.475,0.637-1.149,0.938-2.024,0.938c-1.175,0-1.912-0.476-2.412-1.5
		c-0.35-0.712-0.587-1.824-0.587-2.824c0-1.375,0.35-2.612,0.912-3.412c0.5-0.637,1.175-0.937,2.137-0.937
		c1.062,0,1.8,0.475,2.324,1.499c0.351,0.737,0.562,1.8,0.562,2.85C448.493,286.274,448.168,287.6,447.581,288.337z
		 M446.669,282.601c-0.263-0.438-0.588-0.612-1.088-0.649c-0.024,0-0.05,0-0.074,0c-0.601,0-1,0.324-1.275,1.037
		c-0.212,0.5-0.324,1.262-0.324,1.962c0,0.887,0.175,1.8,0.5,2.324c0.262,0.438,0.612,0.65,1.149,0.65c0.612,0,1-0.325,1.287-1.062
		c0.175-0.438,0.325-1.263,0.325-1.912C447.169,284.013,446.993,283.163,446.669,282.601z"/>
	<path fill="#787878" d="M454.868,289.124l-3.199-5.674v5.674h-1.324v-8.373h1.324l3.05,5.349v-5.349h1.324v8.373H454.868z"/>
	<path fill="#787878" d="M462.269,288.649c-0.312,0.3-0.763,0.449-1.199,0.475c-0.088,0-0.263,0-0.476,0h-2.549v-8.373h2.699
		c0.85,0,1.175,0.088,1.624,0.438c0.875,0.763,1.375,2.087,1.375,3.736C463.743,286.6,463.219,287.925,462.269,288.649z
		 M461.719,282.426c-0.213-0.2-0.5-0.35-0.85-0.35h-1.5v5.698h1.325c0.438,0,0.699-0.088,0.937-0.325
		c0.5-0.5,0.763-1.412,0.763-2.524C462.394,283.801,462.131,282.863,461.719,282.426z"/>
	<path fill="#787878" d="M422.2,303.924c-0.3,0.112-0.8,0.2-1.175,0.2h-3.174v-8.373h3.174c1.325,0,2.324,0.912,2.324,2.112
		c0,0.824-0.387,1.437-1.175,1.887c0.875,0.412,1.375,1.112,1.375,2.024S422.987,303.6,422.2,303.924z M421.113,297.076h-1.938
		v2.049h1.587c0.375,0,0.55-0.05,0.788-0.225c0.3-0.237,0.475-0.588,0.475-0.975C422.025,297.363,421.7,297.076,421.113,297.076z
		 M421.4,300.537c-0.175-0.062-0.263-0.062-0.55-0.062h-1.675v2.3h2c0.675,0,1.024-0.325,1.024-0.975
		C422.2,301.25,421.875,300.712,421.4,300.537z"/>
	<path fill="#787878" d="M424.964,304.124v-8.373h4.937v1.325h-3.612v2.049h2.438v1.35h-2.438v2.3h3.874v1.35H424.964z"/>
	<path fill="#787878" d="M435.8,303.649c-0.312,0.3-0.763,0.449-1.199,0.475c-0.088,0-0.263,0-0.476,0h-2.549v-8.373h2.699
		c0.85,0,1.175,0.088,1.624,0.438c0.875,0.763,1.375,2.087,1.375,3.736C437.274,301.6,436.75,302.925,435.8,303.649z
		 M435.25,297.426c-0.213-0.2-0.5-0.35-0.85-0.35h-1.5v5.698h1.325c0.438,0,0.699-0.088,0.937-0.325
		c0.5-0.5,0.763-1.412,0.763-2.524C435.925,298.801,435.662,297.863,435.25,297.426z"/>
	<path fill="#787878" d="M443.362,304.124l-1.35-3.649h-1.587v3.649h-1.324v-8.373h2.762c0.649,0,1.087,0.062,1.499,0.263
		c0.737,0.35,1.263,1.237,1.263,2.087c0,0.887-0.525,1.762-1.3,2.112l1.475,3.911H443.362z M442.775,297.226
		c-0.225-0.125-0.325-0.149-0.763-0.149h-1.587v2.049h1.587c0.413,0,0.55-0.024,0.763-0.138c0.325-0.187,0.525-0.537,0.525-0.887
		S443.101,297.4,442.775,297.226z"/>
	<path fill="#787878" d="M451.062,303.337c-0.475,0.637-1.149,0.938-2.024,0.938c-1.175,0-1.912-0.476-2.412-1.5
		c-0.35-0.712-0.587-1.824-0.587-2.824c0-1.375,0.35-2.612,0.912-3.412c0.5-0.637,1.175-0.937,2.137-0.937
		c1.062,0,1.8,0.475,2.324,1.499c0.351,0.737,0.562,1.8,0.562,2.85C451.975,301.274,451.649,302.6,451.062,303.337z M450.15,297.601
		c-0.263-0.438-0.588-0.612-1.088-0.649c-0.024,0-0.05,0-0.074,0c-0.601,0-1,0.324-1.275,1.037c-0.212,0.5-0.324,1.262-0.324,1.962
		c0,0.887,0.175,1.8,0.5,2.324c0.262,0.438,0.612,0.65,1.149,0.65c0.612,0,1-0.325,1.287-1.062c0.175-0.438,0.325-1.263,0.325-1.912
		C450.65,299.013,450.475,298.163,450.15,297.601z"/>
	<path fill="#787878" d="M458.675,303.337c-0.475,0.637-1.149,0.938-2.024,0.938c-1.175,0-1.912-0.476-2.412-1.5
		c-0.35-0.712-0.587-1.824-0.587-2.824c0-1.375,0.35-2.612,0.912-3.412c0.5-0.637,1.175-0.937,2.137-0.937
		c1.062,0,1.8,0.475,2.324,1.499c0.351,0.737,0.562,1.8,0.562,2.85C459.587,301.274,459.262,302.6,458.675,303.337z
		 M457.763,297.601c-0.263-0.438-0.588-0.612-1.088-0.649c-0.024,0-0.05,0-0.074,0c-0.601,0-1,0.324-1.275,1.037
		c-0.212,0.5-0.324,1.262-0.324,1.962c0,0.887,0.175,1.8,0.5,2.324c0.262,0.438,0.612,0.65,1.149,0.65c0.612,0,1-0.325,1.287-1.062
		c0.175-0.438,0.325-1.263,0.325-1.912C458.263,299.013,458.087,298.163,457.763,297.601z"/>
	<path fill="#787878" d="M466.637,304.124v-4.849l-1.937,4.849l-1.938-4.849v4.849h-1.324v-8.373h1.324l1.938,4.699l1.937-4.699
		h1.325v8.373H466.637z"/>
</g>
<g>
	<path fill="#787878" d="M364.61,375.374c-0.462,0.412-1.112,0.65-1.824,0.65c-1.438,0-2.487-0.851-3.05-2.125l1.263-0.462
		c0.35,0.787,1,1.237,1.787,1.237c0.774,0,1.3-0.538,1.3-1.237c0-1.112-1.3-1.3-2.388-1.737c-0.499-0.2-1.611-0.7-1.611-2.087
		c0-1.638,1.112-2.262,2.611-2.262c1.175,0,1.975,0.675,2.387,1.712l-1.175,0.35c0,0-0.3-0.712-1.236-0.737
		c-0.038,0-0.062,0-0.088,0c-0.575,0-1.2,0.225-1.2,0.888c0,0.024,0,0.062,0,0.087c0.113,1.55,4.05,0.525,4.05,3.812
		C365.436,374.225,365.136,374.899,364.61,375.374z"/>
	<path fill="#787878" d="M369.348,368.676v7.198h-1.324v-7.198h-1.912v-1.175h5.174v1.175H369.348z"/>
	<path fill="#787878" d="M377.461,375.874l-0.825-2.35h-2.612l-0.824,2.35h-1.412l2.887-8.373h1.312l2.888,8.373H377.461z
		 M375.349,369.825l-0.862,2.35h1.675L375.349,369.825z"/>
	<path fill="#787878" d="M380.137,375.874v-8.373h1.35v8.373H380.137z"/>
	<path fill="#787878" d="M387.747,375.874l-1.35-3.649h-1.587v3.649h-1.324v-8.373h2.762c0.649,0,1.087,0.062,1.499,0.263
		c0.737,0.35,1.263,1.237,1.263,2.087c0,0.887-0.525,1.762-1.3,2.112l1.475,3.911H387.747z M387.16,368.976
		c-0.225-0.125-0.325-0.149-0.763-0.149h-1.587v2.049h1.587c0.413,0,0.55-0.024,0.763-0.138c0.325-0.187,0.525-0.537,0.525-0.887
		S387.485,369.15,387.16,368.976z"/>
	<path fill="#787878" d="M396.06,375.874h-1.175l-1.324-5.374l-1.287,5.374h-1.175l-1.237-8.373h1.35l0.649,4.411l1.062-4.411h1.287
		l1.087,4.411l0.65-4.411h1.35L396.06,375.874z"/>
	<path fill="#787878" d="M398.536,375.874v-8.373h4.937v1.325h-3.612v2.049h2.438v1.35h-2.438v2.3h3.874v1.35H398.536z"/>
	<path fill="#787878" d="M405.148,375.874v-8.373h1.324v7.136h3.874v1.237H405.148z"/>
	<path fill="#787878" d="M411.586,375.874v-8.373h1.324v7.136h3.874v1.237H411.586z"/>
</g>
<path fill="#BE2026" d="M270.299,263.02c-9.23,0-16.74,7.509-16.74,16.739c0,9.231,7.51,16.74,16.74,16.74
	c9.229,0,16.736-7.509,16.736-16.74C287.035,270.528,279.528,263.02,270.299,263.02"/>
<path fill="#FFFFFF" d="M270.298,264.144c-8.624,0-15.613,6.992-15.613,15.615s6.989,15.613,15.613,15.613
	c8.623,0,15.613-6.99,15.613-15.613S278.921,264.144,270.298,264.144 M270.406,294.117c-7.928,0-14.357-6.429-14.357-14.358
	s6.43-14.357,14.357-14.357c7.932,0,14.359,6.428,14.359,14.357S278.338,294.117,270.406,294.117"/>
<path fill="#FFFFFF" d="M269.208,275.699h-0.476l-2.149,5.479l-2.266-5.479h-0.384l-1.454,5.095h-2.663
	c-0.184-0.299-0.511-0.5-0.887-0.5c-0.574,0-1.04,0.465-1.04,1.04s0.466,1.042,1.04,1.042c0.386,0,0.718-0.211,0.898-0.521h3.493
	v-0.062l0.975-3.388l2.083,5.424h0.43l2.241-5.683l0.69,1.675l0.532-1.562L269.208,275.699z"/>
<path fill="#FFFFFF" d="M271.337,283.828h0.476l2.15-5.479l2.264,5.479h0.385l1.453-5.097h2.665c0.183,0.301,0.51,0.5,0.885,0.5
	c0.575,0,1.041-0.465,1.041-1.039s-0.466-1.043-1.041-1.043c-0.385,0-0.717,0.213-0.896,0.522h-3.496v0.063l-0.974,3.387
	l-2.082-5.423h-0.431l-2.241,5.683l-0.69-1.676l-0.532,1.562L271.337,283.828z"/>
<path fill="#FFFFFF" d="M269.208,275.699h-0.476l-2.149,5.479l-2.266-5.479h-0.384l-1.454,5.095h-2.663
	c-0.184-0.299-0.511-0.5-0.887-0.5c-0.574,0-1.04,0.465-1.04,1.04s0.466,1.042,1.04,1.042c0.386,0,0.718-0.211,0.898-0.521h3.493
	v-0.062l0.975-3.388l2.083,5.424h0.43l2.241-5.683l0.69,1.675l0.532-1.562L269.208,275.699z"/>
</svg>
