<?xml version="1.0" encoding="UTF-8" standalone="no"?>
<!-- Created with Inkscape (http://www.inkscape.org/) -->

<svg
   xmlns:dc="http://purl.org/dc/elements/1.1/"
   xmlns:cc="http://creativecommons.org/ns#"
   xmlns:rdf="http://www.w3.org/1999/02/22-rdf-syntax-ns#"
   xmlns:svg="http://www.w3.org/2000/svg"
   xmlns="http://www.w3.org/2000/svg"
   xmlns:sodipodi="http://sodipodi.sourceforge.net/DTD/sodipodi-0.dtd"
   xmlns:inkscape="http://www.inkscape.org/namespaces/inkscape"
   id="svg3243"
   version="1.1"
   inkscape:version="0.48.2 r9819"
   width="22.528749"
   height="292.73001"
   xml:space="preserve"
   sodipodi:docname="slider.large.ai"><metadata
     id="metadata3249"><rdf:RDF><cc:Work
         rdf:about=""><dc:format>image/svg+xml</dc:format><dc:type
           rdf:resource="http://purl.org/dc/dcmitype/StillImage" /><dc:title></dc:title></cc:Work></rdf:RDF></metadata><defs
     id="defs3247"><linearGradient
       x1="0"
       y1="0"
       x2="1"
       y2="0"
       gradientUnits="userSpaceOnUse"
       gradientTransform="matrix(11.200195,0,0,-11.200195,606.63867,612.50342)"
       spreadMethod="pad"
       id="linearGradient3265"><stop
         style="stop-opacity:1;stop-color:#292929"
         offset="0"
         id="stop3267" /><stop
         style="stop-opacity:1;stop-color:#505254"
         offset="1"
         id="stop3269" /></linearGradient><linearGradient
       x1="0"
       y1="0"
       x2="1"
       y2="0"
       gradientUnits="userSpaceOnUse"
       gradientTransform="matrix(11.200195,0,0,-11.200195,607.03906,612.50342)"
       spreadMethod="pad"
       id="linearGradient3285"><stop
         style="stop-opacity:1;stop-color:#292929"
         offset="0"
         id="stop3287" /><stop
         style="stop-opacity:1;stop-color:#505254"
         offset="1"
         id="stop3289" /></linearGradient><clipPath
       clipPathUnits="userSpaceOnUse"
       id="clipPath3297"><path
         d="m 0,1224 1224,0 L 1224,0 0,0 0,1224 z"
         id="path3299"
         inkscape:connector-curvature="0" /></clipPath><linearGradient
       x1="0"
       y1="0"
       x2="1"
       y2="0"
       gradientUnits="userSpaceOnUse"
       gradientTransform="matrix(11.199219,0,0,-11.199219,606.58789,612.50342)"
       spreadMethod="pad"
       id="linearGradient3317"><stop
         style="stop-opacity:1;stop-color:#292929"
         offset="0"
         id="stop3319" /><stop
         style="stop-opacity:1;stop-color:#505254"
         offset="1"
         id="stop3321" /></linearGradient><linearGradient
       x1="0"
       y1="0"
       x2="1"
       y2="0"
       gradientUnits="userSpaceOnUse"
       gradientTransform="matrix(11.199219,0,0,-11.199219,606.98828,612.50342)"
       spreadMethod="pad"
       id="linearGradient3337"><stop
         style="stop-opacity:1;stop-color:#292929"
         offset="0"
         id="stop3339" /><stop
         style="stop-opacity:1;stop-color:#505254"
         offset="1"
         id="stop3341" /></linearGradient><clipPath
       clipPathUnits="userSpaceOnUse"
       id="clipPath3349"><path
         d="m 0,1224 1224,0 L 1224,0 0,0 0,1224 z"
         id="path3351"
         inkscape:connector-curvature="0" /></clipPath><linearGradient
       x1="0"
       y1="0"
       x2="1"
       y2="0"
       gradientUnits="userSpaceOnUse"
       gradientTransform="matrix(-18.023926,0,0,18.023926,621.68164,643.27783)"
       spreadMethod="pad"
       id="linearGradient3369"><stop
         style="stop-opacity:1;stop-color:#4d4c4e"
         offset="0"
         id="stop3371" /><stop
         style="stop-opacity:1;stop-color:#373535"
         offset="1"
         id="stop3373" /></linearGradient><linearGradient
       x1="0"
       y1="0"
       x2="1"
       y2="0"
       gradientUnits="userSpaceOnUse"
       gradientTransform="matrix(-15.143555,0,0,15.143555,620.24121,643.27783)"
       spreadMethod="pad"
       id="linearGradient3389"><stop
         style="stop-opacity:1;stop-color:#373535"
         offset="0"
         id="stop3391" /><stop
         style="stop-opacity:1;stop-color:#4d4c4e"
         offset="1"
         id="stop3393" /></linearGradient><linearGradient
       x1="0"
       y1="0"
       x2="1"
       y2="0"
       gradientUnits="userSpaceOnUse"
       gradientTransform="matrix(0,166.33545,166.33545,0,608.95654,560.10938)"
       spreadMethod="pad"
       id="linearGradient3409"><stop
         style="stop-opacity:1;stop-color:#373535"
         offset="0"
         id="stop3411" /><stop
         style="stop-opacity:1;stop-color:#82d4f7"
         offset="0.507767"
         id="stop3413" /><stop
         style="stop-opacity:1;stop-color:#373535"
         offset="1"
         id="stop3415" /></linearGradient><linearGradient
       x1="0"
       y1="0"
       x2="1"
       y2="0"
       gradientUnits="userSpaceOnUse"
       gradientTransform="matrix(0,166.33545,-166.33545,0,616.67188,560.10938)"
       spreadMethod="pad"
       id="linearGradient3431"><stop
         style="stop-opacity:1;stop-color:#373535"
         offset="0"
         id="stop3433" /><stop
         style="stop-opacity:1;stop-color:#82d4f7"
         offset="0.507767"
         id="stop3435" /><stop
         style="stop-opacity:1;stop-color:#373535"
         offset="1"
         id="stop3437" /></linearGradient><linearGradient
       x1="0"
       y1="0"
       x2="1"
       y2="0"
       gradientUnits="userSpaceOnUse"
       gradientTransform="matrix(-18.023926,0,0,18.023926,621.68164,607.77148)"
       spreadMethod="pad"
       id="linearGradient3453"><stop
         style="stop-opacity:1;stop-color:#4d4c4e"
         offset="0"
         id="stop3455" /><stop
         style="stop-opacity:1;stop-color:#373535"
         offset="1"
         id="stop3457" /></linearGradient><linearGradient
       x1="0"
       y1="0"
       x2="1"
       y2="0"
       gradientUnits="userSpaceOnUse"
       gradientTransform="matrix(-15.143555,0,0,15.143555,620.24121,608.49121)"
       spreadMethod="pad"
       id="linearGradient3473"><stop
         style="stop-opacity:1;stop-color:#373535"
         offset="0"
         id="stop3475" /><stop
         style="stop-opacity:1;stop-color:#4d4c4e"
         offset="1"
         id="stop3477" /></linearGradient><linearGradient
       x1="0"
       y1="0"
       x2="1"
       y2="0"
       gradientUnits="userSpaceOnUse"
       gradientTransform="matrix(0,220.7627,220.7627,0,608.95654,498.10937)"
       spreadMethod="pad"
       id="linearGradient3493"><stop
         style="stop-opacity:1;stop-color:#373535"
         offset="0"
         id="stop3495" /><stop
         style="stop-opacity:1;stop-color:#82d4f7"
         offset="0.507767"
         id="stop3497" /><stop
         style="stop-opacity:1;stop-color:#373535"
         offset="1"
         id="stop3499" /></linearGradient><linearGradient
       x1="0"
       y1="0"
       x2="1"
       y2="0"
       gradientUnits="userSpaceOnUse"
       gradientTransform="matrix(0,220.7627,-220.7627,0,616.67188,498.10937)"
       spreadMethod="pad"
       id="linearGradient3515"><stop
         style="stop-opacity:1;stop-color:#373535"
         offset="0"
         id="stop3517" /><stop
         style="stop-opacity:1;stop-color:#82d4f7"
         offset="0.507767"
         id="stop3519" /><stop
         style="stop-opacity:1;stop-color:#373535"
         offset="1"
         id="stop3521" /></linearGradient></defs><sodipodi:namedview
     pagecolor="#ffffff"
     bordercolor="#666666"
     borderopacity="1"
     objecttolerance="10"
     gridtolerance="10"
     guidetolerance="10"
     inkscape:pageopacity="0"
     inkscape:pageshadow="2"
     inkscape:window-width="640"
     inkscape:window-height="480"
     id="namedview3245"
     showgrid="false"
     fit-margin-top="0"
     fit-margin-left="0"
     fit-margin-right="0"
     fit-margin-bottom="0"
     inkscape:zoom="0.15424837"
     inkscape:cx="10.42625"
     inkscape:cy="145.735"
     inkscape:window-x="0"
     inkscape:window-y="0"
     inkscape:window-maximized="0"
     inkscape:current-layer="g3251" /><g
     id="g3251"
     inkscape:groupmode="layer"
     inkscape:label="slider.large"
     transform="matrix(1.25,0,0,-1.25,-754.57375,911.995)"><g
       id="g3253"><g
         id="g3255"><g
           id="g3261"><g
             id="g3263"><path
               d="m 606.639,723.997 0,-222.983 c 0,-3.088 2.512,-5.602 5.599,-5.602 l 0,0 c 3.088,0 5.601,2.514 5.601,5.602 l 0,0 0,222.983 c 0,3.088 -2.513,5.599 -5.601,5.599 l 0,0 c -3.087,0 -5.599,-2.511 -5.599,-5.599"
               style="fill:url(#linearGradient3265);stroke:none"
               id="path3271"
               inkscape:connector-curvature="0" /></g></g></g></g><g
       id="g3273"><g
         id="g3275"><g
           id="g3281"><g
             id="g3283"><path
               d="m 607.039,723.997 0,-222.983 c 0,-3.088 2.513,-5.602 5.6,-5.602 l 0,0 c 3.088,0 5.6,2.514 5.6,5.602 l 0,0 0,222.983 c 0,3.088 -2.512,5.599 -5.6,5.599 l 0,0 c -3.088,0 -5.6,-2.511 -5.6,-5.599"
               style="fill:url(#linearGradient3285);stroke:none"
               id="path3291"
               inkscape:connector-curvature="0" /></g></g></g></g><g
       id="g3293"><g
         id="g3295"
         clip-path="url(#clipPath3297)"><g
           id="g3301"
           transform="translate(612.2383,729.1958)"><path
             d="m 0,0 c 2.872,0 5.2,-2.328 5.2,-5.199 l 0,-222.983 c 0,-2.873 -2.328,-5.201 -5.2,-5.201 -2.871,0 -5.199,2.328 -5.199,5.201 l 0,222.983 C -5.199,-2.328 -2.871,0 0,0"
             style="fill:#2c2c2d;fill-opacity:1;fill-rule:nonzero;stroke:none"
             id="path3303"
             inkscape:connector-curvature="0" /></g></g></g><g
       id="g3305"><g
         id="g3307"><g
           id="g3313"><g
             id="g3315"><path
               d="m 606.588,723.997 0,-222.983 c 0,-3.088 2.511,-5.602 5.599,-5.602 l 0,0 c 3.088,0 5.6,2.514 5.6,5.602 l 0,0 0,222.983 c 0,3.088 -2.512,5.599 -5.6,5.599 l 0,0 c -3.088,0 -5.599,-2.511 -5.599,-5.599"
               style="fill:url(#linearGradient3317);stroke:none"
               id="path3323"
               inkscape:connector-curvature="0" /></g></g></g></g><g
       id="g3325"><g
         id="g3327"><g
           id="g3333"><g
             id="g3335"><path
               d="m 606.988,723.997 0,-222.983 c 0,-3.088 2.512,-5.602 5.6,-5.602 l 0,0 c 3.088,0 5.6,2.514 5.6,5.602 l 0,0 0,222.983 c 0,3.088 -2.512,5.599 -5.6,5.599 l 0,0 c -3.088,0 -5.6,-2.511 -5.6,-5.599"
               style="fill:url(#linearGradient3337);stroke:none"
               id="path3343"
               inkscape:connector-curvature="0" /></g></g></g></g><g
       id="g3345"><g
         id="g3347"
         clip-path="url(#clipPath3349)"><g
           id="g3353"
           transform="translate(612.1875,729.1958)"><path
             d="m 0,0 c 2.871,0 5.199,-2.328 5.199,-5.199 l 0,-222.983 c 0,-2.873 -2.328,-5.201 -5.199,-5.201 -2.871,0 -5.199,2.328 -5.199,5.201 l 0,222.983 C -5.199,-2.328 -2.871,0 0,0"
             style="fill:#2c2c2d;fill-opacity:1;fill-rule:nonzero;stroke:none"
             id="path3355"
             inkscape:connector-curvature="0" /></g></g></g><g
       id="g3357"><g
         id="g3359"><g
           id="g3365"><g
             id="g3367"><path
               d="m 603.659,718.872 0,-151.192 c 0,-4.969 4.043,-9.011 9.011,-9.011 l 0,0 c 4.97,0 9.012,4.042 9.012,9.011 l 0,0 0,151.192 c 0,4.971 -4.042,9.013 -9.012,9.013 l 0,0 c -4.968,0 -9.011,-4.042 -9.011,-9.013"
               style="fill:url(#linearGradient3369);stroke:none"
               id="path3375"
               inkscape:connector-curvature="0" /></g></g></g></g><g
       id="g3377"><g
         id="g3379"><g
           id="g3385"><g
             id="g3387"><path
               d="m 605.099,718.872 0,-151.192 c 0,-4.181 3.39,-7.57 7.571,-7.57 l 0,0 c 4.183,0 7.572,3.389 7.572,7.57 l 0,0 0,151.192 c 0,4.183 -3.389,7.573 -7.572,7.573 l 0,0 c -4.181,0 -7.571,-3.39 -7.571,-7.573"
               style="fill:url(#linearGradient3389);stroke:none"
               id="path3395"
               inkscape:connector-curvature="0" /></g></g></g></g><g
       id="g3397"><g
         id="g3399"><g
           id="g3405"><g
             id="g3407"><path
               d="m 605.099,718.872 0,-151.192 c 0,-4.181 3.39,-7.57 7.571,-7.57 l 0,0 c 0.049,0 0.096,0.005 0.144,0.007 l 0,0 c -4.115,0.076 -7.428,3.431 -7.428,7.563 l 0,0 0,151.192 c 0,4.134 3.313,7.489 7.428,7.566 l 0,0 c -0.048,0 -0.095,0.007 -0.144,0.007 l 0,0 c -4.181,0 -7.571,-3.39 -7.571,-7.573"
               style="fill:url(#linearGradient3409);stroke:none"
               id="path3417"
               inkscape:connector-curvature="0" /></g></g></g></g><g
       id="g3419"><g
         id="g3421"><g
           id="g3427"><g
             id="g3429"><path
               d="m 612.814,726.438 c 4.114,-0.077 7.427,-3.432 7.427,-7.566 l 0,0 0,-151.192 c 0,-4.132 -3.313,-7.487 -7.427,-7.563 l 0,0 c 0.046,-0.002 0.095,-0.007 0.144,-0.007 l 0,0 c 4.181,0 7.571,3.389 7.571,7.57 l 0,0 0,151.192 c 0,4.183 -3.39,7.573 -7.571,7.573 l 0,0 c -0.049,0 -0.098,-0.007 -0.144,-0.007"
               style="fill:url(#linearGradient3431);stroke:none"
               id="path3439"
               inkscape:connector-curvature="0" /></g></g></g></g><g
       id="g3441"><g
         id="g3443"><g
           id="g3449"><g
             id="g3451"><path
               d="m 603.659,718.872 0,-213.193 c 0,-4.968 4.043,-9.01 9.011,-9.01 l 0,0 c 4.97,0 9.012,4.042 9.012,9.01 l 0,0 0,213.193 -18.023,0 z"
               style="fill:url(#linearGradient3453);stroke:none"
               id="path3459"
               inkscape:connector-curvature="0" /></g></g></g></g><g
       id="g3461"><g
         id="g3463"><g
           id="g3469"><g
             id="g3471"><path
               d="m 605.099,718.872 0,-213.193 c 0,-4.18 3.39,-7.57 7.571,-7.57 l 0,0 c 4.183,0 7.572,3.39 7.572,7.57 l 0,0 0,213.193 -15.143,0 z"
               style="fill:url(#linearGradient3473);stroke:none"
               id="path3479"
               inkscape:connector-curvature="0" /></g></g></g></g><g
       id="g3481"><g
         id="g3483"><g
           id="g3489"><g
             id="g3491"><path
               d="m 605.099,718.872 0,-213.193 c 0,-4.18 3.39,-7.57 7.571,-7.57 l 0,0 c 0.049,0 0.096,0.006 0.144,0.009 l 0,0 c -4.115,0.075 -7.428,3.429 -7.428,7.561 l 0,0 0,213.193 -0.287,0 z"
               style="fill:url(#linearGradient3493);stroke:none"
               id="path3501"
               inkscape:connector-curvature="0" /></g></g></g></g><g
       id="g3503"><g
         id="g3505"><g
           id="g3511"><g
             id="g3513"><path
               d="m 620.241,718.872 0,-213.193 c 0,-4.132 -3.313,-7.486 -7.427,-7.561 l 0,0 c 0.046,-0.003 0.095,-0.009 0.144,-0.009 l 0,0 c 4.181,0 7.571,3.39 7.571,7.57 l 0,0 0,213.193 -0.288,0 z"
               style="fill:url(#linearGradient3515);stroke:none"
               id="path3523"
               inkscape:connector-curvature="0" /></g></g></g></g></g></svg>