<?xml version="1.0" encoding="UTF-8" standalone="no"?>
<!-- Created with Inkscape (http://www.inkscape.org/) -->

<svg
   xmlns:dc="http://purl.org/dc/elements/1.1/"
   xmlns:cc="http://creativecommons.org/ns#"
   xmlns:rdf="http://www.w3.org/1999/02/22-rdf-syntax-ns#"
   xmlns:svg="http://www.w3.org/2000/svg"
   xmlns="http://www.w3.org/2000/svg"
   xmlns:sodipodi="http://sodipodi.sourceforge.net/DTD/sodipodi-0.dtd"
   xmlns:inkscape="http://www.inkscape.org/namespaces/inkscape"
   id="svg2"
   version="1.1"
   inkscape:version="0.48.2 r9819"
   width="46.735001"
   height="18.928749"
   xml:space="preserve"
   sodipodi:docname="on-off.ai"><metadata
     id="metadata8"><rdf:RDF><cc:Work
         rdf:about=""><dc:format>image/svg+xml</dc:format><dc:type
           rdf:resource="http://purl.org/dc/dcmitype/StillImage" /><dc:title></dc:title></cc:Work></rdf:RDF></metadata><defs
     id="defs6"><linearGradient
       x1="0"
       y1="0"
       x2="1"
       y2="0"
       gradientUnits="userSpaceOnUse"
       gradientTransform="matrix(0,15.142578,15.142578,0,613.37012,604.37305)"
       spreadMethod="pad"
       id="linearGradient24"><stop
         style="stop-opacity:1;stop-color:#737577"
         offset="0"
         id="stop26" /><stop
         style="stop-opacity:1;stop-color:#373535"
         offset="1"
         id="stop28" /></linearGradient><linearGradient
       x1="0"
       y1="0"
       x2="1"
       y2="0"
       gradientUnits="userSpaceOnUse"
       gradientTransform="matrix(0,13.941406,-13.941406,0,613.37012,604.97363)"
       spreadMethod="pad"
       id="linearGradient44"><stop
         style="stop-opacity:1;stop-color:#737577"
         offset="0"
         id="stop46" /><stop
         style="stop-opacity:1;stop-color:#373535"
         offset="1"
         id="stop48" /></linearGradient><linearGradient
       x1="0"
       y1="0"
       x2="1"
       y2="0"
       gradientUnits="userSpaceOnUse"
       gradientTransform="matrix(0,13.094727,-13.094727,0,613.37012,605.39746)"
       spreadMethod="pad"
       id="linearGradient64"><stop
         style="stop-opacity:1;stop-color:#373535"
         offset="0"
         id="stop66" /><stop
         style="stop-opacity:1;stop-color:#737577"
         offset="0.994812"
         id="stop68" /><stop
         style="stop-opacity:1;stop-color:#737577"
         offset="1"
         id="stop70" /></linearGradient></defs><sodipodi:namedview
     pagecolor="#ffffff"
     bordercolor="#666666"
     borderopacity="1"
     objecttolerance="10"
     gridtolerance="10"
     guidetolerance="10"
     inkscape:pageopacity="0"
     inkscape:pageshadow="2"
     inkscape:window-width="640"
     inkscape:window-height="480"
     id="namedview4"
     showgrid="false"
     fit-margin-top="0"
     fit-margin-left="0"
     fit-margin-right="0"
     fit-margin-bottom="0"
     inkscape:zoom="0.15424837"
     inkscape:cx="21.65375"
     inkscape:cy="9.53375"
     inkscape:window-x="0"
     inkscape:window-y="0"
     inkscape:window-maximized="0"
     inkscape:current-layer="g10" /><g
     id="g10"
     inkscape:groupmode="layer"
     inkscape:label="on-off"
     transform="matrix(1.25,0,0,-1.25,-743.34625,774.395)"><g
       id="g12"><g
         id="g14"><g
           id="g20"><g
             id="g22"><path
               d="m 600.988,619.516 c -3.48,0 -6.311,-3.397 -6.311,-7.57 l 0,0 c 0,-4.174 2.831,-7.573 6.311,-7.573 l 0,0 24.767,0 c 3.479,0 6.31,3.399 6.31,7.573 l 0,0 c 0,4.173 -2.831,7.57 -6.31,7.57 l 0,0 -24.767,0 z"
               style="fill:url(#linearGradient24);stroke:none"
               id="path30"
               inkscape:connector-curvature="0" /></g></g></g></g><g
       id="g32"><g
         id="g34"><g
           id="g40"><g
             id="g42"><path
               d="m 600.988,618.916 c -3.149,0 -5.711,-3.129 -5.711,-6.97 l 0,0 c 0,-3.845 2.562,-6.971 5.711,-6.971 l 0,0 24.767,0 c 3.147,0 5.707,3.126 5.707,6.971 l 0,0 c 0,3.841 -2.56,6.97 -5.707,6.97 l 0,0 -24.767,0 z"
               style="fill:url(#linearGradient44);stroke:none"
               id="path50"
               inkscape:connector-curvature="0" /></g></g></g></g><g
       id="g52"><g
         id="g54"><g
           id="g60"><g
             id="g62"><path
               d="m 600.988,618.493 c -2.937,0 -5.327,-2.938 -5.327,-6.547 l 0,0 c 0,-3.612 2.39,-6.548 5.327,-6.548 l 0,0 24.767,0 c 2.935,0 5.323,2.936 5.323,6.548 l 0,0 c 0,3.609 -2.388,6.547 -5.323,6.547 l 0,0 -24.767,0 z"
               style="fill:url(#linearGradient64);stroke:none"
               id="path72"
               inkscape:connector-curvature="0" /></g></g></g></g></g></svg>