<?xml version="1.0" encoding="UTF-8" standalone="no"?>
<!-- Created with Inkscape (http://www.inkscape.org/) -->

<svg
   xmlns:dc="http://purl.org/dc/elements/1.1/"
   xmlns:cc="http://creativecommons.org/ns#"
   xmlns:rdf="http://www.w3.org/1999/02/22-rdf-syntax-ns#"
   xmlns:svg="http://www.w3.org/2000/svg"
   xmlns="http://www.w3.org/2000/svg"
   xmlns:sodipodi="http://sodipodi.sourceforge.net/DTD/sodipodi-0.dtd"
   xmlns:inkscape="http://www.inkscape.org/namespaces/inkscape"
   id="svg3173"
   version="1.1"
   inkscape:version="0.48.2 r9819"
   width="117.68375"
   height="18.9275"
   xml:space="preserve"
   sodipodi:docname="slider.blue.ai"><metadata
     id="metadata3179"><rdf:RDF><cc:Work
         rdf:about=""><dc:format>image/svg+xml</dc:format><dc:type
           rdf:resource="http://purl.org/dc/dcmitype/StillImage" /><dc:title></dc:title></cc:Work></rdf:RDF></metadata><defs
     id="defs3177"><linearGradient
       x1="0"
       y1="0"
       x2="1"
       y2="0"
       gradientUnits="userSpaceOnUse"
       gradientTransform="matrix(0,15.141602,15.141602,0,612.68213,604.80273)"
       spreadMethod="pad"
       id="linearGradient3195"><stop
         style="stop-opacity:1;stop-color:#737577"
         offset="0"
         id="stop3197" /><stop
         style="stop-opacity:1;stop-color:#373535"
         offset="1"
         id="stop3199" /></linearGradient><linearGradient
       x1="0"
       y1="0"
       x2="1"
       y2="0"
       gradientUnits="userSpaceOnUse"
       gradientTransform="matrix(0,13.939453,13.939453,0,612.68311,605.4043)"
       spreadMethod="pad"
       id="linearGradient3215"><stop
         style="stop-opacity:1;stop-color:#737577"
         offset="0"
         id="stop3217" /><stop
         style="stop-opacity:1;stop-color:#373535"
         offset="1"
         id="stop3219" /></linearGradient><radialGradient
       fx="0"
       fy="0"
       cx="0"
       cy="0"
       r="1"
       gradientUnits="userSpaceOnUse"
       gradientTransform="matrix(48.626846,0,0,-48.626846,646.02246,621.90039)"
       spreadMethod="pad"
       id="radialGradient3235"><stop
         style="stop-opacity:1;stop-color:#007da8"
         offset="0"
         id="stop3237" /><stop
         style="stop-opacity:1;stop-color:#69cef6"
         offset="1"
         id="stop3239" /></radialGradient></defs><sodipodi:namedview
     pagecolor="#ffffff"
     bordercolor="#666666"
     borderopacity="1"
     objecttolerance="10"
     gridtolerance="10"
     guidetolerance="10"
     inkscape:pageopacity="0"
     inkscape:pageshadow="2"
     inkscape:window-width="640"
     inkscape:window-height="480"
     id="namedview3175"
     showgrid="false"
     fit-margin-top="0"
     fit-margin-left="0"
     fit-margin-right="0"
     fit-margin-bottom="0"
     inkscape:zoom="0.15424837"
     inkscape:cx="57.98875"
     inkscape:cy="8.99625"
     inkscape:window-x="0"
     inkscape:window-y="0"
     inkscape:window-maximized="0"
     inkscape:current-layer="g3181" /><g
     id="g3181"
     inkscape:groupmode="layer"
     inkscape:label="slider.blue"
     transform="matrix(1.25,0,0,-1.25,-707.01125,774.93125)"><g
       id="g3183"><g
         id="g3185"><g
           id="g3191"><g
             id="g3193"><path
               d="m 571.918,619.945 c -3.48,0 -6.309,-3.396 -6.309,-7.571 l 0,0 c 0,-4.175 2.829,-7.571 6.309,-7.571 l 0,0 81.527,0 c 3.479,0 6.311,3.396 6.311,7.571 l 0,0 c 0,4.175 -2.832,7.571 -6.311,7.571 l 0,0 -81.527,0 z"
               style="fill:url(#linearGradient3195);stroke:none"
               id="path3201"
               inkscape:connector-curvature="0" /></g></g></g></g><g
       id="g3203"><g
         id="g3205"><g
           id="g3211"><g
             id="g3213"><path
               d="m 571.918,619.344 c -3.148,0 -5.708,-3.128 -5.708,-6.97 l 0,0 c 0,-3.843 2.56,-6.97 5.708,-6.97 l 0,0 81.527,0 c 3.148,0 5.71,3.127 5.71,6.97 l 0,0 c 0,3.842 -2.562,6.97 -5.71,6.97 l 0,0 -81.527,0 z"
               style="fill:url(#linearGradient3215);stroke:none"
               id="path3221"
               inkscape:connector-curvature="0" /></g></g></g></g><g
       id="g3223"><g
         id="g3225"><g
           id="g3231"><g
             id="g3233"><path
               d="m 571.918,618.921 c -2.935,0 -5.323,-2.937 -5.323,-6.547 l 0,0 c 0,-3.61 2.388,-6.548 5.323,-6.548 l 0,0 81.527,0 c 2.937,0 5.326,2.938 5.326,6.548 l 0,0 c 0,3.61 -2.389,6.547 -5.326,6.547 l 0,0 -81.527,0 z"
               style="fill:url(#radialGradient3235);stroke:none"
               id="path3241"
               inkscape:connector-curvature="0" /></g></g></g></g></g></svg>