<?xml version="1.0" encoding="UTF-8" standalone="no"?>
<!-- Created with Inkscape (http://www.inkscape.org/) -->

<svg
   xmlns:dc="http://purl.org/dc/elements/1.1/"
   xmlns:cc="http://creativecommons.org/ns#"
   xmlns:rdf="http://www.w3.org/1999/02/22-rdf-syntax-ns#"
   xmlns:svg="http://www.w3.org/2000/svg"
   xmlns="http://www.w3.org/2000/svg"
   xmlns:sodipodi="http://sodipodi.sourceforge.net/DTD/sodipodi-0.dtd"
   xmlns:inkscape="http://www.inkscape.org/namespaces/inkscape"
   id="svg2"
   version="1.1"
   inkscape:version="0.48.2 r9819"
   width="41.628754"
   height="41.62875"
   xml:space="preserve"
   sodipodi:docname="sonos_playbar.ai"><metadata
     id="metadata8"><rdf:RDF><cc:Work
         rdf:about=""><dc:format>image/svg+xml</dc:format><dc:type
           rdf:resource="http://purl.org/dc/dcmitype/StillImage" /><dc:title></dc:title></cc:Work></rdf:RDF></metadata><defs
     id="defs6"><clipPath
       clipPathUnits="userSpaceOnUse"
       id="clipPath16"><path
         d="m 0,1224 1224,0 L 1224,0 0,0 0,1224 z"
         id="path18"
         inkscape:connector-curvature="0" /></clipPath></defs><sodipodi:namedview
     pagecolor="#ffffff"
     bordercolor="#666666"
     borderopacity="1"
     objecttolerance="10"
     gridtolerance="10"
     guidetolerance="10"
     inkscape:pageopacity="0"
     inkscape:pageshadow="2"
     inkscape:window-width="640"
     inkscape:window-height="480"
     id="namedview4"
     showgrid="false"
     fit-margin-top="0"
     fit-margin-left="0"
     fit-margin-right="0"
     fit-margin-bottom="0"
     inkscape:zoom="0.15424837"
     inkscape:cx="21.06775"
     inkscape:cy="20.7715"
     inkscape:window-x="0"
     inkscape:window-y="0"
     inkscape:window-maximized="0"
     inkscape:current-layer="g10" /><g
     id="g10"
     inkscape:groupmode="layer"
     inkscape:label="sonos_playbar"
     transform="matrix(1.25,0,0,-1.25,-743.93225,785.85725)"><g
       id="g12"><g
         id="g14"
         clip-path="url(#clipPath16)"><g
           id="g20"
           transform="translate(611.7998,595.3828)"><path
             d="m 0,0 c -9.198,0 -16.654,7.457 -16.654,16.653 0,9.191 7.452,16.65 16.65,16.65 9.197,0 16.653,-7.457 16.653,-16.65 C 16.653,7.457 9.197,0 0,0"
             style="fill:#ffffff;fill-opacity:1;fill-rule:nonzero;stroke:none"
             id="path22"
             inkscape:connector-curvature="0" /></g><g
           id="g24"
           transform="translate(599.5586,603.0156)"><path
             d="m 0,0 27.653,8.627 c 0.004,0.133 0.017,0.262 0.017,0.395 0,0.12 -0.016,0.243 -0.017,0.365 L -0.442,0.624 C -0.303,0.41 -0.15,0.207 0,0"
             style="fill:#292929;fill-opacity:1;fill-rule:nonzero;stroke:none"
             id="path26"
             inkscape:connector-curvature="0" /></g><g
           id="g28"
           transform="translate(601.8379,600.5273)"><path
             d="m 0,0 24.916,7.775 c 0.068,0.274 0.14,0.544 0.193,0.819 L -0.625,0.566 C -0.425,0.37 -0.213,0.184 0,0"
             style="fill:#292929;fill-opacity:1;fill-rule:nonzero;stroke:none"
             id="path30"
             inkscape:connector-curvature="0" /></g><g
           id="g32"
           transform="translate(600.6016,601.7412)"><path
             d="m 0,0 26.48,8.259 c 0.035,0.26 0.067,0.521 0.084,0.787 L -0.534,0.595 C -0.364,0.39 -0.18,0.196 0,0"
             style="fill:#292929;fill-opacity:1;fill-rule:nonzero;stroke:none"
             id="path34"
             inkscape:connector-curvature="0" /></g><g
           id="g36"
           transform="translate(615.9414,614.2603)"><path
             d="m 0,0 -0.05,0 c -0.044,-0.783 -1.1,-1.417 -2.415,-1.445 -1.384,-0.026 -2.536,0.62 -2.584,1.445 -0.045,0.829 1.035,1.522 2.418,1.55 0.66,0.013 1.27,-0.128 1.731,-0.372 l 0,5.267 -6.1,-1.748 0,-6.695 -0.05,0 c -0.044,-0.785 -1.1,-1.419 -2.415,-1.45 -1.384,-0.027 -2.536,0.623 -2.584,1.45 -0.045,0.828 1.035,1.518 2.418,1.549 0.66,0.013 1.27,-0.128 1.731,-0.369 l 0,7.099 L 0,8.534 0,0 z m -4.025,13.088 c -8.458,0 -15.317,-6.857 -15.317,-15.311 0,-2.812 0.768,-5.43 2.087,-7.694 l 28.484,8.884 C 10.621,6.863 4.033,13.088 -4.025,13.088"
             style="fill:#292929;fill-opacity:1;fill-rule:nonzero;stroke:none"
             id="path38"
             inkscape:connector-curvature="0" /></g><g
           id="g40"
           transform="translate(603.2949,599.3818)"><path
             d="m 0,0 22.897,7.142 c 0.111,0.285 0.222,0.568 0.318,0.861 L -0.718,0.538 C -0.481,0.354 -0.247,0.169 0,0"
             style="fill:#292929;fill-opacity:1;fill-rule:nonzero;stroke:none"
             id="path42"
             inkscape:connector-curvature="0" /></g><g
           id="g44"
           transform="translate(611.916,596.7227)"><path
             d="M 0,0 C 6.141,0 11.417,3.62 13.862,8.834 L -7.719,2.102 C -5.449,0.773 -2.817,0 0,0"
             style="fill:#292929;fill-opacity:1;fill-rule:nonzero;stroke:none"
             id="path46"
             inkscape:connector-curvature="0" /></g></g></g></g></svg>