<?xml version="1.0" encoding="utf-8"?>
<!-- Generator: Adobe Illustrator 15.1.0, SVG Export Plug-In . SVG Version: 6.00 Build 0)  -->
<!DOCTYPE svg PUBLIC "-//W3C//DTD SVG 1.1//EN" "http://www.w3.org/Graphics/SVG/1.1/DTD/svg11.dtd">
<svg version="1.1"
	 id="svg3381" sodipodi:docname="volume.control.ai" xmlns:inkscape="http://www.inkscape.org/namespaces/inkscape" inkscape:version="0.48.2 r9819" xmlns:sodipodi="http://sodipodi.sourceforge.net/DTD/sodipodi-0.dtd" xmlns:svg="http://www.w3.org/2000/svg" xmlns:rdf="http://www.w3.org/1999/02/22-rdf-syntax-ns#" xmlns:cc="http://creativecommons.org/ns#" xmlns:dc="http://purl.org/dc/elements/1.1/"
	 xmlns="http://www.w3.org/2000/svg" xmlns:xlink="http://www.w3.org/1999/xlink" x="0px" y="0px" width="175.415px"
	 height="170.668px" viewBox="0 0 175.415 170.668" enable-background="new 0 0 175.415 170.668" xml:space="preserve">
<sodipodi:namedview  fit-margin-bottom="0" fit-margin-top="0" fit-margin-right="0" inkscape:window-maximized="0" inkscape:window-x="0" inkscape:window-y="0" pagecolor="#ffffff" bordercolor="#666666" objecttolerance="10" gridtolerance="10" borderopacity="1" inkscape:cy="84.81375" inkscape:window-height="480" showgrid="false" inkscape:pageopacity="0" inkscape:zoom="0.15424837" inkscape:window-width="640" guidetolerance="10" id="namedview3383" inkscape:cx="87.146" inkscape:current-layer="g3389" fit-margin-left="0" inkscape:pageshadow="2">
	</sodipodi:namedview>
<g>
	<g>
		<linearGradient id="SVGID_1_" gradientUnits="userSpaceOnUse" x1="36.6157" y1="36.1182" x2="138.1656" y2="137.6681">
			<stop  offset="0" style="stop-color:#110A0B"/>
			<stop  offset="0.125" style="stop-color:#191414"/>
			<stop  offset="0.25" style="stop-color:#231E1F"/>
			<stop  offset="0.375" style="stop-color:#312E2E"/>
			<stop  offset="0.5" style="stop-color:#686666"/>
			<stop  offset="0.635" style="stop-color:#312E2E"/>
			<stop  offset="0.75" style="stop-color:#231E1F"/>
			<stop  offset="0.875" style="stop-color:#191414"/>
			<stop  offset="1" style="stop-color:#110A0B"/>
		</linearGradient>
		<path fill="url(#SVGID_1_)" d="M159.196,86.895c0,39.658-32.15,71.807-71.804,71.807c-39.658,0-71.806-32.148-71.806-71.807
			c0-39.661,32.148-71.81,71.806-71.81C127.045,15.085,159.196,47.234,159.196,86.895z"/>
		<g>
			<g>
				<g>
					<defs>
						<path id="SVGID_2_" d="M87.392,86.895L87.392,86.895c7.569,0,13.118,0,17.544,0s7.721,0,10.41,0c2.693,0,4.773,0,6.58,0
							c1.805,0,3.32,0,4.793,0c1.471,0,2.887,0,4.48,0c1.592,0,3.188,0,5.951,0c2.766,0,5.633,0,8.662,0s6.219,0,9.623,0
							c0-7.845-1.318-15.206-3.615-21.946c-2.293-6.739-5.562-12.86-9.531-18.269c-3.967-5.407-8.633-10.098-13.773-14.004
							s-10.756-7.023-16.67-9.303c-5.91-2.28-12.123-3.717-18.49-4.271c-6.362-0.552-12.856-0.188-18.851,0.962
							c-5.996,1.148-11.635,3.066-16.843,5.601c-5.209,2.536-9.99,5.688-14.279,9.328c-4.287,3.638-8.08,7.764-11.316,12.274
							c-3.236,4.51-5.914,9.407-7.966,14.591c-2.053,5.184-3.479,10.664-4.204,16.354c-0.727,5.687-0.727,11.674,0,17.365
							c0.725,5.689,2.15,11.17,4.204,16.354c2.053,5.184,4.73,10.084,7.966,14.592c3.237,4.512,7.03,8.635,11.318,12.273
							c4.287,3.637,9.068,6.791,14.277,9.324c5.208,2.531,10.845,4.453,16.843,5.604c5.994,1.146,12.488,1.514,18.851,0.961
							c6.363-0.557,12.58-1.992,18.49-4.271c5.914-2.281,11.529-5.395,16.67-9.301s9.805-8.598,13.771-14.006
							c3.967-5.406,7.24-11.529,9.533-18.268c2.297-6.74,3.615-14.1,3.615-21.943c-3.404,0-6.594,0-9.623,0s-5.896,0-8.662,0
							c-2.764,0-4.359,0-5.951,0c-1.594,0-3.01,0-4.48,0c-1.473,0-2.988,0-4.793,0c-1.807,0-3.887,0-6.58,0
							c-2.689,0-5.984,0-10.41,0S94.961,86.895,87.392,86.895z"/>
					</defs>
					<clipPath id="SVGID_3_">
						<use xlink:href="#SVGID_2_"  overflow="visible"/>
					</clipPath>
					<g clip-path="url(#SVGID_3_)">
						<image overflow="visible" width="137" height="137" xlink:href="FAA12A73.png"  transform="matrix(1 0 0 1 19.2075 18.834)">
						</image>
					</g>
				</g>
			</g>
		</g>
		<path fill="#404041" d="M46.021,53.561c-3.768,0-6.834-3.065-6.834-6.833s3.067-6.834,6.834-6.834
			c3.769,0,6.834,3.065,6.834,6.834S49.79,53.561,46.021,53.561z"/>
		<radialGradient id="SVGID_4_" cx="49.9639" cy="40.9438" r="13.4187" gradientUnits="userSpaceOnUse">
			<stop  offset="0" style="stop-color:#000000"/>
			<stop  offset="0.5556" style="stop-color:#2D2D2E"/>
			<stop  offset="1" style="stop-color:#4D4D4F"/>
		</radialGradient>
		<circle fill="url(#SVGID_4_)" cx="46.022" cy="46.727" r="6.132"/>
		<g>
			
				<radialGradient id="SVGID_5_" cx="-25.5894" cy="98.71" r="9.3673" gradientTransform="matrix(0.8221 -0.5694 0.5694 0.8221 12.9667 -46.0886)" gradientUnits="userSpaceOnUse">
				<stop  offset="0" style="stop-color:#5BC6F1"/>
				<stop  offset="0.2849" style="stop-color:#3E7187"/>
				<stop  offset="0.5699" style="stop-color:#231F20"/>
			</radialGradient>
			<circle fill="url(#SVGID_5_)" cx="46.022" cy="46.728" r="4.356"/>
			
				<radialGradient id="SVGID_6_" cx="-95.8721" cy="96.1533" r="7.9852" gradientTransform="matrix(0.6345 -0.4395 0.3357 0.4847 75.0673 -41.3817)" gradientUnits="userSpaceOnUse">
				<stop  offset="0" style="stop-color:#92A5B1"/>
				<stop  offset="0.0488" style="stop-color:#8898A2"/>
				<stop  offset="0.1509" style="stop-color:#768188"/>
				<stop  offset="0.2559" style="stop-color:#6A7075"/>
				<stop  offset="0.3644" style="stop-color:#62666A"/>
				<stop  offset="0.4819" style="stop-color:#606366"/>
				<stop  offset="0.6023" style="stop-color:#676A6D"/>
				<stop  offset="0.7811" style="stop-color:#7B7E81"/>
				<stop  offset="0.9955" style="stop-color:#9C9EA0"/>
				<stop  offset="1" style="stop-color:#9D9FA1"/>
			</radialGradient>
			<path fill="url(#SVGID_6_)" d="M47.788,43.833c0.749,1.079,0.211,2.739-1.198,3.713c-1.406,0.978-3.153,0.894-3.895-0.181
				c-0.746-1.073-0.206-2.738,1.197-3.71C45.301,42.681,47.046,42.759,47.788,43.833z"/>
		</g>
	</g>
</g>
</svg>
