<?xml version="1.0" encoding="utf-8"?>
<!-- Generator: Adobe Illustrator 15.1.0, SVG Export Plug-In . SVG Version: 6.00 Build 0)  -->
<!DOCTYPE svg PUBLIC "-//W3C//DTD SVG 1.1//EN" "http://www.w3.org/Graphics/SVG/1.1/DTD/svg11.dtd">
<svg version="1.1"
	 id="svg2" xmlns:dc="http://purl.org/dc/elements/1.1/" sodipodi:docname="window.ai" xmlns:sodipodi="http://sodipodi.sourceforge.net/DTD/sodipodi-0.dtd" xmlns:cc="http://creativecommons.org/ns#" inkscape:version="0.48.2 r9819" xmlns:svg="http://www.w3.org/2000/svg" xmlns:rdf="http://www.w3.org/1999/02/22-rdf-syntax-ns#" xmlns:inkscape="http://www.inkscape.org/namespaces/inkscape"
	 xmlns="http://www.w3.org/2000/svg" xmlns:xlink="http://www.w3.org/1999/xlink" x="0px" y="0px" width="598.57px"
	 height="497.348px" viewBox="0 0 598.57 497.348" enable-background="new 0 0 598.57 497.348" xml:space="preserve">
<rect fill="#717272" width="598.57" height="497.35"/>
<path fill="#1D1D1D" d="M460.002,131.458h-0.627H139.521h-0.877H14.462v343.685c0,2.762,2.239,5,5,5h118.084h1.098h0.877h319.854
	h0.627h1.23h5.02h112.932c2.762,0,5-2.238,5-5V131.458H460.002z"/>
<path fill="#343434" d="M593.966,490.021c0,1.384-1.119,2.5-2.5,2.5H7.104c-1.381,0-2.5-1.116-2.5-2.5V7.865
	c0-1.381,1.119-2.5,2.5-2.5h584.361c1.381,0,2.5,1.119,2.5,2.5L593.966,490.021L593.966,490.021z"/>
<polyline fill="#1D1D1D" points="14.462,131.458 14.462,62.78 584.064,62.78 584.064,130.208 14.234,130.208 "/>
</svg>
