<?xml version="1.0" encoding="utf-8"?>
<!-- Generator: Adobe Illustrator 15.1.0, SVG Export Plug-In . SVG Version: 6.00 Build 0)  -->
<!DOCTYPE svg PUBLIC "-//W3C//DTD SVG 1.1//EN" "http://www.w3.org/Graphics/SVG/1.1/DTD/svg11.dtd">
<svg version="1.1"
	 id="Layer_1" xmlns:inkscape="http://www.inkscape.org/namespaces/inkscape" xmlns:dc="http://purl.org/dc/elements/1.1/" xmlns:sodipodi="http://sodipodi.sourceforge.net/DTD/sodipodi-0.dtd" sodipodi:docname="ecobee.svg" xmlns:rdf="http://www.w3.org/1999/02/22-rdf-syntax-ns#" xmlns:svg="http://www.w3.org/2000/svg" xmlns:cc="http://creativecommons.org/ns#" inkscape:version="0.48.2 r9819"
	 xmlns="http://www.w3.org/2000/svg" xmlns:xlink="http://www.w3.org/1999/xlink" x="0px" y="0px" width="44.637px"
	 height="44.637px" viewBox="0 0 44.637 44.637" enable-background="new 0 0 44.637 44.637" xml:space="preserve">
<g>
	<path fill="#333333" d="M22.462,1.502c-11.497,0-20.812,9.321-20.812,20.821c0,11.497,9.312,20.812,20.812,20.812
		c11.496,0.003,20.816-9.313,20.816-20.812C43.278,10.823,33.957,1.502,22.462,1.502z M22.607,41.465
		c-10.573,0-19.146-8.574-19.146-19.143c0-10.574,8.573-19.146,19.146-19.146c10.575,0,19.145,8.571,19.145,19.146
		C41.75,32.891,33.184,41.465,22.607,41.465z"/>
	<path fill="#333333" d="M22.462,43.135c-11.497,0-20.812-9.312-20.812-20.812S10.962,1.502,22.462,1.502
		c11.496,0,20.816,9.321,20.816,20.821C43.278,33.818,33.957,43.138,22.462,43.135z"/>
	<path fill="#333333" d="M22.607,3.176c-10.573,0-19.146,8.572-19.146,19.146c0,10.564,8.573,19.143,19.146,19.143
		c10.577,0,19.143-8.574,19.145-19.143C41.752,11.747,33.182,3.176,22.607,3.176z"/>
</g>
<path fill="#FFFFFF" d="M21.511,20.116c0,0.796-0.646,1.44-1.441,1.44H15.05c-0.794,0-1.44-0.645-1.44-1.44v-5.021
	c0-0.795,0.646-1.439,1.44-1.439h5.021c0.796,0,1.441,0.645,1.441,1.439V20.116z"/>
<path fill="#FFFFFF" d="M32.045,20.116c0,0.796-0.645,1.44-1.439,1.44h-5.021c-0.795,0-1.439-0.645-1.439-1.44v-5.021
	c0-0.795,0.645-1.439,1.439-1.439h5.021c0.795,0,1.439,0.645,1.439,1.439V20.116z"/>
<path fill="#FFFFFF" d="M21.511,30.821c0,0.796-0.646,1.441-1.441,1.441H15.05c-0.794,0-1.44-0.646-1.44-1.441v-5.02
	c0-0.795,0.646-1.441,1.44-1.441h5.021c0.796,0,1.441,0.646,1.441,1.441V30.821z"/>
<path fill="#FFFFFF" d="M32.045,30.821c0,0.796-0.645,1.441-1.439,1.441h-5.021c-0.795,0-1.439-0.646-1.439-1.441v-5.02
	c0-0.795,0.645-1.441,1.439-1.441h5.021c0.795,0,1.439,0.646,1.439,1.441V30.821z"/>
</svg>
