<?xml version="1.0" encoding="utf-8"?>
<!-- Generator: Adobe Illustrator 15.1.0, SVG Export Plug-In . SVG Version: 6.00 Build 0)  -->
<!DOCTYPE svg PUBLIC "-//W3C//DTD SVG 1.1//EN" "http://www.w3.org/Graphics/SVG/1.1/DTD/svg11.dtd">
<svg version="1.1"
	 id="Layer_1" xmlns:inkscape="http://www.inkscape.org/namespaces/inkscape" xmlns:dc="http://purl.org/dc/elements/1.1/" xmlns:sodipodi="http://sodipodi.sourceforge.net/DTD/sodipodi-0.dtd" sodipodi:docname="ecobee.svg" xmlns:rdf="http://www.w3.org/1999/02/22-rdf-syntax-ns#" xmlns:svg="http://www.w3.org/2000/svg" xmlns:cc="http://creativecommons.org/ns#" inkscape:version="0.48.2 r9819"
	 xmlns="http://www.w3.org/2000/svg" xmlns:xlink="http://www.w3.org/1999/xlink" x="0px" y="0px" width="44.637px"
	 height="44.637px" viewBox="0 0 44.637 44.637" enable-background="new 0 0 44.637 44.637" xml:space="preserve">
<path fill="#333333" d="M22.522,43.19c-11.497,0-20.812-9.312-20.812-20.812S11.022,1.557,22.522,1.557
	c11.496,0,20.816,9.321,20.816,20.821C43.338,33.872,34.018,43.193,22.522,43.19z"/>
<g>
	<path fill="#333333" d="M24.273,27.514h-3.228c-0.445,0-0.807,0.358-0.807,0.807c0,0.445,0.36,0.808,0.807,0.808h3.228
		c0.447,0,0.808-0.36,0.808-0.808C25.079,27.873,24.72,27.514,24.273,27.514z"/>
	<path fill="#333333" d="M24.273,30.739h-3.228c-0.445,0-0.807,0.361-0.807,0.808c0,0.447,0.36,0.808,0.807,0.808h3.228
		c0.447,0,0.808-0.358,0.808-0.808C25.079,31.1,24.72,30.739,24.273,30.739z"/>
	<path fill="#333333" d="M22.667,3.231c-10.573,0-19.146,8.572-19.146,19.146c0,10.562,8.573,19.143,19.146,19.143
		c10.577,0,19.144-8.574,19.145-19.143C41.812,11.802,33.241,3.231,22.667,3.231z"/>
</g>
<path fill="#FFFFFF" d="M16.635,16.536c0,0.379-0.306,0.684-0.684,0.684h-2.386c-0.378,0-0.683-0.305-0.683-0.684v-2.386
	c0-0.378,0.305-0.683,0.683-0.683h2.386c0.378,0,0.684,0.305,0.684,0.683V16.536z"/>
<path fill="#FFFFFF" d="M31.836,16.536c0,0.379-0.307,0.684-0.685,0.684H18.571c-0.378,0-0.685-0.305-0.685-0.684v-2.386
	c0-0.378,0.307-0.683,0.685-0.683h12.581c0.378,0,0.685,0.305,0.685,0.683V16.536z"/>
<path fill="#FFFFFF" d="M16.635,23.781c0,0.378-0.306,0.684-0.684,0.684h-2.386c-0.378,0-0.683-0.306-0.683-0.684v-2.385
	c0-0.377,0.305-0.684,0.683-0.684h2.386c0.378,0,0.684,0.307,0.684,0.684V23.781z"/>
<path fill="#FFFFFF" d="M31.836,23.781c0,0.378-0.307,0.684-0.685,0.684H18.571c-0.378,0-0.685-0.306-0.685-0.684v-2.385
	c0-0.377,0.307-0.684,0.685-0.684h12.581c0.378,0,0.685,0.307,0.685,0.684V23.781z"/>
<path fill="#FFFFFF" d="M16.635,31.232c0,0.377-0.306,0.684-0.684,0.684h-2.386c-0.378,0-0.683-0.307-0.683-0.684v-2.386
	c0-0.378,0.305-0.683,0.683-0.683h2.386c0.378,0,0.684,0.305,0.684,0.683V31.232z"/>
<path fill="#FFFFFF" d="M31.836,31.232c0,0.377-0.307,0.684-0.685,0.684H18.571c-0.378,0-0.685-0.307-0.685-0.684v-2.386
	c0-0.378,0.307-0.683,0.685-0.683h12.581c0.378,0,0.685,0.305,0.685,0.683V31.232z"/>
</svg>
