<?xml version="1.0" encoding="utf-8"?>
<!-- Generator: Adobe Illustrator 15.1.0, SVG Export Plug-In . SVG Version: 6.00 Build 0)  -->
<!DOCTYPE svg PUBLIC "-//W3C//DTD SVG 1.1//EN" "http://www.w3.org/Graphics/SVG/1.1/DTD/svg11.dtd">
<svg version="1.1"
	 id="svg2" xmlns:rdf="http://www.w3.org/1999/02/22-rdf-syntax-ns#" sodipodi:docname="activate.ai" inkscape:version="0.48.2 r9819" xmlns:inkscape="http://www.inkscape.org/namespaces/inkscape" xmlns:sodipodi="http://sodipodi.sourceforge.net/DTD/sodipodi-0.dtd" xmlns:svg="http://www.w3.org/2000/svg" xmlns:cc="http://creativecommons.org/ns#" xmlns:dc="http://purl.org/dc/elements/1.1/"
	 xmlns="http://www.w3.org/2000/svg" xmlns:xlink="http://www.w3.org/1999/xlink" x="0px" y="0px" width="118.473px"
	 height="35.203px" viewBox="0 0 118.473 35.203" enable-background="new 0 0 118.473 35.203" xml:space="preserve">
<sodipodi:namedview  id="namedview4" bordercolor="#666666" borderopacity="1" fit-margin-top="0" fit-margin-left="0" inkscape:window-y="0" inkscape:current-layer="g10" showgrid="false" inkscape:window-height="480" inkscape:window-x="0" fit-margin-right="0" fit-margin-bottom="0" inkscape:window-width="640" inkscape:window-maximized="0" pagecolor="#ffffff" gridtolerance="10" guidetolerance="10" objecttolerance="10" inkscape:pageopacity="0" inkscape:pageshadow="2" inkscape:zoom="0.23838384" inkscape:cy="18.31125" inkscape:cx="59.8625">
	</sodipodi:namedview>
<g id="g10" transform="matrix(1.25,0,0,-1.25,-322.6375,511.89125)" inkscape:groupmode="layer" inkscape:label="activate">
	<g id="g12">
		<g id="g14">
			<g id="g20">
				<g id="g22">
					
						<linearGradient id="path30_1_" gradientUnits="userSpaceOnUse" x1="52.5112" y1="83.8288" x2="53.5112" y2="83.8288" gradientTransform="matrix(0 35.202 35.202 0 -2645.4231 -1467.1433)">
						<stop  offset="0" style="stop-color:#4D4C4E"/>
						<stop  offset="1" style="stop-color:#373535"/>
					</linearGradient>
					<path id="path30" inkscape:connector-curvature="0" fill="url(#path30_1_)" d="M272.19,409.513
						c-7.764,0-14.08-6.317-14.08-14.08l0,0c0-7.766,6.316-14.082,14.08-14.082l0,0h66.617c7.765,0,14.081,6.316,14.081,14.082l0,0
						c0,7.763-6.316,14.08-14.081,14.08l0,0H272.19z"/>
				</g>
			</g>
		</g>
	</g>
	<g id="g32">
		<g id="g34">
			<g id="g40">
				<g id="g42">
					
						<linearGradient id="path50_1_" gradientUnits="userSpaceOnUse" x1="50.8784" y1="84.8929" x2="51.8789" y2="84.8929" gradientTransform="matrix(0 29.577 29.577 0 -2205.3809 -1121.2212)">
						<stop  offset="0" style="stop-color:#373535"/>
						<stop  offset="1" style="stop-color:#4D4C4E"/>
					</linearGradient>
					<path id="path50" inkscape:connector-curvature="0" fill="url(#path50_1_)" d="M272.19,407.263
						c-6.533,0-11.83-5.297-11.83-11.83l0,0c0-6.536,5.297-11.832,11.83-11.832l0,0h66.617c6.534,0,11.831,5.296,11.831,11.832l0,0
						c0,6.534-5.297,11.83-11.831,11.83l0,0H272.19z"/>
				</g>
			</g>
		</g>
	</g>
	<g id="g52">
		<g id="g54">
			<g id="g60">
				<g id="g62">
					
						<linearGradient id="path72_1_" gradientUnits="userSpaceOnUse" x1="62.8456" y1="80.9101" x2="63.8456" y2="80.9101" gradientTransform="matrix(112.8485 0 0 -112.8485 -6831.6348 9531.8887)">
						<stop  offset="0" style="stop-color:#373535"/>
						<stop  offset="0.5078" style="stop-color:#82D4F7"/>
						<stop  offset="1" style="stop-color:#373535"/>
					</linearGradient>
					<path id="path72" inkscape:connector-curvature="0" fill="url(#path72_1_)" d="M272.19,407.263
						c-6.533,0-11.83-5.297-11.83-11.83l0,0c0-0.076,0.008-0.151,0.012-0.225l0,0c0.119,6.43,5.361,11.606,11.818,11.606l0,0h66.617
						c6.458,0,11.701-5.176,11.819-11.606l0,0c0,0.074,0.013,0.149,0.013,0.225l0,0c0,6.534-5.297,11.83-11.831,11.83l0,0H272.19z"
						/>
				</g>
			</g>
		</g>
	</g>
	<g id="g74">
		<g id="g76">
			<g id="g82">
				<g id="g84">
					
						<linearGradient id="path94_1_" gradientUnits="userSpaceOnUse" x1="62.8456" y1="75.5538" x2="63.8456" y2="75.5538" gradientTransform="matrix(112.8485 0 0 112.8485 -6831.6348 -8136.8745)">
						<stop  offset="0" style="stop-color:#373535"/>
						<stop  offset="0.5078" style="stop-color:#82D4F7"/>
						<stop  offset="1" style="stop-color:#373535"/>
					</linearGradient>
					<path id="path94" inkscape:connector-curvature="0" fill="url(#path94_1_)" d="M338.807,383.603H272.19
						c-6.457,0-11.699,5.175-11.818,11.605l0,0c-0.004-0.073-0.012-0.148-0.012-0.225l0,0c0-6.533,5.297-11.83,11.83-11.83l0,0
						h66.617c6.534,0,11.831,5.297,11.831,11.83l0,0c0,0.077-0.013,0.152-0.013,0.225l0,0
						C350.508,388.778,345.265,383.603,338.807,383.603"/>
				</g>
			</g>
		</g>
	</g>
	<g id="g96">
		<g>
			<defs>
				<rect id="SVGID_1_" x="-76.5" y="-99" width="765" height="990"/>
			</defs>
			<clipPath id="SVGID_2_">
				<use xlink:href="#SVGID_1_"  overflow="visible"/>
			</clipPath>
			<g id="g98" clip-path="url(#SVGID_2_)">
				<g>
					<g transform="translate(280.6284,398.1152)">
						<path inkscape:connector-curvature="0" fill="#FAAF40" d="M0,0l-0.966-2.634h1.877L0,0z M2.368-6.779L1.443-4.146h-2.928
							l-0.924-2.633h-1.583l3.236,9.384h1.47L3.95-6.779H2.368z"/>
					</g>
					<g transform="translate(289.3506,391.168)">
						<path inkscape:connector-curvature="0" fill="#FAAF40" d="M0,0c-1.387,0-2.269,0.532-2.872,1.681
							c-0.42,0.826-0.686,2.017-0.686,3.194c0,1.484,0.392,2.969,1.051,3.796c0.56,0.686,1.344,1.05,2.409,1.05
							c1.415,0,2.297-0.602,2.928-1.919L1.443,7.214C0.924,8.012,0.616,8.208-0.098,8.208c-0.756,0-1.261-0.336-1.583-1.162
							c-0.238-0.561-0.364-1.373-0.364-2.171c0-1.023,0.224-2.046,0.588-2.634C-1.121,1.751-0.7,1.513-0.042,1.513
							c0.63,0,1.093,0.336,1.457,1.092L2.83,2.073C2.269,0.7,1.345,0,0,0"/>
					</g>
					<g transform="translate(297.0225,399.4043)">
						<path inkscape:connector-curvature="0" fill="#FAAF40" d="M0,0v-8.068h-1.485V0h-2.143v1.316h5.799V0H0z"/>
					</g>
					<path inkscape:connector-curvature="0" fill="#FAAF40" d="M300.977,400.721h1.513v-9.385h-1.513V400.721z"/>
					<g transform="translate(307.6211,391.3359)">
						<path inkscape:connector-curvature="0" fill="#FAAF40" d="M0.8,0h-1.149l-2.97,9.385h1.555l2.003-6.261l1.975,6.261h1.583
							L0.8,0z"/>
					</g>
					<g transform="translate(315.166,398.1152)">
						<path inkscape:connector-curvature="0" fill="#FAAF40" d="M0,0l-0.966-2.634H0.91L0,0z M2.367-6.779L1.443-4.146h-2.927
							l-0.925-2.633h-1.583l3.236,9.384h1.47L3.95-6.779H2.367z"/>
					</g>
					<g transform="translate(323.3271,399.4043)">
						<path inkscape:connector-curvature="0" fill="#FAAF40" d="M0.001,0v-8.068h-1.484V0h-2.144v1.316h5.8V0H0.001z"/>
					</g>
					<g transform="translate(326.8828,391.3359)">
						<path inkscape:connector-curvature="0" fill="#FAAF40" d="M-0.001,0v9.385h5.533V7.9H1.484V5.604h2.732V4.09H1.484V1.513
							h4.342V0H-0.001z"/>
					</g>
				</g>
			</g>
		</g>
	</g>
</g>
</svg>
