<?xml version="1.0" encoding="utf-8"?>
<!-- Generator: Adobe Illustrator 15.1.0, SVG Export Plug-In . SVG Version: 6.00 Build 0)  -->
<!DOCTYPE svg PUBLIC "-//W3C//DTD SVG 1.1//EN" "http://www.w3.org/Graphics/SVG/1.1/DTD/svg11.dtd">
<svg version="1.1"
	 id="svg3383" sodipodi:docname="icon.two.alert.ai" xmlns:inkscape="http://www.inkscape.org/namespaces/inkscape" inkscape:version="0.48.2 r9819" xmlns:svg="http://www.w3.org/2000/svg" xmlns:dc="http://purl.org/dc/elements/1.1/" xmlns:sodipodi="http://sodipodi.sourceforge.net/DTD/sodipodi-0.dtd" xmlns:rdf="http://www.w3.org/1999/02/22-rdf-syntax-ns#" xmlns:cc="http://creativecommons.org/ns#"
	 xmlns="http://www.w3.org/2000/svg" xmlns:xlink="http://www.w3.org/1999/xlink" x="0px" y="0px" width="151.611px"
	 height="151.617px" viewBox="0 0 151.611 151.617" enable-background="new 0 0 151.611 151.617" xml:space="preserve">
<sodipodi:namedview  inkscape:cx="81.80125" inkscape:pageshadow="2" pagecolor="#ffffff" fit-margin-top="0" borderopacity="1" bordercolor="#666666" guidetolerance="10" inkscape:window-x="281" fit-margin-right="0" inkscape:pageopacity="0" inkscape:window-width="640" inkscape:current-layer="g3391" inkscape:window-maximized="0" fit-margin-bottom="0" objecttolerance="10" gridtolerance="10" id="namedview3385" inkscape:window-y="41" inkscape:window-height="480" inkscape:cy="60.1075" fit-margin-left="0" inkscape:zoom="0.23838384" showgrid="false">
	</sodipodi:namedview>
<g>
	
		<linearGradient id="SVGID_1_" gradientUnits="userSpaceOnUse" x1="75.8035" y1="0.9995" x2="75.8035" y2="152.6177" gradientTransform="matrix(1 0 0 -1 0 152.6172)">
		<stop  offset="0" style="stop-color:#404041"/>
		<stop  offset="0.3497" style="stop-color:#3D3C3D"/>
		<stop  offset="0.6944" style="stop-color:#323031"/>
		<stop  offset="1" style="stop-color:#231F20"/>
	</linearGradient>
	<path fill="url(#SVGID_1_)" d="M151.609,75.807c0,41.875-33.937,75.811-75.806,75.811c-41.862,0-75.806-33.937-75.806-75.811
		C-0.001,33.941,33.941,0,75.804,0C117.674,0,151.609,33.941,151.609,75.807z"/>
	
		<linearGradient id="SVGID_2_" gradientUnits="userSpaceOnUse" x1="75.803" y1="6.7739" x2="75.803" y2="146.8423" gradientTransform="matrix(1 0 0 -1 0 152.6172)">
		<stop  offset="0" style="stop-color:#231F20"/>
		<stop  offset="0.3056" style="stop-color:#323031"/>
		<stop  offset="0.6503" style="stop-color:#3D3C3D"/>
		<stop  offset="1" style="stop-color:#404041"/>
	</linearGradient>
	<path fill="url(#SVGID_2_)" d="M75.804,145.844c-38.615,0-70.033-31.422-70.033-70.037c0-38.619,31.418-70.032,70.033-70.032
		c38.62,0,70.03,31.413,70.03,70.032C145.835,114.422,114.425,145.844,75.804,145.844z"/>
	
		<linearGradient id="SVGID_3_" gradientUnits="userSpaceOnUse" x1="5.7712" y1="111.3965" x2="145.8347" y2="111.3965" gradientTransform="matrix(1 0 0 -1 0 152.6172)">
		<stop  offset="0" style="stop-color:#231F20"/>
		<stop  offset="0.0732" style="stop-color:#333E46"/>
		<stop  offset="0.2296" style="stop-color:#537D90"/>
		<stop  offset="0.3593" style="stop-color:#6AABC7"/>
		<stop  offset="0.4556" style="stop-color:#79C7E9"/>
		<stop  offset="0.5078" style="stop-color:#7ED2F6"/>
		<stop  offset="1" style="stop-color:#231F20"/>
	</linearGradient>
	<path fill="url(#SVGID_3_)" d="M75.804,7.495c38.327,0,69.52,30.957,69.987,69.171c0.007-0.293,0.043-0.566,0.043-0.859
		c0-38.619-31.41-70.032-70.03-70.032c-38.615,0-70.033,31.413-70.033,70.032c0,0.293,0.039,0.566,0.046,0.859
		C6.283,38.452,37.481,7.495,75.804,7.495z"/>
	
		<linearGradient id="SVGID_4_" gradientUnits="userSpaceOnUse" x1="5.7712" y1="624.7861" x2="145.8347" y2="624.7861" gradientTransform="matrix(1 0 0 1 0 -514.3828)">
		<stop  offset="0" style="stop-color:#231F20"/>
		<stop  offset="0.0732" style="stop-color:#333E46"/>
		<stop  offset="0.2296" style="stop-color:#537D90"/>
		<stop  offset="0.3593" style="stop-color:#6AABC7"/>
		<stop  offset="0.4556" style="stop-color:#79C7E9"/>
		<stop  offset="0.5078" style="stop-color:#7ED2F6"/>
		<stop  offset="1" style="stop-color:#231F20"/>
	</linearGradient>
	<path fill="url(#SVGID_4_)" d="M75.804,144.129c38.327,0,69.52-30.951,69.987-69.172c0.007,0.293,0.043,0.568,0.043,0.861
		c0,38.624-31.41,70.032-70.03,70.032c-38.615,0-70.033-31.408-70.033-70.032c0-0.293,0.039-0.568,0.046-0.861
		C6.283,113.178,37.481,144.129,75.804,144.129z"/>
</g>
<radialGradient id="SVGID_5_" cx="41.0061" cy="123.5244" r="102.9105" gradientTransform="matrix(1 0 0 -1 0 152.6172)" gradientUnits="userSpaceOnUse">
	<stop  offset="0" style="stop-color:#0078A4"/>
	<stop  offset="0.0808" style="stop-color:#1489B4"/>
	<stop  offset="0.226" style="stop-color:#30A1CB"/>
	<stop  offset="0.3813" style="stop-color:#47B4DE"/>
	<stop  offset="0.5495" style="stop-color:#57C2EB"/>
	<stop  offset="0.7399" style="stop-color:#60CAF3"/>
	<stop  offset="1" style="stop-color:#63CCF5"/>
</radialGradient>
<path fill="url(#SVGID_5_)" stroke="#231F20" stroke-width="4" stroke-miterlimit="10" d="M62.69,96.736
	c1.766,0.541,3.057-1.581,4.049-2.633c2.664-2.828,4.924-5.479,7.518-8.291c0.425-0.457,1.205-1.445,1.672-1.543
	c0.495-0.102,1.013,0.106,1.413,0.064c0.14-0.014,0.27-0.039,0.387-0.064c1.858-0.385,3.094-1.731,3.599-3.403
	c0.421-1.401,0.08-3.042-0.579-3.984c-0.188-0.271-0.521-0.604-0.771-0.835c-0.362-0.339-0.736-0.476-0.835-0.837
	c-0.202-0.75,0-2.012,0-3.021c0-7.205,0.054-14.474-0.063-21.334c-0.42-1.037-1.057-1.79-2.441-1.734
	c-1.402,0.055-2.192,1.178-2.249,2.699c-0.021,0.519,0,1.046,0,1.542c0,6.394,0,12.399,0,18.764c0,0.835,0.207,2.479,0,3.149
	c-0.084,0.271-0.535,0.552-0.834,0.835c-1.162,1.094-1.921,2.842-1.352,4.883c-1.798,2.114-3.668,4.071-5.719,6.362
	c-1.384,1.543-2.858,3.164-4.306,4.756c-0.519,0.565-1.174,1.136-1.285,1.802C60.616,95.529,61.625,96.41,62.69,96.736z
	 M118.774,77.205c0,23.348-18.927,42.273-42.272,42.273c-23.348,0-42.272-18.927-42.272-42.273
	c0-23.346,18.926-42.271,42.272-42.271S118.774,53.86,118.774,77.205z M111.309,77.604c0-19.145-15.521-34.664-34.663-34.664
	c-19.146,0-34.664,15.52-34.664,34.664c0,19.146,15.52,34.666,34.664,34.666C95.789,112.27,111.309,96.749,111.309,77.604z"/>
<radialGradient id="SVGID_6_" cx="39.7566" cy="126.0244" r="102.9102" gradientTransform="matrix(1 0 0 -1 0 152.6172)" gradientUnits="userSpaceOnUse">
	<stop  offset="0" style="stop-color:#0078A4"/>
	<stop  offset="0.0808" style="stop-color:#1489B4"/>
	<stop  offset="0.226" style="stop-color:#30A1CB"/>
	<stop  offset="0.3813" style="stop-color:#47B4DE"/>
	<stop  offset="0.5495" style="stop-color:#57C2EB"/>
	<stop  offset="0.7399" style="stop-color:#60CAF3"/>
	<stop  offset="1" style="stop-color:#63CCF5"/>
</radialGradient>
<path fill="url(#SVGID_6_)" stroke="#231F20" stroke-width="4" stroke-miterlimit="10" d="M61.44,94.236
	c1.766,0.541,3.057-1.581,4.049-2.633c2.664-2.828,4.924-5.479,7.518-8.291c0.425-0.457,1.205-1.445,1.672-1.543
	c0.495-0.102,1.013,0.106,1.413,0.064c0.14-0.014,0.27-0.039,0.387-0.064c1.858-0.385,3.094-1.731,3.599-3.403
	c0.421-1.401,0.08-3.042-0.579-3.984c-0.188-0.271-0.521-0.604-0.771-0.835c-0.362-0.339-0.736-0.476-0.835-0.837
	c-0.202-0.75,0-2.012,0-3.021c0-7.204,0.054-14.473-0.063-21.333c-0.42-1.037-1.057-1.79-2.441-1.734
	c-1.402,0.055-2.192,1.178-2.249,2.699c-0.021,0.519,0,1.046,0,1.542c0,6.394,0,12.399,0,18.765c0,0.834,0.207,2.478,0,3.148
	c-0.084,0.271-0.535,0.552-0.834,0.835c-1.162,1.094-1.921,2.842-1.352,4.883c-1.798,2.113-3.668,4.072-5.719,6.361
	c-1.384,1.543-2.858,3.164-4.306,4.756c-0.519,0.566-1.174,1.137-1.285,1.803C59.366,93.029,60.375,93.91,61.44,94.236z
	 M117.524,74.705c0,23.348-18.927,42.273-42.272,42.273c-23.348,0-42.272-18.927-42.272-42.273
	c0-23.346,18.926-42.271,42.272-42.271S117.524,51.36,117.524,74.705z M110.059,75.104c0-19.145-15.521-34.664-34.663-34.664
	c-19.146,0-34.664,15.52-34.664,34.664c0,19.146,15.52,34.666,34.664,34.666C94.539,109.77,110.059,94.249,110.059,75.104z"/>
<radialGradient id="SVGID_7_" cx="39.7566" cy="126.0244" r="102.9102" gradientTransform="matrix(1 0 0 -1 0 152.6172)" gradientUnits="userSpaceOnUse">
	<stop  offset="0" style="stop-color:#0078A4"/>
	<stop  offset="0.0808" style="stop-color:#1489B4"/>
	<stop  offset="0.226" style="stop-color:#30A1CB"/>
	<stop  offset="0.3813" style="stop-color:#47B4DE"/>
	<stop  offset="0.5495" style="stop-color:#57C2EB"/>
	<stop  offset="0.7399" style="stop-color:#60CAF3"/>
	<stop  offset="1" style="stop-color:#63CCF5"/>
</radialGradient>
<path fill="url(#SVGID_7_)" d="M61.44,94.236c1.766,0.541,3.057-1.581,4.049-2.633c2.664-2.828,4.924-5.479,7.518-8.291
	c0.425-0.457,1.205-1.445,1.672-1.543c0.495-0.102,1.013,0.106,1.413,0.064c0.14-0.014,0.27-0.039,0.387-0.064
	c1.858-0.385,3.094-1.731,3.599-3.403c0.421-1.401,0.08-3.042-0.579-3.984c-0.188-0.271-0.521-0.604-0.771-0.835
	c-0.362-0.339-0.736-0.476-0.835-0.837c-0.202-0.75,0-2.012,0-3.021c0-7.204,0.054-14.473-0.063-21.333
	c-0.42-1.037-1.057-1.79-2.441-1.734c-1.402,0.055-2.192,1.178-2.249,2.699c-0.021,0.519,0,1.046,0,1.542c0,6.394,0,12.399,0,18.765
	c0,0.834,0.207,2.478,0,3.148c-0.084,0.271-0.535,0.552-0.834,0.835c-1.162,1.094-1.921,2.842-1.352,4.883
	c-1.798,2.113-3.668,4.072-5.719,6.361c-1.384,1.543-2.858,3.164-4.306,4.756c-0.519,0.566-1.174,1.137-1.285,1.803
	C59.366,93.029,60.375,93.91,61.44,94.236z M117.524,74.705c0,23.348-18.927,42.273-42.272,42.273
	c-23.348,0-42.272-18.927-42.272-42.273c0-23.346,18.926-42.271,42.272-42.271S117.524,51.36,117.524,74.705z M110.059,75.104
	c0-19.145-15.521-34.664-34.663-34.664c-19.146,0-34.664,15.52-34.664,34.664c0,19.146,15.52,34.666,34.664,34.666
	C94.539,109.77,110.059,94.249,110.059,75.104z"/>
<linearGradient id="SVGID_8_" gradientUnits="userSpaceOnUse" x1="84.6023" y1="75.0732" x2="111.7995" y2="37.2176" gradientTransform="matrix(1 0 0 -1 0 152.6172)">
	<stop  offset="0" style="stop-color:#F47E20"/>
	<stop  offset="0.0052" style="stop-color:#F47E20"/>
	<stop  offset="0.2442" style="stop-color:#F5881E"/>
	<stop  offset="0.6439" style="stop-color:#F9A217"/>
	<stop  offset="1" style="stop-color:#FDBE10"/>
</linearGradient>
<path fill="url(#SVGID_8_)" stroke="#231F20" stroke-width="6" stroke-miterlimit="10" d="M120.053,106.57
	c-0.283,0.555-0.809,0.98-1.527,1.098c-0.36,0.059-0.776,0.055-1.259,0.055c-9.604,0-19.25,0-28.942,0
	c-0.899,0-1.673,0.008-2.25-0.375c-0.455-0.302-0.924-0.955-0.909-1.714c0.013-0.69,0.472-1.394,0.804-1.981
	c0.293-0.52,0.581-1.026,0.883-1.553c0.126-0.218,0.239-0.44,0.375-0.668c0.451-0.769,0.938-1.642,1.393-2.438
	c0.088-0.153,0.15-0.295,0.24-0.455c0.175-0.31,0.364-0.655,0.562-0.991c1.197-2.009,2.424-4.279,3.587-6.291
	c1.794-3.097,3.519-6.191,5.275-9.316c0.16-0.287,0.332-0.572,0.509-0.885c0.555-0.98,1.191-2.08,1.769-3.105
	c0.433-0.771,0.839-1.561,2.008-1.66c0.661-0.056,1.229,0.225,1.58,0.562c0.399,0.385,0.703,1.026,1.044,1.604
	c0.286,0.485,0.549,0.965,0.83,1.473c0.763,1.382,1.588,2.806,2.383,4.204c1.359,2.396,2.786,4.946,4.177,7.337
	c0.118,0.202,0.216,0.416,0.349,0.644c0.889,1.521,1.897,3.322,2.731,4.793c1.315,2.324,2.546,4.492,3.801,6.72
	c0.333,0.593,0.737,1.065,0.805,1.849C120.302,105.895,120.208,106.266,120.053,106.57z"/>
<linearGradient id="SVGID_9_" gradientUnits="userSpaceOnUse" x1="84.6023" y1="75.0732" x2="111.7995" y2="37.2176" gradientTransform="matrix(1 0 0 -1 0 152.6172)">
	<stop  offset="0" style="stop-color:#F47E20"/>
	<stop  offset="0.0052" style="stop-color:#EF4923"/>
	<stop  offset="0.1676" style="stop-color:#F05322"/>
	<stop  offset="0.4402" style="stop-color:#F36D1E"/>
	<stop  offset="0.7873" style="stop-color:#F89719"/>
	<stop  offset="1" style="stop-color:#FCB415"/>
</linearGradient>
<path fill="url(#SVGID_9_)" d="M120.053,106.57c-0.283,0.555-0.809,0.98-1.527,1.098c-0.36,0.059-0.776,0.055-1.259,0.055
	c-9.604,0-19.25,0-28.942,0c-0.899,0-1.673,0.008-2.25-0.375c-0.455-0.302-0.924-0.955-0.909-1.714
	c0.013-0.69,0.472-1.394,0.804-1.981c0.293-0.52,0.581-1.026,0.883-1.553c0.126-0.218,0.239-0.44,0.375-0.668
	c0.451-0.769,0.938-1.642,1.393-2.438c0.088-0.153,0.15-0.295,0.24-0.455c0.175-0.31,0.364-0.655,0.562-0.991
	c1.197-2.009,2.424-4.279,3.587-6.291c1.794-3.097,3.519-6.191,5.275-9.316c0.16-0.287,0.332-0.572,0.509-0.885
	c0.555-0.98,1.191-2.08,1.769-3.105c0.433-0.771,0.839-1.561,2.008-1.66c0.661-0.056,1.229,0.225,1.58,0.562
	c0.399,0.385,0.703,1.026,1.044,1.604c0.286,0.485,0.549,0.965,0.83,1.473c0.763,1.382,1.588,2.806,2.383,4.204
	c1.359,2.396,2.786,4.946,4.177,7.337c0.118,0.202,0.216,0.416,0.349,0.644c0.889,1.521,1.897,3.322,2.731,4.793
	c1.315,2.324,2.546,4.492,3.801,6.72c0.333,0.593,0.737,1.065,0.805,1.849C120.302,105.895,120.208,106.266,120.053,106.57z"/>
<path fill="#231F20" d="M104.362,86.355c0.138,0.875,0.08,1.836,0.08,2.838c0,2.356,0,4.799,0,7.257c0,0.887-0.03,1.362-0.455,1.819
	c-0.374,0.402-1.054,0.729-1.849,0.482c-0.523-0.268-0.971-0.65-1.097-1.285c-0.079-0.396-0.027-0.89-0.027-1.365
	c0-2.688,0-5.459,0-8.221c0-0.633-0.037-1.193,0.106-1.605c0.277-0.467,0.62-0.862,1.231-0.991
	C103.445,85.113,104.027,85.682,104.362,86.355z"/>
<path fill="#231F20" d="M102.54,100.197c-0.778,0.07-1.32,0.621-1.418,1.341c-0.057,0.42,0.07,0.746,0.188,0.963
	c0.197,0.366,0.643,0.75,0.989,0.83c0.47,0.106,0.98-0.043,1.232-0.188c0.353-0.201,0.696-0.627,0.775-1.07
	c0.065-0.361-0.023-0.777-0.134-0.99C103.864,100.479,103.39,100.122,102.54,100.197z"/>
</svg>
