<?xml version="1.0" encoding="utf-8"?>
<!-- Generator: Adobe Illustrator 15.1.0, SVG Export Plug-In . SVG Version: 6.00 Build 0)  -->
<!DOCTYPE svg PUBLIC "-//W3C//DTD SVG 1.1//EN" "http://www.w3.org/Graphics/SVG/1.1/DTD/svg11.dtd">
<svg version="1.1"
	 id="Layer_1" xmlns:inkscape="http://www.inkscape.org/namespaces/inkscape" xmlns:dc="http://purl.org/dc/elements/1.1/" xmlns:sodipodi="http://sodipodi.sourceforge.net/DTD/sodipodi-0.dtd" sodipodi:docname="ecobee.svg" xmlns:rdf="http://www.w3.org/1999/02/22-rdf-syntax-ns#" xmlns:svg="http://www.w3.org/2000/svg" xmlns:cc="http://creativecommons.org/ns#" inkscape:version="0.48.2 r9819"
	 xmlns="http://www.w3.org/2000/svg" xmlns:xlink="http://www.w3.org/1999/xlink" x="0px" y="0px" width="22.439px"
	 height="25.497px" viewBox="11.345 10.086 22.439 25.497" enable-background="new 11.345 10.086 22.439 25.497"
	 xml:space="preserve">
<g>
</g>
<g>
	<path fill="#FFFFFF" d="M25.79,12.635l0.273-0.409l0.268-0.403l0.605-0.907c0.073-0.111,0.043-0.261-0.066-0.336
		c-0.113-0.074-0.264-0.044-0.338,0.067l-0.647,0.973l-0.272,0.408l-0.276,0.414c-0.876-0.34-1.853-0.53-2.884-0.53
		s-2.008,0.19-2.883,0.53l-0.275-0.414l-0.272-0.408l-0.648-0.973c-0.074-0.111-0.225-0.142-0.337-0.068
		c-0.111,0.074-0.141,0.225-0.066,0.336l0.604,0.907l0.27,0.403l0.273,0.41c-2.057,0.958-3.449,2.773-3.449,4.851h13.571
		C29.239,15.409,27.847,13.594,25.79,12.635z M19.545,15.548c-0.402,0-0.728-0.326-0.728-0.727c0-0.402,0.325-0.727,0.728-0.727
		c0.401,0,0.727,0.324,0.727,0.727C20.272,15.221,19.947,15.548,19.545,15.548z M25.361,15.548c-0.401,0-0.727-0.326-0.727-0.727
		c0-0.402,0.325-0.727,0.727-0.727c0.402,0,0.728,0.324,0.728,0.727C26.088,15.221,25.763,15.548,25.361,15.548z"/>
	<path fill="#FFFFFF" d="M15.773,18.456h-0.105v1.209v0.986v8.468c0,0.846,0.688,1.535,1.535,1.535h1.107
		c-0.037,0.127-0.058,0.264-0.058,0.402v0.082v0.484v2.504c0,0.803,0.651,1.455,1.454,1.455s1.455-0.652,1.455-1.455v-2.504v-0.484
		v-0.082c0-0.139-0.021-0.275-0.059-0.402h2.7c-0.036,0.127-0.058,0.264-0.058,0.402v0.082v0.484v2.504
		c0,0.803,0.652,1.455,1.454,1.455c0.803,0,1.454-0.652,1.454-1.455v-2.504v-0.484v-0.082c0-0.139-0.021-0.275-0.058-0.402h1.108
		c0.846,0,1.534-0.689,1.534-1.535v-8.468v-0.986v-1.209h-0.104H15.773z"/>
	<path fill="#FFFFFF" d="M13.243,18.456c-0.803,0-1.453,0.65-1.453,1.455v6.218c0,0.803,0.65,1.455,1.453,1.455
		s1.454-0.652,1.454-1.455V19.91C14.698,19.106,14.046,18.456,13.243,18.456z"/>
	<path fill="#FFFFFF" d="M31.663,18.456c-0.805,0-1.455,0.65-1.455,1.455v6.218c0,0.803,0.65,1.455,1.455,1.455
		c0.802,0,1.452-0.652,1.452-1.455V19.91C33.115,19.106,32.465,18.456,31.663,18.456z"/>
</g>
</svg>
