<?xml version="1.0" encoding="utf-8"?>
<!-- Generator: Adobe Illustrator 15.1.0, SVG Export Plug-In . SVG Version: 6.00 Build 0)  -->
<!DOCTYPE svg PUBLIC "-//W3C//DTD SVG 1.1//EN" "http://www.w3.org/Graphics/SVG/1.1/DTD/svg11.dtd">
<svg version="1.1"
	 id="Layer_1" xmlns:inkscape="http://www.inkscape.org/namespaces/inkscape" xmlns:dc="http://purl.org/dc/elements/1.1/" xmlns:sodipodi="http://sodipodi.sourceforge.net/DTD/sodipodi-0.dtd" sodipodi:docname="ecobee.svg" xmlns:rdf="http://www.w3.org/1999/02/22-rdf-syntax-ns#" xmlns:svg="http://www.w3.org/2000/svg" xmlns:cc="http://creativecommons.org/ns#" inkscape:version="0.48.2 r9819"
	 xmlns="http://www.w3.org/2000/svg" xmlns:xlink="http://www.w3.org/1999/xlink" x="0px" y="0px" width="20.631px"
	 height="24.581px" viewBox="11.345 11.002 20.631 24.581" enable-background="new 11.345 11.002 20.631 24.581"
	 xml:space="preserve">
<g>
</g>
<g>
	<g>
		<path fill="#FFFFFF" d="M17.589,17.043c0.674,0,1.49,0.139,2.443,0.418c0.963,0.279,1.602,0.418,1.917,0.418
			c0.405,0,1.067-0.156,1.984-0.473c0.918-0.314,1.715-0.473,2.39-0.473c1.107,0,2.094,0.299,2.957,0.893
			c0.486,0.342,0.967,0.805,1.443,1.391c-0.72,0.611-1.246,1.156-1.579,1.633c-0.603,0.864-0.903,1.818-0.903,2.863
			c0,1.142,0.318,2.173,0.957,3.09c0.641,0.919,1.368,1.498,2.188,1.742c-0.342,1.106-0.909,2.264-1.701,3.471
			c-1.196,1.808-2.385,2.713-3.563,2.713c-0.468,0-1.116-0.147-1.944-0.445c-0.818-0.299-1.512-0.445-2.079-0.445
			c-0.566,0-1.228,0.152-1.984,0.459c-0.747,0.314-1.354,0.472-1.821,0.472c-1.414,0-2.801-1.196-4.159-3.591
			c-1.359-2.367-2.038-4.689-2.038-6.967c0-2.114,0.518-3.838,1.553-5.17C14.692,17.709,16.005,17.043,17.589,17.043 M26.094,11.723
			c0.036,0.119,0.059,0.222,0.067,0.312c0.01,0.091,0.014,0.18,0.014,0.271c0,0.576-0.135,1.206-0.405,1.89
			c-0.27,0.684-0.696,1.319-1.282,1.903c-0.504,0.496-1.004,0.828-1.499,0.999c-0.315,0.101-0.792,0.176-1.431,0.229
			c0.018-1.369,0.373-2.551,1.066-3.551c0.701-0.999,1.859-1.682,3.47-2.051"/>
	</g>
</g>
</svg>
