<?xml version="1.0" encoding="utf-8"?>
<!-- Generator: Adobe Illustrator 15.1.0, SVG Export Plug-In . SVG Version: 6.00 Build 0)  -->
<!DOCTYPE svg PUBLIC "-//W3C//DTD SVG 1.1//EN" "http://www.w3.org/Graphics/SVG/1.1/DTD/svg11.dtd">
<svg version="1.1"
	 id="Layer_1" xmlns:rdf="http://www.w3.org/1999/02/22-rdf-syntax-ns#" xmlns:sodipodi="http://sodipodi.sourceforge.net/DTD/sodipodi-0.dtd" xmlns:svg="http://www.w3.org/2000/svg" xmlns:dc="http://purl.org/dc/elements/1.1/" xmlns:inkscape="http://www.inkscape.org/namespaces/inkscape" xmlns:cc="http://creativecommons.org/ns#" sodipodi:docname="test.svg" inkscape:version="0.48.2 r9819"
	 xmlns="http://www.w3.org/2000/svg" xmlns:xlink="http://www.w3.org/1999/xlink" x="0px" y="0px" width="175.871px"
	 height="28.162px" viewBox="0 0 175.871 28.162" enable-background="new 0 0 175.871 28.162" xml:space="preserve">
<sodipodi:namedview  guidetolerance="10" inkscape:window-maximized="0" inkscape:current-layer="Layer_1" inkscape:cy="13.639" pagecolor="#ffffff" bordercolor="#666666" inkscape:window-height="480" objecttolerance="10" inkscape:window-x="0" inkscape:pageshadow="2" inkscape:pageopacity="0" inkscape:window-y="0" inkscape:cx="41.035" inkscape:zoom="0.19627411" showgrid="false" fit-margin-left="0" fit-margin-bottom="0" inkscape:window-width="640" borderopacity="1" id="namedview65" gridtolerance="10" fit-margin-top="0" fit-margin-right="0">
	</sodipodi:namedview>
<g id="g3" transform="translate(-228.965,-586.67701)">
	
		<linearGradient id="path14_1_" gradientUnits="userSpaceOnUse" x1="664.734" y1="2149.7141" x2="664.734" y2="2121.553" gradientTransform="matrix(1 0 0 1 -347.8594 -1534.875)">
		<stop  offset="0" style="stop-color:#414042"/>
		<stop  offset="0.3972" style="stop-color:#3A3A3C"/>
		<stop  offset="0.7887" style="stop-color:#212122"/>
		<stop  offset="1" style="stop-color:#000000"/>
	</linearGradient>
	<path id="path14" inkscape:connector-curvature="0" fill="url(#path14_1_)" d="M243.045,614.839c-7.764,0-14.08-6.315-14.08-14.082
		c0-7.764,6.316-14.08,14.08-14.08h147.658c7.766,0,14.082,6.316,14.082,14.08c0,7.767-6.316,14.082-14.082,14.082H243.045
		L243.045,614.839z"/>
	
		<linearGradient id="path25_1_" gradientUnits="userSpaceOnUse" x1="664.734" y1="2147.4641" x2="664.734" y2="2123.803" gradientTransform="matrix(1 0 0 1 -347.8594 -1534.875)">
		<stop  offset="0" style="stop-color:#000000"/>
		<stop  offset="0.2113" style="stop-color:#212122"/>
		<stop  offset="0.6028" style="stop-color:#3A3A3C"/>
		<stop  offset="1" style="stop-color:#414042"/>
	</linearGradient>
	<path id="path25" inkscape:connector-curvature="0" fill="url(#path25_1_)" d="M402.535,600.757
		c0,6.535-5.297,11.832-11.832,11.832H243.045c-6.533,0-11.83-5.297-11.83-11.832l0,0c0-6.533,5.297-11.83,11.83-11.83h147.658
		C397.238,588.927,402.535,594.224,402.535,600.757L402.535,600.757z"/>
	
		<linearGradient id="path42_1_" gradientUnits="userSpaceOnUse" x1="579.0739" y1="2129.8274" x2="750.3942" y2="2129.8274" gradientTransform="matrix(1 0 0 1 -347.8594 -1534.875)">
		<stop  offset="0" style="stop-color:#000000"/>
		<stop  offset="0.1304" style="stop-color:#5D6A72"/>
		<stop  offset="0.2661" style="stop-color:#7899A9"/>
		<stop  offset="0.3788" style="stop-color:#80B9D3"/>
		<stop  offset="0.4624" style="stop-color:#7FCBEB"/>
		<stop  offset="0.5078" style="stop-color:#7ED3F7"/>
		<stop  offset="1" style="stop-color:#000000"/>
	</linearGradient>
	<path id="path42" inkscape:connector-curvature="0" fill="url(#path42_1_)" d="M243.045,589.376h147.658
		c6.459,0,11.701,5.176,11.82,11.604c0-0.074,0.012-0.148,0.012-0.225c0-6.533-5.297-11.83-11.832-11.83H243.045
		c-6.533,0-11.83,5.297-11.83,11.83c0,0.076,0.009,0.15,0.015,0.225C231.347,594.552,236.588,589.376,243.045,589.376
		L243.045,589.376z"/>
	
		<linearGradient id="path59_1_" gradientUnits="userSpaceOnUse" x1="579.0739" y1="-309.946" x2="750.3942" y2="-309.946" gradientTransform="matrix(1 0 0 -1 -347.8594 297.064)">
		<stop  offset="0" style="stop-color:#000000"/>
		<stop  offset="0.1304" style="stop-color:#5D6A72"/>
		<stop  offset="0.2661" style="stop-color:#7899A9"/>
		<stop  offset="0.3788" style="stop-color:#80B9D3"/>
		<stop  offset="0.4624" style="stop-color:#7FCBEB"/>
		<stop  offset="0.5078" style="stop-color:#7ED3F7"/>
		<stop  offset="1" style="stop-color:#000000"/>
	</linearGradient>
	<path id="path59" inkscape:connector-curvature="0" fill="url(#path59_1_)" d="M243.045,612.587h147.658
		c6.459,0,11.701-5.177,11.82-11.605c0,0.074,0.012,0.148,0.012,0.225c0,6.534-5.297,11.831-11.832,11.831H243.045
		c-6.533,0-11.83-5.297-11.83-11.831c0-0.076,0.009-0.15,0.015-0.225C231.347,607.41,236.588,612.587,243.045,612.587
		L243.045,612.587z"/>
</g>
<g enable-background="new    ">
	<path fill="#6FCCF4" d="M29.576,18.06c-0.336,0.127-0.896,0.225-1.316,0.225h-3.558V8.899h3.558c1.484,0,2.605,1.022,2.605,2.367
		c0,0.924-0.435,1.61-1.317,2.115c0.98,0.462,1.541,1.246,1.541,2.269S30.459,17.696,29.576,18.06z M28.357,10.384h-2.171v2.297
		h1.779c0.42,0,0.616-0.056,0.882-0.252c0.336-0.266,0.533-0.658,0.533-1.092C29.38,10.706,29.016,10.384,28.357,10.384z
		 M28.68,14.264c-0.196-0.069-0.294-0.069-0.616-0.069h-1.877v2.577h2.241c0.756,0,1.148-0.364,1.148-1.093
		C29.576,15.062,29.212,14.46,28.68,14.264z"/>
	<path fill="#6FCCF4" d="M38.201,18.284l-0.925-2.634h-2.927l-0.925,2.634h-1.583l3.236-9.385h1.471l3.236,9.385H38.201z
		 M35.833,11.505l-0.966,2.633h1.877L35.833,11.505z"/>
	<path fill="#6FCCF4" d="M44.555,18.452c-1.387,0-2.269-0.532-2.872-1.681c-0.42-0.826-0.687-2.018-0.687-3.194
		c0-1.484,0.393-2.969,1.051-3.796c0.56-0.687,1.345-1.05,2.409-1.05c1.415,0,2.297,0.602,2.928,1.919l-1.387,0.588
		c-0.519-0.798-0.827-0.994-1.541-0.994c-0.756,0-1.261,0.336-1.583,1.162c-0.238,0.561-0.364,1.373-0.364,2.171
		c0,1.023,0.224,2.046,0.588,2.634c0.336,0.49,0.756,0.729,1.415,0.729c0.63,0,1.093-0.336,1.457-1.093l1.415,0.532
		C46.824,17.752,45.9,18.452,44.555,18.452z"/>
	<path fill="#6FCCF4" d="M54.272,18.284l-2.381-4.44l-0.98,1.219v3.222h-1.485V8.899h1.485v3.726l2.956-3.726h1.919l-2.899,3.655
		l3.096,5.729H54.272z"/>
	<path fill="#6FCCF4" d="M63.482,10.216v8.068h-1.484v-8.068h-2.144V8.899h5.799v1.316H63.482z"/>
	<path fill="#6FCCF4" d="M72.472,17.401c-0.532,0.715-1.289,1.051-2.27,1.051c-1.316,0-2.143-0.532-2.703-1.681
		c-0.393-0.799-0.659-2.045-0.659-3.166c0-1.541,0.393-2.928,1.023-3.824c0.56-0.714,1.316-1.05,2.395-1.05
		c1.191,0,2.017,0.532,2.605,1.681c0.392,0.826,0.63,2.017,0.63,3.193C73.495,15.091,73.13,16.575,72.472,17.401z M71.45,10.973
		c-0.294-0.49-0.659-0.687-1.219-0.729c-0.028,0-0.056,0-0.084,0c-0.672,0-1.121,0.364-1.429,1.162
		c-0.238,0.561-0.364,1.415-0.364,2.199c0,0.995,0.196,2.018,0.56,2.605c0.294,0.49,0.687,0.729,1.289,0.729
		c0.687,0,1.121-0.364,1.443-1.19c0.196-0.49,0.364-1.415,0.364-2.144C72.01,12.555,71.813,11.603,71.45,10.973z"/>
	<path fill="#6FCCF4" d="M82.019,18.452c-1.387,0-2.269-0.532-2.872-1.681c-0.42-0.826-0.687-2.018-0.687-3.194
		c0-1.484,0.393-2.969,1.051-3.796c0.56-0.687,1.345-1.05,2.409-1.05c1.415,0,2.297,0.602,2.928,1.919l-1.387,0.588
		c-0.519-0.798-0.827-0.994-1.541-0.994c-0.756,0-1.261,0.336-1.583,1.162c-0.238,0.561-0.364,1.373-0.364,2.171
		c0,1.023,0.224,2.046,0.588,2.634c0.336,0.49,0.757,0.729,1.415,0.729c0.63,0,1.093-0.336,1.457-1.093l1.415,0.532
		C84.288,17.752,83.363,18.452,82.019,18.452z"/>
	<path fill="#6FCCF4" d="M86.889,18.284V8.899h1.485v7.998h4.343v1.387H86.889z"/>
	<path fill="#6FCCF4" d="M94.099,18.284V8.899h1.512v9.385H94.099z"/>
	<path fill="#6FCCF4" d="M97.851,18.284V8.899h5.533v1.484h-4.049v2.297h2.731v1.514h-2.731v2.577h4.342v1.513H97.851z"/>
	<path fill="#6FCCF4" d="M110.328,18.284l-3.586-6.359v6.359h-1.485V8.899h1.485l3.418,5.995V8.899h1.484v9.385H110.328z"/>
	<path fill="#6FCCF4" d="M116.681,10.216v8.068h-1.484v-8.068h-2.143V8.899h5.799v1.316H116.681z"/>
	<path fill="#6FCCF4" d="M123.331,18.284V8.899h1.485v7.998h4.342v1.387H123.331z"/>
	<path fill="#6FCCF4" d="M135.976,17.401c-0.533,0.715-1.289,1.051-2.27,1.051c-1.316,0-2.144-0.532-2.703-1.681
		c-0.393-0.799-0.659-2.045-0.659-3.166c0-1.541,0.393-2.928,1.022-3.824c0.561-0.714,1.316-1.05,2.396-1.05
		c1.19,0,2.017,0.532,2.605,1.681c0.392,0.826,0.63,2.017,0.63,3.193C136.998,15.091,136.634,16.575,135.976,17.401z
		 M134.953,10.973c-0.294-0.49-0.658-0.687-1.219-0.729c-0.027,0-0.056,0-0.084,0c-0.672,0-1.12,0.364-1.428,1.162
		c-0.238,0.561-0.365,1.415-0.365,2.199c0,0.995,0.196,2.018,0.561,2.605c0.295,0.49,0.687,0.729,1.289,0.729
		c0.686,0,1.12-0.364,1.442-1.19c0.196-0.49,0.364-1.415,0.364-2.144C135.513,12.555,135.317,11.603,134.953,10.973z"/>
	<path fill="#6FCCF4" d="M142.289,18.452c-1.415,0-2.242-0.532-2.802-1.709c-0.393-0.826-0.616-1.989-0.616-3.138
		c0-1.513,0.42-2.997,1.051-3.824c0.56-0.687,1.344-1.05,2.408-1.05c1.443,0,2.298,0.602,2.928,2.072l-1.414,0.561
		c-0.393-0.812-0.799-1.12-1.514-1.12c-0.756,0-1.26,0.336-1.582,1.162c-0.238,0.561-0.364,1.415-0.364,2.199
		c0,0.995,0.168,1.976,0.462,2.577c0.295,0.519,0.729,0.757,1.289,0.757c0.952,0,1.639-0.603,1.639-1.457v-0.392h-1.709v-1.485
		h3.193v1.877C145.257,17.191,144.011,18.452,142.289,18.452z"/>
	<path fill="#6FCCF4" d="M147.298,18.284V8.899h1.513v9.385H147.298z"/>
	<path fill="#6FCCF4" d="M156.121,18.284l-3.586-6.359v6.359h-1.484V8.899h1.484l3.418,5.995V8.899h1.484v9.385H156.121z"/>
</g>
</svg>
