<?xml version="1.0" encoding="utf-8"?>
<!-- Generator: Adobe Illustrator 15.1.0, SVG Export Plug-In . SVG Version: 6.00 Build 0)  -->
<!DOCTYPE svg PUBLIC "-//W3C//DTD SVG 1.1//EN" "http://www.w3.org/Graphics/SVG/1.1/DTD/svg11.dtd">
<svg version="1.1"
	 id="Layer_1" sodipodi:docname="test.svg" inkscape:version="0.48.2 r9819" xmlns:inkscape="http://www.inkscape.org/namespaces/inkscape" xmlns:sodipodi="http://sodipodi.sourceforge.net/DTD/sodipodi-0.dtd" xmlns:rdf="http://www.w3.org/1999/02/22-rdf-syntax-ns#" xmlns:svg="http://www.w3.org/2000/svg" xmlns:cc="http://creativecommons.org/ns#" xmlns:dc="http://purl.org/dc/elements/1.1/"
	 xmlns="http://www.w3.org/2000/svg" xmlns:xlink="http://www.w3.org/1999/xlink" x="0px" y="0px" width="80.779px"
	 height="28.162px" viewBox="0 0 80.779 28.162" enable-background="new 0 0 80.779 28.162" xml:space="preserve">
<sodipodi:namedview  pagecolor="#ffffff" objecttolerance="10" id="namedview65" inkscape:window-width="640" borderopacity="1" bordercolor="#666666" gridtolerance="10" guidetolerance="10" inkscape:pageopacity="0" inkscape:pageshadow="2" inkscape:window-height="480" showgrid="false" inkscape:zoom="0.19627411" inkscape:cx="41.035" inkscape:cy="13.639" inkscape:window-x="0" inkscape:window-y="0" inkscape:window-maximized="0" inkscape:current-layer="Layer_1" fit-margin-bottom="0" fit-margin-right="0" fit-margin-left="0" fit-margin-top="0">
	</sodipodi:namedview>
<g id="g3" transform="translate(-228.965,-586.67701)">
	
		<linearGradient id="path14_1_" gradientUnits="userSpaceOnUse" x1="992.2489" y1="-557.0364" x2="992.2489" y2="-528.8748" gradientTransform="matrix(1 0 0 -1 -722.8945 57.8022)">
		<stop  offset="0" style="stop-color:#414042"/>
		<stop  offset="0.3972" style="stop-color:#3A3A3C"/>
		<stop  offset="0.7887" style="stop-color:#212122"/>
		<stop  offset="1" style="stop-color:#000000"/>
	</linearGradient>
	<path id="path14" inkscape:connector-curvature="0" fill="url(#path14_1_)" d="M243.045,614.839c-7.764,0-14.08-6.315-14.08-14.082
		c0-7.764,6.316-14.08,14.08-14.08h52.617c7.766,0,14.082,6.316,14.082,14.08c0,7.767-6.316,14.082-14.082,14.082H243.045
		L243.045,614.839z"/>
	
		<linearGradient id="path25_1_" gradientUnits="userSpaceOnUse" x1="992.2489" y1="-554.7864" x2="992.2489" y2="-531.1248" gradientTransform="matrix(1 0 0 -1 -722.8945 57.8022)">
		<stop  offset="0" style="stop-color:#000000"/>
		<stop  offset="0.2113" style="stop-color:#212122"/>
		<stop  offset="0.6028" style="stop-color:#3A3A3C"/>
		<stop  offset="1" style="stop-color:#414042"/>
	</linearGradient>
	<path id="path25" inkscape:connector-curvature="0" fill="url(#path25_1_)" d="M307.494,600.757
		c0,6.535-5.297,11.832-11.832,11.832h-52.617c-6.533,0-11.83-5.297-11.83-11.832l0,0c0-6.533,5.297-11.83,11.83-11.83h52.617
		C302.197,588.927,307.494,594.224,307.494,600.757L307.494,600.757z"/>
	
		<linearGradient id="path42_1_" gradientUnits="userSpaceOnUse" x1="954.1093" y1="-537.1501" x2="1030.3885" y2="-537.1501" gradientTransform="matrix(1 0 0 -1 -722.8945 57.8022)">
		<stop  offset="0" style="stop-color:#000000"/>
		<stop  offset="0.1304" style="stop-color:#5D6A72"/>
		<stop  offset="0.2661" style="stop-color:#7899A9"/>
		<stop  offset="0.3788" style="stop-color:#80B9D3"/>
		<stop  offset="0.4624" style="stop-color:#7FCBEB"/>
		<stop  offset="0.5078" style="stop-color:#7ED3F7"/>
		<stop  offset="1" style="stop-color:#000000"/>
	</linearGradient>
	<path id="path42" inkscape:connector-curvature="0" fill="url(#path42_1_)" d="M243.045,589.376h52.617
		c6.459,0,11.701,5.176,11.82,11.604c0-0.074,0.012-0.148,0.012-0.225c0-6.533-5.297-11.83-11.832-11.83h-52.617
		c-6.533,0-11.83,5.297-11.83,11.83c0,0.076,0.009,0.15,0.015,0.225C231.347,594.552,236.588,589.376,243.045,589.376
		L243.045,589.376z"/>
	
		<linearGradient id="path59_1_" gradientUnits="userSpaceOnUse" x1="954.1093" y1="1319.7854" x2="1030.3885" y2="1319.7854" gradientTransform="matrix(1 0 0 1 -722.8945 -712.7754)">
		<stop  offset="0" style="stop-color:#000000"/>
		<stop  offset="0.1304" style="stop-color:#5D6A72"/>
		<stop  offset="0.2661" style="stop-color:#7899A9"/>
		<stop  offset="0.3788" style="stop-color:#80B9D3"/>
		<stop  offset="0.4624" style="stop-color:#7FCBEB"/>
		<stop  offset="0.5078" style="stop-color:#7ED3F7"/>
		<stop  offset="1" style="stop-color:#000000"/>
	</linearGradient>
	<path id="path59" inkscape:connector-curvature="0" fill="url(#path59_1_)" d="M243.045,612.587h52.617
		c6.459,0,11.701-5.177,11.82-11.605c0,0.074,0.012,0.148,0.012,0.225c0,6.534-5.297,11.831-11.832,11.831h-52.617
		c-6.533,0-11.83-5.297-11.83-11.831c0-0.076,0.009-0.15,0.015-0.225C231.347,607.41,236.588,612.587,243.045,612.587
		L243.045,612.587z"/>
</g>
<g id="g10" transform="matrix(1.25,0,0,-1.25,-706.3875,782.90375)" inkscape:groupmode="layer" inkscape:label="cancel">
	<g id="text96" transform="matrix(1,0,0,-1,585.6401,608.1465)">
		<path id="path3064" fill="#75CFF5" d="M-1.037-5.162l-1.131-0.425C-2.46-4.982-2.829-4.713-3.333-4.713
			c-0.526,0-0.862-0.191-1.131-0.583c-0.291-0.47-0.47-1.288-0.47-2.105c0-0.638,0.101-1.288,0.291-1.736
			c0.257-0.661,0.661-0.93,1.266-0.93c0.571,0,0.818,0.157,1.232,0.795l1.109-0.47c-0.504-1.053-1.209-1.534-2.341-1.534
			c-0.851,0-1.479,0.291-1.927,0.84c-0.526,0.661-0.84,1.848-0.84,3.035c0,0.941,0.213,1.893,0.549,2.554
			c0.482,0.919,1.187,1.344,2.296,1.344C-2.224-3.504-1.485-4.063-1.037-5.162"/>
		<path id="path3066" fill="#75CFF5" d="M6.288-3.638L3.7-11.142H2.524l-2.587,7.504h1.265l0.739-2.105h2.341l0.739,2.105H6.288
			 M3.858-6.953H2.357l0.772-2.106L3.858-6.953"/>
		<path id="path3068" fill="#75CFF5" d="M12.524-3.638v-7.504h-1.186v4.795l-2.732-4.795H7.419v7.504h1.188v-5.085l2.867,5.085
			H12.524"/>
		<path id="path3070" fill="#75CFF5" d="M19.259-5.162l-1.13-0.425c-0.292,0.605-0.662,0.873-1.166,0.873
			c-0.527,0-0.862-0.191-1.131-0.583c-0.291-0.47-0.47-1.288-0.47-2.105c0-0.638,0.1-1.288,0.291-1.736
			c0.258-0.661,0.661-0.93,1.266-0.93c0.572,0,0.818,0.157,1.233,0.795l1.108-0.47c-0.503-1.053-1.209-1.534-2.341-1.534
			c-0.851,0-1.478,0.291-1.926,0.84c-0.526,0.661-0.84,1.848-0.84,3.035c0,0.941,0.213,1.893,0.548,2.554
			c0.481,0.919,1.188,1.344,2.297,1.344C18.073-3.504,18.811-4.063,19.259-5.162"/>
		<path id="path3072" fill="#75CFF5" d="M25.554-3.638v-1.209h-3.472v-2.061h2.184v-1.21h-2.184v-1.837h3.236v-1.187h-4.423v7.504
			H25.554"/>
		<path id="path3074" fill="#75CFF5" d="M31.479-3.638v-1.108h-3.473v-6.396H26.82v7.504H31.479"/>
	</g>
</g>
</svg>
