<?xml version="1.0" encoding="utf-8"?>
<!-- Generator: Adobe Illustrator 15.1.0, SVG Export Plug-In . SVG Version: 6.00 Build 0)  -->
<!DOCTYPE svg PUBLIC "-//W3C//DTD SVG 1.1//EN" "http://www.w3.org/Graphics/SVG/1.1/DTD/svg11.dtd">
<svg version="1.1"
	 id="svg3181" inkscape:version="0.48.2 r9819" sodipodi:docname="close-on.ai" xmlns:rdf="http://www.w3.org/1999/02/22-rdf-syntax-ns#" xmlns:dc="http://purl.org/dc/elements/1.1/" xmlns:cc="http://creativecommons.org/ns#" xmlns:svg="http://www.w3.org/2000/svg" xmlns:sodipodi="http://sodipodi.sourceforge.net/DTD/sodipodi-0.dtd" xmlns:inkscape="http://www.inkscape.org/namespaces/inkscape"
	 xmlns="http://www.w3.org/2000/svg" xmlns:xlink="http://www.w3.org/1999/xlink" x="0px" y="0px" width="79.791px"
	 height="25.309px" viewBox="0 0 79.791 25.309" enable-background="new 0 0 79.791 25.309" xml:space="preserve">
<sodipodi:namedview  id="namedview3183" objecttolerance="10" borderopacity="1" pagecolor="#ffffff" inkscape:window-width="640" fit-margin-top="0" inkscape:window-maximized="0" guidetolerance="10" bordercolor="#666666" gridtolerance="10" inkscape:pageopacity="0" inkscape:pageshadow="2" inkscape:window-height="480" inkscape:cx="40.07375" showgrid="false" inkscape:zoom="0.30849673" fit-margin-left="0" fit-margin-right="0" fit-margin-bottom="0" inkscape:cy="11.87125" inkscape:window-x="0" inkscape:window-y="0" inkscape:current-layer="g3189">
	</sodipodi:namedview>
<g id="g3191">
	<g id="g3193">
		<g id="g3199">
			<g id="g3201">
				
					<linearGradient id="path3209_1_" gradientUnits="userSpaceOnUse" x1="-561.4658" y1="20.9919" x2="-560.4658" y2="20.9919" gradientTransform="matrix(0 -25.3064 25.3064 0 -491.3203 -14183.3711)">
					<stop  offset="0" style="stop-color:#757577"/>
					<stop  offset="1" style="stop-color:#373536"/>
				</linearGradient>
				<path id="path3209" inkscape:connector-curvature="0" fill="url(#path3209_1_)" d="M10.55,0C4.734,0,0,5.675,0,12.654l0,0
					c0,6.977,4.734,12.654,10.55,12.654l0,0h58.699c5.818,0,10.543-5.679,10.543-12.654l0,0C79.792,5.675,75.067,0,69.249,0l0,0
					H10.55L10.55,0z"/>
			</g>
		</g>
	</g>
</g>
<g id="g3211">
	<g id="g3213">
		<g id="g3219">
			<g id="g3221">
				
					<linearGradient id="path3229_1_" gradientUnits="userSpaceOnUse" x1="-564.0713" y1="-22.7981" x2="-563.0713" y2="-22.7981" gradientTransform="matrix(0 -23.2996 -23.2996 0 -491.291 -13118.3398)">
					<stop  offset="0" style="stop-color:#757577"/>
					<stop  offset="1" style="stop-color:#373536"/>
				</linearGradient>
				<path id="path3229" inkscape:connector-curvature="0" fill="url(#path3229_1_)" d="M10.55,1.001
					c-5.261,0-9.543,5.23-9.543,11.65l0,0c0,6.424,4.282,11.649,9.543,11.649l0,0h58.699c5.264,0,9.536-5.226,9.536-11.649l0,0
					c0-6.42-4.272-11.65-9.536-11.65l0,0H10.55L10.55,1.001z"/>
			</g>
		</g>
	</g>
</g>
<g id="g3231">
	<g id="g3233">
		<g id="g3239">
			<g id="g3241">
				
					<linearGradient id="path3251_1_" gradientUnits="userSpaceOnUse" x1="-566.1938" y1="-24.2708" x2="-565.1938" y2="-24.2708" gradientTransform="matrix(0 -21.886 -21.886 0 -491.3125 -12368.1309)">
					<stop  offset="0" style="stop-color:#373536"/>
					<stop  offset="0.9948" style="stop-color:#757577"/>
					<stop  offset="1" style="stop-color:#757577"/>
				</linearGradient>
				<path id="path3251" inkscape:connector-curvature="0" fill="url(#path3251_1_)" d="M10.55,1.71
					c-4.906,0-8.903,4.91-8.903,10.944l0,0c0,6.033,3.997,10.942,8.903,10.942l0,0h58.699c4.908,0,8.898-4.909,8.898-10.942l0,0
					c0-6.034-3.99-10.944-8.898-10.944l0,0H10.55L10.55,1.71z"/>
			</g>
		</g>
	</g>
</g>
<g id="g3253">
	<g>
		<g id="g3255">
			<g id="g3261" transform="translate(381.6543,302.4268)">
				<path id="path3263" inkscape:connector-curvature="0" fill="#FFFFFF" d="M-359.513-284.524c-1.657,0-2.708-0.637-3.427-2.005
					c-0.501-0.988-0.818-2.406-0.818-3.811c0-1.771,0.469-3.542,1.254-4.53c0.667-0.817,1.603-1.252,2.874-1.252
					c1.688,0,2.743,0.72,3.494,2.289l-1.655,0.702c-0.62-0.953-0.986-1.187-1.841-1.187c-0.9,0-1.501,0.4-1.886,1.388
					c-0.286,0.67-0.435,1.637-0.435,2.591c0,1.22,0.269,2.44,0.7,3.141c0.404,0.588,0.904,0.87,1.688,0.87
					c0.755,0,1.304-0.401,1.741-1.303l1.687,0.634C-356.808-285.361-357.912-284.524-359.513-284.524"/>
			</g>
			<g id="g3265" transform="translate(386.3066,302.5879)">
				<path id="path3267" inkscape:connector-curvature="0" fill="#FFFFFF" d="M-358.35-284.887v-11.197h1.77v9.541h5.184v1.656
					H-358.35L-358.35-284.887z"/>
			</g>
			<g id="g3269" transform="translate(397.4023,309.5664)">
				<path id="path3271" inkscape:connector-curvature="0" fill="#FFFFFF" d="M-355.575-300.588c-0.35-0.586-0.783-0.819-1.453-0.869
					h-0.1c-0.804,0-1.333,0.436-1.702,1.389c-0.288,0.669-0.437,1.689-0.437,2.624c0,1.188,0.234,2.405,0.671,3.108
					c0.351,0.586,0.817,0.868,1.535,0.868c0.819,0,1.335-0.434,1.724-1.42c0.232-0.587,0.433-1.689,0.433-2.556
					C-354.903-298.701-355.138-299.835-355.575-300.588 M-354.354-292.918c-0.635,0.853-1.539,1.254-2.706,1.254
					c-1.571,0-2.558-0.637-3.223-2.008c-0.471-0.952-0.788-2.438-0.788-3.773c0-1.838,0.47-3.493,1.22-4.564
					c0.668-0.85,1.572-1.252,2.855-1.252c1.42,0,2.408,0.634,3.111,2.006c0.467,0.986,0.75,2.406,0.75,3.811
					C-353.134-295.674-353.567-293.903-354.354-292.918"/>
			</g>
			<g id="g3273" transform="translate(405.9219,303.123)">
				<path id="path3275" inkscape:connector-curvature="0" fill="#FFFFFF" d="M-353.446-286.09c-0.619,0.551-1.486,0.869-2.441,0.869
					c-1.92,0-3.325-1.14-4.075-2.841l1.688-0.618c0.467,1.053,1.332,1.653,2.387,1.653c1.039,0,1.738-0.719,1.738-1.653
					c0-1.488-1.738-1.738-3.188-2.324c-0.67-0.268-2.159-0.936-2.159-2.79c0-2.19,1.489-3.025,3.491-3.025
					c1.573,0,2.641,0.902,3.19,2.289l-1.567,0.467c0,0-0.402-0.951-1.656-0.985h-0.114c-0.771,0-1.604,0.3-1.604,1.186v0.116
					c0.149,2.073,5.414,0.703,5.414,5.099C-352.342-287.627-352.742-286.724-353.446-286.09"/>
			</g>
			<g id="g3277" transform="translate(408.3164,302.5879)">
				<path id="path3279" inkscape:connector-curvature="0" fill="#FFFFFF" d="M-352.847-284.887v-11.197h6.601v1.771h-4.831v2.739
					h3.26v1.807h-3.26v3.074h5.182v1.806H-352.847L-352.847-284.887z"/>
			</g>
		</g>
	</g>
</g>
</svg>
