<?xml version="1.0" encoding="utf-8"?>
<!-- Generator: Adobe Illustrator 15.1.0, SVG Export Plug-In . SVG Version: 6.00 Build 0)  -->
<!DOCTYPE svg PUBLIC "-//W3C//DTD SVG 1.1//EN" "http://www.w3.org/Graphics/SVG/1.1/DTD/svg11.dtd">
<svg version="1.1"
	 id="Layer_1" inkscape:version="0.48.2 r9819" xmlns:inkscape="http://www.inkscape.org/namespaces/inkscape" xmlns:sodipodi="http://sodipodi.sourceforge.net/DTD/sodipodi-0.dtd" xmlns:dc="http://purl.org/dc/elements/1.1/" xmlns:rdf="http://www.w3.org/1999/02/22-rdf-syntax-ns#" xmlns:svg="http://www.w3.org/2000/svg" sodipodi:docname="ecobee.svg" xmlns:cc="http://creativecommons.org/ns#"
	 xmlns="http://www.w3.org/2000/svg" xmlns:xlink="http://www.w3.org/1999/xlink" x="0px" y="0px" width="44.637px"
	 height="44.637px" viewBox="0 0 44.637 44.637" enable-background="new 0 0 44.637 44.637" xml:space="preserve">
<path fill="#FFFFFF" stroke="#333333" stroke-width="14" stroke-miterlimit="10" d="M22.23,33.906
	c-6.323,0-11.446-5.127-11.446-11.45c-0.003-6.323,5.122-11.45,11.446-11.45c6.323,0,11.449,5.127,11.449,11.446
	C33.679,28.78,28.553,33.906,22.23,33.906z"/>
<path fill="#FFFFFF" d="M22.23,33.906c-6.323,0-11.446-5.127-11.446-11.45c-0.003-6.323,5.122-11.45,11.446-11.45
	c6.323,0,11.449,5.127,11.449,11.446C33.679,28.78,28.553,33.906,22.23,33.906z"/>
<g>
	<path fill="#EA3939" d="M22.32,12.867c-5.287,0-9.573,4.285-9.573,9.571c0,5.287,4.286,9.573,9.573,9.573
		c5.287,0,9.572-4.285,9.572-9.572C31.893,17.154,27.608,12.867,22.32,12.867z"/>
</g>
<g>
	<path fill="#FFFFFF" d="M16.683,18.66l1.94-1.94l3.741,3.742l3.704-3.703l1.861,1.861l-3.703,3.703l3.742,3.742l-1.941,1.94
		l-3.741-3.741l-3.702,3.701l-1.861-1.861l3.702-3.702L16.683,18.66z"/>
</g>
</svg>
