<?xml version="1.0" encoding="UTF-8" standalone="no"?>
<!-- Created with Inkscape (http://www.inkscape.org/) -->

<svg
   xmlns:dc="http://purl.org/dc/elements/1.1/"
   xmlns:cc="http://creativecommons.org/ns#"
   xmlns:rdf="http://www.w3.org/1999/02/22-rdf-syntax-ns#"
   xmlns:svg="http://www.w3.org/2000/svg"
   xmlns="http://www.w3.org/2000/svg"
   xmlns:sodipodi="http://sodipodi.sourceforge.net/DTD/sodipodi-0.dtd"
   xmlns:inkscape="http://www.inkscape.org/namespaces/inkscape"
   id="svg3073"
   version="1.1"
   inkscape:version="0.48.2 r9819"
   width="99.885002"
   height="25.307501"
   xml:space="preserve"
   sodipodi:docname="comfort-on.ai"><metadata
     id="metadata3079"><rdf:RDF><cc:Work
         rdf:about=""><dc:format>image/svg+xml</dc:format><dc:type
           rdf:resource="http://purl.org/dc/dcmitype/StillImage" /><dc:title></dc:title></cc:Work></rdf:RDF></metadata><defs
     id="defs3077"><linearGradient
       x1="0"
       y1="0"
       x2="1"
       y2="0"
       gradientUnits="userSpaceOnUse"
       gradientTransform="matrix(0,20.245117,20.245117,0,395.70996,296.50391)"
       spreadMethod="pad"
       id="linearGradient3095"><stop
         style="stop-opacity:1;stop-color:#757577"
         offset="0"
         id="stop3097" /><stop
         style="stop-opacity:1;stop-color:#373536"
         offset="1"
         id="stop3099" /></linearGradient><linearGradient
       x1="0"
       y1="0"
       x2="1"
       y2="0"
       gradientUnits="userSpaceOnUse"
       gradientTransform="matrix(0,18.639648,-18.639648,0,395.70898,297.30664)"
       spreadMethod="pad"
       id="linearGradient3115"><stop
         style="stop-opacity:1;stop-color:#757577"
         offset="0"
         id="stop3117" /><stop
         style="stop-opacity:1;stop-color:#373536"
         offset="1"
         id="stop3119" /></linearGradient><linearGradient
       x1="0"
       y1="0"
       x2="1"
       y2="0"
       gradientUnits="userSpaceOnUse"
       gradientTransform="matrix(0,17.508789,-17.508789,0,395.71094,297.87109)"
       spreadMethod="pad"
       id="linearGradient3135"><stop
         style="stop-opacity:1;stop-color:#373536"
         offset="0"
         id="stop3137" /><stop
         style="stop-opacity:1;stop-color:#757577"
         offset="0.994797"
         id="stop3139" /><stop
         style="stop-opacity:1;stop-color:#757577"
         offset="1"
         id="stop3141" /></linearGradient><clipPath
       clipPathUnits="userSpaceOnUse"
       id="clipPath3149"><path
         d="M 0,612 792,612 792,0 0,0 0,612 z"
         id="path3151"
         inkscape:connector-curvature="0" /></clipPath></defs><sodipodi:namedview
     pagecolor="#ffffff"
     bordercolor="#666666"
     borderopacity="1"
     objecttolerance="10"
     gridtolerance="10"
     guidetolerance="10"
     inkscape:pageopacity="0"
     inkscape:pageshadow="2"
     inkscape:window-width="640"
     inkscape:window-height="480"
     id="namedview3075"
     showgrid="false"
     fit-margin-top="0"
     fit-margin-left="0"
     fit-margin-right="0"
     fit-margin-bottom="0"
     inkscape:zoom="0.30849673"
     inkscape:cx="50.305"
     inkscape:cy="11.87125"
     inkscape:window-x="0"
     inkscape:window-y="0"
     inkscape:window-maximized="0"
     inkscape:current-layer="g3081" /><g
     id="g3081"
     inkscape:groupmode="layer"
     inkscape:label="comfort-on"
     transform="matrix(1.25,0,0,-1.25,-444.695,395.93625)"><g
       id="g3083"><g
         id="g3085"><g
           id="g3091"><g
             id="g3093"><path
               d="m 364.193,316.749 c -4.65,0 -8.437,-4.54 -8.437,-10.123 l 0,0 c 0,-5.581 3.787,-10.123 8.437,-10.123 l 0,0 63.035,0 c 4.657,0 8.436,4.542 8.436,10.123 l 0,0 c 0,5.583 -3.779,10.123 -8.436,10.123 l 0,0 -63.035,0 z"
               style="fill:url(#linearGradient3095);stroke:none"
               id="path3101"
               inkscape:connector-curvature="0" /></g></g></g></g><g
       id="g3103"><g
         id="g3105"><g
           id="g3111"><g
             id="g3113"><path
               d="m 364.193,315.948 c -4.207,0 -7.635,-4.184 -7.635,-9.32 l 0,0 c 0,-5.139 3.428,-9.32 7.635,-9.32 l 0,0 63.035,0 c 4.211,0 7.631,4.181 7.631,9.32 l 0,0 c 0,5.136 -3.42,9.32 -7.631,9.32 l 0,0 -63.035,0 z"
               style="fill:url(#linearGradient3115);stroke:none"
               id="path3121"
               inkscape:connector-curvature="0" /></g></g></g></g><g
       id="g3123"><g
         id="g3125"><g
           id="g3131"><g
             id="g3133"><path
               d="m 364.193,315.381 c -3.924,0 -7.121,-3.928 -7.121,-8.755 l 0,0 c 0,-4.827 3.197,-8.754 7.121,-8.754 l 0,0 63.035,0 c 3.926,0 7.122,3.927 7.122,8.754 l 0,0 c 0,4.827 -3.194,8.755 -7.122,8.755 l 0,0 -63.035,0 z"
               style="fill:url(#linearGradient3135);stroke:none"
               id="path3143"
               inkscape:connector-curvature="0" /></g></g></g></g><g
       id="g3145"><g
         id="g3147"
         clip-path="url(#clipPath3149)"><g
           id="g3153"
           transform="translate(373.4668,302.4268)"><path
             d="m 0,0 c -1.324,0 -2.166,0.508 -2.742,1.604 -0.401,0.79 -0.654,1.925 -0.654,3.048 0,1.417 0.375,2.834 1.005,3.624 0.536,0.655 1.282,1.002 2.299,1.002 1.352,0 2.194,-0.575 2.793,-1.831 L 1.377,6.886 c -0.494,0.762 -0.789,0.949 -1.471,0.949 -0.722,0 -1.203,-0.321 -1.511,-1.11 -0.227,-0.536 -0.346,-1.31 -0.346,-2.073 0,-0.976 0.213,-1.952 0.56,-2.513 0.323,-0.469 0.721,-0.696 1.352,-0.696 0.6,0 1.041,0.322 1.389,1.042 L 2.699,1.978 C 2.166,0.669 1.285,0 0,0"
             style="fill:#ffffff;fill-opacity:1;fill-rule:nonzero;stroke:none"
             id="path3155"
             inkscape:connector-curvature="0" /></g><g
           id="g3157"
           transform="translate(382.3301,309.5664)"><path
             d="m 0,0 c -0.279,0.469 -0.627,0.655 -1.162,0.695 l -0.08,0 c -0.643,0 -1.069,-0.348 -1.365,-1.11 -0.227,-0.535 -0.346,-1.352 -0.346,-2.099 0,-0.95 0.187,-1.925 0.535,-2.487 0.283,-0.469 0.654,-0.695 1.23,-0.695 0.655,0 1.069,0.347 1.377,1.136 0.188,0.469 0.348,1.351 0.348,2.045 C 0.537,-1.51 0.35,-0.602 0,0 m 0.977,-6.136 c -0.508,-0.681 -1.231,-1.003 -2.165,-1.003 -1.257,0 -2.046,0.509 -2.58,1.606 -0.375,0.762 -0.628,1.952 -0.628,3.02 0,1.47 0.376,2.794 0.974,3.651 0.535,0.68 1.258,1.002 2.287,1.002 C 0,2.14 0.789,1.633 1.354,0.535 1.727,-0.254 1.953,-1.39 1.953,-2.513 1.955,-3.931 1.607,-5.348 0.977,-6.136"
             style="fill:#ffffff;fill-opacity:1;fill-rule:nonzero;stroke:none"
             id="path3159"
             inkscape:connector-curvature="0" /></g><g
           id="g3161"
           transform="translate(391.8262,302.5879)"><path
             d="M 0,0 0,5.187 -2.072,0 l -2.073,5.187 0,-5.187 -1.418,0 0,8.958 1.418,0 L -2.072,3.931 0,8.958 1.418,8.958 1.418,0 0,0 z"
             style="fill:#ffffff;fill-opacity:1;fill-rule:nonzero;stroke:none"
             id="path3163"
             inkscape:connector-curvature="0" /></g><g
           id="g3165"
           transform="translate(396.8008,310.1289)"><path
             d="m 0,0 0,-2.192 2.605,0 0,-1.445 -2.605,0 0,-3.904 -1.418,0 0,8.958 5.561,0 L 4.143,0 0,0 z"
             style="fill:#ffffff;fill-opacity:1;fill-rule:nonzero;stroke:none"
             id="path3167"
             inkscape:connector-curvature="0" /></g><g
           id="g3169"
           transform="translate(406.4805,309.5664)"><path
             d="m 0,0 c -0.283,0.469 -0.629,0.655 -1.164,0.695 l -0.08,0 c -0.643,0 -1.07,-0.348 -1.363,-1.11 -0.229,-0.535 -0.348,-1.352 -0.348,-2.099 0,-0.95 0.187,-1.925 0.533,-2.487 0.283,-0.469 0.658,-0.695 1.231,-0.695 0.656,0 1.07,0.347 1.377,1.136 0.189,0.469 0.349,1.351 0.349,2.045 C 0.535,-1.51 0.348,-0.602 0,0 m 0.977,-6.136 c -0.508,-0.681 -1.231,-1.003 -2.165,-1.003 -1.259,0 -2.048,0.509 -2.582,1.606 -0.373,0.762 -0.626,1.952 -0.626,3.02 0,1.47 0.373,2.794 0.974,3.651 0.535,0.68 1.258,1.002 2.287,1.002 1.135,0 1.924,-0.507 2.487,-1.605 0.375,-0.789 0.599,-1.925 0.599,-3.048 0,-1.418 -0.346,-2.835 -0.974,-3.623"
             style="fill:#ffffff;fill-opacity:1;fill-rule:nonzero;stroke:none"
             id="path3171"
             inkscape:connector-curvature="0" /></g><g
           id="g3173"
           transform="translate(414.3418,309.9678)"><path
             d="m 0,0 c -0.238,0.134 -0.346,0.16 -0.814,0.16 l -1.698,0 0,-2.193 1.698,0 c 0.443,0 0.589,0.027 0.814,0.148 0.348,0.201 0.563,0.574 0.563,0.95 C 0.563,-0.562 0.35,-0.187 0,0 m 0.629,-7.38 -1.443,3.904 -1.698,0 0,-3.904 -1.418,0 0,8.958 2.953,0 c 0.698,0 1.166,-0.065 1.606,-0.281 0.791,-0.373 1.35,-1.323 1.35,-2.232 0,-0.95 -0.559,-1.885 -1.389,-2.26 l 1.576,-4.185 -1.537,0 z"
             style="fill:#ffffff;fill-opacity:1;fill-rule:nonzero;stroke:none"
             id="path3175"
             inkscape:connector-curvature="0" /></g><g
           id="g3177"
           transform="translate(420.6953,310.2891)"><path
             d="m 0,0 0,-7.701 -1.418,0 0,7.701 -2.047,0 0,1.256 5.537,0 L 2.072,0 0,0 z"
             style="fill:#ffffff;fill-opacity:1;fill-rule:nonzero;stroke:none"
             id="path3179"
             inkscape:connector-curvature="0" /></g></g></g></g></svg>