<?xml version="1.0" encoding="utf-8"?>
<!-- Generator: Adobe Illustrator 15.1.0, SVG Export Plug-In . SVG Version: 6.00 Build 0)  -->
<!DOCTYPE svg PUBLIC "-//W3C//DTD SVG 1.1//EN" "http://www.w3.org/Graphics/SVG/1.1/DTD/svg11.dtd">
<svg version="1.1"
	 id="svg3073" inkscape:version="0.48.2 r9819" sodipodi:docname="comfort-on.ai" xmlns:rdf="http://www.w3.org/1999/02/22-rdf-syntax-ns#" xmlns:dc="http://purl.org/dc/elements/1.1/" xmlns:cc="http://creativecommons.org/ns#" xmlns:svg="http://www.w3.org/2000/svg" xmlns:sodipodi="http://sodipodi.sourceforge.net/DTD/sodipodi-0.dtd" xmlns:inkscape="http://www.inkscape.org/namespaces/inkscape"
	 xmlns="http://www.w3.org/2000/svg" xmlns:xlink="http://www.w3.org/1999/xlink" x="0px" y="0px" width="99.885px"
	 height="25.308px" viewBox="0 0 99.885 25.308" enable-background="new 0 0 99.885 25.308" xml:space="preserve">
<sodipodi:namedview  id="namedview3075" objecttolerance="10" borderopacity="1" pagecolor="#ffffff" inkscape:window-width="640" fit-margin-top="0" inkscape:window-maximized="0" guidetolerance="10" bordercolor="#666666" gridtolerance="10" inkscape:pageopacity="0" inkscape:pageshadow="2" inkscape:window-height="480" inkscape:cx="50.305" showgrid="false" inkscape:zoom="0.30849673" fit-margin-left="0" fit-margin-right="0" fit-margin-bottom="0" inkscape:cy="11.87125" inkscape:window-x="0" inkscape:window-y="0" inkscape:current-layer="g3081">
	</sodipodi:namedview>
<g id="g3083">
	<g id="g3085">
		<g id="g3091">
			<g id="g3093">
				
					<linearGradient id="path3101_1_" gradientUnits="userSpaceOnUse" x1="-270.686" y1="399.0542" x2="-269.686" y2="399.0542" gradientTransform="matrix(0 -25.3064 -25.3064 0 10148.5889 -6824.7759)">
					<stop  offset="0" style="stop-color:#757577"/>
					<stop  offset="1" style="stop-color:#373536"/>
				</linearGradient>
				<path id="path3101" inkscape:connector-curvature="0" fill="url(#path3101_1_)" d="M10.546,0C4.734,0,0,5.675,0,12.654l0,0
					c0,6.977,4.734,12.654,10.546,12.654l0,0H89.34c5.821,0,10.545-5.678,10.545-12.654l0,0C99.885,5.675,95.161,0,89.34,0l0,0
					H10.546z"/>
			</g>
		</g>
	</g>
</g>
<g id="g3103">
	<g id="g3105">
		<g id="g3111">
			<g id="g3113">
				
					<linearGradient id="path3121_1_" gradientUnits="userSpaceOnUse" x1="-271.9893" y1="420.1226" x2="-270.9893" y2="420.1226" gradientTransform="matrix(0 -23.2996 23.2996 0 -9738.7236 -6312.9297)">
					<stop  offset="0" style="stop-color:#757577"/>
					<stop  offset="1" style="stop-color:#373536"/>
				</linearGradient>
				<path id="path3121" inkscape:connector-curvature="0" fill="url(#path3121_1_)" d="M10.546,1.001
					c-5.259,0-9.544,5.23-9.544,11.65l0,0c0,6.424,4.285,11.65,9.544,11.65l0,0H89.34c5.264,0,9.539-5.226,9.539-11.65l0,0
					c0-6.42-4.275-11.65-9.539-11.65l0,0H10.546z"/>
			</g>
		</g>
	</g>
</g>
<g id="g3123">
	<g id="g3125">
		<g id="g3131">
			<g id="g3133">
				
					<linearGradient id="path3143_1_" gradientUnits="userSpaceOnUse" x1="-273.0503" y1="420.8296" x2="-272.0503" y2="420.8296" gradientTransform="matrix(0 -21.886 21.886 0 -9160.3545 -5952.3828)">
					<stop  offset="0" style="stop-color:#373536"/>
					<stop  offset="0.9948" style="stop-color:#757577"/>
					<stop  offset="1" style="stop-color:#757577"/>
				</linearGradient>
				<path id="path3143" inkscape:connector-curvature="0" fill="url(#path3143_1_)" d="M10.546,1.71
					c-4.905,0-8.901,4.91-8.901,10.944l0,0c0,6.033,3.996,10.942,8.901,10.942l0,0H89.34c4.907,0,8.903-4.909,8.903-10.942l0,0
					c0-6.034-3.993-10.944-8.903-10.944l0,0H10.546z"/>
			</g>
		</g>
	</g>
</g>
<g id="g3145">
	<g>
		<g id="g3147">
			<g id="g3153" transform="translate(373.4668,302.4268)">
				<path id="path3155" inkscape:connector-curvature="0" fill="#999999" d="M-351.328-284.524c-1.655,0-2.708-0.636-3.428-2.005
					c-0.501-0.988-0.817-2.406-0.817-3.81c0-1.771,0.469-3.542,1.256-4.53c0.67-0.818,1.603-1.252,2.874-1.252
					c1.69,0,2.743,0.719,3.491,2.289l-1.655,0.702c-0.618-0.953-0.986-1.187-1.839-1.187c-0.902,0-1.504,0.401-1.889,1.388
					c-0.284,0.67-0.433,1.637-0.433,2.591c0,1.22,0.266,2.44,0.7,3.141c0.404,0.587,0.901,0.87,1.69,0.87
					c0.75,0,1.301-0.402,1.736-1.303l1.686,0.634C-348.621-285.361-349.722-284.524-351.328-284.524"/>
			</g>
			<g id="g3157" transform="translate(382.3301,309.5664)">
				<path id="path3159" inkscape:connector-curvature="0" fill="#999999" d="M-349.112-300.588
					c-0.349-0.586-0.784-0.819-1.453-0.869h-0.1c-0.804,0-1.336,0.435-1.706,1.388c-0.284,0.669-0.433,1.69-0.433,2.624
					c0,1.188,0.234,2.406,0.669,3.109c0.354,0.586,0.817,0.868,1.537,0.868c0.819,0,1.336-0.434,1.722-1.42
					c0.235-0.587,0.435-1.689,0.435-2.556C-348.441-298.701-348.675-299.835-349.112-300.588 M-347.891-292.918
					c-0.635,0.852-1.539,1.254-2.707,1.254c-1.571,0-2.557-0.637-3.225-2.008c-0.469-0.952-0.785-2.439-0.785-3.774
					c0-1.837,0.47-3.493,1.217-4.564c0.669-0.85,1.573-1.252,2.859-1.252c1.419,0,2.405,0.634,3.111,2.006
					c0.466,0.986,0.749,2.406,0.749,3.81C-346.669-295.674-347.104-293.903-347.891-292.918"/>
			</g>
			<g id="g3161" transform="translate(391.8262,302.5879)">
				<path id="path3163" inkscape:connector-curvature="0" fill="#999999" d="M-346.738-284.887v-6.483l-2.59,6.483l-2.591-6.483
					v6.483h-1.772v-11.197h1.772l2.591,6.284l2.59-6.284h1.772v11.197H-346.738z"/>
			</g>
			<g id="g3165" transform="translate(396.8008,310.1289)">
				<path id="path3167" inkscape:connector-curvature="0" fill="#999999" d="M-345.495-301.854v2.74h3.256v1.806h-3.256v4.879
					h-1.772v-11.197h6.952v1.771H-345.495z"/>
			</g>
			<g id="g3169" transform="translate(406.4805,309.5664)">
				<path id="path3171" inkscape:connector-curvature="0" fill="#999999" d="M-343.075-300.588
					c-0.354-0.586-0.786-0.819-1.455-0.869h-0.1c-0.804,0-1.338,0.435-1.703,1.388c-0.287,0.669-0.436,1.69-0.436,2.624
					c0,1.188,0.234,2.406,0.666,3.109c0.354,0.586,0.822,0.868,1.539,0.868c0.82,0,1.338-0.434,1.721-1.42
					c0.236-0.587,0.437-1.689,0.437-2.556C-342.406-298.701-342.64-299.835-343.075-300.588 M-341.854-292.918
					c-0.636,0.852-1.539,1.254-2.706,1.254c-1.574,0-2.561-0.637-3.229-2.008c-0.465-0.952-0.781-2.439-0.781-3.774
					c0-1.837,0.466-3.493,1.217-4.564c0.669-0.85,1.572-1.252,2.859-1.252c1.418,0,2.404,0.634,3.108,2.006
					c0.469,0.986,0.749,2.406,0.749,3.81C-340.636-295.674-341.069-293.903-341.854-292.918"/>
			</g>
			<g id="g3173" transform="translate(414.3418,309.9678)">
				<path id="path3175" inkscape:connector-curvature="0" fill="#999999" d="M-341.109-301.491c-0.298-0.167-0.433-0.2-1.018-0.2
					h-2.122v2.741h2.122c0.554,0,0.736-0.034,1.018-0.185c0.435-0.251,0.704-0.718,0.704-1.188
					C-340.405-300.789-340.672-301.257-341.109-301.491 M-340.323-292.266l-1.804-4.88h-2.122v4.88h-1.773v-11.198h3.691
					c0.873,0,1.457,0.082,2.008,0.352c0.988,0.466,1.688,1.653,1.688,2.79c0,1.188-0.699,2.356-1.736,2.825l1.971,5.231H-340.323z"
					/>
			</g>
			<g id="g3177" transform="translate(420.6953,310.2891)">
				<path id="path3179" inkscape:connector-curvature="0" fill="#999999" d="M-339.521-302.214v9.626h-1.773v-9.626h-2.559v-1.57
					h6.922v1.57H-339.521z"/>
			</g>
		</g>
	</g>
</g>
</svg>
