<?xml version="1.0" encoding="utf-8"?>
<!-- Generator: Adobe Illustrator 15.1.0, SVG Export Plug-In . SVG Version: 6.00 Build 0)  -->
<!DOCTYPE svg PUBLIC "-//W3C//DTD SVG 1.1//EN" "http://www.w3.org/Graphics/SVG/1.1/DTD/svg11.dtd">
<svg version="1.1"
	 id="svg2" sodipodi:docname="cool-button.ai" inkscape:version="0.48.2 r9819" xmlns:inkscape="http://www.inkscape.org/namespaces/inkscape" xmlns:sodipodi="http://sodipodi.sourceforge.net/DTD/sodipodi-0.dtd" xmlns:svg="http://www.w3.org/2000/svg" xmlns:rdf="http://www.w3.org/1999/02/22-rdf-syntax-ns#" xmlns:cc="http://creativecommons.org/ns#" xmlns:dc="http://purl.org/dc/elements/1.1/"
	 xmlns="http://www.w3.org/2000/svg" xmlns:xlink="http://www.w3.org/1999/xlink" x="0px" y="0px" width="61.594px"
	 height="23.615px" viewBox="0 0 61.594 23.615" enable-background="new 0 0 61.594 23.615" xml:space="preserve">
<sodipodi:namedview  pagecolor="#ffffff" borderopacity="1" id="namedview4" inkscape:window-width="640" fit-margin-top="0" objecttolerance="10" bordercolor="#666666" gridtolerance="10" guidetolerance="10" inkscape:pageopacity="0" inkscape:pageshadow="2" inkscape:window-height="480" inkscape:cx="30.40625" showgrid="false" fit-margin-left="0" fit-margin-right="0" fit-margin-bottom="0" inkscape:zoom="0.23838384" inkscape:cy="12.1375" inkscape:window-x="0" inkscape:window-y="0" inkscape:window-maximized="0" inkscape:current-layer="g10">
	</sodipodi:namedview>
<g id="g10" transform="matrix(1.25,0,0,-1.25,-352.09375,506.4775)" inkscape:label="cool-button" inkscape:groupmode="layer">
	<g id="g12">
		<g>
			<defs>
				<rect id="SVGID_1_" x="-76.5" y="-99" width="765" height="990"/>
			</defs>
			<clipPath id="SVGID_2_">
				<use xlink:href="#SVGID_1_"  overflow="visible"/>
			</clipPath>
		</g>
	</g>
	<g id="g52">
		<g id="g54">
			<g id="g60">
				<g id="g62">
					
						<linearGradient id="path70_1_" gradientUnits="userSpaceOnUse" x1="232.7629" y1="372.5812" x2="233.7629" y2="372.5812" gradientTransform="matrix(0 23.6145 -23.6145 0 9104.6191 -5110.2861)">
						<stop  offset="0" style="stop-color:#747576"/>
						<stop  offset="1" style="stop-color:#373536"/>
					</linearGradient>
					<path id="path70" inkscape:connector-curvature="0" fill="url(#path70_1_)" d="M289.548,405.182
						c-4.34,0-7.873-4.237-7.873-9.445l0,0c0-5.211,3.533-9.447,7.873-9.447l0,0h33.531c4.338,0,7.871,4.237,7.871,9.447l0,0
						c0,5.208-3.533,9.445-7.871,9.445l0,0H289.548z"/>
				</g>
			</g>
		</g>
	</g>
	<g id="g72">
		<g id="g74">
			<g id="g80">
				<g id="g82">
					
						<linearGradient id="path90_1_" gradientUnits="userSpaceOnUse" x1="231.9059" y1="398.3554" x2="232.9059" y2="398.3554" gradientTransform="matrix(0 21.7419 21.7419 0 -8354.7041 -4655.043)">
						<stop  offset="0" style="stop-color:#747576"/>
						<stop  offset="1" style="stop-color:#373536"/>
					</linearGradient>
					<path id="path90" inkscape:connector-curvature="0" fill="url(#path90_1_)" d="M289.548,404.434
						c-3.926,0-7.121-3.903-7.121-8.696l0,0c0-4.795,3.195-8.697,7.121-8.697l0,0h33.531c3.924,0,7.12,3.902,7.12,8.697l0,0
						c0,4.793-3.195,8.696-7.12,8.696l0,0H289.548z"/>
				</g>
			</g>
		</g>
	</g>
	<g id="g92">
		<g id="g94">
			<g id="g100">
				<g id="g102">
					
						<linearGradient id="path112_1_" gradientUnits="userSpaceOnUse" x1="231.2082" y1="399.2211" x2="232.2082" y2="399.2211" gradientTransform="matrix(0 20.4236 20.4236 0 -7847.2207 -4334.5356)">
						<stop  offset="0" style="stop-color:#373536"/>
						<stop  offset="0.9948" style="stop-color:#747576"/>
						<stop  offset="1" style="stop-color:#747576"/>
					</linearGradient>
					<path id="path112" inkscape:connector-curvature="0" fill="url(#path112_1_)" d="M289.548,403.906
						c-3.662,0-6.646-3.665-6.646-8.168l0,0c0-4.505,2.984-8.17,6.646-8.17l0,0h33.531c3.661,0,6.64,3.665,6.64,8.17l0,0
						c0,4.503-2.979,8.168-6.64,8.168l0,0H289.548z"/>
				</g>
			</g>
		</g>
	</g>
	<g id="g114">
		<g>
			<defs>
				<rect id="SVGID_3_" x="-76.5" y="-99" width="765" height="990"/>
			</defs>
			<clipPath id="SVGID_4_">
				<use xlink:href="#SVGID_3_"  overflow="visible"/>
			</clipPath>
			<g id="g116" clip-path="url(#SVGID_4_)">
				<g id="g122" transform="translate(296.2197,391.8184)">
					<path id="path124" inkscape:connector-curvature="0" fill="#FFFFFF" d="M0,0c-1.235,0-2.021,0.475-2.559,1.498
						C-2.934,2.233-3.17,3.294-3.17,4.343c0,1.324,0.349,2.646,0.937,3.383c0.498,0.611,1.197,0.937,2.146,0.937
						c1.26,0,2.047-0.538,2.608-1.71L1.285,6.429C0.824,7.14,0.549,7.314-0.087,7.314c-0.675,0-1.124-0.299-1.411-1.036
						C-1.71,5.779-1.822,5.056-1.822,4.343c0-0.91,0.199-1.822,0.524-2.347c0.299-0.436,0.674-0.648,1.261-0.648
						c0.562,0,0.975,0.298,1.298,0.973l1.261-0.473C2.022,0.623,1.198,0,0,0"/>
				</g>
				<g id="g126" transform="translate(304.4922,398.4829)">
					<path id="path128" inkscape:connector-curvature="0" fill="#FFFFFF" d="M0,0c-0.264,0.437-0.587,0.611-1.086,0.649h-0.075
						c-0.601,0-0.999-0.325-1.274-1.036c-0.211-0.499-0.324-1.261-0.324-1.959c0-0.886,0.176-1.797,0.499-2.322
						c0.264-0.437,0.612-0.649,1.149-0.649c0.611,0,0.999,0.324,1.286,1.061c0.174,0.438,0.324,1.261,0.324,1.911
						C0.499-1.411,0.324-0.562,0,0 M0.91-5.729C0.436-6.366-0.237-6.665-1.111-6.665c-1.173,0-1.91,0.475-2.41,1.498
						C-3.87-4.456-4.106-3.345-4.106-2.346c0,1.373,0.348,2.608,0.911,3.407c0.499,0.637,1.173,0.937,2.133,0.937
						c1.063,0,1.798-0.475,2.322-1.498c0.349-0.736,0.561-1.797,0.561-2.846C1.822-3.67,1.497-4.993,0.91-5.729"/>
				</g>
				<g id="g130" transform="translate(312.0908,398.4829)">
					<path id="path132" inkscape:connector-curvature="0" fill="#FFFFFF" d="M0,0c-0.263,0.437-0.587,0.611-1.086,0.649h-0.075
						c-0.6,0-0.998-0.325-1.273-1.036c-0.211-0.499-0.323-1.261-0.323-1.959c0-0.886,0.175-1.797,0.498-2.322
						c0.264-0.437,0.612-0.649,1.148-0.649c0.611,0,0.999,0.324,1.286,1.061c0.174,0.438,0.324,1.261,0.324,1.911
						C0.499-1.411,0.324-0.562,0,0 M0.911-5.729C0.436-6.366-0.237-6.665-1.111-6.665c-1.173,0-1.909,0.475-2.409,1.498
						c-0.35,0.711-0.586,1.822-0.586,2.821c0,1.373,0.349,2.608,0.911,3.407c0.5,0.637,1.173,0.937,2.134,0.937
						c1.062,0,1.798-0.475,2.322-1.498C1.61-0.236,1.823-1.297,1.823-2.346C1.822-3.67,1.497-4.993,0.911-5.729"/>
				</g>
				<g id="g134" transform="translate(315.7578,391.9668)">
					<path id="path136" inkscape:connector-curvature="0" fill="#FFFFFF" d="M0,0v8.363h1.322V1.236h3.869V0H0z"/>
				</g>
			</g>
		</g>
	</g>
</g>
</svg>
