<?xml version="1.0" encoding="utf-8"?>
<!-- Generator: Adobe Illustrator 15.1.0, SVG Export Plug-In . SVG Version: 6.00 Build 0)  -->
<!DOCTYPE svg PUBLIC "-//W3C//DTD SVG 1.1//EN" "http://www.w3.org/Graphics/SVG/1.1/DTD/svg11.dtd">
<svg version="1.1"
	 id="Layer_1" inkscape:version="0.48.2 r9819" xmlns:inkscape="http://www.inkscape.org/namespaces/inkscape" xmlns:sodipodi="http://sodipodi.sourceforge.net/DTD/sodipodi-0.dtd" xmlns:dc="http://purl.org/dc/elements/1.1/" xmlns:rdf="http://www.w3.org/1999/02/22-rdf-syntax-ns#" xmlns:svg="http://www.w3.org/2000/svg" sodipodi:docname="test.svg" xmlns:cc="http://creativecommons.org/ns#"
	 xmlns="http://www.w3.org/2000/svg" xmlns:xlink="http://www.w3.org/1999/xlink" x="0px" y="0px" width="142.36px"
	 height="28.162px" viewBox="0 0 142.36 28.162" enable-background="new 0 0 142.36 28.162" xml:space="preserve">
<sodipodi:namedview  pagecolor="#ffffff" inkscape:window-width="640" fit-margin-top="0" bordercolor="#666666" borderopacity="1" id="namedview65" fit-margin-bottom="0" inkscape:zoom="0.19627411" objecttolerance="10" gridtolerance="10" guidetolerance="10" inkscape:pageopacity="0" inkscape:pageshadow="2" inkscape:window-height="480" inkscape:cy="13.639" showgrid="false" inkscape:cx="41.035" inkscape:window-x="0" inkscape:window-y="0" inkscape:window-maximized="0" inkscape:current-layer="Layer_1" fit-margin-left="0" fit-margin-right="0">
	</sodipodi:namedview>
<g id="g3" transform="translate(-228.965,-586.67701)">
	
		<linearGradient id="path14_1_" gradientUnits="userSpaceOnUse" x1="1563.8136" y1="3495.3899" x2="1563.8136" y2="3467.2288" gradientTransform="matrix(1 0 0 1 -1263.7188 -2880.5505)">
		<stop  offset="0" style="stop-color:#414042"/>
		<stop  offset="0.3972" style="stop-color:#3A3A3C"/>
		<stop  offset="0.7887" style="stop-color:#212122"/>
		<stop  offset="1" style="stop-color:#000000"/>
	</linearGradient>
	<path id="path14" inkscape:connector-curvature="0" fill="url(#path14_1_)" d="M242.945,614.839c-7.765,0-14.08-6.315-14.08-14.082
		c0-7.764,6.315-14.08,14.08-14.08h114.298c7.767,0,14.082,6.316,14.082,14.08c0,7.767-6.315,14.082-14.082,14.082H242.945
		L242.945,614.839z"/>
	
		<linearGradient id="path25_1_" gradientUnits="userSpaceOnUse" x1="1563.8116" y1="3493.1399" x2="1563.8116" y2="3469.4788" gradientTransform="matrix(1 0 0 1 -1263.7188 -2880.5505)">
		<stop  offset="0" style="stop-color:#000000"/>
		<stop  offset="0.2113" style="stop-color:#212122"/>
		<stop  offset="0.6028" style="stop-color:#3A3A3C"/>
		<stop  offset="1" style="stop-color:#414042"/>
	</linearGradient>
	<path id="path25" inkscape:connector-curvature="0" fill="url(#path25_1_)" d="M369.073,600.757
		c0,6.535-5.297,11.832-11.832,11.832H242.943c-6.533,0-11.83-5.297-11.83-11.832l0,0c0-6.533,5.297-11.83,11.83-11.83h114.298
		C363.777,588.927,369.073,594.224,369.073,600.757L369.073,600.757z"/>
	
		<linearGradient id="path42_1_" gradientUnits="userSpaceOnUse" x1="1494.8341" y1="3475.5032" x2="1632.7941" y2="3475.5032" gradientTransform="matrix(1 0 0 1 -1263.7188 -2880.5505)">
		<stop  offset="0" style="stop-color:#000000"/>
		<stop  offset="0.1304" style="stop-color:#5D6A72"/>
		<stop  offset="0.2661" style="stop-color:#7899A9"/>
		<stop  offset="0.3788" style="stop-color:#80B9D3"/>
		<stop  offset="0.4624" style="stop-color:#7FCBEB"/>
		<stop  offset="0.5078" style="stop-color:#7ED3F7"/>
		<stop  offset="1" style="stop-color:#000000"/>
	</linearGradient>
	<path id="path42" inkscape:connector-curvature="0" fill="url(#path42_1_)" d="M242.945,589.376h114.298
		c6.459,0,11.701,5.176,11.819,11.604c0-0.074,0.013-0.148,0.013-0.225c0-6.533-5.297-11.83-11.832-11.83H242.945
		c-6.533,0-11.83,5.297-11.83,11.83c0,0.076,0.009,0.15,0.018,0.225C231.246,594.552,236.488,589.376,242.945,589.376
		L242.945,589.376z"/>
	
		<linearGradient id="path59_1_" gradientUnits="userSpaceOnUse" x1="1494.8341" y1="-1655.6218" x2="1632.7941" y2="-1655.6218" gradientTransform="matrix(1 0 0 -1 -1263.7188 -1048.6118)">
		<stop  offset="0" style="stop-color:#000000"/>
		<stop  offset="0.1304" style="stop-color:#5D6A72"/>
		<stop  offset="0.2661" style="stop-color:#7899A9"/>
		<stop  offset="0.3788" style="stop-color:#80B9D3"/>
		<stop  offset="0.4624" style="stop-color:#7FCBEB"/>
		<stop  offset="0.5078" style="stop-color:#7ED3F7"/>
		<stop  offset="1" style="stop-color:#000000"/>
	</linearGradient>
	<path id="path59" inkscape:connector-curvature="0" fill="url(#path59_1_)" d="M242.945,612.587h114.298
		c6.459,0,11.701-5.177,11.819-11.605c0,0.074,0.013,0.148,0.013,0.225c0,6.534-5.297,11.831-11.832,11.831H242.945
		c-6.533,0-11.83-5.297-11.83-11.831c0-0.076,0.009-0.15,0.018-0.225C231.246,607.41,236.488,612.587,242.945,612.587
		L242.945,612.587z"/>
</g>
<path fill="#6FCCF4" d="M21.479,18.398c-1.387,0-2.269-0.531-2.872-1.68c-0.42-0.826-0.687-2.018-0.687-3.194
	c0-1.486,0.393-2.971,1.051-3.797c0.56-0.686,1.345-1.051,2.409-1.051c1.415,0,2.297,0.602,2.928,1.92l-1.387,0.588
	c-0.519-0.799-0.827-0.994-1.541-0.994c-0.756,0-1.261,0.336-1.583,1.162c-0.238,0.561-0.364,1.373-0.364,2.172
	c0,1.021,0.224,2.045,0.588,2.633c0.336,0.49,0.756,0.729,1.415,0.729c0.63,0,1.093-0.336,1.457-1.094l1.415,0.533
	C23.748,17.699,22.824,18.398,21.479,18.398z"/>
<path fill="#6FCCF4" d="M31.125,18.23l-1.512-4.09h-1.779v4.09h-1.485V8.845h3.096c0.729,0,1.219,0.07,1.68,0.295
	c0.827,0.393,1.416,1.387,1.416,2.338c0,0.996-0.589,1.977-1.457,2.367l1.652,4.385H31.125z M30.467,10.498
	c-0.252-0.139-0.363-0.168-0.854-0.168h-1.779v2.299h1.779c0.462,0,0.615-0.029,0.854-0.154c0.365-0.211,0.589-0.604,0.589-0.996
	C31.056,11.087,30.832,10.695,30.467,10.498z"/>
<path fill="#6FCCF4" d="M34.314,18.23V8.845h5.533v1.484H35.8v2.299h2.731v1.512H35.8v2.579h4.343v1.512H34.314z"/>
<path fill="#6FCCF4" d="M47.254,18.23l-0.925-2.633h-2.928l-0.925,2.633h-1.582l3.235-9.385h1.471l3.235,9.385H47.254z
	 M44.887,11.451l-0.967,2.633h1.877L44.887,11.451z"/>
<path fill="#6FCCF4" d="M53.048,10.162v8.069h-1.484v-8.069H49.42V8.845h5.799v1.316H53.048z"/>
<path fill="#6FCCF4" d="M56.603,18.23V8.845h5.533v1.484h-4.048v2.299h2.73v1.512h-2.73v2.579h4.342v1.512H56.603z"/>
<path fill="#6FCCF4" d="M72.636,18.23l-0.925-2.633h-2.928l-0.924,2.633h-1.584l3.236-9.385h1.471l3.236,9.385H72.636z
	 M70.268,11.451l-0.966,2.633h1.877L70.268,11.451z"/>
<path fill="#6FCCF4" d="M78.99,18.398c-1.387,0-2.27-0.531-2.871-1.68c-0.421-0.826-0.688-2.018-0.688-3.194
	c0-1.486,0.393-2.971,1.051-3.797c0.561-0.686,1.345-1.051,2.41-1.051c1.414,0,2.297,0.602,2.927,1.92l-1.387,0.588
	c-0.518-0.799-0.826-0.994-1.54-0.994c-0.757,0-1.262,0.336-1.583,1.162c-0.238,0.561-0.364,1.373-0.364,2.172
	c0,1.021,0.225,2.045,0.588,2.633c0.337,0.49,0.757,0.729,1.415,0.729c0.63,0,1.093-0.336,1.457-1.094l1.414,0.533
	C81.26,17.699,80.335,18.398,78.99,18.398z"/>
<path fill="#6FCCF4" d="M87.226,18.398c-1.387,0-2.27-0.531-2.871-1.68c-0.421-0.826-0.687-2.018-0.687-3.194
	c0-1.486,0.392-2.971,1.05-3.797c0.561-0.686,1.345-1.051,2.41-1.051c1.414,0,2.297,0.602,2.927,1.92l-1.387,0.588
	c-0.518-0.799-0.826-0.994-1.54-0.994c-0.757,0-1.261,0.336-1.583,1.162c-0.238,0.561-0.364,1.373-0.364,2.172
	c0,1.021,0.224,2.045,0.588,2.633c0.336,0.49,0.757,0.729,1.415,0.729c0.63,0,1.093-0.336,1.457-1.094l1.414,0.533
	C89.495,17.699,88.57,18.398,87.226,18.398z"/>
<path fill="#6FCCF4" d="M97.531,17.348c-0.532,0.715-1.289,1.051-2.27,1.051c-1.316,0-2.143-0.531-2.703-1.68
	c-0.393-0.799-0.658-2.045-0.658-3.167c0-1.541,0.392-2.928,1.022-3.824c0.561-0.715,1.316-1.051,2.396-1.051
	c1.19,0,2.017,0.533,2.604,1.682c0.393,0.826,0.631,2.016,0.631,3.193C98.554,15.037,98.189,16.521,97.531,17.348z M96.509,10.919
	c-0.294-0.49-0.658-0.688-1.219-0.729c-0.028,0-0.057,0-0.084,0c-0.673,0-1.121,0.363-1.429,1.162
	c-0.238,0.561-0.364,1.414-0.364,2.199c0,0.994,0.196,2.018,0.561,2.606c0.294,0.49,0.686,0.729,1.288,0.729
	c0.687,0,1.121-0.365,1.443-1.191c0.195-0.49,0.364-1.415,0.364-2.143C97.069,12.501,96.873,11.548,96.509,10.919z"/>
<path fill="#6FCCF4" d="M106.575,16.816c-0.49,0.924-1.611,1.582-2.76,1.582s-2.27-0.658-2.773-1.582
	c-0.252-0.561-0.42-1.219-0.42-1.947V8.845h1.484v6.024c0,1.219,0.687,2.018,1.709,2.018s1.709-0.799,1.709-2.018V8.845h1.484v6.024
	C107.009,15.598,106.841,16.256,106.575,16.816z"/>
<path fill="#6FCCF4" d="M114.316,18.23l-3.586-6.36v6.36h-1.485V8.845h1.485l3.418,5.997V8.845h1.484v9.385H114.316z"/>
<path fill="#6FCCF4" d="M120.671,10.162v8.069h-1.484v-8.069h-2.144V8.845h5.8v1.316H120.671z"/>
</svg>
