<?xml version="1.0" encoding="utf-8"?>
<!-- Generator: Adobe Illustrator 15.1.0, SVG Export Plug-In . SVG Version: 6.00 Build 0)  -->
<!DOCTYPE svg PUBLIC "-//W3C//DTD SVG 1.1//EN" "http://www.w3.org/Graphics/SVG/1.1/DTD/svg11.dtd">
<svg version="1.1"
	 id="svg2" inkscape:version="0.48.2 r9819" sodipodi:docname="deactivate.ai" xmlns:inkscape="http://www.inkscape.org/namespaces/inkscape" xmlns:svg="http://www.w3.org/2000/svg" xmlns:cc="http://creativecommons.org/ns#" xmlns:dc="http://purl.org/dc/elements/1.1/" xmlns:rdf="http://www.w3.org/1999/02/22-rdf-syntax-ns#" xmlns:sodipodi="http://sodipodi.sourceforge.net/DTD/sodipodi-0.dtd"
	 xmlns="http://www.w3.org/2000/svg" xmlns:xlink="http://www.w3.org/1999/xlink" x="0px" y="0px" width="128.598px"
	 height="35.203px" viewBox="0 0 128.598 35.203" enable-background="new 0 0 128.598 35.203" xml:space="preserve">
<sodipodi:namedview  borderopacity="1" inkscape:cy="17.29875" inkscape:cx="63.7375" inkscape:pageopacity="0" guidetolerance="10" fit-margin-bottom="0" fit-margin-right="0" id="namedview4" inkscape:window-maximized="0" inkscape:window-width="640" inkscape:current-layer="g10" pagecolor="#ffffff" inkscape:pageshadow="2" bordercolor="#666666" inkscape:window-y="0" fit-margin-top="0" gridtolerance="10" fit-margin-left="0" inkscape:window-height="480" showgrid="false" objecttolerance="10" inkscape:zoom="0.30849673" inkscape:window-x="0">
	</sodipodi:namedview>
<g id="g12">
	<g id="g14">
		<g id="g20">
			<g id="g22">
				
					<linearGradient id="path30_1_" gradientUnits="userSpaceOnUse" x1="-339.3794" y1="314.6931" x2="-338.3794" y2="314.6931" gradientTransform="matrix(0 -35.202 -35.202 0 11142.1348 -11911.6465)">
					<stop  offset="0" style="stop-color:#4D4C4E"/>
					<stop  offset="1" style="stop-color:#373535"/>
				</linearGradient>
				<path id="path30" inkscape:connector-curvature="0" fill="url(#path30_1_)" d="M17.6,0C7.895,0,0,7.896,0,17.6l0,0
					c0,9.706,7.895,17.603,17.6,17.603l0,0h93.395c9.708,0,17.604-7.896,17.604-17.603l0,0C128.598,7.896,120.703,0,110.995,0l0,0
					H17.6z"/>
			</g>
		</g>
	</g>
</g>
<g id="g32">
	<g id="g34">
		<g id="g40">
			<g id="g42">
				
					<linearGradient id="path50_1_" gradientUnits="userSpaceOnUse" x1="-340.9341" y1="312.9031" x2="-339.9336" y2="312.9031" gradientTransform="matrix(0 -29.577 -29.577 0 9319.0488 -10051.4395)">
					<stop  offset="0" style="stop-color:#373535"/>
					<stop  offset="1" style="stop-color:#4D4C4E"/>
				</linearGradient>
				<path id="path50" inkscape:connector-curvature="0" fill="url(#path50_1_)" d="M17.6,2.812C9.434,2.812,2.812,9.433,2.812,17.6
					l0,0c0,8.168,6.621,14.79,14.788,14.79l0,0h93.395c8.17,0,14.791-6.622,14.791-14.79l0,0c0-8.167-6.621-14.788-14.791-14.788
					l0,0H17.6z"/>
			</g>
		</g>
	</g>
</g>
<g id="g52">
	<g id="g54">
		<g id="g60">
			<g id="g62">
				
					<linearGradient id="path72_1_" gradientUnits="userSpaceOnUse" x1="-328.5073" y1="321.7595" x2="-327.5073" y2="321.7595" gradientTransform="matrix(122.9736 0 0 -122.9736 40400.5664 39578.332)">
					<stop  offset="0" style="stop-color:#373535"/>
					<stop  offset="0.5078" style="stop-color:#82D4F7"/>
					<stop  offset="1" style="stop-color:#373535"/>
				</linearGradient>
				<path id="path72" inkscape:connector-curvature="0" fill="url(#path72_1_)" d="M17.6,2.812C9.434,2.812,2.812,9.433,2.812,17.6
					l0,0c0,0.095,0.011,0.188,0.014,0.279l0,0C2.978,9.844,9.529,3.374,17.6,3.374l0,0h93.395c8.075,0,14.628,6.47,14.777,14.506
					l0,0c0-0.092,0.014-0.185,0.014-0.279l0,0c0-8.167-6.621-14.788-14.791-14.788l0,0H17.6z"/>
			</g>
		</g>
	</g>
</g>
<g id="g74">
	<g id="g76">
		<g id="g82">
			<g id="g84">
				
					<linearGradient id="path94_1_" gradientUnits="userSpaceOnUse" x1="-328.5073" y1="326.4431" x2="-327.5073" y2="326.4431" gradientTransform="matrix(122.9736 0 0 122.9736 40400.5664 -40118.3789)">
					<stop  offset="0" style="stop-color:#373535"/>
					<stop  offset="0.5078" style="stop-color:#82D4F7"/>
					<stop  offset="1" style="stop-color:#373535"/>
				</linearGradient>
				<path id="path94" inkscape:connector-curvature="0" fill="url(#path94_1_)" d="M110.995,32.387H17.6
					c-8.071,0-14.623-6.47-14.774-14.508l0,0c-0.002,0.094-0.014,0.187-0.014,0.281l0,0c0,8.167,6.621,14.788,14.788,14.788l0,0
					h93.395c8.17,0,14.791-6.621,14.791-14.788l0,0c0-0.095-0.014-0.188-0.014-0.281l0,0
					C125.623,25.918,119.07,32.387,110.995,32.387"/>
			</g>
		</g>
	</g>
</g>
<g id="g96">
	<g>
		<g id="g98">
			<g id="g104" transform="translate(364.7642,309.6543)">
				<path id="path106" inkscape:connector-curvature="0" fill="#FAAF40" d="M-340.071-296.319c-0.298-0.281-0.7-0.491-1.191-0.491
					h-2.1v7.985h1.856c0.612,0,0.98-0.124,1.312-0.455c0.7-0.701,1.067-1.979,1.067-3.538
					C-339.126-294.392-339.494-295.706-340.071-296.319 M-339.301-287.599c-0.438,0.421-1.068,0.629-1.682,0.665h-0.665h-3.571
					v-11.73h3.781c1.191,0,1.646,0.122,2.277,0.612c1.225,1.068,1.926,2.924,1.926,5.234
					C-337.234-290.47-337.97-288.615-339.301-287.599"/>
			</g>
			<g id="g108" transform="translate(369.0737,302.1465)">
				<path id="path110" inkscape:connector-curvature="0" fill="#FAAF40" d="M-338.994-279.426v-11.731h6.917v1.856h-5.06v2.87h3.414
					v1.893h-3.414v3.221h5.427v1.892H-338.994z"/>
			</g>
			<g id="g112" transform="translate(379.645,308.9258)">
				<path id="path114" inkscape:connector-curvature="0" fill="#FAAF40" d="M-336.351-294.679l-1.208,3.291h2.346L-336.351-294.679z
					 M-333.391-286.205l-1.156-3.292h-3.659l-1.156,3.292h-1.979l4.045-11.73h1.837l4.045,11.73H-333.391z"/>
			</g>
			<g id="g116" transform="translate(388.3677,301.9785)">
				<path id="path118" inkscape:connector-curvature="0" fill="#FAAF40" d="M-334.17-279.048c-1.734,0-2.836-0.665-3.59-2.101
					c-0.525-1.033-0.857-2.521-0.857-3.993c0-1.854,0.49-3.711,1.314-4.745c0.7-0.857,1.68-1.312,3.011-1.312
					c1.769,0,2.871,0.753,3.66,2.399l-1.733,0.734c-0.649-0.997-1.034-1.242-1.926-1.242c-0.945,0-1.576,0.42-1.979,1.452
					c-0.297,0.701-0.455,1.717-0.455,2.714c0,1.279,0.28,2.558,0.735,3.293c0.42,0.612,0.946,0.91,1.769,0.91
					c0.788,0,1.366-0.421,1.821-1.365l1.769,0.665C-331.334-279.923-332.489-279.048-334.17-279.048"/>
			</g>
			<g id="g120" transform="translate(396.0396,310.2148)">
				<path id="path122" inkscape:connector-curvature="0" fill="#FAAF40" d="M-332.252-297.579v10.085h-1.856v-10.085h-2.679v-1.646
					h7.249v1.646H-332.252z"/>
			</g>
			<path id="path124" inkscape:connector-curvature="0" fill="#FAAF40" d="M68.23,10.99h1.892v11.731H68.23V10.99z"/>
			<g id="g126" transform="translate(406.6377,302.1465)">
				<path id="path128" inkscape:connector-curvature="0" fill="#FAAF40" d="M-329.603-279.426h-1.437l-3.713-11.731h1.945
					l2.503,7.826l2.469-7.826h1.979L-329.603-279.426z"/>
			</g>
			<g id="g130" transform="translate(414.1836,308.9258)">
				<path id="path132" inkscape:connector-curvature="0" fill="#FAAF40" d="M-327.716-294.679l-1.209,3.291h2.348L-327.716-294.679z
					 M-324.757-286.205l-1.156-3.292h-3.658l-1.156,3.292h-1.979l4.045-11.73h1.839l4.044,11.73H-324.757z"/>
			</g>
			<g id="g134" transform="translate(422.3447,310.2148)">
				<path id="path136" inkscape:connector-curvature="0" fill="#FAAF40" d="M-325.676-297.579v10.085h-1.855v-10.085h-2.68v-1.646
					h7.25v1.646H-325.676z"/>
			</g>
			<g id="g138" transform="translate(425.8994,302.1465)">
				<path id="path140" inkscape:connector-curvature="0" fill="#FAAF40" d="M-324.787-279.426v-11.731h6.916v1.856h-5.061v2.87
					h3.416v1.893h-3.416v3.221h5.43v1.892H-324.787z"/>
			</g>
		</g>
	</g>
</g>
</svg>
