<?xml version="1.0" encoding="utf-8"?>
<!-- Generator: Adobe Illustrator 15.1.0, SVG Export Plug-In . SVG Version: 6.00 Build 0)  -->
<!DOCTYPE svg PUBLIC "-//W3C//DTD SVG 1.1//EN" "http://www.w3.org/Graphics/SVG/1.1/DTD/svg11.dtd">
<svg version="1.1"
	 id="Layer_1" inkscape:version="0.48.2 r9819" xmlns:inkscape="http://www.inkscape.org/namespaces/inkscape" xmlns:sodipodi="http://sodipodi.sourceforge.net/DTD/sodipodi-0.dtd" xmlns:dc="http://purl.org/dc/elements/1.1/" xmlns:rdf="http://www.w3.org/1999/02/22-rdf-syntax-ns#" xmlns:svg="http://www.w3.org/2000/svg" sodipodi:docname="test.svg" xmlns:cc="http://creativecommons.org/ns#"
	 xmlns="http://www.w3.org/2000/svg" xmlns:xlink="http://www.w3.org/1999/xlink" x="0px" y="0px" width="142.36px"
	 height="28.162px" viewBox="0 0 142.36 28.162" enable-background="new 0 0 142.36 28.162" xml:space="preserve">
<sodipodi:namedview  pagecolor="#ffffff" inkscape:window-width="640" fit-margin-top="0" bordercolor="#666666" borderopacity="1" id="namedview65" fit-margin-bottom="0" inkscape:zoom="0.19627411" objecttolerance="10" gridtolerance="10" guidetolerance="10" inkscape:pageopacity="0" inkscape:pageshadow="2" inkscape:window-height="480" inkscape:cy="13.639" showgrid="false" inkscape:cx="41.035" inkscape:window-x="0" inkscape:window-y="0" inkscape:window-maximized="0" inkscape:current-layer="Layer_1" fit-margin-left="0" fit-margin-right="0">
	</sodipodi:namedview>
<g id="g3" transform="translate(-228.965,-586.67701)">
	
		<linearGradient id="path14_1_" gradientUnits="userSpaceOnUse" x1="1563.8136" y1="3495.3899" x2="1563.8136" y2="3467.2288" gradientTransform="matrix(1 0 0 1 -1263.7188 -2880.5505)">
		<stop  offset="0" style="stop-color:#414042"/>
		<stop  offset="0.3972" style="stop-color:#3A3A3C"/>
		<stop  offset="0.7887" style="stop-color:#212122"/>
		<stop  offset="1" style="stop-color:#000000"/>
	</linearGradient>
	<path id="path14" inkscape:connector-curvature="0" fill="url(#path14_1_)" d="M242.945,614.839c-7.765,0-14.08-6.315-14.08-14.082
		c0-7.764,6.315-14.08,14.08-14.08h114.298c7.767,0,14.082,6.316,14.082,14.08c0,7.767-6.315,14.082-14.082,14.082H242.945
		L242.945,614.839z"/>
	
		<linearGradient id="path25_1_" gradientUnits="userSpaceOnUse" x1="1563.8116" y1="3493.1399" x2="1563.8116" y2="3469.4788" gradientTransform="matrix(1 0 0 1 -1263.7188 -2880.5505)">
		<stop  offset="0" style="stop-color:#000000"/>
		<stop  offset="0.2113" style="stop-color:#212122"/>
		<stop  offset="0.6028" style="stop-color:#3A3A3C"/>
		<stop  offset="1" style="stop-color:#414042"/>
	</linearGradient>
	<path id="path25" inkscape:connector-curvature="0" fill="url(#path25_1_)" d="M369.073,600.757
		c0,6.535-5.297,11.832-11.832,11.832H242.943c-6.533,0-11.83-5.297-11.83-11.832l0,0c0-6.533,5.297-11.83,11.83-11.83h114.298
		C363.777,588.927,369.073,594.224,369.073,600.757L369.073,600.757z"/>
	
		<linearGradient id="path42_1_" gradientUnits="userSpaceOnUse" x1="1494.8341" y1="3475.5032" x2="1632.7941" y2="3475.5032" gradientTransform="matrix(1 0 0 1 -1263.7188 -2880.5505)">
		<stop  offset="0" style="stop-color:#000000"/>
		<stop  offset="0.1304" style="stop-color:#5D6A72"/>
		<stop  offset="0.2661" style="stop-color:#7899A9"/>
		<stop  offset="0.3788" style="stop-color:#80B9D3"/>
		<stop  offset="0.4624" style="stop-color:#7FCBEB"/>
		<stop  offset="0.5078" style="stop-color:#7ED3F7"/>
		<stop  offset="1" style="stop-color:#000000"/>
	</linearGradient>
	<path id="path42" inkscape:connector-curvature="0" fill="url(#path42_1_)" d="M242.945,589.376h114.298
		c6.459,0,11.701,5.176,11.819,11.604c0-0.074,0.013-0.148,0.013-0.225c0-6.533-5.297-11.83-11.832-11.83H242.945
		c-6.533,0-11.83,5.297-11.83,11.83c0,0.076,0.009,0.15,0.018,0.225C231.246,594.552,236.488,589.376,242.945,589.376
		L242.945,589.376z"/>
	
		<linearGradient id="path59_1_" gradientUnits="userSpaceOnUse" x1="1494.8341" y1="-1655.6218" x2="1632.7941" y2="-1655.6218" gradientTransform="matrix(1 0 0 -1 -1263.7188 -1048.6118)">
		<stop  offset="0" style="stop-color:#000000"/>
		<stop  offset="0.1304" style="stop-color:#5D6A72"/>
		<stop  offset="0.2661" style="stop-color:#7899A9"/>
		<stop  offset="0.3788" style="stop-color:#80B9D3"/>
		<stop  offset="0.4624" style="stop-color:#7FCBEB"/>
		<stop  offset="0.5078" style="stop-color:#7ED3F7"/>
		<stop  offset="1" style="stop-color:#000000"/>
	</linearGradient>
	<path id="path59" inkscape:connector-curvature="0" fill="url(#path59_1_)" d="M242.945,612.587h114.298
		c6.459,0,11.701-5.177,11.819-11.605c0,0.074,0.013,0.148,0.013,0.225c0,6.534-5.297,11.831-11.832,11.831H242.945
		c-6.533,0-11.83-5.297-11.83-11.831c0-0.076,0.009-0.15,0.018-0.225C231.246,607.41,236.488,612.587,242.945,612.587
		L242.945,612.587z"/>
</g>
<g>
	<path fill="#6FCCF4" d="M22.604,17.798c-0.35,0.336-0.854,0.504-1.345,0.532c-0.098,0-0.294,0-0.532,0h-2.857V8.945h3.025
		c0.953,0,1.317,0.098,1.821,0.49c0.98,0.854,1.541,2.339,1.541,4.188C24.257,15.501,23.668,16.985,22.604,17.798z M21.987,10.822
		c-0.238-0.225-0.56-0.393-0.953-0.393h-1.681v6.388h1.485c0.49,0,0.784-0.099,1.05-0.364c0.561-0.561,0.854-1.583,0.854-2.83
		C22.744,12.363,22.45,11.312,21.987,10.822z"/>
	<path fill="#6FCCF4" d="M26.297,18.33V8.945h5.533v1.484h-4.048v2.297h2.731v1.514h-2.731v2.577h4.342v1.513H26.297z"/>
	<path fill="#6FCCF4" d="M36.995,18.33h-1.149l-2.97-9.385h1.555l2.003,6.261l1.975-6.261h1.583L36.995,18.33z"/>
	<path fill="#6FCCF4" d="M41.375,18.33V8.945h5.533v1.484h-4.048v2.297h2.731v1.514h-2.731v2.577h4.342v1.513H41.375z"/>
	<path fill="#6FCCF4" d="M48.781,18.33V8.945h1.485v7.998h4.342v1.387H48.781z"/>
	<path fill="#6FCCF4" d="M61.426,17.447c-0.532,0.715-1.289,1.051-2.27,1.051c-1.316,0-2.143-0.532-2.703-1.681
		c-0.393-0.799-0.659-2.045-0.659-3.166c0-1.541,0.393-2.928,1.023-3.824c0.56-0.714,1.316-1.05,2.395-1.05
		c1.191,0,2.017,0.532,2.605,1.681c0.392,0.826,0.63,2.017,0.63,3.193C62.448,15.137,62.084,16.621,61.426,17.447z M60.403,11.019
		c-0.294-0.49-0.659-0.687-1.219-0.729c-0.028,0-0.056,0-0.084,0c-0.672,0-1.121,0.364-1.429,1.162
		c-0.238,0.561-0.364,1.415-0.364,2.199c0,0.995,0.196,2.018,0.56,2.605c0.294,0.49,0.687,0.729,1.289,0.729
		c0.687,0,1.121-0.364,1.443-1.19c0.196-0.49,0.364-1.415,0.364-2.144C60.963,12.601,60.767,11.648,60.403,11.019z"/>
	<path fill="#6FCCF4" d="M69.461,13.918c-0.435,0.196-0.995,0.322-1.723,0.322h-1.737v4.09h-1.485V8.945h3.222
		c0.756,0,1.261,0.069,1.723,0.294c0.812,0.393,1.443,1.387,1.443,2.339C70.904,12.573,70.274,13.554,69.461,13.918z M68.831,10.598
		c-0.266-0.14-0.435-0.168-0.896-0.168h-1.933v2.297h1.933c0.462,0,0.63-0.027,0.896-0.153c0.322-0.168,0.56-0.603,0.56-0.995
		C69.391,11.187,69.153,10.794,68.831,10.598z"/>
	<path fill="#6FCCF4" d="M72.287,18.33V8.945h5.533v1.484h-4.048v2.297h2.731v1.514h-2.731v2.577h4.342v1.513H72.287z"/>
	<path fill="#6FCCF4" d="M84.469,18.33l-1.513-4.09h-1.779v4.09h-1.485V8.945h3.096c0.729,0,1.219,0.069,1.682,0.294
		c0.826,0.393,1.414,1.387,1.414,2.339c0,0.995-0.588,1.976-1.456,2.367l1.652,4.385H84.469z M83.811,10.598
		c-0.253-0.14-0.364-0.168-0.854-0.168h-1.779v2.297h1.779c0.462,0,0.616-0.027,0.854-0.153c0.363-0.21,0.588-0.603,0.588-0.995
		C84.398,11.187,84.174,10.794,83.811,10.598z"/>
	<path fill="#6FCCF4" d="M96.578,18.33v-5.435l-2.171,5.435l-2.171-5.435v5.435h-1.484V8.945h1.484l2.171,5.267l2.171-5.267h1.485
		v9.385H96.578z"/>
	<path fill="#6FCCF4" d="M105.735,17.447c-0.532,0.715-1.289,1.051-2.27,1.051c-1.316,0-2.143-0.532-2.703-1.681
		c-0.393-0.799-0.658-2.045-0.658-3.166c0-1.541,0.392-2.928,1.022-3.824c0.561-0.714,1.316-1.05,2.396-1.05
		c1.19,0,2.017,0.532,2.604,1.681c0.393,0.826,0.631,2.017,0.631,3.193C106.758,15.137,106.394,16.621,105.735,17.447z
		 M104.713,11.019c-0.294-0.49-0.658-0.687-1.219-0.729c-0.028,0-0.057,0-0.084,0c-0.673,0-1.121,0.364-1.429,1.162
		c-0.238,0.561-0.364,1.415-0.364,2.199c0,0.995,0.196,2.018,0.561,2.605c0.294,0.49,0.686,0.729,1.288,0.729
		c0.687,0,1.121-0.364,1.443-1.19c0.195-0.49,0.364-1.415,0.364-2.144C105.273,12.601,105.077,11.648,104.713,11.019z"/>
	<path fill="#6FCCF4" d="M113.561,17.798c-0.351,0.336-0.854,0.504-1.345,0.532c-0.099,0-0.295,0-0.532,0h-2.857V8.945h3.025
		c0.952,0,1.316,0.098,1.82,0.49c0.98,0.854,1.541,2.339,1.541,4.188C115.213,15.501,114.625,16.985,113.561,17.798z
		 M112.944,10.822c-0.238-0.225-0.561-0.393-0.953-0.393h-1.681v6.388h1.484c0.49,0,0.785-0.099,1.051-0.364
		c0.561-0.561,0.854-1.583,0.854-2.83C113.7,12.363,113.406,11.312,112.944,10.822z"/>
	<path fill="#6FCCF4" d="M117.254,18.33V8.945h5.532v1.484h-4.048v2.297h2.731v1.514h-2.731v2.577h4.342v1.513H117.254z"/>
</g>
</svg>
