<?xml version="1.0" encoding="utf-8"?>
<!-- Generator: Adobe Illustrator 15.1.0, SVG Export Plug-In . SVG Version: 6.00 Build 0)  -->
<!DOCTYPE svg PUBLIC "-//W3C//DTD SVG 1.1//EN" "http://www.w3.org/Graphics/SVG/1.1/DTD/svg11.dtd">
<svg version="1.1"
	 id="Layer_1" xmlns:sodipodi="http://sodipodi.sourceforge.net/DTD/sodipodi-0.dtd" xmlns:inkscape="http://www.inkscape.org/namespaces/inkscape" xmlns:svg="http://www.w3.org/2000/svg" xmlns:rdf="http://www.w3.org/1999/02/22-rdf-syntax-ns#" xmlns:cc="http://creativecommons.org/ns#" xmlns:dc="http://purl.org/dc/elements/1.1/" sodipodi:docname="done_on.svg" inkscape:version="0.48.2 r9819"
	 xmlns="http://www.w3.org/2000/svg" xmlns:xlink="http://www.w3.org/1999/xlink" x="0px" y="0px" width="80.779px"
	 height="28.162px" viewBox="0 0 80.779 28.162" enable-background="new 0 0 80.779 28.162" xml:space="preserve">
<sodipodi:namedview  borderopacity="1" inkscape:window-x="0" id="namedview65" gridtolerance="10" objecttolerance="10" guidetolerance="10" showgrid="false" pagecolor="#ffffff" inkscape:pageopacity="0" inkscape:window-y="0" inkscape:window-width="640" inkscape:cy="13.839" fit-margin-top="0" inkscape:window-maximized="0" inkscape:window-height="480" inkscape:current-layer="Layer_1" bordercolor="#666666" inkscape:zoom="1.0925926" inkscape:cx="40.035" inkscape:pageshadow="2" fit-margin-left="0" fit-margin-right="0" fit-margin-bottom="0">
	</sodipodi:namedview>
<g id="g3" transform="translate(-67.965,-93.677)">
	
		<linearGradient id="path14_1_" gradientUnits="userSpaceOnUse" x1="640.2841" y1="884.676" x2="640.2841" y2="856.5149" gradientTransform="matrix(1 0 0 1 -531.9297 -762.8379)">
		<stop  offset="0" style="stop-color:#414042"/>
		<stop  offset="0.3972" style="stop-color:#3A3A3C"/>
		<stop  offset="0.7887" style="stop-color:#212122"/>
		<stop  offset="1" style="stop-color:#000000"/>
	</linearGradient>
	<path id="path14" inkscape:connector-curvature="0" fill="url(#path14_1_)" d="M82.045,121.839c-7.764,0-14.08-6.315-14.08-14.082
		c0-7.764,6.316-14.08,14.08-14.08h52.617c7.766,0,14.082,6.316,14.082,14.08c0,7.767-6.316,14.082-14.082,14.082H82.045z"/>
	
		<linearGradient id="path25_1_" gradientUnits="userSpaceOnUse" x1="640.2841" y1="882.426" x2="640.2841" y2="858.7649" gradientTransform="matrix(1 0 0 1 -531.9297 -762.8379)">
		<stop  offset="0" style="stop-color:#000000"/>
		<stop  offset="0.2113" style="stop-color:#212122"/>
		<stop  offset="0.6028" style="stop-color:#3A3A3C"/>
		<stop  offset="1" style="stop-color:#414042"/>
	</linearGradient>
	<path id="path25" inkscape:connector-curvature="0" fill="url(#path25_1_)" d="M146.494,107.757
		c0,6.535-5.297,11.832-11.832,11.832H82.045c-6.533,0-11.83-5.297-11.83-11.832l0,0c0-6.533,5.297-11.83,11.83-11.83h52.617
		C141.197,95.927,146.494,101.224,146.494,107.757L146.494,107.757z"/>
	
		<linearGradient id="path42_1_" gradientUnits="userSpaceOnUse" x1="602.1444" y1="864.7913" x2="678.4237" y2="864.7913" gradientTransform="matrix(1 0 0 1 -531.9297 -762.8379)">
		<stop  offset="0" style="stop-color:#000000"/>
		<stop  offset="0.1304" style="stop-color:#5D6A72"/>
		<stop  offset="0.2661" style="stop-color:#7899A9"/>
		<stop  offset="0.3788" style="stop-color:#80B9D3"/>
		<stop  offset="0.4624" style="stop-color:#7FCBEB"/>
		<stop  offset="0.5078" style="stop-color:#7ED3F7"/>
		<stop  offset="1" style="stop-color:#000000"/>
	</linearGradient>
	<path id="path42" inkscape:connector-curvature="0" fill="url(#path42_1_)" d="M82.045,96.376h52.617
		c6.459,0,11.701,5.176,11.82,11.605c0-0.074,0.012-0.148,0.012-0.225c0-6.533-5.297-11.83-11.832-11.83H82.045
		c-6.533,0-11.83,5.297-11.83,11.83c0,0.076,0.009,0.15,0.014,0.225C70.347,101.552,75.588,96.376,82.045,96.376z"/>
	
		<linearGradient id="path59_1_" gradientUnits="userSpaceOnUse" x1="602.1444" y1="-408.908" x2="678.4237" y2="-408.908" gradientTransform="matrix(1 0 0 -1 -531.9297 -294.8979)">
		<stop  offset="0" style="stop-color:#000000"/>
		<stop  offset="0.1304" style="stop-color:#5D6A72"/>
		<stop  offset="0.2661" style="stop-color:#7899A9"/>
		<stop  offset="0.3788" style="stop-color:#80B9D3"/>
		<stop  offset="0.4624" style="stop-color:#7FCBEB"/>
		<stop  offset="0.5078" style="stop-color:#7ED3F7"/>
		<stop  offset="1" style="stop-color:#000000"/>
	</linearGradient>
	<path id="path59" inkscape:connector-curvature="0" fill="url(#path59_1_)" d="M82.045,119.587h52.617
		c6.459,0,11.701-5.177,11.82-11.605c0,0.074,0.012,0.148,0.012,0.225c0,6.534-5.297,11.831-11.832,11.831H82.045
		c-6.533,0-11.83-5.297-11.83-11.831c0-0.076,0.009-0.15,0.014-0.225C70.347,114.41,75.588,119.587,82.045,119.587L82.045,119.587z"
		/>
</g>
<g id="g61" transform="translate(-67.965,-93.677)">
	<g>
		<g enable-background="new    ">
			<path fill="#6FCDF4" d="M98.352,111.323c-0.351,0.336-0.854,0.504-1.346,0.531c-0.098,0-0.294,0-0.532,0h-2.856v-9.385h3.026
				c0.951,0,1.315,0.098,1.82,0.49c0.98,0.854,1.541,2.339,1.541,4.188C100.005,109.026,99.417,110.509,98.352,111.323z
				 M97.736,104.346c-0.238-0.225-0.561-0.393-0.953-0.393h-1.681v6.388h1.484c0.49,0,0.784-0.099,1.05-0.364
				c0.562-0.561,0.854-1.583,0.854-2.83C98.492,105.887,98.198,104.836,97.736,104.346z"/>
			<path fill="#6FCDF4" d="M107.48,110.971c-0.532,0.715-1.289,1.051-2.271,1.051c-1.315,0-2.143-0.531-2.703-1.681
				c-0.393-0.799-0.659-2.045-0.659-3.166c0-1.541,0.394-2.928,1.023-3.824c0.56-0.714,1.316-1.05,2.395-1.05
				c1.191,0,2.018,0.532,2.605,1.681c0.392,0.826,0.63,2.017,0.63,3.193C108.503,108.66,108.139,110.145,107.48,110.971z
				 M106.458,104.542c-0.294-0.49-0.659-0.687-1.219-0.729c-0.028,0-0.057,0-0.084,0c-0.672,0-1.121,0.364-1.429,1.162
				c-0.238,0.561-0.364,1.415-0.364,2.199c0,0.995,0.195,2.018,0.56,2.605c0.294,0.489,0.688,0.729,1.289,0.729
				c0.688,0,1.121-0.364,1.443-1.189c0.195-0.49,0.364-1.416,0.364-2.145C107.018,106.124,106.822,105.172,106.458,104.542z"/>
			<path fill="#6FCDF4" d="M115.642,111.854l-3.586-6.359v6.359h-1.483v-9.385h1.483l3.418,5.995v-5.995h1.485v9.385H115.642z"/>
			<path fill="#6FCDF4" d="M119.195,111.854v-9.385h5.533v1.484h-4.049v2.297h2.73v1.514h-2.73v2.577h4.343v1.513H119.195z"/>
		</g>
	</g>
</g>
</svg>
