<?xml version="1.0" encoding="UTF-8" standalone="no"?>
<!-- Created with Inkscape (http://www.inkscape.org/) -->

<svg
   xmlns:dc="http://purl.org/dc/elements/1.1/"
   xmlns:cc="http://creativecommons.org/ns#"
   xmlns:rdf="http://www.w3.org/1999/02/22-rdf-syntax-ns#"
   xmlns:svg="http://www.w3.org/2000/svg"
   xmlns="http://www.w3.org/2000/svg"
   xmlns:sodipodi="http://sodipodi.sourceforge.net/DTD/sodipodi-0.dtd"
   xmlns:inkscape="http://www.inkscape.org/namespaces/inkscape"
   id="svg2"
   version="1.1"
   inkscape:version="0.48.2 r9819"
   width="100.975"
   height="35.203751"
   xml:space="preserve"
   sodipodi:docname="done.ai"><metadata
     id="metadata8"><rdf:RDF><cc:Work
         rdf:about=""><dc:format>image/svg+xml</dc:format><dc:type
           rdf:resource="http://purl.org/dc/dcmitype/StillImage" /><dc:title></dc:title></cc:Work></rdf:RDF></metadata><defs
     id="defs6"><linearGradient
       x1="0"
       y1="0"
       x2="1"
       y2="0"
       gradientUnits="userSpaceOnUse"
       gradientTransform="matrix(0,28.161621,28.161621,0,305.35498,381.16113)"
       spreadMethod="pad"
       id="linearGradient24"><stop
         style="stop-opacity:1;stop-color:#4d4c4e"
         offset="0"
         id="stop26" /><stop
         style="stop-opacity:1;stop-color:#373535"
         offset="1"
         id="stop28" /></linearGradient><linearGradient
       x1="0"
       y1="0"
       x2="1"
       y2="0"
       gradientUnits="userSpaceOnUse"
       gradientTransform="matrix(0,23.661621,23.661621,0,305.35498,383.41113)"
       spreadMethod="pad"
       id="linearGradient44"><stop
         style="stop-opacity:1;stop-color:#373535"
         offset="0"
         id="stop46" /><stop
         style="stop-opacity:1;stop-color:#4d4c4e"
         offset="1"
         id="stop48" /></linearGradient><linearGradient
       x1="0"
       y1="0"
       x2="1"
       y2="0"
       gradientUnits="userSpaceOnUse"
       gradientTransform="matrix(76.279297,0,0,-76.279297,267.21484,401.0459)"
       spreadMethod="pad"
       id="linearGradient64"><stop
         style="stop-opacity:1;stop-color:#373535"
         offset="0"
         id="stop66" /><stop
         style="stop-opacity:1;stop-color:#82d4f7"
         offset="0.507767"
         id="stop68" /><stop
         style="stop-opacity:1;stop-color:#373535"
         offset="1"
         id="stop70" /></linearGradient><linearGradient
       x1="0"
       y1="0"
       x2="1"
       y2="0"
       gradientUnits="userSpaceOnUse"
       gradientTransform="matrix(76.279297,0,0,76.279297,267.21484,388.99121)"
       spreadMethod="pad"
       id="linearGradient86"><stop
         style="stop-opacity:1;stop-color:#373535"
         offset="0"
         id="stop88" /><stop
         style="stop-opacity:1;stop-color:#82d4f7"
         offset="0.507767"
         id="stop90" /><stop
         style="stop-opacity:1;stop-color:#373535"
         offset="1"
         id="stop92" /></linearGradient><clipPath
       clipPathUnits="userSpaceOnUse"
       id="clipPath100"><path
         d="M 0,792 612,792 612,0 0,0 0,792 z"
         id="path102"
         inkscape:connector-curvature="0" /></clipPath></defs><sodipodi:namedview
     pagecolor="#ffffff"
     bordercolor="#666666"
     borderopacity="1"
     objecttolerance="10"
     gridtolerance="10"
     guidetolerance="10"
     inkscape:pageopacity="0"
     inkscape:pageshadow="2"
     inkscape:window-width="640"
     inkscape:window-height="480"
     id="namedview4"
     showgrid="false"
     fit-margin-top="0"
     fit-margin-left="0"
     fit-margin-right="0"
     fit-margin-bottom="0"
     inkscape:zoom="0.23838384"
     inkscape:cx="51.295"
     inkscape:cy="18.54875"
     inkscape:window-x="0"
     inkscape:window-y="0"
     inkscape:window-maximized="0"
     inkscape:current-layer="g10" /><g
     id="g10"
     inkscape:groupmode="layer"
     inkscape:label="done"
     transform="matrix(1.25,0,0,-1.25,-331.205,511.655)"><g
       id="g12"><g
         id="g14"><g
           id="g20"><g
             id="g22"><path
               d="m 279.045,409.324 c -7.763,0 -14.081,-6.317 -14.081,-14.081 l 0,0 c 0,-7.765 6.318,-14.082 14.081,-14.082 l 0,0 52.617,0 c 7.766,0 14.082,6.317 14.082,14.082 l 0,0 c 0,7.764 -6.316,14.081 -14.082,14.081 l 0,0 -52.617,0 z"
               style="fill:url(#linearGradient24);stroke:none"
               id="path30"
               inkscape:connector-curvature="0" /></g></g></g></g><g
       id="g32"><g
         id="g34"><g
           id="g40"><g
             id="g42"><path
               d="m 279.045,407.074 c -6.533,0 -11.831,-5.298 -11.831,-11.831 l 0,0 c 0,-6.535 5.298,-11.832 11.831,-11.832 l 0,0 52.617,0 c 6.535,0 11.832,5.297 11.832,11.832 l 0,0 c 0,6.533 -5.297,11.831 -11.832,11.831 l 0,0 -52.617,0 z"
               style="fill:url(#linearGradient44);stroke:none"
               id="path50"
               inkscape:connector-curvature="0" /></g></g></g></g><g
       id="g52"><g
         id="g54"><g
           id="g60"><g
             id="g62"><path
               d="m 279.045,407.074 c -6.533,0 -11.831,-5.298 -11.831,-11.831 l 0,0 c 0,-0.076 0.009,-0.15 0.012,-0.225 l 0,0 c 0.121,6.431 5.361,11.606 11.819,11.606 l 0,0 52.617,0 c 6.459,0 11.701,-5.175 11.82,-11.606 l 0,0 c 0,0.075 0.012,0.149 0.012,0.225 l 0,0 c 0,6.533 -5.297,11.831 -11.832,11.831 l 0,0 -52.617,0 z"
               style="fill:url(#linearGradient64);stroke:none"
               id="path72"
               inkscape:connector-curvature="0" /></g></g></g></g><g
       id="g74"><g
         id="g76"><g
           id="g82"><g
             id="g84"><path
               d="m 331.662,383.413 -52.617,0 c -6.458,0 -11.698,5.176 -11.819,11.605 l 0,0 c -0.003,-0.074 -0.012,-0.148 -0.012,-0.224 l 0,0 c 0,-6.533 5.298,-11.83 11.831,-11.83 l 0,0 52.617,0 c 6.535,0 11.832,5.297 11.832,11.83 l 0,0 c 0,0.076 -0.012,0.15 -0.012,0.224 l 0,0 c -0.119,-6.429 -5.361,-11.605 -11.82,-11.605"
               style="fill:url(#linearGradient86);stroke:none"
               id="path94"
               inkscape:connector-curvature="0" /></g></g></g></g><g
       id="g96"><g
         id="g98"
         clip-path="url(#clipPath100)"><g
           id="g104"
           transform="translate(294.7358,398.6543)"><path
             d="m 0,0 c -0.238,0.225 -0.56,0.393 -0.953,0.393 l -1.68,0 0,-6.388 1.485,0 c 0.49,0 0.784,0.099 1.05,0.364 0.56,0.561 0.854,1.583 0.854,2.83 C 0.756,-1.541 0.462,-0.49 0,0 m 0.616,-6.976 c -0.35,-0.336 -0.854,-0.503 -1.345,-0.532 l -0.532,0 -2.857,0 0,9.385 3.025,0 c 0.953,0 1.317,-0.098 1.822,-0.49 0.98,-0.855 1.541,-2.339 1.541,-4.188 0,-1.878 -0.589,-3.362 -1.654,-4.175"
             style="fill:#fcb24c;fill-opacity:1;fill-rule:nonzero;stroke:none"
             id="path106"
             inkscape:connector-curvature="0" /></g><g
           id="g108"
           transform="translate(303.458,398.458)"><path
             d="m 0,0 c -0.294,0.49 -0.659,0.687 -1.219,0.729 l -0.084,0 c -0.672,0 -1.12,-0.365 -1.429,-1.163 -0.238,-0.56 -0.364,-1.415 -0.364,-2.199 0,-0.995 0.196,-2.017 0.56,-2.605 0.295,-0.491 0.687,-0.729 1.289,-0.729 0.686,0 1.121,0.364 1.443,1.191 0.196,0.49 0.364,1.415 0.364,2.143 C 0.56,-1.582 0.364,-0.63 0,0 m 1.022,-6.429 c -0.532,-0.715 -1.288,-1.05 -2.269,-1.05 -1.316,0 -2.143,0.532 -2.703,1.68 -0.393,0.799 -0.659,2.045 -0.659,3.166 0,1.541 0.393,2.928 1.023,3.824 0.56,0.714 1.316,1.05 2.395,1.05 1.191,0 2.017,-0.532 2.606,-1.68 0.392,-0.827 0.63,-2.017 0.63,-3.194 0,-1.485 -0.364,-2.97 -1.023,-3.796"
             style="fill:#fcb24c;fill-opacity:1;fill-rule:nonzero;stroke:none"
             id="path110"
             inkscape:connector-curvature="0" /></g><g
           id="g112"
           transform="translate(312.6426,391.1465)"><path
             d="m 0,0 -3.586,6.359 0,-6.359 -1.485,0 0,9.385 1.485,0 3.418,-5.995 0,5.995 1.484,0 L 1.316,0 0,0 z"
             style="fill:#fcb24c;fill-opacity:1;fill-rule:nonzero;stroke:none"
             id="path114"
             inkscape:connector-curvature="0" /></g><g
           id="g116"
           transform="translate(316.1953,391.1465)"><path
             d="m 0,0 0,9.385 5.533,0 0,-1.485 -4.049,0 0,-2.296 2.733,0 0,-1.514 -2.733,0 0,-2.577 4.344,0 L 5.828,0 0,0 z"
             style="fill:#fcb24c;fill-opacity:1;fill-rule:nonzero;stroke:none"
             id="path118"
             inkscape:connector-curvature="0" /></g></g></g></g></svg>