<?xml version="1.0" encoding="utf-8"?>
<!-- Generator: Adobe Illustrator 15.1.0, SVG Export Plug-In . SVG Version: 6.00 Build 0)  -->
<!DOCTYPE svg PUBLIC "-//W3C//DTD SVG 1.1//EN" "http://www.w3.org/Graphics/SVG/1.1/DTD/svg11.dtd">
<svg version="1.1"
	 id="Layer_1" xmlns:dc="http://purl.org/dc/elements/1.1/" xmlns:sodipodi="http://sodipodi.sourceforge.net/DTD/sodipodi-0.dtd" xmlns:inkscape="http://www.inkscape.org/namespaces/inkscape" xmlns:rdf="http://www.w3.org/1999/02/22-rdf-syntax-ns#" xmlns:cc="http://creativecommons.org/ns#" xmlns:svg="http://www.w3.org/2000/svg" inkscape:version="0.48.2 r9819" sodipodi:docname="test.svg"
	 xmlns="http://www.w3.org/2000/svg" xmlns:xlink="http://www.w3.org/1999/xlink" x="0px" y="0px" width="100.79px"
	 height="28.162px" viewBox="0 0 100.79 28.162" enable-background="new 0 0 100.79 28.162" xml:space="preserve">
<sodipodi:namedview  gridtolerance="10" fit-margin-top="0" fit-margin-left="0" fit-margin-right="0" pagecolor="#ffffff" inkscape:window-width="640" inkscape:window-x="0" fit-margin-bottom="0" inkscape:window-y="0" guidetolerance="10" inkscape:zoom="0.19627411" inkscape:pageopacity="0" inkscape:cx="41.035" inkscape:cy="13.639" borderopacity="1" inkscape:window-maximized="0" objecttolerance="10" inkscape:window-height="480" inkscape:pageshadow="2" inkscape:current-layer="Layer_1" bordercolor="#666666" showgrid="false" id="namedview65">
	</sodipodi:namedview>
<g>
	<g>
		
			<linearGradient id="SVGID_1_" gradientUnits="userSpaceOnUse" x1="50.395" y1="1.0005" x2="50.395" y2="29.1616" gradientTransform="matrix(1 0 0 -1 0 29.1621)">
			<stop  offset="0" style="stop-color:#404041"/>
			<stop  offset="0.3497" style="stop-color:#3D3C3D"/>
			<stop  offset="0.6944" style="stop-color:#323031"/>
			<stop  offset="1" style="stop-color:#231F20"/>
		</linearGradient>
		<path fill="url(#SVGID_1_)" d="M14.08,28.162C6.316,28.162,0,21.847,0,14.08C-0.001,6.316,6.316,0,14.08,0h72.628
			c7.766,0,14.082,6.316,14.082,14.08c0,7.767-6.316,14.082-14.082,14.082H14.08z"/>
		
			<linearGradient id="SVGID_2_" gradientUnits="userSpaceOnUse" x1="50.395" y1="3.2505" x2="50.395" y2="26.9116" gradientTransform="matrix(1 0 0 -1 0 29.1621)">
			<stop  offset="0" style="stop-color:#231F20"/>
			<stop  offset="0.3056" style="stop-color:#323031"/>
			<stop  offset="0.6503" style="stop-color:#3D3C3D"/>
			<stop  offset="1" style="stop-color:#404041"/>
		</linearGradient>
		<path fill="url(#SVGID_2_)" d="M98.54,14.08c0,6.535-5.297,11.832-11.832,11.832H14.08c-6.533,0-11.83-5.297-11.83-11.832l0,0
			c0-6.533,5.297-11.83,11.83-11.83h72.628C93.243,2.25,98.54,7.547,98.54,14.08L98.54,14.08z"/>
		
			<linearGradient id="SVGID_3_" gradientUnits="userSpaceOnUse" x1="2.25" y1="20.8857" x2="98.54" y2="20.8857" gradientTransform="matrix(1 0 0 -1 0 29.1621)">
			<stop  offset="0" style="stop-color:#231F20"/>
			<stop  offset="0.0732" style="stop-color:#333E46"/>
			<stop  offset="0.2296" style="stop-color:#537D90"/>
			<stop  offset="0.3593" style="stop-color:#6AABC7"/>
			<stop  offset="0.4556" style="stop-color:#79C7E9"/>
			<stop  offset="0.5078" style="stop-color:#7ED2F6"/>
			<stop  offset="1" style="stop-color:#231F20"/>
		</linearGradient>
		<path fill="url(#SVGID_3_)" d="M14.08,2.699h72.628c6.459,0,11.701,5.176,11.82,11.605c0-0.074,0.012-0.148,0.012-0.225
			c0-6.533-5.297-11.83-11.832-11.83H14.08c-6.533,0-11.83,5.297-11.83,11.83c0,0.076,0.01,0.15,0.012,0.225
			C2.382,7.875,7.623,2.699,14.08,2.699z"/>
		
			<linearGradient id="SVGID_4_" gradientUnits="userSpaceOnUse" x1="2.25" y1="353.2314" x2="98.54" y2="353.2314" gradientTransform="matrix(1 0 0 1 0 -332.8984)">
			<stop  offset="0" style="stop-color:#231F20"/>
			<stop  offset="0.0732" style="stop-color:#333E46"/>
			<stop  offset="0.2296" style="stop-color:#537D90"/>
			<stop  offset="0.3593" style="stop-color:#6AABC7"/>
			<stop  offset="0.4556" style="stop-color:#79C7E9"/>
			<stop  offset="0.5078" style="stop-color:#7ED2F6"/>
			<stop  offset="1" style="stop-color:#231F20"/>
		</linearGradient>
		<path fill="url(#SVGID_4_)" d="M14.08,25.91h72.628c6.459,0,11.701-5.177,11.82-11.605c0,0.074,0.012,0.148,0.012,0.225
			c0,6.533-5.297,11.83-11.832,11.83H14.08c-6.533,0-11.83-5.297-11.83-11.83c0-0.076,0.01-0.15,0.012-0.225
			C2.382,20.733,7.623,25.91,14.08,25.91z"/>
	</g>
	<g>
		<path fill="#6FCCF4" d="M22.923,17.649c-0.35,0.336-0.854,0.504-1.345,0.533c-0.098,0-0.294,0-0.532,0h-2.857V8.798h3.025
			c0.953,0,1.317,0.098,1.821,0.49c0.98,0.854,1.541,2.339,1.541,4.188C24.577,15.354,23.988,16.838,22.923,17.649z M22.307,10.675
			c-0.238-0.225-0.56-0.393-0.953-0.393h-1.68v6.388h1.485c0.49,0,0.784-0.099,1.05-0.364c0.561-0.561,0.854-1.582,0.854-2.83
			C23.063,12.216,22.77,11.165,22.307,10.675z"/>
		<path fill="#6FCCF4" d="M32.052,17.3c-0.532,0.715-1.289,1.051-2.27,1.051c-1.316,0-2.143-0.531-2.703-1.681
			c-0.393-0.799-0.659-2.045-0.659-3.166c0-1.541,0.393-2.928,1.023-3.824c0.56-0.714,1.316-1.05,2.395-1.05
			c1.191,0,2.017,0.532,2.605,1.681c0.392,0.826,0.63,2.017,0.63,3.193C33.074,14.989,32.71,16.474,32.052,17.3z M31.029,10.871
			c-0.294-0.49-0.659-0.687-1.219-0.729c-0.028,0-0.056,0-0.084,0c-0.672,0-1.121,0.364-1.429,1.162
			c-0.238,0.561-0.364,1.415-0.364,2.199c0,0.995,0.196,2.018,0.56,2.605c0.294,0.49,0.687,0.729,1.289,0.729
			c0.687,0,1.121-0.363,1.443-1.189c0.196-0.49,0.364-1.416,0.364-2.145C31.589,12.453,31.393,11.501,31.029,10.871z"/>
		<path fill="#6FCCF4" d="M41.264,18.183h-1.316l-1.485-6.022l-1.443,6.022h-1.317l-1.387-9.385h1.513l0.728,4.944l1.191-4.944
			h1.443l1.219,4.944l0.728-4.944h1.513L41.264,18.183z"/>
		<path fill="#6FCCF4" d="M49.103,18.183l-3.586-6.358v6.358h-1.485V8.798h1.485l3.418,5.995V8.798h1.485v9.385H49.103z"/>
		<path fill="#6FCCF4" d="M52.655,18.183V8.798h1.485v7.998h4.343v1.387H52.655z"/>
		<path fill="#6FCCF4" d="M65.301,17.3c-0.532,0.715-1.288,1.051-2.269,1.051c-1.316,0-2.145-0.531-2.703-1.681
			c-0.394-0.799-0.659-2.045-0.659-3.166c0-1.541,0.394-2.928,1.022-3.824c0.561-0.714,1.316-1.05,2.396-1.05
			c1.19,0,2.019,0.532,2.604,1.681c0.394,0.826,0.631,2.017,0.631,3.193C66.323,14.989,65.96,16.474,65.301,17.3z M64.278,10.871
			c-0.295-0.49-0.658-0.687-1.22-0.729c-0.026,0-0.056,0-0.084,0c-0.672,0-1.12,0.364-1.429,1.162
			c-0.237,0.561-0.363,1.415-0.363,2.199c0,0.995,0.195,2.018,0.561,2.605c0.295,0.49,0.687,0.729,1.289,0.729
			c0.687,0,1.119-0.363,1.441-1.189c0.196-0.49,0.364-1.416,0.364-2.145C64.839,12.453,64.643,11.501,64.278,10.871z"/>
		<path fill="#6FCCF4" d="M73.925,18.183l-0.924-2.634h-2.928l-0.926,2.634h-1.582l3.235-9.385h1.472l3.234,9.385H73.925z
			 M71.558,11.403l-0.967,2.633h1.878L71.558,11.403z"/>
		<path fill="#6FCCF4" d="M81.651,17.649c-0.351,0.336-0.854,0.504-1.345,0.533c-0.099,0-0.295,0-0.532,0h-2.857V8.798h3.025
			c0.953,0,1.316,0.098,1.82,0.49c0.98,0.854,1.541,2.339,1.541,4.188C83.305,15.354,82.717,16.838,81.651,17.649z M81.036,10.675
			c-0.238-0.225-0.562-0.393-0.953-0.393h-1.682v6.388h1.484c0.49,0,0.785-0.099,1.051-0.364c0.561-0.561,0.854-1.582,0.854-2.83
			C81.792,12.216,81.497,11.165,81.036,10.675z"/>
	</g>
</g>
<g>
	<path fill="#6FCCF4" d="M85.26,17.56c0-0.444,0.3-0.756,0.72-0.756c0.419,0,0.707,0.312,0.707,0.756
		c0,0.432-0.275,0.755-0.72,0.755C85.547,18.314,85.26,17.991,85.26,17.56z"/>
	<path fill="#6FCCF4" d="M87.743,17.56c0-0.444,0.3-0.756,0.719-0.756c0.42,0,0.708,0.312,0.708,0.756
		c0,0.432-0.275,0.755-0.72,0.755C88.03,18.314,87.743,17.991,87.743,17.56z"/>
	<path fill="#6FCCF4" d="M90.228,17.56c0-0.444,0.3-0.756,0.719-0.756c0.42,0,0.708,0.312,0.708,0.756
		c0,0.432-0.275,0.755-0.72,0.755C90.515,18.314,90.228,17.991,90.228,17.56z"/>
</g>
</svg>
