<?xml version="1.0" encoding="utf-8"?>
<!-- Generator: Adobe Illustrator 15.1.0, SVG Export Plug-In . SVG Version: 6.00 Build 0)  -->
<!DOCTYPE svg PUBLIC "-//W3C//DTD SVG 1.1//EN" "http://www.w3.org/Graphics/SVG/1.1/DTD/svg11.dtd">
<svg version="1.1"
	 id="Layer_1" xmlns:inkscape="http://www.inkscape.org/namespaces/inkscape" xmlns:dc="http://purl.org/dc/elements/1.1/" xmlns:sodipodi="http://sodipodi.sourceforge.net/DTD/sodipodi-0.dtd" sodipodi:docname="test.svg" xmlns:rdf="http://www.w3.org/1999/02/22-rdf-syntax-ns#" xmlns:svg="http://www.w3.org/2000/svg" xmlns:cc="http://creativecommons.org/ns#" inkscape:version="0.48.2 r9819"
	 xmlns="http://www.w3.org/2000/svg" xmlns:xlink="http://www.w3.org/1999/xlink" x="0px" y="0px" width="100.791px"
	 height="28.162px" viewBox="-9.677 0 100.791 28.162" enable-background="new -9.677 0 100.791 28.162" xml:space="preserve">
<sodipodi:namedview  id="namedview65" bordercolor="#666666" showgrid="false" inkscape:current-layer="Layer_1" inkscape:pageshadow="2" inkscape:window-height="480" inkscape:window-maximized="0" borderopacity="1" objecttolerance="10" inkscape:cy="13.639" inkscape:cx="41.035" inkscape:pageopacity="0" inkscape:zoom="0.19627411" guidetolerance="10" inkscape:window-y="0" fit-margin-bottom="0" inkscape:window-x="0" inkscape:window-width="640" fit-margin-right="0" fit-margin-left="0" fit-margin-top="0" pagecolor="#ffffff" gridtolerance="10">
	</sodipodi:namedview>
<g>
	<g>
		<linearGradient id="SVGID_1_" gradientUnits="userSpaceOnUse" x1="40.719" y1="28.1621" x2="40.719" y2="4.882812e-04">
			<stop  offset="0" style="stop-color:#404041"/>
			<stop  offset="0.3497" style="stop-color:#3D3C3D"/>
			<stop  offset="0.6944" style="stop-color:#323031"/>
			<stop  offset="1" style="stop-color:#231F20"/>
		</linearGradient>
		<path fill="url(#SVGID_1_)" d="M4.404,28.162c-7.764,0-14.08-6.316-14.08-14.082C-9.677,6.316-3.36,0,4.404,0h72.628
			c7.766,0,14.082,6.316,14.082,14.08c0,7.766-6.316,14.082-14.082,14.082H4.404z"/>
		<linearGradient id="SVGID_2_" gradientUnits="userSpaceOnUse" x1="40.719" y1="25.9121" x2="40.719" y2="2.2505">
			<stop  offset="0" style="stop-color:#231F20"/>
			<stop  offset="0.3056" style="stop-color:#323031"/>
			<stop  offset="0.6503" style="stop-color:#3D3C3D"/>
			<stop  offset="1" style="stop-color:#404041"/>
		</linearGradient>
		<path fill="url(#SVGID_2_)" d="M88.864,14.08c0,6.535-5.297,11.832-11.832,11.832H4.404c-6.533,0-11.83-5.297-11.83-11.832l0,0
			c0-6.533,5.297-11.83,11.83-11.83h72.628C83.567,2.25,88.864,7.547,88.864,14.08L88.864,14.08z"/>
		<linearGradient id="SVGID_3_" gradientUnits="userSpaceOnUse" x1="-7.4265" y1="8.2773" x2="88.864" y2="8.2773">
			<stop  offset="0" style="stop-color:#231F20"/>
			<stop  offset="0.0732" style="stop-color:#333E46"/>
			<stop  offset="0.2296" style="stop-color:#537D90"/>
			<stop  offset="0.3593" style="stop-color:#6AABC7"/>
			<stop  offset="0.4556" style="stop-color:#79C7E9"/>
			<stop  offset="0.5078" style="stop-color:#7ED2F6"/>
			<stop  offset="1" style="stop-color:#231F20"/>
		</linearGradient>
		<path fill="url(#SVGID_3_)" d="M4.404,2.699h72.628c6.459,0,11.701,5.176,11.82,11.605c0-0.074,0.012-0.148,0.012-0.225
			c0-6.533-5.297-11.83-11.832-11.83H4.404c-6.533,0-11.83,5.297-11.83,11.83c0,0.076,0.01,0.15,0.012,0.225
			C-7.294,7.875-2.053,2.699,4.404,2.699z"/>
		
			<linearGradient id="SVGID_4_" gradientUnits="userSpaceOnUse" x1="-7.4265" y1="258.7695" x2="88.864" y2="258.7695" gradientTransform="matrix(1 0 0 -1 0 279.1016)">
			<stop  offset="0" style="stop-color:#231F20"/>
			<stop  offset="0.0732" style="stop-color:#333E46"/>
			<stop  offset="0.2296" style="stop-color:#537D90"/>
			<stop  offset="0.3593" style="stop-color:#6AABC7"/>
			<stop  offset="0.4556" style="stop-color:#79C7E9"/>
			<stop  offset="0.5078" style="stop-color:#7ED2F6"/>
			<stop  offset="1" style="stop-color:#231F20"/>
		</linearGradient>
		<path fill="url(#SVGID_4_)" d="M4.404,25.91h72.628c6.459,0,11.701-5.176,11.82-11.605c0,0.074,0.012,0.148,0.012,0.225
			c0,6.533-5.297,11.83-11.832,11.83H4.404c-6.533,0-11.83-5.297-11.83-11.83c0-0.076,0.01-0.15,0.012-0.225
			C-7.294,20.734-2.053,25.91,4.404,25.91z"/>
	</g>
	<g>
		<path fill="#6FCCF4" d="M13.247,17.65c-0.35,0.336-0.854,0.504-1.345,0.532c-0.098,0-0.294,0-0.532,0H8.513V8.798h3.025
			c0.953,0,1.317,0.098,1.821,0.49c0.98,0.854,1.541,2.339,1.541,4.188C14.901,15.354,14.312,16.838,13.247,17.65z M12.631,10.675
			c-0.238-0.225-0.56-0.393-0.953-0.393H9.998v6.388h1.485c0.49,0,0.784-0.099,1.05-0.364c0.561-0.561,0.854-1.583,0.854-2.83
			C13.387,12.216,13.094,11.165,12.631,10.675z"/>
		<path fill="#6FCCF4" d="M22.376,17.3c-0.532,0.715-1.289,1.051-2.27,1.051c-1.316,0-2.143-0.532-2.703-1.681
			c-0.393-0.799-0.659-2.045-0.659-3.166c0-1.541,0.393-2.928,1.023-3.824c0.56-0.714,1.316-1.05,2.395-1.05
			c1.191,0,2.017,0.532,2.605,1.681c0.392,0.826,0.63,2.017,0.63,3.193C23.398,14.989,23.034,16.474,22.376,17.3z M21.353,10.871
			c-0.294-0.49-0.659-0.687-1.219-0.729c-0.028,0-0.056,0-0.084,0c-0.672,0-1.121,0.364-1.429,1.162
			c-0.238,0.561-0.364,1.415-0.364,2.199c0,0.995,0.196,2.018,0.56,2.605c0.294,0.49,0.687,0.729,1.289,0.729
			c0.687,0,1.121-0.364,1.443-1.19c0.196-0.49,0.364-1.415,0.364-2.144C21.913,12.453,21.717,11.501,21.353,10.871z"/>
		<path fill="#6FCCF4" d="M31.588,18.183h-1.316l-1.485-6.023l-1.443,6.023h-1.317L24.64,8.798h1.513l0.728,4.944l1.191-4.944h1.443
			l1.219,4.944l0.728-4.944h1.513L31.588,18.183z"/>
		<path fill="#6FCCF4" d="M39.427,18.183l-3.586-6.359v6.359h-1.485V8.798h1.485l3.418,5.995V8.798h1.485v9.385H39.427z"/>
		<path fill="#6FCCF4" d="M42.98,18.183V8.798h1.485v7.998h4.342v1.387H42.98z"/>
		<path fill="#6FCCF4" d="M55.625,17.3c-0.532,0.715-1.288,1.051-2.269,1.051c-1.316,0-2.144-0.532-2.703-1.681
			c-0.393-0.799-0.659-2.045-0.659-3.166c0-1.541,0.393-2.928,1.023-3.824c0.56-0.714,1.316-1.05,2.395-1.05
			c1.19,0,2.018,0.532,2.605,1.681c0.393,0.826,0.63,2.017,0.63,3.193C56.647,14.989,56.284,16.474,55.625,17.3z M54.602,10.871
			c-0.294-0.49-0.658-0.687-1.219-0.729c-0.027,0-0.056,0-0.084,0c-0.672,0-1.12,0.364-1.429,1.162
			c-0.237,0.561-0.363,1.415-0.363,2.199c0,0.995,0.195,2.018,0.56,2.605c0.295,0.49,0.687,0.729,1.289,0.729
			c0.687,0,1.12-0.364,1.442-1.19c0.196-0.49,0.364-1.415,0.364-2.144C55.163,12.453,54.967,11.501,54.602,10.871z"/>
		<path fill="#6FCCF4" d="M64.249,18.183l-0.924-2.634h-2.928l-0.925,2.634h-1.583l3.236-9.385h1.471l3.235,9.385H64.249z
			 M61.882,11.403l-0.967,2.633h1.878L61.882,11.403z"/>
		<path fill="#6FCCF4" d="M71.976,17.65c-0.351,0.336-0.854,0.504-1.345,0.532c-0.099,0-0.295,0-0.532,0h-2.858V8.798h3.026
			c0.952,0,1.316,0.098,1.82,0.49c0.981,0.854,1.541,2.339,1.541,4.188C73.629,15.354,73.041,16.838,71.976,17.65z M71.36,10.675
			c-0.238-0.225-0.561-0.393-0.953-0.393h-1.681v6.388h1.484c0.49,0,0.785-0.099,1.051-0.364c0.561-0.561,0.854-1.583,0.854-2.83
			C72.116,12.216,71.822,11.165,71.36,10.675z"/>
	</g>
</g>
</svg>
