<?xml version="1.0" encoding="utf-8"?>
<!-- Generator: Adobe Illustrator 15.1.0, SVG Export Plug-In . SVG Version: 6.00 Build 0)  -->
<!DOCTYPE svg PUBLIC "-//W3C//DTD SVG 1.1//EN" "http://www.w3.org/Graphics/SVG/1.1/DTD/svg11.dtd">
<svg version="1.1"
	 id="svg3113" sodipodi:docname="fan-button.ai" inkscape:version="0.48.2 r9819" xmlns:inkscape="http://www.inkscape.org/namespaces/inkscape" xmlns:sodipodi="http://sodipodi.sourceforge.net/DTD/sodipodi-0.dtd" xmlns:svg="http://www.w3.org/2000/svg" xmlns:rdf="http://www.w3.org/1999/02/22-rdf-syntax-ns#" xmlns:cc="http://creativecommons.org/ns#" xmlns:dc="http://purl.org/dc/elements/1.1/"
	 xmlns="http://www.w3.org/2000/svg" xmlns:xlink="http://www.w3.org/1999/xlink" x="0px" y="0px" width="61.59px"
	 height="23.615px" viewBox="0 0 61.59 23.615" enable-background="new 0 0 61.59 23.615" xml:space="preserve">
<sodipodi:namedview  pagecolor="#ffffff" borderopacity="1" id="namedview3115" inkscape:window-width="640" fit-margin-top="0" objecttolerance="10" bordercolor="#666666" gridtolerance="10" guidetolerance="10" inkscape:pageopacity="0" inkscape:pageshadow="2" inkscape:window-height="480" inkscape:cx="30.05125" showgrid="false" fit-margin-left="0" fit-margin-right="0" fit-margin-bottom="0" inkscape:zoom="0.23838384" inkscape:cy="12.1375" inkscape:window-x="0" inkscape:window-y="0" inkscape:window-maximized="0" inkscape:current-layer="g3121">
	</sodipodi:namedview>
<g id="g3121" transform="matrix(1.25,0,0,-1.25,-352.44875,506.4775)" inkscape:label="fan-button" inkscape:groupmode="layer">
	<g id="g3123" transform="translate(299.3232,398.6318)">
		<path id="path3125" inkscape:connector-curvature="0" fill="#373536" d="M0,0v-2.047h2.435v-1.348H0V-7.04h-1.323v8.363h5.192V0H0
			z"/>
	</g>
	<g id="g3127" transform="translate(299.3232,398.6318)">
		<path id="path3129" inkscape:connector-curvature="0" fill="none" stroke="#373536" stroke-width="1.242" d="M0,0v-2.047h2.435
			v-1.348H0V-7.04h-1.323v8.363h5.192V0H0z"/>
	</g>
	<g id="g3131" transform="translate(307.2471,397.6338)">
		<path id="path3133" inkscape:connector-curvature="0" fill="#373536" d="M0,0l-0.861-2.347h1.673L0,0z M2.109-6.041L1.287-3.694
			h-2.609l-0.824-2.347h-1.411l2.885,8.363h1.311l2.883-8.363H2.109z"/>
	</g>
	<g id="g3135" transform="translate(307.2471,397.6338)">
		<path id="path3137" inkscape:connector-curvature="0" fill="none" stroke="#373536" stroke-width="1.242" d="M0,0l-0.861-2.347
			h1.673L0,0z M2.109-6.041L1.287-3.694h-2.609l-0.824-2.347h-1.411l2.885,8.363h1.311l2.883-8.363H2.109z"/>
	</g>
	<g id="g3139" transform="translate(316.542,391.5928)">
		<path id="path3141" inkscape:connector-curvature="0" fill="#373536" d="M0,0l-3.195,5.667V0h-1.323v8.363h1.323l3.047-5.342
			v5.342h1.323V0H0z"/>
	</g>
	<g id="g3143" transform="translate(316.542,391.5928)">
		<path id="path3145" inkscape:connector-curvature="0" fill="none" stroke="#373536" stroke-width="1.242" d="M0,0l-3.195,5.667V0
			h-1.323v8.363h1.323l3.047-5.342v5.342h1.323V0H0z"/>
	</g>
	<g id="g3147">
		<g id="g3149">
			<g id="g3155">
				<g id="g3157">
					
						<linearGradient id="path3165_1_" gradientUnits="userSpaceOnUse" x1="233.0453" y1="372.5812" x2="234.0453" y2="372.5812" gradientTransform="matrix(0 23.6145 -23.6145 0 9104.9014 -5116.9556)">
						<stop  offset="0" style="stop-color:#747576"/>
						<stop  offset="1" style="stop-color:#373536"/>
					</linearGradient>
					<path id="path3165" inkscape:connector-curvature="0" fill="url(#path3165_1_)" d="M289.832,405.182
						c-4.338,0-7.873-4.237-7.873-9.445l0,0c0-5.211,3.535-9.447,7.873-9.447l0,0h33.53c4.338,0,7.869,4.237,7.869,9.447l0,0
						c0,5.208-3.531,9.445-7.869,9.445l0,0H289.832z"/>
				</g>
			</g>
		</g>
	</g>
	<g id="g3167">
		<g id="g3169">
			<g id="g3175">
				<g id="g3177">
					
						<linearGradient id="path3185_1_" gradientUnits="userSpaceOnUse" x1="232.1883" y1="398.355" x2="233.1883" y2="398.355" gradientTransform="matrix(0 21.7419 21.7419 0 -8354.4219 -4661.1831)">
						<stop  offset="0" style="stop-color:#747576"/>
						<stop  offset="1" style="stop-color:#373536"/>
					</linearGradient>
					<path id="path3185" inkscape:connector-curvature="0" fill="url(#path3185_1_)" d="M289.832,404.434
						c-3.925,0-7.124-3.903-7.124-8.696l0,0c0-4.795,3.199-8.697,7.124-8.697l0,0h33.53c3.926,0,7.119,3.902,7.119,8.697l0,0
						c0,4.793-3.193,8.696-7.119,8.696l0,0H289.832z"/>
				</g>
			</g>
		</g>
	</g>
	<g id="g3187">
		<g id="g3189">
			<g id="g3195">
				<g id="g3197">
					
						<linearGradient id="path3207_1_" gradientUnits="userSpaceOnUse" x1="231.4906" y1="399.2211" x2="232.4906" y2="399.2211" gradientTransform="matrix(0 20.4236 20.4236 0 -7846.938 -4340.3037)">
						<stop  offset="0" style="stop-color:#373536"/>
						<stop  offset="0.9948" style="stop-color:#747576"/>
						<stop  offset="1" style="stop-color:#747576"/>
					</linearGradient>
					<path id="path3207" inkscape:connector-curvature="0" fill="url(#path3207_1_)" d="M289.832,403.906
						c-3.664,0-6.646-3.665-6.646-8.168l0,0c0-4.505,2.982-8.17,6.646-8.17l0,0h33.53c3.661,0,6.641,3.665,6.641,8.17l0,0
						c0,4.503-2.98,8.168-6.641,8.168l0,0H289.832z"/>
				</g>
			</g>
		</g>
	</g>
	<g id="g3209">
		<g>
			<defs>
				<rect id="SVGID_1_" x="-76.5" y="-99" width="765" height="990"/>
			</defs>
			<clipPath id="SVGID_2_">
				<use xlink:href="#SVGID_1_"  overflow="visible"/>
			</clipPath>
			<g id="g3211" clip-path="url(#SVGID_2_)">
				<g id="g3217" transform="translate(298.8242,399.0068)">
					<path id="path3219" inkscape:connector-curvature="0" fill="#999999" d="M0,0v-2.047h2.435v-1.348H0V-7.04h-1.322v8.363h5.191
						V0H0z"/>
				</g>
				<g id="g3221" transform="translate(306.748,398.0078)">
					<path id="path3223" inkscape:connector-curvature="0" fill="#999999" d="M0,0l-0.861-2.346h1.673L0,0z M2.109-6.041
						L1.288-3.693h-2.609l-0.824-2.348h-1.411l2.885,8.363h1.311l2.882-8.363H2.109z"/>
				</g>
				<g id="g3225" transform="translate(316.043,391.9668)">
					<path id="path3227" inkscape:connector-curvature="0" fill="#999999" d="M0,0l-3.195,5.667V0h-1.323v8.363h1.323l3.046-5.342
						v5.342h1.323V0H0z"/>
				</g>
			</g>
		</g>
	</g>
</g>
</svg>
