<?xml version="1.0" encoding="utf-8"?>
<!-- Generator: Adobe Illustrator 15.1.0, SVG Export Plug-In . SVG Version: 6.00 Build 0)  -->
<!DOCTYPE svg PUBLIC "-//W3C//DTD SVG 1.1//EN" "http://www.w3.org/Graphics/SVG/1.1/DTD/svg11.dtd">
<svg version="1.1"
	 id="Layer_1" xmlns:dc="http://purl.org/dc/elements/1.1/" xmlns:cc="http://creativecommons.org/ns#" xmlns:svg="http://www.w3.org/2000/svg" xmlns:rdf="http://www.w3.org/1999/02/22-rdf-syntax-ns#" xmlns:sodipodi="http://sodipodi.sourceforge.net/DTD/sodipodi-0.dtd" xmlns:inkscape="http://www.inkscape.org/namespaces/inkscape" inkscape:version="0.48.1 r9760" sodipodi:docname="insteon_LED.svg"
	 xmlns="http://www.w3.org/2000/svg" xmlns:xlink="http://www.w3.org/1999/xlink" x="0px" y="0px" width="29.333px"
	 height="29.271px" viewBox="0 0 29.333 29.271" enable-background="new 0 0 29.333 29.271" xml:space="preserve">
<sodipodi:namedview  id="namedview11726" bordercolor="#666666" borderopacity="1" inkscape:window-width="1910" inkscape:zoom="21.013957" objecttolerance="10" pagecolor="#ffffff" gridtolerance="10" guidetolerance="10" inkscape:pageopacity="0" inkscape:pageshadow="2" inkscape:window-height="1156" inkscape:cy="22.318501" showgrid="false" inkscape:cx="22.318501" inkscape:window-x="0" inkscape:window-y="0" inkscape:window-maximized="0" inkscape:current-layer="Layer_1">
	</sodipodi:namedview>
<g id="g11706">
	<g id="g11708">
	</g>
	<g id="g11712">
	</g>
	<g id="g11716">
	</g>
	<g id="g11720">
	</g>
</g>
<g id="Livello_1_2_">
</g>
<g id="g3518" transform="translate(-252.4 4.5158)">
	<path id="path58241" fill="#FFFFFF" d="M267.094-4.21c-0.981,0-1.938,0.104-2.865,0.291v2.217
		c-1.244,0.301-2.408,0.783-3.469,1.434l-1.569-1.566c-0.802,0.532-1.536,1.157-2.217,1.836c-0.678,0.679-1.305,1.413-1.835,2.217
		l1.566,1.567c-0.648,1.062-1.133,2.226-1.434,3.47h-2.214c-0.189,0.927-0.293,1.885-0.293,2.866c0,0.979,0.104,1.938,0.293,2.864
		h2.214c0.301,1.244,0.785,2.408,1.434,3.472l-1.566,1.567c0.53,0.804,1.157,1.537,1.835,2.216c0.681,0.68,1.415,1.305,2.217,1.836
		l1.569-1.566c1.061,0.65,2.225,1.133,3.469,1.432v2.22c0.927,0.188,1.884,0.289,2.865,0.289c0.979,0,1.94-0.103,2.864-0.289v-2.22
		c1.248-0.299,2.408-0.78,3.471-1.432l1.57,1.566c0.803-0.531,1.537-1.156,2.215-1.836c0.68-0.679,1.303-1.412,1.838-2.216
		l-1.57-1.567c0.652-1.062,1.135-2.228,1.436-3.472h2.217c0.188-0.926,0.291-1.885,0.291-2.864c0-0.981-0.104-1.939-0.291-2.866
		h-2.217c-0.301-1.244-0.781-2.407-1.436-3.47l1.57-1.567c-0.535-0.804-1.158-1.538-1.838-2.217
		c-0.678-0.679-1.412-1.304-2.215-1.836l-1.57,1.566c-1.061-0.649-2.223-1.133-3.471-1.434v-2.217
		C269.034-4.108,268.073-4.21,267.094-4.21z M267.094,2.955c3.954,0,7.163,3.21,7.163,7.165s-3.209,7.164-7.163,7.164
		c-3.955,0-7.166-3.209-7.166-7.164S263.138,2.955,267.094,2.955z"/>
</g>
</svg>
