<?xml version="1.0" encoding="UTF-8" standalone="no"?>
<!-- Created with Inkscape (http://www.inkscape.org/) -->

<svg
   xmlns:dc="http://purl.org/dc/elements/1.1/"
   xmlns:cc="http://creativecommons.org/ns#"
   xmlns:rdf="http://www.w3.org/1999/02/22-rdf-syntax-ns#"
   xmlns:svg="http://www.w3.org/2000/svg"
   xmlns="http://www.w3.org/2000/svg"
   xmlns:sodipodi="http://sodipodi.sourceforge.net/DTD/sodipodi-0.dtd"
   xmlns:inkscape="http://www.inkscape.org/namespaces/inkscape"
   id="svg2"
   version="1.1"
   inkscape:version="0.48.2 r9819"
   width="151.25"
   height="151.25"
   xml:space="preserve"
   sodipodi:docname="headlights-off.svg"><metadata
     id="metadata8"><rdf:RDF><cc:Work
         rdf:about=""><dc:format>image/svg+xml</dc:format><dc:type
           rdf:resource="http://purl.org/dc/dcmitype/StillImage" /><dc:title></dc:title></cc:Work></rdf:RDF></metadata><defs
     id="defs6"><linearGradient
       x1="0"
       y1="0"
       x2="1"
       y2="0"
       gradientUnits="userSpaceOnUse"
       gradientTransform="matrix(0,121.29248,-121.29248,0,60.52832,-0.2851562)"
       spreadMethod="pad"
       id="linearGradient24"><stop
         style="stop-opacity:1;stop-color:#4d4d4f"
         offset="0"
         id="stop26" /><stop
         style="stop-opacity:1;stop-color:#48484a"
         offset="0.397202"
         id="stop28" /><stop
         style="stop-opacity:1;stop-color:#363737"
         offset="0.788696"
         id="stop30" /><stop
         style="stop-opacity:1;stop-color:#292929"
         offset="1"
         id="stop32" /></linearGradient><linearGradient
       x1="0"
       y1="0"
       x2="1"
       y2="0"
       gradientUnits="userSpaceOnUse"
       gradientTransform="matrix(0,112.05225,-112.05225,0,60.52832,4.3320312)"
       spreadMethod="pad"
       id="linearGradient48"><stop
         style="stop-opacity:1;stop-color:#292929"
         offset="0"
         id="stop50" /><stop
         style="stop-opacity:1;stop-color:#363737"
         offset="0.211304"
         id="stop52" /><stop
         style="stop-opacity:1;stop-color:#48484a"
         offset="0.602798"
         id="stop54" /><stop
         style="stop-opacity:1;stop-color:#4d4d4f"
         offset="1"
         id="stop56" /></linearGradient><linearGradient
       x1="0"
       y1="0"
       x2="1"
       y2="0"
       gradientUnits="userSpaceOnUse"
       gradientTransform="matrix(112.05176,0,0,112.05176,4.5019531,88.030273)"
       spreadMethod="pad"
       id="linearGradient72"><stop
         style="stop-opacity:1;stop-color:#292929"
         offset="0"
         id="stop74" /><stop
         style="stop-opacity:1;stop-color:#657178"
         offset="0.130402"
         id="stop76" /><stop
         style="stop-opacity:1;stop-color:#7e9dab"
         offset="0.266098"
         id="stop78" /><stop
         style="stop-opacity:1;stop-color:#85bbd4"
         offset="0.378799"
         id="stop80" /><stop
         style="stop-opacity:1;stop-color:#84cded"
         offset="0.462402"
         id="stop82" /><stop
         style="stop-opacity:1;stop-color:#84d4f7"
         offset="0.507797"
         id="stop84" /><stop
         style="stop-opacity:1;stop-color:#292929"
         offset="1"
         id="stop86" /></linearGradient><linearGradient
       x1="0"
       y1="0"
       x2="1"
       y2="0"
       gradientUnits="userSpaceOnUse"
       gradientTransform="matrix(112.05176,0,0,-112.05176,4.5019531,32.685547)"
       spreadMethod="pad"
       id="linearGradient102"><stop
         style="stop-opacity:1;stop-color:#292929"
         offset="0"
         id="stop104" /><stop
         style="stop-opacity:1;stop-color:#657178"
         offset="0.130402"
         id="stop106" /><stop
         style="stop-opacity:1;stop-color:#7e9dab"
         offset="0.266098"
         id="stop108" /><stop
         style="stop-opacity:1;stop-color:#85bbd4"
         offset="0.378799"
         id="stop110" /><stop
         style="stop-opacity:1;stop-color:#84cded"
         offset="0.462402"
         id="stop112" /><stop
         style="stop-opacity:1;stop-color:#84d4f7"
         offset="0.507797"
         id="stop114" /><stop
         style="stop-opacity:1;stop-color:#292929"
         offset="1"
         id="stop116" /></linearGradient><radialGradient
       fx="0"
       fy="0"
       cx="0"
       cy="0"
       r="1"
       gradientUnits="userSpaceOnUse"
       gradientTransform="matrix(42.601822,0,0,42.601822,38.875,73.538574)"
       spreadMethod="pad"
       id="radialGradient132"><stop
         style="stop-opacity:1;stop-color:#2a7ea9"
         offset="0"
         id="stop134" /><stop
         style="stop-opacity:1;stop-color:#2881ac"
         offset="0.0158997"
         id="stop136" /><stop
         style="stop-opacity:1;stop-color:#2795c1"
         offset="0.144302"
         id="stop138" /><stop
         style="stop-opacity:1;stop-color:#27a7d2"
         offset="0.280502"
         id="stop140" /><stop
         style="stop-opacity:1;stop-color:#3bb7e0"
         offset="0.424896"
         id="stop142" /><stop
         style="stop-opacity:1;stop-color:#56c4ee"
         offset="0.581299"
         id="stop144" /><stop
         style="stop-opacity:1;stop-color:#67cbf3"
         offset="0.758301"
         id="stop146" /><stop
         style="stop-opacity:1;stop-color:#6ccef5"
         offset="1"
         id="stop148" /></radialGradient><clipPath
       clipPathUnits="userSpaceOnUse"
       id="clipPath156"><path
         d="M 0,121 121,121 121,0 0,0 0,121 z"
         id="path158" /></clipPath><radialGradient
       fx="0"
       fy="0"
       cx="0"
       cy="0"
       r="1"
       gradientUnits="userSpaceOnUse"
       gradientTransform="matrix(42.601822,0,0,42.601822,38.875,73.538574)"
       spreadMethod="pad"
       id="radialGradient176"><stop
         style="stop-opacity:1;stop-color:#2a7ea9"
         offset="0"
         id="stop178" /><stop
         style="stop-opacity:1;stop-color:#2881ac"
         offset="0.0158997"
         id="stop180" /><stop
         style="stop-opacity:1;stop-color:#2795c1"
         offset="0.144302"
         id="stop182" /><stop
         style="stop-opacity:1;stop-color:#27a7d2"
         offset="0.280502"
         id="stop184" /><stop
         style="stop-opacity:1;stop-color:#3bb7e0"
         offset="0.424896"
         id="stop186" /><stop
         style="stop-opacity:1;stop-color:#56c4ee"
         offset="0.581299"
         id="stop188" /><stop
         style="stop-opacity:1;stop-color:#67cbf3"
         offset="0.758301"
         id="stop190" /><stop
         style="stop-opacity:1;stop-color:#6ccef5"
         offset="1"
         id="stop192" /></radialGradient><clipPath
       clipPathUnits="userSpaceOnUse"
       id="clipPath200"><path
         d="M 0,121 121,121 121,0 0,0 0,121 z"
         id="path202" /></clipPath><clipPath
       clipPathUnits="userSpaceOnUse"
       id="clipPath216"><path
         d="m -41.02,157.494 191.375,0 0,-180.5858 -191.375,0 0,180.5858 z"
         id="path218" /></clipPath><clipPath
       clipPathUnits="userSpaceOnUse"
       id="clipPath220"><path
         d="m 4.894,58.296 c 0,-14.813 6.051,-28.061 15.473,-38.066 4.898,40.443 39.029,71.893 80.791,71.893 1.127,0 2.17,-0.228 3.281,-0.27 C 94.223,105.139 78.81,114.172 60.764,114.172 29.921,114.173 4.894,89.15 4.894,58.296"
         id="path222" /></clipPath><clipPath
       clipPathUnits="userSpaceOnUse"
       id="clipPath224"><path
         d="m -41.02,157.494 191.375,0 0,-180.5858 -191.375,0 0,180.5858 z"
         id="path226" /></clipPath><clipPath
       clipPathUnits="userSpaceOnUse"
       id="clipPath228"><path
         d="m -41.02,157.494 191.375,0 0,-180.5858 -191.375,0 0,180.5858 z"
         id="path230" /></clipPath><linearGradient
       x1="0"
       y1="0"
       x2="1"
       y2="0"
       gradientUnits="userSpaceOnUse"
       gradientTransform="matrix(38.516632,-54.619659,57.884994,36.343903,18.8125,118.08594)"
       spreadMethod="pad"
       id="linearGradient236"><stop
         style="stop-opacity:1;stop-color:#ffffff"
         offset="0"
         id="stop238" /><stop
         style="stop-opacity:1;stop-color:#292929"
         offset="1"
         id="stop240" /></linearGradient><mask
       maskUnits="userSpaceOnUse"
       x="0"
       y="0"
       width="1"
       height="1"
       id="mask242"><g
         id="g244"><g
           clip-path="url(#clipPath224)"
           id="g246"><path
             d="m -41.02,157.494 191.375,0 0,-180.586 -191.375,0 0,180.586 z"
             style="fill:#000000;fill-opacity:1;fill-rule:nonzero;stroke:none"
             id="path248" /><g
             id="g250"><g
               id="g252" /><g
               id="g254"><g
                 clip-path="url(#clipPath228)"
                 id="g256"><g
                   id="g258"><g
                     id="g260"><g
                       id="g262"><g
                         id="g264"><path
                           d="m 4.893,58.296 c 0,-14.812 6.052,-28.06 15.474,-38.066 l 0,0 c 4.898,40.443 39.029,71.893 80.791,71.893 l 0,0 c 1.127,0 2.17,-0.228 3.282,-0.271 l 0,0 c -10.217,13.287 -25.631,22.32 -43.676,22.32 l 0,0 C 29.921,114.173 4.893,89.15 4.893,58.296"
                           style="fill:url(#linearGradient236);stroke:none"
                           id="path266" /></g></g></g></g></g></g></g></g></g></mask><clipPath
       clipPathUnits="userSpaceOnUse"
       id="clipPath268"><path
         d="m -41.02,157.494 191.375,0 0,-180.5858 -191.375,0 0,180.5858 z"
         id="path270" /></clipPath><linearGradient
       x1="0"
       y1="0"
       x2="1"
       y2="0"
       gradientUnits="userSpaceOnUse"
       gradientTransform="matrix(38.516632,-54.619659,57.884994,36.343903,18.8125,118.08594)"
       spreadMethod="pad"
       id="linearGradient276"><stop
         style="stop-opacity:1;stop-color:#ffffff"
         offset="0"
         id="stop278" /><stop
         style="stop-opacity:1;stop-color:#ffffff"
         offset="1"
         id="stop280" /></linearGradient></defs><sodipodi:namedview
     pagecolor="#ffffff"
     bordercolor="#666666"
     borderopacity="1"
     objecttolerance="10"
     gridtolerance="10"
     guidetolerance="10"
     inkscape:pageopacity="0"
     inkscape:pageshadow="2"
     inkscape:window-width="640"
     inkscape:window-height="480"
     id="namedview4"
     showgrid="false"
     inkscape:zoom="1.5603306"
     inkscape:cx="75.625"
     inkscape:cy="75.625"
     inkscape:window-x="101"
     inkscape:window-y="116"
     inkscape:window-maximized="0"
     inkscape:current-layer="g10" /><g
     id="g10"
     inkscape:groupmode="layer"
     inkscape:label="headlights-off"
     transform="matrix(1.25,0,0,-1.25,0,151.25)"><g
       id="g12"><g
         id="g14"><g
           id="g20"><g
             id="g22"><path
               d="M 59.53,121 C 27.763,120.487 1.931,95.546 0,64.143 l 0,0 0,-7.565 C 1.831,26.808 25.134,2.855 54.61,0 l 0,0 11.84,0 C 95.654,2.828 118.791,26.364 121,55.748 l 0,0 0,9.225 C 118.668,95.984 93.013,120.49 61.526,121 l 0,0 -1.996,0 z"
               style="fill:url(#linearGradient24);stroke:none"
               id="path34" /></g></g></g></g><g
       id="g36"><g
         id="g38"><g
           id="g44"><g
             id="g46"><path
               d="M 4.502,60.36 C 4.502,29.469 29.636,4.331 60.529,4.331 l 0,0 c 30.896,0 56.025,25.138 56.025,56.029 l 0,0 c 0,30.892 -25.129,56.023 -56.025,56.023 l 0,0 C 29.637,116.383 4.502,91.256 4.502,60.36"
               style="fill:url(#linearGradient48);stroke:none"
               id="path58" /></g></g></g></g><g
       id="g60"><g
         id="g62"><g
           id="g68"><g
             id="g70"><path
               d="m 4.502,60.361 c 0,-0.234 0.03,-0.452 0.037,-0.687 l 0,0 c 0.371,30.569 25.33,55.336 55.99,55.336 l 0,0 c 30.663,0 55.614,-24.767 55.99,-55.336 l 0,0 c 0.007,0.234 0.035,0.452 0.035,0.687 l 0,0 c 0,30.897 -25.129,56.026 -56.025,56.026 l 0,0 C 29.636,116.387 4.502,91.256 4.502,60.361"
               style="fill:url(#linearGradient72);stroke:none"
               id="path88" /></g></g></g></g><g
       id="g90"><g
         id="g92"><g
           id="g98"><g
             id="g100"><path
               d="m 60.529,5.703 c -30.66,0 -55.619,24.762 -55.99,55.338 l 0,0 C 4.532,60.809 4.502,60.587 4.502,60.353 l 0,0 C 4.502,29.456 29.636,4.329 60.529,4.329 l 0,0 c 30.896,0 56.025,25.127 56.025,56.024 l 0,0 c 0,0.234 -0.028,0.456 -0.035,0.688 l 0,0 C 116.143,30.467 91.192,5.703 60.529,5.703"
               style="fill:url(#linearGradient102);stroke:none"
               id="path118" /></g></g></g></g><g
       id="g120"><g
         id="g122"><g
           id="g128"><g
             id="g130"><path
               d="M 44.865,68.792 C 31.948,68.73 24.032,63.188 21.717,58.131 l 0,0 c -0.229,-0.505 -0.39,-0.998 -0.49,-1.487 l 0,0 c -0.937,-4.572 3.312,-8.431 3.312,-9.628 l 0,0 c 0,-1.075 2.675,-1.624 3.681,-1.794 l 0,0 c 1.125,-1.943 3.438,-3.277 6.11,-3.277 l 0,0 c 2.714,0 4.998,0.875 6.103,2.868 l 0,0 c 1.166,0 5.541,0.88 5.541,0.88 l 0,0 c 0,0 12.7,0.088 22.402,0.266 l 0,0 c 9.362,0.173 10.292,-1.105 10.342,-1.216 l 0,0 c 1.194,-1.734 3.303,-2.798 5.798,-2.798 l 0,0 c 2.978,0 5.511,1.655 6.448,3.965 l 0,0 c 4.728,0.728 6.341,2.252 6.341,2.252 l 0,0 c 0,0 1.234,0.53 2.253,4.769 l 0,0 c 1.018,4.229 -0.842,5.746 -0.842,5.746 l 0,0 c 1.412,1.257 0.794,5.009 0,7.304 l 0,0 c -0.564,1.632 -3.673,2.369 -5.42,2.658 l 0,0 c -0.275,0.229 -0.571,0.464 -0.888,0.699 l 0,0 C 92.309,69.395 82.339,75.03 68.721,75.03 l 0,0 c -8.407,0 -16.411,-2.099 -23.856,-6.238 m -3.593,-8.019 c -0.695,2.366 0.459,4.409 0.736,4.85 l 0,0 C 50.226,71.05 59.214,73.8 68.721,73.8 l 0,0 c 13.274,0 22.976,-5.477 23.011,-5.49 l 0,0 c 2.107,-1.565 3.18,-3.022 3.104,-4.204 l 0,0 C 94.787,63.37 94.287,62.87 93.982,62.629 l 0,0 c -2.029,0.911 -13.22,5.629 -27.293,5.379 l 0,0 C 52.911,67.774 45.428,60.552 44.255,59.324 l 0,0 c -0.114,-0.017 -0.274,-0.027 -0.464,-0.027 l 0,0 c -0.857,0 -1.995,0.268 -2.519,1.476 m 6.109,-2.779 c 2.237,2.082 8.609,6.852 20.107,6.852 l 0,0 c 5.263,0 10.998,-0.998 17.063,-2.967 l 0,0 c -0.589,-0.413 -1.463,-0.947 -2.568,-1.414 l 0,0 C 80.062,59.649 59.396,57.976 49.052,57.976 l 0,0 c -0.599,0 -1.156,0.006 -1.671,0.018 M 80.242,47.848 c 0,2.263 1.979,4.104 4.41,4.104 l 0,0 c 2.434,0 4.413,-1.842 4.413,-4.104 l 0,0 c 0,-2.261 -1.979,-4.103 -4.413,-4.103 l 0,0 c -2.432,0 -4.41,1.843 -4.41,4.103 m -50.553,0 c 0,2.263 1.979,4.104 4.41,4.104 l 0,0 c 2.433,0 4.412,-1.842 4.412,-4.104 l 0,0 c 0,-2.261 -1.979,-4.103 -4.412,-4.103 l 0,0 c -2.431,0 -4.41,1.843 -4.41,4.103"
               style="fill:url(#radialGradient132);stroke:none"
               id="path150" /></g></g></g></g><g
       id="g152"><g
         id="g154"
         clip-path="url(#clipPath156)"><g
           id="g160"
           transform="translate(93.9824,62.6289)"><path
             d="m 0,0 c -2.029,0.911 -13.221,5.629 -27.293,5.379 -13.779,-0.234 -21.261,-7.456 -22.435,-8.685 -0.113,-0.015 -0.273,-0.026 -0.463,-0.026 -0.858,0 -1.996,0.268 -2.519,1.477 -0.696,2.365 0.459,4.408 0.735,4.849 8.219,5.427 17.206,8.177 26.714,8.177 13.273,0 22.976,-5.478 23.011,-5.49 C -0.143,4.116 0.93,2.659 0.854,1.478 0.805,0.741 0.305,0.24 0,0 z m -9.33,-18.885 c -2.432,0 -4.41,1.844 -4.41,4.105 0,2.262 1.979,4.103 4.41,4.103 2.434,0 4.412,-1.842 4.412,-4.103 0,-2.262 -1.978,-4.105 -4.412,-4.105 z m -35.601,14.233 c -0.598,0 -1.155,0.005 -1.67,0.017 2.236,2.082 8.609,6.852 20.107,6.852 5.263,0 10.998,-0.998 17.062,-2.967 -0.589,-0.412 -1.463,-0.947 -2.568,-1.414 -1.92,-0.815 -22.586,-2.488 -32.931,-2.488 z m -14.952,-14.233 c -2.431,0 -4.41,1.844 -4.41,4.105 0,2.262 1.979,4.103 4.41,4.103 2.432,0 4.411,-1.842 4.411,-4.103 0,-2.262 -1.979,-4.105 -4.411,-4.105 z M 4.733,-3.951 c 1.413,1.256 0.795,5.008 0,7.303 -0.563,1.632 -3.672,2.369 -5.42,2.658 -0.274,0.229 -0.57,0.464 -0.887,0.699 -0.1,0.057 -10.07,5.692 -23.687,5.692 -8.407,0 -16.412,-2.099 -23.857,-6.238 -12.917,-0.061 -20.833,-5.603 -23.148,-10.661 -0.229,-0.505 -0.389,-0.998 -0.489,-1.486 -0.937,-4.573 3.312,-8.432 3.312,-9.629 0,-1.075 2.674,-1.623 3.681,-1.793 1.125,-1.944 3.438,-3.278 6.109,-3.278 2.715,0 4.999,0.875 6.104,2.868 1.165,0 5.54,0.88 5.54,0.88 0,0 12.7,0.088 22.403,0.266 9.362,0.173 10.292,-1.104 10.341,-1.217 1.195,-1.733 3.304,-2.797 5.799,-2.797 2.978,0 5.511,1.655 6.447,3.965 4.728,0.728 6.342,2.252 6.342,2.252 0,0 1.234,0.529 2.252,4.769 1.019,4.229 -0.842,5.747 -0.842,5.747 z"
             style="fill:none;stroke:#292929;stroke-opacity:1;stroke-width:4;stroke-linecap:butt;stroke-linejoin:miter;stroke-miterlimit:10;stroke-dasharray:none"
             id="path162" /></g></g></g><g
       id="g164"><g
         id="g166"><g
           id="g172"><g
             id="g174"><path
               d="M 44.865,68.792 C 31.948,68.73 24.032,63.188 21.717,58.131 l 0,0 c -0.229,-0.505 -0.39,-0.998 -0.49,-1.487 l 0,0 c -0.937,-4.572 3.312,-8.431 3.312,-9.628 l 0,0 c 0,-1.075 2.675,-1.624 3.681,-1.794 l 0,0 c 1.125,-1.943 3.438,-3.277 6.11,-3.277 l 0,0 c 2.714,0 4.998,0.875 6.103,2.868 l 0,0 c 1.166,0 5.541,0.88 5.541,0.88 l 0,0 c 0,0 12.7,0.088 22.402,0.266 l 0,0 c 9.362,0.173 10.292,-1.105 10.342,-1.216 l 0,0 c 1.194,-1.734 3.303,-2.798 5.798,-2.798 l 0,0 c 2.978,0 5.511,1.655 6.448,3.965 l 0,0 c 4.728,0.728 6.341,2.252 6.341,2.252 l 0,0 c 0,0 1.234,0.53 2.253,4.769 l 0,0 c 1.018,4.229 -0.842,5.746 -0.842,5.746 l 0,0 c 1.412,1.257 0.794,5.009 0,7.304 l 0,0 c -0.564,1.632 -3.673,2.369 -5.42,2.658 l 0,0 c -0.275,0.229 -0.571,0.464 -0.888,0.699 l 0,0 C 92.309,69.395 82.339,75.03 68.721,75.03 l 0,0 c -8.407,0 -16.411,-2.099 -23.856,-6.238 m -3.593,-8.019 c -0.695,2.366 0.459,4.409 0.736,4.85 l 0,0 C 50.226,71.05 59.214,73.8 68.721,73.8 l 0,0 c 13.274,0 22.976,-5.477 23.011,-5.49 l 0,0 c 2.107,-1.565 3.18,-3.022 3.104,-4.204 l 0,0 C 94.787,63.37 94.287,62.87 93.982,62.629 l 0,0 c -2.029,0.911 -13.22,5.629 -27.293,5.379 l 0,0 C 52.911,67.774 45.428,60.552 44.255,59.324 l 0,0 c -0.114,-0.017 -0.274,-0.027 -0.464,-0.027 l 0,0 c -0.857,0 -1.995,0.268 -2.519,1.476 m 6.109,-2.779 c 2.237,2.082 8.609,6.852 20.107,6.852 l 0,0 c 5.263,0 10.998,-0.998 17.063,-2.967 l 0,0 c -0.589,-0.413 -1.463,-0.947 -2.568,-1.414 l 0,0 C 80.062,59.649 59.396,57.976 49.052,57.976 l 0,0 c -0.599,0 -1.156,0.006 -1.671,0.018"
               style="fill:url(#radialGradient176);stroke:none"
               id="path194" /></g></g></g></g><g
       id="g196"><g
         id="g198"
         clip-path="url(#clipPath200)"><g
           id="g204"
           transform="translate(34.0996,43.7441)"><path
             d="m 0,0 c -2.432,0 -4.411,1.844 -4.411,4.104 0,2.263 1.979,4.104 4.411,4.104 2.432,0 4.411,-1.842 4.411,-4.104 C 4.411,1.843 2.432,0 0,0"
             style="fill:#292929;fill-opacity:1;fill-rule:nonzero;stroke:none"
             id="path206" /></g><g
           id="g208"
           transform="translate(84.6523,43.7441)"><path
             d="m 0,0 c -2.432,0 -4.41,1.844 -4.41,4.104 0,2.263 1.979,4.104 4.41,4.104 2.434,0 4.412,-1.842 4.412,-4.104 C 4.412,1.843 2.434,0 0,0"
             style="fill:#292929;fill-opacity:1;fill-rule:nonzero;stroke:none"
             id="path210" /></g><g
           id="g212"><g
             id="g214" /><g
             id="g282"><g
               clip-path="url(#clipPath216)"
               opacity="0.5"
               id="g284"><g
                 id="g286"><g
                   clip-path="url(#clipPath220)"
                   id="g288"><g
                     id="g290"><g
                       id="g292" /><g
                       mask="url(#mask242)"
                       id="g294"><g
                         id="g296" /><g
                         id="g298"><g
                           clip-path="url(#clipPath268)"
                           id="g300"><g
                             id="g302"><g
                               id="g304"><g
                                 id="g306"><g
                                   id="g308"><path
                                   d="M -41.02,85.346 35.443,-23.092 150.355,49.059 73.891,157.494 -41.02,85.346 z"
                                   style="fill:url(#linearGradient276);stroke:none"
                                   id="path310" /></g></g></g></g></g></g></g></g></g></g></g></g></g></g></g></g></svg>