<?xml version="1.0" encoding="UTF-8" standalone="no"?>
<!-- Created with Inkscape (http://www.inkscape.org/) -->

<svg
   xmlns:dc="http://purl.org/dc/elements/1.1/"
   xmlns:cc="http://creativecommons.org/ns#"
   xmlns:rdf="http://www.w3.org/1999/02/22-rdf-syntax-ns#"
   xmlns:svg="http://www.w3.org/2000/svg"
   xmlns="http://www.w3.org/2000/svg"
   xmlns:sodipodi="http://sodipodi.sourceforge.net/DTD/sodipodi-0.dtd"
   xmlns:inkscape="http://www.inkscape.org/namespaces/inkscape"
   id="svg4497"
   version="1.1"
   inkscape:version="0.48.2 r9819"
   width="151.25"
   height="151.25"
   xml:space="preserve"
   sodipodi:docname="headlights-alert.ai"><metadata
     id="metadata4503"><rdf:RDF><cc:Work
         rdf:about=""><dc:format>image/svg+xml</dc:format><dc:type
           rdf:resource="http://purl.org/dc/dcmitype/StillImage" /><dc:title></dc:title></cc:Work></rdf:RDF></metadata><defs
     id="defs4501"><linearGradient
       x1="0"
       y1="0"
       x2="1"
       y2="0"
       gradientUnits="userSpaceOnUse"
       gradientTransform="matrix(0,121.29395,121.29395,0,60.520508,-0.078125)"
       spreadMethod="pad"
       id="linearGradient4519"><stop
         style="stop-opacity:1;stop-color:#4d4d4f"
         offset="0"
         id="stop4521" /><stop
         style="stop-opacity:1;stop-color:#48484a"
         offset="0.397202"
         id="stop4523" /><stop
         style="stop-opacity:1;stop-color:#363737"
         offset="0.788696"
         id="stop4525" /><stop
         style="stop-opacity:1;stop-color:#292929"
         offset="1"
         id="stop4527" /></linearGradient><linearGradient
       x1="0"
       y1="0"
       x2="1"
       y2="0"
       gradientUnits="userSpaceOnUse"
       gradientTransform="matrix(0,112.05273,112.05273,0,60.520508,4.5410156)"
       spreadMethod="pad"
       id="linearGradient4543"><stop
         style="stop-opacity:1;stop-color:#292929"
         offset="0"
         id="stop4545" /><stop
         style="stop-opacity:1;stop-color:#363737"
         offset="0.211304"
         id="stop4547" /><stop
         style="stop-opacity:1;stop-color:#48484a"
         offset="0.602798"
         id="stop4549" /><stop
         style="stop-opacity:1;stop-color:#4d4d4f"
         offset="1"
         id="stop4551" /></linearGradient><linearGradient
       x1="0"
       y1="0"
       x2="1"
       y2="0"
       gradientUnits="userSpaceOnUse"
       gradientTransform="matrix(112.05371,0,0,-112.05371,4.4931641,88.23877)"
       spreadMethod="pad"
       id="linearGradient4567"><stop
         style="stop-opacity:1;stop-color:#292929"
         offset="0"
         id="stop4569" /><stop
         style="stop-opacity:1;stop-color:#657178"
         offset="0.130402"
         id="stop4571" /><stop
         style="stop-opacity:1;stop-color:#7e9dab"
         offset="0.266098"
         id="stop4573" /><stop
         style="stop-opacity:1;stop-color:#85bbd4"
         offset="0.378799"
         id="stop4575" /><stop
         style="stop-opacity:1;stop-color:#84cded"
         offset="0.462402"
         id="stop4577" /><stop
         style="stop-opacity:1;stop-color:#84d4f7"
         offset="0.507797"
         id="stop4579" /><stop
         style="stop-opacity:1;stop-color:#292929"
         offset="1"
         id="stop4581" /></linearGradient><linearGradient
       x1="0"
       y1="0"
       x2="1"
       y2="0"
       gradientUnits="userSpaceOnUse"
       gradientTransform="matrix(112.05371,0,0,112.05371,4.4931641,32.893555)"
       spreadMethod="pad"
       id="linearGradient4597"><stop
         style="stop-opacity:1;stop-color:#292929"
         offset="0"
         id="stop4599" /><stop
         style="stop-opacity:1;stop-color:#657178"
         offset="0.130402"
         id="stop4601" /><stop
         style="stop-opacity:1;stop-color:#7e9dab"
         offset="0.266098"
         id="stop4603" /><stop
         style="stop-opacity:1;stop-color:#85bbd4"
         offset="0.378799"
         id="stop4605" /><stop
         style="stop-opacity:1;stop-color:#84cded"
         offset="0.462402"
         id="stop4607" /><stop
         style="stop-opacity:1;stop-color:#84d4f7"
         offset="0.507797"
         id="stop4609" /><stop
         style="stop-opacity:1;stop-color:#292929"
         offset="1"
         id="stop4611" /></linearGradient><clipPath
       clipPathUnits="userSpaceOnUse"
       id="clipPath4619"><path
         d="M 2.417,58.409 26.745,64 l 1.893,1.193 -26.221,1.747 0,-8.531 z"
         id="path4621" /></clipPath><linearGradient
       x1="0"
       y1="0"
       x2="1"
       y2="0"
       gradientUnits="userSpaceOnUse"
       gradientTransform="matrix(26.22168,0,0,-26.22168,2.4169922,62.674805)"
       spreadMethod="pad"
       id="linearGradient4631"><stop
         style="stop-opacity:0;stop-color:#ffffff"
         offset="0"
         id="stop4633" /><stop
         style="stop-opacity:0.85349813;stop-color:#ffffff"
         offset="0.8535"
         id="stop4635" /><stop
         style="stop-opacity:0.85349813;stop-color:#ffffff"
         offset="0.8535"
         id="stop4637" /><stop
         style="stop-opacity:1;stop-color:#ffffff"
         offset="1"
         id="stop4639" /></linearGradient><mask
       maskUnits="userSpaceOnUse"
       x="0"
       y="0"
       width="1"
       height="1"
       id="mask4641"><g
         id="g4643"><g
           id="g4645"><g
             id="g4647"><g
               id="g4649"><path
                 d="m -32768,32767 65535,0 0,-65534 -65535,0 0,65534 z"
                 style="fill:url(#linearGradient4631);stroke:none"
                 id="path4651" /></g></g></g></g></mask><linearGradient
       x1="0"
       y1="0"
       x2="1"
       y2="0"
       gradientUnits="userSpaceOnUse"
       gradientTransform="matrix(26.22168,0,0,-26.22168,2.4169922,62.674805)"
       spreadMethod="pad"
       id="linearGradient4657"><stop
         style="stop-opacity:1;stop-color:#ffffff"
         offset="0"
         id="stop4659" /><stop
         style="stop-opacity:1;stop-color:#ffffff"
         offset="0.8535"
         id="stop4661" /><stop
         style="stop-opacity:1;stop-color:#ffffff"
         offset="1"
         id="stop4663" /></linearGradient><radialGradient
       fx="0"
       fy="0"
       cx="0"
       cy="0"
       r="1"
       gradientUnits="userSpaceOnUse"
       gradientTransform="matrix(42.603317,0,0,-42.603317,38.867187,73.749023)"
       spreadMethod="pad"
       id="radialGradient4679"><stop
         style="stop-opacity:1;stop-color:#2a7ea9"
         offset="0"
         id="stop4681" /><stop
         style="stop-opacity:1;stop-color:#2881ac"
         offset="0.0158997"
         id="stop4683" /><stop
         style="stop-opacity:1;stop-color:#2795c1"
         offset="0.144302"
         id="stop4685" /><stop
         style="stop-opacity:1;stop-color:#27a7d2"
         offset="0.280502"
         id="stop4687" /><stop
         style="stop-opacity:1;stop-color:#3bb7e0"
         offset="0.424896"
         id="stop4689" /><stop
         style="stop-opacity:1;stop-color:#56c4ee"
         offset="0.581299"
         id="stop4691" /><stop
         style="stop-opacity:1;stop-color:#67cbf3"
         offset="0.758301"
         id="stop4693" /><stop
         style="stop-opacity:1;stop-color:#6ccef5"
         offset="1"
         id="stop4695" /></radialGradient><clipPath
       clipPathUnits="userSpaceOnUse"
       id="clipPath4703"><path
         d="M 0,121 121,121 121,0 0,0 0,121 z"
         id="path4705" /></clipPath><radialGradient
       fx="0"
       fy="0"
       cx="0"
       cy="0"
       r="1"
       gradientUnits="userSpaceOnUse"
       gradientTransform="matrix(42.603317,0,0,-42.603317,38.867187,73.749023)"
       spreadMethod="pad"
       id="radialGradient4723"><stop
         style="stop-opacity:1;stop-color:#2a7ea9"
         offset="0"
         id="stop4725" /><stop
         style="stop-opacity:1;stop-color:#2881ac"
         offset="0.0158997"
         id="stop4727" /><stop
         style="stop-opacity:1;stop-color:#2795c1"
         offset="0.144302"
         id="stop4729" /><stop
         style="stop-opacity:1;stop-color:#27a7d2"
         offset="0.280502"
         id="stop4731" /><stop
         style="stop-opacity:1;stop-color:#3bb7e0"
         offset="0.424896"
         id="stop4733" /><stop
         style="stop-opacity:1;stop-color:#56c4ee"
         offset="0.581299"
         id="stop4735" /><stop
         style="stop-opacity:1;stop-color:#67cbf3"
         offset="0.758301"
         id="stop4737" /><stop
         style="stop-opacity:1;stop-color:#6ccef5"
         offset="1"
         id="stop4739" /></radialGradient><clipPath
       clipPathUnits="userSpaceOnUse"
       id="clipPath4747"><path
         d="M 2.417,54.711 3.404,44.823 23.84,53.472 23.434,55.216 2.417,54.711 z"
         id="path4749" /></clipPath><linearGradient
       x1="0"
       y1="0"
       x2="1"
       y2="0"
       gradientUnits="userSpaceOnUse"
       gradientTransform="matrix(21.422852,0,0,-21.422852,2.4169922,50.019531)"
       spreadMethod="pad"
       id="linearGradient4759"><stop
         style="stop-opacity:0;stop-color:#ffffff"
         offset="0"
         id="stop4761" /><stop
         style="stop-opacity:0.85349813;stop-color:#ffffff"
         offset="0.8535"
         id="stop4763" /><stop
         style="stop-opacity:0.85349813;stop-color:#ffffff"
         offset="0.8535"
         id="stop4765" /><stop
         style="stop-opacity:1;stop-color:#ffffff"
         offset="1"
         id="stop4767" /></linearGradient><mask
       maskUnits="userSpaceOnUse"
       x="0"
       y="0"
       width="1"
       height="1"
       id="mask4769"><g
         id="g4771"><g
           id="g4773"><g
             id="g4775"><g
               id="g4777"><path
                 d="m -32768,32767 65535,0 0,-65534 -65535,0 0,65534 z"
                 style="fill:url(#linearGradient4759);stroke:none"
                 id="path4779" /></g></g></g></g></mask><linearGradient
       x1="0"
       y1="0"
       x2="1"
       y2="0"
       gradientUnits="userSpaceOnUse"
       gradientTransform="matrix(21.422852,0,0,-21.422852,2.4169922,50.019531)"
       spreadMethod="pad"
       id="linearGradient4785"><stop
         style="stop-opacity:1;stop-color:#ffffff"
         offset="0"
         id="stop4787" /><stop
         style="stop-opacity:1;stop-color:#ffffff"
         offset="0.8535"
         id="stop4789" /><stop
         style="stop-opacity:1;stop-color:#ffffff"
         offset="1"
         id="stop4791" /></linearGradient><clipPath
       clipPathUnits="userSpaceOnUse"
       id="clipPath4799"><path
         d="M 0,121 121,121 121,0 0,0 0,121 z"
         id="path4801" /></clipPath><linearGradient
       x1="0"
       y1="0"
       x2="1"
       y2="0"
       gradientUnits="userSpaceOnUse"
       gradientTransform="matrix(21.757721,-30.284424,30.284424,21.757721,70.154297,53.71875)"
       spreadMethod="pad"
       id="linearGradient4823"><stop
         style="stop-opacity:1;stop-color:#f48335"
         offset="0"
         id="stop4825" /><stop
         style="stop-opacity:1;stop-color:#f58c35"
         offset="0.244202"
         id="stop4827" /><stop
         style="stop-opacity:1;stop-color:#f58c35"
         offset="0.244202"
         id="stop4829" /><stop
         style="stop-opacity:1;stop-color:#f9a533"
         offset="0.643906"
         id="stop4831" /><stop
         style="stop-opacity:1;stop-color:#fcbf30"
         offset="1"
         id="stop4833" /></linearGradient><clipPath
       clipPathUnits="userSpaceOnUse"
       id="clipPath4841"><path
         d="M 0,121 121,121 121,0 0,0 0,121 z"
         id="path4843" /></clipPath><linearGradient
       x1="0"
       y1="0"
       x2="1"
       y2="0"
       gradientUnits="userSpaceOnUse"
       gradientTransform="matrix(21.757721,-30.284424,30.284424,21.757721,70.154297,53.71875)"
       spreadMethod="pad"
       id="linearGradient4861"><stop
         style="stop-opacity:1;stop-color:#64b051"
         offset="0"
         id="stop4863" /><stop
         style="stop-opacity:1;stop-color:#63bb51"
         offset="0.00520325"
         id="stop4865" /><stop
         style="stop-opacity:1;stop-color:#6cbe50"
         offset="0.169296"
         id="stop4867" /><stop
         style="stop-opacity:1;stop-color:#83c44d"
         offset="0.439804"
         id="stop4869" /><stop
         style="stop-opacity:1;stop-color:#a6cf47"
         offset="0.781006"
         id="stop4871" /><stop
         style="stop-opacity:1;stop-color:#c4d83e"
         offset="1"
         id="stop4873" /></linearGradient><clipPath
       clipPathUnits="userSpaceOnUse"
       id="clipPath4881"><path
         d="M 0,121 121,121 121,0 0,0 0,121 z"
         id="path4883" /></clipPath><clipPath
       clipPathUnits="userSpaceOnUse"
       id="clipPath4897"><path
         d="m -40.8911,157.918 191.3751,0 0,-180.5801 -191.3751,0 0,180.5801 z"
         id="path4899" /></clipPath><clipPath
       clipPathUnits="userSpaceOnUse"
       id="clipPath4901"><path
         d="m 5.023,58.725 c 0,-14.813 6.051,-28.059 15.473,-38.066 4.899,40.443 39.03,71.887 80.793,71.887 1.125,0 2.17,-0.229 3.281,-0.27 C 94.354,105.562 78.94,114.595 60.894,114.595 30.049,114.596 5.023,89.575 5.023,58.725"
         id="path4903" /></clipPath><clipPath
       clipPathUnits="userSpaceOnUse"
       id="clipPath4905"><path
         d="m -40.8911,157.918 191.3751,0 0,-180.5801 -191.3751,0 0,180.5801 z"
         id="path4907" /></clipPath><clipPath
       clipPathUnits="userSpaceOnUse"
       id="clipPath4909"><path
         d="m -40.8911,157.918 191.3751,0 0,-180.5801 -191.3751,0 0,180.5801 z"
         id="path4911" /></clipPath><linearGradient
       x1="0"
       y1="0"
       x2="1"
       y2="0"
       gradientUnits="userSpaceOnUse"
       gradientTransform="matrix(38.500092,-54.596191,57.860138,36.328293,18.90625,118.47656)"
       spreadMethod="pad"
       id="linearGradient4917"><stop
         style="stop-opacity:1;stop-color:#ffffff"
         offset="0"
         id="stop4919" /><stop
         style="stop-opacity:1;stop-color:#292929"
         offset="1"
         id="stop4921" /></linearGradient><mask
       maskUnits="userSpaceOnUse"
       x="0"
       y="0"
       width="1"
       height="1"
       id="mask4923"><g
         id="g4925"><g
           clip-path="url(#clipPath4905)"
           id="g4927"><path
             d="m -40.891,157.918 191.375,0 0,-180.581 -191.375,0 0,180.581 z"
             style="fill:#000000;fill-opacity:1;fill-rule:nonzero;stroke:none"
             id="path4929" /><g
             id="g4931"><g
               id="g4933" /><g
               id="g4935"><g
                 clip-path="url(#clipPath4909)"
                 id="g4937"><g
                   id="g4939"><g
                     id="g4941"><g
                       id="g4943"><g
                         id="g4945"><path
                           d="m 5.024,58.725 c 0,-14.813 6.05,-28.059 15.472,-38.065 l 0,0 c 4.898,40.442 39.03,71.886 80.793,71.886 l 0,0 c 1.125,0 2.17,-0.228 3.281,-0.27 l 0,0 c -10.217,13.286 -25.629,22.319 -43.676,22.319 l 0,0 C 30.049,114.596 5.024,89.575 5.024,58.725"
                           style="fill:url(#linearGradient4917);stroke:none"
                           id="path4947" /></g></g></g></g></g></g></g></g></g></mask><clipPath
       clipPathUnits="userSpaceOnUse"
       id="clipPath4949"><path
         d="m -40.8911,157.918 191.3751,0 0,-180.5801 -191.3751,0 0,180.5801 z"
         id="path4951" /></clipPath><linearGradient
       x1="0"
       y1="0"
       x2="1"
       y2="0"
       gradientUnits="userSpaceOnUse"
       gradientTransform="matrix(38.500092,-54.596191,57.860138,36.328293,18.90625,118.47656)"
       spreadMethod="pad"
       id="linearGradient4957"><stop
         style="stop-opacity:1;stop-color:#ffffff"
         offset="0"
         id="stop4959" /><stop
         style="stop-opacity:1;stop-color:#ffffff"
         offset="1"
         id="stop4961" /></linearGradient></defs><sodipodi:namedview
     pagecolor="#ffffff"
     bordercolor="#666666"
     borderopacity="1"
     objecttolerance="10"
     gridtolerance="10"
     guidetolerance="10"
     inkscape:pageopacity="0"
     inkscape:pageshadow="2"
     inkscape:window-width="640"
     inkscape:window-height="480"
     id="namedview4499"
     showgrid="false"
     inkscape:zoom="1.5603306"
     inkscape:cx="75.625"
     inkscape:cy="75.625"
     inkscape:window-x="0"
     inkscape:window-y="0"
     inkscape:window-maximized="0"
     inkscape:current-layer="g4505" /><g
     id="g4505"
     inkscape:groupmode="layer"
     inkscape:label="headlights-alert"
     transform="matrix(1.25,0,0,-1.25,0,151.25)"><g
       id="g4507"><g
         id="g4509"><g
           id="g4515"><g
             id="g4517"><path
               d="M 55.367,121 C 25.576,118.493 1.914,94.451 0,64.496 l 0,0 0,-7.853 C 1.957,26 26.668,1.552 57.412,0 l 0,0 6.217,0 C 94.177,1.542 118.759,25.681 121,56.042 l 0,0 0,9.055 C 118.81,94.771 95.268,118.51 65.675,121 l 0,0 -10.308,0 z"
               style="fill:url(#linearGradient4519);stroke:none"
               id="path4529" /></g></g></g></g><g
       id="g4531"><g
         id="g4533"><g
           id="g4539"><g
             id="g4541"><path
               d="M 4.493,60.57 C 4.493,29.678 29.627,4.542 60.521,4.542 l 0,0 c 30.897,0 56.026,25.136 56.026,56.028 l 0,0 c 0,30.894 -25.129,56.025 -56.026,56.025 l 0,0 C 29.628,116.595 4.493,91.466 4.493,60.57"
               style="fill:url(#linearGradient4543);stroke:none"
               id="path4553" /></g></g></g></g><g
       id="g4555"><g
         id="g4557"><g
           id="g4563"><g
             id="g4565"><path
               d="m 4.493,60.569 c 0,-0.234 0.031,-0.452 0.037,-0.687 l 0,0 c 0.372,30.571 25.331,55.336 55.991,55.336 l 0,0 c 30.663,0 55.616,-24.765 55.99,-55.336 l 0,0 c 0.007,0.235 0.036,0.453 0.036,0.687 l 0,0 c 0,30.897 -25.129,56.026 -56.026,56.026 l 0,0 C 29.627,116.595 4.493,91.464 4.493,60.569"
               style="fill:url(#linearGradient4567);stroke:none"
               id="path4583" /></g></g></g></g><g
       id="g4585"><g
         id="g4587"><g
           id="g4593"><g
             id="g4595"><path
               d="M 60.521,5.912 C 29.861,5.912 4.902,30.675 4.53,61.25 l 0,0 C 4.524,61.016 4.493,60.796 4.493,60.562 l 0,0 C 4.493,29.663 29.627,4.537 60.521,4.537 l 0,0 c 30.897,0 56.026,25.126 56.026,56.025 l 0,0 c 0,0.234 -0.029,0.454 -0.036,0.688 l 0,0 C 116.137,30.675 91.184,5.912 60.521,5.912"
               style="fill:url(#linearGradient4597);stroke:none"
               id="path4613" /></g></g></g></g><g
       id="g4615"><g
         id="g4617"
         clip-path="url(#clipPath4619)"><g
           id="g4623"><g
             id="g4625" /><g
             id="g4653"
             mask="url(#mask4641)"><g
               id="g4655"><path
                 d="M 2.417,58.409 26.745,64 l 1.893,1.193 -26.221,1.747 0,-8.531 z"
                 style="fill:url(#linearGradient4657);stroke:none"
                 id="path4665" /></g></g></g></g></g><g
       id="g4667"><g
         id="g4669"><g
           id="g4675"><g
             id="g4677"><path
               d="M 44.857,69.001 C 31.94,68.939 24.025,63.397 21.709,58.341 l 0,0 c -0.23,-0.506 -0.39,-0.999 -0.489,-1.487 l 0,0 c -0.938,-4.573 3.312,-8.432 3.312,-9.629 l 0,0 c 0,-1.075 2.674,-1.624 3.681,-1.793 l 0,0 c 1.124,-1.943 3.438,-3.278 6.109,-3.278 l 0,0 c 2.715,0 5,0.875 6.105,2.868 l 0,0 c 1.165,0 5.54,0.882 5.54,0.882 l 0,0 c 0,0 12.7,0.086 22.404,0.265 l 0,0 c 9.361,0.17 10.292,-1.108 10.342,-1.218 l 0,0 c 1.195,-1.734 3.302,-2.797 5.799,-2.797 l 0,0 c 2.978,0 5.511,1.655 6.448,3.966 l 0,0 c 4.726,0.726 6.341,2.252 6.341,2.252 l 0,0 c 0,0 1.235,0.529 2.252,4.767 l 0,0 c 1.017,4.23 -0.844,5.749 -0.844,5.749 l 0,0 c 1.412,1.255 0.795,5.008 0,7.302 l 0,0 c -0.565,1.632 -3.673,2.369 -5.419,2.658 l 0,0 c -0.275,0.23 -0.571,0.463 -0.888,0.699 l 0,0 c -0.099,0.056 -10.07,5.692 -23.685,5.692 l 0,0 c -8.411,0 -16.416,-2.1 -23.86,-6.238 m -3.594,-8.017 c -0.695,2.365 0.46,4.408 0.736,4.849 l 0,0 c 8.219,5.425 17.207,8.175 26.718,8.175 l 0,0 c 13.271,0 22.974,-5.476 23.009,-5.489 l 0,0 c 2.108,-1.566 3.18,-3.021 3.104,-4.203 l 0,0 c -0.05,-0.735 -0.55,-1.238 -0.855,-1.478 l 0,0 c -2.03,0.912 -13.219,5.629 -27.293,5.379 l 0,0 C 52.902,67.983 45.42,60.762 44.246,59.534 l 0,0 c -0.114,-0.015 -0.274,-0.026 -0.465,-0.026 l 0,0 c -0.855,0 -1.994,0.267 -2.518,1.476 m 6.11,-2.782 c 2.236,2.084 8.609,6.85 20.109,6.85 l 0,0 c 5.262,0 10.996,-0.999 17.063,-2.968 l 0,0 C 83.955,61.673 83.08,61.138 81.976,60.67 l 0,0 C 80.055,59.858 59.387,58.186 49.043,58.186 l 0,0 c -0.598,0 -1.156,0.004 -1.67,0.016 M 80.236,48.057 c 0,2.263 1.979,4.105 4.411,4.105 l 0,0 c 2.431,0 4.412,-1.842 4.412,-4.105 l 0,0 c 0,-2.262 -1.981,-4.104 -4.412,-4.104 l 0,0 c -2.434,0 -4.411,1.842 -4.411,4.104 m -50.556,0 c 0,2.263 1.979,4.105 4.411,4.105 l 0,0 c 2.433,0 4.411,-1.842 4.411,-4.105 l 0,0 c 0,-2.262 -1.978,-4.104 -4.411,-4.104 l 0,0 c -2.432,0 -4.411,1.842 -4.411,4.104"
               style="fill:url(#radialGradient4679);stroke:none"
               id="path4697" /></g></g></g></g><g
       id="g4699"><g
         id="g4701"
         clip-path="url(#clipPath4703)"><g
           id="g4707"
           transform="translate(93.9756,62.8379)"><path
             d="m 0,0 c -2.03,0.912 -13.22,5.629 -27.294,5.379 -13.78,-0.234 -21.262,-7.455 -22.436,-8.683 -0.113,-0.015 -0.273,-0.026 -0.464,-0.026 -0.856,0 -1.994,0.267 -2.518,1.476 -0.696,2.366 0.459,4.408 0.736,4.85 8.218,5.424 17.207,8.174 26.717,8.174 13.272,0 22.975,-5.476 23.01,-5.489 C -0.142,4.115 0.931,2.661 0.854,1.478 0.805,0.743 0.305,0.24 0,0 z m -9.329,-18.885 c -2.434,0 -4.41,1.842 -4.41,4.105 0,2.262 1.978,4.104 4.41,4.104 2.432,0 4.412,-1.842 4.412,-4.104 0,-2.263 -1.98,-4.105 -4.412,-4.105 z m -35.604,14.233 c -0.598,0 -1.155,0.005 -1.67,0.016 2.236,2.084 8.609,6.85 20.11,6.85 5.262,0 10.996,-0.999 17.062,-2.968 -0.59,-0.411 -1.465,-0.946 -2.569,-1.414 -1.921,-0.811 -22.588,-2.484 -32.933,-2.484 z m -14.951,-14.233 c -2.432,0 -4.411,1.842 -4.411,4.105 0,2.262 1.979,4.104 4.411,4.104 2.432,0 4.411,-1.842 4.411,-4.104 0,-2.263 -1.979,-4.105 -4.411,-4.105 z M 4.733,-3.95 c 1.413,1.255 0.795,5.008 0,7.302 -0.564,1.632 -3.673,2.37 -5.42,2.659 -0.274,0.229 -0.57,0.462 -0.886,0.698 -0.1,0.056 -10.071,5.692 -23.686,5.692 -8.41,0 -16.416,-2.1 -23.86,-6.237 -12.916,-0.063 -20.832,-5.605 -23.148,-10.661 -0.229,-0.506 -0.389,-0.999 -0.488,-1.487 -0.938,-4.573 3.312,-8.432 3.312,-9.629 0,-1.075 2.674,-1.623 3.68,-1.793 1.125,-1.943 3.439,-3.278 6.11,-3.278 2.714,0 4.999,0.875 6.104,2.868 1.165,0 5.54,0.881 5.54,0.881 0,0 12.7,0.087 22.405,0.266 9.361,0.17 10.291,-1.107 10.341,-1.218 1.196,-1.734 3.303,-2.797 5.799,-2.797 2.979,0 5.511,1.656 6.448,3.966 4.727,0.726 6.341,2.252 6.341,2.252 0,0 1.235,0.528 2.253,4.767 1.017,4.23 -0.845,5.749 -0.845,5.749 z"
             style="fill:none;stroke:#292929;stroke-opacity:1;stroke-width:4;stroke-linecap:butt;stroke-linejoin:miter;stroke-miterlimit:10;stroke-dasharray:none"
             id="path4709" /></g></g></g><g
       id="g4711"><g
         id="g4713"><g
           id="g4719"><g
             id="g4721"><path
               d="M 44.857,69.001 C 31.94,68.939 24.025,63.397 21.709,58.341 l 0,0 c -0.23,-0.506 -0.39,-0.999 -0.489,-1.487 l 0,0 c -0.938,-4.573 3.312,-8.432 3.312,-9.629 l 0,0 c 0,-1.075 2.674,-1.624 3.681,-1.793 l 0,0 c 1.124,-1.943 3.438,-3.278 6.109,-3.278 l 0,0 c 2.715,0 5,0.875 6.105,2.868 l 0,0 c 1.165,0 5.54,0.882 5.54,0.882 l 0,0 c 0,0 12.7,0.086 22.404,0.265 l 0,0 c 9.361,0.17 10.292,-1.108 10.342,-1.218 l 0,0 c 1.195,-1.734 3.302,-2.797 5.799,-2.797 l 0,0 c 2.978,0 5.511,1.655 6.448,3.966 l 0,0 c 4.726,0.726 6.341,2.252 6.341,2.252 l 0,0 c 0,0 1.235,0.529 2.252,4.767 l 0,0 c 1.017,4.23 -0.844,5.749 -0.844,5.749 l 0,0 c 1.412,1.255 0.795,5.008 0,7.302 l 0,0 c -0.565,1.632 -3.673,2.369 -5.419,2.658 l 0,0 c -0.275,0.23 -0.571,0.463 -0.888,0.699 l 0,0 c -0.099,0.056 -10.07,5.692 -23.685,5.692 l 0,0 c -8.411,0 -16.416,-2.1 -23.86,-6.238 m -3.594,-8.017 c -0.695,2.365 0.46,4.408 0.736,4.849 l 0,0 c 8.219,5.425 17.207,8.175 26.718,8.175 l 0,0 c 13.271,0 22.974,-5.476 23.009,-5.489 l 0,0 c 2.108,-1.566 3.18,-3.021 3.104,-4.203 l 0,0 c -0.05,-0.735 -0.55,-1.238 -0.855,-1.478 l 0,0 c -2.03,0.912 -13.219,5.629 -27.293,5.379 l 0,0 C 52.902,67.983 45.42,60.762 44.246,59.534 l 0,0 c -0.114,-0.015 -0.274,-0.026 -0.465,-0.026 l 0,0 c -0.855,0 -1.994,0.267 -2.518,1.476 m 6.11,-2.782 c 2.236,2.084 8.609,6.85 20.109,6.85 l 0,0 c 5.262,0 10.996,-0.999 17.063,-2.968 l 0,0 C 83.955,61.673 83.08,61.138 81.976,60.67 l 0,0 C 80.055,59.858 59.387,58.186 49.043,58.186 l 0,0 c -0.598,0 -1.156,0.004 -1.67,0.016"
               style="fill:url(#radialGradient4723);stroke:none"
               id="path4741" /></g></g></g></g><g
       id="g4743"><g
         id="g4745"
         clip-path="url(#clipPath4747)"><g
           id="g4751"><g
             id="g4753" /><g
             id="g4781"
             mask="url(#mask4769)"><g
               id="g4783"><path
                 d="M 2.417,54.711 3.404,44.823 23.84,53.472 23.434,55.216 2.417,54.711 z"
                 style="fill:url(#linearGradient4785);stroke:none"
                 id="path4793" /></g></g></g></g></g><g
       id="g4795"><g
         id="g4797"
         clip-path="url(#clipPath4799)"><g
           id="g4803"
           transform="translate(34.0913,43.9531)"><path
             d="m 0,0 c -2.432,0 -4.411,1.842 -4.411,4.104 0,2.263 1.979,4.105 4.411,4.105 2.432,0 4.411,-1.842 4.411,-4.105 C 4.411,1.842 2.432,0 0,0"
             style="fill:#292929;fill-opacity:1;fill-rule:nonzero;stroke:none"
             id="path4805" /></g><g
           id="g4807"
           transform="translate(84.6465,43.9531)"><path
             d="m 0,0 c -2.434,0 -4.41,1.842 -4.41,4.104 0,2.263 1.978,4.105 4.41,4.105 2.432,0 4.412,-1.842 4.412,-4.105 C 4.412,1.842 2.432,0 0,0"
             style="fill:#292929;fill-opacity:1;fill-rule:nonzero;stroke:none"
             id="path4809" /></g></g></g><g
       id="g4811"><g
         id="g4813"><g
           id="g4819"><g
             id="g4821"><path
               d="m 84.529,54.725 c -0.936,-0.08 -1.261,-0.712 -1.608,-1.329 l 0,0 c -0.462,-0.82 -0.97,-1.699 -1.415,-2.484 l 0,0 C 81.365,50.662 81.229,50.433 81.1,50.205 l 0,0 c -1.406,-2.5 -2.786,-4.976 -4.219,-7.453 l 0,0 C 75.947,41.143 74.966,39.326 74.01,37.717 l 0,0 C 73.85,37.45 73.701,37.172 73.561,36.925 l 0,0 c -0.072,-0.129 -0.122,-0.24 -0.192,-0.364 l 0,0 c -0.366,-0.637 -0.753,-1.337 -1.115,-1.95 l 0,0 c -0.107,-0.183 -0.2,-0.361 -0.301,-0.535 l 0,0 c -0.242,-0.421 -0.471,-0.828 -0.705,-1.242 l 0,0 c -0.266,-0.47 -0.633,-1.033 -0.645,-1.586 l 0,0 c -0.011,-0.606 0.364,-1.129 0.729,-1.37 l 0,0 c 0.461,-0.307 1.081,-0.299 1.799,-0.299 l 0,0 23.155,0 c 0.386,0 0.718,-0.004 1.007,0.043 l 0,0 c 0.573,0.092 0.994,0.434 1.221,0.877 l 0,0 c 0.125,0.245 0.199,0.542 0.173,0.876 l 0,0 c -0.054,0.627 -0.376,1.005 -0.642,1.48 l 0,0 c -1.006,1.782 -1.991,3.516 -3.042,5.375 l 0,0 c -0.668,1.178 -1.474,2.616 -2.184,3.834 l 0,0 c -0.108,0.183 -0.186,0.353 -0.281,0.516 l 0,0 c -1.112,1.912 -2.254,3.952 -3.343,5.868 l 0,0 c -0.633,1.12 -1.294,2.26 -1.906,3.362 l 0,0 c -0.224,0.407 -0.434,0.79 -0.664,1.18 l 0,0 c -0.272,0.461 -0.514,0.976 -0.833,1.285 l 0,0 c -0.256,0.245 -0.66,0.455 -1.129,0.455 l 0,0 c -0.044,0 -0.089,-0.002 -0.134,-0.005"
               style="fill:url(#linearGradient4823);stroke:none"
               id="path4835" /></g></g></g></g><g
       id="g4837"><g
         id="g4839"
         clip-path="url(#clipPath4841)"><g
           id="g4845"
           transform="translate(98.5137,30.499)"><path
             d="M 0,0 C -0.227,-0.442 -0.647,-0.785 -1.221,-0.877 -1.51,-0.924 -1.842,-0.921 -2.229,-0.921 l -23.154,0 c -0.718,0 -1.338,-0.007 -1.799,0.3 -0.365,0.241 -0.74,0.765 -0.728,1.37 0.012,0.553 0.379,1.116 0.644,1.586 0.235,0.414 0.463,0.82 0.705,1.242 0.101,0.174 0.194,0.352 0.301,0.535 0.362,0.614 0.75,1.313 1.115,1.95 0.071,0.124 0.12,0.236 0.192,0.364 0.14,0.247 0.29,0.525 0.449,0.792 0.957,1.609 1.938,3.426 2.871,5.035 1.434,2.476 2.814,4.953 4.219,7.453 0.129,0.229 0.266,0.457 0.406,0.707 0.445,0.785 0.953,1.664 1.415,2.484 0.347,0.617 0.672,1.249 1.609,1.329 0.525,0.045 0.982,-0.181 1.262,-0.45 0.32,-0.309 0.562,-0.824 0.833,-1.285 0.231,-0.389 0.441,-0.773 0.664,-1.179 0.613,-1.103 1.273,-2.244 1.907,-3.363 1.088,-1.916 2.23,-3.957 3.342,-5.868 0.095,-0.163 0.173,-0.333 0.281,-0.516 0.711,-1.217 1.516,-2.656 2.184,-3.834 C -2.459,5.872 -1.475,4.138 -0.469,2.355 -0.203,1.881 0.119,1.503 0.173,0.876 0.199,0.542 0.125,0.245 0,0 z"
             style="fill:none;stroke:#373536;stroke-opacity:1;stroke-width:6;stroke-linecap:butt;stroke-linejoin:miter;stroke-miterlimit:10;stroke-dasharray:none"
             id="path4847" /></g></g></g><g
       id="g4849"><g
         id="g4851"><g
           id="g4857"><g
             id="g4859"><path
               d="m 84.529,54.725 c -0.936,-0.08 -1.261,-0.712 -1.608,-1.329 l 0,0 c -0.462,-0.82 -0.97,-1.699 -1.415,-2.484 l 0,0 C 81.365,50.662 81.229,50.433 81.1,50.205 l 0,0 c -1.406,-2.5 -2.786,-4.976 -4.219,-7.453 l 0,0 C 75.947,41.143 74.966,39.326 74.01,37.717 l 0,0 C 73.85,37.45 73.701,37.172 73.561,36.925 l 0,0 c -0.072,-0.129 -0.122,-0.24 -0.192,-0.364 l 0,0 c -0.366,-0.637 -0.753,-1.337 -1.115,-1.95 l 0,0 c -0.107,-0.183 -0.2,-0.361 -0.301,-0.535 l 0,0 c -0.242,-0.421 -0.471,-0.828 -0.705,-1.242 l 0,0 c -0.266,-0.47 -0.633,-1.033 -0.645,-1.586 l 0,0 c -0.011,-0.606 0.364,-1.129 0.729,-1.37 l 0,0 c 0.461,-0.307 1.081,-0.299 1.799,-0.299 l 0,0 23.155,0 c 0.386,0 0.718,-0.004 1.007,0.043 l 0,0 c 0.573,0.092 0.994,0.434 1.221,0.877 l 0,0 c 0.125,0.245 0.199,0.542 0.173,0.876 l 0,0 c -0.054,0.627 -0.376,1.005 -0.642,1.48 l 0,0 c -1.006,1.782 -1.991,3.516 -3.042,5.375 l 0,0 c -0.668,1.178 -1.474,2.616 -2.184,3.834 l 0,0 c -0.108,0.183 -0.186,0.353 -0.281,0.516 l 0,0 c -1.112,1.912 -2.254,3.952 -3.343,5.868 l 0,0 c -0.633,1.12 -1.294,2.26 -1.906,3.362 l 0,0 c -0.224,0.407 -0.434,0.79 -0.664,1.18 l 0,0 c -0.272,0.461 -0.514,0.976 -0.833,1.285 l 0,0 c -0.256,0.245 -0.66,0.455 -1.129,0.455 l 0,0 c -0.044,0 -0.089,-0.002 -0.134,-0.005"
               style="fill:url(#linearGradient4861);stroke:none"
               id="path4875" /></g></g></g></g><g
       id="g4877"><g
         id="g4879"
         clip-path="url(#clipPath4881)"><g
           id="g4885"
           transform="translate(85.9609,46.6709)"><path
             d="m 0,0 c 0.111,-0.7 0.064,-1.47 0.064,-2.271 l 0,-5.804 c 0,-0.71 -0.023,-1.09 -0.363,-1.457 -0.299,-0.321 -0.844,-0.582 -1.478,-0.386 -0.42,0.215 -0.778,0.521 -0.877,1.028 -0.065,0.318 -0.024,0.713 -0.024,1.094 l 0,6.576 c 0,0.506 -0.029,0.954 0.086,1.285 0.223,0.372 0.496,0.689 0.987,0.793 C -0.732,0.995 -0.268,0.54 0,0"
             style="fill:#373536;fill-opacity:1;fill-rule:nonzero;stroke:none"
             id="path4887" /></g><g
           id="g4889"
           transform="translate(84.5039,35.5986)"><path
             d="m 0,0 c -0.622,-0.057 -1.057,-0.499 -1.135,-1.073 -0.045,-0.336 0.057,-0.598 0.151,-0.771 0.158,-0.292 0.513,-0.6 0.793,-0.663 0.375,-0.086 0.783,0.033 0.984,0.149 0.283,0.163 0.557,0.504 0.619,0.858 0.053,0.289 -0.018,0.622 -0.104,0.79 C 1.059,-0.226 0.68,0.06 0,0"
             style="fill:#373536;fill-opacity:1;fill-rule:nonzero;stroke:none"
             id="path4891" /></g><g
           id="g4893"><g
             id="g4895" /><g
             id="g4963"><g
               clip-path="url(#clipPath4897)"
               opacity="0.5"
               id="g4965"><g
                 id="g4967"><g
                   clip-path="url(#clipPath4901)"
                   id="g4969"><g
                     id="g4971"><g
                       id="g4973" /><g
                       mask="url(#mask4923)"
                       id="g4975"><g
                         id="g4977" /><g
                         id="g4979"><g
                           clip-path="url(#clipPath4949)"
                           id="g4981"><g
                             id="g4983"><g
                               id="g4985"><g
                                 id="g4987"><g
                                   id="g4989"><path
                                   d="M 74.021,157.918 -40.892,85.769 35.572,-22.662 150.486,49.487 74.021,157.918 z"
                                   style="fill:url(#linearGradient4957);stroke:none"
                                   id="path4991" /></g></g></g></g></g></g></g></g></g></g></g></g></g></g></g></g></svg>