<?xml version="1.0" encoding="UTF-8" standalone="no"?>
<!-- Created with Inkscape (http://www.inkscape.org/) -->

<svg
   xmlns:dc="http://purl.org/dc/elements/1.1/"
   xmlns:cc="http://creativecommons.org/ns#"
   xmlns:rdf="http://www.w3.org/1999/02/22-rdf-syntax-ns#"
   xmlns:svg="http://www.w3.org/2000/svg"
   xmlns="http://www.w3.org/2000/svg"
   xmlns:sodipodi="http://sodipodi.sourceforge.net/DTD/sodipodi-0.dtd"
   xmlns:inkscape="http://www.inkscape.org/namespaces/inkscape"
   id="svg4183"
   version="1.1"
   inkscape:version="0.48.2 r9819"
   width="151.25"
   height="151.25"
   xml:space="preserve"
   sodipodi:docname="horn-on.ai"><metadata
     id="metadata4189"><rdf:RDF><cc:Work
         rdf:about=""><dc:format>image/svg+xml</dc:format><dc:type
           rdf:resource="http://purl.org/dc/dcmitype/StillImage" /><dc:title></dc:title></cc:Work></rdf:RDF></metadata><defs
     id="defs4187"><linearGradient
       x1="0"
       y1="0"
       x2="1"
       y2="0"
       gradientUnits="userSpaceOnUse"
       gradientTransform="matrix(0,121.29248,-121.29248,0,60.657227,-0.1464844)"
       spreadMethod="pad"
       id="linearGradient4205"><stop
         style="stop-opacity:1;stop-color:#4d4d4f"
         offset="0"
         id="stop4207" /><stop
         style="stop-opacity:1;stop-color:#48484a"
         offset="0.397202"
         id="stop4209" /><stop
         style="stop-opacity:1;stop-color:#363737"
         offset="0.788696"
         id="stop4211" /><stop
         style="stop-opacity:1;stop-color:#292929"
         offset="1"
         id="stop4213" /></linearGradient><linearGradient
       x1="0"
       y1="0"
       x2="1"
       y2="0"
       gradientUnits="userSpaceOnUse"
       gradientTransform="matrix(0,112.05225,-112.05225,0,60.65625,4.4707031)"
       spreadMethod="pad"
       id="linearGradient4229"><stop
         style="stop-opacity:1;stop-color:#292929"
         offset="0"
         id="stop4231" /><stop
         style="stop-opacity:1;stop-color:#363737"
         offset="0.211304"
         id="stop4233" /><stop
         style="stop-opacity:1;stop-color:#48484a"
         offset="0.602798"
         id="stop4235" /><stop
         style="stop-opacity:1;stop-color:#4d4d4f"
         offset="1"
         id="stop4237" /></linearGradient><linearGradient
       x1="0"
       y1="0"
       x2="1"
       y2="0"
       gradientUnits="userSpaceOnUse"
       gradientTransform="matrix(112.05859,0,0,112.05859,4.6259766,88.168945)"
       spreadMethod="pad"
       id="linearGradient4253"><stop
         style="stop-opacity:1;stop-color:#292929"
         offset="0"
         id="stop4255" /><stop
         style="stop-opacity:1;stop-color:#657178"
         offset="0.130402"
         id="stop4257" /><stop
         style="stop-opacity:1;stop-color:#7e9dab"
         offset="0.266098"
         id="stop4259" /><stop
         style="stop-opacity:1;stop-color:#85bbd4"
         offset="0.378799"
         id="stop4261" /><stop
         style="stop-opacity:1;stop-color:#84cded"
         offset="0.462402"
         id="stop4263" /><stop
         style="stop-opacity:1;stop-color:#84d4f7"
         offset="0.507797"
         id="stop4265" /><stop
         style="stop-opacity:1;stop-color:#292929"
         offset="1"
         id="stop4267" /></linearGradient><linearGradient
       x1="0"
       y1="0"
       x2="1"
       y2="0"
       gradientUnits="userSpaceOnUse"
       gradientTransform="matrix(112.05859,0,0,-112.05859,4.6259766,32.824219)"
       spreadMethod="pad"
       id="linearGradient4283"><stop
         style="stop-opacity:1;stop-color:#292929"
         offset="0"
         id="stop4285" /><stop
         style="stop-opacity:1;stop-color:#657178"
         offset="0.130402"
         id="stop4287" /><stop
         style="stop-opacity:1;stop-color:#7e9dab"
         offset="0.266098"
         id="stop4289" /><stop
         style="stop-opacity:1;stop-color:#85bbd4"
         offset="0.378799"
         id="stop4291" /><stop
         style="stop-opacity:1;stop-color:#84cded"
         offset="0.462402"
         id="stop4293" /><stop
         style="stop-opacity:1;stop-color:#84d4f7"
         offset="0.507797"
         id="stop4295" /><stop
         style="stop-opacity:1;stop-color:#292929"
         offset="1"
         id="stop4297" /></linearGradient><radialGradient
       fx="0"
       fy="0"
       cx="0"
       cy="0"
       r="1"
       gradientUnits="userSpaceOnUse"
       gradientTransform="matrix(72.24968,0,0,72.24968,37.044922,99.124023)"
       spreadMethod="pad"
       id="radialGradient4313"><stop
         style="stop-opacity:1;stop-color:#2a7ea9"
         offset="0"
         id="stop4315" /><stop
         style="stop-opacity:1;stop-color:#2881ac"
         offset="0.0158997"
         id="stop4317" /><stop
         style="stop-opacity:1;stop-color:#2795c1"
         offset="0.144302"
         id="stop4319" /><stop
         style="stop-opacity:1;stop-color:#27a7d2"
         offset="0.280502"
         id="stop4321" /><stop
         style="stop-opacity:1;stop-color:#3bb7e0"
         offset="0.424896"
         id="stop4323" /><stop
         style="stop-opacity:1;stop-color:#56c4ee"
         offset="0.581299"
         id="stop4325" /><stop
         style="stop-opacity:1;stop-color:#67cbf3"
         offset="0.758301"
         id="stop4327" /><stop
         style="stop-opacity:1;stop-color:#6ccef5"
         offset="1"
         id="stop4329" /></radialGradient><clipPath
       clipPathUnits="userSpaceOnUse"
       id="clipPath4337"><path
         d="M 0,121 121,121 121,0 0,0 0,121 z"
         id="path4339" /></clipPath><radialGradient
       fx="0"
       fy="0"
       cx="0"
       cy="0"
       r="1"
       gradientUnits="userSpaceOnUse"
       gradientTransform="matrix(72.24968,0,0,72.24968,37.044922,99.124023)"
       spreadMethod="pad"
       id="radialGradient4357"><stop
         style="stop-opacity:1;stop-color:#2a7ea9"
         offset="0"
         id="stop4359" /><stop
         style="stop-opacity:1;stop-color:#2881ac"
         offset="0.0158997"
         id="stop4361" /><stop
         style="stop-opacity:1;stop-color:#2795c1"
         offset="0.144302"
         id="stop4363" /><stop
         style="stop-opacity:1;stop-color:#27a7d2"
         offset="0.280502"
         id="stop4365" /><stop
         style="stop-opacity:1;stop-color:#3bb7e0"
         offset="0.424896"
         id="stop4367" /><stop
         style="stop-opacity:1;stop-color:#56c4ee"
         offset="0.581299"
         id="stop4369" /><stop
         style="stop-opacity:1;stop-color:#67cbf3"
         offset="0.758301"
         id="stop4371" /><stop
         style="stop-opacity:1;stop-color:#6ccef5"
         offset="1"
         id="stop4373" /></radialGradient><clipPath
       clipPathUnits="userSpaceOnUse"
       id="clipPath4381"><path
         d="M 0,121 121,121 121,0 0,0 0,121 z"
         id="path4383" /></clipPath><clipPath
       clipPathUnits="userSpaceOnUse"
       id="clipPath4401"><path
         d="m -40.4053,158.232 191.3853,0 0,-180.5797 -191.3853,0 0,180.5797 z"
         id="path4403" /></clipPath><clipPath
       clipPathUnits="userSpaceOnUse"
       id="clipPath4405"><path
         d="m 5.507,59.04 c 0,-14.811 6.05,-28.06 15.472,-38.065 4.899,40.442 39.036,71.886 80.807,71.886 1.127,0 2.17,-0.229 3.281,-0.271 -10.216,13.286 -25.629,22.319 -43.675,22.319 -30.858,0 -55.885,-25.021 -55.885,-55.869"
         id="path4407" /></clipPath><clipPath
       clipPathUnits="userSpaceOnUse"
       id="clipPath4409"><path
         d="m -40.4053,158.232 191.3853,0 0,-180.5797 -191.3853,0 0,180.5797 z"
         id="path4411" /></clipPath><clipPath
       clipPathUnits="userSpaceOnUse"
       id="clipPath4413"><path
         d="m -40.4053,158.232 191.3853,0 0,-180.5797 -191.3853,0 0,180.5797 z"
         id="path4415" /></clipPath><linearGradient
       x1="0"
       y1="0"
       x2="1"
       y2="0"
       gradientUnits="userSpaceOnUse"
       gradientTransform="matrix(38.51236,-54.613586,57.878555,36.339859,19.40625,118.82031)"
       spreadMethod="pad"
       id="linearGradient4421"><stop
         style="stop-opacity:1;stop-color:#ffffff"
         offset="0"
         id="stop4423" /><stop
         style="stop-opacity:1;stop-color:#292929"
         offset="1"
         id="stop4425" /></linearGradient><mask
       maskUnits="userSpaceOnUse"
       x="0"
       y="0"
       width="1"
       height="1"
       id="mask4427"><g
         id="g4429"><g
           clip-path="url(#clipPath4409)"
           id="g4431"><path
             d="m -40.405,158.232 191.386,0 0,-180.58 -191.386,0 0,180.58 z"
             style="fill:#000000;fill-opacity:1;fill-rule:nonzero;stroke:none"
             id="path4433" /><g
             id="g4435"><g
               id="g4437" /><g
               id="g4439"><g
                 clip-path="url(#clipPath4413)"
                 id="g4441"><g
                   id="g4443"><g
                     id="g4445"><g
                       id="g4447"><g
                         id="g4449"><path
                           d="m 5.507,59.04 c 0,-14.811 6.05,-28.059 15.473,-38.065 l 0,0 c 4.899,40.442 39.035,71.886 80.806,71.886 l 0,0 c 1.127,0 2.17,-0.229 3.282,-0.271 l 0,0 c -10.217,13.286 -25.63,22.319 -43.676,22.319 l 0,0 C 30.534,114.909 5.507,89.887 5.507,59.04"
                           style="fill:url(#linearGradient4421);stroke:none"
                           id="path4451" /></g></g></g></g></g></g></g></g></g></mask><clipPath
       clipPathUnits="userSpaceOnUse"
       id="clipPath4453"><path
         d="m -40.4053,158.232 191.3853,0 0,-180.5797 -191.3853,0 0,180.5797 z"
         id="path4455" /></clipPath><linearGradient
       x1="0"
       y1="0"
       x2="1"
       y2="0"
       gradientUnits="userSpaceOnUse"
       gradientTransform="matrix(38.51236,-54.613586,57.878555,36.339859,19.40625,118.82031)"
       spreadMethod="pad"
       id="linearGradient4461"><stop
         style="stop-opacity:1;stop-color:#ffffff"
         offset="0"
         id="stop4463" /><stop
         style="stop-opacity:1;stop-color:#ffffff"
         offset="1"
         id="stop4465" /></linearGradient></defs><sodipodi:namedview
     pagecolor="#ffffff"
     bordercolor="#666666"
     borderopacity="1"
     objecttolerance="10"
     gridtolerance="10"
     guidetolerance="10"
     inkscape:pageopacity="0"
     inkscape:pageshadow="2"
     inkscape:window-width="640"
     inkscape:window-height="480"
     id="namedview4185"
     showgrid="false"
     inkscape:zoom="1.5603306"
     inkscape:cx="75.625"
     inkscape:cy="75.625"
     inkscape:window-x="0"
     inkscape:window-y="0"
     inkscape:window-maximized="0"
     inkscape:current-layer="g4191" /><g
     id="g4191"
     inkscape:groupmode="layer"
     inkscape:label="horn-on"
     transform="matrix(1.25,0,0,-1.25,0,151.25)"><g
       id="g4193"><g
         id="g4195"><g
           id="g4201"><g
             id="g4203"><path
               d="M 56.407,121 C 24.895,118.818 0.008,92.563 0.008,60.5 l 0,0 C 0.008,28.429 24.895,2.181 56.406,0 l 0,0 8.503,0 C 94.393,2.041 118.07,25.147 121,54.378 l 0,0 0,12.242 C 118.069,95.847 94.391,118.96 64.905,121 l 0,0 -8.498,0 z"
               style="fill:url(#linearGradient4205);stroke:none"
               id="path4215" /></g></g></g></g><g
       id="g4217"><g
         id="g4219"><g
           id="g4225"><g
             id="g4227"><path
               d="m 4.627,60.499 c 0,-30.892 25.133,-56.03 56.03,-56.03 l 0,0 c 30.9,0 56.029,25.138 56.028,56.03 l 0,0 c 0,30.892 -25.129,56.023 -56.028,56.023 l 0,0 c -30.896,0 -56.03,-25.128 -56.03,-56.023"
               style="fill:url(#linearGradient4229);stroke:none"
               id="path4239" /></g></g></g></g><g
       id="g4241"><g
         id="g4243"><g
           id="g4249"><g
             id="g4251"><path
               d="m 4.627,60.5 c 0,-0.234 0.031,-0.453 0.036,-0.688 l 0,0 c 0.373,30.57 25.332,55.337 55.994,55.337 l 0,0 c 30.664,0 55.618,-24.767 55.992,-55.337 l 0,0 c 0.006,0.234 0.036,0.453 0.036,0.688 l 0,0 c 0,30.897 -25.129,56.026 -56.028,56.026 l 0,0 C 29.76,116.526 4.627,91.393 4.627,60.5"
               style="fill:url(#linearGradient4253);stroke:none"
               id="path4269" /></g></g></g></g><g
       id="g4271"><g
         id="g4273"><g
           id="g4279"><g
             id="g4281"><path
               d="M 60.657,5.842 C 29.995,5.842 5.036,30.604 4.663,61.179 l 0,0 C 4.658,60.947 4.627,60.725 4.627,60.493 l 0,0 C 4.627,29.595 29.76,4.468 60.657,4.468 l 0,0 c 30.899,0 56.028,25.127 56.028,56.025 l 0,0 c 0,0.232 -0.03,0.454 -0.036,0.686 l 0,0 C 116.275,30.605 91.321,5.842 60.657,5.842"
               style="fill:url(#linearGradient4283);stroke:none"
               id="path4299" /></g></g></g></g><g
       id="g4301"><g
         id="g4303"><g
           id="g4309"><g
             id="g4311"><path
               d="m 60.907,94.573 c -2.735,-0.13 -5.195,-0.396 -7.44,-1.006 l 0,0 C 51.235,92.958 49.205,92.246 47.295,91.33 l 0,0 c -3.806,-1.823 -6.947,-4.214 -9.732,-7.054 l 0,0 C 34.74,81.395 32.579,78.158 30.857,74.198 l 0,0 c -0.837,-1.921 -1.55,-4.053 -2.017,-6.36 l 0,0 C 28.363,65.482 28.178,62.89 28.178,60.152 l 0,0 c 0,-2.619 0.441,-5.131 1.01,-7.369 l 0,0 c 1.684,-6.648 5.045,-11.898 9.257,-15.938 l 0,0 c 4.339,-4.152 9.568,-7.156 16.472,-8.721 l 0,0 c 2.339,-0.531 4.92,-0.693 7.722,-0.693 l 0,0 c 2.55,0 5.048,0.474 7.338,1.039 l 0,0 c 6.684,1.651 11.93,5.035 15.969,9.228 l 0,0 c 2.777,2.886 4.963,6.173 6.707,10.078 l 0,0 c 1.758,3.935 2.707,8.505 2.707,14.077 l 0,0 c 0,1.292 -0.135,2.61 -0.344,3.842 l 0,0 c -0.209,1.216 -0.371,2.4 -0.664,3.527 l 0,0 c -1.174,4.513 -3.034,8.207 -5.353,11.432 l 0,0 c -2.334,3.248 -5.209,6.027 -8.535,8.252 l 0,0 c -4.18,2.792 -9.125,4.885 -15.465,5.542 l 0,0 c -0.934,0.097 -2.021,0.149 -3.008,0.149 l 0,0 c -0.381,0 -0.748,-0.008 -1.084,-0.024 M 45.374,79.614 c 1.889,1.734 4.107,3.106 6.582,4.189 l 0,0 c 1.259,0.55 2.611,1.015 4.031,1.355 l 0,0 c 1.47,0.352 3.158,0.601 4.856,0.662 l 0,0 c 3.622,0.125 6.906,-0.556 9.668,-1.575 l 0,0 c 2.738,-1.013 5.127,-2.509 7.12,-4.159 l 0,0 c 3.066,-2.537 5.53,-5.797 7.147,-9.793 l 0,0 c 0.491,-1.219 0.922,-2.536 1.174,-3.933 l 0,0 c -1.137,0.542 -4.778,1.441 -7.238,2.019 l 0,0 c -4.245,3.76 -15.412,4.435 -16.813,4.502 l 0,0 -0.561,-0.002 C 59.957,72.814 48.495,72.122 44.39,68.221 l 0,0 c -2.328,-0.525 -5.806,-1.364 -6.828,-1.895 l 0,0 c 1.211,5.709 4.16,9.931 7.812,13.288 M 68.523,43.021 c 0.359,1.575 5.373,8.167 7.45,9.956 l 0,0 c 0.981,0.848 3.312,2.061 5.637,3.184 l 0,0 c 0.689,0.292 1.375,0.592 2.066,0.877 l 0,0 c 0.868,0.361 1.746,0.729 2.614,1.105 l 0,0 c 0.024,0.006 0.029,-0.015 0.032,-0.031 l 0,0 c 0.024,-0.783 -0.125,-1.556 -0.284,-2.272 l 0,0 C 84.62,49.377 81.146,44.736 76.717,41.256 l 0,0 c -0.746,-0.584 -1.55,-1.093 -2.363,-1.604 l 0,0 c -0.275,-0.173 -0.587,-0.275 -0.882,-0.441 l 0,0 c -1.817,-1.02 -3.872,-1.838 -6.12,-2.328 l 0,0 c 0.307,2.617 0.909,4.986 1.171,6.138 m -24.502,0.724 c -1.761,1.761 -3.266,3.802 -4.442,6.142 l 0,0 c -0.866,1.728 -1.603,3.73 -2.078,5.856 l 0,0 c -0.162,0.728 -0.217,1.517 -0.379,2.3 l 0,0 c 0.019,0.045 0.052,0.077 0.097,0.096 l 0,0 0.062,0 c 1.77,-0.78 3.522,-1.524 5.269,-2.264 l 0,0 c 2.121,-1.039 4.151,-2.125 5.051,-2.898 l 0,0 c 2.077,-1.79 7.092,-8.383 7.449,-9.958 l 0,0 c 0.261,-1.146 0.863,-3.511 1.17,-6.12 l 0,0 c -5.161,1.124 -9.09,3.735 -12.199,6.846"
               style="fill:url(#radialGradient4313);stroke:none"
               id="path4331" /></g></g></g></g><g
       id="g4333"><g
         id="g4335"
         clip-path="url(#clipPath4337)"><g
           id="g4341"
           transform="translate(86.0381,55.8398)"><path
             d="m 0,0 c -1.418,-6.463 -4.893,-11.104 -9.321,-14.584 -0.746,-0.584 -1.55,-1.094 -2.364,-1.604 -0.274,-0.172 -0.586,-0.275 -0.88,-0.441 -1.818,-1.019 -3.873,-1.838 -6.122,-2.328 0.308,2.617 0.911,4.986 1.172,6.138 0.359,1.575 5.373,8.167 7.45,9.956 0.981,0.847 3.311,2.061 5.637,3.184 0.689,0.292 1.375,0.592 2.066,0.877 0.868,0.362 1.746,0.73 2.614,1.105 C 0.275,2.31 0.281,2.288 0.283,2.272 0.308,1.489 0.158,0.716 0,0 z m -42.018,-12.095 c -1.761,1.761 -3.266,3.802 -4.441,6.142 -0.867,1.728 -1.603,3.729 -2.078,5.856 -0.162,0.729 -0.217,1.517 -0.379,2.3 0.019,0.045 0.051,0.077 0.096,0.096 l 0.062,0 c 1.771,-0.78 3.523,-1.524 5.27,-2.264 2.121,-1.039 4.151,-2.125 5.051,-2.898 2.077,-1.79 7.092,-8.383 7.449,-9.957 0.261,-1.147 0.862,-3.512 1.17,-6.12 -5.161,1.124 -9.09,3.734 -12.2,6.845 z m 1.354,35.869 c 1.888,1.735 4.107,3.106 6.582,4.189 1.259,0.551 2.611,1.015 4.031,1.355 1.469,0.352 3.158,0.601 4.856,0.661 3.622,0.125 6.906,-0.554 9.669,-1.575 2.737,-1.011 5.126,-2.508 7.119,-4.158 3.065,-2.537 5.53,-5.797 7.147,-9.793 0.49,-1.219 0.922,-2.535 1.174,-3.933 -1.137,0.543 -4.778,1.442 -7.238,2.019 -4.245,3.76 -15.411,4.435 -16.813,4.502 l -0.561,-0.002 c -1.383,-0.065 -12.845,-0.758 -16.95,-4.658 -2.328,-0.525 -5.807,-1.364 -6.828,-1.895 1.21,5.709 4.16,9.931 7.812,13.288 z M 8.978,9.855 c -0.209,1.216 -0.372,2.4 -0.664,3.527 -1.174,4.514 -3.035,8.207 -5.353,11.432 -2.334,3.249 -5.209,6.027 -8.535,8.251 -4.18,2.793 -9.124,4.886 -15.465,5.543 -1.295,0.134 -2.885,0.183 -4.092,0.125 -2.735,-0.129 -5.196,-0.396 -7.44,-1.006 -2.232,-0.609 -4.262,-1.321 -6.172,-2.237 -3.806,-1.823 -6.947,-4.214 -9.732,-7.053 -2.823,-2.881 -4.984,-6.119 -6.707,-10.079 -0.836,-1.92 -1.549,-4.052 -2.016,-6.36 -0.477,-2.355 -0.662,-4.947 -0.662,-7.685 0,-2.62 0.441,-5.132 1.009,-7.37 1.685,-6.648 5.046,-11.898 9.258,-15.938 4.339,-4.151 9.568,-7.155 16.472,-8.721 2.339,-0.531 4.92,-0.693 7.722,-0.693 2.549,0 5.048,0.474 7.337,1.039 6.685,1.651 11.931,5.035 15.97,9.228 2.777,2.886 4.963,6.173 6.707,10.078 1.758,3.935 2.707,8.505 2.707,14.077 0,1.292 -0.135,2.61 -0.344,3.842 z"
             style="fill:none;stroke:#292929;stroke-opacity:1;stroke-width:4;stroke-linecap:butt;stroke-linejoin:miter;stroke-miterlimit:10;stroke-dasharray:none"
             id="path4343" /></g></g></g><g
       id="g4345"><g
         id="g4347"><g
           id="g4353"><g
             id="g4355"><path
               d="m 60.907,94.573 c -2.735,-0.13 -5.195,-0.396 -7.44,-1.006 l 0,0 C 51.235,92.958 49.205,92.246 47.295,91.33 l 0,0 c -3.806,-1.823 -6.947,-4.214 -9.732,-7.054 l 0,0 C 34.74,81.395 32.579,78.158 30.857,74.198 l 0,0 c -0.837,-1.921 -1.55,-4.053 -2.017,-6.36 l 0,0 C 28.363,65.482 28.178,62.89 28.178,60.152 l 0,0 c 0,-2.619 0.441,-5.131 1.01,-7.369 l 0,0 c 1.684,-6.648 5.045,-11.898 9.257,-15.938 l 0,0 c 4.339,-4.152 9.568,-7.156 16.472,-8.721 l 0,0 c 2.339,-0.531 4.92,-0.693 7.722,-0.693 l 0,0 c 2.55,0 5.048,0.474 7.338,1.039 l 0,0 c 6.684,1.651 11.93,5.035 15.969,9.228 l 0,0 c 2.777,2.886 4.963,6.173 6.707,10.078 l 0,0 c 1.758,3.935 2.707,8.505 2.707,14.077 l 0,0 c 0,1.292 -0.135,2.61 -0.344,3.842 l 0,0 c -0.209,1.216 -0.371,2.4 -0.664,3.527 l 0,0 c -1.174,4.513 -3.034,8.207 -5.353,11.432 l 0,0 c -2.334,3.248 -5.209,6.027 -8.535,8.252 l 0,0 c -4.18,2.792 -9.125,4.885 -15.465,5.542 l 0,0 c -0.934,0.097 -2.021,0.149 -3.008,0.149 l 0,0 c -0.381,0 -0.748,-0.008 -1.084,-0.024 M 45.374,79.614 c 1.889,1.734 4.107,3.106 6.582,4.189 l 0,0 c 1.259,0.55 2.611,1.015 4.031,1.355 l 0,0 c 1.47,0.352 3.158,0.601 4.856,0.662 l 0,0 c 3.622,0.125 6.906,-0.556 9.668,-1.575 l 0,0 c 2.738,-1.013 5.127,-2.509 7.12,-4.159 l 0,0 c 3.066,-2.537 5.53,-5.797 7.147,-9.793 l 0,0 c 0.491,-1.219 0.922,-2.536 1.174,-3.933 l 0,0 c -1.137,0.542 -4.778,1.441 -7.238,2.019 l 0,0 c -4.245,3.76 -15.412,4.435 -16.813,4.502 l 0,0 -0.561,-0.002 C 59.957,72.814 48.495,72.122 44.39,68.221 l 0,0 c -2.328,-0.525 -5.806,-1.364 -6.828,-1.895 l 0,0 c 1.211,5.709 4.16,9.931 7.812,13.288 M 68.523,43.021 c 0.359,1.575 5.373,8.167 7.45,9.956 l 0,0 c 0.981,0.848 3.312,2.061 5.637,3.184 l 0,0 c 0.689,0.292 1.375,0.592 2.066,0.877 l 0,0 c 0.868,0.361 1.746,0.729 2.614,1.105 l 0,0 c 0.024,0.006 0.029,-0.015 0.032,-0.031 l 0,0 c 0.024,-0.783 -0.125,-1.556 -0.284,-2.272 l 0,0 C 84.62,49.377 81.146,44.736 76.717,41.256 l 0,0 c -0.746,-0.584 -1.55,-1.093 -2.363,-1.604 l 0,0 c -0.275,-0.173 -0.587,-0.275 -0.882,-0.441 l 0,0 c -1.817,-1.02 -3.872,-1.838 -6.12,-2.328 l 0,0 c 0.307,2.617 0.909,4.986 1.171,6.138 m -24.502,0.724 c -1.761,1.761 -3.266,3.802 -4.442,6.142 l 0,0 c -0.866,1.728 -1.603,3.73 -2.078,5.856 l 0,0 c -0.162,0.728 -0.217,1.517 -0.379,2.3 l 0,0 c 0.019,0.045 0.052,0.077 0.097,0.096 l 0,0 0.062,0 c 1.77,-0.78 3.522,-1.524 5.269,-2.264 l 0,0 c 2.121,-1.039 4.151,-2.125 5.051,-2.898 l 0,0 c 2.077,-1.79 7.092,-8.383 7.449,-9.958 l 0,0 c 0.261,-1.146 0.863,-3.511 1.17,-6.12 l 0,0 c -5.161,1.124 -9.09,3.735 -12.199,6.846"
               style="fill:url(#radialGradient4357);stroke:none"
               id="path4375" /></g></g></g></g><g
       id="g4377"><g
         id="g4379"
         clip-path="url(#clipPath4381)"><g
           id="g4385"
           transform="translate(64.1348,49.9863)"><path
             d="m 0,0 -4.464,0 c 0,0 -0.692,0.1 -0.692,0.43 l 0,2.281 -3.804,4.199 0,0.493 0,0.166 13.555,0 0,-0.527 -3.834,-4.396 0,-2.116 C 0.762,0.526 0.794,0 0,0"
             style="fill:#292929;fill-opacity:1;fill-rule:nonzero;stroke:none"
             id="path4387" /></g><g
           id="g4389"
           transform="translate(67.1445,61.2256)"><path
             d="m 0,0 c 0,-0.305 -0.131,-0.604 -0.381,-0.813 -0.451,-0.374 -1.117,-0.312 -1.491,0.138 -0.035,0.041 -1.082,1.209 -3.236,1.207 -1.279,-0.002 -2.737,-1.061 -3.193,-1.472 -0.433,-0.394 -1.103,-0.36 -1.491,0.072 -0.392,0.433 -0.36,1.099 0.069,1.491 0.227,0.207 2.28,2.021 4.615,2.022 3.185,0.002 4.795,-1.889 4.861,-1.969 C -0.082,0.48 0,0.241 0,0"
             style="fill:#292929;fill-opacity:1;fill-rule:nonzero;stroke:none"
             id="path4391" /></g><g
           id="g4393"
           transform="translate(69.7881,64.0488)"><path
             d="M 0,0 C 0,-0.221 -0.065,-0.438 -0.207,-0.629 -0.555,-1.1 -1.217,-1.195 -1.687,-0.852 -1.84,-0.738 -2,-0.607 -2.176,-0.463 -3.117,0.309 -4.41,1.369 -7.771,1.682 c -3.104,0.285 -5.772,-2.395 -5.799,-2.42 -0.407,-0.416 -1.077,-0.426 -1.493,-0.018 -0.418,0.406 -0.427,1.074 -0.021,1.49 0.137,0.143 3.387,3.434 7.508,3.051 C -3.569,3.414 -1.857,2.012 -0.834,1.174 -0.688,1.057 -0.558,0.945 -0.426,0.852 -0.147,0.643 0,0.323 0,0"
             style="fill:#292929;fill-opacity:1;fill-rule:nonzero;stroke:none"
             id="path4395" /></g><g
           id="g4397"><g
             id="g4399" /><g
             id="g4467"><g
               clip-path="url(#clipPath4401)"
               opacity="0.5"
               id="g4469"><g
                 id="g4471"><g
                   clip-path="url(#clipPath4405)"
                   id="g4473"><g
                     id="g4475"><g
                       id="g4477" /><g
                       mask="url(#mask4427)"
                       id="g4479"><g
                         id="g4481" /><g
                         id="g4483"><g
                           clip-path="url(#clipPath4453)"
                           id="g4485"><g
                             id="g4487"><g
                               id="g4489"><g
                                 id="g4491"><g
                                   id="g4493"><path
                                   d="M -40.407,86.082 36.056,-22.348 150.985,49.802 74.52,158.232 -40.407,86.082 z"
                                   style="fill:url(#linearGradient4461);stroke:none"
                                   id="path4495" /></g></g></g></g></g></g></g></g></g></g></g></g></g></g></g></g></svg>