<?xml version="1.0" encoding="UTF-8" standalone="no"?>
<!-- Created with Inkscape (http://www.inkscape.org/) -->

<svg
   xmlns:dc="http://purl.org/dc/elements/1.1/"
   xmlns:cc="http://creativecommons.org/ns#"
   xmlns:rdf="http://www.w3.org/1999/02/22-rdf-syntax-ns#"
   xmlns:svg="http://www.w3.org/2000/svg"
   xmlns="http://www.w3.org/2000/svg"
   xmlns:sodipodi="http://sodipodi.sourceforge.net/DTD/sodipodi-0.dtd"
   xmlns:inkscape="http://www.inkscape.org/namespaces/inkscape"
   id="svg2"
   version="1.1"
   inkscape:version="0.48.2 r9819"
   width="151.25"
   height="151.25"
   xml:space="preserve"
   sodipodi:docname="horn-alert.ai"><metadata
     id="metadata8"><rdf:RDF><cc:Work
         rdf:about=""><dc:format>image/svg+xml</dc:format><dc:type
           rdf:resource="http://purl.org/dc/dcmitype/StillImage" /><dc:title></dc:title></cc:Work></rdf:RDF></metadata><defs
     id="defs6"><linearGradient
       x1="0"
       y1="0"
       x2="1"
       y2="0"
       gradientUnits="userSpaceOnUse"
       gradientTransform="matrix(0,121.29297,121.29297,0,60.358398,0.1074219)"
       spreadMethod="pad"
       id="linearGradient24"><stop
         style="stop-opacity:1;stop-color:#4d4d4f"
         offset="0"
         id="stop26" /><stop
         style="stop-opacity:1;stop-color:#48484a"
         offset="0.397202"
         id="stop28" /><stop
         style="stop-opacity:1;stop-color:#363737"
         offset="0.788696"
         id="stop30" /><stop
         style="stop-opacity:1;stop-color:#292929"
         offset="1"
         id="stop32" /></linearGradient><linearGradient
       x1="0"
       y1="0"
       x2="1"
       y2="0"
       gradientUnits="userSpaceOnUse"
       gradientTransform="matrix(0,112.05273,112.05273,0,60.358398,4.7285156)"
       spreadMethod="pad"
       id="linearGradient48"><stop
         style="stop-opacity:1;stop-color:#292929"
         offset="0"
         id="stop50" /><stop
         style="stop-opacity:1;stop-color:#363737"
         offset="0.211304"
         id="stop52" /><stop
         style="stop-opacity:1;stop-color:#48484a"
         offset="0.602798"
         id="stop54" /><stop
         style="stop-opacity:1;stop-color:#4d4d4f"
         offset="1"
         id="stop56" /></linearGradient><linearGradient
       x1="0"
       y1="0"
       x2="1"
       y2="0"
       gradientUnits="userSpaceOnUse"
       gradientTransform="matrix(112.05469,0,0,-112.05469,4.3320312,88.425293)"
       spreadMethod="pad"
       id="linearGradient72"><stop
         style="stop-opacity:1;stop-color:#292929"
         offset="0"
         id="stop74" /><stop
         style="stop-opacity:1;stop-color:#657178"
         offset="0.130402"
         id="stop76" /><stop
         style="stop-opacity:1;stop-color:#7e9dab"
         offset="0.266098"
         id="stop78" /><stop
         style="stop-opacity:1;stop-color:#85bbd4"
         offset="0.378799"
         id="stop80" /><stop
         style="stop-opacity:1;stop-color:#84cded"
         offset="0.462402"
         id="stop82" /><stop
         style="stop-opacity:1;stop-color:#84d4f7"
         offset="0.507797"
         id="stop84" /><stop
         style="stop-opacity:1;stop-color:#292929"
         offset="1"
         id="stop86" /></linearGradient><linearGradient
       x1="0"
       y1="0"
       x2="1"
       y2="0"
       gradientUnits="userSpaceOnUse"
       gradientTransform="matrix(112.05469,0,0,112.05469,4.3320312,33.079102)"
       spreadMethod="pad"
       id="linearGradient102"><stop
         style="stop-opacity:1;stop-color:#292929"
         offset="0"
         id="stop104" /><stop
         style="stop-opacity:1;stop-color:#657178"
         offset="0.130402"
         id="stop106" /><stop
         style="stop-opacity:1;stop-color:#7e9dab"
         offset="0.266098"
         id="stop108" /><stop
         style="stop-opacity:1;stop-color:#85bbd4"
         offset="0.378799"
         id="stop110" /><stop
         style="stop-opacity:1;stop-color:#84cded"
         offset="0.462402"
         id="stop112" /><stop
         style="stop-opacity:1;stop-color:#84d4f7"
         offset="0.507797"
         id="stop114" /><stop
         style="stop-opacity:1;stop-color:#292929"
         offset="1"
         id="stop116" /></linearGradient><radialGradient
       fx="0"
       fy="0"
       cx="0"
       cy="0"
       r="1"
       gradientUnits="userSpaceOnUse"
       gradientTransform="matrix(72.242447,0,0,-72.242447,36.750977,99.380859)"
       spreadMethod="pad"
       id="radialGradient132"><stop
         style="stop-opacity:1;stop-color:#2a7ea9"
         offset="0"
         id="stop134" /><stop
         style="stop-opacity:1;stop-color:#2881ac"
         offset="0.0158997"
         id="stop136" /><stop
         style="stop-opacity:1;stop-color:#2795c1"
         offset="0.144302"
         id="stop138" /><stop
         style="stop-opacity:1;stop-color:#27a7d2"
         offset="0.280502"
         id="stop140" /><stop
         style="stop-opacity:1;stop-color:#3bb7e0"
         offset="0.424896"
         id="stop142" /><stop
         style="stop-opacity:1;stop-color:#56c4ee"
         offset="0.581299"
         id="stop144" /><stop
         style="stop-opacity:1;stop-color:#67cbf3"
         offset="0.758301"
         id="stop146" /><stop
         style="stop-opacity:1;stop-color:#6ccef5"
         offset="1"
         id="stop148" /></radialGradient><clipPath
       clipPathUnits="userSpaceOnUse"
       id="clipPath156"><path
         d="M 0,121 121,121 121,0 0,0 0,121 z"
         id="path158" /></clipPath><radialGradient
       fx="0"
       fy="0"
       cx="0"
       cy="0"
       r="1"
       gradientUnits="userSpaceOnUse"
       gradientTransform="matrix(72.242447,0,0,-72.242447,36.750977,99.380859)"
       spreadMethod="pad"
       id="radialGradient176"><stop
         style="stop-opacity:1;stop-color:#2a7ea9"
         offset="0"
         id="stop178" /><stop
         style="stop-opacity:1;stop-color:#2881ac"
         offset="0.0158997"
         id="stop180" /><stop
         style="stop-opacity:1;stop-color:#2795c1"
         offset="0.144302"
         id="stop182" /><stop
         style="stop-opacity:1;stop-color:#27a7d2"
         offset="0.280502"
         id="stop184" /><stop
         style="stop-opacity:1;stop-color:#3bb7e0"
         offset="0.424896"
         id="stop186" /><stop
         style="stop-opacity:1;stop-color:#56c4ee"
         offset="0.581299"
         id="stop188" /><stop
         style="stop-opacity:1;stop-color:#67cbf3"
         offset="0.758301"
         id="stop190" /><stop
         style="stop-opacity:1;stop-color:#6ccef5"
         offset="1"
         id="stop192" /></radialGradient><clipPath
       clipPathUnits="userSpaceOnUse"
       id="clipPath200"><path
         d="M 0,121 121,121 121,0 0,0 0,121 z"
         id="path202" /></clipPath><linearGradient
       x1="0"
       y1="0"
       x2="1"
       y2="0"
       gradientUnits="userSpaceOnUse"
       gradientTransform="matrix(21.757278,-30.28392,30.283935,21.757278,67.022461,53.90625)"
       spreadMethod="pad"
       id="linearGradient228"><stop
         style="stop-opacity:1;stop-color:#f48335"
         offset="0"
         id="stop230" /><stop
         style="stop-opacity:1;stop-color:#f58c35"
         offset="0.244202"
         id="stop232" /><stop
         style="stop-opacity:1;stop-color:#f58c35"
         offset="0.244202"
         id="stop234" /><stop
         style="stop-opacity:1;stop-color:#f9a533"
         offset="0.643906"
         id="stop236" /><stop
         style="stop-opacity:1;stop-color:#fcbf30"
         offset="1"
         id="stop238" /></linearGradient><clipPath
       clipPathUnits="userSpaceOnUse"
       id="clipPath246"><path
         d="M 0,121 121,121 121,0 0,0 0,121 z"
         id="path248" /></clipPath><linearGradient
       x1="0"
       y1="0"
       x2="1"
       y2="0"
       gradientUnits="userSpaceOnUse"
       gradientTransform="matrix(21.757278,-30.28392,30.283935,21.757278,67.022461,53.90625)"
       spreadMethod="pad"
       id="linearGradient266"><stop
         style="stop-opacity:1;stop-color:#64b051"
         offset="0"
         id="stop268" /><stop
         style="stop-opacity:1;stop-color:#63bb51"
         offset="0.00520325"
         id="stop270" /><stop
         style="stop-opacity:1;stop-color:#6cbe50"
         offset="0.169296"
         id="stop272" /><stop
         style="stop-opacity:1;stop-color:#83c44d"
         offset="0.439804"
         id="stop274" /><stop
         style="stop-opacity:1;stop-color:#a6cf47"
         offset="0.781006"
         id="stop276" /><stop
         style="stop-opacity:1;stop-color:#c4d83e"
         offset="1"
         id="stop278" /></linearGradient><clipPath
       clipPathUnits="userSpaceOnUse"
       id="clipPath286"><path
         d="M 0,121 121,121 121,0 0,0 0,121 z"
         id="path288" /></clipPath><clipPath
       clipPathUnits="userSpaceOnUse"
       id="clipPath302"><path
         d="m -40.8984,158.104 191.3764,0 0,-180.5806 -191.3764,0 0,180.5806 z"
         id="path304" /></clipPath><clipPath
       clipPathUnits="userSpaceOnUse"
       id="clipPath306"><path
         d="m 5.015,58.912 c 0,-14.812 6.05,-28.06 15.472,-38.066 4.899,40.442 39.033,71.886 80.794,71.886 1.126,0 2.17,-0.229 3.282,-0.27 C 94.346,105.748 78.934,114.781 60.887,114.781 30.042,114.782 5.015,89.761 5.015,58.912"
         id="path308" /></clipPath><clipPath
       clipPathUnits="userSpaceOnUse"
       id="clipPath310"><path
         d="m -40.8984,158.104 191.3764,0 0,-180.5806 -191.3764,0 0,180.5806 z"
         id="path312" /></clipPath><clipPath
       clipPathUnits="userSpaceOnUse"
       id="clipPath314"><path
         d="m -40.8984,158.104 191.3764,0 0,-180.5806 -191.3764,0 0,180.5806 z"
         id="path316" /></clipPath><linearGradient
       x1="0"
       y1="0"
       x2="1"
       y2="0"
       gradientUnits="userSpaceOnUse"
       gradientTransform="matrix(38.520935,-54.625763,57.891464,36.347961,18.90625,118.69531)"
       spreadMethod="pad"
       id="linearGradient322"><stop
         style="stop-opacity:1;stop-color:#ffffff"
         offset="0"
         id="stop324" /><stop
         style="stop-opacity:1;stop-color:#292929"
         offset="1"
         id="stop326" /></linearGradient><mask
       maskUnits="userSpaceOnUse"
       x="0"
       y="0"
       width="1"
       height="1"
       id="mask328"><g
         id="g330"><g
           clip-path="url(#clipPath310)"
           id="g332"><path
             d="m -40.898,158.104 191.376,0 0,-180.581 -191.376,0 0,180.581 z"
             style="fill:#000000;fill-opacity:1;fill-rule:nonzero;stroke:none"
             id="path334" /><g
             id="g336"><g
               id="g338" /><g
               id="g340"><g
                 clip-path="url(#clipPath314)"
                 id="g342"><g
                   id="g344"><g
                     id="g346"><g
                       id="g348"><g
                         id="g350"><path
                           d="m 5.015,58.912 c 0,-14.812 6.05,-28.06 15.473,-38.066 l 0,0 c 4.897,40.441 39.032,71.886 80.794,71.886 l 0,0 c 1.125,0 2.169,-0.228 3.281,-0.27 l 0,0 c -10.217,13.285 -25.629,22.32 -43.676,22.32 l 0,0 c -30.844,0 -55.872,-25.02 -55.872,-55.87"
                           style="fill:url(#linearGradient322);stroke:none"
                           id="path352" /></g></g></g></g></g></g></g></g></g></mask><clipPath
       clipPathUnits="userSpaceOnUse"
       id="clipPath354"><path
         d="m -40.8984,158.104 191.3764,0 0,-180.5806 -191.3764,0 0,180.5806 z"
         id="path356" /></clipPath><linearGradient
       x1="0"
       y1="0"
       x2="1"
       y2="0"
       gradientUnits="userSpaceOnUse"
       gradientTransform="matrix(38.520935,-54.625763,57.891464,36.347961,18.90625,118.69531)"
       spreadMethod="pad"
       id="linearGradient362"><stop
         style="stop-opacity:1;stop-color:#ffffff"
         offset="0"
         id="stop364" /><stop
         style="stop-opacity:1;stop-color:#ffffff"
         offset="1"
         id="stop366" /></linearGradient></defs><sodipodi:namedview
     pagecolor="#ffffff"
     bordercolor="#666666"
     borderopacity="1"
     objecttolerance="10"
     gridtolerance="10"
     guidetolerance="10"
     inkscape:pageopacity="0"
     inkscape:pageshadow="2"
     inkscape:window-width="640"
     inkscape:window-height="480"
     id="namedview4"
     showgrid="false"
     inkscape:zoom="1.5603306"
     inkscape:cx="75.625"
     inkscape:cy="75.625"
     inkscape:window-x="0"
     inkscape:window-y="0"
     inkscape:window-maximized="0"
     inkscape:current-layer="g10" /><g
     id="g10"
     inkscape:groupmode="layer"
     inkscape:label="horn-alert"
     transform="matrix(1.25,0,0,-1.25,0,151.25)"><g
       id="g12"><g
         id="g14"><g
           id="g20"><g
             id="g22"><path
               d="M 53.339,121 C 25.096,117.743 2.759,95.083 0,66.694 l 0,0 0,-11.876 C 2.984,24.106 28.873,0.108 60.361,0.108 l 0,0 c 33.204,0 60.17,26.675 60.639,59.771 l 0,0 0,1.755 C 120.565,92.354 97.287,117.551 67.384,121 l 0,0 -14.045,0 z"
               style="fill:url(#linearGradient24);stroke:none"
               id="path34" /></g></g></g></g><g
       id="g36"><g
         id="g38"><g
           id="g44"><g
             id="g46"><path
               d="m 4.332,60.756 c 0,-30.89 25.135,-56.027 56.029,-56.027 l 0,0 c 30.898,0 56.026,25.137 56.026,56.027 l 0,0 c 0,30.894 -25.129,56.025 -56.026,56.025 l 0,0 C 29.467,116.781 4.332,91.652 4.332,60.756"
               style="fill:url(#linearGradient48);stroke:none"
               id="path58" /></g></g></g></g><g
       id="g60"><g
         id="g62"><g
           id="g68"><g
             id="g70"><path
               d="m 4.332,60.755 c 0,-0.234 0.031,-0.451 0.038,-0.686 l 0,0 c 0.372,30.57 25.332,55.335 55.991,55.335 l 0,0 c 30.662,0 55.616,-24.765 55.988,-55.335 l 0,0 c 0.008,0.235 0.038,0.452 0.038,0.686 l 0,0 c 0,30.897 -25.129,56.026 -56.026,56.026 l 0,0 C 29.467,116.781 4.332,91.65 4.332,60.755"
               style="fill:url(#linearGradient72);stroke:none"
               id="path88" /></g></g></g></g><g
       id="g90"><g
         id="g92"><g
           id="g98"><g
             id="g100"><path
               d="M 60.361,6.099 C 29.702,6.099 4.742,30.861 4.37,61.436 l 0,0 C 4.363,61.202 4.332,60.982 4.332,60.747 l 0,0 C 4.332,29.849 29.467,4.722 60.361,4.722 l 0,0 c 30.897,0 56.026,25.127 56.026,56.025 l 0,0 c 0,0.235 -0.03,0.455 -0.038,0.689 l 0,0 C 115.977,30.861 91.023,6.099 60.361,6.099"
               style="fill:url(#linearGradient102);stroke:none"
               id="path118" /></g></g></g></g><g
       id="g120"><g
         id="g122"><g
           id="g128"><g
             id="g130"><path
               d="M 60.61,94.829 C 57.881,94.7 55.42,94.433 53.175,93.823 l 0,0 c -2.233,-0.608 -4.263,-1.32 -6.172,-2.237 l 0,0 C 43.196,89.763 40.055,87.372 37.27,84.533 l 0,0 C 34.447,81.652 32.286,78.415 30.563,74.454 l 0,0 c -0.835,-1.919 -1.55,-4.052 -2.016,-6.361 l 0,0 C 28.069,65.738 27.885,63.146 27.885,60.41 l 0,0 c 0,-2.619 0.442,-5.133 1.01,-7.371 l 0,0 c 1.683,-6.648 5.045,-11.898 9.257,-15.937 l 0,0 c 4.34,-4.151 9.567,-7.155 16.474,-8.72 l 0,0 c 2.339,-0.532 4.918,-0.693 7.713,-0.693 l 0,0 c 2.552,0 5.051,0.474 7.341,1.04 l 0,0 c 6.683,1.652 11.929,5.035 15.968,9.226 l 0,0 c 2.778,2.887 4.963,6.174 6.708,10.078 l 0,0 c 1.757,3.935 2.707,8.505 2.707,14.078 l 0,0 c 0,1.291 -0.137,2.609 -0.344,3.841 l 0,0 -0.002,0 c -0.209,1.218 -0.371,2.401 -0.662,3.528 l 0,0 c -1.176,4.513 -3.035,8.206 -5.354,11.431 l 0,0 c -2.333,3.249 -5.209,6.026 -8.535,8.25 l 0,0 c -4.18,2.793 -9.125,4.887 -15.465,5.543 l 0,0 c -0.931,0.097 -2.015,0.15 -2.999,0.15 l 0,0 c -0.384,0 -0.753,-0.008 -1.092,-0.025 M 45.08,79.87 c 1.888,1.735 4.108,3.106 6.584,4.19 l 0,0 c 1.259,0.55 2.611,1.013 4.033,1.355 l 0,0 c 1.468,0.351 3.157,0.6 4.848,0.66 l 0,0 c 3.621,0.124 6.906,-0.554 9.668,-1.576 l 0,0 c 2.737,-1.011 5.127,-2.507 7.119,-4.157 l 0,0 c 3.064,-2.537 5.531,-5.798 7.148,-9.793 l 0,0 c 0.493,-1.218 0.922,-2.536 1.174,-3.935 l 0,0 c -1.137,0.545 -4.779,1.444 -7.238,2.02 l 0,0 c -4.246,3.76 -15.412,4.433 -16.813,4.502 l 0,0 -0.562,-0.002 C 59.664,73.067 48.201,72.377 44.096,68.477 l 0,0 c -2.327,-0.526 -5.807,-1.366 -6.827,-1.896 l 0,0 c 1.21,5.711 4.159,9.933 7.811,13.289 M 68.226,43.277 c 0.357,1.576 5.372,8.166 7.448,9.955 l 0,0 c 0.983,0.848 3.314,2.063 5.638,3.184 l 0,0 c 0.689,0.293 1.376,0.591 2.065,0.879 l 0,0 c 0.869,0.359 1.748,0.726 2.615,1.102 l 0,0 c 0.026,0.008 0.029,-0.012 0.032,-0.031 l 0,0 c 0.023,-0.78 -0.127,-1.552 -0.285,-2.268 l 0,0 C 84.322,49.635 80.849,44.994 76.418,41.513 l 0,0 C 75.672,40.929 74.869,40.42 74.056,39.911 l 0,0 c -0.277,-0.175 -0.587,-0.276 -0.882,-0.443 l 0,0 c -1.817,-1.019 -3.873,-1.837 -6.119,-2.329 l 0,0 c 0.306,2.618 0.908,4.988 1.171,6.138 m -24.499,0.725 c -1.76,1.762 -3.265,3.801 -4.442,6.142 l 0,0 C 38.419,51.872 37.684,53.873 37.208,56 l 0,0 c -0.162,0.731 -0.217,1.517 -0.38,2.301 l 0,0 c 0.019,0.045 0.051,0.077 0.095,0.095 l 0,0 0.063,0 c 1.772,-0.783 3.523,-1.525 5.27,-2.264 l 0,0 c 2.12,-1.039 4.15,-2.125 5.05,-2.9 l 0,0 c 2.078,-1.789 7.094,-8.381 7.451,-9.956 l 0,0 c 0.261,-1.147 0.86,-3.511 1.171,-6.12 l 0,0 c -5.163,1.125 -9.092,3.736 -12.201,6.846"
               style="fill:url(#radialGradient132);stroke:none"
               id="path150" /></g></g></g></g><g
       id="g152"><g
         id="g154"
         clip-path="url(#clipPath156)"><g
           id="g160"
           transform="translate(85.7393,56.0977)"><path
             d="m 0,0 c -1.417,-6.463 -4.891,-11.104 -9.321,-14.584 -0.746,-0.584 -1.549,-1.094 -2.363,-1.604 -0.276,-0.173 -0.587,-0.275 -0.881,-0.442 -1.817,-1.018 -3.873,-1.837 -6.12,-2.328 0.307,2.617 0.909,4.987 1.172,6.137 0.357,1.577 5.371,8.167 7.448,9.956 0.982,0.847 3.314,2.062 5.638,3.183 0.689,0.293 1.375,0.591 2.065,0.879 0.869,0.36 1.748,0.727 2.615,1.103 C 0.278,2.307 0.282,2.287 0.284,2.269 0.308,1.488 0.157,0.717 0,0 z m -42.012,-12.096 c -1.76,1.762 -3.265,3.802 -4.442,6.143 -0.866,1.726 -1.602,3.728 -2.077,5.855 -0.162,0.731 -0.217,1.518 -0.38,2.301 0.018,0.045 0.051,0.077 0.095,0.096 l 0.063,0 c 1.772,-0.783 3.523,-1.526 5.27,-2.265 2.12,-1.039 4.15,-2.125 5.049,-2.899 2.079,-1.789 7.094,-8.382 7.452,-9.957 0.26,-1.147 0.86,-3.511 1.17,-6.12 -5.162,1.125 -9.091,3.737 -12.2,6.846 z m 1.353,35.869 c 1.888,1.734 4.108,3.106 6.583,4.189 1.259,0.551 2.612,1.014 4.033,1.354 1.469,0.352 3.157,0.601 4.849,0.661 3.621,0.125 6.905,-0.554 9.668,-1.575 2.737,-1.012 5.127,-2.508 7.119,-4.158 3.064,-2.536 5.531,-5.797 7.148,-9.792 0.492,-1.218 0.922,-2.536 1.174,-3.935 -1.137,0.544 -4.779,1.443 -7.238,2.02 -4.246,3.759 -15.412,4.433 -16.813,4.502 l -0.562,-0.002 c -1.377,-0.067 -12.84,-0.757 -16.946,-4.659 -2.326,-0.525 -5.806,-1.365 -6.826,-1.894 1.209,5.711 4.159,9.933 7.811,13.289 z M 8.978,9.854 C 8.769,11.072 8.606,12.255 8.315,13.382 7.14,17.895 5.28,21.588 2.962,24.813 c -2.334,3.249 -5.209,6.026 -8.535,8.251 -4.18,2.792 -9.125,4.886 -15.465,5.543 -1.295,0.134 -2.884,0.183 -4.092,0.125 -2.728,-0.13 -5.189,-0.397 -7.435,-1.007 -2.232,-0.608 -4.262,-1.32 -6.172,-2.237 -3.806,-1.822 -6.947,-4.214 -9.733,-7.053 -2.822,-2.881 -4.984,-6.118 -6.706,-10.079 -0.836,-1.919 -1.55,-4.052 -2.016,-6.36 -0.478,-2.356 -0.662,-4.948 -0.662,-7.684 0,-2.619 0.441,-5.132 1.009,-7.371 1.684,-6.648 5.046,-11.898 9.258,-15.937 4.339,-4.15 9.567,-7.154 16.474,-8.72 2.339,-0.531 4.918,-0.692 7.714,-0.692 2.55,0 5.05,0.473 7.339,1.039 6.684,1.652 11.93,5.035 15.969,9.226 2.778,2.887 4.963,6.174 6.708,10.079 1.757,3.934 2.706,8.504 2.706,14.077 0,1.291 -0.136,2.61 -0.344,3.841 l -10e-4,0 z"
             style="fill:none;stroke:#292929;stroke-opacity:1;stroke-width:4;stroke-linecap:butt;stroke-linejoin:miter;stroke-miterlimit:10;stroke-dasharray:none"
             id="path162" /></g></g></g><g
       id="g164"><g
         id="g166"><g
           id="g172"><g
             id="g174"><path
               d="M 60.61,94.829 C 57.881,94.7 55.42,94.433 53.175,93.823 l 0,0 c -2.233,-0.608 -4.263,-1.32 -6.172,-2.237 l 0,0 C 43.196,89.763 40.055,87.372 37.27,84.533 l 0,0 C 34.447,81.652 32.286,78.415 30.563,74.454 l 0,0 c -0.835,-1.919 -1.55,-4.052 -2.016,-6.361 l 0,0 C 28.069,65.738 27.885,63.146 27.885,60.41 l 0,0 c 0,-2.619 0.442,-5.133 1.01,-7.371 l 0,0 c 1.683,-6.648 5.045,-11.898 9.257,-15.937 l 0,0 c 4.34,-4.151 9.567,-7.155 16.474,-8.72 l 0,0 c 2.339,-0.532 4.918,-0.693 7.713,-0.693 l 0,0 c 2.552,0 5.051,0.474 7.341,1.04 l 0,0 c 6.683,1.652 11.929,5.035 15.968,9.226 l 0,0 c 2.778,2.887 4.963,6.174 6.708,10.078 l 0,0 c 1.757,3.935 2.707,8.505 2.707,14.078 l 0,0 c 0,1.291 -0.137,2.609 -0.344,3.841 l 0,0 -0.002,0 c -0.209,1.218 -0.371,2.401 -0.662,3.528 l 0,0 c -1.176,4.513 -3.035,8.206 -5.354,11.431 l 0,0 c -2.333,3.249 -5.209,6.026 -8.535,8.25 l 0,0 c -4.18,2.793 -9.125,4.887 -15.465,5.543 l 0,0 c -0.931,0.097 -2.015,0.15 -2.999,0.15 l 0,0 c -0.384,0 -0.753,-0.008 -1.092,-0.025 M 45.08,79.87 c 1.888,1.735 4.108,3.106 6.584,4.19 l 0,0 c 1.259,0.55 2.611,1.013 4.033,1.355 l 0,0 c 1.468,0.351 3.157,0.6 4.848,0.66 l 0,0 c 3.621,0.124 6.906,-0.554 9.668,-1.576 l 0,0 c 2.737,-1.011 5.127,-2.507 7.119,-4.157 l 0,0 c 3.064,-2.537 5.531,-5.798 7.148,-9.793 l 0,0 c 0.493,-1.218 0.922,-2.536 1.174,-3.935 l 0,0 c -1.137,0.545 -4.779,1.444 -7.238,2.02 l 0,0 c -4.246,3.76 -15.412,4.433 -16.813,4.502 l 0,0 -0.562,-0.002 C 59.664,73.067 48.201,72.377 44.096,68.477 l 0,0 c -2.327,-0.526 -5.807,-1.366 -6.827,-1.896 l 0,0 c 1.21,5.711 4.159,9.933 7.811,13.289 M 43.727,44.002 c -1.76,1.762 -3.265,3.801 -4.442,6.142 l 0,0 C 38.419,51.872 37.684,53.873 37.208,56 l 0,0 c -0.162,0.731 -0.217,1.517 -0.38,2.301 l 0,0 c 0.019,0.045 0.051,0.077 0.095,0.095 l 0,0 0.063,0 c 1.772,-0.783 3.523,-1.525 5.27,-2.264 l 0,0 c 2.12,-1.039 4.15,-2.125 5.05,-2.9 l 0,0 c 2.078,-1.789 7.094,-8.381 7.451,-9.956 l 0,0 c 0.261,-1.147 0.86,-3.511 1.171,-6.12 l 0,0 c -5.163,1.125 -9.092,3.736 -12.201,6.846"
               style="fill:url(#radialGradient176);stroke:none"
               id="path194" /></g></g></g></g><g
       id="g196"><g
         id="g198"
         clip-path="url(#clipPath200)"><g
           id="g204"
           transform="translate(63.8359,50.2441)"><path
             d="m 0,0 -4.457,0 c 0,0 -0.693,0.098 -0.693,0.428 l 0,2.283 -3.803,4.199 0,0.493 0,0.167 13.549,0 0,-0.529 -3.834,-4.396 0,-2.116 C 0.762,0.527 0.794,0 0,0"
             style="fill:#292929;fill-opacity:1;fill-rule:nonzero;stroke:none"
             id="path206" /></g><g
           id="g208"
           transform="translate(66.8457,61.4829)"><path
             d="m 0,0 c 0,-0.305 -0.131,-0.604 -0.381,-0.813 -0.451,-0.375 -1.117,-0.313 -1.491,0.136 -0.036,0.041 -1.081,1.209 -3.235,1.207 -1.281,-0.002 -2.734,-1.061 -3.188,-1.47 -0.432,-0.393 -1.101,-0.36 -1.491,0.072 -0.392,0.431 -0.36,1.099 0.069,1.492 0.228,0.207 2.281,2.018 4.608,2.022 3.185,10e-4 4.796,-1.889 4.865,-1.97 C -0.082,0.479 0,0.239 0,0"
             style="fill:#292929;fill-opacity:1;fill-rule:nonzero;stroke:none"
             id="path210" /></g><g
           id="g212"
           transform="translate(69.4902,64.3042)"><path
             d="m 0,0 c 0,-0.22 -0.066,-0.438 -0.207,-0.629 -0.349,-0.469 -1.012,-0.567 -1.481,-0.221 -0.152,0.114 -0.313,0.245 -0.488,0.388 -0.942,0.773 -2.234,1.831 -5.595,2.144 -3.098,0.286 -5.766,-2.394 -5.793,-2.42 -0.409,-0.416 -1.077,-0.426 -1.495,-0.017 -0.416,0.407 -0.425,1.075 -0.019,1.491 0.138,0.143 3.387,3.434 7.504,3.049 4.006,-0.371 5.717,-1.773 6.74,-2.611 0.146,-0.117 0.278,-0.23 0.41,-0.323 C -0.148,0.645 0,0.326 0,0"
             style="fill:#292929;fill-opacity:1;fill-rule:nonzero;stroke:none"
             id="path214" /></g></g></g><g
       id="g216"><g
         id="g218"><g
           id="g224"><g
             id="g226"><path
               d="m 81.397,54.91 c -0.936,-0.078 -1.26,-0.711 -1.607,-1.328 l 0,0 c -0.462,-0.819 -0.972,-1.699 -1.415,-2.483 l 0,0 C 78.234,50.847 78.096,50.62 77.969,50.391 l 0,0 c -1.407,-2.5 -2.787,-4.975 -4.221,-7.454 l 0,0 c -0.932,-1.609 -1.912,-3.425 -2.869,-5.033 l 0,0 c -0.161,-0.267 -0.311,-0.546 -0.451,-0.793 l 0,0 c -0.071,-0.127 -0.119,-0.24 -0.189,-0.363 l 0,0 c -0.366,-0.636 -0.756,-1.336 -1.117,-1.951 l 0,0 c -0.108,-0.182 -0.2,-0.36 -0.298,-0.533 l 0,0 C 68.58,33.842 68.35,33.436 68.116,33.019 l 0,0 c -0.267,-0.468 -0.634,-1.032 -0.643,-1.584 l 0,0 c -0.012,-0.607 0.363,-1.13 0.728,-1.371 l 0,0 c 0.461,-0.306 1.08,-0.299 1.799,-0.299 l 0,0 23.153,0 c 0.387,0 0.718,-0.003 1.007,0.044 l 0,0 c 0.574,0.092 0.996,0.433 1.221,0.877 l 0,0 c 0.125,0.243 0.199,0.54 0.175,0.875 l 0,0 c -0.054,0.627 -0.379,1.005 -0.645,1.48 l 0,0 c -1.003,1.782 -1.987,3.517 -3.04,5.376 l 0,0 c -0.668,1.177 -1.474,2.616 -2.186,3.833 l 0,0 c -0.105,0.183 -0.183,0.353 -0.279,0.515 l 0,0 c -1.112,1.913 -2.255,3.954 -3.342,5.87 l 0,0 c -0.634,1.119 -1.295,2.259 -1.906,3.363 l 0,0 c -0.224,0.406 -0.435,0.789 -0.664,1.178 l 0,0 c -0.271,0.463 -0.516,0.976 -0.833,1.285 l 0,0 c -0.257,0.246 -0.657,0.455 -1.126,0.455 l 0,0 c -0.046,0 -0.092,-0.002 -0.138,-0.006"
               style="fill:url(#linearGradient228);stroke:none"
               id="path240" /></g></g></g></g><g
       id="g242"><g
         id="g244"
         clip-path="url(#clipPath246)"><g
           id="g250"
           transform="translate(95.3809,30.6855)"><path
             d="m 0,0 c -0.225,-0.443 -0.646,-0.785 -1.221,-0.877 -0.289,-0.047 -0.62,-0.044 -1.008,-0.044 l -23.152,0 c -0.719,0 -1.338,-0.007 -1.799,0.3 -0.365,0.24 -0.74,0.764 -0.728,1.371 0.01,0.552 0.377,1.115 0.642,1.584 0.235,0.416 0.465,0.822 0.709,1.244 0.098,0.173 0.19,0.352 0.298,0.533 0.361,0.616 0.751,1.315 1.116,1.952 0.071,0.123 0.119,0.235 0.19,0.363 0.14,0.247 0.291,0.525 0.451,0.793 0.957,1.607 1.938,3.424 2.869,5.033 1.434,2.478 2.815,4.953 4.221,7.453 0.127,0.23 0.266,0.457 0.406,0.709 0.443,0.783 0.953,1.664 1.414,2.482 0.348,0.618 0.672,1.25 1.608,1.329 0.529,0.046 0.982,-0.18 1.263,-0.45 0.319,-0.308 0.563,-0.822 0.834,-1.285 0.23,-0.388 0.44,-0.771 0.664,-1.177 0.612,-1.104 1.272,-2.245 1.907,-3.364 1.086,-1.916 2.229,-3.957 3.341,-5.869 0.096,-0.162 0.174,-0.332 0.279,-0.516 C -4.984,10.348 -4.178,8.908 -3.51,7.731 -2.457,5.872 -1.473,4.138 -0.47,2.355 -0.204,1.881 0.121,1.502 0.175,0.876 0.199,0.541 0.125,0.244 0,0 z"
             style="fill:none;stroke:#373536;stroke-opacity:1;stroke-width:6;stroke-linecap:butt;stroke-linejoin:miter;stroke-miterlimit:10;stroke-dasharray:none"
             id="path252" /></g></g></g><g
       id="g254"><g
         id="g256"><g
           id="g262"><g
             id="g264"><path
               d="m 81.397,54.91 c -0.936,-0.078 -1.26,-0.711 -1.607,-1.328 l 0,0 c -0.462,-0.819 -0.972,-1.699 -1.415,-2.483 l 0,0 C 78.234,50.847 78.096,50.62 77.969,50.391 l 0,0 c -1.407,-2.5 -2.787,-4.975 -4.221,-7.454 l 0,0 c -0.932,-1.609 -1.912,-3.425 -2.869,-5.033 l 0,0 c -0.161,-0.267 -0.311,-0.546 -0.451,-0.793 l 0,0 c -0.071,-0.127 -0.119,-0.24 -0.189,-0.363 l 0,0 c -0.366,-0.636 -0.756,-1.336 -1.117,-1.951 l 0,0 c -0.108,-0.182 -0.2,-0.36 -0.298,-0.533 l 0,0 C 68.58,33.842 68.35,33.436 68.116,33.019 l 0,0 c -0.267,-0.468 -0.634,-1.032 -0.643,-1.584 l 0,0 c -0.012,-0.607 0.363,-1.13 0.728,-1.371 l 0,0 c 0.461,-0.306 1.08,-0.299 1.799,-0.299 l 0,0 23.153,0 c 0.387,0 0.718,-0.003 1.007,0.044 l 0,0 c 0.574,0.092 0.996,0.433 1.221,0.877 l 0,0 c 0.125,0.243 0.199,0.54 0.175,0.875 l 0,0 c -0.054,0.627 -0.379,1.005 -0.645,1.48 l 0,0 c -1.003,1.782 -1.987,3.517 -3.04,5.376 l 0,0 c -0.668,1.177 -1.474,2.616 -2.186,3.833 l 0,0 c -0.105,0.183 -0.183,0.353 -0.279,0.515 l 0,0 c -1.112,1.913 -2.255,3.954 -3.342,5.87 l 0,0 c -0.634,1.119 -1.295,2.259 -1.906,3.363 l 0,0 c -0.224,0.406 -0.435,0.789 -0.664,1.178 l 0,0 c -0.271,0.463 -0.516,0.976 -0.833,1.285 l 0,0 c -0.257,0.246 -0.657,0.455 -1.126,0.455 l 0,0 c -0.046,0 -0.092,-0.002 -0.138,-0.006"
               style="fill:url(#linearGradient266);stroke:none"
               id="path280" /></g></g></g></g><g
       id="g282"><g
         id="g284"
         clip-path="url(#clipPath286)"><g
           id="g290"
           transform="translate(82.8291,46.8574)"><path
             d="m 0,0 c 0.11,-0.699 0.063,-1.469 0.063,-2.27 l 0,-5.804 c 0,-0.711 -0.023,-1.092 -0.361,-1.457 -0.299,-0.321 -0.844,-0.584 -1.479,-0.387 -0.419,0.215 -0.777,0.521 -0.876,1.028 -0.065,0.318 -0.024,0.714 -0.024,1.094 l 0,6.577 c 0,0.505 -0.029,0.953 0.086,1.283 0.221,0.374 0.494,0.69 0.986,0.793 C -0.731,0.994 -0.267,0.54 0,0"
             style="fill:#373536;fill-opacity:1;fill-rule:nonzero;stroke:none"
             id="path292" /></g><g
           id="g294"
           transform="translate(81.3721,35.7852)"><path
             d="m 0,0 c -0.624,-0.057 -1.056,-0.498 -1.134,-1.072 -0.046,-0.338 0.056,-0.598 0.151,-0.772 0.156,-0.293 0.513,-0.599 0.793,-0.664 0.375,-0.086 0.783,0.034 0.984,0.151 0.281,0.162 0.557,0.502 0.617,0.857 0.054,0.289 -0.017,0.621 -0.103,0.791 C 1.058,-0.227 0.68,0.059 0,0"
             style="fill:#373536;fill-opacity:1;fill-rule:nonzero;stroke:none"
             id="path296" /></g><g
           id="g298"><g
             id="g300" /><g
             id="g368"><g
               clip-path="url(#clipPath302)"
               opacity="0.5"
               id="g370"><g
                 id="g372"><g
                   clip-path="url(#clipPath306)"
                   id="g374"><g
                     id="g376"><g
                       id="g378" /><g
                       mask="url(#mask328)"
                       id="g380"><g
                         id="g382" /><g
                         id="g384"><g
                           clip-path="url(#clipPath354)"
                           id="g386"><g
                             id="g388"><g
                               id="g390"><g
                                 id="g392"><g
                                   id="g394"><path
                                   d="M 74.014,158.104 -40.899,85.955 35.564,-22.477 150.479,49.674 74.014,158.104 z"
                                   style="fill:url(#linearGradient362);stroke:none"
                                   id="path396" /></g></g></g></g></g></g></g></g></g></g></g></g></g></g></g></g></svg>