<?xml version="1.0" encoding="UTF-8" standalone="no"?>
<!-- Created with Inkscape (http://www.inkscape.org/) -->

<svg
   xmlns:dc="http://purl.org/dc/elements/1.1/"
   xmlns:cc="http://creativecommons.org/ns#"
   xmlns:rdf="http://www.w3.org/1999/02/22-rdf-syntax-ns#"
   xmlns:svg="http://www.w3.org/2000/svg"
   xmlns="http://www.w3.org/2000/svg"
   xmlns:sodipodi="http://sodipodi.sourceforge.net/DTD/sodipodi-0.dtd"
   xmlns:inkscape="http://www.inkscape.org/namespaces/inkscape"
   id="svg2"
   version="1.1"
   inkscape:version="0.48.2 r9819"
   width="151.25"
   height="151.25"
   xml:space="preserve"
   sodipodi:docname="horn-off.ai"><metadata
     id="metadata8"><rdf:RDF><cc:Work
         rdf:about=""><dc:format>image/svg+xml</dc:format><dc:type
           rdf:resource="http://purl.org/dc/dcmitype/StillImage" /><dc:title></dc:title></cc:Work></rdf:RDF></metadata><defs
     id="defs6"><linearGradient
       x1="0"
       y1="0"
       x2="1"
       y2="0"
       gradientUnits="userSpaceOnUse"
       gradientTransform="matrix(0,121.29248,-121.29248,0,60.530273,-0.2851562)"
       spreadMethod="pad"
       id="linearGradient24"><stop
         style="stop-opacity:1;stop-color:#4d4d4f"
         offset="0"
         id="stop26" /><stop
         style="stop-opacity:1;stop-color:#48484a"
         offset="0.397202"
         id="stop28" /><stop
         style="stop-opacity:1;stop-color:#363737"
         offset="0.788696"
         id="stop30" /><stop
         style="stop-opacity:1;stop-color:#292929"
         offset="1"
         id="stop32" /></linearGradient><linearGradient
       x1="0"
       y1="0"
       x2="1"
       y2="0"
       gradientUnits="userSpaceOnUse"
       gradientTransform="matrix(0,112.05225,-112.05225,0,60.529297,4.3320312)"
       spreadMethod="pad"
       id="linearGradient48"><stop
         style="stop-opacity:1;stop-color:#292929"
         offset="0"
         id="stop50" /><stop
         style="stop-opacity:1;stop-color:#363737"
         offset="0.211304"
         id="stop52" /><stop
         style="stop-opacity:1;stop-color:#48484a"
         offset="0.602798"
         id="stop54" /><stop
         style="stop-opacity:1;stop-color:#4d4d4f"
         offset="1"
         id="stop56" /></linearGradient><linearGradient
       x1="0"
       y1="0"
       x2="1"
       y2="0"
       gradientUnits="userSpaceOnUse"
       gradientTransform="matrix(112.05176,0,0,112.05176,4.5029297,88.030273)"
       spreadMethod="pad"
       id="linearGradient72"><stop
         style="stop-opacity:1;stop-color:#292929"
         offset="0"
         id="stop74" /><stop
         style="stop-opacity:1;stop-color:#657178"
         offset="0.130402"
         id="stop76" /><stop
         style="stop-opacity:1;stop-color:#7e9dab"
         offset="0.266098"
         id="stop78" /><stop
         style="stop-opacity:1;stop-color:#85bbd4"
         offset="0.378799"
         id="stop80" /><stop
         style="stop-opacity:1;stop-color:#84cded"
         offset="0.462402"
         id="stop82" /><stop
         style="stop-opacity:1;stop-color:#84d4f7"
         offset="0.507797"
         id="stop84" /><stop
         style="stop-opacity:1;stop-color:#292929"
         offset="1"
         id="stop86" /></linearGradient><linearGradient
       x1="0"
       y1="0"
       x2="1"
       y2="0"
       gradientUnits="userSpaceOnUse"
       gradientTransform="matrix(112.05176,0,0,-112.05176,4.5029297,32.685547)"
       spreadMethod="pad"
       id="linearGradient102"><stop
         style="stop-opacity:1;stop-color:#292929"
         offset="0"
         id="stop104" /><stop
         style="stop-opacity:1;stop-color:#657178"
         offset="0.130402"
         id="stop106" /><stop
         style="stop-opacity:1;stop-color:#7e9dab"
         offset="0.266098"
         id="stop108" /><stop
         style="stop-opacity:1;stop-color:#85bbd4"
         offset="0.378799"
         id="stop110" /><stop
         style="stop-opacity:1;stop-color:#84cded"
         offset="0.462402"
         id="stop112" /><stop
         style="stop-opacity:1;stop-color:#84d4f7"
         offset="0.507797"
         id="stop114" /><stop
         style="stop-opacity:1;stop-color:#292929"
         offset="1"
         id="stop116" /></linearGradient><radialGradient
       fx="0"
       fy="0"
       cx="0"
       cy="0"
       r="1"
       gradientUnits="userSpaceOnUse"
       gradientTransform="matrix(72.243652,0,0,72.243652,36.919922,98.985352)"
       spreadMethod="pad"
       id="radialGradient132"><stop
         style="stop-opacity:1;stop-color:#2a7ea9"
         offset="0"
         id="stop134" /><stop
         style="stop-opacity:1;stop-color:#2881ac"
         offset="0.0158997"
         id="stop136" /><stop
         style="stop-opacity:1;stop-color:#2795c1"
         offset="0.144302"
         id="stop138" /><stop
         style="stop-opacity:1;stop-color:#27a7d2"
         offset="0.280502"
         id="stop140" /><stop
         style="stop-opacity:1;stop-color:#3bb7e0"
         offset="0.424896"
         id="stop142" /><stop
         style="stop-opacity:1;stop-color:#56c4ee"
         offset="0.581299"
         id="stop144" /><stop
         style="stop-opacity:1;stop-color:#67cbf3"
         offset="0.758301"
         id="stop146" /><stop
         style="stop-opacity:1;stop-color:#6ccef5"
         offset="1"
         id="stop148" /></radialGradient><clipPath
       clipPathUnits="userSpaceOnUse"
       id="clipPath156"><path
         d="M 0,121 121,121 121,0 0,0 0,121 z"
         id="path158" /></clipPath><radialGradient
       fx="0"
       fy="0"
       cx="0"
       cy="0"
       r="1"
       gradientUnits="userSpaceOnUse"
       gradientTransform="matrix(72.243652,0,0,72.243652,36.919922,98.985352)"
       spreadMethod="pad"
       id="radialGradient176"><stop
         style="stop-opacity:1;stop-color:#2a7ea9"
         offset="0"
         id="stop178" /><stop
         style="stop-opacity:1;stop-color:#2881ac"
         offset="0.0158997"
         id="stop180" /><stop
         style="stop-opacity:1;stop-color:#2795c1"
         offset="0.144302"
         id="stop182" /><stop
         style="stop-opacity:1;stop-color:#27a7d2"
         offset="0.280502"
         id="stop184" /><stop
         style="stop-opacity:1;stop-color:#3bb7e0"
         offset="0.424896"
         id="stop186" /><stop
         style="stop-opacity:1;stop-color:#56c4ee"
         offset="0.581299"
         id="stop188" /><stop
         style="stop-opacity:1;stop-color:#67cbf3"
         offset="0.758301"
         id="stop190" /><stop
         style="stop-opacity:1;stop-color:#6ccef5"
         offset="1"
         id="stop192" /></radialGradient><clipPath
       clipPathUnits="userSpaceOnUse"
       id="clipPath200"><path
         d="M 0,121 121,121 121,0 0,0 0,121 z"
         id="path202" /></clipPath><clipPath
       clipPathUnits="userSpaceOnUse"
       id="clipPath212"><path
         d="m -40.8662,157.494 191.3762,0 0,-180.5858 -191.3762,0 0,180.5858 z"
         id="path214" /></clipPath><clipPath
       clipPathUnits="userSpaceOnUse"
       id="clipPath216"><path
         d="m 5.049,58.296 c 0,-14.813 6.051,-28.061 15.473,-38.066 4.898,40.443 39.03,71.893 80.792,71.893 1.125,0 2.17,-0.228 3.281,-0.27 -10.217,13.286 -25.63,22.319 -43.676,22.319 C 30.075,114.173 5.049,89.15 5.049,58.296"
         id="path218" /></clipPath><clipPath
       clipPathUnits="userSpaceOnUse"
       id="clipPath220"><path
         d="m -40.8662,157.494 191.3762,0 0,-180.5858 -191.3762,0 0,180.5858 z"
         id="path222" /></clipPath><clipPath
       clipPathUnits="userSpaceOnUse"
       id="clipPath224"><path
         d="m -40.8662,157.494 191.3762,0 0,-180.5858 -191.3762,0 0,180.5858 z"
         id="path226" /></clipPath><linearGradient
       x1="0"
       y1="0"
       x2="1"
       y2="0"
       gradientUnits="userSpaceOnUse"
       gradientTransform="matrix(38.51236,-54.613586,57.878555,36.339859,18.9375,118.03906)"
       spreadMethod="pad"
       id="linearGradient232"><stop
         style="stop-opacity:1;stop-color:#ffffff"
         offset="0"
         id="stop234" /><stop
         style="stop-opacity:1;stop-color:#292929"
         offset="1"
         id="stop236" /></linearGradient><mask
       maskUnits="userSpaceOnUse"
       x="0"
       y="0"
       width="1"
       height="1"
       id="mask238"><g
         id="g240"><g
           clip-path="url(#clipPath220)"
           id="g242"><path
             d="m -40.866,157.494 191.376,0 0,-180.586 -191.376,0 0,180.586 z"
             style="fill:#000000;fill-opacity:1;fill-rule:nonzero;stroke:none"
             id="path244" /><g
             id="g246"><g
               id="g248" /><g
               id="g250"><g
                 clip-path="url(#clipPath224)"
                 id="g252"><g
                   id="g254"><g
                     id="g256"><g
                       id="g258"><g
                         id="g260"><path
                           d="m 5.049,58.296 c 0,-14.812 6.051,-28.06 15.473,-38.066 l 0,0 c 4.898,40.443 39.03,71.893 80.793,71.893 l 0,0 c 1.125,0 2.17,-0.228 3.279,-0.271 l 0,0 c -10.216,13.287 -25.629,22.32 -43.675,22.32 l 0,0 C 30.074,114.173 5.049,89.15 5.049,58.296"
                           style="fill:url(#linearGradient232);stroke:none"
                           id="path262" /></g></g></g></g></g></g></g></g></g></mask><clipPath
       clipPathUnits="userSpaceOnUse"
       id="clipPath264"><path
         d="m -40.8662,157.494 191.3762,0 0,-180.5858 -191.3762,0 0,180.5858 z"
         id="path266" /></clipPath><linearGradient
       x1="0"
       y1="0"
       x2="1"
       y2="0"
       gradientUnits="userSpaceOnUse"
       gradientTransform="matrix(38.51236,-54.613586,57.878555,36.339859,18.9375,118.03906)"
       spreadMethod="pad"
       id="linearGradient272"><stop
         style="stop-opacity:1;stop-color:#ffffff"
         offset="0"
         id="stop274" /><stop
         style="stop-opacity:1;stop-color:#ffffff"
         offset="1"
         id="stop276" /></linearGradient></defs><sodipodi:namedview
     pagecolor="#ffffff"
     bordercolor="#666666"
     borderopacity="1"
     objecttolerance="10"
     gridtolerance="10"
     guidetolerance="10"
     inkscape:pageopacity="0"
     inkscape:pageshadow="2"
     inkscape:window-width="640"
     inkscape:window-height="480"
     id="namedview4"
     showgrid="false"
     inkscape:zoom="1.5603306"
     inkscape:cx="75.625"
     inkscape:cy="75.625"
     inkscape:window-x="0"
     inkscape:window-y="0"
     inkscape:window-maximized="0"
     inkscape:current-layer="g10" /><g
     id="g10"
     inkscape:groupmode="layer"
     inkscape:label="horn-off"
     transform="matrix(1.25,0,0,-1.25,0,151.25)"><g
       id="g12"><g
         id="g14"><g
           id="g20"><g
             id="g22"><path
               d="M 59.53,121 C 27.76,120.487 1.926,95.537 0,64.129 l 0,0 0,-7.536 C 1.825,26.817 25.131,2.855 54.61,0 l 0,0 11.84,0 C 95.644,2.827 118.775,26.345 121,55.712 l 0,0 0,9.297 C 118.651,96.003 93.004,120.49 61.526,121 l 0,0 -1.996,0 z"
               style="fill:url(#linearGradient24);stroke:none"
               id="path34" /></g></g></g></g><g
       id="g36"><g
         id="g38"><g
           id="g44"><g
             id="g46"><path
               d="M 4.503,60.36 C 4.503,29.469 29.637,4.331 60.529,4.331 l 0,0 c 30.897,0 56.026,25.138 56.026,56.029 l 0,0 c 0,30.892 -25.129,56.023 -56.026,56.023 l 0,0 C 29.638,116.383 4.503,91.256 4.503,60.36"
               style="fill:url(#linearGradient48);stroke:none"
               id="path58" /></g></g></g></g><g
       id="g60"><g
         id="g62"><g
           id="g68"><g
             id="g70"><path
               d="m 4.503,60.361 c 0,-0.234 0.03,-0.452 0.037,-0.687 l 0,0 c 0.372,30.569 25.332,55.336 55.989,55.336 l 0,0 c 30.663,0 55.615,-24.767 55.99,-55.336 l 0,0 c 0.007,0.234 0.036,0.452 0.036,0.687 l 0,0 c 0,30.897 -25.129,56.026 -56.026,56.026 l 0,0 C 29.637,116.387 4.503,91.256 4.503,60.361"
               style="fill:url(#linearGradient72);stroke:none"
               id="path88" /></g></g></g></g><g
       id="g90"><g
         id="g92"><g
           id="g98"><g
             id="g100"><path
               d="M 60.529,5.703 C 29.872,5.703 4.912,30.465 4.54,61.041 l 0,0 C 4.533,60.809 4.503,60.587 4.503,60.353 l 0,0 C 4.503,29.456 29.637,4.329 60.529,4.329 l 0,0 c 30.897,0 56.026,25.127 56.026,56.024 l 0,0 c 0,0.234 -0.029,0.456 -0.036,0.688 l 0,0 C 116.144,30.467 91.192,5.703 60.529,5.703"
               style="fill:url(#linearGradient102);stroke:none"
               id="path118" /></g></g></g></g><g
       id="g120"><g
         id="g122"><g
           id="g128"><g
             id="g130"><path
               d="m 60.777,94.434 c -2.728,-0.129 -5.189,-0.396 -7.433,-1.006 l 0,0 c -2.232,-0.608 -4.263,-1.32 -6.172,-2.236 l 0,0 C 43.366,89.368 40.225,86.978 37.44,84.137 l 0,0 c -2.823,-2.88 -4.984,-6.118 -6.707,-10.078 l 0,0 c -0.836,-1.92 -1.55,-4.052 -2.016,-6.36 l 0,0 c -0.478,-2.355 -0.662,-4.947 -0.662,-7.685 l 0,0 c 0,-2.619 0.441,-5.132 1.009,-7.369 l 0,0 c 1.685,-6.649 5.046,-11.899 9.258,-15.939 l 0,0 c 4.339,-4.151 9.568,-7.155 16.472,-8.72 l 0,0 c 2.339,-0.532 4.919,-0.694 7.715,-0.694 l 0,0 c 2.549,0 5.049,0.475 7.337,1.039 l 0,0 c 6.686,1.652 11.932,5.036 15.971,9.229 l 0,0 c 2.775,2.885 4.962,6.173 6.707,10.077 l 0,0 c 1.757,3.936 2.707,8.506 2.707,14.077 l 0,0 c 0,1.292 -0.136,2.61 -0.345,3.843 l 0,0 c -0.21,1.216 -0.372,2.399 -0.663,3.526 l 0,0 c -1.176,4.514 -3.036,8.207 -5.354,11.433 l 0,0 c -2.334,3.248 -5.209,6.026 -8.535,8.251 l 0,0 c -4.18,2.793 -9.124,4.885 -15.465,5.542 l 0,0 c -0.934,0.097 -2.021,0.149 -3.008,0.149 l 0,0 c -0.381,0 -0.747,-0.008 -1.084,-0.024 M 45.251,79.475 c 1.887,1.736 4.107,3.106 6.582,4.189 l 0,0 c 1.259,0.551 2.611,1.014 4.031,1.355 l 0,0 c 1.469,0.352 3.157,0.601 4.85,0.662 l 0,0 c 3.621,0.125 6.905,-0.555 9.668,-1.575 l 0,0 c 2.737,-1.013 5.126,-2.508 7.119,-4.159 l 0,0 c 3.065,-2.537 5.53,-5.797 7.148,-9.793 l 0,0 c 0.49,-1.218 0.921,-2.535 1.173,-3.933 l 0,0 c -1.136,0.543 -4.778,1.442 -7.238,2.019 l 0,0 C 74.339,72 63.173,72.675 61.771,72.743 l 0,0 L 61.21,72.74 C 59.833,72.675 48.371,71.982 44.266,68.082 l 0,0 C 41.939,67.558 38.46,66.718 37.439,66.188 l 0,0 c 1.21,5.708 4.16,9.93 7.812,13.287 M 68.394,42.881 c 0.358,1.576 5.373,8.168 7.449,9.957 l 0,0 c 0.981,0.848 3.311,2.061 5.638,3.184 l 0,0 c 0.688,0.293 1.375,0.593 2.065,0.878 l 0,0 c 0.868,0.361 1.746,0.729 2.615,1.104 l 0,0 c 0.023,0.006 0.028,-0.014 0.03,-0.031 l 0,0 c 0.024,-0.782 -0.125,-1.556 -0.282,-2.272 l 0,0 C 84.49,49.238 81.015,44.598 76.587,41.117 l 0,0 c -0.746,-0.584 -1.549,-1.094 -2.363,-1.603 l 0,0 c -0.275,-0.173 -0.587,-0.276 -0.881,-0.441 l 0,0 c -1.817,-1.02 -3.873,-1.838 -6.121,-2.329 l 0,0 c 0.308,2.617 0.91,4.986 1.172,6.137 m -24.497,0.726 c -1.762,1.76 -3.266,3.801 -4.441,6.141 l 0,0 c -0.867,1.728 -1.603,3.729 -2.078,5.857 l 0,0 c -0.162,0.728 -0.217,1.516 -0.38,2.299 l 0,0 c 0.02,0.045 0.051,0.078 0.096,0.096 l 0,0 0.062,0 c 1.772,-0.781 3.524,-1.523 5.271,-2.264 l 0,0 c 2.121,-1.039 4.151,-2.125 5.051,-2.898 l 0,0 c 2.077,-1.79 7.092,-8.382 7.449,-9.957 l 0,0 c 0.261,-1.146 0.861,-3.512 1.17,-6.121 l 0,0 c -5.161,1.125 -9.09,3.735 -12.2,6.847"
               style="fill:url(#radialGradient132);stroke:none"
               id="path150" /></g></g></g></g><g
       id="g152"><g
         id="g154"
         clip-path="url(#clipPath156)"><g
           id="g160"
           transform="translate(85.9082,55.7012)"><path
             d="m 0,0 c -1.418,-6.463 -4.893,-11.104 -9.321,-14.584 -0.746,-0.584 -1.55,-1.094 -2.364,-1.604 -0.274,-0.172 -0.586,-0.275 -0.88,-0.441 -1.818,-1.019 -3.873,-1.838 -6.122,-2.328 0.308,2.617 0.911,4.986 1.172,6.138 0.359,1.575 5.373,8.167 7.45,9.956 0.981,0.847 3.311,2.061 5.637,3.184 0.689,0.292 1.375,0.592 2.066,0.877 0.868,0.362 1.746,0.73 2.614,1.105 C 0.275,2.31 0.281,2.288 0.283,2.272 0.308,1.489 0.158,0.716 0,0 z m -42.011,-12.095 c -1.761,1.761 -3.266,3.802 -4.442,6.142 -0.866,1.728 -1.602,3.729 -2.077,5.856 -0.162,0.729 -0.218,1.517 -0.38,2.3 0.019,0.045 0.052,0.077 0.097,0.096 l 0.062,0 c 1.771,-0.78 3.522,-1.524 5.27,-2.264 2.121,-1.039 4.15,-2.125 5.05,-2.898 2.077,-1.79 7.093,-8.383 7.45,-9.957 0.261,-1.147 0.861,-3.512 1.169,-6.12 -5.161,1.124 -9.089,3.734 -12.199,6.845 z m 1.354,35.869 c 1.887,1.736 4.107,3.106 6.582,4.189 1.259,0.551 2.611,1.015 4.031,1.355 1.469,0.352 3.157,0.601 4.85,0.661 3.621,0.125 6.905,-0.554 9.668,-1.575 2.737,-1.011 5.126,-2.508 7.119,-4.158 3.065,-2.537 5.53,-5.797 7.147,-9.793 0.49,-1.219 0.922,-2.535 1.174,-3.933 -1.137,0.543 -4.778,1.442 -7.238,2.019 -4.245,3.76 -15.411,4.435 -16.813,4.502 l -0.561,-0.002 c -1.377,-0.065 -12.839,-0.758 -16.944,-4.658 -2.327,-0.525 -5.806,-1.364 -6.827,-1.895 1.21,5.709 4.159,9.931 7.812,13.288 z M 8.978,9.855 c -0.209,1.216 -0.372,2.4 -0.664,3.527 -1.174,4.514 -3.035,8.207 -5.353,11.432 -2.334,3.249 -5.209,6.027 -8.535,8.251 -4.18,2.793 -9.124,4.886 -15.465,5.543 -1.295,0.134 -2.885,0.183 -4.092,0.125 -2.728,-0.129 -5.189,-0.396 -7.433,-1.006 -2.232,-0.609 -4.263,-1.321 -6.172,-2.237 -3.806,-1.823 -6.948,-4.214 -9.732,-7.053 -2.824,-2.881 -4.985,-6.119 -6.707,-10.079 -0.836,-1.92 -1.55,-4.052 -2.016,-6.36 -0.477,-2.355 -0.663,-4.947 -0.663,-7.685 0,-2.62 0.441,-5.132 1.01,-7.37 1.684,-6.648 5.046,-11.898 9.258,-15.938 4.338,-4.151 9.567,-7.155 16.472,-8.721 2.339,-0.531 4.919,-0.693 7.715,-0.693 2.549,0 5.048,0.474 7.337,1.039 6.685,1.651 11.931,5.035 15.97,9.228 2.777,2.886 4.963,6.173 6.707,10.078 1.758,3.935 2.707,8.505 2.707,14.077 0,1.292 -0.135,2.61 -0.344,3.842 z"
             style="fill:none;stroke:#292929;stroke-opacity:1;stroke-width:4;stroke-linecap:butt;stroke-linejoin:miter;stroke-miterlimit:10;stroke-dasharray:none"
             id="path162" /></g></g></g><g
       id="g164"><g
         id="g166"><g
           id="g172"><g
             id="g174"><path
               d="m 60.777,94.434 c -2.728,-0.129 -5.189,-0.396 -7.433,-1.006 l 0,0 c -2.232,-0.608 -4.263,-1.32 -6.172,-2.236 l 0,0 C 43.366,89.368 40.225,86.978 37.44,84.137 l 0,0 c -2.823,-2.88 -4.984,-6.118 -6.707,-10.078 l 0,0 c -0.836,-1.92 -1.55,-4.052 -2.016,-6.36 l 0,0 c -0.478,-2.355 -0.662,-4.947 -0.662,-7.685 l 0,0 c 0,-2.619 0.441,-5.132 1.009,-7.369 l 0,0 c 1.685,-6.649 5.046,-11.899 9.258,-15.939 l 0,0 c 4.339,-4.151 9.568,-7.155 16.472,-8.72 l 0,0 c 2.339,-0.532 4.919,-0.694 7.715,-0.694 l 0,0 c 2.549,0 5.049,0.475 7.337,1.039 l 0,0 c 6.686,1.652 11.932,5.036 15.971,9.229 l 0,0 c 2.775,2.885 4.962,6.173 6.707,10.077 l 0,0 c 1.757,3.936 2.707,8.506 2.707,14.077 l 0,0 c 0,1.292 -0.136,2.61 -0.345,3.843 l 0,0 c -0.21,1.216 -0.372,2.399 -0.663,3.526 l 0,0 c -1.176,4.514 -3.036,8.207 -5.354,11.433 l 0,0 c -2.334,3.248 -5.209,6.026 -8.535,8.251 l 0,0 c -4.18,2.793 -9.124,4.885 -15.465,5.542 l 0,0 c -0.934,0.097 -2.021,0.149 -3.008,0.149 l 0,0 c -0.381,0 -0.747,-0.008 -1.084,-0.024 M 45.251,79.475 c 1.887,1.736 4.107,3.106 6.582,4.189 l 0,0 c 1.259,0.551 2.611,1.014 4.031,1.355 l 0,0 c 1.469,0.352 3.157,0.601 4.85,0.662 l 0,0 c 3.621,0.125 6.905,-0.555 9.668,-1.575 l 0,0 c 2.737,-1.013 5.126,-2.508 7.119,-4.159 l 0,0 c 3.065,-2.537 5.53,-5.797 7.148,-9.793 l 0,0 c 0.49,-1.218 0.921,-2.535 1.173,-3.933 l 0,0 c -1.136,0.543 -4.778,1.442 -7.238,2.019 l 0,0 C 74.339,72 63.173,72.675 61.771,72.743 l 0,0 L 61.21,72.74 C 59.833,72.675 48.371,71.982 44.266,68.082 l 0,0 C 41.939,67.558 38.46,66.718 37.439,66.188 l 0,0 c 1.21,5.708 4.16,9.93 7.812,13.287 M 68.394,42.881 c 0.358,1.576 5.373,8.168 7.449,9.957 l 0,0 c 0.981,0.848 3.311,2.061 5.638,3.184 l 0,0 c 0.688,0.293 1.375,0.593 2.065,0.878 l 0,0 c 0.868,0.361 1.746,0.729 2.615,1.104 l 0,0 c 0.023,0.006 0.028,-0.014 0.03,-0.031 l 0,0 c 0.024,-0.782 -0.125,-1.556 -0.282,-2.272 l 0,0 C 84.49,49.238 81.015,44.598 76.587,41.117 l 0,0 c -0.746,-0.584 -1.549,-1.094 -2.363,-1.603 l 0,0 c -0.275,-0.173 -0.587,-0.276 -0.881,-0.441 l 0,0 c -1.817,-1.02 -3.873,-1.838 -6.121,-2.329 l 0,0 c 0.308,2.617 0.91,4.986 1.172,6.137 m -24.497,0.726 c -1.762,1.76 -3.266,3.801 -4.441,6.141 l 0,0 c -0.867,1.728 -1.603,3.729 -2.078,5.857 l 0,0 c -0.162,0.728 -0.217,1.516 -0.38,2.299 l 0,0 c 0.02,0.045 0.051,0.078 0.096,0.096 l 0,0 0.062,0 c 1.772,-0.781 3.524,-1.523 5.271,-2.264 l 0,0 c 2.121,-1.039 4.151,-2.125 5.051,-2.898 l 0,0 c 2.077,-1.79 7.092,-8.382 7.449,-9.957 l 0,0 c 0.261,-1.146 0.861,-3.512 1.17,-6.121 l 0,0 c -5.161,1.125 -9.09,3.735 -12.2,6.847"
               style="fill:url(#radialGradient176);stroke:none"
               id="path194" /></g></g></g></g><g
       id="g196"><g
         id="g198"
         clip-path="url(#clipPath200)"><g
           id="g204"
           transform="translate(64.0049,49.8477)"><path
             d="m 0,0 -4.458,0 c 0,0 -0.691,0.1 -0.691,0.43 l 0,2.281 -3.805,4.199 0,0.493 0,0.166 13.549,0 0,-0.527 -3.834,-4.396 0,-2.116 C 0.762,0.526 0.794,0 0,0"
             style="fill:#292929;fill-opacity:1;fill-rule:nonzero;stroke:none"
             id="path206" /></g><g
           id="g208"><g
             id="g210" /><g
             id="g278"><g
               clip-path="url(#clipPath212)"
               opacity="0.5"
               id="g280"><g
                 id="g282"><g
                   clip-path="url(#clipPath216)"
                   id="g284"><g
                     id="g286"><g
                       id="g288" /><g
                       mask="url(#mask238)"
                       id="g290"><g
                         id="g292" /><g
                         id="g294"><g
                           clip-path="url(#clipPath264)"
                           id="g296"><g
                             id="g298"><g
                               id="g300"><g
                                 id="g302"><g
                                   id="g304"><path
                                   d="M -40.866,85.346 35.597,-23.092 150.51,49.059 74.045,157.494 -40.866,85.346 z"
                                   style="fill:url(#linearGradient272);stroke:none"
                                   id="path306" /></g></g></g></g></g></g></g></g></g></g></g></g></g></g></g></g></svg>