<?xml version="1.0" encoding="utf-8"?>
<!-- Generator: Adobe Illustrator 15.1.0, SVG Export Plug-In . SVG Version: 6.00 Build 0)  -->
<!DOCTYPE svg PUBLIC "-//W3C//DTD SVG 1.1//EN" "http://www.w3.org/Graphics/SVG/1.1/DTD/svg11.dtd">
<svg version="1.1"
	 id="svg2" inkscape:version="0.48.2 r9819" sodipodi:docname="sunroof.bracket.ai" xmlns:rdf="http://www.w3.org/1999/02/22-rdf-syntax-ns#" xmlns:dc="http://purl.org/dc/elements/1.1/" xmlns:cc="http://creativecommons.org/ns#" xmlns:svg="http://www.w3.org/2000/svg" xmlns:sodipodi="http://sodipodi.sourceforge.net/DTD/sodipodi-0.dtd" xmlns:inkscape="http://www.inkscape.org/namespaces/inkscape"
	 xmlns="http://www.w3.org/2000/svg" xmlns:xlink="http://www.w3.org/1999/xlink" x="0px" y="0px" width="381.336px"
	 height="26.243px" viewBox="0 0 381.336 26.243" enable-background="new 0 0 381.336 26.243" xml:space="preserve">
<sodipodi:namedview  id="namedview4" objecttolerance="10" borderopacity="1" pagecolor="#ffffff" inkscape:window-width="640" fit-margin-top="0" inkscape:window-maximized="0" guidetolerance="10" bordercolor="#666666" gridtolerance="10" inkscape:pageopacity="0" inkscape:pageshadow="2" inkscape:window-height="480" inkscape:cx="191.46" showgrid="false" inkscape:zoom="0.30849673" fit-margin-left="0" fit-margin-right="0" fit-margin-bottom="0" inkscape:cy="13.250875" inkscape:window-x="0" inkscape:window-y="0" inkscape:current-layer="g10">
	</sodipodi:namedview>
<g id="g10" transform="matrix(1.25,0,0,-1.25,-303.54,395.49225)" inkscape:groupmode="layer" inkscape:label="sunroof.bracket">
	<g id="g12">
		<g>
			<g>
				<defs>
					<rect id="SVGID_1_" x="-222.75" y="-172.125" width="1237.5" height="956.25"/>
				</defs>
				<clipPath id="SVGID_2_">
					<use xlink:href="#SVGID_1_"  overflow="visible"/>
				</clipPath>
				<g id="g14" clip-path="url(#SVGID_2_)">
					<g id="g48" transform="translate(428.6514,300.1328)">
						
							<path id="path50" inkscape:connector-curvature="0" fill="none" stroke="#7F7E7E" stroke-width="0.75" stroke-miterlimit="10" d="
							M-29.418,0h88.725v16.261"/>
					</g>
					<g id="g52" transform="translate(365.832,300.1328)">
						
							<path id="path54" inkscape:connector-curvature="0" fill="none" stroke="#7F7E7E" stroke-width="0.75" stroke-miterlimit="10" d="
							M-34.218,0h-88.543v16.261"/>
					</g>
				</g>
			</g>
		</g>
	</g>
</g>
<g>
	<path fill="#787878" d="M121.797,26.243v-4.379h-3.66v4.379h-1.59V16.194h1.59v4.049h3.66v-4.049h1.59v10.049H121.797z"/>
	<path fill="#787878" d="M129.312,26.243h-1.23l-3.18-10.049h1.665l2.146,6.705l2.114-6.705h1.695L129.312,26.243z"/>
	<path fill="#787878" d="M139.932,26.243l-0.99-2.82h-3.135l-0.99,2.82h-1.694l3.465-10.049h1.575l3.465,10.049H139.932z
		 M137.396,18.983l-1.035,2.82h2.011L137.396,18.983z"/>
	<path fill="#787878" d="M146.741,26.422c-1.484,0-2.43-0.568-3.074-1.799c-0.45-0.885-0.735-2.16-0.735-3.42
		c0-1.59,0.42-3.18,1.125-4.064c0.6-0.736,1.439-1.125,2.58-1.125c1.515,0,2.46,0.645,3.135,2.055l-1.485,0.629
		c-0.555-0.854-0.885-1.064-1.649-1.064c-0.811,0-1.351,0.359-1.695,1.246c-0.255,0.6-0.39,1.469-0.39,2.324
		c0,1.094,0.24,2.189,0.63,2.82c0.36,0.523,0.81,0.779,1.515,0.779c0.675,0,1.17-0.359,1.561-1.17l1.515,0.57
		C149.171,25.672,148.182,26.422,146.741,26.422z"/>
	<path fill="#787878" d="M157.091,14.903l-3.93,12.631h-1.305l3.93-12.631H157.091z"/>
	<path fill="#787878" d="M162.701,17.604v8.639h-1.59v-8.639h-2.295v-1.41h6.21v1.41H162.701z"/>
	<path fill="#787878" d="M166.512,26.243V16.194h5.925v1.59h-4.335v2.459h2.925v1.621h-2.925v2.76h4.649v1.619H166.512z"/>
	<path fill="#787878" d="M180.686,26.243v-5.818l-2.324,5.818l-2.325-5.818v5.818h-1.59V16.194h1.59l2.325,5.639l2.324-5.639h1.59
		v10.049H180.686z"/>
	<path fill="#787878" d="M189.972,21.518c-0.466,0.211-1.065,0.346-1.846,0.346h-1.859v4.379h-1.59V16.194h3.449
		c0.811,0,1.351,0.074,1.846,0.314c0.869,0.42,1.545,1.484,1.545,2.506C191.517,20.079,190.841,21.127,189.972,21.518z
		 M189.296,17.963c-0.284-0.15-0.465-0.18-0.96-0.18h-2.069v2.459h2.069c0.495,0,0.676-0.029,0.96-0.164
		c0.346-0.18,0.601-0.645,0.601-1.064S189.642,18.174,189.296,17.963z"/>
</g>
</svg>
