<?xml version="1.0" encoding="utf-8"?>
<!-- Generator: Adobe Illustrator 15.1.0, SVG Export Plug-In . SVG Version: 6.00 Build 0)  -->
<!DOCTYPE svg PUBLIC "-//W3C//DTD SVG 1.1//EN" "http://www.w3.org/Graphics/SVG/1.1/DTD/svg11.dtd">
<svg version="1.1"
	 id="svg3049" sodipodi:docname="knob.small.ai" xmlns:inkscape="http://www.inkscape.org/namespaces/inkscape" inkscape:version="0.48.2 r9819" xmlns:svg="http://www.w3.org/2000/svg" xmlns:dc="http://purl.org/dc/elements/1.1/" xmlns:sodipodi="http://sodipodi.sourceforge.net/DTD/sodipodi-0.dtd" xmlns:rdf="http://www.w3.org/1999/02/22-rdf-syntax-ns#" xmlns:cc="http://creativecommons.org/ns#"
	 xmlns="http://www.w3.org/2000/svg" xmlns:xlink="http://www.w3.org/1999/xlink" x="0px" y="0px" width="18.934px"
	 height="18.936px" viewBox="0 0 18.934 18.936" enable-background="new 0 0 18.934 18.936" xml:space="preserve">
<sodipodi:namedview  inkscape:cx="8.46875" inkscape:pageshadow="2" pagecolor="#ffffff" fit-margin-top="0" borderopacity="1" bordercolor="#666666" guidetolerance="10" inkscape:window-x="0" fit-margin-right="0" inkscape:pageopacity="0" inkscape:window-width="640" inkscape:current-layer="g3057" inkscape:window-maximized="0" fit-margin-bottom="0" objecttolerance="10" gridtolerance="10" id="namedview3051" inkscape:window-y="0" inkscape:window-height="480" inkscape:cy="9.53625" fit-margin-left="0" inkscape:zoom="0.15424837" showgrid="false">
	</sodipodi:namedview>
<g id="g3057" transform="matrix(1.25,0,0,-1.25,-756.53125,774.39875)" inkscape:groupmode="layer" inkscape:label="knob.small">
	<g id="g3059">
		<g id="g3061">
			<g id="g3067">
				<g id="g3069">
					<path id="path3079" inkscape:connector-curvature="0" fill="#4D4C4E" d="M605.225,611.946c0-4.184,3.389-7.575,7.572-7.575l0,0
						c4.185,0,7.575,3.391,7.575,7.575l0,0c0,4.184-3.39,7.573-7.575,7.573l0,0C608.614,619.519,605.225,616.129,605.225,611.946"/>
				</g>
			</g>
		</g>
	</g>
	<g id="g3081">
		<g>
			<defs>
				<path id="SVGID_1_" d="M605.641,612.488c-0.001-0.017-0.002-0.033-0.003-0.05l0,0c-0.01-0.162-0.016-0.326-0.016-0.49l0,0
					c0-0.023,0-0.045,0-0.067l0,0c0-0.002,0-0.004,0-0.006l0,0c0.008-0.838,0.161-1.644,0.434-2.391l0,0
					c1.557-4.111,6.942-5.482,10.248-3.781l0,0c0.334,0.184,0.652,0.391,0.949,0.621l0,0c3.442,2.779,3.348,8.864-0.284,11.464l0,0
					c-1.05,0.751-2.406,1.119-3.814,1.119l0,0C609.702,618.907,605.938,616.694,605.641,612.488"/>
			</defs>
			<clipPath id="SVGID_2_">
				<use xlink:href="#SVGID_1_"  overflow="visible"/>
			</clipPath>
			<g id="g3083" clip-path="url(#SVGID_2_)">
				<g id="g3089">
					<g id="g3091" transform="scale(1,-1)">
						<g id="g3093">
							<path id="path3095" inkscape:connector-curvature="0" fill="#373535" d="M612.798-611.948c-5.324,0-4.785,0-7.176,0
								c0-0.165,0.006-0.328,0.016-0.49C608.024-612.274,607.6-612.233,612.798-611.948L612.798-611.948z"/>
							<path id="path3097" inkscape:connector-curvature="0" fill="#373535" d="M612.798-611.948
								c-5.197-0.285-4.773-0.326-7.16-0.49c0.025-0.375-0.063-0.699-0.137-1.026C607.725-613.016,608.029-612.782,612.798-611.948
								L612.798-611.948z"/>
							<path id="path3099" inkscape:connector-curvature="0" fill="#3E3C3D" d="M612.798-611.948
								c-4.769-0.834-5.073-1.068-7.297-1.516c-0.074-0.327-0.132-0.656-0.045-1.04
								C607.322-613.432,608.971-613.991,612.798-611.948L612.798-611.948L612.798-611.948z"/>
							<path id="path3101" inkscape:connector-curvature="0" fill="#4D4C4E" d="M612.798-611.948
								c-3.827-2.043-5.475-1.484-7.343-2.555c0.087-0.384,0.319-0.822,0.826-1.366C607.791-614.177,609.913-615.2,612.798-611.948
								L612.798-611.948L612.798-611.948z"/>
							<path id="path3103" inkscape:connector-curvature="0" fill="#5A5A5C" d="M612.798-611.948
								c-2.885-3.252-5.007-2.229-6.516-3.922c0.507-0.545,1.288-1.198,2.475-2.009
								C610.105-615.901,610.341-615.749,612.798-611.948L612.798-611.948z"/>
							<path id="path3105" inkscape:connector-curvature="0" fill="#606163" d="M612.798-611.948
								c-2.457-3.801-2.693-3.953-4.041-5.93c0.473-0.323,0.999-0.584,1.554-0.78C611.305-616.645,610.979-615.847,612.798-611.948
								L612.798-611.948L612.798-611.948z"/>
							<path id="path3107" inkscape:connector-curvature="0" fill="#5A5A5C" d="M612.798-611.948
								c-1.819-3.899-1.492-4.697-2.487-6.71c0.555-0.196,1.141-0.328,1.735-0.391C612.265-616.954,612.382-616.064,612.798-611.948
								L612.798-611.948z"/>
							<path id="path3109" inkscape:connector-curvature="0" fill="#4D4C4E" d="M612.798-611.948
								c-0.416-4.116-0.533-5.006-0.752-7.101c0.593-0.063,1.195-0.059,1.783,0.017C613.272-616.856,613.785-616.28,612.798-611.948
								L612.798-611.948L612.798-611.948z"/>
							<path id="path3111" inkscape:connector-curvature="0" fill="#3E3C3D" d="M612.798-611.948
								c0.987-4.332,0.474-4.908,1.03-7.084c0.587,0.077,1.16,0.223,1.697,0.444C614.616-616.375,614.423-616.379,612.798-611.948
								L612.798-611.948z"/>
							<path id="path3113" inkscape:connector-curvature="0" fill="#373535" d="M612.798-611.948c1.626-4.43,1.819-4.427,2.727-6.64
								c0.213,0.088,0.386,0.101,0.559,0.119C615.009-616.39,614.759-616.075,612.798-611.948L612.798-611.948z"/>
							<path id="path3115" inkscape:connector-curvature="0" fill="#3E3C3D" d="M612.798-611.948
								c1.962-4.127,2.212-4.441,3.287-6.521c0.172,0.018,0.345,0.041,0.556,0.148C615.202-616.534,615.499-615.407,612.798-611.948
								L612.798-611.948z"/>
							<path id="path3117" inkscape:connector-curvature="0" fill="#4D4C4E" d="M612.798-611.948
								c2.702-3.459,2.404-4.586,3.843-6.373c0.211,0.107,0.463,0.298,0.791,0.652C615.629-616.174,616.239-614.74,612.798-611.948
								L612.798-611.948L612.798-611.948z"/>
							<path id="path3119" inkscape:connector-curvature="0" fill="#5A5A5C" d="M612.798-611.948
								c3.441-2.791,2.831-4.226,4.634-5.72c0.33,0.354,0.74,0.87,1.267,1.63C616.73-614.676,616.575-614.436,612.798-611.948
								L612.798-611.948z"/>
							<path id="path3121" inkscape:connector-curvature="0" fill="#606163" d="M612.798-611.948
								c3.777-2.488,3.932-2.728,5.901-4.091c0.207,0.298,0.391,0.614,0.553,0.943C617.217-613.952,616.812-614.036,612.798-611.948
								L612.798-611.948z"/>
							<path id="path3123" inkscape:connector-curvature="0" fill="#5A5A5C" d="M612.798-611.948
								c4.015-2.088,4.42-2.004,6.454-3.148c0.161,0.33,0.297,0.673,0.406,1.028C617.476-613.407,617.336-613.156,612.798-611.948
								L612.798-611.948z"/>
							<path id="path3125" inkscape:connector-curvature="0" fill="#4D4C4E" d="M612.798-611.948c4.538-1.208,4.678-1.459,6.86-2.12
								c0.109,0.355,0.193,0.722,0.247,1.096C617.577-612.793,617.859-612.275,612.798-611.948L612.798-611.948L612.798-611.948z"/>
							<path id="path3127" inkscape:connector-curvature="0" fill="#3E3C3D" d="M612.798-611.948
								c5.062-0.327,4.779-0.845,7.107-1.023c0.055,0.375,0.08,0.758,0.073,1.146C617.582-611.867,618.098-611.875,612.798-611.948
								L612.798-611.948L612.798-611.948z"/>
							<path id="path3129" inkscape:connector-curvature="0" fill="#373535" d="M612.798-611.948c5.3,0.073,4.784,0.081,7.18,0.123
								c-0.005,0.324,0.077,0.586,0.147,0.848C617.842-611.279,617.756-611.386,612.798-611.948L612.798-611.948L612.798-611.948z"
								/>
							<path id="path3131" inkscape:connector-curvature="0" fill="#3E3C3D" d="M612.798-611.948
								c4.959,0.562,5.045,0.67,7.327,0.971c0.07,0.263,0.131,0.527,0.081,0.859C618.172-610.995,617.006-610.311,612.798-611.948
								L612.798-611.948L612.798-611.948z"/>
							<path id="path3133" inkscape:connector-curvature="0" fill="#4D4C4E" d="M612.798-611.948
								c4.209,1.638,5.374,0.953,7.409,1.83c-0.05,0.331-0.208,0.729-0.573,1.259C617.845-610.312,616.256-609.234,612.798-611.948
								L612.798-611.948L612.798-611.948z"/>
							<path id="path3135" inkscape:connector-curvature="0" fill="#5A5A5C" d="M612.798-611.948
								c3.459,2.714,5.048,1.636,6.835,3.089c-0.366,0.529-0.939,1.19-1.819,2.048C616.141-608.523,615.915-608.746,612.798-611.948
								L612.798-611.948L612.798-611.948z"/>
							<path id="path3137" inkscape:connector-curvature="0" fill="#606163" d="M612.798-611.948
								c3.118,3.202,3.343,3.425,5.016,5.138c-0.409,0.398-0.875,0.746-1.38,1.036C615.1-607.586,615.291-608.482,612.798-611.948
								L612.798-611.948z"/>
							<path id="path3139" inkscape:connector-curvature="0" fill="#5A5A5C" d="M612.798-611.948
								c2.493,3.466,2.302,4.363,3.636,6.173c-0.507,0.291-1.052,0.522-1.62,0.689C614.227-607.113,613.917-607.9,612.798-611.948
								L612.798-611.948z"/>
							<path id="path3141" inkscape:connector-curvature="0" fill="#4D4C4E" d="M612.798-611.948
								c1.12,4.048,1.429,4.835,2.016,6.863c-0.567,0.166-1.156,0.268-1.748,0.297C613.226-607.032,612.543-607.318,612.798-611.948
								L612.798-611.948L612.798-611.948z"/>
							<path id="path3143" inkscape:connector-curvature="0" fill="#3E3C3D" d="M612.798-611.948
								c-0.254,4.63,0.428,4.916,0.269,7.159c-0.592,0.029-1.187-0.014-1.767-0.137
								C611.799-607.268,611.919-607.054,612.798-611.948L612.798-611.948L612.798-611.948z"/>
							<path id="path3145" inkscape:connector-curvature="0" fill="#373535" d="M612.798-611.948
								c-0.879,4.894-0.999,4.68-1.498,7.023c-0.109-0.023-0.206-0.031-0.294-0.034
								C611.554-607.275,611.825-607.125,612.798-611.948L612.798-611.948L612.798-611.948z"/>
							<path id="path3147" inkscape:connector-curvature="0" fill="#3A3838" d="M612.798-611.948
								c-0.973,4.823-1.243,4.673-1.792,6.989c-0.089-0.001-0.172,0.005-0.255,0.01
								C611.429-607.197,611.579-607.309,612.798-611.948L612.798-611.948L612.798-611.948z"/>
							<path id="path3149" inkscape:connector-curvature="0" fill="#3F3E3F" d="M612.798-611.948
								c-1.219,4.638-1.369,4.751-2.047,6.999c-0.165,0.009-0.33,0.013-0.547-0.051C611.274-607.041,610.83-607.872,612.798-611.948
								L612.798-611.948L612.798-611.948z"/>
							<path id="path3151" inkscape:connector-curvature="0" fill="#515152" d="M612.798-611.948
								c-1.968,4.076-1.523,4.907-2.594,6.948c-0.217-0.065-0.485-0.198-0.858-0.465
								C610.81-607.299,610.082-608.435,612.798-611.948L612.798-611.948z"/>
							<path id="path3153" inkscape:connector-curvature="0" fill="#616264" d="M612.798-611.948
								c-2.716,3.513-1.987,4.649-3.452,6.484c-0.186-0.134-0.398-0.301-0.643-0.51C610.297-607.74,609.835-608.619,612.798-611.948
								L612.798-611.948z"/>
							<path id="path3155" inkscape:connector-curvature="0" fill="#666769" d="M612.798-611.948
								c-2.963,3.329-2.501,4.208-4.094,5.973c-0.245-0.209-0.521-0.459-0.838-0.758
								C609.509-608.471,609.741-608.69,612.798-611.948L612.798-611.948L612.798-611.948z"/>
							<path id="path3157" inkscape:connector-curvature="0" fill="#68696B" d="M612.798-611.948
								c-3.057,3.259-3.289,3.477-4.932,5.216c-0.193-0.183-0.376-0.376-0.548-0.579
								C609.133-608.847,609.356-609.104,612.798-611.948L612.798-611.948z"/>
							<path id="path3159" inkscape:connector-curvature="0" fill="#646567" d="M612.798-611.948
								c-3.441,2.844-3.665,3.101-5.479,4.637c-0.172-0.203-0.332-0.416-0.482-0.637
								C608.823-609.283,608.971-609.519,612.798-611.948L612.798-611.948L612.798-611.948z"/>
							<path id="path3161" inkscape:connector-curvature="0" fill="#606163" d="M612.798-611.948c-1.913,1.215-2.907,1.88-3.67,2.41
								c-0.096-0.144-0.207-0.32-0.321-0.515C609.661-610.429,610.768-610.923,612.798-611.948L612.798-611.948z"/>
							<path id="path3163" inkscape:connector-curvature="0" fill="#5E5E60" d="M612.798-611.948
								c-2.03,1.025-3.137,1.519-3.991,1.895c-0.113-0.195-0.229-0.408-0.332-0.628C609.343-610.976,610.51-611.341,612.798-611.948
								L612.798-611.948L612.798-611.948z"/>
							<path id="path3165" inkscape:connector-curvature="0" fill="#565658" d="M612.798-611.948
								c-2.287,0.607-3.454,0.971-4.323,1.267c-0.103-0.219-0.195-0.443-0.26-0.659
								C609.061-611.538,610.253-611.758,612.798-611.948L612.798-611.948L612.798-611.948z"/>
							<path id="path3167" inkscape:connector-curvature="0" fill="#49494A" d="M612.798-611.948
								c-2.545,0.19-3.737,0.41-4.583,0.608c-0.066-0.216-0.105-0.423-0.105-0.608C608.939-611.948,610.136-611.948,612.798-611.948
								L612.798-611.948z"/>
							<path id="path3169" inkscape:connector-curvature="0" fill="#606163" d="M609.127-609.538
								c-0.764,0.529-1.297,0.922-2.291,1.589c-0.384-0.573-0.688-1.202-0.895-1.873c1.095-0.335,1.665-0.562,2.533-0.859
								C608.681-610.242,608.936-609.824,609.127-609.538z"/>
							<path id="path3171" inkscape:connector-curvature="0" fill="#525254" d="M608.475-610.681
								c-0.868,0.297-1.439,0.523-2.533,0.859c-0.208-0.672-0.32-1.386-0.32-2.126c1.195,0,1.658,0,2.488,0
								C608.11-611.579,608.268-611.118,608.475-610.681L608.475-610.681z"/>
						</g>
					</g>
				</g>
			</g>
		</g>
	</g>
</g>
</svg>
