<?xml version="1.0" encoding="utf-8"?>
<!-- Generator: Adobe Illustrator 15.1.0, SVG Export Plug-In . SVG Version: 6.00 Build 0)  -->
<!DOCTYPE svg PUBLIC "-//W3C//DTD SVG 1.1//EN" "http://www.w3.org/Graphics/SVG/1.1/DTD/svg11.dtd">
<svg version="1.1"
	 id="svg3679" sodipodi:docname="know.large.ai" inkscape:version="0.48.2 r9819" xmlns:dc="http://purl.org/dc/elements/1.1/" xmlns:inkscape="http://www.inkscape.org/namespaces/inkscape" xmlns:sodipodi="http://sodipodi.sourceforge.net/DTD/sodipodi-0.dtd" xmlns:cc="http://creativecommons.org/ns#" xmlns:rdf="http://www.w3.org/1999/02/22-rdf-syntax-ns#" xmlns:svg="http://www.w3.org/2000/svg"
	 xmlns="http://www.w3.org/2000/svg" xmlns:xlink="http://www.w3.org/1999/xlink" x="0px" y="0px" width="32.943px"
	 height="32.945px" viewBox="0 0 32.943 32.945" enable-background="new 0 0 32.943 32.945" xml:space="preserve">
<sodipodi:namedview  gridtolerance="10" bordercolor="#666666" guidetolerance="10" pagecolor="#ffffff" inkscape:pageopacity="0" inkscape:pageshadow="2" inkscape:window-y="0" borderopacity="1" inkscape:window-maximized="0" objecttolerance="10" inkscape:window-width="640" id="namedview3681" fit-margin-top="0" showgrid="false" inkscape:window-height="480" fit-margin-left="0" inkscape:zoom="0.15424837" inkscape:cx="15.56875" inkscape:cy="16.785" fit-margin-right="0" fit-margin-bottom="0" inkscape:window-x="0" inkscape:current-layer="g3687">
	</sodipodi:namedview>
<g id="g3687" transform="matrix(1.25,0,0,-1.25,-749.43125,781.16)" inkscape:groupmode="layer" inkscape:label="know.large">
	<g id="g3689">
		<g id="g3691">
			<g id="g3697">
				<g id="g3699">
					
						<linearGradient id="path3707_1_" gradientUnits="userSpaceOnUse" x1="289.305" y1="375.7532" x2="290.305" y2="375.7532" gradientTransform="matrix(0 32.9443 32.9443 0 -11766.25 -8932.3623)">
						<stop  offset="0" style="stop-color:#4D4C4E"/>
						<stop  offset="1" style="stop-color:#373535"/>
					</linearGradient>
					<path id="path3707" inkscape:connector-curvature="0" fill="url(#path3707_1_)" d="M599.545,611.753
						c0-7.281,5.9-13.181,13.178-13.181l0,0c7.277,0,13.177,5.9,13.177,13.181l0,0c0,7.277-5.899,13.175-13.177,13.175l0,0
						C605.445,624.928,599.545,619.03,599.545,611.753"/>
				</g>
			</g>
		</g>
	</g>
	<g id="g3709">
		<g id="g3711">
			<g id="g3717">
				<g id="g3719">
					
						<linearGradient id="path3727_1_" gradientUnits="userSpaceOnUse" x1="288.7253" y1="376.5125" x2="289.7253" y2="376.5125" gradientTransform="matrix(0 30.4346 30.4346 0 -10846.2822 -8187.6494)">
						<stop  offset="0" style="stop-color:#373535"/>
						<stop  offset="1" style="stop-color:#4D4C4E"/>
					</linearGradient>
					<path id="path3727" inkscape:connector-curvature="0" fill="url(#path3727_1_)" d="M600.547,611.753
						c0-6.716,5.463-12.177,12.177-12.177l0,0c6.712,0,12.172,5.461,12.172,12.177l0,0c0,6.711-5.46,12.171-12.172,12.171l0,0
						C606.009,623.924,600.547,618.464,600.547,611.753"/>
				</g>
			</g>
		</g>
	</g>
	<g id="g3729">
		<g id="g3731">
			<g id="g3737">
				<g id="g3739">
					
						<linearGradient id="path3749_1_" gradientUnits="userSpaceOnUse" x1="306.2859" y1="374.1469" x2="307.2859" y2="374.1469" gradientTransform="matrix(30.4346 0 0 -30.4346 -8721.127 12004.7793)">
						<stop  offset="0" style="stop-color:#373535"/>
						<stop  offset="0.5078" style="stop-color:#FFFFFF"/>
						<stop  offset="1" style="stop-color:#373535"/>
					</linearGradient>
					<path id="path3749" inkscape:connector-curvature="0" fill="url(#path3749_1_)" d="M600.547,611.753
						c0-0.054,0.009-0.1,0.01-0.151l0,0c0.082,6.641,5.504,12.023,12.166,12.023l0,0c6.661,0,12.084-5.381,12.166-12.023l0,0
						c0,0.051,0.005,0.097,0.005,0.151l0,0c0,6.711-5.46,12.171-12.172,12.171l0,0C606.009,623.924,600.547,618.464,600.547,611.753
						"/>
				</g>
			</g>
		</g>
	</g>
	<g id="g3751">
		<g id="g3753">
			<g id="g3759">
				<g id="g3761">
					
						<linearGradient id="path3771_1_" gradientUnits="userSpaceOnUse" x1="306.2859" y1="358.9516" x2="307.2859" y2="358.9516" gradientTransform="matrix(30.4346 0 0 30.4346 -8721.127 -10318.8301)">
						<stop  offset="0" style="stop-color:#373535"/>
						<stop  offset="0.5078" style="stop-color:#FFFFFF"/>
						<stop  offset="1" style="stop-color:#373535"/>
					</linearGradient>
					<path id="path3771" inkscape:connector-curvature="0" fill="url(#path3771_1_)" d="M612.723,599.875
						c-6.663,0-12.084,5.379-12.166,12.024l0,0c-0.001-0.052-0.01-0.1-0.01-0.148l0,0c0-6.714,5.463-12.175,12.177-12.175l0,0
						c6.712,0,12.172,5.461,12.172,12.175l0,0c0,0.048-0.005,0.097-0.005,0.148l0,0
						C624.808,605.254,619.384,599.875,612.723,599.875"/>
				</g>
			</g>
		</g>
	</g>
	<g id="g3773">
		<g>
			<defs>
				<rect id="SVGID_1_" x="-153" y="-153" width="1530" height="1530"/>
			</defs>
			<clipPath id="SVGID_2_">
				<use xlink:href="#SVGID_1_"  overflow="visible"/>
			</clipPath>
			<g id="g3775" clip-path="url(#SVGID_2_)">
				<g id="g3781" transform="translate(612.7227,605.4336)">
					<path id="path3783" inkscape:connector-curvature="0" fill="#373535" d="M0,0c-3.516,0-6.37,2.854-6.37,6.372
						c0,3.511,2.854,6.369,6.37,6.369c3.515,0,6.37-2.858,6.37-6.369C6.369,2.854,3.515,0,0,0"/>
				</g>
			</g>
		</g>
	</g>
	<g id="g3785">
		<g id="g3787">
			<g id="g3793">
				<g id="g3795">
					
						<linearGradient id="path3805_1_" gradientUnits="userSpaceOnUse" x1="315.3644" y1="381.0696" x2="316.3644" y2="381.0696" gradientTransform="matrix(15.9241 0 0 -15.9241 -4415.5322 6676.8066)">
						<stop  offset="0" style="stop-color:#373535"/>
						<stop  offset="0.5078" style="stop-color:#FFFFFF"/>
						<stop  offset="1" style="stop-color:#373535"/>
					</linearGradient>
					<path id="path3805" inkscape:connector-curvature="0" fill="url(#path3805_1_)" d="M612.723,605.759
						c-3.443,0-6.245,2.741-6.363,6.157l0,0c0-0.075-0.009-0.15-0.009-0.222l0,0c0-3.514,2.855-6.37,6.371-6.37l0,0
						c3.514,0,6.369,2.855,6.369,6.37l0,0c0,0.072-0.012,0.147-0.012,0.222l0,0C618.964,608.5,616.159,605.759,612.723,605.759"/>
				</g>
			</g>
		</g>
	</g>
	<g id="g3807">
		<g id="g3809">
			<g id="g3815">
				<g id="g3817">
					
						<radialGradient id="path3825_1_" cx="316.1624" cy="381.679" r="1" gradientTransform="matrix(15.2837 0 0 -15.2837 -4224.0186 6451.3281)" gradientUnits="userSpaceOnUse">
						<stop  offset="0" style="stop-color:#007DA8"/>
						<stop  offset="1" style="stop-color:#69CEF6"/>
					</radialGradient>
					<path id="path3825" inkscape:connector-curvature="0" fill="url(#path3825_1_)" d="M606.897,611.806
						c0-3.222,2.608-5.832,5.827-5.832l0,0c3.216,0,5.823,2.61,5.823,5.832l0,0c0,3.214-2.608,5.823-5.823,5.823l0,0
						C609.505,617.629,606.897,615.02,606.897,611.806"/>
				</g>
			</g>
		</g>
	</g>
	<g id="g3827">
		<g id="g3829">
			<g id="g3835">
				<g id="g3837">
					
						<linearGradient id="path3845_1_" gradientUnits="userSpaceOnUse" x1="289.305" y1="375.7532" x2="290.305" y2="375.7532" gradientTransform="matrix(0 32.9443 32.9443 0 -11766.25 -8932.3623)">
						<stop  offset="0" style="stop-color:#4D4C4E"/>
						<stop  offset="1" style="stop-color:#373535"/>
					</linearGradient>
					<path id="path3845" inkscape:connector-curvature="0" fill="url(#path3845_1_)" d="M599.545,611.753
						c0-7.281,5.9-13.181,13.178-13.181l0,0c7.277,0,13.177,5.9,13.177,13.181l0,0c0,7.277-5.899,13.175-13.177,13.175l0,0
						C605.445,624.928,599.545,619.03,599.545,611.753"/>
				</g>
			</g>
		</g>
	</g>
	<g id="g3847">
		<g id="g3849">
			<g id="g3855">
				<g id="g3857">
					
						<linearGradient id="path3865_1_" gradientUnits="userSpaceOnUse" x1="288.7253" y1="376.5125" x2="289.7253" y2="376.5125" gradientTransform="matrix(0 30.4346 30.4346 0 -10846.2822 -8187.6494)">
						<stop  offset="0" style="stop-color:#373535"/>
						<stop  offset="1" style="stop-color:#4D4C4E"/>
					</linearGradient>
					<path id="path3865" inkscape:connector-curvature="0" fill="url(#path3865_1_)" d="M600.547,611.753
						c0-6.716,5.463-12.177,12.177-12.177l0,0c6.712,0,12.172,5.461,12.172,12.177l0,0c0,6.711-5.46,12.171-12.172,12.171l0,0
						C606.009,623.924,600.547,618.464,600.547,611.753"/>
				</g>
			</g>
		</g>
	</g>
	<g id="g3867">
		<g id="g3869">
			<g id="g3875">
				<g id="g3877">
					
						<linearGradient id="path3887_1_" gradientUnits="userSpaceOnUse" x1="306.2859" y1="374.1469" x2="307.2859" y2="374.1469" gradientTransform="matrix(30.4346 0 0 -30.4346 -8721.127 12004.7793)">
						<stop  offset="0" style="stop-color:#373535"/>
						<stop  offset="0.5078" style="stop-color:#FFFFFF"/>
						<stop  offset="1" style="stop-color:#373535"/>
					</linearGradient>
					<path id="path3887" inkscape:connector-curvature="0" fill="url(#path3887_1_)" d="M600.547,611.753
						c0-0.054,0.009-0.1,0.01-0.151l0,0c0.082,6.641,5.504,12.023,12.166,12.023l0,0c6.661,0,12.084-5.381,12.166-12.023l0,0
						c0,0.051,0.005,0.097,0.005,0.151l0,0c0,6.711-5.46,12.171-12.172,12.171l0,0C606.009,623.924,600.547,618.464,600.547,611.753
						"/>
				</g>
			</g>
		</g>
	</g>
	<g id="g3889">
		<g id="g3891">
			<g id="g3897">
				<g id="g3899">
					
						<linearGradient id="path3909_1_" gradientUnits="userSpaceOnUse" x1="306.2859" y1="358.9516" x2="307.2859" y2="358.9516" gradientTransform="matrix(30.4346 0 0 30.4346 -8721.127 -10318.8301)">
						<stop  offset="0" style="stop-color:#373535"/>
						<stop  offset="0.5078" style="stop-color:#FFFFFF"/>
						<stop  offset="1" style="stop-color:#373535"/>
					</linearGradient>
					<path id="path3909" inkscape:connector-curvature="0" fill="url(#path3909_1_)" d="M612.723,599.875
						c-6.663,0-12.084,5.379-12.166,12.024l0,0c-0.001-0.052-0.01-0.1-0.01-0.148l0,0c0-6.714,5.463-12.175,12.177-12.175l0,0
						c6.712,0,12.172,5.461,12.172,12.175l0,0c0,0.048-0.005,0.097-0.005,0.148l0,0
						C624.808,605.254,619.384,599.875,612.723,599.875"/>
				</g>
			</g>
		</g>
	</g>
	<g id="g3911">
		<g>
			<defs>
				<rect id="SVGID_3_" x="-153" y="-153" width="1530" height="1530"/>
			</defs>
			<clipPath id="SVGID_4_">
				<use xlink:href="#SVGID_3_"  overflow="visible"/>
			</clipPath>
			<g id="g3913" clip-path="url(#SVGID_4_)">
				<g id="g3919" transform="translate(612.7227,605.4336)">
					<path id="path3921" inkscape:connector-curvature="0" fill="#373535" d="M0,0c-3.516,0-6.37,2.854-6.37,6.372
						c0,3.511,2.854,6.369,6.37,6.369c3.515,0,6.37-2.858,6.37-6.369C6.369,2.854,3.515,0,0,0"/>
				</g>
			</g>
		</g>
	</g>
	<g id="g3923">
		<g id="g3925">
			<g id="g3931">
				<g id="g3933">
					
						<linearGradient id="path3943_1_" gradientUnits="userSpaceOnUse" x1="315.3644" y1="381.0696" x2="316.3644" y2="381.0696" gradientTransform="matrix(15.9241 0 0 -15.9241 -4415.5322 6676.8066)">
						<stop  offset="0" style="stop-color:#373535"/>
						<stop  offset="0.5078" style="stop-color:#FFFFFF"/>
						<stop  offset="1" style="stop-color:#373535"/>
					</linearGradient>
					<path id="path3943" inkscape:connector-curvature="0" fill="url(#path3943_1_)" d="M612.723,605.759
						c-3.443,0-6.245,2.741-6.363,6.157l0,0c0-0.075-0.009-0.15-0.009-0.222l0,0c0-3.514,2.855-6.37,6.371-6.37l0,0
						c3.514,0,6.369,2.855,6.369,6.37l0,0c0,0.072-0.012,0.147-0.012,0.222l0,0C618.964,608.5,616.159,605.759,612.723,605.759"/>
				</g>
			</g>
		</g>
	</g>
	<g id="g3945">
		<g id="g3947">
			<g id="g3953">
				<g id="g3955">
					
						<radialGradient id="path3963_1_" cx="316.1624" cy="381.679" r="1" gradientTransform="matrix(15.2837 0 0 -15.2837 -4224.0186 6451.3281)" gradientUnits="userSpaceOnUse">
						<stop  offset="0" style="stop-color:#262626"/>
						<stop  offset="1" style="stop-color:#4D4D4D"/>
					</radialGradient>
					<path id="path3963" inkscape:connector-curvature="0" fill="url(#path3963_1_)" d="M606.897,611.806
						c0-3.222,2.608-5.832,5.827-5.832l0,0c3.216,0,5.823,2.61,5.823,5.832l0,0c0,3.214-2.608,5.823-5.823,5.823l0,0
						C609.505,617.629,606.897,615.02,606.897,611.806"/>
				</g>
			</g>
		</g>
	</g>
</g>
</svg>
