<?xml version="1.0" encoding="UTF-8" standalone="no"?>
<!-- Created with Inkscape (http://www.inkscape.org/) -->

<svg
   xmlns:dc="http://purl.org/dc/elements/1.1/"
   xmlns:cc="http://creativecommons.org/ns#"
   xmlns:rdf="http://www.w3.org/1999/02/22-rdf-syntax-ns#"
   xmlns:svg="http://www.w3.org/2000/svg"
   xmlns="http://www.w3.org/2000/svg"
   xmlns:sodipodi="http://sodipodi.sourceforge.net/DTD/sodipodi-0.dtd"
   xmlns:inkscape="http://www.inkscape.org/namespaces/inkscape"
   id="svg3679"
   version="1.1"
   inkscape:version="0.48.2 r9819"
   width="32.943748"
   height="32.945"
   xml:space="preserve"
   sodipodi:docname="know.large.ai"><metadata
     id="metadata3685"><rdf:RDF><cc:Work
         rdf:about=""><dc:format>image/svg+xml</dc:format><dc:type
           rdf:resource="http://purl.org/dc/dcmitype/StillImage" /><dc:title></dc:title></cc:Work></rdf:RDF></metadata><defs
     id="defs3683"><linearGradient
       x1="0"
       y1="0"
       x2="1"
       y2="0"
       gradientUnits="userSpaceOnUse"
       gradientTransform="matrix(0,26.355469,26.355469,0,612.72217,598.57227)"
       spreadMethod="pad"
       id="linearGradient3701"><stop
         style="stop-opacity:1;stop-color:#4d4c4e"
         offset="0"
         id="stop3703" /><stop
         style="stop-opacity:1;stop-color:#373535"
         offset="1"
         id="stop3705" /></linearGradient><linearGradient
       x1="0"
       y1="0"
       x2="1"
       y2="0"
       gradientUnits="userSpaceOnUse"
       gradientTransform="matrix(0,24.347656,24.347656,0,612.72217,599.57617)"
       spreadMethod="pad"
       id="linearGradient3721"><stop
         style="stop-opacity:1;stop-color:#373535"
         offset="0"
         id="stop3723" /><stop
         style="stop-opacity:1;stop-color:#4d4c4e"
         offset="1"
         id="stop3725" /></linearGradient><linearGradient
       x1="0"
       y1="0"
       x2="1"
       y2="0"
       gradientUnits="userSpaceOnUse"
       gradientTransform="matrix(24.347656,0,0,-24.347656,600.54785,617.76318)"
       spreadMethod="pad"
       id="linearGradient3741"><stop
         style="stop-opacity:1;stop-color:#373535"
         offset="0"
         id="stop3743" /><stop
         style="stop-opacity:1;stop-color:#ffffff"
         offset="0.507767"
         id="stop3745" /><stop
         style="stop-opacity:1;stop-color:#373535"
         offset="1"
         id="stop3747" /></linearGradient><linearGradient
       x1="0"
       y1="0"
       x2="1"
       y2="0"
       gradientUnits="userSpaceOnUse"
       gradientTransform="matrix(24.347656,0,0,24.347656,600.54785,605.7373)"
       spreadMethod="pad"
       id="linearGradient3763"><stop
         style="stop-opacity:1;stop-color:#373535"
         offset="0"
         id="stop3765" /><stop
         style="stop-opacity:1;stop-color:#ffffff"
         offset="0.507767"
         id="stop3767" /><stop
         style="stop-opacity:1;stop-color:#373535"
         offset="1"
         id="stop3769" /></linearGradient><clipPath
       clipPathUnits="userSpaceOnUse"
       id="clipPath3777"><path
         d="m 0,1224 1224,0 L 1224,0 0,0 0,1224 z"
         id="path3779"
         inkscape:connector-curvature="0" /></clipPath><linearGradient
       x1="0"
       y1="0"
       x2="1"
       y2="0"
       gradientUnits="userSpaceOnUse"
       gradientTransform="matrix(12.739258,0,0,-12.739258,606.35254,608.62012)"
       spreadMethod="pad"
       id="linearGradient3797"><stop
         style="stop-opacity:1;stop-color:#373535"
         offset="0"
         id="stop3799" /><stop
         style="stop-opacity:1;stop-color:#ffffff"
         offset="0.507767"
         id="stop3801" /><stop
         style="stop-opacity:1;stop-color:#373535"
         offset="1"
         id="stop3803" /></linearGradient><radialGradient
       fx="0"
       fy="0"
       cx="0"
       cy="0"
       r="1"
       gradientUnits="userSpaceOnUse"
       gradientTransform="matrix(12.226974,0,0,-12.226959,608.11328,617.86426)"
       spreadMethod="pad"
       id="radialGradient3819"><stop
         style="stop-opacity:1;stop-color:#007da8"
         offset="0"
         id="stop3821" /><stop
         style="stop-opacity:1;stop-color:#69cef6"
         offset="1"
         id="stop3823" /></radialGradient><linearGradient
       x1="0"
       y1="0"
       x2="1"
       y2="0"
       gradientUnits="userSpaceOnUse"
       gradientTransform="matrix(0,26.355469,26.355469,0,612.72217,598.57227)"
       spreadMethod="pad"
       id="linearGradient3839"><stop
         style="stop-opacity:1;stop-color:#4d4c4e"
         offset="0"
         id="stop3841" /><stop
         style="stop-opacity:1;stop-color:#373535"
         offset="1"
         id="stop3843" /></linearGradient><linearGradient
       x1="0"
       y1="0"
       x2="1"
       y2="0"
       gradientUnits="userSpaceOnUse"
       gradientTransform="matrix(0,24.347656,24.347656,0,612.72217,599.57617)"
       spreadMethod="pad"
       id="linearGradient3859"><stop
         style="stop-opacity:1;stop-color:#373535"
         offset="0"
         id="stop3861" /><stop
         style="stop-opacity:1;stop-color:#4d4c4e"
         offset="1"
         id="stop3863" /></linearGradient><linearGradient
       x1="0"
       y1="0"
       x2="1"
       y2="0"
       gradientUnits="userSpaceOnUse"
       gradientTransform="matrix(24.347656,0,0,-24.347656,600.54785,617.76318)"
       spreadMethod="pad"
       id="linearGradient3879"><stop
         style="stop-opacity:1;stop-color:#373535"
         offset="0"
         id="stop3881" /><stop
         style="stop-opacity:1;stop-color:#ffffff"
         offset="0.507767"
         id="stop3883" /><stop
         style="stop-opacity:1;stop-color:#373535"
         offset="1"
         id="stop3885" /></linearGradient><linearGradient
       x1="0"
       y1="0"
       x2="1"
       y2="0"
       gradientUnits="userSpaceOnUse"
       gradientTransform="matrix(24.347656,0,0,24.347656,600.54785,605.7373)"
       spreadMethod="pad"
       id="linearGradient3901"><stop
         style="stop-opacity:1;stop-color:#373535"
         offset="0"
         id="stop3903" /><stop
         style="stop-opacity:1;stop-color:#ffffff"
         offset="0.507767"
         id="stop3905" /><stop
         style="stop-opacity:1;stop-color:#373535"
         offset="1"
         id="stop3907" /></linearGradient><clipPath
       clipPathUnits="userSpaceOnUse"
       id="clipPath3915"><path
         d="m 0,1224 1224,0 L 1224,0 0,0 0,1224 z"
         id="path3917"
         inkscape:connector-curvature="0" /></clipPath><linearGradient
       x1="0"
       y1="0"
       x2="1"
       y2="0"
       gradientUnits="userSpaceOnUse"
       gradientTransform="matrix(12.739258,0,0,-12.739258,606.35254,608.62012)"
       spreadMethod="pad"
       id="linearGradient3935"><stop
         style="stop-opacity:1;stop-color:#373535"
         offset="0"
         id="stop3937" /><stop
         style="stop-opacity:1;stop-color:#ffffff"
         offset="0.507767"
         id="stop3939" /><stop
         style="stop-opacity:1;stop-color:#373535"
         offset="1"
         id="stop3941" /></linearGradient><radialGradient
       fx="0"
       fy="0"
       cx="0"
       cy="0"
       r="1"
       gradientUnits="userSpaceOnUse"
       gradientTransform="matrix(12.226974,0,0,-12.226959,608.11328,617.86426)"
       spreadMethod="pad"
       id="radialGradient3957"><stop
         style="stop-opacity:1;stop-color:#007da8"
         offset="0"
         id="stop3959" /><stop
         style="stop-opacity:1;stop-color:#69cef6"
         offset="1"
         id="stop3961" /></radialGradient></defs><sodipodi:namedview
     pagecolor="#ffffff"
     bordercolor="#666666"
     borderopacity="1"
     objecttolerance="10"
     gridtolerance="10"
     guidetolerance="10"
     inkscape:pageopacity="0"
     inkscape:pageshadow="2"
     inkscape:window-width="640"
     inkscape:window-height="480"
     id="namedview3681"
     showgrid="false"
     fit-margin-top="0"
     fit-margin-left="0"
     fit-margin-right="0"
     fit-margin-bottom="0"
     inkscape:zoom="0.15424837"
     inkscape:cx="15.56875"
     inkscape:cy="16.785"
     inkscape:window-x="0"
     inkscape:window-y="0"
     inkscape:window-maximized="0"
     inkscape:current-layer="g3687" /><g
     id="g3687"
     inkscape:groupmode="layer"
     inkscape:label="know.large"
     transform="matrix(1.25,0,0,-1.25,-749.43125,781.16)"><g
       id="g3689"><g
         id="g3691"><g
           id="g3697"><g
             id="g3699"><path
               d="m 599.545,611.753 c 0,-7.281 5.9,-13.181 13.178,-13.181 l 0,0 c 7.278,0 13.177,5.9 13.177,13.181 l 0,0 c 0,7.277 -5.899,13.175 -13.177,13.175 l 0,0 c -7.278,0 -13.178,-5.898 -13.178,-13.175"
               style="fill:url(#linearGradient3701);stroke:none"
               id="path3707"
               inkscape:connector-curvature="0" /></g></g></g></g><g
       id="g3709"><g
         id="g3711"><g
           id="g3717"><g
             id="g3719"><path
               d="m 600.547,611.753 c 0,-6.716 5.462,-12.177 12.176,-12.177 l 0,0 c 6.712,0 12.172,5.461 12.172,12.177 l 0,0 c 0,6.711 -5.46,12.171 -12.172,12.171 l 0,0 c -6.714,0 -12.176,-5.46 -12.176,-12.171"
               style="fill:url(#linearGradient3721);stroke:none"
               id="path3727"
               inkscape:connector-curvature="0" /></g></g></g></g><g
       id="g3729"><g
         id="g3731"><g
           id="g3737"><g
             id="g3739"><path
               d="m 600.547,611.753 c 0,-0.054 0.009,-0.1 0.01,-0.151 l 0,0 c 0.082,6.642 5.504,12.023 12.166,12.023 l 0,0 c 6.661,0 12.085,-5.381 12.167,-12.023 l 0,0 c 0,0.051 0.005,0.097 0.005,0.151 l 0,0 c 0,6.711 -5.46,12.171 -12.172,12.171 l 0,0 c -6.714,0 -12.176,-5.46 -12.176,-12.171"
               style="fill:url(#linearGradient3741);stroke:none"
               id="path3749"
               inkscape:connector-curvature="0" /></g></g></g></g><g
       id="g3751"><g
         id="g3753"><g
           id="g3759"><g
             id="g3761"><path
               d="m 612.723,599.875 c -6.662,0 -12.084,5.379 -12.166,12.024 l 0,0 c -10e-4,-0.051 -0.01,-0.1 -0.01,-0.148 l 0,0 c 0,-6.714 5.462,-12.175 12.176,-12.175 l 0,0 c 6.712,0 12.172,5.461 12.172,12.175 l 0,0 c 0,0.048 -0.005,0.097 -0.005,0.148 l 0,0 c -0.082,-6.645 -5.506,-12.024 -12.167,-12.024"
               style="fill:url(#linearGradient3763);stroke:none"
               id="path3771"
               inkscape:connector-curvature="0" /></g></g></g></g><g
       id="g3773"><g
         id="g3775"
         clip-path="url(#clipPath3777)"><g
           id="g3781"
           transform="translate(612.7227,605.4336)"><path
             d="m 0,0 c -3.516,0 -6.37,2.854 -6.37,6.372 0,3.511 2.854,6.369 6.37,6.369 3.515,0 6.369,-2.858 6.369,-6.369 C 6.369,2.854 3.515,0 0,0"
             style="fill:#373535;fill-opacity:1;fill-rule:nonzero;stroke:none"
             id="path3783"
             inkscape:connector-curvature="0" /></g></g></g><g
       id="g3785"><g
         id="g3787"><g
           id="g3793"><g
             id="g3795"><path
               d="m 612.723,605.759 c -3.443,0 -6.244,2.741 -6.362,6.157 l 0,0 c 0,-0.075 -0.009,-0.15 -0.009,-0.222 l 0,0 c 0,-3.514 2.855,-6.37 6.371,-6.37 l 0,0 c 3.514,0 6.369,2.856 6.369,6.37 l 0,0 c 0,0.072 -0.012,0.147 -0.012,0.222 l 0,0 c -0.116,-3.416 -2.921,-6.157 -6.357,-6.157"
               style="fill:url(#linearGradient3797);stroke:none"
               id="path3805"
               inkscape:connector-curvature="0" /></g></g></g></g><g
       id="g3807"><g
         id="g3809"><g
           id="g3815"><g
             id="g3817"><path
               d="m 606.897,611.806 c 0,-3.222 2.608,-5.832 5.826,-5.832 l 0,0 c 3.216,0 5.824,2.61 5.824,5.832 l 0,0 c 0,3.214 -2.608,5.823 -5.824,5.823 l 0,0 c -3.218,0 -5.826,-2.609 -5.826,-5.823"
               style="fill:url(#radialGradient3819);stroke:none"
               id="path3825"
               inkscape:connector-curvature="0" /></g></g></g></g><g
       id="g3827"><g
         id="g3829"><g
           id="g3835"><g
             id="g3837"><path
               d="m 599.545,611.753 c 0,-7.281 5.9,-13.181 13.178,-13.181 l 0,0 c 7.278,0 13.177,5.9 13.177,13.181 l 0,0 c 0,7.277 -5.899,13.175 -13.177,13.175 l 0,0 c -7.278,0 -13.178,-5.898 -13.178,-13.175"
               style="fill:url(#linearGradient3839);stroke:none"
               id="path3845"
               inkscape:connector-curvature="0" /></g></g></g></g><g
       id="g3847"><g
         id="g3849"><g
           id="g3855"><g
             id="g3857"><path
               d="m 600.547,611.753 c 0,-6.716 5.462,-12.177 12.176,-12.177 l 0,0 c 6.712,0 12.172,5.461 12.172,12.177 l 0,0 c 0,6.711 -5.46,12.171 -12.172,12.171 l 0,0 c -6.714,0 -12.176,-5.46 -12.176,-12.171"
               style="fill:url(#linearGradient3859);stroke:none"
               id="path3865"
               inkscape:connector-curvature="0" /></g></g></g></g><g
       id="g3867"><g
         id="g3869"><g
           id="g3875"><g
             id="g3877"><path
               d="m 600.547,611.753 c 0,-0.054 0.009,-0.1 0.01,-0.151 l 0,0 c 0.082,6.642 5.504,12.023 12.166,12.023 l 0,0 c 6.661,0 12.085,-5.381 12.167,-12.023 l 0,0 c 0,0.051 0.005,0.097 0.005,0.151 l 0,0 c 0,6.711 -5.46,12.171 -12.172,12.171 l 0,0 c -6.714,0 -12.176,-5.46 -12.176,-12.171"
               style="fill:url(#linearGradient3879);stroke:none"
               id="path3887"
               inkscape:connector-curvature="0" /></g></g></g></g><g
       id="g3889"><g
         id="g3891"><g
           id="g3897"><g
             id="g3899"><path
               d="m 612.723,599.875 c -6.662,0 -12.084,5.379 -12.166,12.024 l 0,0 c -10e-4,-0.051 -0.01,-0.1 -0.01,-0.148 l 0,0 c 0,-6.714 5.462,-12.175 12.176,-12.175 l 0,0 c 6.712,0 12.172,5.461 12.172,12.175 l 0,0 c 0,0.048 -0.005,0.097 -0.005,0.148 l 0,0 c -0.082,-6.645 -5.506,-12.024 -12.167,-12.024"
               style="fill:url(#linearGradient3901);stroke:none"
               id="path3909"
               inkscape:connector-curvature="0" /></g></g></g></g><g
       id="g3911"><g
         id="g3913"
         clip-path="url(#clipPath3915)"><g
           id="g3919"
           transform="translate(612.7227,605.4336)"><path
             d="m 0,0 c -3.516,0 -6.37,2.854 -6.37,6.372 0,3.511 2.854,6.369 6.37,6.369 3.515,0 6.369,-2.858 6.369,-6.369 C 6.369,2.854 3.515,0 0,0"
             style="fill:#373535;fill-opacity:1;fill-rule:nonzero;stroke:none"
             id="path3921"
             inkscape:connector-curvature="0" /></g></g></g><g
       id="g3923"><g
         id="g3925"><g
           id="g3931"><g
             id="g3933"><path
               d="m 612.723,605.759 c -3.443,0 -6.244,2.741 -6.362,6.157 l 0,0 c 0,-0.075 -0.009,-0.15 -0.009,-0.222 l 0,0 c 0,-3.514 2.855,-6.37 6.371,-6.37 l 0,0 c 3.514,0 6.369,2.856 6.369,6.37 l 0,0 c 0,0.072 -0.012,0.147 -0.012,0.222 l 0,0 c -0.116,-3.416 -2.921,-6.157 -6.357,-6.157"
               style="fill:url(#linearGradient3935);stroke:none"
               id="path3943"
               inkscape:connector-curvature="0" /></g></g></g></g><g
       id="g3945"><g
         id="g3947"><g
           id="g3953"><g
             id="g3955"><path
               d="m 606.897,611.806 c 0,-3.222 2.608,-5.832 5.826,-5.832 l 0,0 c 3.216,0 5.824,2.61 5.824,5.832 l 0,0 c 0,3.214 -2.608,5.823 -5.824,5.823 l 0,0 c -3.218,0 -5.826,-2.609 -5.826,-5.823"
               style="fill:url(#radialGradient3957);stroke:none"
               id="path3963"
               inkscape:connector-curvature="0" /></g></g></g></g></g></svg>