<?xml version="1.0" encoding="UTF-8" standalone="no"?>
<!-- Created with Inkscape (http://www.inkscape.org/) -->

<svg
   xmlns:dc="http://purl.org/dc/elements/1.1/"
   xmlns:cc="http://creativecommons.org/ns#"
   xmlns:rdf="http://www.w3.org/1999/02/22-rdf-syntax-ns#"
   xmlns:svg="http://www.w3.org/2000/svg"
   xmlns="http://www.w3.org/2000/svg"
   xmlns:sodipodi="http://sodipodi.sourceforge.net/DTD/sodipodi-0.dtd"
   xmlns:inkscape="http://www.inkscape.org/namespaces/inkscape"
   id="svg2"
   version="1.1"
   inkscape:version="0.48.2 r9819"
   width="151.25"
   height="151.25"
   xml:space="preserve"
   sodipodi:docname="lock-off.ai"><metadata
     id="metadata8"><rdf:RDF><cc:Work
         rdf:about=""><dc:format>image/svg+xml</dc:format><dc:type
           rdf:resource="http://purl.org/dc/dcmitype/StillImage" /><dc:title></dc:title></cc:Work></rdf:RDF></metadata><defs
     id="defs6"><linearGradient
       x1="0"
       y1="0"
       x2="1"
       y2="0"
       gradientUnits="userSpaceOnUse"
       gradientTransform="matrix(0,121.29248,-121.29248,0,60.532227,-0.2851562)"
       spreadMethod="pad"
       id="linearGradient24"><stop
         style="stop-opacity:1;stop-color:#4d4d4f"
         offset="0"
         id="stop26" /><stop
         style="stop-opacity:1;stop-color:#48484a"
         offset="0.397202"
         id="stop28" /><stop
         style="stop-opacity:1;stop-color:#363737"
         offset="0.788696"
         id="stop30" /><stop
         style="stop-opacity:1;stop-color:#292929"
         offset="1"
         id="stop32" /></linearGradient><linearGradient
       x1="0"
       y1="0"
       x2="1"
       y2="0"
       gradientUnits="userSpaceOnUse"
       gradientTransform="matrix(0,112.05225,-112.05225,0,60.530273,4.3320312)"
       spreadMethod="pad"
       id="linearGradient48"><stop
         style="stop-opacity:1;stop-color:#292929"
         offset="0"
         id="stop50" /><stop
         style="stop-opacity:1;stop-color:#363737"
         offset="0.211304"
         id="stop52" /><stop
         style="stop-opacity:1;stop-color:#48484a"
         offset="0.602798"
         id="stop54" /><stop
         style="stop-opacity:1;stop-color:#4d4d4f"
         offset="1"
         id="stop56" /></linearGradient><linearGradient
       x1="0"
       y1="0"
       x2="1"
       y2="0"
       gradientUnits="userSpaceOnUse"
       gradientTransform="matrix(112.05273,0,0,112.05273,4.5039062,88.030273)"
       spreadMethod="pad"
       id="linearGradient72"><stop
         style="stop-opacity:1;stop-color:#292929"
         offset="0"
         id="stop74" /><stop
         style="stop-opacity:1;stop-color:#657178"
         offset="0.130402"
         id="stop76" /><stop
         style="stop-opacity:1;stop-color:#7e9dab"
         offset="0.266098"
         id="stop78" /><stop
         style="stop-opacity:1;stop-color:#85bbd4"
         offset="0.378799"
         id="stop80" /><stop
         style="stop-opacity:1;stop-color:#84cded"
         offset="0.462402"
         id="stop82" /><stop
         style="stop-opacity:1;stop-color:#84d4f7"
         offset="0.507797"
         id="stop84" /><stop
         style="stop-opacity:1;stop-color:#292929"
         offset="1"
         id="stop86" /></linearGradient><linearGradient
       x1="0"
       y1="0"
       x2="1"
       y2="0"
       gradientUnits="userSpaceOnUse"
       gradientTransform="matrix(112.05273,0,0,-112.05273,4.5039062,32.685547)"
       spreadMethod="pad"
       id="linearGradient102"><stop
         style="stop-opacity:1;stop-color:#292929"
         offset="0"
         id="stop104" /><stop
         style="stop-opacity:1;stop-color:#657178"
         offset="0.130402"
         id="stop106" /><stop
         style="stop-opacity:1;stop-color:#7e9dab"
         offset="0.266098"
         id="stop108" /><stop
         style="stop-opacity:1;stop-color:#85bbd4"
         offset="0.378799"
         id="stop110" /><stop
         style="stop-opacity:1;stop-color:#84cded"
         offset="0.462402"
         id="stop112" /><stop
         style="stop-opacity:1;stop-color:#84d4f7"
         offset="0.507797"
         id="stop114" /><stop
         style="stop-opacity:1;stop-color:#292929"
         offset="1"
         id="stop116" /></linearGradient><clipPath
       clipPathUnits="userSpaceOnUse"
       id="clipPath124"><path
         d="M 0,121 121,121 121,0 0,0 0,121 z"
         id="path126" /></clipPath><radialGradient
       fx="0"
       fy="0"
       cx="0"
       cy="0"
       r="1"
       gradientUnits="userSpaceOnUse"
       gradientTransform="matrix(91.808029,0,0,91.808029,34.114258,102.16455)"
       spreadMethod="pad"
       id="radialGradient152"><stop
         style="stop-opacity:1;stop-color:#2a7ea9"
         offset="0"
         id="stop154" /><stop
         style="stop-opacity:1;stop-color:#2881ac"
         offset="0.0158997"
         id="stop156" /><stop
         style="stop-opacity:1;stop-color:#2795c1"
         offset="0.144302"
         id="stop158" /><stop
         style="stop-opacity:1;stop-color:#27a7d2"
         offset="0.280502"
         id="stop160" /><stop
         style="stop-opacity:1;stop-color:#3bb7e0"
         offset="0.424896"
         id="stop162" /><stop
         style="stop-opacity:1;stop-color:#56c4ee"
         offset="0.581299"
         id="stop164" /><stop
         style="stop-opacity:1;stop-color:#67cbf3"
         offset="0.758301"
         id="stop166" /><stop
         style="stop-opacity:1;stop-color:#6ccef5"
         offset="1"
         id="stop168" /></radialGradient><radialGradient
       fx="0"
       fy="0"
       cx="0"
       cy="0"
       r="1"
       gradientUnits="userSpaceOnUse"
       gradientTransform="matrix(93.824875,0,0,93.824875,34.111328,105.70068)"
       spreadMethod="pad"
       id="radialGradient184"><stop
         style="stop-opacity:1;stop-color:#2a7ea9"
         offset="0"
         id="stop186" /><stop
         style="stop-opacity:1;stop-color:#2881ac"
         offset="0.0158997"
         id="stop188" /><stop
         style="stop-opacity:1;stop-color:#2795c1"
         offset="0.144302"
         id="stop190" /><stop
         style="stop-opacity:1;stop-color:#27a7d2"
         offset="0.280502"
         id="stop192" /><stop
         style="stop-opacity:1;stop-color:#3bb7e0"
         offset="0.424896"
         id="stop194" /><stop
         style="stop-opacity:1;stop-color:#56c4ee"
         offset="0.581299"
         id="stop196" /><stop
         style="stop-opacity:1;stop-color:#67cbf3"
         offset="0.758301"
         id="stop198" /><stop
         style="stop-opacity:1;stop-color:#6ccef5"
         offset="1"
         id="stop200" /></radialGradient><clipPath
       clipPathUnits="userSpaceOnUse"
       id="clipPath208"><path
         d="M 0,121 121,121 121,0 0,0 0,121 z"
         id="path210" /></clipPath><clipPath
       clipPathUnits="userSpaceOnUse"
       id="clipPath220"><path
         d="m -40.5859,157.494 191.3749,0 0,-180.5858 -191.3749,0 0,180.5858 z"
         id="path222" /></clipPath><clipPath
       clipPathUnits="userSpaceOnUse"
       id="clipPath224"><path
         d="m 5.328,58.296 c 0,-14.813 6.051,-28.061 15.475,-38.066 4.896,40.443 39.027,71.893 80.791,71.893 1.125,0 2.17,-0.228 3.279,-0.27 C 94.656,105.139 79.244,114.172 61.197,114.172 30.355,114.173 5.328,89.15 5.328,58.296"
         id="path226" /></clipPath><clipPath
       clipPathUnits="userSpaceOnUse"
       id="clipPath228"><path
         d="m -40.5859,157.494 191.3749,0 0,-180.5858 -191.3749,0 0,180.5858 z"
         id="path230" /></clipPath><clipPath
       clipPathUnits="userSpaceOnUse"
       id="clipPath232"><path
         d="m -40.5859,157.494 191.3749,0 0,-180.5858 -191.3749,0 0,180.5858 z"
         id="path234" /></clipPath><linearGradient
       x1="0"
       y1="0"
       x2="1"
       y2="0"
       gradientUnits="userSpaceOnUse"
       gradientTransform="matrix(38.51149,-54.612351,57.877258,36.33905,19.1875,118.03906)"
       spreadMethod="pad"
       id="linearGradient240"><stop
         style="stop-opacity:1;stop-color:#ffffff"
         offset="0"
         id="stop242" /><stop
         style="stop-opacity:1;stop-color:#292929"
         offset="1"
         id="stop244" /></linearGradient><mask
       maskUnits="userSpaceOnUse"
       x="0"
       y="0"
       width="1"
       height="1"
       id="mask246"><g
         id="g248"><g
           clip-path="url(#clipPath228)"
           id="g250"><path
             d="m -40.586,157.494 191.375,0 0,-180.586 -191.375,0 0,180.586 z"
             style="fill:#000000;fill-opacity:1;fill-rule:nonzero;stroke:none"
             id="path252" /><g
             id="g254"><g
               id="g256" /><g
               id="g258"><g
                 clip-path="url(#clipPath232)"
                 id="g260"><g
                   id="g262"><g
                     id="g264"><g
                       id="g266"><g
                         id="g268"><path
                           d="m 5.328,58.296 c 0,-14.812 6.051,-28.06 15.475,-38.066 l 0,0 c 4.896,40.443 39.027,71.893 80.791,71.893 l 0,0 c 1.125,0 2.17,-0.228 3.279,-0.271 l 0,0 c -10.216,13.287 -25.629,22.32 -43.676,22.32 l 0,0 C 30.355,114.173 5.328,89.15 5.328,58.296"
                           style="fill:url(#linearGradient240);stroke:none"
                           id="path270" /></g></g></g></g></g></g></g></g></g></mask><clipPath
       clipPathUnits="userSpaceOnUse"
       id="clipPath272"><path
         d="m -40.5859,157.494 191.3749,0 0,-180.5858 -191.3749,0 0,180.5858 z"
         id="path274" /></clipPath><linearGradient
       x1="0"
       y1="0"
       x2="1"
       y2="0"
       gradientUnits="userSpaceOnUse"
       gradientTransform="matrix(38.51149,-54.612351,57.877258,36.33905,19.1875,118.03906)"
       spreadMethod="pad"
       id="linearGradient280"><stop
         style="stop-opacity:1;stop-color:#ffffff"
         offset="0"
         id="stop282" /><stop
         style="stop-opacity:1;stop-color:#ffffff"
         offset="1"
         id="stop284" /></linearGradient></defs><sodipodi:namedview
     pagecolor="#ffffff"
     bordercolor="#666666"
     borderopacity="1"
     objecttolerance="10"
     gridtolerance="10"
     guidetolerance="10"
     inkscape:pageopacity="0"
     inkscape:pageshadow="2"
     inkscape:window-width="640"
     inkscape:window-height="480"
     id="namedview4"
     showgrid="false"
     inkscape:zoom="1.5603306"
     inkscape:cx="75.625"
     inkscape:cy="75.625"
     inkscape:window-x="0"
     inkscape:window-y="0"
     inkscape:window-maximized="0"
     inkscape:current-layer="g10" /><g
     id="g10"
     inkscape:groupmode="layer"
     inkscape:label="lock-off"
     transform="matrix(1.25,0,0,-1.25,0,151.25)"><g
       id="g12"><g
         id="g14"><g
           id="g20"><g
             id="g22"><path
               d="M 59.532,121 C 27.753,120.487 1.911,95.522 0,64.099 l 0,0 0,-7.477 C 1.811,26.832 25.125,2.856 54.612,0 l 0,0 11.84,0 C 95.634,2.826 118.758,26.326 121,55.677 l 0,0 0,9.368 C 118.633,96.021 92.993,120.49 61.527,121 l 0,0 -1.995,0 z"
               style="fill:url(#linearGradient24);stroke:none"
               id="path34" /></g></g></g></g><g
       id="g36"><g
         id="g38"><g
           id="g44"><g
             id="g46"><path
               d="M 4.504,60.36 C 4.504,29.469 29.637,4.331 60.531,4.331 l 0,0 c 30.899,0 56.025,25.138 56.025,56.029 l 0,0 c 0,30.892 -25.129,56.023 -56.025,56.023 l 0,0 C 29.641,116.383 4.504,91.256 4.504,60.36"
               style="fill:url(#linearGradient48);stroke:none"
               id="path58" /></g></g></g></g><g
       id="g60"><g
         id="g62"><g
           id="g68"><g
             id="g70"><path
               d="m 4.504,60.361 c 0,-0.234 0.031,-0.452 0.037,-0.687 l 0,0 c 0.373,30.569 25.332,55.336 55.99,55.336 l 0,0 c 30.662,0 55.616,-24.767 55.99,-55.336 l 0,0 c 0.006,0.234 0.035,0.452 0.035,0.687 l 0,0 c 0,30.897 -25.132,56.026 -56.025,56.026 l 0,0 C 29.637,116.387 4.504,91.256 4.504,60.361"
               style="fill:url(#linearGradient72);stroke:none"
               id="path88" /></g></g></g></g><g
       id="g90"><g
         id="g92"><g
           id="g98"><g
             id="g100"><path
               d="m 60.531,5.703 c -30.658,0 -55.617,24.762 -55.99,55.338 l 0,0 C 4.535,60.809 4.504,60.587 4.504,60.353 l 0,0 C 4.504,29.456 29.637,4.329 60.531,4.329 l 0,0 c 30.893,0 56.025,25.127 56.025,56.024 l 0,0 c 0,0.234 -0.029,0.456 -0.035,0.688 l 0,0 C 116.147,30.467 91.193,5.703 60.531,5.703"
               style="fill:url(#linearGradient102);stroke:none"
               id="path118" /></g></g></g></g><g
       id="g120"><g
         id="g122"
         clip-path="url(#clipPath124)"><path
           d="m 40.756,34.507 41.928,0 0,29.521 -41.928,0 0,-29.521 z"
           style="fill:#292929;fill-opacity:1;fill-rule:nonzero;stroke:none"
           id="path128" /><path
           d="m 42.557,36.304 38.328,0 0,25.924 -38.328,0 0,-25.924 z m 41.925,-3.6 -45.527,0 0,33.123 45.527,0 0,-33.123 z"
           style="fill:#292929;fill-opacity:1;fill-rule:nonzero;stroke:none"
           id="path130" /><g
           id="g132"
           transform="translate(47.5723,59.2207)"><path
             d="m 0,0 5.041,0 0,19.434 c -0.002,0.04 0.012,4.061 2.545,6.632 1.482,1.506 3.637,2.272 6.441,2.272 2.746,0 4.891,-0.755 6.371,-2.246 2.563,-2.572 2.569,-6.63 2.569,-6.696 l 0,-5.395 5.041,0 0,5.357 c 0.002,0.249 0.043,6.147 -3.996,10.246 -2.467,2.503 -5.824,3.773 -10.032,3.773 -4.158,0 -7.521,-1.27 -9.984,-3.773 C -0.043,25.504 -0.002,19.607 0,19.396 L 0,0 z"
             style="fill:#292929;fill-opacity:1;fill-rule:nonzero;stroke:none"
             id="path134" /></g><g
           id="g136"
           transform="translate(72.3457,75.0205)"><path
             d="m 0,0 1.438,0 0,3.559 c 0.001,0.079 0.035,5.417 -3.477,8.982 -2.117,2.147 -5.061,3.236 -8.752,3.236 -3.66,0 -6.588,-1.089 -8.703,-3.236 -3.512,-3.562 -3.481,-8.862 -3.479,-8.916 l 0,-17.625 1.44,0 0,17.634 c -0.004,0.008 -0.069,4.719 3.06,7.896 1.836,1.863 4.438,2.808 7.729,2.808 3.242,0 5.812,-0.934 7.646,-2.776 3.008,-3.021 3.096,-7.468 3.096,-7.965 L -0.002,0 0,0 z m 5.039,-3.599 -8.641,0 0,7.196 c 0,0.031 -0.041,3.411 -2.046,5.424 -1.133,1.14 -2.85,1.717 -5.098,1.717 -2.291,0 -4.025,-0.583 -5.16,-1.734 -1.981,-2.01 -2.028,-5.336 -2.028,-14.37 l 0,-12.231 -8.638,0 0,12.194 c -0.004,9.25 -0.063,15.831 4.513,20.473 2.817,2.859 6.608,4.31 11.27,4.31 4.691,0 8.498,-1.45 11.314,-4.31 C 5.006,10.522 5.047,4.238 5.039,3.536 l 0,-7.135 z"
             style="fill:#292929;fill-opacity:1;fill-rule:nonzero;stroke:none"
             id="path138" /></g></g></g><g
       id="g140"><g
         id="g142"><g
           id="g148"><g
             id="g150"><path
               d="m 40.756,34.507 41.928,0 0,29.52 -41.928,0 0,-29.52 z"
               style="fill:url(#radialGradient152);stroke:none"
               id="path170" /></g></g></g></g><g
       id="g172"><g
         id="g174"><g
           id="g180"><g
             id="g182"><path
               d="M 51.568,88.825 C 47.529,84.724 47.57,78.828 47.572,78.616 l 0,0 0,-19.395 5.041,0 0,19.434 c -0.002,0.039 0.012,4.06 2.545,6.632 l 0,0 c 1.483,1.506 3.637,2.271 6.442,2.271 l 0,0 c 2.746,0 4.89,-0.754 6.371,-2.245 l 0,0 c 2.562,-2.572 2.568,-6.631 2.568,-6.696 l 0,0 0,-5.396 5.041,0 0,5.358 c 0.002,0.249 0.043,6.147 -3.996,10.246 l 0,0 c -2.467,2.503 -5.825,3.772 -10.031,3.772 l 0,0 c -4.158,0 -7.522,-1.269 -9.985,-3.772"
               style="fill:url(#radialGradient184);stroke:none"
               id="path202" /></g></g></g></g><g
       id="g204"><g
         id="g206"
         clip-path="url(#clipPath208)"><g
           id="g212"
           transform="translate(65.2676,49.2188)"><path
             d="M 0,0 4.195,4.172 C 5.174,5.146 5.178,6.729 4.207,7.708 3.23,8.687 1.65,8.69 0.67,7.719 L -3.547,3.525 -7.766,7.719 c -0.98,0.972 -2.562,0.969 -3.537,-0.011 -0.972,-0.98 -0.968,-2.562 0.012,-3.536 L -7.096,0 -11.291,-4.172 c -0.979,-0.975 -0.982,-2.557 -0.012,-3.536 0.49,-0.491 1.133,-0.737 1.774,-0.737 0.638,0 1.273,0.242 1.763,0.726 l 4.219,4.194 4.217,-4.194 c 0.488,-0.482 1.125,-0.726 1.764,-0.726 0.644,0 1.283,0.246 1.773,0.737 0.973,0.979 0.969,2.562 -0.012,3.536 L 0,0 z"
             style="fill:#292929;fill-opacity:1;fill-rule:nonzero;stroke:none"
             id="path214" /></g><g
           id="g216"><g
             id="g218" /><g
             id="g286"><g
               clip-path="url(#clipPath220)"
               opacity="0.5"
               id="g288"><g
                 id="g290"><g
                   clip-path="url(#clipPath224)"
                   id="g292"><g
                     id="g294"><g
                       id="g296" /><g
                       mask="url(#mask246)"
                       id="g298"><g
                         id="g300" /><g
                         id="g302"><g
                           clip-path="url(#clipPath272)"
                           id="g304"><g
                             id="g306"><g
                               id="g308"><g
                                 id="g310"><g
                                   id="g312"><path
                                   d="M -40.586,85.346 35.877,-23.092 150.789,49.059 74.324,157.494 -40.586,85.346 z"
                                   style="fill:url(#linearGradient280);stroke:none"
                                   id="path314" /></g></g></g></g></g></g></g></g></g></g></g></g></g></g></g></g></svg>