<?xml version="1.0" encoding="UTF-8" standalone="no"?>
<!-- Created with Inkscape (http://www.inkscape.org/) -->

<svg
   xmlns:dc="http://purl.org/dc/elements/1.1/"
   xmlns:cc="http://creativecommons.org/ns#"
   xmlns:rdf="http://www.w3.org/1999/02/22-rdf-syntax-ns#"
   xmlns:svg="http://www.w3.org/2000/svg"
   xmlns="http://www.w3.org/2000/svg"
   xmlns:sodipodi="http://sodipodi.sourceforge.net/DTD/sodipodi-0.dtd"
   xmlns:inkscape="http://www.inkscape.org/namespaces/inkscape"
   id="svg3373"
   version="1.1"
   inkscape:version="0.48.2 r9819"
   width="151.25"
   height="151.25"
   xml:space="preserve"
   sodipodi:docname="lock-alert.ai"><metadata
     id="metadata3379"><rdf:RDF><cc:Work
         rdf:about=""><dc:format>image/svg+xml</dc:format><dc:type
           rdf:resource="http://purl.org/dc/dcmitype/StillImage" /><dc:title></dc:title></cc:Work></rdf:RDF></metadata><defs
     id="defs3377"><linearGradient
       x1="0"
       y1="0"
       x2="1"
       y2="0"
       gradientUnits="userSpaceOnUse"
       gradientTransform="matrix(0,121.35645,121.35645,0,60.545898,-0.0429687)"
       spreadMethod="pad"
       id="linearGradient3395"><stop
         style="stop-opacity:1;stop-color:#4d4d4f"
         offset="0"
         id="stop3397" /><stop
         style="stop-opacity:1;stop-color:#48484a"
         offset="0.397202"
         id="stop3399" /><stop
         style="stop-opacity:1;stop-color:#363737"
         offset="0.788696"
         id="stop3401" /><stop
         style="stop-opacity:1;stop-color:#292929"
         offset="1"
         id="stop3403" /></linearGradient><linearGradient
       x1="0"
       y1="0"
       x2="1"
       y2="0"
       gradientUnits="userSpaceOnUse"
       gradientTransform="matrix(0,112.11621,112.11621,0,60.545898,4.5761719)"
       spreadMethod="pad"
       id="linearGradient3419"><stop
         style="stop-opacity:1;stop-color:#292929"
         offset="0"
         id="stop3421" /><stop
         style="stop-opacity:1;stop-color:#363737"
         offset="0.211304"
         id="stop3423" /><stop
         style="stop-opacity:1;stop-color:#48484a"
         offset="0.602798"
         id="stop3425" /><stop
         style="stop-opacity:1;stop-color:#4d4d4f"
         offset="1"
         id="stop3427" /></linearGradient><linearGradient
       x1="0"
       y1="0"
       x2="1"
       y2="0"
       gradientUnits="userSpaceOnUse"
       gradientTransform="matrix(112.07715,0,0,-112.07715,4.5068359,88.306152)"
       spreadMethod="pad"
       id="linearGradient3443"><stop
         style="stop-opacity:1;stop-color:#292929"
         offset="0"
         id="stop3445" /><stop
         style="stop-opacity:1;stop-color:#657178"
         offset="0.130402"
         id="stop3447" /><stop
         style="stop-opacity:1;stop-color:#7e9dab"
         offset="0.266098"
         id="stop3449" /><stop
         style="stop-opacity:1;stop-color:#85bbd4"
         offset="0.378799"
         id="stop3451" /><stop
         style="stop-opacity:1;stop-color:#84cded"
         offset="0.462402"
         id="stop3453" /><stop
         style="stop-opacity:1;stop-color:#84d4f7"
         offset="0.507797"
         id="stop3455" /><stop
         style="stop-opacity:1;stop-color:#292929"
         offset="1"
         id="stop3457" /></linearGradient><linearGradient
       x1="0"
       y1="0"
       x2="1"
       y2="0"
       gradientUnits="userSpaceOnUse"
       gradientTransform="matrix(112.07715,0,0,112.07715,4.5068359,32.931641)"
       spreadMethod="pad"
       id="linearGradient3473"><stop
         style="stop-opacity:1;stop-color:#292929"
         offset="0"
         id="stop3475" /><stop
         style="stop-opacity:1;stop-color:#657178"
         offset="0.130402"
         id="stop3477" /><stop
         style="stop-opacity:1;stop-color:#7e9dab"
         offset="0.266098"
         id="stop3479" /><stop
         style="stop-opacity:1;stop-color:#85bbd4"
         offset="0.378799"
         id="stop3481" /><stop
         style="stop-opacity:1;stop-color:#84cded"
         offset="0.462402"
         id="stop3483" /><stop
         style="stop-opacity:1;stop-color:#84d4f7"
         offset="0.507797"
         id="stop3485" /><stop
         style="stop-opacity:1;stop-color:#292929"
         offset="1"
         id="stop3487" /></linearGradient><clipPath
       clipPathUnits="userSpaceOnUse"
       id="clipPath3495"><path
         d="M 0,121 121,121 121,0 0,0 0,121 z"
         id="path3497" /></clipPath><radialGradient
       fx="0"
       fy="0"
       cx="0"
       cy="0"
       r="1"
       gradientUnits="userSpaceOnUse"
       gradientTransform="matrix(91.874466,0,0,-91.874466,34.111328,102.46045)"
       spreadMethod="pad"
       id="radialGradient3523"><stop
         style="stop-opacity:1;stop-color:#2a7ea9"
         offset="0"
         id="stop3525" /><stop
         style="stop-opacity:1;stop-color:#2881ac"
         offset="0.0158997"
         id="stop3527" /><stop
         style="stop-opacity:1;stop-color:#2795c1"
         offset="0.144302"
         id="stop3529" /><stop
         style="stop-opacity:1;stop-color:#27a7d2"
         offset="0.280502"
         id="stop3531" /><stop
         style="stop-opacity:1;stop-color:#3bb7e0"
         offset="0.424896"
         id="stop3533" /><stop
         style="stop-opacity:1;stop-color:#56c4ee"
         offset="0.581299"
         id="stop3535" /><stop
         style="stop-opacity:1;stop-color:#67cbf3"
         offset="0.758301"
         id="stop3537" /><stop
         style="stop-opacity:1;stop-color:#6ccef5"
         offset="1"
         id="stop3539" /></radialGradient><radialGradient
       fx="0"
       fy="0"
       cx="0"
       cy="0"
       r="1"
       gradientUnits="userSpaceOnUse"
       gradientTransform="matrix(91.902115,0,0,-91.902115,34.101562,102.48389)"
       spreadMethod="pad"
       id="radialGradient3555"><stop
         style="stop-opacity:1;stop-color:#2a7ea9"
         offset="0"
         id="stop3557" /><stop
         style="stop-opacity:1;stop-color:#2881ac"
         offset="0.0158997"
         id="stop3559" /><stop
         style="stop-opacity:1;stop-color:#2795c1"
         offset="0.144302"
         id="stop3561" /><stop
         style="stop-opacity:1;stop-color:#27a7d2"
         offset="0.280502"
         id="stop3563" /><stop
         style="stop-opacity:1;stop-color:#3bb7e0"
         offset="0.424896"
         id="stop3565" /><stop
         style="stop-opacity:1;stop-color:#56c4ee"
         offset="0.581299"
         id="stop3567" /><stop
         style="stop-opacity:1;stop-color:#67cbf3"
         offset="0.758301"
         id="stop3569" /><stop
         style="stop-opacity:1;stop-color:#6ccef5"
         offset="1"
         id="stop3571" /></radialGradient><clipPath
       clipPathUnits="userSpaceOnUse"
       id="clipPath3579"><path
         d="M 0,121 121,121 121,0 0,0 0,121 z"
         id="path3581" /></clipPath><linearGradient
       x1="0"
       y1="0"
       x2="1"
       y2="0"
       gradientUnits="userSpaceOnUse"
       gradientTransform="matrix(21.757828,-30.284653,30.284653,21.757828,69.855469,53.75293)"
       spreadMethod="pad"
       id="linearGradient3599"><stop
         style="stop-opacity:1;stop-color:#f48335"
         offset="0"
         id="stop3601" /><stop
         style="stop-opacity:1;stop-color:#f58c35"
         offset="0.244202"
         id="stop3603" /><stop
         style="stop-opacity:1;stop-color:#f58c35"
         offset="0.244202"
         id="stop3605" /><stop
         style="stop-opacity:1;stop-color:#f9a533"
         offset="0.643906"
         id="stop3607" /><stop
         style="stop-opacity:1;stop-color:#fcbf30"
         offset="1"
         id="stop3609" /></linearGradient><clipPath
       clipPathUnits="userSpaceOnUse"
       id="clipPath3617"><path
         d="M 0,121 121,121 121,0 0,0 0,121 z"
         id="path3619" /></clipPath><linearGradient
       x1="0"
       y1="0"
       x2="1"
       y2="0"
       gradientUnits="userSpaceOnUse"
       gradientTransform="matrix(21.757828,-30.284653,30.284653,21.757828,69.855469,53.75293)"
       spreadMethod="pad"
       id="linearGradient3637"><stop
         style="stop-opacity:1;stop-color:#64b051"
         offset="0"
         id="stop3639" /><stop
         style="stop-opacity:1;stop-color:#63bb51"
         offset="0.00520325"
         id="stop3641" /><stop
         style="stop-opacity:1;stop-color:#6cbe50"
         offset="0.169296"
         id="stop3643" /><stop
         style="stop-opacity:1;stop-color:#83c44d"
         offset="0.439804"
         id="stop3645" /><stop
         style="stop-opacity:1;stop-color:#a6cf47"
         offset="0.781006"
         id="stop3647" /><stop
         style="stop-opacity:1;stop-color:#c4d83e"
         offset="1"
         id="stop3649" /></linearGradient><clipPath
       clipPathUnits="userSpaceOnUse"
       id="clipPath3657"><path
         d="M 0,121 121,121 121,0 0,0 0,121 z"
         id="path3659" /></clipPath><clipPath
       clipPathUnits="userSpaceOnUse"
       id="clipPath3673"><path
         d="m -40.4414,158.004 191.3784,0 0,-180.5802 -191.3784,0 0,180.5802 z"
         id="path3675" /></clipPath><clipPath
       clipPathUnits="userSpaceOnUse"
       id="clipPath3677"><path
         d="m 5.469,58.76 c 0,-14.813 6.05,-28.059 15.472,-38.066 4.899,40.449 39.05,71.951 80.816,71.951 1.126,0 2.171,-0.229 3.281,-0.27 C 94.822,105.66 79.408,114.693 61.363,114.693 30.495,114.694 5.469,89.673 5.469,58.76"
         id="path3679" /></clipPath><clipPath
       clipPathUnits="userSpaceOnUse"
       id="clipPath3681"><path
         d="m -40.4414,158.004 191.3784,0 0,-180.5802 -191.3784,0 0,180.5802 z"
         id="path3683" /></clipPath><clipPath
       clipPathUnits="userSpaceOnUse"
       id="clipPath3685"><path
         d="m -40.4414,158.004 191.3784,0 0,-180.5802 -191.3784,0 0,180.5802 z"
         id="path3687" /></clipPath><linearGradient
       x1="0"
       y1="0"
       x2="1"
       y2="0"
       gradientUnits="userSpaceOnUse"
       gradientTransform="matrix(38.523071,-54.628769,57.894653,36.349976,19.375,118.57031)"
       spreadMethod="pad"
       id="linearGradient3693"><stop
         style="stop-opacity:1;stop-color:#ffffff"
         offset="0"
         id="stop3695" /><stop
         style="stop-opacity:1;stop-color:#292929"
         offset="1"
         id="stop3697" /></linearGradient><mask
       maskUnits="userSpaceOnUse"
       x="0"
       y="0"
       width="1"
       height="1"
       id="mask3699"><g
         id="g3701"><g
           clip-path="url(#clipPath3681)"
           id="g3703"><path
             d="m -40.441,158.004 191.378,0 0,-180.58 -191.378,0 0,180.58 z"
             style="fill:#000000;fill-opacity:1;fill-rule:nonzero;stroke:none"
             id="path3705" /><g
             id="g3707"><g
               id="g3709" /><g
               id="g3711"><g
                 clip-path="url(#clipPath3685)"
                 id="g3713"><g
                   id="g3715"><g
                     id="g3717"><g
                       id="g3719"><g
                         id="g3721"><path
                           d="m 5.469,58.76 c 0,-14.813 6.049,-28.059 15.472,-38.065 l 0,0 c 4.899,40.447 39.049,71.949 80.816,71.949 l 0,0 c 1.126,0 2.171,-0.228 3.281,-0.27 l 0,0 c -10.216,13.286 -25.63,22.319 -43.675,22.319 l 0,0 C 30.495,114.694 5.469,89.673 5.469,58.76"
                           style="fill:url(#linearGradient3693);stroke:none"
                           id="path3723" /></g></g></g></g></g></g></g></g></g></mask><clipPath
       clipPathUnits="userSpaceOnUse"
       id="clipPath3725"><path
         d="m -40.4414,158.004 191.3784,0 0,-180.5802 -191.3784,0 0,180.5802 z"
         id="path3727" /></clipPath><linearGradient
       x1="0"
       y1="0"
       x2="1"
       y2="0"
       gradientUnits="userSpaceOnUse"
       gradientTransform="matrix(38.523071,-54.628769,57.894653,36.349976,19.375,118.57031)"
       spreadMethod="pad"
       id="linearGradient3733"><stop
         style="stop-opacity:1;stop-color:#ffffff"
         offset="0"
         id="stop3735" /><stop
         style="stop-opacity:1;stop-color:#ffffff"
         offset="1"
         id="stop3737" /></linearGradient></defs><sodipodi:namedview
     pagecolor="#ffffff"
     bordercolor="#666666"
     borderopacity="1"
     objecttolerance="10"
     gridtolerance="10"
     guidetolerance="10"
     inkscape:pageopacity="0"
     inkscape:pageshadow="2"
     inkscape:window-width="640"
     inkscape:window-height="480"
     id="namedview3375"
     showgrid="false"
     inkscape:zoom="1.5603306"
     inkscape:cx="75.625"
     inkscape:cy="75.625"
     inkscape:window-x="0"
     inkscape:window-y="0"
     inkscape:window-maximized="0"
     inkscape:current-layer="g3381" /><g
     id="g3381"
     inkscape:groupmode="layer"
     inkscape:label="lock-alert"
     transform="matrix(1.25,0,0,-1.25,0,151.25)"><g
       id="g3383"><g
         id="g3385"><g
           id="g3391"><g
             id="g3393"><path
               d="M 54.343,121 C 24.97,118.012 1.8,94.079 0,64.339 l 0,0 0,-7.455 C 1.879,25.878 27.044,1.167 58.246,0 l 0,0 4.62,0 C 93.618,1.15 118.507,25.19 121,55.583 l 0,0 0,10.058 C 118.613,94.775 95.697,118.056 66.767,121 l 0,0 -12.424,0 z"
               style="fill:url(#linearGradient3395);stroke:none"
               id="path3405" /></g></g></g></g><g
       id="g3407"><g
         id="g3409"><g
           id="g3415"><g
             id="g3417"><path
               d="m 4.507,60.609 c 0,-30.896 25.134,-56.032 56.05,-56.032 l 0,0 c 30.9,0 56.027,25.136 56.027,56.032 l 0,0 c 0,30.953 -25.129,56.084 -56.027,56.084 l 0,0 c -30.916,0 -56.05,-25.129 -56.05,-56.084"
               style="fill:url(#linearGradient3419);stroke:none"
               id="path3429" /></g></g></g></g><g
       id="g3431"><g
         id="g3433"><g
           id="g3439"><g
             id="g3441"><path
               d="m 4.507,60.608 c 0,-0.236 0.03,-0.455 0.036,-0.69 l 0,0 c 0.374,30.633 25.333,55.398 56.014,55.398 l 0,0 c 30.663,0 55.617,-24.765 55.992,-55.398 l 0,0 c 0.005,0.235 0.035,0.454 0.035,0.69 l 0,0 c 0,30.956 -25.129,56.085 -56.027,56.085 l 0,0 c -30.916,0 -56.05,-25.131 -56.05,-56.085"
               style="fill:url(#linearGradient3443);stroke:none"
               id="path3459" /></g></g></g></g><g
       id="g3461"><g
         id="g3463"><g
           id="g3469"><g
             id="g3471"><path
               d="M 60.557,5.947 C 29.876,5.947 4.917,30.71 4.543,61.292 l 0,0 C 4.537,61.056 4.507,60.835 4.507,60.6 l 0,0 c 0,-30.902 25.134,-56.028 56.05,-56.028 l 0,0 c 30.898,0 56.027,25.126 56.027,56.028 l 0,0 c 0,0.235 -0.03,0.456 -0.035,0.692 l 0,0 C 116.174,30.71 91.22,5.947 60.557,5.947"
               style="fill:url(#linearGradient3473);stroke:none"
               id="path3489" /></g></g></g></g><g
       id="g3491"><g
         id="g3493"
         clip-path="url(#clipPath3495)"><path
           d="m 40.759,34.751 41.951,0 0,29.542 -41.951,0 0,-29.542 z"
           style="fill:#292929;fill-opacity:1;fill-rule:nonzero;stroke:none"
           id="path3499" /><path
           d="m 42.558,36.549 38.354,0 0,25.935 -38.354,0 0,-25.935 z m 41.952,-3.6 -45.552,0 0,33.153 45.552,0 0,-33.153 z"
           style="fill:#292929;fill-opacity:1;fill-rule:nonzero;stroke:none"
           id="path3501" /><g
           id="g3503"
           transform="translate(47.5742,68.5063)"><path
             d="m 0,0 5.041,0 0,10.456 c -0.002,0.04 0.013,4.061 2.545,6.633 1.488,1.506 3.652,2.271 6.469,2.271 2.746,0 4.889,-0.755 6.371,-2.247 2.56,-2.571 2.57,-6.629 2.57,-6.694 l 0,-10.417 5.042,0 0,10.378 c 0.003,0.25 0.043,6.147 -3.996,10.246 C 21.574,23.13 18.215,24.399 14.01,24.399 9.83,24.399 6.464,23.13 3.999,20.626 -0.041,16.526 0,10.63 0.001,10.417 L 0.001,0 0,0 z"
             style="fill:#292929;fill-opacity:1;fill-rule:nonzero;stroke:none"
             id="path3505" /></g><g
           id="g3507"
           transform="translate(72.373,70.3154)"><path
             d="m 0,0 1.438,0 0,8.571 c 0,0.08 0.035,5.417 -3.477,8.983 -2.117,2.147 -5.062,3.236 -8.752,3.236 -3.675,0 -6.612,-1.089 -8.728,-3.236 C -23.032,13.992 -23,8.692 -22.998,8.637 l 0,-8.637 1.44,0 0,8.647 c -0.002,0.008 -0.069,4.718 3.06,7.896 1.836,1.862 4.45,2.808 7.754,2.808 3.24,0 5.812,-0.934 7.646,-2.776 3.009,-3.021 3.096,-7.468 3.096,-7.965 L -0.002,0 0,0 z m 5.039,-3.617 -8.641,0 0,12.227 c 0,0.031 -0.041,3.411 -2.046,5.424 -1.133,1.139 -2.848,1.716 -5.096,1.716 -2.299,0 -4.046,-0.583 -5.185,-1.734 -1.983,-2.009 -2.029,-5.336 -2.029,-5.369 l 0,-12.264 -8.639,0 0,12.227 c -0.005,0.248 -0.063,6.829 4.514,11.471 2.816,2.859 6.612,4.31 11.292,4.31 4.693,0 8.498,-1.45 11.316,-4.31 C 5.006,15.533 5.047,9.249 5.039,8.547 l 0,-12.164 z"
             style="fill:#292929;fill-opacity:1;fill-rule:nonzero;stroke:none"
             id="path3509" /></g></g></g><g
       id="g3511"><g
         id="g3513"><g
           id="g3519"><g
             id="g3521"><path
               d="m 40.759,34.751 41.951,0 0,29.542 -41.951,0 0,-29.542 z"
               style="fill:url(#radialGradient3523);stroke:none"
               id="path3541" /></g></g></g></g><g
       id="g3543"><g
         id="g3545"><g
           id="g3551"><g
             id="g3553"><path
               d="M 51.573,89.132 C 47.534,85.033 47.574,79.136 47.576,78.924 l 0,0 0,-10.418 5.039,0 0,10.456 c -0.002,0.04 0.013,4.061 2.546,6.633 l 0,0 c 1.488,1.506 3.651,2.271 6.468,2.271 l 0,0 c 2.746,0 4.89,-0.754 6.371,-2.246 l 0,0 c 2.561,-2.572 2.57,-6.63 2.57,-6.694 l 0,0 0,-10.417 5.043,0 0,10.378 c 0.002,0.249 0.042,6.146 -3.996,10.245 l 0,0 c -2.468,2.504 -5.828,3.774 -10.033,3.774 l 0,0 c -4.179,0 -7.546,-1.27 -10.011,-3.774 m -3.999,-20.626 0.002,0 -0.002,0 z"
               style="fill:url(#radialGradient3555);stroke:none"
               id="path3573" /></g></g></g></g><g
       id="g3575"><g
         id="g3577"
         clip-path="url(#clipPath3579)"><g
           id="g3583"
           transform="translate(71.3652,53.1787)"><path
             d="m 0,0 -12.042,-12.441 -7.415,6.94 c -1.015,0.953 -1.067,2.547 -0.114,3.561 0.95,1.015 2.547,1.067 3.56,0.114 l 3.797,-3.544 8.591,8.873 c 0.971,1.002 2.564,1.027 3.564,0.06 C 0.941,2.596 0.967,1.002 0,0"
             style="fill:#373536;fill-opacity:1;fill-rule:nonzero;stroke:none"
             id="path3585" /></g></g></g><g
       id="g3587"><g
         id="g3589"><g
           id="g3595"><g
             id="g3597"><path
               d="m 84.23,54.76 c -0.935,-0.08 -1.262,-0.712 -1.607,-1.329 l 0,0 c -0.463,-0.82 -0.971,-1.699 -1.416,-2.484 l 0,0 c -0.14,-0.25 -0.277,-0.479 -0.406,-0.707 l 0,0 c -1.405,-2.5 -2.785,-4.976 -4.22,-7.453 l 0,0 C 75.65,41.178 74.668,39.361 73.713,37.752 l 0,0 c -0.16,-0.267 -0.311,-0.545 -0.451,-0.792 l 0,0 C 73.19,36.832 73.14,36.72 73.07,36.596 l 0,0 c -0.364,-0.637 -0.755,-1.336 -1.115,-1.95 l 0,0 c -0.108,-0.183 -0.199,-0.36 -0.299,-0.535 l 0,0 C 71.414,33.69 71.184,33.283 70.948,32.869 l 0,0 c -0.265,-0.47 -0.633,-1.033 -0.642,-1.586 l 0,0 c -0.013,-0.606 0.362,-1.129 0.728,-1.37 l 0,0 c 0.461,-0.307 1.079,-0.299 1.798,-0.299 l 0,0 23.156,0 c 0.385,0 0.718,-0.004 1.007,0.043 l 0,0 c 0.573,0.092 0.993,0.435 1.22,0.877 l 0,0 c 0.124,0.245 0.198,0.542 0.174,0.876 l 0,0 c -0.054,0.627 -0.377,1.005 -0.643,1.48 l 0,0 c -1.005,1.782 -1.99,3.516 -3.043,5.375 l 0,0 c -0.666,1.178 -1.473,2.617 -2.184,3.834 l 0,0 c -0.106,0.183 -0.184,0.353 -0.279,0.516 l 0,0 c -1.111,1.912 -2.255,3.953 -3.342,5.868 l 0,0 c -0.634,1.12 -1.296,2.26 -1.907,3.362 l 0,0 c -0.226,0.407 -0.433,0.791 -0.664,1.18 l 0,0 c -0.273,0.461 -0.515,0.976 -0.835,1.286 l 0,0 c -0.257,0.245 -0.658,0.454 -1.127,0.454 l 0,0 c -0.045,0 -0.089,-0.002 -0.135,-0.005"
               style="fill:url(#linearGradient3599);stroke:none"
               id="path3611" /></g></g></g></g><g
       id="g3613"><g
         id="g3615"
         clip-path="url(#clipPath3617)"><g
           id="g3621"
           transform="translate(98.2148,30.5342)"><path
             d="m 0,0 c -0.227,-0.442 -0.646,-0.785 -1.22,-0.877 -0.289,-0.047 -0.622,-0.044 -1.008,-0.044 l -23.155,0 c -0.719,0 -1.337,-0.007 -1.798,0.3 -0.366,0.241 -0.741,0.765 -0.727,1.37 0.009,0.553 0.377,1.116 0.641,1.586 0.236,0.414 0.466,0.82 0.708,1.242 0.1,0.174 0.191,0.352 0.299,0.535 0.361,0.614 0.751,1.313 1.115,1.95 0.071,0.124 0.12,0.236 0.192,0.364 0.14,0.247 0.291,0.525 0.451,0.792 0.955,1.609 1.938,3.426 2.868,5.035 1.435,2.476 2.816,4.953 4.22,7.453 0.129,0.229 0.266,0.457 0.406,0.707 0.445,0.785 0.953,1.664 1.416,2.484 0.346,0.617 0.672,1.249 1.608,1.329 0.527,0.045 0.98,-0.181 1.261,-0.45 0.321,-0.309 0.563,-0.824 0.835,-1.285 0.232,-0.389 0.439,-0.773 0.664,-1.179 0.611,-1.103 1.273,-2.244 1.907,-3.363 1.087,-1.916 2.231,-3.957 3.342,-5.868 0.095,-0.163 0.173,-0.333 0.28,-0.516 0.711,-1.217 1.517,-2.656 2.183,-3.834 C -2.458,5.872 -1.474,4.138 -0.469,2.355 -0.203,1.881 0.12,1.503 0.174,0.876 0.198,0.542 0.125,0.245 0,0 z"
             style="fill:none;stroke:#373536;stroke-opacity:1;stroke-width:6;stroke-linecap:butt;stroke-linejoin:miter;stroke-miterlimit:10;stroke-dasharray:none"
             id="path3623" /></g></g></g><g
       id="g3625"><g
         id="g3627"><g
           id="g3633"><g
             id="g3635"><path
               d="m 84.23,54.76 c -0.935,-0.08 -1.262,-0.712 -1.607,-1.329 l 0,0 c -0.463,-0.82 -0.971,-1.699 -1.416,-2.484 l 0,0 c -0.14,-0.25 -0.277,-0.479 -0.406,-0.707 l 0,0 c -1.405,-2.5 -2.785,-4.976 -4.22,-7.453 l 0,0 C 75.65,41.178 74.668,39.361 73.713,37.752 l 0,0 c -0.16,-0.267 -0.311,-0.545 -0.451,-0.792 l 0,0 C 73.19,36.832 73.14,36.72 73.07,36.596 l 0,0 c -0.364,-0.637 -0.755,-1.336 -1.115,-1.95 l 0,0 c -0.108,-0.183 -0.199,-0.36 -0.299,-0.535 l 0,0 C 71.414,33.69 71.184,33.283 70.948,32.869 l 0,0 c -0.265,-0.47 -0.633,-1.033 -0.642,-1.586 l 0,0 c -0.013,-0.606 0.362,-1.129 0.728,-1.37 l 0,0 c 0.461,-0.307 1.079,-0.299 1.798,-0.299 l 0,0 23.156,0 c 0.385,0 0.718,-0.004 1.007,0.043 l 0,0 c 0.573,0.092 0.993,0.435 1.22,0.877 l 0,0 c 0.124,0.245 0.198,0.542 0.174,0.876 l 0,0 c -0.054,0.627 -0.377,1.005 -0.643,1.48 l 0,0 c -1.005,1.782 -1.99,3.516 -3.043,5.375 l 0,0 c -0.666,1.178 -1.473,2.617 -2.184,3.834 l 0,0 c -0.106,0.183 -0.184,0.353 -0.279,0.516 l 0,0 c -1.111,1.912 -2.255,3.953 -3.342,5.868 l 0,0 c -0.634,1.12 -1.296,2.26 -1.907,3.362 l 0,0 c -0.226,0.407 -0.433,0.791 -0.664,1.18 l 0,0 c -0.273,0.461 -0.515,0.976 -0.835,1.286 l 0,0 c -0.257,0.245 -0.658,0.454 -1.127,0.454 l 0,0 c -0.045,0 -0.089,-0.002 -0.135,-0.005"
               style="fill:url(#linearGradient3637);stroke:none"
               id="path3651" /></g></g></g></g><g
       id="g3653"><g
         id="g3655"
         clip-path="url(#clipPath3657)"><g
           id="g3661"
           transform="translate(85.6621,46.7061)"><path
             d="m 0,0 c 0.11,-0.7 0.063,-1.47 0.063,-2.271 l 0,-5.804 c 0,-0.71 -0.023,-1.09 -0.362,-1.457 -0.299,-0.321 -0.844,-0.582 -1.478,-0.386 -0.42,0.215 -0.778,0.521 -0.877,1.028 -0.065,0.318 -0.024,0.713 -0.024,1.094 l 0,6.576 c 0,0.506 -0.029,0.954 0.086,1.285 0.222,0.372 0.495,0.689 0.987,0.793 C -0.732,0.995 -0.268,0.54 0,0"
             style="fill:#373536;fill-opacity:1;fill-rule:nonzero;stroke:none"
             id="path3663" /></g><g
           id="g3665"
           transform="translate(84.2051,35.6338)"><path
             d="m 0,0 c -0.623,-0.057 -1.055,-0.499 -1.135,-1.073 -0.045,-0.336 0.057,-0.598 0.152,-0.771 0.157,-0.292 0.514,-0.6 0.794,-0.663 0.375,-0.086 0.783,0.033 0.983,0.149 0.281,0.163 0.558,0.504 0.62,0.858 0.051,0.289 -0.019,0.622 -0.107,0.79 C 1.059,-0.226 0.681,0.06 0,0"
             style="fill:#373536;fill-opacity:1;fill-rule:nonzero;stroke:none"
             id="path3667" /></g><g
           id="g3669"><g
             id="g3671" /><g
             id="g3739"><g
               clip-path="url(#clipPath3673)"
               opacity="0.5"
               id="g3741"><g
                 id="g3743"><g
                   clip-path="url(#clipPath3677)"
                   id="g3745"><g
                     id="g3747"><g
                       id="g3749" /><g
                       mask="url(#mask3699)"
                       id="g3751"><g
                         id="g3753" /><g
                         id="g3755"><g
                           clip-path="url(#clipPath3725)"
                           id="g3757"><g
                             id="g3759"><g
                               id="g3761"><g
                                 id="g3763"><g
                                   id="g3765"><path
                                   d="M 74.49,158.017 -40.446,85.867 36.018,-22.627 150.956,49.522 74.49,158.017 z"
                                   style="fill:url(#linearGradient3733);stroke:none"
                                   id="path3767" /></g></g></g></g></g></g></g></g></g></g></g></g></g></g></g></g></svg>