<?xml version="1.0" encoding="utf-8"?>
<!-- Generator: Adobe Illustrator 15.1.0, SVG Export Plug-In . SVG Version: 6.00 Build 0)  -->
<!DOCTYPE svg PUBLIC "-//W3C//DTD SVG 1.1//EN" "http://www.w3.org/Graphics/SVG/1.1/DTD/svg11.dtd">
<svg version="1.1"
	 id="Layer_1" inkscape:version="0.48.2 r9819" sodipodi:docname="test.svg" xmlns:sodipodi="http://sodipodi.sourceforge.net/DTD/sodipodi-0.dtd" xmlns:inkscape="http://www.inkscape.org/namespaces/inkscape" xmlns:rdf="http://www.w3.org/1999/02/22-rdf-syntax-ns#" xmlns:svg="http://www.w3.org/2000/svg" xmlns:cc="http://creativecommons.org/ns#" xmlns:dc="http://purl.org/dc/elements/1.1/"
	 xmlns="http://www.w3.org/2000/svg" xmlns:xlink="http://www.w3.org/1999/xlink" x="0px" y="0px" width="80.779px"
	 height="28.162px" viewBox="0 0 80.779 28.162" enable-background="new 0 0 80.779 28.162" xml:space="preserve">
<sodipodi:namedview  fit-margin-left="0" fit-margin-bottom="0" showgrid="false" inkscape:current-layer="Layer_1" inkscape:window-x="0" inkscape:cx="41.035" pagecolor="#ffffff" inkscape:cy="13.639" bordercolor="#666666" inkscape:zoom="0.19627411" guidetolerance="10" fit-margin-top="0" inkscape:window-width="640" inkscape:window-height="480" fit-margin-right="0" inkscape:window-maximized="0" inkscape:window-y="0" inkscape:pageshadow="2" borderopacity="1" id="namedview65" inkscape:pageopacity="0" gridtolerance="10" objecttolerance="10">
	</sodipodi:namedview>
<g id="g3" transform="translate(-228.965,-586.67701)">
	
		<linearGradient id="path14_1_" gradientUnits="userSpaceOnUse" x1="763.2841" y1="1172.8772" x2="763.2841" y2="1144.7151" gradientTransform="matrix(1 0 0 1 -493.9297 -558.0371)">
		<stop  offset="0" style="stop-color:#414042"/>
		<stop  offset="0.3972" style="stop-color:#3A3A3C"/>
		<stop  offset="0.7887" style="stop-color:#212122"/>
		<stop  offset="1" style="stop-color:#000000"/>
	</linearGradient>
	<path id="path14" inkscape:connector-curvature="0" fill="url(#path14_1_)" d="M243.045,614.839c-7.764,0-14.08-6.315-14.08-14.082
		c0-7.764,6.316-14.08,14.08-14.08h52.617c7.766,0,14.082,6.316,14.082,14.08c0,7.767-6.316,14.082-14.082,14.082H243.045
		L243.045,614.839z"/>
	
		<linearGradient id="path25_1_" gradientUnits="userSpaceOnUse" x1="763.2841" y1="1170.6272" x2="763.2841" y2="1146.9651" gradientTransform="matrix(1 0 0 1 -493.9297 -558.0371)">
		<stop  offset="0" style="stop-color:#000000"/>
		<stop  offset="0.2113" style="stop-color:#212122"/>
		<stop  offset="0.6028" style="stop-color:#3A3A3C"/>
		<stop  offset="1" style="stop-color:#414042"/>
	</linearGradient>
	<path id="path25" inkscape:connector-curvature="0" fill="url(#path25_1_)" d="M307.494,600.757
		c0,6.535-5.297,11.832-11.832,11.832h-52.617c-6.533,0-11.83-5.297-11.83-11.832l0,0c0-6.533,5.297-11.83,11.83-11.83h52.617
		C302.197,588.927,307.494,594.224,307.494,600.757L307.494,600.757z"/>
	
		<linearGradient id="path42_1_" gradientUnits="userSpaceOnUse" x1="725.1444" y1="1152.9905" x2="801.4237" y2="1152.9905" gradientTransform="matrix(1 0 0 1 -493.9297 -558.0371)">
		<stop  offset="0" style="stop-color:#000000"/>
		<stop  offset="0.1304" style="stop-color:#5D6A72"/>
		<stop  offset="0.2661" style="stop-color:#7899A9"/>
		<stop  offset="0.3788" style="stop-color:#80B9D3"/>
		<stop  offset="0.4624" style="stop-color:#7FCBEB"/>
		<stop  offset="0.5078" style="stop-color:#7ED3F7"/>
		<stop  offset="1" style="stop-color:#000000"/>
	</linearGradient>
	<path id="path42" inkscape:connector-curvature="0" fill="url(#path42_1_)" d="M243.045,589.376h52.617
		c6.459,0,11.701,5.176,11.82,11.604c0-0.074,0.012-0.148,0.012-0.225c0-6.533-5.297-11.83-11.832-11.83h-52.617
		c-6.533,0-11.83,5.297-11.83,11.83c0,0.076,0.009,0.15,0.014,0.225C231.347,594.552,236.588,589.376,243.045,589.376
		L243.045,589.376z"/>
	
		<linearGradient id="path59_1_" gradientUnits="userSpaceOnUse" x1="725.1444" y1="-121.1082" x2="801.4237" y2="-121.1082" gradientTransform="matrix(1 0 0 -1 -493.9297 485.9019)">
		<stop  offset="0" style="stop-color:#000000"/>
		<stop  offset="0.1304" style="stop-color:#5D6A72"/>
		<stop  offset="0.2661" style="stop-color:#7899A9"/>
		<stop  offset="0.3788" style="stop-color:#80B9D3"/>
		<stop  offset="0.4624" style="stop-color:#7FCBEB"/>
		<stop  offset="0.5078" style="stop-color:#7ED3F7"/>
		<stop  offset="1" style="stop-color:#000000"/>
	</linearGradient>
	<path id="path59" inkscape:connector-curvature="0" fill="url(#path59_1_)" d="M243.045,612.587h52.617
		c6.459,0,11.701-5.177,11.82-11.605c0,0.074,0.012,0.148,0.012,0.225c0,6.534-5.297,11.831-11.832,11.831h-52.617
		c-6.533,0-11.83-5.297-11.83-11.831c0-0.076,0.009-0.15,0.014-0.225C231.347,607.41,236.588,612.587,243.045,612.587
		L243.045,612.587z"/>
</g>
<g>
	<path fill="#6FCDF4" d="M24.764,18.176V8.791h1.485v7.999h4.342v1.387H24.764z"/>
	<path fill="#6FCDF4" d="M37.129,17.294c-0.532,0.714-1.289,1.05-2.27,1.05c-1.316,0-2.143-0.532-2.703-1.681
		c-0.393-0.799-0.659-2.045-0.659-3.166c0-1.541,0.393-2.927,1.023-3.824c0.56-0.714,1.316-1.051,2.395-1.051
		c1.191,0,2.017,0.532,2.605,1.681c0.392,0.826,0.63,2.017,0.63,3.193C38.152,14.981,37.787,16.467,37.129,17.294z M36.107,10.864
		c-0.294-0.49-0.659-0.687-1.219-0.729c-0.028,0-0.056,0-0.084,0c-0.672,0-1.121,0.364-1.429,1.163
		c-0.238,0.561-0.364,1.415-0.364,2.199c0,0.995,0.196,2.018,0.56,2.605c0.294,0.49,0.687,0.729,1.289,0.729
		c0.687,0,1.121-0.364,1.443-1.19c0.196-0.491,0.364-1.415,0.364-2.144C36.667,12.447,36.47,11.494,36.107,10.864z"/>
	<path fill="#6FCDF4" d="M43.161,18.344c-1.414,0-2.24-0.532-2.801-1.709c-0.393-0.826-0.617-1.989-0.617-3.138
		c0-1.513,0.42-2.998,1.051-3.824c0.56-0.687,1.345-1.051,2.41-1.051c1.442,0,2.297,0.603,2.928,2.073l-1.416,0.56
		c-0.392-0.812-0.798-1.121-1.512-1.121c-0.757,0-1.262,0.336-1.583,1.163c-0.238,0.561-0.364,1.415-0.364,2.199
		c0,0.995,0.168,1.975,0.462,2.578c0.294,0.518,0.729,0.756,1.289,0.756c0.952,0,1.639-0.603,1.639-1.457v-0.393h-1.709v-1.484
		h3.194v1.877C46.132,17.083,44.885,18.344,43.161,18.344z"/>
	<path fill="#6FCDF4" d="M48.172,18.176V8.791h1.513v9.385H48.172z"/>
	<path fill="#6FCDF4" d="M56.995,18.176l-3.586-6.359v6.359h-1.485V8.791h1.485l3.418,5.996V8.791h1.484v9.385H56.995z"/>
</g>
</svg>
