<?xml version="1.0" encoding="utf-8"?>
<!-- Generator: Adobe Illustrator 15.1.0, SVG Export Plug-In . SVG Version: 6.00 Build 0)  -->
<!DOCTYPE svg PUBLIC "-//W3C//DTD SVG 1.1//EN" "http://www.w3.org/Graphics/SVG/1.1/DTD/svg11.dtd">
<svg version="1.1"
	 id="svg3179" xmlns:inkscape="http://www.inkscape.org/namespaces/inkscape" xmlns:dc="http://purl.org/dc/elements/1.1/" xmlns:cc="http://creativecommons.org/ns#" xmlns:rdf="http://www.w3.org/1999/02/22-rdf-syntax-ns#" xmlns:svg="http://www.w3.org/2000/svg" sodipodi:docname="media-button-two.ai" inkscape:version="0.48.2 r9819" xmlns:sodipodi="http://sodipodi.sourceforge.net/DTD/sodipodi-0.dtd"
	 xmlns="http://www.w3.org/2000/svg" xmlns:xlink="http://www.w3.org/1999/xlink" x="0px" y="0px" width="75.805px"
	 height="75.809px" viewBox="0 0 75.805 75.809" enable-background="new 0 0 75.805 75.809" xml:space="preserve">
<sodipodi:namedview  fit-margin-top="0" pagecolor="#ffffff" bordercolor="#666666" inkscape:window-maximized="0" inkscape:window-y="0" inkscape:window-x="0" inkscape:window-height="480" showgrid="false" inkscape:current-layer="g3187" inkscape:cy="37.98625" inkscape:cx="37.93875" inkscape:pageshadow="2" inkscape:pageopacity="0" borderopacity="1" inkscape:zoom="0.23838384" id="namedview3181" inkscape:window-width="640" guidetolerance="10" gridtolerance="10" objecttolerance="10" fit-margin-right="0" fit-margin-bottom="0" fit-margin-left="0">
	</sodipodi:namedview>
<g id="g3187" transform="matrix(1.25,0,0,-1.25,-344.56125,532.8225)" inkscape:label="media-button-two" inkscape:groupmode="layer">
	<g id="g3189">
		<g id="g3191">
			<g id="g3197">
				<g id="g3199">
					
						<linearGradient id="path3207_1_" gradientUnits="userSpaceOnUse" x1="535.4266" y1="707.9329" x2="536.4266" y2="707.9329" gradientTransform="matrix(0 94.7609 94.7609 0 -66778.4062 -50371.8906)">
						<stop  offset="0" style="stop-color:#4D4D4E"/>
						<stop  offset="1" style="stop-color:#373536"/>
					</linearGradient>
					<path id="path3207" inkscape:connector-curvature="0" fill="url(#path3207_1_)" d="M275.649,395.935
						c0-16.752,13.576-30.324,30.322-30.324l0,0c16.747,0,30.322,13.573,30.322,30.324l0,0c0,16.746-13.575,30.323-30.322,30.323
						l0,0C289.225,426.258,275.649,412.681,275.649,395.935"/>
				</g>
			</g>
		</g>
	</g>
	<g id="g3209">
		<g id="g3211">
			<g id="g3217">
				<g id="g3219">
					
						<linearGradient id="path3227_1_" gradientUnits="userSpaceOnUse" x1="535.0539" y1="708.4316" x2="536.0551" y2="708.4316" gradientTransform="matrix(0 87.542 87.542 0 -61711.5664 -46471.7344)">
						<stop  offset="0" style="stop-color:#373536"/>
						<stop  offset="1" style="stop-color:#4D4D4E"/>
					</linearGradient>
					<path id="path3227" inkscape:connector-curvature="0" fill="url(#path3227_1_)" d="M277.957,395.935
						c0-15.447,12.567-28.014,28.014-28.014l0,0c15.447,0,28.014,12.567,28.014,28.014l0,0c0,15.447-12.567,28.012-28.014,28.012
						l0,0C290.524,423.948,277.957,411.382,277.957,395.935"/>
				</g>
			</g>
		</g>
	</g>
	<g id="g3229">
		<g id="g3231">
			<g id="g3237">
				<g id="g3239">
					
						<linearGradient id="path3249_1_" gradientUnits="userSpaceOnUse" x1="546.4992" y1="706.7766" x2="547.4992" y2="706.7766" gradientTransform="matrix(87.5435 0 0 -87.5435 -47564.4453 62283.4453)">
						<stop  offset="0" style="stop-color:#373536"/>
						<stop  offset="0.5078" style="stop-color:#BFBFBF"/>
						<stop  offset="1" style="stop-color:#373536"/>
					</linearGradient>
					<path id="path3249" inkscape:connector-curvature="0" fill="url(#path3249_1_)" d="M277.957,395.935
						c0-0.117,0.016-0.227,0.018-0.345l0,0c0.186,15.288,12.666,27.67,27.996,27.67l0,0c15.33,0,27.808-12.383,27.994-27.67l0,0
						c0.003,0.118,0.02,0.228,0.02,0.345l0,0c0,15.447-12.567,28.012-28.014,28.012l0,0
						C290.524,423.948,277.957,411.382,277.957,395.935"/>
				</g>
			</g>
		</g>
	</g>
	<g id="g3251">
		<g id="g3253">
			<g id="g3259">
				<g id="g3261">
					
						<linearGradient id="path3271_1_" gradientUnits="userSpaceOnUse" x1="546.4992" y1="696.9875" x2="547.4992" y2="696.9875" gradientTransform="matrix(87.5435 0 0 87.5435 -47564.4453 -60634.6289)">
						<stop  offset="0" style="stop-color:#373536"/>
						<stop  offset="0.5078" style="stop-color:#BFBFBF"/>
						<stop  offset="1" style="stop-color:#373536"/>
					</linearGradient>
					<path id="path3271" inkscape:connector-curvature="0" fill="url(#path3271_1_)" d="M305.971,368.606
						c-15.33,0-27.81,12.38-27.996,27.669l0,0c-0.002-0.117-0.018-0.228-0.018-0.345l0,0c0-15.45,12.567-28.012,28.014-28.012l0,0
						c15.447,0,28.014,12.562,28.014,28.012l0,0c0,0.117-0.017,0.228-0.02,0.345l0,0
						C333.779,380.986,321.301,368.606,305.971,368.606"/>
				</g>
			</g>
		</g>
	</g>
	<g id="g3273">
		<g>
			<g>
				<defs>
					<rect id="SVGID_1_" x="-172.125" y="-222.75" width="956.25" height="1237.5"/>
				</defs>
				<clipPath id="SVGID_2_">
					<use xlink:href="#SVGID_1_"  overflow="visible"/>
				</clipPath>
				<g id="g3275" clip-path="url(#SVGID_2_)">
					<g id="g3281" transform="translate(300.4458,381.1602)">
						<path id="path3283" inkscape:connector-curvature="0" fill="#373536" d="M0,0c-0.268,0-0.523,0.038-0.764,0.119
							c-1.215,0.416-1.943,1.61-1.943,3.202v23.595c0,1.591,0.728,2.785,1.943,3.203c0.241,0.08,0.496,0.12,0.76,0.12
							c1.283,0,2.577-0.938,3.783-1.95L16.82,17.285c0.66-0.555,1.041-1.346,1.045-2.166c0-0.82-0.381-1.611-1.045-2.17L3.782,1.95
							C2.574,0.938,1.282,0,0,0"/>
					</g>
				</g>
			</g>
		</g>
	</g>
	<g id="g3285">
		<g id="g3287">
			<g id="g3293">
				<g id="g3295">
					
						<linearGradient id="path3305_1_" gradientUnits="userSpaceOnUse" x1="557.7883" y1="715.2125" x2="558.7871" y2="715.2125" gradientTransform="matrix(32.1434 0 0 -32.1434 -17631.4629 23377.8906)">
						<stop  offset="0" style="stop-color:#373536"/>
						<stop  offset="0.5078" style="stop-color:#BFBFBF"/>
						<stop  offset="1" style="stop-color:#373536"/>
					</linearGradient>
					<path id="path3305" inkscape:connector-curvature="0" fill="url(#path3305_1_)" d="M317.265,394.799l-13.037-10.998
						c-1.208-1.012-2.5-1.953-3.782-1.953l0,0c-0.268,0-0.524,0.042-0.764,0.123l0,0c-1.216,0.412-1.943,1.609-1.943,3.198l0,0
						v-1.15c0-1.587,0.727-2.784,1.943-3.198l0,0c0.24-0.08,0.496-0.12,0.764-0.12l0,0c1.282,0,2.574,0.938,3.782,1.95l0,0
						l13.037,10.999c0.665,0.557,1.045,1.348,1.045,2.168l0,0c0,0.193-0.027,0.385-0.068,0.571l0,0
						C318.108,395.783,317.769,395.224,317.265,394.799"/>
				</g>
			</g>
		</g>
	</g>
	<g id="g3307">
		<g id="g3309">
			<g id="g3315">
				<g id="g3317">
					
						<radialGradient id="path3325_1_" cx="549.2516" cy="708.834" r="1.0009" gradientTransform="matrix(61.6376 0 0 -61.6376 -33557.4609 44103.8359)" gradientUnits="userSpaceOnUse">
						<stop  offset="0" style="stop-color:#6A6A6A"/>
						<stop  offset="1" style="stop-color:#B5B5B5"/>
					</radialGradient>
					<path id="path3325" inkscape:connector-curvature="0" fill="url(#path3325_1_)" d="M300.055,410.186
						c-0.708-0.242-1.164-0.985-1.164-2.11l0,0v-11.798v-11.796c0-1.127,0.456-1.87,1.164-2.109l0,0
						c1.041-0.354,2.586,0.913,3.428,1.62l0,0l13.036,10.998c0.846,0.711,0.846,1.866,0,2.571l0,0l-13.036,11.001
						c-0.743,0.627-2.033,1.684-3.04,1.684l0,0C300.308,410.246,300.178,410.227,300.055,410.186"/>
				</g>
			</g>
		</g>
	</g>
</g>
</svg>
