<?xml version="1.0" encoding="UTF-8" standalone="no"?>
<!-- Created with Inkscape (http://www.inkscape.org/) -->

<svg
   xmlns:dc="http://purl.org/dc/elements/1.1/"
   xmlns:cc="http://creativecommons.org/ns#"
   xmlns:rdf="http://www.w3.org/1999/02/22-rdf-syntax-ns#"
   xmlns:svg="http://www.w3.org/2000/svg"
   xmlns="http://www.w3.org/2000/svg"
   xmlns:sodipodi="http://sodipodi.sourceforge.net/DTD/sodipodi-0.dtd"
   xmlns:inkscape="http://www.inkscape.org/namespaces/inkscape"
   id="svg3179"
   version="1.1"
   inkscape:version="0.48.2 r9819"
   width="75.805"
   height="75.808746"
   xml:space="preserve"
   sodipodi:docname="media-button-two.ai"><metadata
     id="metadata3185"><rdf:RDF><cc:Work
         rdf:about=""><dc:format>image/svg+xml</dc:format><dc:type
           rdf:resource="http://purl.org/dc/dcmitype/StillImage" /><dc:title></dc:title></cc:Work></rdf:RDF></metadata><defs
     id="defs3183"><linearGradient
       x1="0"
       y1="0"
       x2="1"
       y2="0"
       gradientUnits="userSpaceOnUse"
       gradientTransform="matrix(0,60.646973,60.646973,0,305.97119,365.61035)"
       spreadMethod="pad"
       id="linearGradient3201"><stop
         style="stop-opacity:1;stop-color:#4d4d4e"
         offset="0"
         id="stop3203" /><stop
         style="stop-opacity:1;stop-color:#373536"
         offset="1"
         id="stop3205" /></linearGradient><linearGradient
       x1="0"
       y1="0"
       x2="1"
       y2="0"
       gradientUnits="userSpaceOnUse"
       gradientTransform="matrix(0,56.026856,56.026856,0,305.9707,367.91992)"
       spreadMethod="pad"
       id="linearGradient3221"><stop
         style="stop-opacity:1;stop-color:#373536"
         offset="0"
         id="stop3223" /><stop
         style="stop-opacity:1;stop-color:#4d4d4e"
         offset="1"
         id="stop3225" /></linearGradient><linearGradient
       x1="0"
       y1="0"
       x2="1"
       y2="0"
       gradientUnits="userSpaceOnUse"
       gradientTransform="matrix(56.027832,0,0,-56.027832,277.95654,409.76904)"
       spreadMethod="pad"
       id="linearGradient3241"><stop
         style="stop-opacity:1;stop-color:#373536"
         offset="0"
         id="stop3243" /><stop
         style="stop-opacity:1;stop-color:#84d3f6"
         offset="0.507767"
         id="stop3245" /><stop
         style="stop-opacity:1;stop-color:#373536"
         offset="1"
         id="stop3247" /></linearGradient><linearGradient
       x1="0"
       y1="0"
       x2="1"
       y2="0"
       gradientUnits="userSpaceOnUse"
       gradientTransform="matrix(56.027832,0,0,56.027832,277.95654,382.0957)"
       spreadMethod="pad"
       id="linearGradient3263"><stop
         style="stop-opacity:1;stop-color:#373536"
         offset="0"
         id="stop3265" /><stop
         style="stop-opacity:1;stop-color:#84d3f6"
         offset="0.507767"
         id="stop3267" /><stop
         style="stop-opacity:1;stop-color:#373536"
         offset="1"
         id="stop3269" /></linearGradient><clipPath
       clipPathUnits="userSpaceOnUse"
       id="clipPath3277"><path
         d="M 0,792 612,792 612,0 0,0 0,792 z"
         id="path3279"
         inkscape:connector-curvature="0" /></clipPath><linearGradient
       x1="0"
       y1="0"
       x2="1"
       y2="0"
       gradientUnits="userSpaceOnUse"
       gradientTransform="matrix(20.571777,0,0,-20.571777,297.73877,388.54492)"
       spreadMethod="pad"
       id="linearGradient3297"><stop
         style="stop-opacity:1;stop-color:#373536"
         offset="0"
         id="stop3299" /><stop
         style="stop-opacity:1;stop-color:#84d3f6"
         offset="0.507767"
         id="stop3301" /><stop
         style="stop-opacity:1;stop-color:#373536"
         offset="1"
         id="stop3303" /></linearGradient><radialGradient
       fx="0"
       fy="0"
       cx="0"
       cy="0"
       r="1"
       gradientUnits="userSpaceOnUse"
       gradientTransform="matrix(39.448074,0,0,-39.448059,297.09082,413.03076)"
       spreadMethod="pad"
       id="radialGradient3319"><stop
         style="stop-opacity:1;stop-color:#2a7ea9"
         offset="0"
         id="stop3321" /><stop
         style="stop-opacity:1;stop-color:#6dcdf5"
         offset="1"
         id="stop3323" /></radialGradient></defs><sodipodi:namedview
     pagecolor="#ffffff"
     bordercolor="#666666"
     borderopacity="1"
     objecttolerance="10"
     gridtolerance="10"
     guidetolerance="10"
     inkscape:pageopacity="0"
     inkscape:pageshadow="2"
     inkscape:window-width="640"
     inkscape:window-height="480"
     id="namedview3181"
     showgrid="false"
     fit-margin-top="0"
     fit-margin-left="0"
     fit-margin-right="0"
     fit-margin-bottom="0"
     inkscape:zoom="0.23838384"
     inkscape:cx="37.93875"
     inkscape:cy="37.98625"
     inkscape:window-x="0"
     inkscape:window-y="0"
     inkscape:window-maximized="0"
     inkscape:current-layer="g3187" /><g
     id="g3187"
     inkscape:groupmode="layer"
     inkscape:label="media-button-two"
     transform="matrix(1.25,0,0,-1.25,-344.56125,532.8225)"><g
       id="g3189"><g
         id="g3191"><g
           id="g3197"><g
             id="g3199"><path
               d="m 275.649,395.935 c 0,-16.751 13.576,-30.324 30.322,-30.324 l 0,0 c 16.747,0 30.322,13.573 30.322,30.324 l 0,0 c 0,16.746 -13.575,30.323 -30.322,30.323 l 0,0 c -16.746,0 -30.322,-13.577 -30.322,-30.323"
               style="fill:url(#linearGradient3201);stroke:none"
               id="path3207"
               inkscape:connector-curvature="0" /></g></g></g></g><g
       id="g3209"><g
         id="g3211"><g
           id="g3217"><g
             id="g3219"><path
               d="m 277.957,395.935 c 0,-15.447 12.567,-28.015 28.014,-28.015 l 0,0 c 15.447,0 28.014,12.568 28.014,28.015 l 0,0 c 0,15.447 -12.567,28.013 -28.014,28.013 l 0,0 c -15.447,0 -28.014,-12.566 -28.014,-28.013"
               style="fill:url(#linearGradient3221);stroke:none"
               id="path3227"
               inkscape:connector-curvature="0" /></g></g></g></g><g
       id="g3229"><g
         id="g3231"><g
           id="g3237"><g
             id="g3239"><path
               d="m 277.957,395.935 c 0,-0.117 0.016,-0.227 0.018,-0.345 l 0,0 c 0.186,15.287 12.666,27.67 27.996,27.67 l 0,0 c 15.33,0 27.808,-12.383 27.994,-27.67 l 0,0 c 0.003,0.118 0.02,0.228 0.02,0.345 l 0,0 c 0,15.447 -12.567,28.013 -28.014,28.013 l 0,0 c -15.447,0 -28.014,-12.566 -28.014,-28.013"
               style="fill:url(#linearGradient3241);stroke:none"
               id="path3249"
               inkscape:connector-curvature="0" /></g></g></g></g><g
       id="g3251"><g
         id="g3253"><g
           id="g3259"><g
             id="g3261"><path
               d="m 305.971,368.606 c -15.33,0 -27.81,12.38 -27.996,27.669 l 0,0 c -0.002,-0.117 -0.018,-0.228 -0.018,-0.345 l 0,0 c 0,-15.45 12.567,-28.012 28.014,-28.012 l 0,0 c 15.447,0 28.014,12.562 28.014,28.012 l 0,0 c 0,0.117 -0.017,0.228 -0.02,0.345 l 0,0 c -0.186,-15.289 -12.664,-27.669 -27.994,-27.669"
               style="fill:url(#linearGradient3263);stroke:none"
               id="path3271"
               inkscape:connector-curvature="0" /></g></g></g></g><g
       id="g3273"><g
         id="g3275"
         clip-path="url(#clipPath3277)"><g
           id="g3281"
           transform="translate(300.4458,381.1602)"><path
             d="m 0,0 c -0.268,0 -0.523,0.039 -0.764,0.119 -1.215,0.415 -1.943,1.61 -1.943,3.201 l 0,23.596 c 0,1.59 0.728,2.785 1.943,3.203 0.242,0.08 0.496,0.119 0.76,0.119 1.283,0 2.578,-0.937 3.783,-1.95 L 16.82,17.285 c 0.66,-0.555 1.041,-1.346 1.045,-2.166 0,-0.82 -0.381,-1.611 -1.045,-2.17 L 3.782,1.95 C 2.574,0.938 1.282,0 0,0"
             style="fill:#373536;fill-opacity:1;fill-rule:nonzero;stroke:none"
             id="path3283"
             inkscape:connector-curvature="0" /></g></g></g><g
       id="g3285"><g
         id="g3287"><g
           id="g3293"><g
             id="g3295"><path
               d="m 317.265,394.799 -13.037,-10.998 c -1.208,-1.013 -2.5,-1.953 -3.782,-1.953 l 0,0 c -0.268,0 -0.524,0.042 -0.764,0.123 l 0,0 c -1.216,0.412 -1.943,1.608 -1.943,3.197 l 0,0 0,-1.15 c 0,-1.588 0.727,-2.785 1.943,-3.197 l 0,0 c 0.24,-0.08 0.496,-0.12 0.764,-0.12 l 0,0 c 1.282,0 2.574,0.938 3.782,1.95 l 0,0 13.037,10.999 c 0.665,0.557 1.045,1.348 1.045,2.168 l 0,0 c 0,0.193 -0.027,0.385 -0.068,0.571 l 0,0 c -0.134,-0.606 -0.473,-1.165 -0.977,-1.59"
               style="fill:url(#linearGradient3297);stroke:none"
               id="path3305"
               inkscape:connector-curvature="0" /></g></g></g></g><g
       id="g3307"><g
         id="g3309"><g
           id="g3315"><g
             id="g3317"><path
               d="m 300.055,410.186 c -0.708,-0.242 -1.164,-0.985 -1.164,-2.11 l 0,0 0,-11.799 0,-11.796 c 0,-1.127 0.456,-1.869 1.164,-2.108 l 0,0 c 1.04,-0.354 2.586,0.913 3.428,1.619 l 0,0 13.036,10.998 c 0.846,0.711 0.846,1.866 0,2.571 l 0,0 -13.036,11.001 c -0.743,0.627 -2.033,1.684 -3.04,1.684 l 0,0 c -0.135,0 -0.265,-0.019 -0.388,-0.06"
               style="fill:url(#radialGradient3319);stroke:none"
               id="path3325"
               inkscape:connector-curvature="0" /></g></g></g></g></g></svg>