<?xml version="1.0" encoding="utf-8"?>
<!-- Generator: Adobe Illustrator 15.1.0, SVG Export Plug-In . SVG Version: 6.00 Build 0)  -->
<!DOCTYPE svg PUBLIC "-//W3C//DTD SVG 1.1//EN" "http://www.w3.org/Graphics/SVG/1.1/DTD/svg11.dtd">
<svg version="1.1"
	 id="svg3327" xmlns:inkscape="http://www.inkscape.org/namespaces/inkscape" xmlns:dc="http://purl.org/dc/elements/1.1/" xmlns:cc="http://creativecommons.org/ns#" xmlns:rdf="http://www.w3.org/1999/02/22-rdf-syntax-ns#" xmlns:svg="http://www.w3.org/2000/svg" sodipodi:docname="media-button-one.ai" inkscape:version="0.48.2 r9819" xmlns:sodipodi="http://sodipodi.sourceforge.net/DTD/sodipodi-0.dtd"
	 xmlns="http://www.w3.org/2000/svg" xmlns:xlink="http://www.w3.org/1999/xlink" x="0px" y="0px" width="55.947px"
	 height="68.594px" viewBox="0 0 55.947 68.594" enable-background="new 0 0 55.947 68.594" xml:space="preserve">
<sodipodi:namedview  fit-margin-top="0" pagecolor="#ffffff" bordercolor="#666666" inkscape:window-maximized="0" inkscape:window-y="0" inkscape:window-x="0" inkscape:window-height="480" showgrid="false" inkscape:current-layer="g3335" inkscape:cy="34.38" inkscape:cx="28.26625" inkscape:pageshadow="2" inkscape:pageopacity="0" borderopacity="1" inkscape:zoom="0.23838384" id="namedview3329" inkscape:window-width="640" guidetolerance="10" gridtolerance="10" objecttolerance="10" fit-margin-right="0" fit-margin-bottom="0" fit-margin-left="0">
	</sodipodi:namedview>
<g id="g3335" transform="matrix(1.25,0,0,-1.25,-354.23375,529.21375)" inkscape:label="media-button-one" inkscape:groupmode="layer">
	<g id="g3337">
		<g id="g3339">
			<g id="g3345">
				<g id="g3347">
					
						<linearGradient id="path3355_1_" gradientUnits="userSpaceOnUse" x1="534.5126" y1="708.7531" x2="535.5126" y2="708.7531" gradientTransform="matrix(0 85.7414 85.7414 0 -60463.7227 -45461.4414)">
						<stop  offset="0" style="stop-color:#4D4D4E"/>
						<stop  offset="1" style="stop-color:#373536"/>
					</linearGradient>
					<path id="path3355" inkscape:connector-curvature="0" fill="url(#path3355_1_)" d="M283.387,395.935
						c0-15.154,12.285-27.439,27.438-27.439l0,0c6.57,0,12.595,2.315,17.32,6.163l0,0c-5.397,5.478-8.73,12.986-8.73,21.277l0,0
						c0,8.292,3.334,15.799,8.73,21.272l0,0c-4.726,3.85-10.75,6.164-17.32,6.164l0,0
						C295.672,423.371,283.387,411.086,283.387,395.935"/>
				</g>
			</g>
		</g>
	</g>
	<g id="g3357">
		<g id="g3359">
			<g id="g3365">
				<g id="g3367">
					
						<linearGradient id="path3375_1_" gradientUnits="userSpaceOnUse" x1="534.0478" y1="709.3859" x2="535.049" y2="709.3859" gradientTransform="matrix(0 78.5255 78.5255 0 -55399.6523 -41565.6211)">
						<stop  offset="0" style="stop-color:#373536"/>
						<stop  offset="1" style="stop-color:#4D4D4E"/>
					</linearGradient>
					<path id="path3375" inkscape:connector-curvature="0" fill="url(#path3375_1_)" d="M285.697,395.935
						c0-13.857,11.272-25.13,25.127-25.13l0,0c4.941,0,9.789,1.475,13.891,4.195l0,0c-4.924,5.867-7.607,13.205-7.607,20.935l0,0
						c0,7.729,2.683,15.066,7.607,20.932l0,0c-4.102,2.718-8.949,4.195-13.891,4.195l0,0
						C296.969,421.062,285.697,409.79,285.697,395.935"/>
				</g>
			</g>
		</g>
	</g>
	<g id="g3377">
		<g id="g3379">
			<g id="g3385">
				<g id="g3387">
					
						<linearGradient id="path3397_1_" gradientUnits="userSpaceOnUse" x1="549.2446" y1="709.0031" x2="550.2451" y2="709.0031" gradientTransform="matrix(60.9657 0 0 -60.9657 -33199.4297 43633.2227)">
						<stop  offset="0" style="stop-color:#373536"/>
						<stop  offset="0.4922" style="stop-color:#BFBFBF"/>
						<stop  offset="1" style="stop-color:#373536"/>
					</linearGradient>
					<path id="path3397" inkscape:connector-curvature="0" fill="url(#path3397_1_)" d="M285.697,395.935
						c0-0.117,0.017-0.227,0.018-0.345l0,0c0.187,13.695,11.371,24.783,25.109,24.783l0,0c4.802,0,9.505-1.406,13.53-3.975l0,0
						c0.125,0.154,0.232,0.316,0.361,0.469l0,0c-4.102,2.718-8.949,4.195-13.891,4.195l0,0
						C296.969,421.062,285.697,409.79,285.697,395.935"/>
				</g>
			</g>
		</g>
	</g>
	<g id="g3399">
		<g id="g3401">
			<g id="g3407">
				<g id="g3409">
					
						<linearGradient id="path3419_1_" gradientUnits="userSpaceOnUse" x1="549.2446" y1="694.7577" x2="550.2451" y2="694.7577" gradientTransform="matrix(60.9657 0 0 60.9657 -33199.4297 -41972.8789)">
						<stop  offset="0" style="stop-color:#373536"/>
						<stop  offset="0.4922" style="stop-color:#BFBFBF"/>
						<stop  offset="1" style="stop-color:#373536"/>
					</linearGradient>
					<path id="path3419" inkscape:connector-curvature="0" fill="url(#path3419_1_)" d="M285.697,395.935
						c0-13.857,11.272-25.13,25.127-25.13l0,0c4.941,0,9.789,1.478,13.891,4.197l0,0c-0.129,0.152-0.236,0.315-0.361,0.469l0,0
						c-4.024-2.57-8.727-3.975-13.53-3.975l0,0c-13.738,0-24.923,11.087-25.109,24.783l0,0
						C285.714,396.162,285.697,396.053,285.697,395.935"/>
				</g>
			</g>
		</g>
	</g>
	<g id="g3421">
		<g>
			<g>
				<defs>
					<rect id="SVGID_1_" x="-172.125" y="-222.75" width="956.25" height="1237.5"/>
				</defs>
				<clipPath id="SVGID_2_">
					<use xlink:href="#SVGID_1_"  overflow="visible"/>
				</clipPath>
				<g id="g3423" clip-path="url(#SVGID_2_)">
					<g id="g3429" transform="translate(292.6294,403.7646)">
						<path id="path3431" inkscape:connector-curvature="0" fill="#373536" d="M0,0c1.194,0,2.164-0.872,2.164-1.943v-3.643
							l5.395,4.554C8.195-0.498,8.893,0,9.679,0l0.37-0.029l0.181-0.062c0.806-0.277,1.305-1.061,1.305-2.048v-3.557l5.527,4.664
							C17.703-0.498,18.4,0,19.181,0l0.365-0.029l0.184-0.062c0.806-0.275,1.306-1.058,1.306-2.048v-10.693
							c0-0.989-0.5-1.773-1.312-2.051l-0.355-0.088h-0.191c-0.784,0-1.484,0.498-2.12,1.035l-5.523,4.659v-3.555
							c0-0.986-0.498-1.771-1.311-2.051l-0.359-0.088H9.677c-0.789,0-1.489,0.498-2.122,1.035L2.164-9.39v-3.634
							c0-1.075-0.97-1.947-2.164-1.947c-1.191,0-2.163,0.872-2.163,1.947v11.081C-2.164-0.872-1.192,0,0,0"/>
					</g>
				</g>
			</g>
		</g>
	</g>
	<g id="g3433">
		<g id="g3435">
			<g id="g3441">
				<g id="g3443">
					
						<linearGradient id="path3453_1_" gradientUnits="userSpaceOnUse" x1="499.8853" y1="731.1304" x2="500.8848" y2="731.1304" gradientTransform="matrix(-14.8467 0 0 -14.8467 7735.3438 11246.8916)">
						<stop  offset="0" style="stop-color:#373536"/>
						<stop  offset="0.4922" style="stop-color:#BFBFBF"/>
						<stop  offset="1" style="stop-color:#373536"/>
					</linearGradient>
					<path id="path3453" inkscape:connector-curvature="0" fill="url(#path3453_1_)" d="M304.165,394.487l5.522-4.658
						c0.638-0.537,1.338-1.034,2.122-1.034l0,0h0.189l0.359,0.087c0.809,0.278,1.309,1.061,1.309,2.052l0,0v0.689
						c0-0.987-0.5-1.773-1.309-2.048l0,0l-0.359-0.089h-0.189c-0.784,0-1.484,0.498-2.122,1.036l0,0l-5.522,4.656V394.487z"/>
				</g>
			</g>
		</g>
	</g>
	<g id="g3455">
		<g id="g3457">
			<g id="g3463">
				<g id="g3465">
					
						<linearGradient id="path3475_1_" gradientUnits="userSpaceOnUse" x1="499.3298" y1="731.5363" x2="500.3311" y2="731.5363" gradientTransform="matrix(-14.6424 0 0 -14.6424 7615.5469 11103.3545)">
						<stop  offset="0" style="stop-color:#373536"/>
						<stop  offset="0.4922" style="stop-color:#BFBFBF"/>
						<stop  offset="1" style="stop-color:#373536"/>
					</linearGradient>
					<path id="path3475" inkscape:connector-curvature="0" fill="url(#path3475_1_)" d="M294.793,394.375l5.391-4.546
						c0.634-0.537,1.334-1.034,2.123-1.034l0,0h0.188l0.359,0.087c0.812,0.28,1.312,1.066,1.312,2.052l0,0v0.689
						c0-0.984-0.5-1.77-1.312-2.048l0,0l-0.359-0.089h-0.188c-0.789,0-1.488,0.5-2.123,1.036l0,0l-5.391,4.544V394.375z"/>
				</g>
			</g>
		</g>
	</g>
	<g id="g3477">
		<g id="g3479">
			<g id="g3485">
				<g id="g3487">
					
						<linearGradient id="path3497_1_" gradientUnits="userSpaceOnUse" x1="452.4361" y1="766.0894" x2="453.4361" y2="766.0894" gradientTransform="matrix(-6.7627 0 0 -6.7627 3354.4907 5570.9844)">
						<stop  offset="0" style="stop-color:#373536"/>
						<stop  offset="0.4922" style="stop-color:#BFBFBF"/>
						<stop  offset="1" style="stop-color:#373536"/>
					</linearGradient>
					<path id="path3497" inkscape:connector-curvature="0" fill="url(#path3497_1_)" d="M292.63,389.483
						c-1.193,0-2.165,0.873-2.165,1.948l0,0v-0.691c0-1.073,0.972-1.945,2.165-1.945l0,0c1.193,0,2.163,0.873,2.163,1.945l0,0v0.691
						C294.793,390.356,293.823,389.483,292.63,389.483"/>
				</g>
			</g>
		</g>
	</g>
	<g id="g3499">
		<g id="g3501">
			<g id="g3507">
				<g id="g3509">
					
						<radialGradient id="path3517_1_" cx="518.4853" cy="717.4226" r="0.9994" gradientTransform="matrix(-27.9391 0 0 -27.9391 14800.8584 20451.9707)" gradientUnits="userSpaceOnUse">
						<stop  offset="0" style="stop-color:#B5B5B5"/>
						<stop  offset="1" style="stop-color:#6A6A6A"/>
					</radialGradient>
					<path id="path3517" inkscape:connector-curvature="0" fill="url(#path3517_1_)" d="M310.432,401.847l-5.909-4.987
						c-0.387-0.319-0.387-0.842,0-1.165l0,0l5.909-4.984c0.383-0.323,1.08-0.895,1.552-0.736l0,0
						c0.323,0.111,0.528,0.445,0.528,0.959l0,0v5.345v5.347c0,0.511-0.205,0.847-0.528,0.957l0,0
						c-0.055,0.018-0.112,0.026-0.173,0.026l0,0C311.353,402.609,310.769,402.13,310.432,401.847"/>
				</g>
			</g>
		</g>
	</g>
	<g id="g3519">
		<g id="g3521">
			<g id="g3527">
				<g id="g3529">
					
						<radialGradient id="path3537_1_" cx="518.4845" cy="717.4233" r="1.0023" gradientTransform="matrix(-27.9385 0 0 -27.9385 14791.0078 20451.5156)" gradientUnits="userSpaceOnUse">
						<stop  offset="0" style="stop-color:#B5B5B5"/>
						<stop  offset="1" style="stop-color:#6A6A6A"/>
					</radialGradient>
					<path id="path3537" inkscape:connector-curvature="0" fill="url(#path3537_1_)" d="M300.928,401.847l-5.91-4.987
						c-0.381-0.319-0.381-0.842,0-1.165l0,0l5.91-4.984c0.38-0.323,1.08-0.895,1.555-0.736l0,0c0.32,0.111,0.527,0.445,0.527,0.959
						l0,0v5.345v5.347c0,0.511-0.207,0.847-0.527,0.957l0,0c-0.055,0.018-0.114,0.026-0.175,0.026l0,0
						C301.849,402.609,301.264,402.13,300.928,401.847"/>
				</g>
			</g>
		</g>
	</g>
	<g id="g3539">
		<g id="g3541">
			<g id="g3547">
				<g id="g3549">
					
						<radialGradient id="path3557_1_" cx="520.5001" cy="719.8445" r="0.9995" gradientTransform="matrix(-30.8882 0 0 -24.173 16371.4795 17808.584)" gradientUnits="userSpaceOnUse">
						<stop  offset="0" style="stop-color:#B5B5B5"/>
						<stop  offset="1" style="stop-color:#6A6A6A"/>
					</radialGradient>
					<path id="path3557" inkscape:connector-curvature="0" fill="url(#path3557_1_)" d="M291.62,401.821V390.74
						c0-0.434,0.453-0.791,1.01-0.791l0,0c0.556,0,1.01,0.356,1.01,0.791l0,0v11.081c0,0.435-0.454,0.789-1.01,0.789l0,0
						C292.073,402.61,291.62,402.256,291.62,401.821"/>
				</g>
			</g>
		</g>
	</g>
</g>
</svg>
