<?xml version="1.0" encoding="utf-8"?>
<!-- Generator: Adobe Illustrator 15.1.0, SVG Export Plug-In . SVG Version: 6.00 Build 0)  -->
<!DOCTYPE svg PUBLIC "-//W3C//DTD SVG 1.1//EN" "http://www.w3.org/Graphics/SVG/1.1/DTD/svg11.dtd">
<svg version="1.1"
	 id="svg2" inkscape:version="0.48.2 r9819" sodipodi:docname="media-button-three.ai" xmlns:dc="http://purl.org/dc/elements/1.1/" xmlns:inkscape="http://www.inkscape.org/namespaces/inkscape" xmlns:sodipodi="http://sodipodi.sourceforge.net/DTD/sodipodi-0.dtd" xmlns:cc="http://creativecommons.org/ns#" xmlns:rdf="http://www.w3.org/1999/02/22-rdf-syntax-ns#" xmlns:svg="http://www.w3.org/2000/svg"
	 xmlns="http://www.w3.org/2000/svg" xmlns:xlink="http://www.w3.org/1999/xlink" x="0px" y="0px" width="75.598px"
	 height="75.602px" viewBox="0 0 75.598 75.602" enable-background="new 0 0 75.598 75.602" xml:space="preserve">
<sodipodi:namedview  bordercolor="#666666" guidetolerance="10" gridtolerance="10" pagecolor="#ffffff" inkscape:pageopacity="0" inkscape:pageshadow="2" inkscape:window-y="0" inkscape:window-maximized="0" objecttolerance="10" inkscape:window-width="640" id="namedview4" fit-margin-top="0" borderopacity="1" inkscape:window-height="480" fit-margin-left="0" showgrid="false" inkscape:zoom="0.23838384" inkscape:cy="37.93" fit-margin-right="0" fit-margin-bottom="0" inkscape:cx="38.8275" inkscape:window-x="0" inkscape:current-layer="g10">
	</sodipodi:namedview>
<g id="g10" transform="matrix(1.25,0,0,-1.25,-343.6725,532.67125)" inkscape:groupmode="layer" inkscape:label="media-button-three">
	<g id="g12">
		<g id="g14">
			<g id="g20">
				<g id="g22">
					
						<linearGradient id="path30_1_" gradientUnits="userSpaceOnUse" x1="928.1421" y1="1431.7142" x2="929.1445" y2="1431.7142" gradientTransform="matrix(0 230.7165 230.7165 0 -330014.9688 -213772.1562)">
						<stop  offset="0" style="stop-color:#4D4D4E"/>
						<stop  offset="1" style="stop-color:#373536"/>
					</linearGradient>
					<path id="path30" inkscape:connector-curvature="0" fill="url(#path30_1_)" d="M274.938,395.898
						c0-16.704,13.536-30.241,30.238-30.241l0,0c16.703,0,30.241,13.538,30.241,30.241l0,0c0,16.702-13.538,30.239-30.241,30.239
						l0,0C288.474,426.137,274.938,412.6,274.938,395.898"/>
				</g>
			</g>
		</g>
	</g>
	<g id="g32">
		<g id="g34">
			<g id="g40">
				<g id="g42">
					
						<linearGradient id="path50_1_" gradientUnits="userSpaceOnUse" x1="927.6835" y1="1432.3275" x2="928.681" y2="1432.3275" gradientTransform="matrix(0 213.1667 213.1667 0 -305019.3438 -197383.3281)">
						<stop  offset="0" style="stop-color:#373536"/>
						<stop  offset="1" style="stop-color:#4D4D4E"/>
					</linearGradient>
					<path id="path50" inkscape:connector-curvature="0" fill="url(#path50_1_)" d="M277.235,395.898
						c0-15.402,12.533-27.941,27.941-27.941l0,0c15.409,0,27.939,12.539,27.939,27.941l0,0c0,15.409-12.53,27.94-27.939,27.94l0,0
						C289.768,423.838,277.235,411.306,277.235,395.898"/>
				</g>
			</g>
		</g>
	</g>
	<g id="g52">
		<g id="g54">
			<g id="g60">
				<g id="g62">
					
						<linearGradient id="path72_1_" gradientUnits="userSpaceOnUse" x1="941.7742" y1="1430.2963" x2="942.7753" y2="1430.2963" gradientTransform="matrix(213.1667 0 0 -213.1667 -200477.6562 305301.1875)">
						<stop  offset="0" style="stop-color:#373536"/>
						<stop  offset="0.5078" style="stop-color:#BFBFBF"/>
						<stop  offset="1" style="stop-color:#373536"/>
					</linearGradient>
					<path id="path72" inkscape:connector-curvature="0" fill="url(#path72_1_)" d="M277.235,395.898
						c0-0.115,0.018-0.223,0.021-0.341l0,0c0.188,15.245,12.629,27.595,27.92,27.595l0,0c15.288,0,27.736-12.35,27.925-27.595l0,0
						c0,0.118,0.014,0.227,0.014,0.341l0,0c0,15.409-12.53,27.94-27.939,27.94l0,0C289.768,423.838,277.235,411.306,277.235,395.898
						"/>
				</g>
			</g>
		</g>
	</g>
	<g id="g74">
		<g id="g76">
			<g id="g82">
				<g id="g84">
					
						<linearGradient id="path94_1_" gradientUnits="userSpaceOnUse" x1="941.7742" y1="1418.2377" x2="942.7753" y2="1418.2377" gradientTransform="matrix(213.1667 0 0 213.1667 -200477.6562 -301939)">
						<stop  offset="0" style="stop-color:#373536"/>
						<stop  offset="0.5078" style="stop-color:#BFBFBF"/>
						<stop  offset="1" style="stop-color:#373536"/>
					</linearGradient>
					<path id="path94" inkscape:connector-curvature="0" fill="url(#path94_1_)" d="M305.176,368.645
						c-15.291,0-27.732,12.348-27.92,27.595l0,0c-0.003-0.117-0.021-0.23-0.021-0.345l0,0c0-15.408,12.533-27.938,27.941-27.938l0,0
						c15.409,0,27.939,12.53,27.939,27.938l0,0c0,0.116-0.014,0.227-0.014,0.345l0,0
						C332.911,380.992,320.463,368.645,305.176,368.645"/>
				</g>
			</g>
		</g>
	</g>
</g>
<g>
	<path fill="#373536" d="M34.677,18.133h-1.602c-0.499,0-0.98,0.187-1.352,0.521l-9.923,8.985h-4.927
		c-1.586,0-2.762,1.327-3.066,3.464c-0.014,0.096-0.021,0.189-0.021,0.285v11.164c0,2.69,1.717,3.914,3.312,3.914
		c0.013,0,0.027,0,0.044,0h4.515l10.425,9.092c0.366,0.32,0.836,0.497,1.321,0.497h1.322c1.111,0,2.014-0.901,2.014-2.013V20.146
		C36.742,19.034,35.789,18.133,34.677,18.133z"/>
</g>
<linearGradient id="SVGID_1_" gradientUnits="userSpaceOnUse" x1="329.7893" y1="-264.9568" x2="352.7424" y2="-264.9568" gradientTransform="matrix(1 0 0 -1 -316 -216.3979)">
	<stop  offset="0" style="stop-color:#373536"/>
	<stop  offset="0.5078" style="stop-color:#BFBFBF"/>
	<stop  offset="1" style="stop-color:#373536"/>
</linearGradient>
<path fill="url(#SVGID_1_)" d="M34.729,54.566h-1.321c-0.486,0-0.956-0.177-1.322-0.496L21.66,44.977h-4.515
	c-0.017,0-0.03,0-0.044,0c-1.597,0-3.312-1.224-3.312-3.914v1.489c0,2.69,1.717,3.914,3.312,3.914c0.014,0,0.027,0,0.044,0h4.515
	l10.425,9.092c0.366,0.32,0.836,0.497,1.322,0.497h1.321c1.111,0,2.014-0.901,2.014-2.013v-1.489
	C36.742,53.665,35.841,54.566,34.729,54.566z"/>
<g>
	
		<radialGradient id="SVGID_2_" cx="354.8704" cy="-224.1409" r="50.9839" gradientTransform="matrix(1 0 0 -1 -316 -216.3979)" gradientUnits="userSpaceOnUse">
		<stop  offset="0" style="stop-color:#B5B5B5"/>
		<stop  offset="1" style="stop-color:#6A6A6A"/>
	</radialGradient>
	<path fill="url(#SVGID_2_)" d="M15.802,42.552V31.388c0,0,0.248-1.736,1.074-1.736c0.827,0,5.703,0,5.703,0l10.497-9.506
		c0,0,0.826,0,1.239,0s0.413,0,0.413,0v33.896h-1.321l-10.993-9.589h-5.289C17.125,44.453,15.802,44.536,15.802,42.552z"/>
</g>
<path fill="#373536" d="M57.523,37.095l4.427-4.449c1.688-1.696,1.688-4.456,0-6.152c-0.817-0.822-1.904-1.274-3.061-1.274
	c-1.155,0-2.243,0.453-3.061,1.274l-4.429,4.45l-4.428-4.45c-0.818-0.822-1.905-1.274-3.062-1.274c-1.155,0-2.242,0.453-3.061,1.274
	c-1.688,1.696-1.688,4.456,0,6.152l4.428,4.449l-4.428,4.446c-1.688,1.696-1.688,4.456,0,6.152c0.818,0.822,1.904,1.274,3.061,1.274
	s2.243-0.452,3.062-1.274l4.428-4.45l4.429,4.45c0.817,0.822,1.904,1.274,3.061,1.274s2.243-0.452,3.061-1.274
	c1.688-1.696,1.688-4.456,0-6.153L57.523,37.095z"/>
<g>
	<linearGradient id="SVGID_3_" gradientUnits="userSpaceOnUse" x1="57.1243" y1="32.136" x2="63.2034" y2="32.136">
		<stop  offset="0" style="stop-color:#373536"/>
		<stop  offset="0.5078" style="stop-color:#BFBFBF"/>
		<stop  offset="1" style="stop-color:#373536"/>
	</linearGradient>
	<path fill="url(#SVGID_3_)" d="M62.662,27.478c0.37,1.443,0.012,3.039-1.111,4.166l-4.427,4.45l0.697,0.7l4.128-4.148
		C63.342,31.246,63.568,29.13,62.662,27.478z"/>
	<linearGradient id="SVGID_4_" gradientUnits="userSpaceOnUse" x1="39.7424" y1="45.6077" x2="63.2034" y2="45.6077">
		<stop  offset="0" style="stop-color:#373536"/>
		<stop  offset="0.5078" style="stop-color:#BFBFBF"/>
		<stop  offset="1" style="stop-color:#373536"/>
	</linearGradient>
	<path fill="url(#SVGID_4_)" d="M61.551,46.698c-0.817,0.822-1.904,1.274-3.061,1.274s-2.243-0.452-3.061-1.274l-4.429-4.45
		l-4.428,4.45c-0.818,0.822-1.905,1.274-3.062,1.274s-2.242-0.452-3.061-1.274c-0.293-0.295-0.518-0.63-0.709-0.978
		c0.188,0.722,0.546,1.408,1.107,1.974c0.818,0.822,1.904,1.274,3.061,1.274s2.243-0.452,3.062-1.274l4.428-4.45l4.429,4.45
		c0.817,0.822,1.904,1.274,3.061,1.274s2.243-0.452,3.061-1.274c1.395-1.401,1.618-3.521,0.709-5.175
		C63.034,43.966,62.677,45.566,61.551,46.698z"/>
</g>
<radialGradient id="SVGID_5_" cx="52.7766" cy="20.9148" r="18.049" gradientUnits="userSpaceOnUse">
	<stop  offset="0" style="stop-color:#B5B5B5"/>
	<stop  offset="0.2133" style="stop-color:#B0B0B0"/>
	<stop  offset="0.4587" style="stop-color:#A2A2A2"/>
	<stop  offset="0.7199" style="stop-color:#8B8B8B"/>
	<stop  offset="0.9907" style="stop-color:#6B6B6B"/>
	<stop  offset="1" style="stop-color:#6A6A6A"/>
</radialGradient>
<path fill="url(#SVGID_5_)" d="M55.059,37.095l5.66-5.688c1.01-1.016,1.01-2.66,0-3.676c-1.011-1.016-2.648-1.016-3.659,0
	l-5.66,5.688l-5.659-5.688c-1.011-1.016-2.648-1.016-3.659,0s-1.011,2.66,0,3.676l5.66,5.688l-5.66,5.684
	c-1.011,1.016-1.011,2.662,0,3.678c0.506,0.508,1.167,0.762,1.829,0.762c0.663,0,1.324-0.254,1.83-0.762l5.659-5.688l5.66,5.688
	c0.505,0.508,1.167,0.762,1.829,0.762c0.661,0,1.324-0.254,1.83-0.762c1.01-1.016,1.01-2.662,0-3.678L55.059,37.095z"/>
</svg>
