<?xml version="1.0" encoding="utf-8"?>
<!-- Generator: Adobe Illustrator 15.1.0, SVG Export Plug-In . SVG Version: 6.00 Build 0)  -->
<!DOCTYPE svg PUBLIC "-//W3C//DTD SVG 1.1//EN" "http://www.w3.org/Graphics/SVG/1.1/DTD/svg11.dtd">
<svg version="1.1"
	 id="svg3559" xmlns:inkscape="http://www.inkscape.org/namespaces/inkscape" xmlns:dc="http://purl.org/dc/elements/1.1/" xmlns:cc="http://creativecommons.org/ns#" xmlns:rdf="http://www.w3.org/1999/02/22-rdf-syntax-ns#" xmlns:svg="http://www.w3.org/2000/svg" sodipodi:docname="media-button-four.ai" inkscape:version="0.48.2 r9819" xmlns:sodipodi="http://sodipodi.sourceforge.net/DTD/sodipodi-0.dtd"
	 xmlns="http://www.w3.org/2000/svg" xmlns:xlink="http://www.w3.org/1999/xlink" x="0px" y="0px" width="55.941px"
	 height="68.594px" viewBox="0 0 55.941 68.594" enable-background="new 0 0 55.941 68.594" xml:space="preserve">
<sodipodi:namedview  fit-margin-top="0" pagecolor="#ffffff" bordercolor="#666666" inkscape:window-maximized="0" inkscape:window-y="0" inkscape:window-x="0" inkscape:window-height="480" showgrid="false" inkscape:current-layer="g3567" inkscape:cy="34.38" inkscape:cx="758.60525" inkscape:pageshadow="2" inkscape:pageopacity="0" borderopacity="1" inkscape:zoom="0.23838384" id="namedview3561" inkscape:window-width="715" guidetolerance="10" gridtolerance="10" objecttolerance="10" fit-margin-right="0" fit-margin-bottom="0" fit-margin-left="0">
	</sodipodi:namedview>
<g id="g3567" transform="matrix(1.25,0,0,-1.25,-353.81,529.21375)" inkscape:label="media-button-four" inkscape:groupmode="layer">
	<g id="g3569">
		<g id="g3571">
			<g id="g3577">
				<g id="g3579">
					
						<linearGradient id="path3587_1_" gradientUnits="userSpaceOnUse" x1="533.9006" y1="695.0073" x2="534.9006" y2="695.0073" gradientTransform="matrix(0 85.7437 -85.7437 0 59897.9375 -45410.0664)">
						<stop  offset="0" style="stop-color:#4D4D4E"/>
						<stop  offset="1" style="stop-color:#373536"/>
					</linearGradient>
					<path id="path3587" inkscape:connector-curvature="0" fill="url(#path3587_1_)" d="M283.048,417.207
						c5.394-5.473,8.728-12.98,8.728-21.272l0,0c0-8.291-3.334-15.798-8.728-21.277l0,0c4.726-3.848,10.747-6.164,17.318-6.164l0,0
						c15.151,0,27.436,12.286,27.436,27.439l0,0c0,15.151-12.284,27.436-27.436,27.436l0,0
						C293.795,423.371,287.774,421.057,283.048,417.207"/>
				</g>
			</g>
		</g>
	</g>
	<g id="g3589">
		<g id="g3591">
			<g id="g3597">
				<g id="g3599">
					
						<linearGradient id="path3607_1_" gradientUnits="userSpaceOnUse" x1="533.4349" y1="694.3757" x2="534.4349" y2="694.3757" gradientTransform="matrix(0 78.5279 -78.5279 0 54833.8281 -41518.707)">
						<stop  offset="0" style="stop-color:#373536"/>
						<stop  offset="1" style="stop-color:#4D4D4E"/>
					</linearGradient>
					<path id="path3607" inkscape:connector-curvature="0" fill="url(#path3607_1_)" d="M286.477,416.867
						c4.924-5.866,7.61-13.203,7.61-20.932l0,0c0-7.73-2.686-15.068-7.61-20.935l0,0c4.101-2.72,8.947-4.195,13.889-4.195l0,0
						c13.855,0,25.128,11.273,25.128,25.13l0,0c0,13.855-11.273,25.127-25.128,25.127l0,0
						C295.424,421.062,290.578,419.585,286.477,416.867"/>
				</g>
			</g>
		</g>
	</g>
	<g id="g3609">
		<g id="g3611">
			<g id="g3617">
				<g id="g3619">
					
						<linearGradient id="path3629_1_" gradientUnits="userSpaceOnUse" x1="529.2974" y1="709.0034" x2="530.2974" y2="709.0034" gradientTransform="matrix(-60.965 0 0 -60.965 32594.1562 43632.7031)">
						<stop  offset="0" style="stop-color:#373536"/>
						<stop  offset="0.4922" style="stop-color:#BFBFBF"/>
						<stop  offset="1" style="stop-color:#373536"/>
					</linearGradient>
					<path id="path3629" inkscape:connector-curvature="0" fill="url(#path3629_1_)" d="M286.477,416.867
						c0.129-0.153,0.236-0.315,0.36-0.469l0,0c4.023,2.569,8.73,3.975,13.529,3.975l0,0c13.737,0,24.923-11.088,25.107-24.783l0,0
						c0.005,0.118,0.02,0.228,0.02,0.345l0,0c0,13.855-11.273,25.127-25.128,25.127l0,0
						C295.424,421.062,290.578,419.585,286.477,416.867"/>
				</g>
			</g>
		</g>
	</g>
	<g id="g3631">
		<g id="g3633">
			<g id="g3639">
				<g id="g3641">
					
						<linearGradient id="path3651_1_" gradientUnits="userSpaceOnUse" x1="529.2974" y1="694.7573" x2="530.2974" y2="694.7573" gradientTransform="matrix(-60.965 0 0 60.965 32594.1562 -41972.3359)">
						<stop  offset="0" style="stop-color:#373536"/>
						<stop  offset="0.4922" style="stop-color:#BFBFBF"/>
						<stop  offset="1" style="stop-color:#373536"/>
					</linearGradient>
					<path id="path3651" inkscape:connector-curvature="0" fill="url(#path3651_1_)" d="M300.366,371.496
						c-4.799,0-9.505,1.405-13.529,3.975l0,0c-0.124-0.154-0.231-0.317-0.36-0.469l0,0c4.101-2.719,8.947-4.197,13.889-4.197l0,0
						c13.855,0,25.128,11.273,25.128,25.13l0,0c0,0.118-0.016,0.227-0.02,0.344l0,0
						C325.289,382.583,314.104,371.496,300.366,371.496"/>
				</g>
			</g>
		</g>
	</g>
	<g id="g3653">
		<g>
			<g>
				<defs>
					<rect id="SVGID_1_" x="-172.125" y="-222.75" width="956.251" height="1237.5"/>
				</defs>
				<clipPath id="SVGID_2_">
					<use xlink:href="#SVGID_1_"  overflow="visible"/>
				</clipPath>
				<g id="g3655" clip-path="url(#SVGID_2_)">
					<g id="g3661" transform="translate(318.5605,403.7646)">
						<path id="path3663" inkscape:connector-curvature="0" fill="#373536" d="M0,0c-1.191,0-2.164-0.872-2.164-1.943v-3.643
							l-5.391,4.554C-8.193-0.498-8.893,0-9.678,0l-0.367-0.029l-0.184-0.062c-0.806-0.277-1.306-1.061-1.306-2.048v-3.557
							l-5.525,4.664C-17.7-0.498-18.4,0-19.179,0l-0.366-0.029l-0.183-0.062c-0.807-0.275-1.308-1.058-1.308-2.048v-10.693
							c0-0.989,0.501-1.773,1.309-2.051l0.359-0.088h0.189c0.785,0,1.483,0.498,2.123,1.035l5.52,4.659v-3.555
							c0-0.986,0.5-1.771,1.314-2.051l0.356-0.088h0.191c0.787,0,1.486,0.498,2.119,1.035l5.391,4.545v-3.634
							c0-1.075,0.973-1.947,2.164-1.947c1.195,0,2.164,0.872,2.164,1.947v11.081C2.164-0.872,1.195,0,0,0"/>
					</g>
				</g>
			</g>
		</g>
	</g>
	<g id="g3665">
		<g id="g3667">
			<g id="g3673">
				<g id="g3675">
					
						<linearGradient id="path3685_1_" gradientUnits="userSpaceOnUse" x1="578.6685" y1="731.1359" x2="579.6685" y2="731.1359" gradientTransform="matrix(14.843 0 0 -14.843 -8291.6494 11244.2354)">
						<stop  offset="0" style="stop-color:#373536"/>
						<stop  offset="0.4922" style="stop-color:#BFBFBF"/>
						<stop  offset="1" style="stop-color:#373536"/>
					</linearGradient>
					<path id="path3685" inkscape:connector-curvature="0" fill="url(#path3685_1_)" d="M301.505,390.519
						c-0.64-0.538-1.338-1.036-2.123-1.036l0,0h-0.188l-0.36,0.089c-0.807,0.274-1.308,1.061-1.308,2.047l0,0v-0.688
						c0-0.991,0.501-1.773,1.308-2.052l0,0l0.36-0.087h0.188c0.785,0,1.484,0.498,2.123,1.034l0,0l5.52,4.658v0.689L301.505,390.519
						z"/>
				</g>
			</g>
		</g>
	</g>
	<g id="g3687">
		<g id="g3689">
			<g id="g3695">
				<g id="g3697">
					
						<linearGradient id="path3707_1_" gradientUnits="userSpaceOnUse" x1="579.2123" y1="731.5366" x2="580.2135" y2="731.5366" gradientTransform="matrix(14.6424 0 0 -14.6424 -8174.0146 11103.3545)">
						<stop  offset="0" style="stop-color:#373536"/>
						<stop  offset="0.4922" style="stop-color:#BFBFBF"/>
						<stop  offset="1" style="stop-color:#373536"/>
					</linearGradient>
					<path id="path3707" inkscape:connector-curvature="0" fill="url(#path3707_1_)" d="M311.006,390.519
						c-0.633-0.536-1.332-1.036-2.12-1.036l0,0h-0.191l-0.355,0.089c-0.816,0.277-1.316,1.063-1.316,2.047l0,0v-0.688
						c0-0.986,0.5-1.772,1.316-2.052l0,0l0.355-0.087h0.191c0.788,0,1.487,0.498,2.12,1.034l0,0l5.391,4.545v0.688L311.006,390.519z
						"/>
				</g>
			</g>
		</g>
	</g>
	<g id="g3709">
		<g id="g3711">
			<g id="g3717">
				<g id="g3719">
					
						<linearGradient id="path3729_1_" gradientUnits="userSpaceOnUse" x1="626.1076" y1="766.0894" x2="627.1076" y2="766.0894" gradientTransform="matrix(6.7627 0 0 -6.7627 -3917.8008 5570.9844)">
						<stop  offset="0" style="stop-color:#373536"/>
						<stop  offset="0.4922" style="stop-color:#BFBFBF"/>
						<stop  offset="1" style="stop-color:#373536"/>
					</linearGradient>
					<path id="path3729" inkscape:connector-curvature="0" fill="url(#path3729_1_)" d="M318.56,389.483
						c-1.191,0-2.163,0.873-2.163,1.948l0,0v-0.691c0-1.073,0.973-1.945,2.163-1.945l0,0c1.196,0,2.165,0.873,2.165,1.945l0,0v0.691
						C320.725,390.356,319.756,389.483,318.56,389.483"/>
				</g>
			</g>
		</g>
	</g>
	<g id="g3731">
		<g id="g3733">
			<g id="g3739">
				<g id="g3741">
					
						<radialGradient id="path3749_1_" cx="560.0583" cy="717.423" r="1.0003" gradientTransform="matrix(27.9382 0 0 -27.9382 -15350.7031 20451.3691)" gradientUnits="userSpaceOnUse">
						<stop  offset="0" style="stop-color:#B5B5B5"/>
						<stop  offset="1" style="stop-color:#6A6A6A"/>
					</radialGradient>
					<path id="path3749" inkscape:connector-curvature="0" fill="url(#path3749_1_)" d="M299.207,402.583
						c-0.322-0.11-0.528-0.446-0.528-0.957l0,0v-5.347v-5.345c0-0.514,0.206-0.848,0.528-0.959l0,0
						c0.472-0.159,1.171,0.413,1.554,0.736l0,0l5.91,4.984c0.384,0.323,0.384,0.846,0,1.165l0,0l-5.91,4.987
						c-0.339,0.283-0.923,0.762-1.38,0.762l0,0C299.32,402.609,299.262,402.601,299.207,402.583"/>
				</g>
			</g>
		</g>
	</g>
	<g id="g3751">
		<g id="g3753">
			<g id="g3759">
				<g id="g3761">
					
						<radialGradient id="path3769_1_" cx="560.0607" cy="717.4246" r="0.9964" gradientTransform="matrix(27.9366 0 0 -27.9366 -15340.3174 20450.209)" gradientUnits="userSpaceOnUse">
						<stop  offset="0" style="stop-color:#B5B5B5"/>
						<stop  offset="1" style="stop-color:#6A6A6A"/>
					</radialGradient>
					<path id="path3769" inkscape:connector-curvature="0" fill="url(#path3769_1_)" d="M308.707,402.583
						c-0.318-0.11-0.527-0.446-0.527-0.957l0,0v-5.347v-5.345c0-0.514,0.209-0.848,0.527-0.959l0,0
						c0.474-0.159,1.177,0.413,1.555,0.736l0,0l5.909,4.984c0.382,0.323,0.382,0.846,0,1.165l0,0l-5.909,4.987
						c-0.336,0.283-0.922,0.762-1.38,0.762l0,0C308.821,402.609,308.762,402.601,308.707,402.583"/>
				</g>
			</g>
		</g>
	</g>
	<g id="g3771">
		<g id="g3773">
			<g id="g3779">
				<g id="g3781">
					
						<radialGradient id="path3789_1_" cx="558.0427" cy="719.8445" r="1.003" gradientTransform="matrix(30.8881 0 0 -24.173 -16919.9082 17808.584)" gradientUnits="userSpaceOnUse">
						<stop  offset="0" style="stop-color:#B5B5B5"/>
						<stop  offset="1" style="stop-color:#6A6A6A"/>
					</radialGradient>
					<path id="path3789" inkscape:connector-curvature="0" fill="url(#path3789_1_)" d="M317.552,401.821V390.74
						c0-0.434,0.452-0.791,1.009-0.791l0,0c0.555,0,1.013,0.356,1.013,0.791l0,0v11.081c0,0.435-0.456,0.789-1.013,0.789l0,0
						C318.004,402.61,317.552,402.256,317.552,401.821"/>
				</g>
			</g>
		</g>
	</g>
</g>
</svg>
