<?xml version="1.0" encoding="utf-8"?>
<!-- Generator: Adobe Illustrator 15.1.0, SVG Export Plug-In . SVG Version: 6.00 Build 0)  -->
<!DOCTYPE svg PUBLIC "-//W3C//DTD SVG 1.1//EN" "http://www.w3.org/Graphics/SVG/1.1/DTD/svg11.dtd">
<svg version="1.1"
	 id="svg2" inkscape:version="0.48.2 r9819" sodipodi:docname="media-button-three.ai" xmlns:dc="http://purl.org/dc/elements/1.1/" xmlns:inkscape="http://www.inkscape.org/namespaces/inkscape" xmlns:sodipodi="http://sodipodi.sourceforge.net/DTD/sodipodi-0.dtd" xmlns:cc="http://creativecommons.org/ns#" xmlns:rdf="http://www.w3.org/1999/02/22-rdf-syntax-ns#" xmlns:svg="http://www.w3.org/2000/svg"
	 xmlns="http://www.w3.org/2000/svg" xmlns:xlink="http://www.w3.org/1999/xlink" x="0px" y="0px" width="75.598px"
	 height="75.602px" viewBox="0 0 75.598 75.602" enable-background="new 0 0 75.598 75.602" xml:space="preserve">
<sodipodi:namedview  bordercolor="#666666" guidetolerance="10" gridtolerance="10" pagecolor="#ffffff" inkscape:pageopacity="0" inkscape:pageshadow="2" inkscape:window-y="0" inkscape:window-maximized="0" objecttolerance="10" inkscape:window-width="640" id="namedview4" fit-margin-top="0" borderopacity="1" inkscape:window-height="480" fit-margin-left="0" showgrid="false" inkscape:zoom="0.23838384" inkscape:cy="37.93" fit-margin-right="0" fit-margin-bottom="0" inkscape:cx="38.8275" inkscape:window-x="0" inkscape:current-layer="g10">
	</sodipodi:namedview>
<g id="g10" transform="matrix(1.25,0,0,-1.25,-343.6725,532.67125)" inkscape:groupmode="layer" inkscape:label="media-button-three">
	<g id="g12">
		<g id="g14">
			<g id="g20">
				<g id="g22">
					
						<linearGradient id="path30_1_" gradientUnits="userSpaceOnUse" x1="928.1421" y1="1431.7142" x2="929.1445" y2="1431.7142" gradientTransform="matrix(0 230.7165 230.7165 0 -330014.9688 -213772.1562)">
						<stop  offset="0" style="stop-color:#4D4D4E"/>
						<stop  offset="1" style="stop-color:#373536"/>
					</linearGradient>
					<path id="path30" inkscape:connector-curvature="0" fill="url(#path30_1_)" d="M274.938,395.898
						c0-16.704,13.536-30.241,30.238-30.241l0,0c16.703,0,30.241,13.538,30.241,30.241l0,0c0,16.702-13.538,30.239-30.241,30.239
						l0,0C288.474,426.137,274.938,412.6,274.938,395.898"/>
				</g>
			</g>
		</g>
	</g>
	<g id="g32">
		<g id="g34">
			<g id="g40">
				<g id="g42">
					
						<linearGradient id="path50_1_" gradientUnits="userSpaceOnUse" x1="927.6835" y1="1432.3275" x2="928.681" y2="1432.3275" gradientTransform="matrix(0 213.1667 213.1667 0 -305019.3438 -197383.3281)">
						<stop  offset="0" style="stop-color:#373536"/>
						<stop  offset="1" style="stop-color:#4D4D4E"/>
					</linearGradient>
					<path id="path50" inkscape:connector-curvature="0" fill="url(#path50_1_)" d="M277.235,395.898
						c0-15.402,12.533-27.941,27.941-27.941l0,0c15.409,0,27.939,12.539,27.939,27.941l0,0c0,15.409-12.53,27.94-27.939,27.94l0,0
						C289.768,423.838,277.235,411.306,277.235,395.898"/>
				</g>
			</g>
		</g>
	</g>
	<g id="g52">
		<g id="g54">
			<g id="g60">
				<g id="g62">
					
						<linearGradient id="path72_1_" gradientUnits="userSpaceOnUse" x1="941.7742" y1="1430.2963" x2="942.7753" y2="1430.2963" gradientTransform="matrix(213.1667 0 0 -213.1667 -200477.6562 305301.1875)">
						<stop  offset="0" style="stop-color:#373536"/>
						<stop  offset="0.5078" style="stop-color:#BFBFBF"/>
						<stop  offset="1" style="stop-color:#373536"/>
					</linearGradient>
					<path id="path72" inkscape:connector-curvature="0" fill="url(#path72_1_)" d="M277.235,395.898
						c0-0.115,0.018-0.223,0.021-0.341l0,0c0.188,15.245,12.629,27.595,27.92,27.595l0,0c15.288,0,27.736-12.35,27.925-27.595l0,0
						c0,0.118,0.014,0.227,0.014,0.341l0,0c0,15.409-12.53,27.94-27.939,27.94l0,0C289.768,423.838,277.235,411.306,277.235,395.898
						"/>
				</g>
			</g>
		</g>
	</g>
	<g id="g74">
		<g id="g76">
			<g id="g82">
				<g id="g84">
					
						<linearGradient id="path94_1_" gradientUnits="userSpaceOnUse" x1="941.7742" y1="1418.2377" x2="942.7753" y2="1418.2377" gradientTransform="matrix(213.1667 0 0 213.1667 -200477.6562 -301939)">
						<stop  offset="0" style="stop-color:#373536"/>
						<stop  offset="0.5078" style="stop-color:#BFBFBF"/>
						<stop  offset="1" style="stop-color:#373536"/>
					</linearGradient>
					<path id="path94" inkscape:connector-curvature="0" fill="url(#path94_1_)" d="M305.176,368.645
						c-15.291,0-27.732,12.348-27.92,27.595l0,0c-0.003-0.117-0.021-0.23-0.021-0.345l0,0c0-15.408,12.533-27.938,27.941-27.938l0,0
						c15.409,0,27.939,12.53,27.939,27.938l0,0c0,0.116-0.014,0.227-0.014,0.345l0,0
						C332.911,380.992,320.463,368.645,305.176,368.645"/>
				</g>
			</g>
		</g>
	</g>
</g>
<g>
	<path fill="#373536" d="M34.677,18.133h-1.602c-0.499,0-0.98,0.187-1.352,0.521l-9.923,8.985h-4.927
		c-1.586,0-2.762,1.327-3.066,3.464c-0.014,0.096-0.021,0.189-0.021,0.285v11.164c0,2.69,1.717,3.914,3.312,3.914
		c0.013,0,0.027,0,0.044,0h4.515l10.425,9.092c0.366,0.32,0.836,0.497,1.321,0.497h1.322c1.111,0,2.014-0.901,2.014-2.013V20.146
		C36.742,19.034,35.789,18.133,34.677,18.133z"/>
	<path fill="#373536" d="M52.531,37.285c-0.009-6.438-4.65-11.86-5.582-12.885c-0.882-0.964-2.134-1.517-3.438-1.517
		c-1.158,0-2.27,0.43-3.131,1.21c-1.9,1.723-2.045,4.671-0.324,6.572c1.031,1.141,3.158,4.262,3.158,6.628
		c0.006,4.438-2.25,6.519-2.287,6.553c-0.957,0.794-1.547,1.914-1.66,3.152c-0.115,1.24,0.26,2.451,1.06,3.409
		c0.889,1.065,2.192,1.678,3.58,1.678c1.084,0,2.141-0.383,2.979-1.078C47.463,50.526,52.539,46.042,52.531,37.285z"/>
	<path fill="#373536" d="M54.205,17.524c-0.873-0.85-2.025-1.316-3.244-1.316c-1.269,0-2.451,0.5-3.332,1.403
		c-1.791,1.833-1.76,4.786,0.065,6.575c0.062,0.062,6.082,6.145,5.459,12.873c-0.723,7.807-3.043,10.636-4.905,12.908
		c-0.383,0.467-0.734,0.898-1.033,1.306c-0.74,1.001-1.047,2.229-0.861,3.46c0.187,1.229,0.838,2.314,1.832,3.05
		c0.806,0.601,1.765,0.918,2.771,0.918c1.467,0,2.867-0.703,3.752-1.894c0.201-0.274,0.434-0.558,0.748-0.938
		c2.239-2.736,5.987-7.315,6.971-17.949C63.477,26.613,54.578,17.885,54.205,17.524z"/>
</g>
<linearGradient id="SVGID_1_" gradientUnits="userSpaceOnUse" x1="329.7893" y1="-264.9568" x2="352.7424" y2="-264.9568" gradientTransform="matrix(1 0 0 -1 -316 -216.3979)">
	<stop  offset="0" style="stop-color:#231F00"/>
	<stop  offset="0.0732" style="stop-color:#333E00"/>
	<stop  offset="0.2296" style="stop-color:#537D00"/>
	<stop  offset="0.3593" style="stop-color:#6AAB00"/>
	<stop  offset="0.4556" style="stop-color:#79C700"/>
	<stop  offset="0.5078" style="stop-color:#7ED200"/>
	<stop  offset="1" style="stop-color:#231F00"/>
</linearGradient>
<path fill="url(#SVGID_1_)" d="M34.729,54.566h-1.321c-0.486,0-0.956-0.177-1.322-0.496L21.66,44.977h-4.515
	c-0.017,0-0.03,0-0.044,0c-1.597,0-3.312-1.224-3.312-3.914v1.489c0,2.69,1.717,3.914,3.312,3.914c0.014,0,0.027,0,0.044,0h4.515
	l10.425,9.092c0.366,0.32,0.836,0.497,1.322,0.497h1.321c1.111,0,2.014-0.901,2.014-2.013v-1.489
	C36.742,53.665,35.841,54.566,34.729,54.566z"/>
<g>
	
		<linearGradient id="SVGID_2_" gradientUnits="userSpaceOnUse" x1="355.2463" y1="-260.7571" x2="368.5315" y2="-260.7571" gradientTransform="matrix(1 0 0 -1 -316 -216.3979)">
		<stop  offset="0" style="stop-color:#231F00"/>
		<stop  offset="0.0732" style="stop-color:#333E00"/>
		<stop  offset="0.2296" style="stop-color:#537D00"/>
		<stop  offset="0.3593" style="stop-color:#6AAB00"/>
		<stop  offset="0.4556" style="stop-color:#79C700"/>
		<stop  offset="0.5078" style="stop-color:#7ED200"/>
		<stop  offset="1" style="stop-color:#231F00"/>
	</linearGradient>
	<path fill="url(#SVGID_2_)" d="M46.885,49.52c-0.838,0.695-1.895,1.078-2.979,1.078c-1.388,0-2.691-0.611-3.58-1.678
		c-0.539-0.648-0.869-1.416-1-2.228c-0.019,0.104-0.05,0.201-0.06,0.308c-0.115,1.24,0.26,2.451,1.06,3.409
		c0.889,1.065,2.192,1.678,3.58,1.678c1.084,0,2.141-0.383,2.979-1.078c0.578-0.483,5.654-4.967,5.646-13.724
		c0-0.222-0.019-0.438-0.029-0.654C52.196,44.833,47.446,49.052,46.885,49.52z"/>
</g>
<g>
	
		<linearGradient id="SVGID_3_" gradientUnits="userSpaceOnUse" x1="362.3108" y1="-263.3625" x2="378.4993" y2="-263.3625" gradientTransform="matrix(1 0 0 -1 -316 -216.3979)">
		<stop  offset="0" style="stop-color:#231F00"/>
		<stop  offset="0.0732" style="stop-color:#333E00"/>
		<stop  offset="0.2296" style="stop-color:#537D00"/>
		<stop  offset="0.3593" style="stop-color:#6AAB00"/>
		<stop  offset="0.4556" style="stop-color:#79C700"/>
		<stop  offset="0.5078" style="stop-color:#7ED200"/>
		<stop  offset="1" style="stop-color:#231F00"/>
	</linearGradient>
	<path fill="url(#SVGID_3_)" d="M62.428,36.424c-0.982,10.639-4.729,15.218-6.971,17.954c-0.314,0.382-0.547,0.665-0.748,0.938
		c-0.885,1.189-2.285,1.894-3.752,1.894c-1.008,0-1.967-0.317-2.771-0.917c-0.969-0.716-1.604-1.768-1.811-2.959
		c-0.068,0.459-0.094,0.927-0.021,1.397c0.187,1.229,0.838,2.314,1.832,3.05c0.806,0.601,1.765,0.918,2.771,0.918
		c1.467,0,2.867-0.703,3.752-1.894c0.201-0.274,0.434-0.558,0.748-0.938c2.239-2.736,5.987-7.315,6.971-17.949
		c0.086-0.916,0.084-1.81,0.049-2.688C62.465,35.627,62.465,36.02,62.428,36.424z"/>
</g>
<g>
	
		<radialGradient id="SVGID_4_" cx="354.8704" cy="-224.1409" r="50.9839" gradientTransform="matrix(1 0 0 -1 -316 -216.3979)" gradientUnits="userSpaceOnUse">
		<stop  offset="0" style="stop-color:#007800"/>
		<stop  offset="0.1358" style="stop-color:#168B00"/>
		<stop  offset="0.3773" style="stop-color:#37A700"/>
		<stop  offset="0.608" style="stop-color:#4FBB00"/>
		<stop  offset="0.8212" style="stop-color:#5EC800"/>
		<stop  offset="1" style="stop-color:#63CC00"/>
	</radialGradient>
	<path fill="url(#SVGID_4_)" d="M15.802,42.552V31.388c0,0,0.248-1.736,1.074-1.736c0.827,0,5.703,0,5.703,0l10.497-9.506
		c0,0,0.826,0,1.239,0s0.413,0,0.413,0v33.896h-1.321l-10.993-9.589h-5.289C17.125,44.453,15.802,44.536,15.802,42.552z"/>
	
		<radialGradient id="SVGID_5_" cx="354.8713" cy="-224.1409" r="50.9827" gradientTransform="matrix(1 0 0 -1 -316 -216.3979)" gradientUnits="userSpaceOnUse">
		<stop  offset="0" style="stop-color:#007800"/>
		<stop  offset="0.1358" style="stop-color:#168B00"/>
		<stop  offset="0.3773" style="stop-color:#37A700"/>
		<stop  offset="0.608" style="stop-color:#4FBB00"/>
		<stop  offset="0.8212" style="stop-color:#5EC800"/>
		<stop  offset="1" style="stop-color:#63CC00"/>
	</radialGradient>
	<path fill="url(#SVGID_5_)" d="M43.906,50.074c-0.759,0-1.513-0.326-2.035-0.953c-0.935-1.123-0.781-2.792,0.342-3.726
		c0.102-0.091,3.021-2.704,3.016-8.104c-0.004-3.207-2.655-6.843-3.678-7.976c-0.979-1.081-0.898-2.754,0.182-3.731
		c1.082-0.981,2.748-0.904,3.73,0.173c0.518,0.567,5.049,5.702,5.057,11.528c0.006,7.981-4.721,12.007-4.924,12.175
		C45.102,49.873,44.502,50.074,43.906,50.074z"/>
	
		<radialGradient id="SVGID_6_" cx="354.8704" cy="-224.1428" r="50.981" gradientTransform="matrix(1 0 0 -1 -316 -216.3979)" gradientUnits="userSpaceOnUse">
		<stop  offset="0" style="stop-color:#007800"/>
		<stop  offset="0.1358" style="stop-color:#168B00"/>
		<stop  offset="0.3773" style="stop-color:#37A700"/>
		<stop  offset="0.608" style="stop-color:#4FBB00"/>
		<stop  offset="0.8212" style="stop-color:#5EC800"/>
		<stop  offset="1" style="stop-color:#63CC00"/>
	</radialGradient>
	<path fill="url(#SVGID_6_)" d="M50.957,56.687c-0.547,0-1.099-0.167-1.57-0.519c-1.174-0.868-1.424-2.523-0.555-3.699
		c0.283-0.386,0.61-0.787,0.971-1.225c1.932-2.355,4.576-5.585,5.355-14.001c0.719-7.753-5.98-14.422-6.048-14.487
		c-1.043-1.022-1.062-2.695-0.043-3.739s2.689-1.065,3.732-0.05c0.354,0.34,8.578,8.464,7.623,18.767
		c-0.928,10.026-4.437,14.307-6.529,16.863c-0.299,0.365-0.572,0.697-0.809,1.02C52.567,56.316,51.768,56.687,50.957,56.687z"/>
</g>
</svg>
