<?xml version="1.0" encoding="UTF-8" standalone="no"?>
<!-- Created with Inkscape (http://www.inkscape.org/) -->

<svg
   xmlns:dc="http://purl.org/dc/elements/1.1/"
   xmlns:cc="http://creativecommons.org/ns#"
   xmlns:rdf="http://www.w3.org/1999/02/22-rdf-syntax-ns#"
   xmlns:svg="http://www.w3.org/2000/svg"
   xmlns="http://www.w3.org/2000/svg"
   xmlns:sodipodi="http://sodipodi.sourceforge.net/DTD/sodipodi-0.dtd"
   xmlns:inkscape="http://www.inkscape.org/namespaces/inkscape"
   id="svg3327"
   version="1.1"
   inkscape:version="0.48.2 r9819"
   width="55.947498"
   height="68.59375"
   xml:space="preserve"
   sodipodi:docname="media-button-one.ai"><metadata
     id="metadata3333"><rdf:RDF><cc:Work
         rdf:about=""><dc:format>image/svg+xml</dc:format><dc:type
           rdf:resource="http://purl.org/dc/dcmitype/StillImage" /><dc:title></dc:title></cc:Work></rdf:RDF></metadata><defs
     id="defs3331"><linearGradient
       x1="0"
       y1="0"
       x2="1"
       y2="0"
       gradientUnits="userSpaceOnUse"
       gradientTransform="matrix(0,54.874512,54.874512,0,305.76611,368.49609)"
       spreadMethod="pad"
       id="linearGradient3349"><stop
         style="stop-opacity:1;stop-color:#4d4d4e"
         offset="0"
         id="stop3351" /><stop
         style="stop-opacity:1;stop-color:#373536"
         offset="1"
         id="stop3353" /></linearGradient><linearGradient
       x1="0"
       y1="0"
       x2="1"
       y2="0"
       gradientUnits="userSpaceOnUse"
       gradientTransform="matrix(0,50.256348,50.256348,0,305.20605,370.80566)"
       spreadMethod="pad"
       id="linearGradient3369"><stop
         style="stop-opacity:1;stop-color:#373536"
         offset="0"
         id="stop3371" /><stop
         style="stop-opacity:1;stop-color:#4d4d4e"
         offset="1"
         id="stop3373" /></linearGradient><linearGradient
       x1="0"
       y1="0"
       x2="1"
       y2="0"
       gradientUnits="userSpaceOnUse"
       gradientTransform="matrix(39.018066,0,0,-39.018066,285.69678,408.32666)"
       spreadMethod="pad"
       id="linearGradient3389"><stop
         style="stop-opacity:1;stop-color:#373536"
         offset="0"
         id="stop3391" /><stop
         style="stop-opacity:1;stop-color:#84d3f6"
         offset="0.492233"
         id="stop3393" /><stop
         style="stop-opacity:1;stop-color:#373536"
         offset="1"
         id="stop3395" /></linearGradient><linearGradient
       x1="0"
       y1="0"
       x2="1"
       y2="0"
       gradientUnits="userSpaceOnUse"
       gradientTransform="matrix(39.018066,0,0,39.018066,285.69678,383.54297)"
       spreadMethod="pad"
       id="linearGradient3411"><stop
         style="stop-opacity:1;stop-color:#373536"
         offset="0"
         id="stop3413" /><stop
         style="stop-opacity:1;stop-color:#84d3f6"
         offset="0.492233"
         id="stop3415" /><stop
         style="stop-opacity:1;stop-color:#373536"
         offset="1"
         id="stop3417" /></linearGradient><clipPath
       clipPathUnits="userSpaceOnUse"
       id="clipPath3425"><path
         d="M 0,792 612,792 612,0 0,0 0,792 z"
         id="path3427"
         inkscape:connector-curvature="0" /></clipPath><linearGradient
       x1="0"
       y1="0"
       x2="1"
       y2="0"
       gradientUnits="userSpaceOnUse"
       gradientTransform="matrix(-9.5019531,0,0,-9.5019531,313.66602,391.98437)"
       spreadMethod="pad"
       id="linearGradient3445"><stop
         style="stop-opacity:1;stop-color:#373536"
         offset="0"
         id="stop3447" /><stop
         style="stop-opacity:1;stop-color:#84d3f6"
         offset="0.492233"
         id="stop3449" /><stop
         style="stop-opacity:1;stop-color:#373536"
         offset="1"
         id="stop3451" /></linearGradient><linearGradient
       x1="0"
       y1="0"
       x2="1"
       y2="0"
       gradientUnits="userSpaceOnUse"
       gradientTransform="matrix(-9.3710938,0,0,-9.3710938,304.16406,391.92871)"
       spreadMethod="pad"
       id="linearGradient3467"><stop
         style="stop-opacity:1;stop-color:#373536"
         offset="0"
         id="stop3469" /><stop
         style="stop-opacity:1;stop-color:#84d3f6"
         offset="0.492233"
         id="stop3471" /><stop
         style="stop-opacity:1;stop-color:#373536"
         offset="1"
         id="stop3473" /></linearGradient><linearGradient
       x1="0"
       y1="0"
       x2="1"
       y2="0"
       gradientUnits="userSpaceOnUse"
       gradientTransform="matrix(-4.328125,0,0,-4.328125,294.79297,390.1123)"
       spreadMethod="pad"
       id="linearGradient3489"><stop
         style="stop-opacity:1;stop-color:#373536"
         offset="0"
         id="stop3491" /><stop
         style="stop-opacity:1;stop-color:#84d3f6"
         offset="0.492233"
         id="stop3493" /><stop
         style="stop-opacity:1;stop-color:#373536"
         offset="1"
         id="stop3495" /></linearGradient><radialGradient
       fx="0"
       fy="0"
       cx="0"
       cy="0"
       r="1"
       gradientUnits="userSpaceOnUse"
       gradientTransform="matrix(-17.881058,0,0,-17.881058,314.8291,407.79639)"
       spreadMethod="pad"
       id="radialGradient3511"><stop
         style="stop-opacity:1;stop-color:#6dcdf5"
         offset="0"
         id="stop3513" /><stop
         style="stop-opacity:1;stop-color:#2a7ea9"
         offset="1"
         id="stop3515" /></radialGradient><radialGradient
       fx="0"
       fy="0"
       cx="0"
       cy="0"
       r="1"
       gradientUnits="userSpaceOnUse"
       gradientTransform="matrix(-17.880615,0,0,-17.880615,305.32812,407.79639)"
       spreadMethod="pad"
       id="radialGradient3531"><stop
         style="stop-opacity:1;stop-color:#6dcdf5"
         offset="0"
         id="stop3533" /><stop
         style="stop-opacity:1;stop-color:#2a7ea9"
         offset="1"
         id="stop3535" /></radialGradient><radialGradient
       fx="0"
       fy="0"
       cx="0"
       cy="0"
       r="1"
       gradientUnits="userSpaceOnUse"
       gradientTransform="matrix(-19.768463,0,0,-15.470703,294.17383,407.79541)"
       spreadMethod="pad"
       id="radialGradient3551"><stop
         style="stop-opacity:1;stop-color:#6dcdf5"
         offset="0"
         id="stop3553" /><stop
         style="stop-opacity:1;stop-color:#2a7ea9"
         offset="1"
         id="stop3555" /></radialGradient></defs><sodipodi:namedview
     pagecolor="#ffffff"
     bordercolor="#666666"
     borderopacity="1"
     objecttolerance="10"
     gridtolerance="10"
     guidetolerance="10"
     inkscape:pageopacity="0"
     inkscape:pageshadow="2"
     inkscape:window-width="640"
     inkscape:window-height="480"
     id="namedview3329"
     showgrid="false"
     fit-margin-top="0"
     fit-margin-left="0"
     fit-margin-right="0"
     fit-margin-bottom="0"
     inkscape:zoom="0.23838384"
     inkscape:cx="28.26625"
     inkscape:cy="34.38"
     inkscape:window-x="0"
     inkscape:window-y="0"
     inkscape:window-maximized="0"
     inkscape:current-layer="g3335" /><g
     id="g3335"
     inkscape:groupmode="layer"
     inkscape:label="media-button-one"
     transform="matrix(1.25,0,0,-1.25,-354.23375,529.21375)"><g
       id="g3337"><g
         id="g3339"><g
           id="g3345"><g
             id="g3347"><path
               d="m 283.387,395.935 c 0,-15.154 12.285,-27.439 27.437,-27.439 l 0,0 c 6.571,0 12.595,2.315 17.321,6.162 l 0,0 c -5.397,5.479 -8.731,12.986 -8.731,21.277 l 0,0 c 0,8.292 3.334,15.799 8.731,21.272 l 0,0 c -4.726,3.85 -10.75,6.164 -17.321,6.164 l 0,0 c -15.152,0 -27.437,-12.285 -27.437,-27.436"
               style="fill:url(#linearGradient3349);stroke:none"
               id="path3355"
               inkscape:connector-curvature="0" /></g></g></g></g><g
       id="g3357"><g
         id="g3359"><g
           id="g3365"><g
             id="g3367"><path
               d="m 285.697,395.935 c 0,-13.857 11.272,-25.13 25.127,-25.13 l 0,0 c 4.942,0 9.789,1.475 13.891,4.195 l 0,0 c -4.924,5.867 -7.607,13.205 -7.607,20.935 l 0,0 c 0,7.729 2.683,15.066 7.607,20.932 l 0,0 c -4.102,2.718 -8.949,4.195 -13.891,4.195 l 0,0 c -13.855,0 -25.127,-11.272 -25.127,-25.127"
               style="fill:url(#linearGradient3369);stroke:none"
               id="path3375"
               inkscape:connector-curvature="0" /></g></g></g></g><g
       id="g3377"><g
         id="g3379"><g
           id="g3385"><g
             id="g3387"><path
               d="m 285.697,395.935 c 0,-0.117 0.017,-0.227 0.018,-0.345 l 0,0 c 0.187,13.695 11.371,24.783 25.109,24.783 l 0,0 c 4.803,0 9.506,-1.406 13.53,-3.975 l 0,0 c 0.125,0.154 0.232,0.316 0.361,0.469 l 0,0 c -4.102,2.718 -8.949,4.195 -13.891,4.195 l 0,0 c -13.855,0 -25.127,-11.272 -25.127,-25.127"
               style="fill:url(#linearGradient3389);stroke:none"
               id="path3397"
               inkscape:connector-curvature="0" /></g></g></g></g><g
       id="g3399"><g
         id="g3401"><g
           id="g3407"><g
             id="g3409"><path
               d="m 285.697,395.935 c 0,-13.857 11.272,-25.13 25.127,-25.13 l 0,0 c 4.942,0 9.789,1.478 13.891,4.197 l 0,0 c -0.129,0.152 -0.236,0.315 -0.361,0.469 l 0,0 c -4.024,-2.57 -8.727,-3.975 -13.53,-3.975 l 0,0 c -13.738,0 -24.922,11.087 -25.109,24.783 l 0,0 c -10e-4,-0.117 -0.018,-0.226 -0.018,-0.344"
               style="fill:url(#linearGradient3411);stroke:none"
               id="path3419"
               inkscape:connector-curvature="0" /></g></g></g></g><g
       id="g3421"><g
         id="g3423"
         clip-path="url(#clipPath3425)"><g
           id="g3429"
           transform="translate(292.6294,403.7646)"><path
             d="m 0,0 c 1.193,0 2.164,-0.872 2.164,-1.943 l 0,-3.643 5.394,4.554 C 8.195,-0.498 8.893,0 9.679,0 l 0.37,-0.029 0.181,-0.062 c 0.806,-0.277 1.305,-1.061 1.305,-2.048 l 0,-3.557 5.527,4.664 C 17.703,-0.498 18.4,0 19.181,0 l 0.365,-0.029 0.184,-0.062 c 0.807,-0.275 1.307,-1.058 1.307,-2.048 l 0,-10.693 c 0,-0.989 -0.5,-1.772 -1.311,-2.051 l -0.357,-0.088 -0.19,0 c -0.785,0 -1.484,0.498 -2.121,1.035 l -5.523,4.659 0,-3.555 c 0,-0.986 -0.499,-1.771 -1.311,-2.051 l -0.359,-0.088 -0.188,0 c -0.789,0 -1.489,0.498 -2.122,1.035 l -5.391,4.546 0,-3.634 c 0,-1.075 -0.971,-1.947 -2.164,-1.947 -1.192,0 -2.164,0.872 -2.164,1.947 l 0,11.081 C -2.164,-0.872 -1.192,0 0,0"
             style="fill:#373536;fill-opacity:1;fill-rule:nonzero;stroke:none"
             id="path3431"
             inkscape:connector-curvature="0" /></g></g></g><g
       id="g3433"><g
         id="g3435"><g
           id="g3441"><g
             id="g3443"><path
               d="m 304.165,394.487 5.522,-4.658 c 0.637,-0.537 1.337,-1.035 2.122,-1.035 l 0,0 0.189,0 0.358,0.088 c 0.81,0.278 1.31,1.061 1.31,2.051 l 0,0 0,0.688 c 0,-0.986 -0.5,-1.773 -1.31,-2.049 l 0,0 -0.358,-0.088 -0.189,0 c -0.785,0 -1.485,0.497 -2.122,1.036 l 0,0 -5.522,4.656 0,-0.689 z"
               style="fill:url(#linearGradient3445);stroke:none"
               id="path3453"
               inkscape:connector-curvature="0" /></g></g></g></g><g
       id="g3455"><g
         id="g3457"><g
           id="g3463"><g
             id="g3465"><path
               d="m 294.793,394.375 5.391,-4.546 c 0.634,-0.537 1.333,-1.035 2.122,-1.035 l 0,0 0.189,0 0.358,0.088 c 0.812,0.28 1.312,1.065 1.312,2.051 l 0,0 0,0.688 c 0,-0.984 -0.5,-1.77 -1.312,-2.049 l 0,0 -0.358,-0.088 -0.189,0 c -0.789,0 -1.488,0.499 -2.122,1.036 l 0,0 -5.391,4.543 0,-0.688 z"
               style="fill:url(#linearGradient3467);stroke:none"
               id="path3475"
               inkscape:connector-curvature="0" /></g></g></g></g><g
       id="g3477"><g
         id="g3479"><g
           id="g3485"><g
             id="g3487"><path
               d="m 292.63,389.484 c -1.193,0 -2.165,0.872 -2.165,1.947 l 0,0 0,-0.691 c 0,-1.074 0.972,-1.946 2.165,-1.946 l 0,0 c 1.193,0 2.163,0.872 2.163,1.946 l 0,0 0,0.691 c 0,-1.075 -0.97,-1.947 -2.163,-1.947"
               style="fill:url(#linearGradient3489);stroke:none"
               id="path3497"
               inkscape:connector-curvature="0" /></g></g></g></g><g
       id="g3499"><g
         id="g3501"><g
           id="g3507"><g
             id="g3509"><path
               d="m 310.432,401.847 -5.909,-4.987 c -0.388,-0.319 -0.388,-0.842 0,-1.165 l 0,0 5.909,-4.984 c 0.382,-0.323 1.08,-0.895 1.552,-0.736 l 0,0 c 0.322,0.111 0.528,0.445 0.528,0.958 l 0,0 0,5.346 0,5.347 c 0,0.511 -0.206,0.847 -0.528,0.957 l 0,0 c -0.055,0.018 -0.113,0.026 -0.174,0.026 l 0,0 c -0.457,0 -1.041,-0.479 -1.378,-0.762"
               style="fill:url(#radialGradient3511);stroke:none"
               id="path3517"
               inkscape:connector-curvature="0" /></g></g></g></g><g
       id="g3519"><g
         id="g3521"><g
           id="g3527"><g
             id="g3529"><path
               d="m 300.928,401.847 -5.91,-4.987 c -0.381,-0.319 -0.381,-0.842 0,-1.165 l 0,0 5.91,-4.984 c 0.38,-0.323 1.08,-0.895 1.556,-0.736 l 0,0 c 0.32,0.111 0.527,0.445 0.527,0.958 l 0,0 0,5.346 0,5.347 c 0,0.511 -0.207,0.847 -0.527,0.957 l 0,0 c -0.056,0.018 -0.114,0.026 -0.175,0.026 l 0,0 c -0.46,0 -1.045,-0.479 -1.381,-0.762"
               style="fill:url(#radialGradient3531);stroke:none"
               id="path3537"
               inkscape:connector-curvature="0" /></g></g></g></g><g
       id="g3539"><g
         id="g3541"><g
           id="g3547"><g
             id="g3549"><path
               d="m 291.62,401.821 0,-11.081 c 0,-0.435 0.453,-0.791 1.01,-0.791 l 0,0 c 0.556,0 1.01,0.356 1.01,0.791 l 0,0 0,11.081 c 0,0.435 -0.454,0.789 -1.01,0.789 l 0,0 c -0.557,0 -1.01,-0.354 -1.01,-0.789"
               style="fill:url(#radialGradient3551);stroke:none"
               id="path3557"
               inkscape:connector-curvature="0" /></g></g></g></g></g></svg>