<?xml version="1.0" encoding="UTF-8" standalone="no"?>
<!-- Created with Inkscape (http://www.inkscape.org/) -->

<svg
   xmlns:dc="http://purl.org/dc/elements/1.1/"
   xmlns:cc="http://creativecommons.org/ns#"
   xmlns:rdf="http://www.w3.org/1999/02/22-rdf-syntax-ns#"
   xmlns:svg="http://www.w3.org/2000/svg"
   xmlns="http://www.w3.org/2000/svg"
   xmlns:sodipodi="http://sodipodi.sourceforge.net/DTD/sodipodi-0.dtd"
   xmlns:inkscape="http://www.inkscape.org/namespaces/inkscape"
   id="svg2"
   version="1.1"
   inkscape:version="0.48.2 r9819"
   width="75.597504"
   height="75.60125"
   xml:space="preserve"
   sodipodi:docname="media-button-three.ai"><metadata
     id="metadata8"><rdf:RDF><cc:Work
         rdf:about=""><dc:format>image/svg+xml</dc:format><dc:type
           rdf:resource="http://purl.org/dc/dcmitype/StillImage" /><dc:title></dc:title></cc:Work></rdf:RDF></metadata><defs
     id="defs6"><linearGradient
       x1="0"
       y1="0"
       x2="1"
       y2="0"
       gradientUnits="userSpaceOnUse"
       gradientTransform="matrix(0,60.480957,60.480957,0,305.17725,365.65625)"
       spreadMethod="pad"
       id="linearGradient24"><stop
         style="stop-opacity:1;stop-color:#4d4d4e"
         offset="0"
         id="stop26" /><stop
         style="stop-opacity:1;stop-color:#373536"
         offset="1"
         id="stop28" /></linearGradient><linearGradient
       x1="0"
       y1="0"
       x2="1"
       y2="0"
       gradientUnits="userSpaceOnUse"
       gradientTransform="matrix(0,55.880371,55.880371,0,305.17529,367.95703)"
       spreadMethod="pad"
       id="linearGradient44"><stop
         style="stop-opacity:1;stop-color:#373536"
         offset="0"
         id="stop46" /><stop
         style="stop-opacity:1;stop-color:#4d4d4e"
         offset="1"
         id="stop48" /></linearGradient><linearGradient
       x1="0"
       y1="0"
       x2="1"
       y2="0"
       gradientUnits="userSpaceOnUse"
       gradientTransform="matrix(55.880371,0,0,-55.880371,277.23486,409.69727)"
       spreadMethod="pad"
       id="linearGradient64"><stop
         style="stop-opacity:1;stop-color:#373536"
         offset="0"
         id="stop66" /><stop
         style="stop-opacity:1;stop-color:#84d3f6"
         offset="0.507767"
         id="stop68" /><stop
         style="stop-opacity:1;stop-color:#373536"
         offset="1"
         id="stop70" /></linearGradient><linearGradient
       x1="0"
       y1="0"
       x2="1"
       y2="0"
       gradientUnits="userSpaceOnUse"
       gradientTransform="matrix(55.880371,0,0,55.880371,277.23486,382.09863)"
       spreadMethod="pad"
       id="linearGradient86"><stop
         style="stop-opacity:1;stop-color:#373536"
         offset="0"
         id="stop88" /><stop
         style="stop-opacity:1;stop-color:#84d3f6"
         offset="0.507767"
         id="stop90" /><stop
         style="stop-opacity:1;stop-color:#373536"
         offset="1"
         id="stop92" /></linearGradient><clipPath
       clipPathUnits="userSpaceOnUse"
       id="clipPath100"><path
         d="M 0,792 612,792 612,0 0,0 0,792 z"
         id="path102"
         inkscape:connector-curvature="0" /></clipPath><linearGradient
       x1="0"
       y1="0"
       x2="1"
       y2="0"
       gradientUnits="userSpaceOnUse"
       gradientTransform="matrix(8.9550781,0,0,-8.9550781,294.39404,385.49805)"
       spreadMethod="pad"
       id="linearGradient120"><stop
         style="stop-opacity:1;stop-color:#373536"
         offset="0"
         id="stop122" /><stop
         style="stop-opacity:1;stop-color:#84d3f6"
         offset="0.507767"
         id="stop124" /><stop
         style="stop-opacity:1;stop-color:#373536"
         offset="1"
         id="stop126" /></linearGradient><radialGradient
       fx="0"
       fy="0"
       cx="0"
       cy="0"
       r="1"
       gradientUnits="userSpaceOnUse"
       gradientTransform="matrix(58.709488,0,0,26.213043,294.23535,376.35937)"
       spreadMethod="pad"
       id="radialGradient142"><stop
         style="stop-opacity:1;stop-color:#6dcdf5"
         offset="0"
         id="stop144" /><stop
         style="stop-opacity:1;stop-color:#2a7ea9"
         offset="1"
         id="stop146" /></radialGradient><clipPath
       clipPathUnits="userSpaceOnUse"
       id="clipPath154"><path
         d="M 0,792 612,792 612,0 0,0 0,792 z"
         id="path156"
         inkscape:connector-curvature="0" /></clipPath><linearGradient
       x1="0"
       y1="0"
       x2="1"
       y2="0"
       gradientUnits="userSpaceOnUse"
       gradientTransform="matrix(8.9589844,0,0,-8.9589844,307.00391,385.49805)"
       spreadMethod="pad"
       id="linearGradient174"><stop
         style="stop-opacity:1;stop-color:#373536"
         offset="0"
         id="stop176" /><stop
         style="stop-opacity:1;stop-color:#84d3f6"
         offset="0.507767"
         id="stop178" /><stop
         style="stop-opacity:1;stop-color:#373536"
         offset="1"
         id="stop180" /></linearGradient><radialGradient
       fx="0"
       fy="0"
       cx="0"
       cy="0"
       r="1"
       gradientUnits="userSpaceOnUse"
       gradientTransform="matrix(58.710373,0,0,26.21344,306.83496,376.35937)"
       spreadMethod="pad"
       id="radialGradient196"><stop
         style="stop-opacity:1;stop-color:#6dcdf5"
         offset="0"
         id="stop198" /><stop
         style="stop-opacity:1;stop-color:#2a7ea9"
         offset="1"
         id="stop200" /></radialGradient></defs><sodipodi:namedview
     pagecolor="#ffffff"
     bordercolor="#666666"
     borderopacity="1"
     objecttolerance="10"
     gridtolerance="10"
     guidetolerance="10"
     inkscape:pageopacity="0"
     inkscape:pageshadow="2"
     inkscape:window-width="640"
     inkscape:window-height="480"
     id="namedview4"
     showgrid="false"
     fit-margin-top="0"
     fit-margin-left="0"
     fit-margin-right="0"
     fit-margin-bottom="0"
     inkscape:zoom="0.23838384"
     inkscape:cx="38.8275"
     inkscape:cy="37.93"
     inkscape:window-x="0"
     inkscape:window-y="0"
     inkscape:window-maximized="0"
     inkscape:current-layer="g10" /><g
     id="g10"
     inkscape:groupmode="layer"
     inkscape:label="media-button-three"
     transform="matrix(1.25,0,0,-1.25,-343.6725,532.67125)"><g
       id="g12"><g
         id="g14"><g
           id="g20"><g
             id="g22"><path
               d="m 274.938,395.898 c 0,-16.704 13.536,-30.242 30.238,-30.242 l 0,0 c 16.703,0 30.24,13.538 30.24,30.242 l 0,0 c 0,16.702 -13.537,30.239 -30.24,30.239 l 0,0 c -16.702,0 -30.238,-13.537 -30.238,-30.239"
               style="fill:url(#linearGradient24);stroke:none"
               id="path30"
               inkscape:connector-curvature="0" /></g></g></g></g><g
       id="g32"><g
         id="g34"><g
           id="g40"><g
             id="g42"><path
               d="m 277.235,395.898 c 0,-15.402 12.533,-27.941 27.941,-27.941 l 0,0 c 15.408,0 27.939,12.539 27.939,27.941 l 0,0 c 0,15.408 -12.531,27.94 -27.939,27.94 l 0,0 c -15.408,0 -27.941,-12.532 -27.941,-27.94"
               style="fill:url(#linearGradient44);stroke:none"
               id="path50"
               inkscape:connector-curvature="0" /></g></g></g></g><g
       id="g52"><g
         id="g54"><g
           id="g60"><g
             id="g62"><path
               d="m 277.235,395.898 c 0,-0.115 0.018,-0.224 0.021,-0.342 l 0,0 c 0.188,15.246 12.629,27.596 27.92,27.596 l 0,0 c 15.287,0 27.736,-12.35 27.924,-27.596 l 0,0 c 0,0.118 0.015,0.227 0.015,0.342 l 0,0 c 0,15.408 -12.531,27.94 -27.939,27.94 l 0,0 c -15.408,0 -27.941,-12.532 -27.941,-27.94"
               style="fill:url(#linearGradient64);stroke:none"
               id="path72"
               inkscape:connector-curvature="0" /></g></g></g></g><g
       id="g74"><g
         id="g76"><g
           id="g82"><g
             id="g84"><path
               d="m 305.176,368.645 c -15.291,0 -27.732,12.347 -27.92,27.595 l 0,0 c -0.003,-0.117 -0.021,-0.229 -0.021,-0.344 l 0,0 c 0,-15.408 12.533,-27.939 27.941,-27.939 l 0,0 c 15.408,0 27.939,12.531 27.939,27.939 l 0,0 c 0,0.115 -0.015,0.227 -0.015,0.344 l 0,0 c -0.188,-15.248 -12.637,-27.595 -27.924,-27.595"
               style="fill:url(#linearGradient86);stroke:none"
               id="path94"
               inkscape:connector-curvature="0" /></g></g></g></g><g
       id="g96"><g
         id="g98"
         clip-path="url(#clipPath100)"><g
           id="g104"
           transform="translate(303.3491,386.4941)"><path
             d="m 0,0 c 0,-1.299 -1.966,-2.316 -4.476,-2.316 -2.51,0 -4.479,1.017 -4.479,2.316 l 0,18.771 c 0,1.299 1.969,2.325 4.479,2.325 C -1.966,21.096 0,20.07 0,18.771 L 0,0 z"
             style="fill:#373536;fill-opacity:1;fill-rule:nonzero;stroke:none"
             id="path106"
             inkscape:connector-curvature="0" /></g></g></g><g
       id="g108"><g
         id="g110"><g
           id="g116"><g
             id="g118"><path
               d="m 298.874,384.827 c -2.511,0 -4.48,1.023 -4.48,2.313 l 0,0 0,-0.968 c 0,-1.299 1.969,-2.317 4.48,-2.317 l 0,0 c 2.509,0 4.475,1.018 4.475,2.317 l 0,0 0,0.968 c 0,-1.29 -1.966,-2.313 -4.475,-2.313"
               style="fill:url(#linearGradient120);stroke:none"
               id="path128"
               inkscape:connector-curvature="0" /></g></g></g></g><g
       id="g130"><g
         id="g132"><g
           id="g138"><g
             id="g140"><path
               d="m 295.872,405.266 0,-18.772 c 0,-0.741 1.351,-1.335 3.002,-1.335 l 0,0 c 1.646,0 3.002,0.594 3.002,1.335 l 0,0 0,18.772 c 0,0.738 -1.356,1.343 -3.002,1.343 l 0,0 c -1.651,0 -3.002,-0.605 -3.002,-1.343"
               style="fill:url(#radialGradient142);stroke:none"
               id="path148"
               inkscape:connector-curvature="0" /></g></g></g></g><g
       id="g150"><g
         id="g152"
         clip-path="url(#clipPath154)"><g
           id="g158"
           transform="translate(315.9629,386.4941)"><path
             d="m 0,0 c 0,-1.299 -1.965,-2.316 -4.482,-2.316 -2.51,0 -4.477,1.017 -4.477,2.316 l 0,18.771 c 0,1.299 1.967,2.325 4.477,2.325 C -1.965,21.096 0,20.07 0,18.771 L 0,0 z"
             style="fill:#373536;fill-opacity:1;fill-rule:nonzero;stroke:none"
             id="path160"
             inkscape:connector-curvature="0" /></g></g></g><g
       id="g162"><g
         id="g164"><g
           id="g170"><g
             id="g172"><path
               d="m 311.48,384.827 c -2.509,0 -4.477,1.023 -4.477,2.313 l 0,0 0,-0.968 c 0,-1.299 1.968,-2.317 4.477,-2.317 l 0,0 c 2.518,0 4.483,1.018 4.483,2.317 l 0,0 0,0.968 c 0,-1.29 -1.965,-2.313 -4.483,-2.313"
               style="fill:url(#linearGradient174);stroke:none"
               id="path182"
               inkscape:connector-curvature="0" /></g></g></g></g><g
       id="g184"><g
         id="g186"><g
           id="g192"><g
             id="g194"><path
               d="m 308.484,405.266 0,-18.772 c 0,-0.741 1.348,-1.335 2.996,-1.335 l 0,0 c 1.651,0 3.001,0.594 3.001,1.335 l 0,0 0,18.772 c 0,0.738 -1.35,1.343 -3.001,1.343 l 0,0 c -1.648,0 -2.996,-0.605 -2.996,-1.343"
               style="fill:url(#radialGradient196);stroke:none"
               id="path202"
               inkscape:connector-curvature="0" /></g></g></g></g></g></svg>