<?xml version="1.0" encoding="utf-8"?>
<!-- Generator: Adobe Illustrator 15.1.0, SVG Export Plug-In . SVG Version: 6.00 Build 0)  -->
<!DOCTYPE svg PUBLIC "-//W3C//DTD SVG 1.1//EN" "http://www.w3.org/Graphics/SVG/1.1/DTD/svg11.dtd">
<svg version="1.1"
	 id="Layer_1" inkscape:version="0.48.1 r9760" xmlns:svg="http://www.w3.org/2000/svg" xmlns:sodipodi="http://sodipodi.sourceforge.net/DTD/sodipodi-0.dtd" xmlns:dc="http://purl.org/dc/elements/1.1/" xmlns:rdf="http://www.w3.org/1999/02/22-rdf-syntax-ns#" xmlns:cc="http://creativecommons.org/ns#" xmlns:inkscape="http://www.inkscape.org/namespaces/inkscape" sodipodi:docname="insteon_LED.svg"
	 xmlns="http://www.w3.org/2000/svg" xmlns:xlink="http://www.w3.org/1999/xlink" x="0px" y="0px" width="29.333px"
	 height="29.271px" viewBox="0 0 29.333 29.271" enable-background="new 0 0 29.333 29.271" xml:space="preserve">
<sodipodi:namedview  id="namedview11726" inkscape:cx="22.318501" inkscape:zoom="21.013957" bordercolor="#666666" showgrid="false" inkscape:cy="22.318501" inkscape:window-x="0" guidetolerance="10" borderopacity="1" inkscape:window-height="1156" inkscape:pageshadow="2" gridtolerance="10" inkscape:window-y="0" inkscape:current-layer="Layer_1" inkscape:window-maximized="0" pagecolor="#ffffff" inkscape:pageopacity="0" inkscape:window-width="1910" objecttolerance="10">
	</sodipodi:namedview>
<g id="g11706">
	<g id="g11708">
	</g>
	<g id="g11712">
	</g>
	<g id="g11716">
	</g>
	<g id="g11720">
	</g>
</g>
<g id="Livello_1_2_">
</g>
<path fill="#FFFFFF" d="M10.352,12.458V4.619c0-2.382,1.935-4.313,4.317-4.313c2.385,0,4.314,1.932,4.314,4.313v7.839
	c0,2.386-1.93,4.32-4.314,4.32C12.287,16.778,10.352,14.844,10.352,12.458z M22.141,8.489c-0.549,0-0.984,0.439-0.984,0.984v3.83
	c0,3.576-2.916,6.485-6.487,6.485c-3.577,0-6.489-2.909-6.489-6.485v-3.83c0-0.545-0.439-0.984-0.987-0.984
	c-0.544,0-0.987,0.439-0.987,0.984v3.83c0,4.23,3.133,7.715,7.194,8.332c0,0.017-0.007,0.029-0.007,0.048v4.853h-0.882
	c-0.648,0-1.172,0.524-1.172,1.172c0,0.646,0.524,1.172,1.172,1.172h4.315c0.648,0,1.168-0.525,1.168-1.172
	c0-0.647-0.52-1.172-1.168-1.172h-0.885v-4.853c0-0.019-0.008-0.031-0.008-0.048c4.061-0.617,7.191-4.102,7.191-8.332v-3.83
	C23.125,8.928,22.685,8.489,22.141,8.489z"/>
</svg>
