<?xml version="1.0" encoding="utf-8"?>
<!-- Generator: Adobe Illustrator 15.1.0, SVG Export Plug-In . SVG Version: 6.00 Build 0)  -->
<!DOCTYPE svg PUBLIC "-//W3C//DTD SVG 1.1//EN" "http://www.w3.org/Graphics/SVG/1.1/DTD/svg11.dtd">
<svg version="1.1"
	 id="Layer_1" xmlns:cc="http://creativecommons.org/ns#" xmlns:svg="http://www.w3.org/2000/svg" xmlns:dc="http://purl.org/dc/elements/1.1/" sodipodi:docname="motive.alert.bkg.svg" inkscape:version="0.48.2 r9819" xmlns:sodipodi="http://sodipodi.sourceforge.net/DTD/sodipodi-0.dtd" xmlns:inkscape="http://www.inkscape.org/namespaces/inkscape" xmlns:rdf="http://www.w3.org/1999/02/22-rdf-syntax-ns#"
	 xmlns="http://www.w3.org/2000/svg" xmlns:xlink="http://www.w3.org/1999/xlink" x="0px" y="0px" width="598.572px"
	 height="408.057px" viewBox="0 0 598.572 408.057" enable-background="new 0 0 598.572 408.057" xml:space="preserve">
<sodipodi:namedview  pagecolor="#ffffff" borderopacity="1" inkscape:window-height="480" objecttolerance="10" gridtolerance="10" guidetolerance="10" id="namedview730" inkscape:pageopacity="0" inkscape:pageshadow="2" inkscape:window-width="640" showgrid="false" fit-margin-top="0" fit-margin-left="0" fit-margin-right="0" fit-margin-bottom="0" inkscape:zoom="0.38562092" inkscape:cx="239.455" inkscape:cy="245.07401" inkscape:current-layer="Layer_1" inkscape:window-x="0" inkscape:window-y="0" inkscape:window-maximized="0" bordercolor="#666666">
	</sodipodi:namedview>
<rect id="rect3" fill="#717272" width="598.572" height="394.057"/>
<path id="path5" inkscape:connector-curvature="0" fill="#343434" d="M593.966,386.729c0,1.385-1.117,2.5-2.5,2.5H7.105
	c-1.381,0-2.5-1.115-2.5-2.5V7.865c0-1.38,1.119-2.5,2.5-2.5h584.361c1.383,0,2.5,1.12,2.5,2.5V386.729z"/>
<path id="path7" inkscape:connector-curvature="0" fill="#1D1D1D" d="M460.003,130.208h-28.375H153.639h-14.996H14.462V336.19
	c0,2.761,2.239,5,5,5h118.084h1.098h14.996h277.989h28.375h1.23h5.02h112.93c2.764,0,5-2.239,5-5V130.208H460.003z"/>
<polyline id="polyline9" fill="#1D1D1D" points="14.462,130.208 14.462,61.53 584.066,61.53 584.066,128.958 14.235,128.958 "/>
<path id="path163_2_" inkscape:connector-curvature="0" fill="#FFFFFF" d="M36.315,12.87"/>
<path id="path163_1_" inkscape:connector-curvature="0" fill="#FFFFFF" d="M36.315,54.503"/>
<g id="g165" transform="translate(-156.545,-143.01701)">
	<path id="path167" inkscape:connector-curvature="0" fill="#010101" d="M193.005,157.558"/>
</g>
</svg>
