<?xml version="1.0" encoding="UTF-8" standalone="no"?>
<!-- Created with Inkscape (http://www.inkscape.org/) -->

<svg
   xmlns:dc="http://purl.org/dc/elements/1.1/"
   xmlns:cc="http://creativecommons.org/ns#"
   xmlns:rdf="http://www.w3.org/1999/02/22-rdf-syntax-ns#"
   xmlns:svg="http://www.w3.org/2000/svg"
   xmlns="http://www.w3.org/2000/svg"
   xmlns:sodipodi="http://sodipodi.sourceforge.net/DTD/sodipodi-0.dtd"
   xmlns:inkscape="http://www.inkscape.org/namespaces/inkscape"
   id="svg4623"
   version="1.1"
   inkscape:version="0.48.2 r9819"
   width="73.091248"
   height="25.307501"
   xml:space="preserve"
   sodipodi:docname="open-on.ai"><metadata
     id="metadata4629"><rdf:RDF><cc:Work
         rdf:about=""><dc:format>image/svg+xml</dc:format><dc:type
           rdf:resource="http://purl.org/dc/dcmitype/StillImage" /><dc:title></dc:title></cc:Work></rdf:RDF></metadata><defs
     id="defs4627"><linearGradient
       x1="0"
       y1="0"
       x2="1"
       y2="0"
       gradientUnits="userSpaceOnUse"
       gradientTransform="matrix(0,20.245117,20.245117,0,395.49512,296.50391)"
       spreadMethod="pad"
       id="linearGradient4645"><stop
         style="stop-opacity:1;stop-color:#757577"
         offset="0"
         id="stop4647" /><stop
         style="stop-opacity:1;stop-color:#373536"
         offset="1"
         id="stop4649" /></linearGradient><linearGradient
       x1="0"
       y1="0"
       x2="1"
       y2="0"
       gradientUnits="userSpaceOnUse"
       gradientTransform="matrix(0,18.639648,-18.639648,0,395.49805,297.30664)"
       spreadMethod="pad"
       id="linearGradient4665"><stop
         style="stop-opacity:1;stop-color:#757577"
         offset="0"
         id="stop4667" /><stop
         style="stop-opacity:1;stop-color:#373536"
         offset="1"
         id="stop4669" /></linearGradient><linearGradient
       x1="0"
       y1="0"
       x2="1"
       y2="0"
       gradientUnits="userSpaceOnUse"
       gradientTransform="matrix(0,17.508789,-17.508789,0,395.49609,297.87109)"
       spreadMethod="pad"
       id="linearGradient4685"><stop
         style="stop-opacity:1;stop-color:#373536"
         offset="0"
         id="stop4687" /><stop
         style="stop-opacity:1;stop-color:#757577"
         offset="0.994797"
         id="stop4689" /><stop
         style="stop-opacity:1;stop-color:#757577"
         offset="1"
         id="stop4691" /></linearGradient><clipPath
       clipPathUnits="userSpaceOnUse"
       id="clipPath4699"><path
         d="M 0,612 792,612 792,0 0,0 0,612 z"
         id="path4701"
         inkscape:connector-curvature="0" /></clipPath></defs><sodipodi:namedview
     pagecolor="#ffffff"
     bordercolor="#666666"
     borderopacity="1"
     objecttolerance="10"
     gridtolerance="10"
     guidetolerance="10"
     inkscape:pageopacity="0"
     inkscape:pageshadow="2"
     inkscape:window-width="640"
     inkscape:window-height="480"
     id="namedview4625"
     showgrid="false"
     fit-margin-top="0"
     fit-margin-left="0"
     fit-margin-right="0"
     fit-margin-bottom="0"
     inkscape:zoom="0.30849673"
     inkscape:cx="37.17625"
     inkscape:cy="11.87125"
     inkscape:window-x="494"
     inkscape:window-y="337"
     inkscape:window-maximized="0"
     inkscape:current-layer="g4631" /><g
     id="g4631"
     inkscape:groupmode="layer"
     inkscape:label="open-on"
     transform="matrix(1.25,0,0,-1.25,-457.82375,395.93625)"><g
       id="g4633"><g
         id="g4635"><g
           id="g4641"><g
             id="g4643"><path
               d="m 374.697,316.749 c -4.65,0 -8.438,-4.54 -8.438,-10.123 l 0,0 c 0,-5.581 3.788,-10.123 8.438,-10.123 l 0,0 41.603,0 c 4.655,0 8.432,4.542 8.432,10.123 l 0,0 c 0,5.583 -3.777,10.123 -8.432,10.123 l 0,0 -41.603,0 z"
               style="fill:url(#linearGradient4645);stroke:none"
               id="path4651"
               inkscape:connector-curvature="0" /></g></g></g></g><g
       id="g4653"><g
         id="g4655"><g
           id="g4661"><g
             id="g4663"><path
               d="m 374.697,315.948 c -4.207,0 -7.633,-4.184 -7.633,-9.32 l 0,0 c 0,-5.139 3.426,-9.32 7.633,-9.32 l 0,0 41.603,0 c 4.21,0 7.631,4.181 7.631,9.32 l 0,0 c 0,5.136 -3.423,9.32 -7.631,9.32 l 0,0 -41.603,0 z"
               style="fill:url(#linearGradient4665);stroke:none"
               id="path4671"
               inkscape:connector-curvature="0" /></g></g></g></g><g
       id="g4673"><g
         id="g4675"><g
           id="g4681"><g
             id="g4683"><path
               d="m 374.697,315.381 c -3.924,0 -7.123,-3.928 -7.123,-8.755 l 0,0 c 0,-4.827 3.197,-8.754 7.123,-8.754 l 0,0 41.603,0 c 3.924,0 7.118,3.927 7.118,8.754 l 0,0 c 0,4.827 -3.194,8.755 -7.118,8.755 l 0,0 -41.603,0 z"
               style="fill:url(#linearGradient4685);stroke:none"
               id="path4693"
               inkscape:connector-curvature="0" /></g></g></g></g><g
       id="g4695"><g
         id="g4697"
         clip-path="url(#clipPath4699)"><g
           id="g4703"
           transform="translate(384.9746,309.5664)"><path
             d="m 0,0 c -0.281,0.469 -0.629,0.655 -1.164,0.695 l -0.08,0 c -0.643,0 -1.07,-0.348 -1.363,-1.11 -0.229,-0.535 -0.35,-1.352 -0.35,-2.099 0,-0.95 0.187,-1.925 0.537,-2.487 0.281,-0.469 0.654,-0.695 1.229,-0.695 0.656,0 1.07,0.347 1.379,1.136 0.185,0.469 0.345,1.351 0.345,2.045 C 0.533,-1.51 0.346,-0.602 0,0 m 0.975,-6.136 c -0.508,-0.681 -1.231,-1.003 -2.166,-1.003 -1.258,0 -2.045,0.509 -2.58,1.606 -0.375,0.762 -0.629,1.952 -0.629,3.02 0,1.47 0.375,2.794 0.976,3.651 0.535,0.68 1.258,1.002 2.287,1.002 C 0,2.14 0.787,1.633 1.35,0.535 1.725,-0.254 1.951,-1.39 1.951,-2.513 c 0,-1.418 -0.347,-2.835 -0.976,-3.623"
             style="fill:#ffffff;fill-opacity:1;fill-rule:nonzero;stroke:none"
             id="path4705"
             inkscape:connector-curvature="0" /></g><g
           id="g4707"
           transform="translate(393.0234,309.9678)"><path
             d="m 0,0 c -0.254,0.134 -0.414,0.16 -0.855,0.16 l -1.846,0 0,-2.193 1.846,0 c 0.441,0 0.601,0.027 0.855,0.148 0.309,0.159 0.537,0.574 0.537,0.95 C 0.533,-0.562 0.309,-0.187 0,0 M 0.6,-3.169 C 0.188,-3.355 -0.348,-3.477 -1.043,-3.477 l -1.656,0 0,-3.905 -1.42,0 0,8.959 3.076,0 C -0.32,1.577 0.16,1.512 0.6,1.296 1.377,0.922 1.979,-0.027 1.979,-0.937 1.979,-1.885 1.377,-2.821 0.6,-3.169"
             style="fill:#ffffff;fill-opacity:1;fill-rule:nonzero;stroke:none"
             id="path4709"
             inkscape:connector-curvature="0" /></g><g
           id="g4711"
           transform="translate(396.3262,302.5879)"><path
             d="m 0,0 0,8.958 5.281,0 0,-1.417 -3.863,0 0,-2.192 2.605,0 0,-1.445 -2.605,0 0,-2.459 4.143,0 0,-1.444 L 0,0.001 0,0 z"
             style="fill:#ffffff;fill-opacity:1;fill-rule:nonzero;stroke:none"
             id="path4713"
             inkscape:connector-curvature="0" /></g><g
           id="g4715"
           transform="translate(408.2402,302.5879)"><path
             d="m 0,0 -3.424,6.069 0,-6.069 -1.418,0 0,8.958 1.418,0 3.262,-5.722 0,5.722 1.42,0 L 1.258,0 0,0 z"
             style="fill:#ffffff;fill-opacity:1;fill-rule:nonzero;stroke:none"
             id="path4717"
             inkscape:connector-curvature="0" /></g></g></g></g></svg>