<?xml version="1.0" encoding="utf-8"?>
<!-- Generator: Adobe Illustrator 15.1.0, SVG Export Plug-In . SVG Version: 6.00 Build 0)  -->
<!DOCTYPE svg PUBLIC "-//W3C//DTD SVG 1.1//EN" "http://www.w3.org/Graphics/SVG/1.1/DTD/svg11.dtd">
<svg version="1.1"
	 id="svg4623" inkscape:version="0.48.2 r9819" sodipodi:docname="open-on.ai" xmlns:rdf="http://www.w3.org/1999/02/22-rdf-syntax-ns#" xmlns:dc="http://purl.org/dc/elements/1.1/" xmlns:cc="http://creativecommons.org/ns#" xmlns:svg="http://www.w3.org/2000/svg" xmlns:sodipodi="http://sodipodi.sourceforge.net/DTD/sodipodi-0.dtd" xmlns:inkscape="http://www.inkscape.org/namespaces/inkscape"
	 xmlns="http://www.w3.org/2000/svg" xmlns:xlink="http://www.w3.org/1999/xlink" x="0px" y="0px" width="73.092px"
	 height="25.308px" viewBox="0 0 73.092 25.308" enable-background="new 0 0 73.092 25.308" xml:space="preserve">
<sodipodi:namedview  id="namedview4625" objecttolerance="10" borderopacity="1" pagecolor="#ffffff" inkscape:window-width="640" fit-margin-top="0" inkscape:window-maximized="0" guidetolerance="10" bordercolor="#666666" gridtolerance="10" inkscape:pageopacity="0" inkscape:pageshadow="2" inkscape:window-height="480" inkscape:cx="37.17625" showgrid="false" inkscape:zoom="0.30849673" fit-margin-left="0" fit-margin-right="0" fit-margin-bottom="0" inkscape:cy="11.87125" inkscape:window-x="494" inkscape:window-y="337" inkscape:current-layer="g4631">
	</sodipodi:namedview>
<g id="g4633">
	<g id="g4635">
		<g id="g4641">
			<g id="g4643">
				
					<linearGradient id="path4651_1_" gradientUnits="userSpaceOnUse" x1="-284.0828" y1="398.5249" x2="-283.0828" y2="398.5249" gradientTransform="matrix(0 -25.3064 -25.3064 0 10121.8018 -7163.7988)">
					<stop  offset="0" style="stop-color:#757577"/>
					<stop  offset="1" style="stop-color:#373536"/>
				</linearGradient>
				<path id="path4651" inkscape:connector-curvature="0" fill="url(#path4651_1_)" d="M10.548,0C4.735,0,0,5.675,0,12.654l0,0
					c0,6.977,4.735,12.654,10.548,12.654l0,0h52.004c5.818,0,10.54-5.678,10.54-12.654l0,0C73.092,5.675,68.37,0,62.552,0l0,0
					H10.548z"/>
			</g>
		</g>
	</g>
</g>
<g id="g4653">
	<g id="g4655">
		<g id="g4661">
			<g id="g4663">
				
					<linearGradient id="path4671_1_" gradientUnits="userSpaceOnUse" x1="-285.386" y1="420.6978" x2="-284.386" y2="420.6978" gradientTransform="matrix(0 -23.2996 23.2996 0 -9765.5107 -6625.0674)">
					<stop  offset="0" style="stop-color:#757577"/>
					<stop  offset="1" style="stop-color:#373536"/>
				</linearGradient>
				<path id="path4671" inkscape:connector-curvature="0" fill="url(#path4671_1_)" d="M10.548,1.001
					c-5.259,0-9.541,5.23-9.541,11.65l0,0c0,6.424,4.282,11.65,9.541,11.65l0,0h52.004c5.262,0,9.538-5.226,9.538-11.65l0,0
					c0-6.42-4.278-11.65-9.538-11.65l0,0H10.548z"/>
			</g>
		</g>
	</g>
</g>
<g id="g4673">
	<g id="g4675">
		<g id="g4681">
			<g id="g4683">
				
					<linearGradient id="path4693_1_" gradientUnits="userSpaceOnUse" x1="-286.447" y1="421.4419" x2="-285.447" y2="421.4419" gradientTransform="matrix(0 -21.886 21.886 0 -9187.1416 -6245.5835)">
					<stop  offset="0" style="stop-color:#373536"/>
					<stop  offset="0.9948" style="stop-color:#757577"/>
					<stop  offset="1" style="stop-color:#757577"/>
				</linearGradient>
				<path id="path4693" inkscape:connector-curvature="0" fill="url(#path4693_1_)" d="M10.548,1.71
					c-4.905,0-8.904,4.91-8.904,10.944l0,0c0,6.033,3.997,10.942,8.904,10.942l0,0h52.004c4.904,0,8.897-4.909,8.897-10.942l0,0
					c0-6.034-3.993-10.944-8.897-10.944l0,0H10.548z"/>
			</g>
		</g>
	</g>
</g>
<g id="g4695">
	<g>
		<g id="g4697">
			<g id="g4703" transform="translate(384.9746,309.5664)">
				<path id="path4705" inkscape:connector-curvature="0" fill="#999999" d="M-361.58-300.588c-0.351-0.586-0.786-0.819-1.455-0.869
					h-0.1c-0.804,0-1.338,0.435-1.704,1.388c-0.286,0.669-0.438,1.69-0.438,2.624c0,1.188,0.234,2.406,0.672,3.109
					c0.351,0.586,0.817,0.868,1.536,0.868c0.819,0,1.337-0.434,1.724-1.42c0.231-0.587,0.431-1.689,0.431-2.556
					C-360.914-298.701-361.148-299.835-361.58-300.588 M-360.362-292.918c-0.635,0.852-1.538,1.254-2.707,1.254
					c-1.573,0-2.557-0.637-3.226-2.008c-0.469-0.952-0.786-2.439-0.786-3.774c0-1.837,0.469-3.493,1.22-4.564
					c0.669-0.85,1.573-1.252,2.859-1.252c1.421,0,2.405,0.634,3.108,2.006c0.469,0.986,0.751,2.406,0.751,3.81
					C-359.142-295.674-359.575-293.903-360.362-292.918"/>
			</g>
			<g id="g4707" transform="translate(393.0234,309.9678)">
				<path id="path4709" inkscape:connector-curvature="0" fill="#999999" d="M-359.568-301.491c-0.317-0.167-0.518-0.2-1.069-0.2
					h-2.308v2.741h2.308c0.552,0,0.752-0.034,1.069-0.185c0.386-0.199,0.671-0.718,0.671-1.188
					C-358.902-300.789-359.182-301.257-359.568-301.491 M-358.818-297.53c-0.516,0.233-1.186,0.385-2.054,0.385h-2.07v4.882h-1.775
					v-11.199h3.846c0.903,0,1.503,0.081,2.054,0.351c0.971,0.468,1.724,1.654,1.724,2.792
					C-357.094-299.135-357.847-297.965-358.818-297.53"/>
			</g>
			<g id="g4711" transform="translate(396.3262,302.5879)">
				<path id="path4713" inkscape:connector-curvature="0" fill="#999999" d="M-358.742-284.887v-11.197h6.602v1.771h-4.829v2.74
					h3.257v1.806h-3.257v3.074h5.179v1.806H-358.742L-358.742-284.887z"/>
			</g>
			<g id="g4715" transform="translate(408.2402,302.5879)">
				<path id="path4717" inkscape:connector-curvature="0" fill="#999999" d="M-355.764-284.887l-4.28-7.585v7.585h-1.772v-11.197
					h1.772l4.078,7.152v-7.152h1.774v11.197H-355.764z"/>
			</g>
		</g>
	</g>
</g>
</svg>
