<?xml version="1.0" encoding="utf-8"?>
<!-- Generator: Adobe Illustrator 15.1.0, SVG Export Plug-In . SVG Version: 6.00 Build 0)  -->
<!DOCTYPE svg PUBLIC "-//W3C//DTD SVG 1.1//EN" "http://www.w3.org/Graphics/SVG/1.1/DTD/svg11.dtd">
<svg version="1.1"
	 id="Layer_1" sodipodi:docname="test.svg" inkscape:version="0.48.2 r9819" xmlns:inkscape="http://www.inkscape.org/namespaces/inkscape" xmlns:sodipodi="http://sodipodi.sourceforge.net/DTD/sodipodi-0.dtd" xmlns:rdf="http://www.w3.org/1999/02/22-rdf-syntax-ns#" xmlns:svg="http://www.w3.org/2000/svg" xmlns:cc="http://creativecommons.org/ns#" xmlns:dc="http://purl.org/dc/elements/1.1/"
	 xmlns="http://www.w3.org/2000/svg" xmlns:xlink="http://www.w3.org/1999/xlink" x="0px" y="0px" width="90.779px"
	 height="28.162px" viewBox="0 0 90.779 28.162" enable-background="new 0 0 90.779 28.162" xml:space="preserve">
<sodipodi:namedview  pagecolor="#ffffff" objecttolerance="10" id="namedview65" inkscape:window-width="640" borderopacity="1" bordercolor="#666666" gridtolerance="10" guidetolerance="10" inkscape:pageopacity="0" inkscape:pageshadow="2" inkscape:window-height="480" showgrid="false" inkscape:zoom="0.19627411" inkscape:cx="41.035" inkscape:cy="13.639" inkscape:window-x="0" inkscape:window-y="0" inkscape:window-maximized="0" inkscape:current-layer="Layer_1" fit-margin-bottom="0" fit-margin-right="0" fit-margin-left="0" fit-margin-top="0">
	</sodipodi:namedview>
<g id="g3" transform="translate(-228.965,-586.67701)">
	
		<linearGradient id="path14_1_" gradientUnits="userSpaceOnUse" x1="1455.1786" y1="-1139.8743" x2="1455.1786" y2="-1111.7126" gradientTransform="matrix(1 0 0 -1 -1180.8242 -525.0356)">
		<stop  offset="0" style="stop-color:#414042"/>
		<stop  offset="0.3972" style="stop-color:#3A3A3C"/>
		<stop  offset="0.7887" style="stop-color:#212122"/>
		<stop  offset="1" style="stop-color:#000000"/>
	</linearGradient>
	<path id="path14" inkscape:connector-curvature="0" fill="url(#path14_1_)" d="M243.045,614.839c-7.764,0-14.08-6.315-14.08-14.082
		c0-7.764,6.316-14.08,14.08-14.08h62.617c7.766,0,14.082,6.316,14.082,14.08c0,7.767-6.316,14.082-14.082,14.082H243.045
		L243.045,614.839z"/>
	
		<linearGradient id="path25_1_" gradientUnits="userSpaceOnUse" x1="1455.1786" y1="-1137.6243" x2="1455.1786" y2="-1113.9626" gradientTransform="matrix(1 0 0 -1 -1180.8242 -525.0356)">
		<stop  offset="0" style="stop-color:#000000"/>
		<stop  offset="0.2113" style="stop-color:#212122"/>
		<stop  offset="0.6028" style="stop-color:#3A3A3C"/>
		<stop  offset="1" style="stop-color:#414042"/>
	</linearGradient>
	<path id="path25" inkscape:connector-curvature="0" fill="url(#path25_1_)" d="M317.494,600.757
		c0,6.535-5.297,11.832-11.832,11.832h-62.617c-6.533,0-11.83-5.297-11.83-11.832l0,0c0-6.533,5.297-11.83,11.83-11.83h62.617
		C312.197,588.927,317.494,594.224,317.494,600.757L317.494,600.757z"/>
	
		<linearGradient id="path42_1_" gradientUnits="userSpaceOnUse" x1="1412.0389" y1="-1119.988" x2="1498.3182" y2="-1119.988" gradientTransform="matrix(1 0 0 -1 -1180.8242 -525.0356)">
		<stop  offset="0" style="stop-color:#000000"/>
		<stop  offset="0.1304" style="stop-color:#5D6A72"/>
		<stop  offset="0.2661" style="stop-color:#7899A9"/>
		<stop  offset="0.3788" style="stop-color:#80B9D3"/>
		<stop  offset="0.4624" style="stop-color:#7FCBEB"/>
		<stop  offset="0.5078" style="stop-color:#7ED3F7"/>
		<stop  offset="1" style="stop-color:#000000"/>
	</linearGradient>
	<path id="path42" inkscape:connector-curvature="0" fill="url(#path42_1_)" d="M243.045,589.376h62.617
		c6.459,0,11.701,5.176,11.82,11.604c0-0.074,0.012-0.148,0.012-0.225c0-6.533-5.297-11.83-11.832-11.83h-62.617
		c-6.533,0-11.83,5.297-11.83,11.83c0,0.076,0.009,0.15,0.017,0.225C231.347,594.552,236.588,589.376,243.045,589.376
		L243.045,589.376z"/>
	
		<linearGradient id="path59_1_" gradientUnits="userSpaceOnUse" x1="1412.0389" y1="1902.6233" x2="1498.3182" y2="1902.6233" gradientTransform="matrix(1 0 0 1 -1180.8242 -1295.6133)">
		<stop  offset="0" style="stop-color:#000000"/>
		<stop  offset="0.1304" style="stop-color:#5D6A72"/>
		<stop  offset="0.2661" style="stop-color:#7899A9"/>
		<stop  offset="0.3788" style="stop-color:#80B9D3"/>
		<stop  offset="0.4624" style="stop-color:#7FCBEB"/>
		<stop  offset="0.5078" style="stop-color:#7ED3F7"/>
		<stop  offset="1" style="stop-color:#000000"/>
	</linearGradient>
	<path id="path59" inkscape:connector-curvature="0" fill="url(#path59_1_)" d="M243.045,612.587h62.617
		c6.459,0,11.701-5.177,11.82-11.605c0,0.074,0.012,0.148,0.012,0.225c0,6.534-5.297,11.831-11.832,11.831h-62.617
		c-6.533,0-11.83-5.297-11.83-11.831c0-0.076,0.009-0.15,0.017-0.225C231.347,607.41,236.588,612.587,243.045,612.587
		L243.045,612.587z"/>
</g>
<g enable-background="new    ">
	<path fill="#6FCCF4" d="M18.159,18.241l-1.513-4.09h-1.779v4.09h-1.485V8.856h3.096c0.729,0,1.219,0.069,1.681,0.294
		c0.827,0.393,1.415,1.387,1.415,2.339c0,0.995-0.588,1.976-1.457,2.367l1.653,4.385H18.159z M17.501,10.509
		c-0.252-0.14-0.364-0.168-0.854-0.168h-1.779v2.297h1.779c0.462,0,0.616-0.027,0.854-0.153c0.364-0.21,0.588-0.603,0.588-0.995
		C18.089,11.098,17.865,10.705,17.501,10.509z"/>
	<path fill="#6FCCF4" d="M21.348,18.241V8.856h5.533v1.484h-4.048v2.297h2.731v1.514h-2.731v2.577h4.342v1.513H21.348z"/>
	<path fill="#6FCCF4" d="M34.287,18.241l-0.925-2.634h-2.928l-0.924,2.634h-1.583l3.236-9.385h1.471l3.236,9.385H34.287z
		 M31.92,11.462l-0.966,2.633h1.877L31.92,11.462z"/>
	<path fill="#6FCCF4" d="M42.014,17.709c-0.35,0.336-0.854,0.504-1.345,0.532c-0.098,0-0.294,0-0.532,0H37.28V8.856h3.026
		c0.952,0,1.316,0.098,1.821,0.49c0.98,0.854,1.541,2.339,1.541,4.188C43.667,15.412,43.079,16.896,42.014,17.709z M41.398,10.733
		c-0.238-0.225-0.56-0.393-0.953-0.393h-1.681v6.388h1.485c0.49,0,0.784-0.099,1.05-0.364c0.561-0.561,0.854-1.583,0.854-2.83
		C42.155,12.274,41.861,11.224,41.398,10.733z"/>
	<path fill="#6FCCF4" d="M44.881,14.361v-1.485h3.292v1.485H44.881z"/>
	<path fill="#6FCCF4" d="M55.02,17.358c-0.531,0.715-1.289,1.051-2.27,1.051c-1.316,0-2.143-0.532-2.703-1.681
		c-0.393-0.799-0.658-2.045-0.658-3.166c0-1.541,0.393-2.928,1.023-3.824c0.56-0.714,1.316-1.05,2.395-1.05
		c1.191,0,2.018,0.532,2.605,1.681c0.393,0.826,0.631,2.017,0.631,3.193C56.044,15.048,55.678,16.532,55.02,17.358z M53.999,10.93
		c-0.295-0.49-0.659-0.687-1.219-0.729c-0.029,0-0.057,0-0.084,0c-0.673,0-1.121,0.364-1.43,1.162
		c-0.238,0.561-0.363,1.415-0.363,2.199c0,0.995,0.195,2.018,0.56,2.605c0.294,0.49,0.687,0.729,1.288,0.729
		c0.688,0,1.121-0.364,1.443-1.19c0.196-0.49,0.364-1.415,0.364-2.144C54.558,12.512,54.362,11.56,53.999,10.93z"/>
	<path fill="#6FCCF4" d="M63.182,18.241l-3.586-6.359v6.359h-1.484V8.856h1.484l3.418,5.995V8.856h1.484v9.385H63.182z"/>
</g>
<g enable-background="new    ">
	<path fill="#6FCCF4" d="M66.737,18.241V8.856h1.484v7.998h4.342v1.387H66.737z"/>
</g>
<g enable-background="new    ">
	<path fill="#6FCCF4" d="M75.544,14.151v4.09h-1.484v-4.09l-3.292-5.295h1.778l2.242,3.628l2.269-3.628h1.751L75.544,14.151z"/>
</g>
</svg>
