<?xml version="1.0" encoding="UTF-8" standalone="no"?>
<!-- Created with Inkscape (http://www.inkscape.org/) -->

<svg
   xmlns:dc="http://purl.org/dc/elements/1.1/"
   xmlns:cc="http://creativecommons.org/ns#"
   xmlns:rdf="http://www.w3.org/1999/02/22-rdf-syntax-ns#"
   xmlns:svg="http://www.w3.org/2000/svg"
   xmlns="http://www.w3.org/2000/svg"
   xmlns:sodipodi="http://sodipodi.sourceforge.net/DTD/sodipodi-0.dtd"
   xmlns:inkscape="http://www.inkscape.org/namespaces/inkscape"
   id="svg3075"
   version="1.1"
   inkscape:version="0.48.2 r9819"
   width="100.975"
   height="35.202499"
   xml:space="preserve"
   sodipodi:docname="send.svg"><metadata
     id="metadata3081"><rdf:RDF><cc:Work
         rdf:about=""><dc:format>image/svg+xml</dc:format><dc:type
           rdf:resource="http://purl.org/dc/dcmitype/StillImage" /><dc:title /></cc:Work></rdf:RDF></metadata><defs
     id="defs3079"><linearGradient
       x1="0"
       y1="0"
       x2="1"
       y2="0"
       gradientUnits="userSpaceOnUse"
       gradientTransform="matrix(0,28.161621,28.161621,0,612.35498,598.16113)"
       spreadMethod="pad"
       id="linearGradient3097"><stop
         style="stop-opacity:1;stop-color:#4d4c4e"
         offset="0"
         id="stop3099" /><stop
         style="stop-opacity:1;stop-color:#373535"
         offset="1"
         id="stop3101" /></linearGradient><linearGradient
       x1="0"
       y1="0"
       x2="1"
       y2="0"
       gradientUnits="userSpaceOnUse"
       gradientTransform="matrix(0,23.661621,23.661621,0,612.35498,600.41113)"
       spreadMethod="pad"
       id="linearGradient3117"><stop
         style="stop-opacity:1;stop-color:#373535"
         offset="0"
         id="stop3119" /><stop
         style="stop-opacity:1;stop-color:#4d4c4e"
         offset="1"
         id="stop3121" /></linearGradient><linearGradient
       x1="0"
       y1="0"
       x2="1"
       y2="0"
       gradientUnits="userSpaceOnUse"
       gradientTransform="matrix(76.279297,0,0,-76.279297,574.21484,618.0459)"
       spreadMethod="pad"
       id="linearGradient3137"><stop
         style="stop-opacity:1;stop-color:#373535"
         offset="0"
         id="stop3139" /><stop
         style="stop-opacity:1;stop-color:#82d4f7"
         offset="0.507767"
         id="stop3141" /><stop
         style="stop-opacity:1;stop-color:#373535"
         offset="1"
         id="stop3143" /></linearGradient><linearGradient
       x1="0"
       y1="0"
       x2="1"
       y2="0"
       gradientUnits="userSpaceOnUse"
       gradientTransform="matrix(76.279297,0,0,76.279297,574.21484,605.99121)"
       spreadMethod="pad"
       id="linearGradient3159"><stop
         style="stop-opacity:1;stop-color:#373535"
         offset="0"
         id="stop3161" /><stop
         style="stop-opacity:1;stop-color:#82d4f7"
         offset="0.507767"
         id="stop3163" /><stop
         style="stop-opacity:1;stop-color:#373535"
         offset="1"
         id="stop3165" /></linearGradient></defs><sodipodi:namedview
     pagecolor="#ffffff"
     bordercolor="#666666"
     borderopacity="1"
     objecttolerance="10"
     gridtolerance="10"
     guidetolerance="10"
     inkscape:pageopacity="0"
     inkscape:pageshadow="2"
     inkscape:window-width="640"
     inkscape:window-height="480"
     id="namedview3077"
     showgrid="false"
     fit-margin-top="0"
     fit-margin-left="0"
     fit-margin-right="0"
     fit-margin-bottom="0"
     inkscape:zoom="3.9333486"
     inkscape:cx="57.061035"
     inkscape:cy="17.3221"
     inkscape:window-x="244"
     inkscape:window-y="236"
     inkscape:window-maximized="0"
     inkscape:current-layer="g3083" /><g
     id="g3083"
     inkscape:groupmode="layer"
     inkscape:label="send"
     transform="matrix(1.25,0,0,-1.25,-714.955,782.90375)"><g
   id="g3085"><g
     id="g3087"><g
       id="g3093"><g
         id="g3095"><path
           d="m 586.045,626.323 c -7.764,0 -14.081,-6.317 -14.081,-14.08 l 0,0 c 0,-7.765 6.317,-14.082 14.081,-14.082 l 0,0 52.617,0 c 7.766,0 14.082,6.317 14.082,14.082 l 0,0 c 0,7.763 -6.316,14.08 -14.082,14.08 l 0,0 -52.617,0 z"
           style="fill:url(#linearGradient3097);stroke:none"
           id="path3103"
           inkscape:connector-curvature="0" /></g></g></g></g><g
   id="g3105"><g
     id="g3107"><g
       id="g3113"><g
         id="g3115"><path
           d="m 586.045,624.073 c -6.533,0 -11.831,-5.297 -11.831,-11.83 l 0,0 c 0,-6.535 5.298,-11.832 11.831,-11.832 l 0,0 52.617,0 c 6.535,0 11.832,5.297 11.832,11.832 l 0,0 c 0,6.533 -5.297,11.83 -11.832,11.83 l 0,0 -52.617,0 z"
           style="fill:url(#linearGradient3117);stroke:none"
           id="path3123"
           inkscape:connector-curvature="0" /></g></g></g></g><g
   id="g3125"><g
     id="g3127"><g
       id="g3133"><g
         id="g3135"><path
           d="m 586.045,624.073 c -6.533,0 -11.831,-5.297 -11.831,-11.83 l 0,0 c 0,-0.076 0.009,-0.15 0.012,-0.224 l 0,0 c 0.121,6.429 5.362,11.605 11.819,11.605 l 0,0 52.617,0 c 6.459,0 11.701,-5.176 11.82,-11.605 l 0,0 c 0,0.074 0.012,0.148 0.012,0.224 l 0,0 c 0,6.533 -5.297,11.83 -11.832,11.83 l 0,0 -52.617,0 z"
           style="fill:url(#linearGradient3137);stroke:none"
           id="path3145"
           inkscape:connector-curvature="0" /></g></g></g></g><g
   id="g3147"><g
     id="g3149"><g
       id="g3155"><g
         id="g3157"><path
           d="m 638.662,600.413 -52.617,0 c -6.457,0 -11.698,5.176 -11.819,11.606 l 0,0 c -0.003,-0.075 -0.012,-0.149 -0.012,-0.225 l 0,0 c 0,-6.533 5.298,-11.83 11.831,-11.83 l 0,0 52.617,0 c 6.535,0 11.832,5.297 11.832,11.83 l 0,0 c 0,0.076 -0.012,0.15 -0.012,0.225 l 0,0 c -0.119,-6.43 -5.361,-11.606 -11.82,-11.606"
           style="fill:url(#linearGradient3159);stroke:none"
           id="path3167"
           inkscape:connector-curvature="0" /></g></g></g></g><g
   transform="matrix(1,0,0,-1,597.106,608.1465)"
   style=""
   id="text3169"><path
     d="m 6.846,-2.702 c 0,-3.6819963 -4.4100001,-2.5340017 -4.536,-4.27 0,-0.028 0,-0.07 0,-0.098 0,-0.7419993 0.7000006,-0.994 1.344,-0.994 0.028,0 0.056,0 0.098,0 1.049999,0.028 1.386,0.826 1.386,0.826 L 6.454,-7.63 C 5.9920005,-8.7919988 5.0959987,-9.548 3.78,-9.548 c -1.6799983,0 -2.926,0.7000018 -2.926,2.534 0,1.5539984 1.2460006,2.1140002 1.806,2.338 1.2179988,0.4899995 2.674,0.7000012 2.674,1.946 0,0.7839992 -0.5880009,1.386 -1.456,1.386 -0.8819991,0 -1.6100004,-0.5040009 -2.002,-1.386 l -1.414,0.518 c 0.6299994,1.42799857 1.8060016,2.38 3.416,2.38 0.7979992,0 1.5260005,-0.26600046 2.044,-0.728 0.5879994,-0.5319995 0.924,-1.2880009 0.924,-2.142"
     style="font-size:14px;font-variant:normal;font-weight:normal;font-stretch:normal;writing-mode:lr-tb;fill:#fcb24c;fill-opacity:1;fill-rule:nonzero;stroke:none;font-family:Roadgeek 2005 Series D;-inkscape-font-specification:Roadgeek2005SeriesD"
     id="path3077" /><path
     d="m 14.252,0 0,-1.512 -4.3399999,0 0,-2.576 2.7299999,0 0,-1.512 -2.7299999,0 0,-2.296 4.0459999,0 0,-1.484 -5.5299999,0 0,9.38 L 14.252,0"
     style="font-size:14px;font-variant:normal;font-weight:normal;font-stretch:normal;writing-mode:lr-tb;fill:#fcb24c;fill-opacity:1;fill-rule:nonzero;stroke:none;font-family:Roadgeek 2005 Series D;-inkscape-font-specification:Roadgeek2005SeriesD"
     id="path3079" /><path
     d="m 22.218,0 0,-9.38 -1.484,0 0,5.992 -3.416,-5.992 -1.484,0 0,9.38 1.484,0 0,-6.356 3.584,6.356 1.316,0"
     style="font-size:14px;font-variant:normal;font-weight:normal;font-stretch:normal;writing-mode:lr-tb;fill:#fcb24c;fill-opacity:1;fill-rule:nonzero;stroke:none;font-family:Roadgeek 2005 Series D;-inkscape-font-specification:Roadgeek2005SeriesD"
     id="path3081" /><path
     d="m 30.841999,-4.704 c 0,-1.8479982 -0.560001,-3.3320009 -1.54,-4.186 -0.503999,-0.3919996 -0.868001,-0.49 -1.82,-0.49 l -3.024,0 0,9.38 2.856,0 c 0.238,0 0.434,0 0.532,0 0.49,-0.02799997 0.994001,-0.19600034 1.344,-0.532 1.063999,-0.8119992 1.652,-2.2960019 1.652,-4.172 m -1.512,0 c 0,1.2459988 -0.294,2.2680006 -0.854,2.828 -0.265999,0.2659997 -0.56,0.364 -1.05,0.364 l -1.484,0 0,-6.384 1.68,0 c 0.392,0 0.714001,0.1680002 0.952,0.392 0.462,0.4899995 0.756,1.5400013 0.756,2.8"
     style="font-size:14px;font-variant:normal;font-weight:normal;font-stretch:normal;writing-mode:lr-tb;fill:#fcb24c;fill-opacity:1;fill-rule:nonzero;stroke:none;font-family:Roadgeek 2005 Series D;-inkscape-font-specification:Roadgeek2005SeriesD"
     id="path3083" /></g>
</g></svg>