<?xml version="1.0" encoding="UTF-8" standalone="no"?>
<!-- Generator: Adobe Illustrator 15.1.0, SVG Export Plug-In . SVG Version: 6.00 Build 0)  -->

<svg
   xmlns:dc="http://purl.org/dc/elements/1.1/"
   xmlns:cc="http://creativecommons.org/ns#"
   xmlns:rdf="http://www.w3.org/1999/02/22-rdf-syntax-ns#"
   xmlns:svg="http://www.w3.org/2000/svg"
   xmlns="http://www.w3.org/2000/svg"
   xmlns:sodipodi="http://sodipodi.sourceforge.net/DTD/sodipodi-0.dtd"
   xmlns:inkscape="http://www.inkscape.org/namespaces/inkscape"
   version="1.1"
   id="Layer_1"
   inkscape:version="0.48.2 r9819"
   sodipodi:docname="slider.transparent.short.svg"
   x="0px"
   y="0px"
   width="144"
   height="35.66"
   viewBox="0 0 144 35.66"
   enable-background="new 0 0 192.729 35.66"
   xml:space="preserve"><metadata
   id="metadata45"><rdf:RDF><cc:Work
       rdf:about=""><dc:format>image/svg+xml</dc:format><dc:type
         rdf:resource="http://purl.org/dc/dcmitype/StillImage" /></cc:Work></rdf:RDF></metadata><defs
   id="defs43" />
<sodipodi:namedview
   id="namedview45"
   objecttolerance="10"
   borderopacity="1"
   pagecolor="#ffffff"
   inkscape:window-width="640"
   fit-margin-top="0"
   inkscape:window-maximized="0"
   guidetolerance="10"
   bordercolor="#666666"
   gridtolerance="10"
   inkscape:pageopacity="0"
   inkscape:pageshadow="2"
   inkscape:window-height="480"
   inkscape:cx="185.893"
   showgrid="false"
   inkscape:zoom="0.38562092"
   fit-margin-left="0"
   fit-margin-right="0"
   fit-margin-bottom="0"
   inkscape:cy="17.83"
   inkscape:window-x="0"
   inkscape:window-y="0"
   inkscape:current-layer="Layer_1">
	</sodipodi:namedview>
<path
   id="path47"
   inkscape:connector-curvature="0"
   d="M -2.3654653e-6,0 V 35.66 H 144 V 0 H -2.3654653e-6 z"
   style="fill:#1d1d1d" />
<linearGradient
   id="path9_1_"
   gradientUnits="userSpaceOnUse"
   x1="-983.79321"
   y1="3188.0342"
   x2="-983.79321"
   y2="3169.1406"
   gradientTransform="translate(1056.2432,-3161.1416)">
	<stop
   offset="0.0052"
   style="stop-color:#6E6F71"
   id="stop6" />
	<stop
   offset="1"
   style="stop-color:#231F20"
   id="stop8" />
</linearGradient>
<path
   id="path9"
   inkscape:connector-curvature="0"
   d="m 13.768998,26.893 c -4.3410004,0 -7.8720004,-4.24 -7.8720004,-9.449 0,-5.208 3.529,-9.445 7.8720004,-9.445 H 131.134 c 4.341,0 7.868,4.236 7.868,9.444 0,5.208 -3.528,9.45 -7.868,9.45 H 13.768998 l 0,0 z"
   style="fill:url(#path9_1_)" />
<linearGradient
   id="path16_1_"
   gradientUnits="userSpaceOnUse"
   x1="-983.79321"
   y1="3187.2822"
   x2="-983.79321"
   y2="3169.8906"
   gradientTransform="translate(1056.2432,-3161.1416)">
	<stop
   offset="0.0052"
   style="stop-color:#6E6F71"
   id="stop12" />
	<stop
   offset="1"
   style="stop-color:#231F20"
   id="stop14" />
</linearGradient>
<path
   id="path16"
   inkscape:connector-curvature="0"
   d="M 131.135,8.748 H 13.768998 c -3.9270004,0 -7.1220004,3.901 -7.1220004,8.695 0,4.793 3.195,8.698 7.1220004,8.698 H 131.134 c 3.927,0 7.118,-3.903 7.118,-8.698 10e-4,-4.793 -3.193,-8.695 -7.117,-8.695 l 0,0 0,0 z"
   style="fill:url(#path16_1_)" />
<linearGradient
   id="path43_1_"
   gradientUnits="userSpaceOnUse"
   x1="-1049.1169"
   y1="3178.5869"
   x2="-918.46362"
   y2="3178.5869"
   gradientTransform="translate(1056.2432,-3161.1416)">
	<stop
   offset="0"
   style="stop-color:#4166AE"
   id="stop18" />
	<stop
   offset="0.0045"
   style="stop-color:#446CB1"
   id="stop20" />
	<stop
   offset="0.0322"
   style="stop-color:#4E8DC4"
   id="stop22" />
	<stop
   offset="0.0604"
   style="stop-color:#56A8D2"
   id="stop24" />
	<stop
   offset="0.0891"
   style="stop-color:#5DBBDE"
   id="stop26" />
	<stop
   offset="0.1186"
   style="stop-color:#60C6E3"
   id="stop28" />
	<stop
   offset="0.15"
   style="stop-color:#62CBE5"
   id="stop30" />
	<stop
   offset="0.3"
   style="stop-color:#2EB24B"
   id="stop32" />
	<stop
   offset="0.47"
   style="stop-color:#06A14B"
   id="stop34" />
	<stop
   offset="0.64"
   style="stop-color:#FEDD10"
   id="stop36" />
	<stop
   offset="0.8012"
   style="stop-color:#F16724"
   id="stop38" />
	<stop
   offset="1"
   style="stop-color:#EB2627"
   id="stop40" />
</linearGradient>
<path
   id="path43"
   inkscape:connector-curvature="0"
   d="m 13.768998,25.614 c -3.662,0 -6.6430004,-3.664 -6.6430004,-8.17 0,-4.503 2.9790004,-8.168 6.6430004,-8.168 H 131.134 c 3.657,0 6.646,3.666 6.646,8.168 0,4.506 -2.979,8.17 -6.646,8.17 H 13.768998 z"
   style="fill:url(#path43_1_)" />
</svg>