<?xml version="1.0" encoding="utf-8"?>
<!-- Generator: Adobe Illustrator 15.1.0, SVG Export Plug-In . SVG Version: 6.00 Build 0)  -->
<!DOCTYPE svg PUBLIC "-//W3C//DTD SVG 1.1//EN" "http://www.w3.org/Graphics/SVG/1.1/DTD/svg11.dtd">
<svg version="1.1"
	 id="svg2" inkscape:version="0.48.2 r9819" sodipodi:docname="sunroof.bracket.ai" xmlns:rdf="http://www.w3.org/1999/02/22-rdf-syntax-ns#" xmlns:dc="http://purl.org/dc/elements/1.1/" xmlns:cc="http://creativecommons.org/ns#" xmlns:svg="http://www.w3.org/2000/svg" xmlns:sodipodi="http://sodipodi.sourceforge.net/DTD/sodipodi-0.dtd" xmlns:inkscape="http://www.inkscape.org/namespaces/inkscape"
	 xmlns="http://www.w3.org/2000/svg" xmlns:xlink="http://www.w3.org/1999/xlink" x="0px" y="0px" width="381.336px"
	 height="26.243px" viewBox="0 0 381.336 26.243" enable-background="new 0 0 381.336 26.243" xml:space="preserve">
<sodipodi:namedview  id="namedview4" objecttolerance="10" borderopacity="1" pagecolor="#ffffff" inkscape:window-width="640" fit-margin-top="0" inkscape:window-maximized="0" guidetolerance="10" bordercolor="#666666" gridtolerance="10" inkscape:pageopacity="0" inkscape:pageshadow="2" inkscape:window-height="480" inkscape:cx="191.46" showgrid="false" inkscape:zoom="0.30849673" fit-margin-left="0" fit-margin-right="0" fit-margin-bottom="0" inkscape:cy="13.250875" inkscape:window-x="0" inkscape:window-y="0" inkscape:current-layer="g10">
	</sodipodi:namedview>
<g id="g10" transform="matrix(1.25,0,0,-1.25,-303.54,395.49225)" inkscape:groupmode="layer" inkscape:label="sunroof.bracket">
	<g id="g12">
		<g>
			<g>
				<defs>
					<rect id="SVGID_1_" x="-222.75" y="-172.125" width="1237.5" height="956.25"/>
				</defs>
				<clipPath id="SVGID_2_">
					<use xlink:href="#SVGID_1_"  overflow="visible"/>
				</clipPath>
				<g id="g14" clip-path="url(#SVGID_2_)">
					<g id="g20" transform="translate(377.4727,296.0488)">
						<path id="path22" inkscape:connector-curvature="0" fill="#7F7E7E" d="M4.8,0C4.337-0.412,3.69-0.649,2.977-0.649
							c-1.437,0-2.487,0.85-3.048,2.123l1.263,0.462C1.541,1.149,2.19,0.698,2.979,0.698c0.772,0,1.299,0.538,1.299,1.238
							c0,1.113-1.299,1.298-2.388,1.735C1.393,3.872,0.281,4.372,0.281,5.757c0,1.637,1.112,2.262,2.609,2.262
							c1.175,0,1.975-0.673,2.386-1.709L4.102,5.96c0,0-0.298,0.711-1.235,0.736H2.779c-0.574,0-1.199-0.225-1.199-0.887V5.724
							c0.116-1.55,4.047-0.527,4.047-3.812C5.624,1.149,5.324,0.475,4.8,0"/>
					</g>
					<g id="g24" transform="translate(385.0215,296.8115)">
						<path id="path26" inkscape:connector-curvature="0" fill="#7F7E7E" d="M4.8,0.001C4.362-0.824,3.364-1.412,2.339-1.412
							c-1.024,0-2.022,0.587-2.475,1.412C-0.36,0.499-0.511,1.087-0.511,1.737v5.372h1.327V1.737c0-1.086,0.608-1.798,1.522-1.798
							c0.912,0,1.524,0.712,1.524,1.798v5.372h1.324V1.737C5.188,1.087,5.036,0.499,4.8,0.001"/>
					</g>
					<g id="g28" transform="translate(391.9355,295.5508)">
						<path id="path30" inkscape:connector-curvature="0" fill="#7F7E7E" d="M4.8,0L1.602,5.67V0H0.276v8.369h1.326l3.047-5.347
							v5.347h1.326V0H4.8z"/>
					</g>
					<g id="g32" transform="translate(398.7861,302.4463)">
						<path id="path34" inkscape:connector-curvature="0" fill="#7F7E7E" d="M4.799,0C4.573,0.126,4.474,0.149,4.037,0.149H2.449
							V-1.9h1.588c0.409,0,0.55,0.023,0.763,0.136c0.325,0.188,0.525,0.538,0.525,0.888C5.324-0.524,5.124-0.176,4.799,0
							 M5.387-6.896l-1.35,3.647H2.45v-3.647H1.127v8.37h2.762c0.648,0,1.086-0.062,1.498-0.262
							c0.738-0.349,1.263-1.235,1.263-2.087c0-0.888-0.523-1.761-1.298-2.109l1.473-3.911L5.387-6.896L5.387-6.896z"/>
					</g>
					<g id="g36" transform="translate(406.1611,302.0703)">
						<path id="path38" inkscape:connector-curvature="0" fill="#7F7E7E" d="M4.799,0C4.535,0.439,4.212,0.613,3.712,0.65H3.637
							c-0.6,0-0.998-0.323-1.275-1.036C2.15-0.884,2.037-1.648,2.037-2.348c0-0.886,0.177-1.797,0.502-2.322
							c0.261-0.437,0.609-0.65,1.147-0.65c0.611,0,1.002,0.325,1.287,1.062c0.176,0.438,0.326,1.262,0.326,1.91
							C5.298-1.411,5.124-0.561,4.799,0 M5.712-5.732c-0.477-0.639-1.15-0.939-2.025-0.939c-1.173,0-1.909,0.476-2.412,1.498
							C0.928-4.459,0.688-3.348,0.688-2.35c0,1.377,0.35,2.613,0.912,3.413C2.099,1.7,2.773,2,3.737,2
							C4.798,2,5.534,1.525,6.06,0.502c0.347-0.738,0.56-1.799,0.56-2.85C6.621-3.674,6.298-4.996,5.712-5.732"/>
					</g>
					<g id="g40" transform="translate(413.7744,302.0703)">
						<path id="path42" inkscape:connector-curvature="0" fill="#7F7E7E" d="M4.8,0C4.534,0.439,4.211,0.613,3.711,0.65H3.638
							c-0.601,0-1.002-0.323-1.276-1.036C2.15-0.885,2.036-1.648,2.036-2.348c0-0.886,0.177-1.797,0.5-2.322
							C2.798-5.107,3.15-5.32,3.687-5.32c0.609,0,0.998,0.325,1.287,1.062c0.172,0.438,0.323,1.262,0.323,1.91
							C5.297-1.411,5.123-0.561,4.8,0 M5.71-5.732C5.237-6.371,4.56-6.671,3.687-6.671c-1.174,0-1.91,0.476-2.412,1.498
							C0.925-4.46,0.689-3.349,0.689-2.35c0,1.376,0.349,2.612,0.909,3.412C2.099,1.7,2.773,2,3.736,2C4.8,2,5.535,1.525,6.06,0.502
							c0.35-0.738,0.56-1.799,0.56-2.85C6.623-3.674,6.297-4.996,5.71-5.732"/>
					</g>
					<g id="g44" transform="translate(418.7734,302.5957)">
						<path id="path46" inkscape:connector-curvature="0" fill="#7F7E7E" d="M4.8,0v-2.049h2.438v-1.35H4.8v-3.648H3.477v8.372
							h5.195v-1.327L4.8,0L4.8,0z"/>
					</g>
					<g id="g48" transform="translate(428.6514,300.1328)">
						
							<path id="path50" inkscape:connector-curvature="0" fill="none" stroke="#7F7E7E" stroke-width="0.75" stroke-miterlimit="10" d="
							M4.8,0h114.45v16.261"/>
					</g>
					<g id="g52" transform="translate(365.832,300.1328)">
						
							<path id="path54" inkscape:connector-curvature="0" fill="none" stroke="#7F7E7E" stroke-width="0.75" stroke-miterlimit="10" d="
							M4.8,0h-117.961v16.261"/>
					</g>
				</g>
			</g>
		</g>
	</g>
</g>
</svg>
