<?xml version="1.0" encoding="UTF-8" standalone="no"?>
<!-- Created with Inkscape (http://www.inkscape.org/) -->

<svg
   xmlns:dc="http://purl.org/dc/elements/1.1/"
   xmlns:cc="http://creativecommons.org/ns#"
   xmlns:rdf="http://www.w3.org/1999/02/22-rdf-syntax-ns#"
   xmlns:svg="http://www.w3.org/2000/svg"
   xmlns="http://www.w3.org/2000/svg"
   xmlns:xlink="http://www.w3.org/1999/xlink"
   xmlns:sodipodi="http://sodipodi.sourceforge.net/DTD/sodipodi-0.dtd"
   xmlns:inkscape="http://www.inkscape.org/namespaces/inkscape"
   id="svg3049"
   version="1.1"
   inkscape:version="0.48.2 r9819"
   width="384.02344"
   height="383.98438"
   xml:space="preserve"
   sodipodi:docname="thermostat.svg"><metadata
     id="metadata3055"><rdf:RDF><cc:Work
         rdf:about=""><dc:format>image/svg+xml</dc:format><dc:type
           rdf:resource="http://purl.org/dc/dcmitype/StillImage" /><dc:title /></cc:Work></rdf:RDF></metadata><defs
     id="defs3053"><clipPath
       clipPathUnits="userSpaceOnUse"
       id="clipPath3063"><path
         d="M 0,792 612,792 612,0 0,0 0,792 z"
         id="path3065"
         inkscape:connector-curvature="0" /></clipPath><clipPath
       clipPathUnits="userSpaceOnUse"
       id="clipPath3319"><path
         d="m 156.831,545.565 297.617,0 0,-299.143 -297.617,0 0,299.143 z"
         id="path3321"
         inkscape:connector-curvature="0" /></clipPath><radialGradient
       fx="0"
       fy="0"
       cx="0"
       cy="0"
       r="1"
       gradientUnits="userSpaceOnUse"
       gradientTransform="matrix(148.821,0,0,149.55936,305.63867,395.99316)"
       spreadMethod="pad"
       id="radialGradient3327"><stop
         style="stop-opacity:1;stop-color:#3e4851"
         offset="0"
         id="stop3329" /><stop
         style="stop-opacity:1;stop-color:#454b4f"
         offset="0.264008"
         id="stop3331" /><stop
         style="stop-opacity:1;stop-color:#454b4f"
         offset="0.264008"
         id="stop3333" /><stop
         style="stop-opacity:1;stop-color:#a6b1b7"
         offset="0.617996"
         id="stop3335" /><stop
         style="stop-opacity:1;stop-color:#cfdce5"
         offset="0.695404"
         id="stop3337" /><stop
         style="stop-opacity:1;stop-color:#b7c6d1"
         offset="0.771805"
         id="stop3339" /><stop
         style="stop-opacity:1;stop-color:#afc3d5"
         offset="0.847702"
         id="stop3341" /><stop
         style="stop-opacity:1;stop-color:#94afc6"
         offset="0.923401"
         id="stop3343" /><stop
         style="stop-opacity:1;stop-color:#7397b6"
         offset="0.998306"
         id="stop3345" /><stop
         style="stop-opacity:1;stop-color:#7397b6"
         offset="1"
         id="stop3347" /></radialGradient><clipPath
       clipPathUnits="userSpaceOnUse"
       id="clipPath3385"><path
         d="M 0,792 612,792 612,0 0,0 0,792 z"
         id="path3387"
         inkscape:connector-curvature="0" /></clipPath><clipPath
       clipPathUnits="userSpaceOnUse"
       id="clipPath3405"><path
         d="m 265.746,396.022 c 0,-10.374 4.239,-19.647 10.837,-26.655 l 0,0 c 3.428,28.317 27.325,50.338 56.53,50.338 l 0,0 c 0.785,0 1.518,-0.164 2.299,-0.192 l 0,0 c -7.152,9.299 -17.931,15.63 -30.55,15.63 l 0,0 c -21.594,0 -39.116,-17.524 -39.116,-39.121"
         id="path3407"
         inkscape:connector-curvature="0" /></clipPath><clipPath
       clipPathUnits="userSpaceOnUse"
       id="clipPath3413"><path
         d="m 233.597,465.462 133.962,0 0,-126.417 -133.962,0 0,126.417 z"
         id="path3415"
         inkscape:connector-curvature="0" /></clipPath><clipPath
       clipPathUnits="userSpaceOnUse"
       id="clipPath3417"><path
         d="m 233.597,465.462 133.962,0 0,-126.417 -133.962,0 0,126.417 z"
         id="path3419"
         inkscape:connector-curvature="0" /></clipPath><linearGradient
       x1="0"
       y1="0"
       x2="1"
       y2="0"
       gradientUnits="userSpaceOnUse"
       gradientTransform="matrix(26.963501,-38.236511,40.522232,25.442474,275.5,437.875)"
       spreadMethod="pad"
       id="linearGradient3425"><stop
         style="stop-opacity:1;stop-color:#ffffff"
         offset="0"
         id="stop3427" /><stop
         style="stop-opacity:1;stop-color:#373535"
         offset="1"
         id="stop3429" /></linearGradient><mask
       maskUnits="userSpaceOnUse"
       x="0"
       y="0"
       width="1"
       height="1"
       id="mask3431"><g
         id="g3433"><g
           clip-path="url(#clipPath3413)"
           id="g3435"><path
             d="m 233.597,465.462 133.962,0 0,-126.417 -133.962,0 0,126.417 z"
             style="fill:#000000;fill-opacity:1;fill-rule:nonzero;stroke:none"
             id="path3437"
             inkscape:connector-curvature="0" /><g
             id="g3439"><g
               id="g3441" /><g
               id="g3443"><g
                 clip-path="url(#clipPath3417)"
                 id="g3445"><g
                   id="g3447"><g
                     id="g3449"><g
                       id="g3451"><g
                         id="g3453"><path
                           d="m 314.036,465.462 53.523,-75.913 -80.43,-50.504 -53.532,75.91 80.439,50.507 z"
                           style="fill:url(#linearGradient3425);stroke:none"
                           id="path3455"
                           inkscape:connector-curvature="0" /></g></g></g></g></g></g></g></g></g></mask><clipPath
       clipPathUnits="userSpaceOnUse"
       id="clipPath3461"><path
         d="m 233.597,465.462 133.962,0 0,-126.417 -133.962,0 0,126.417 z"
         id="path3463"
         inkscape:connector-curvature="0" /></clipPath><linearGradient
       x1="0"
       y1="0"
       x2="1"
       y2="0"
       gradientUnits="userSpaceOnUse"
       gradientTransform="matrix(26.963501,-38.236511,40.522232,25.442474,275.46875,437.875)"
       spreadMethod="pad"
       id="linearGradient3469"><stop
         style="stop-opacity:1;stop-color:#ffffff"
         offset="0"
         id="stop3471" /><stop
         style="stop-opacity:1;stop-color:#ffffff"
         offset="1"
         id="stop3473" /></linearGradient><clipPath
       clipPathUnits="userSpaceOnUse"
       id="clipPath3493"><path
         d="M 0,792 612,792 612,0 0,0 0,792 z"
         id="path3495"
         inkscape:connector-curvature="0" /></clipPath><clipPath
       clipPathUnits="userSpaceOnUse"
       id="clipPath3501"><path
         d="m 295.295,416.314 23.369,0 0,-44.207 -23.369,0 0,44.207 z"
         id="path3503"
         inkscape:connector-curvature="0" /></clipPath><clipPath
       clipPathUnits="userSpaceOnUse"
       id="clipPath3505"><path
         d="m 295.295,372.107 23.369,0 0,44.207 -23.369,0 0,-44.207 z"
         id="path3507"
         inkscape:connector-curvature="0" /></clipPath><radialGradient
       inkscape:collect="always"
       xlink:href="#radialGradient3327"
       id="radialGradient3347"
       gradientUnits="userSpaceOnUse"
       gradientTransform="matrix(148.821,0,0,149.55936,305.63867,395.99316)"
       spreadMethod="pad"
       cx="0"
       cy="0"
       fx="0"
       fy="0"
       r="1" /></defs><sodipodi:namedview
     pagecolor="#ffffff"
     bordercolor="#666666"
     borderopacity="1"
     objecttolerance="10"
     gridtolerance="10"
     guidetolerance="10"
     inkscape:pageopacity="0"
     inkscape:pageshadow="2"
     inkscape:window-width="1440"
     inkscape:window-height="821"
     id="namedview3051"
     showgrid="false"
     fit-margin-top="0"
     fit-margin-left="0"
     fit-margin-right="0"
     fit-margin-bottom="0"
     inkscape:zoom="1.195472"
     inkscape:cx="284.3416"
     inkscape:cy="194.59924"
     inkscape:window-x="0"
     inkscape:window-y="0"
     inkscape:window-maximized="1"
     inkscape:current-layer="g3057" /><g
     id="g3057"
     inkscape:groupmode="layer"
     inkscape:label="thermostat"
     transform="matrix(1.25,0,0,-1.25,-190.08662,686.62356)"><g
   id="g3067"
   transform="translate(457.0244,395.6953)"><path
     d="m 0,0 c 0.01,-83.539 -67.742,-151.266 -151.321,-151.281 -83.588,-0.01 -151.359,67.705 -151.368,151.244 l 0,0.037 c -0.012,83.536 67.742,151.265 151.332,151.278 C -67.779,151.286 -0.008,83.573 0,0.035 L 0,0 z"
     style="fill:#292929;fill-opacity:1;fill-rule:nonzero;stroke:none"
     id="path3069"
     inkscape:connector-curvature="0" /></g><g
   id="g3071"
   transform="translate(456.665,395.9941)"><path
     d="m 0,0 c 0.012,-83.361 -67.602,-150.951 -151.003,-150.963 -83.412,-0.012 -151.043,67.561 -151.053,150.926 l 0,0.037 c -0.011,83.366 67.602,150.952 151.018,150.963 C -67.637,150.973 -0.008,83.402 0,0.039 L 0,0 z"
     style="fill:#292929;fill-opacity:1;fill-rule:nonzero;stroke:none"
     id="path3073"
     inkscape:connector-curvature="0" /></g><g
   id="g3075"
   transform="translate(160.7505,437.0254)"
   style="fill:#000000"><path
     d="m 0,0 -0.999,-3.656 40.577,-11.01 0.996,3.654 L 0,0 z"
     style="fill:#000000;fill-opacity:1;fill-rule:nonzero;stroke:none"
     id="path3077"
     inkscape:connector-curvature="0" /></g><g
   id="g3079"
   transform="translate(185.7583,443.7637)"
   style="fill:#000000"><path
     d="M 0,0 -1.232,-3.561 18.132,-10.25 19.365,-6.691 0,0 z"
     style="fill:#000000;fill-opacity:1;fill-rule:nonzero;stroke:none"
     id="path3081"
     inkscape:connector-curvature="0" /></g><g
   id="g3083"
   transform="translate(191.501,456.1968)"
   style="fill:#000000"><path
     d="m 0,0 -1.66,-3.416 18.367,-8.97 1.661,3.418 L 0,0 z"
     style="fill:#000000;fill-opacity:1;fill-rule:nonzero;stroke:none"
     id="path3085"
     inkscape:connector-curvature="0" /></g><g
   id="g3087"
   transform="translate(198.3364,467.7788)"
   style="fill:#000000"><path
     d="m 0,0 -1.995,-3.229 17.512,-10.917 1.995,3.229 L 0,0 z"
     style="fill:#000000;fill-opacity:1;fill-rule:nonzero;stroke:none"
     id="path3089"
     inkscape:connector-curvature="0" /></g><g
   id="g3091"
   transform="translate(206.4517,478.5986)"
   style="fill:#000000"><path
     d="m 0,0 -2.325,-2.942 16.134,-12.767 2.373,2.99 L 0,0 z"
     style="fill:#000000;fill-opacity:1;fill-rule:nonzero;stroke:none"
     id="path3093"
     inkscape:connector-curvature="0" /></g><g
   id="g3095"
   transform="translate(200.4258,503.7031)"
   style="fill:#000000"><path
     d="M 0,0 -2.659,-2.704 27.43,-32.129 30.087,-29.424 0,0 z"
     style="fill:#000000;fill-opacity:1;fill-rule:nonzero;stroke:none"
     id="path3097"
     inkscape:connector-curvature="0" /></g><g
   id="g3099"
   transform="translate(226.0518,497.5811)"
   style="fill:#000000"><path
     d="m 0,0 -2.941,-2.419 13.097,-15.708 2.94,2.419 L 0,0 z"
     style="fill:#000000;fill-opacity:1;fill-rule:nonzero;stroke:none"
     id="path3101"
     inkscape:connector-curvature="0" /></g><g
   id="g3103"
   transform="translate(236.9668,505.4121)"
   style="fill:#000000"><path
     d="M 0,0 -3.133,-2.135 8.4,-19.079 11.53,-16.942 0,0 z"
     style="fill:#000000;fill-opacity:1;fill-rule:nonzero;stroke:none"
     id="path3105"
     inkscape:connector-curvature="0" /></g><g
   id="g3107"
   transform="translate(248.7852,512.1509)"
   style="fill:#000000"><path
     d="M 0,0 -3.371,-1.755 6.075,-20.123 9.444,-18.365 0,0 z"
     style="fill:#000000;fill-opacity:1;fill-rule:nonzero;stroke:none"
     id="path3109"
     inkscape:connector-curvature="0" /></g><g
   id="g3111"
   transform="translate(261.4082,517.3257)"
   style="fill:#000000"><path
     d="M 0,0 -3.56,-1.377 4.129,-20.551 7.641,-19.128 0,0 z"
     style="fill:#000000;fill-opacity:1;fill-rule:nonzero;stroke:none"
     id="path3113"
     inkscape:connector-curvature="0" /></g><g
   id="g3115"
   transform="translate(268.6211,542.0972)"
   style="fill:#000000"><path
     d="M 0,0 -3.654,-0.949 7.217,-41.763 10.916,-40.767 0,0 z"
     style="fill:#000000;fill-opacity:1;fill-rule:nonzero;stroke:none"
     id="path3117"
     inkscape:connector-curvature="0" /></g><g
   id="g3119"
   transform="translate(287.5596,524.3486)"
   style="fill:#000000"><path
     d="m 0,0 -3.75,-0.521 2.895,-20.693 3.797,0.521 L 0,0 z"
     style="fill:#000000;fill-opacity:1;fill-rule:nonzero;stroke:none"
     id="path3121"
     inkscape:connector-curvature="0" /></g><g
   id="g3123"
   transform="translate(301.1797,525.1079)"
   style="fill:#000000"><path
     d="M 0,0 -3.797,-0.094 -3.182,-20.55 0.617,-20.454 0,0 z"
     style="fill:#000000;fill-opacity:1;fill-rule:nonzero;stroke:none"
     id="path3125"
     inkscape:connector-curvature="0" /></g><g
   id="g3127"
   transform="translate(310.9072,525.3931)"
   style="fill:#000000"><path
     d="M 0,0 -1.232,-20.787 2.56,-21.024 3.794,-0.189 0,0 z"
     style="fill:#000000;fill-opacity:1;fill-rule:nonzero;stroke:none"
     id="path3129"
     inkscape:connector-curvature="0" /></g><g
   id="g3131"
   transform="translate(324.2822,524.0166)"
   style="fill:#000000"><path
     d="M 0,0 -3.229,-20.313 0.521,-20.93 3.745,-0.617 0,0 z"
     style="fill:#000000;fill-opacity:1;fill-rule:nonzero;stroke:none"
     id="path3133"
     inkscape:connector-curvature="0" /></g><g
   id="g3135"
   transform="translate(343.0752,542.145)"
   style="fill:#000000"><path
     d="M 0,0 -10.728,-40.719 -7.074,-41.715 3.7,-0.997 0,0 z"
     style="fill:#000000;fill-opacity:1;fill-rule:nonzero;stroke:none"
     id="path3137"
     inkscape:connector-curvature="0" /></g><g
   id="g3139"
   transform="translate(350.6191,517.2773)"
   style="fill:#000000"><path
     d="m 0,0 -7.495,-19.08 3.508,-1.376 7.5,19.079 L 0,0 z"
     style="fill:#000000;fill-opacity:1;fill-rule:nonzero;stroke:none"
     id="path3141"
     inkscape:connector-curvature="0" /></g><g
   id="g3143"
   transform="translate(362.9111,512.0093)"
   style="fill:#000000"><path
     d="m 0,0 -9.254,-18.271 3.368,-1.71 L 3.369,-1.707 0,0 z"
     style="fill:#000000;fill-opacity:1;fill-rule:nonzero;stroke:none"
     id="path3145"
     inkscape:connector-curvature="0" /></g><g
   id="g3147"
   transform="translate(374.6807,505.3184)"
   style="fill:#000000"><path
     d="M 0,0 -11.248,-17.181 -8.066,-19.27 3.18,-2.089 0,0 z"
     style="fill:#000000;fill-opacity:1;fill-rule:nonzero;stroke:none"
     id="path3149"
     inkscape:connector-curvature="0" /></g><g
   id="g3151"
   transform="translate(385.7861,497.6777)"
   style="fill:#000000"><path
     d="m 0,0 -13.049,-15.948 2.94,-2.373 L 2.942,-2.375 0,0 z"
     style="fill:#000000;fill-opacity:1;fill-rule:nonzero;stroke:none"
     id="path3153"
     inkscape:connector-curvature="0" /></g><g
   id="g3155"
   transform="translate(411.2236,503.7515)"
   style="fill:#000000"><path
     d="m 0,0 -29.848,-29.567 2.702,-2.705 L 2.707,-2.707 0,0 z"
     style="fill:#000000;fill-opacity:1;fill-rule:nonzero;stroke:none"
     id="path3157"
     inkscape:connector-curvature="0" /></g><g
   id="g3159"
   transform="translate(405.2451,478.8833)"
   style="fill:#000000"><path
     d="m 0,0 -15.947,-13.146 2.422,-2.896 15.947,13.1 L 0,0 z"
     style="fill:#000000;fill-opacity:1;fill-rule:nonzero;stroke:none"
     id="path3161"
     inkscape:connector-curvature="0" /></g><g
   id="g3163"
   transform="translate(413.3604,467.9673)"
   style="fill:#000000"><path
     d="m 0,0 -17.369,-11.153 2.041,-3.181 L 2.043,-3.18 0,0 z"
     style="fill:#000000;fill-opacity:1;fill-rule:nonzero;stroke:none"
     id="path3165"
     inkscape:connector-curvature="0" /></g><g
   id="g3167"
   transform="translate(420.1963,456.2905)"
   style="fill:#000000"><path
     d="m 0,0 -18.367,-9.298 1.705,-3.369 18.369,9.25 L 0,0 z"
     style="fill:#000000;fill-opacity:1;fill-rule:nonzero;stroke:none"
     id="path3169"
     inkscape:connector-curvature="0" /></g><g
   id="g3171"
   transform="translate(425.7939,444)"
   style="fill:#000000"><path
     d="M 0,0 -19.029,-7.307 -17.654,-10.82 1.379,-3.559 0,0 z"
     style="fill:#000000;fill-opacity:1;fill-rule:nonzero;stroke:none"
     id="path3173"
     inkscape:connector-curvature="0" /></g><g
   id="g3175"
   transform="translate(450.9971,436.7891)"
   style="fill:#000000"><path
     d="M 0,0 -40.58,-10.775 -39.582,-14.43 0.949,-3.705 0,0 z"
     style="fill:#000000;fill-opacity:1;fill-rule:nonzero;stroke:none"
     id="path3177"
     inkscape:connector-curvature="0" /></g><g
   id="g3179"
   transform="translate(433.2451,418.0898)"
   style="fill:#000000"><path
     d="m 0,0 -20.264,-3.229 0.619,-3.75 L 0.571,-3.752 0,0 z"
     style="fill:#000000;fill-opacity:1;fill-rule:nonzero;stroke:none"
     id="path3181"
     inkscape:connector-curvature="0" /></g><g
   id="g3183"
   transform="translate(434.7646,404.6113)"
   style="fill:#000000"><path
     d="M 0,0 -20.406,-1.047 -20.217,-4.842 0.191,-3.799 0,0 z"
     style="fill:#000000;fill-opacity:1;fill-rule:nonzero;stroke:none"
     id="path3185"
     inkscape:connector-curvature="0" /></g><g
   id="g3187"
   transform="translate(414.4521,392.2715)"
   style="fill:#000000"><path
     d="M 0,0 -0.188,-3.799 20.406,-4.889 20.598,-1.09 0,0 z"
     style="fill:#000000;fill-opacity:1;fill-rule:nonzero;stroke:none"
     id="path3189"
     inkscape:connector-curvature="0" /></g><g
   id="g3191"
   transform="translate(413.5029,380.877)"
   style="fill:#000000"><path
     d="m 0,0 -0.521,-3.791 20.263,-2.945 0.524,3.75 L 0,0 z"
     style="fill:#000000;fill-opacity:1;fill-rule:nonzero;stroke:none"
     id="path3193"
     inkscape:connector-curvature="0" /></g><g
   id="g3195"
   transform="translate(411.415,369.6777)"
   style="fill:#000000"><path
     d="m 0,0 -0.998,-3.703 40.531,-10.912 0.998,3.654 L 0,0 z"
     style="fill:#000000;fill-opacity:1;fill-rule:nonzero;stroke:none"
     id="path3197"
     inkscape:connector-curvature="0" /></g><g
   id="g3199"
   transform="translate(407.8057,358.6699)"
   style="fill:#000000"><path
     d="M 0,0 -1.279,-3.557 18.037,-10.631 19.316,-7.07 0,0 z"
     style="fill:#000000;fill-opacity:1;fill-rule:nonzero;stroke:none"
     id="path3201"
     inkscape:connector-curvature="0" /></g><g
   id="g3203"
   transform="translate(403.6807,348.4199)"
   style="fill:#000000"><path
     d="m 0,0 -1.76,-3.369 18.227,-9.444 1.756,3.366 L 0,0 z"
     style="fill:#000000;fill-opacity:1;fill-rule:nonzero;stroke:none"
     id="path3205"
     inkscape:connector-curvature="0" /></g><g
   id="g3207"
   transform="translate(397.9834,338.1699)"
   style="fill:#000000"><path
     d="m 0,0 -2.088,-3.182 17.229,-11.152 2.041,3.178 L 0,0 z"
     style="fill:#000000;fill-opacity:1;fill-rule:nonzero;stroke:none"
     id="path3209"
     inkscape:connector-curvature="0" /></g><g
   id="g3211"
   transform="translate(391.6709,329.1973)"
   style="fill:#000000"><path
     d="m 0,0 -2.422,-2.939 15.854,-12.959 2.42,2.941 L 0,0 z"
     style="fill:#000000;fill-opacity:1;fill-rule:nonzero;stroke:none"
     id="path3213"
     inkscape:connector-curvature="0" /></g><g
   id="g3215"
   transform="translate(383.9844,320.416)"
   style="fill:#000000"><path
     d="M 0,0 -2.707,-2.656 27.05,-32.365 29.755,-29.662 0,0 z"
     style="fill:#000000;fill-opacity:1;fill-rule:nonzero;stroke:none"
     id="path3217"
     inkscape:connector-curvature="0" /></g><g
   id="g3219"
   transform="translate(375.7734,312.6836)"
   style="fill:#000000"><path
     d="m 0,0 -2.991,-2.375 13.004,-15.992 2.942,2.373 L 0,0 z"
     style="fill:#000000;fill-opacity:1;fill-rule:nonzero;stroke:none"
     id="path3221"
     inkscape:connector-curvature="0" /></g><g
   id="g3223"
   transform="translate(366.4736,305.8008)"
   style="fill:#000000"><path
     d="m 0,0 -3.183,-2.041 11.297,-17.18 3.18,2.088 L 0,0 z"
     style="fill:#000000;fill-opacity:1;fill-rule:nonzero;stroke:none"
     id="path3225"
     inkscape:connector-curvature="0" /></g><g
   id="g3227"
   transform="translate(356.9336,299.9609)"
   style="fill:#000000"><path
     d="M 0,0 -3.37,-1.705 5.978,-19.838 9.347,-18.125 0,0 z"
     style="fill:#000000;fill-opacity:1;fill-rule:nonzero;stroke:none"
     id="path3229"
     inkscape:connector-curvature="0" /></g><g
   id="g3231"
   transform="translate(346.54,295.1211)"
   style="fill:#000000"><path
     d="M 0,0 -3.563,-1.377 3.889,-20.404 7.449,-18.98 0,0 z"
     style="fill:#000000;fill-opacity:1;fill-rule:nonzero;stroke:none"
     id="path3233"
     inkscape:connector-curvature="0" /></g><g
   id="g3235"
   transform="translate(335.7168,291.4219)"
   style="fill:#000000"><path
     d="M 0,0 -3.655,-0.949 7.07,-41.527 10.729,-40.533 0,0 z"
     style="fill:#000000;fill-opacity:1;fill-rule:nonzero;stroke:none"
     id="path3237"
     inkscape:connector-curvature="0" /></g><g
   id="g3239"
   transform="translate(324.8516,289)"
   style="fill:#000000"><path
     d="M 0,0 -3.751,-0.617 -0.62,-20.881 3.131,-20.264 0,0 z"
     style="fill:#000000;fill-opacity:1;fill-rule:nonzero;stroke:none"
     id="path3241"
     inkscape:connector-curvature="0" /></g><g
   id="g3243"
   transform="translate(313.2803,287.5762)"
   style="fill:#000000"><path
     d="M 0,0 -3.796,-0.236 -2.515,-20.74 1.278,-20.5 0,0 z"
     style="fill:#000000;fill-opacity:1;fill-rule:nonzero;stroke:none"
     id="path3245"
     inkscape:connector-curvature="0" /></g><g
   id="g3247"
   transform="translate(298.2822,287.5762)"
   style="fill:#000000"><path
     d="M 0,0 -0.946,-20.5 2.852,-20.689 3.798,-0.188 0,0 z"
     style="fill:#000000;fill-opacity:1;fill-rule:nonzero;stroke:none"
     id="path3249"
     inkscape:connector-curvature="0" /></g><g
   id="g3251"
   transform="translate(287.0391,288.8574)"
   style="fill:#000000"><path
     d="M 0,0 -3.088,-20.17 0.661,-20.738 3.746,-0.57 0,0 z"
     style="fill:#000000;fill-opacity:1;fill-rule:nonzero;stroke:none"
     id="path3253"
     inkscape:connector-curvature="0" /></g><g
   id="g3255"
   transform="translate(275.7891,291.4668)"
   style="fill:#000000"><path
     d="M 0,0 -10.441,-40.578 -6.785,-41.523 3.654,-0.945 0,0 z"
     style="fill:#000000;fill-opacity:1;fill-rule:nonzero;stroke:none"
     id="path3257"
     inkscape:connector-curvature="0" /></g><g
   id="g3259"
   transform="translate(264.9209,295.2656)"
   style="fill:#000000"><path
     d="M 0,0 -7.403,-19.08 -3.844,-20.455 3.511,-1.377 0,0 z"
     style="fill:#000000;fill-opacity:1;fill-rule:nonzero;stroke:none"
     id="path3261"
     inkscape:connector-curvature="0" /></g><g
   id="g3263"
   transform="translate(254.8125,299.9609)"
   style="fill:#000000"><path
     d="M 0,0 -9.398,-18.125 -6.027,-19.881 3.371,-1.754 0,0 z"
     style="fill:#000000;fill-opacity:1;fill-rule:nonzero;stroke:none"
     id="path3265"
     inkscape:connector-curvature="0" /></g><g
   id="g3267"
   transform="translate(244.9863,305.8984)"
   style="fill:#000000"><path
     d="M 0,0 -10.914,-17.324 -7.688,-19.318 3.23,-2.045 0,0 z"
     style="fill:#000000;fill-opacity:1;fill-rule:nonzero;stroke:none"
     id="path3269"
     inkscape:connector-curvature="0" /></g><g
   id="g3271"
   transform="translate(236.0166,312.8262)"
   style="fill:#000000"><path
     d="m 0,0 -12.906,-16 2.941,-2.371 12.91,16 L 0,0 z"
     style="fill:#000000;fill-opacity:1;fill-rule:nonzero;stroke:none"
     id="path3273"
     inkscape:connector-curvature="0" /></g><g
   id="g3275"
   transform="translate(227.5234,320.5586)"
   style="fill:#000000"><path
     d="m 0,0 -29.616,-29.656 2.659,-2.66 L 2.704,-2.703 0,0 z"
     style="fill:#000000;fill-opacity:1;fill-rule:nonzero;stroke:none"
     id="path3277"
     inkscape:connector-curvature="0" /></g><g
   id="g3279"
   transform="translate(220.3594,328.8652)"
   style="fill:#000000"><path
     d="M 0,0 -15.854,-12.906 -13.48,-15.848 2.371,-2.943 0,0 z"
     style="fill:#000000;fill-opacity:1;fill-rule:nonzero;stroke:none"
     id="path3281"
     inkscape:connector-curvature="0" /></g><g
   id="g3283"
   transform="translate(213.7124,338.3555)"
   style="fill:#000000"><path
     d="m 0,0 -17.228,-11.057 2.042,-3.177 L 2.041,-3.18 0,0 z"
     style="fill:#000000;fill-opacity:1;fill-rule:nonzero;stroke:none"
     id="path3285"
     inkscape:connector-curvature="0" /></g><g
   id="g3287"
   transform="translate(208.208,348.0879)"
   style="fill:#000000"><path
     d="m 0,0 -18.176,-9.205 1.708,-3.371 L 1.709,-3.373 0,0 z"
     style="fill:#000000;fill-opacity:1;fill-rule:nonzero;stroke:none"
     id="path3289"
     inkscape:connector-curvature="0" /></g><g
   id="g3291"
   transform="translate(203.604,358.8105)"
   style="fill:#000000"><path
     d="m 0,0 -18.984,-7.307 1.375,-3.56 18.984,7.31 L 0,0 z"
     style="fill:#000000;fill-opacity:1;fill-rule:nonzero;stroke:none"
     id="path3293"
     inkscape:connector-curvature="0" /></g><g
   id="g3295"
   transform="translate(200.4258,369.3965)"
   style="fill:#000000"><path
     d="m 0,0 -40.627,-10.49 0.952,-3.653 L 0.946,-3.654 0,0 z"
     style="fill:#000000;fill-opacity:1;fill-rule:nonzero;stroke:none"
     id="path3297"
     inkscape:connector-curvature="0" /></g><g
   id="g3299"
   transform="translate(198.3364,380.5957)"
   style="fill:#000000"><path
     d="M 0,0 -20.312,-2.99 -19.743,-6.74 0.521,-3.75 0,0 z"
     style="fill:#000000;fill-opacity:1;fill-rule:nonzero;stroke:none"
     id="path3301"
     inkscape:connector-curvature="0" /></g><g
   id="g3303"
   transform="translate(197.291,391.9863)"
   style="fill:#000000"><path
     d="M 0,0 -20.501,-0.805 -20.36,-4.604 0.145,-3.797 0,0 z"
     style="fill:#000000;fill-opacity:1;fill-rule:nonzero;stroke:none"
     id="path3305"
     inkscape:connector-curvature="0" /></g><g
   id="g3307"
   transform="translate(176.9312,404.6113)"
   style="fill:#000000"><path
     d="M 0,0 -0.142,-3.799 20.312,-4.697 20.504,-0.9 0,0 z"
     style="fill:#000000;fill-opacity:1;fill-rule:nonzero;stroke:none"
     id="path3309"
     inkscape:connector-curvature="0" /></g><g
   id="g3311"
   transform="translate(178.5938,418.0898)"
   style="fill:#000000"><path
     d="m 0,0 -0.569,-3.799 20.215,-2.99 0.572,3.75 L 0,0 z"
     style="fill:#000000;fill-opacity:1;fill-rule:nonzero;stroke:none"
     id="path3313"
     inkscape:connector-curvature="0" /></g><g
   id="g3315"><g
     id="g3317" /><g
     id="g3349"><g
       clip-path="url(#clipPath3319)"
       id="g3351"
       style="opacity:0.41639703"><g
         id="g3353"><g
           id="g3355"><g
             id="g3357"><g
               id="g3359"><path
                 d="M 454.448,395.994 C 454.456,313.396 387.841,246.434 305.662,246.422 223.475,246.414 156.84,313.359 156.831,395.957 l 0,0.037 c -0.011,82.595 66.607,149.562 148.796,149.571 82.177,0.011 148.81,-66.938 148.821,-149.532 l 0,-0.039 z"
                 style="fill:url(#radialGradient3347);stroke:none"
                 id="path3361"
                 inkscape:connector-curvature="0" /></g></g></g></g></g></g></g><g
   id="g3363"
   transform="translate(457.2744,396.0078)"><path
     d="m 0,0 c 0.011,-83.727 -67.873,-151.609 -151.612,-151.619 -83.75,-0.014 -151.653,67.853 -151.661,151.582 l 0,0.037 c -0.01,83.726 67.874,151.609 151.626,151.619 C -67.912,151.629 -0.012,83.763 0,0.037 L 0,0 z"
     style="fill:none;stroke:#ffffff;stroke-width:3.29399991;stroke-linecap:butt;stroke-linejoin:miter;stroke-miterlimit:4;stroke-opacity:1;stroke-dasharray:none"
     id="path3365"
     inkscape:connector-curvature="0" /></g><g
   transform="matrix(1,0,0,-1,309.6387,456.9653)"
   style=""
   id="text3367"><path
     d="m 4.8313465,-7.4714266 4.4089337,0 0,-3.3793024 2.9568898,0 0,3.3793024 2.217667,0 0,2.8248857 -2.217667,0 0,4.6465409 -2.9568898,0 0,-4.6465409 -7.9202402,0 0,-2.7456833 6.7850058,-11.0619358 3.4057032,0 -6.6794025,10.9827334"
     style="font-size:26.4008007px;font-variant:normal;font-weight:normal;font-stretch:normal;writing-mode:lr-tb;fill:#ffffff;fill-opacity:1;fill-rule:nonzero;stroke:none;font-family:Montserrat;-inkscape-font-specification:Montserrat-Regular"
     id="path3211" /><path
     d="m 29.463293,-18.48056 0,2.824885 -7.788236,0 0,4.540938 c 0.774417,-0.422401 1.654443,-0.633608 2.64008,-0.633619 1.724843,1.1e-5 3.212086,0.519227 4.461735,1.557647 1.249625,1.0384406 1.874443,2.4552821 1.874457,4.2505288 -1.4e-5,1.7600576 -0.651233,3.2297007 -1.953659,4.4089338 -1.302451,1.16163556 -2.904098,1.74245259 -4.804946,1.74245281 -2.48168,-2.2e-7 -4.461738,-0.82722448 -5.94018,-2.48167531 l 1.663251,-2.2704688 c 0.1408,0.1408086 0.325606,0.3080136 0.554416,0.5016152 0.246404,0.1936097 0.739218,0.4576175 1.478445,0.792024 0.739217,0.3168126 1.460838,0.4752172 2.164866,0.4752144 1.056023,2.8e-6 1.944849,-0.2640049 2.666481,-0.792024 0.721611,-0.5280119 1.082421,-1.2936344 1.082433,-2.2968697 -1.2e-5,-1.020824 -0.387223,-1.804047 -1.161636,-2.3496712 -0.756832,-0.5632083 -1.69846,-0.8448166 -2.824885,-0.8448256 -1.214443,9e-6 -2.349676,0.2904175 -3.405704,0.8712264 l -1.32004,-1.4256433 0,-8.8706685 10.613122,0"
     style="font-size:26.4008007px;font-variant:normal;font-weight:normal;font-stretch:normal;writing-mode:lr-tb;fill:#ffffff;fill-opacity:1;fill-rule:nonzero;stroke:none;font-family:Montserrat;-inkscape-font-specification:Montserrat-Regular"
     id="path3214" /><path
     d="m 63.441122,33.845825 0,2.824886 -7.788236,0 0,4.540937 c 0.774417,-0.422401 1.654443,-0.633607 2.64008,-0.633619 1.724843,1.2e-5 3.212086,0.519227 4.461735,1.557647 1.249625,1.038441 1.874443,2.455283 1.874457,4.250529 -1.4e-5,1.760058 -0.651233,3.229701 -1.953659,4.408934 -1.302451,1.161636 -2.904098,1.742453 -4.804946,1.742453 -2.48168,0 -4.461738,-0.827225 -5.94018,-2.481675 l 1.663251,-2.270469 c 0.1408,0.140808 0.325606,0.308013 0.554416,0.501615 0.246404,0.19361 0.739218,0.457617 1.478445,0.792024 0.739217,0.316813 1.460838,0.475217 2.164866,0.475214 1.056023,3e-6 1.944849,-0.264005 2.666481,-0.792024 0.721611,-0.528012 1.082421,-1.293634 1.082433,-2.296869 -1.2e-5,-1.020824 -0.387223,-1.804047 -1.161636,-2.349672 -0.756832,-0.563208 -1.69846,-0.844816 -2.824885,-0.844825 -1.214443,9e-6 -2.349677,0.290417 -3.405704,0.871226 l -1.32004,-1.425643 0,-8.870669 10.613122,0"
     style="font-size:26.4008007px;font-variant:normal;font-weight:normal;font-stretch:normal;writing-mode:lr-tb;fill:#ffffff;fill-opacity:1;fill-rule:nonzero;stroke:none;font-family:Montserrat;-inkscape-font-specification:Montserrat-Regular"
     id="path3216" /><path
     d="m 79.677614,33.845825 0,2.824886 -7.788236,0 0,4.540937 c 0.774418,-0.422401 1.654443,-0.633607 2.64008,-0.633619 1.724843,1.2e-5 3.212086,0.519227 4.461736,1.557647 1.249624,1.038441 1.874442,2.455283 1.874456,4.250529 -1.4e-5,1.760058 -0.651233,3.229701 -1.953659,4.408934 -1.30245,1.161636 -2.904097,1.742453 -4.804946,1.742453 -2.48168,0 -4.461738,-0.827225 -5.94018,-2.481675 l 1.663251,-2.270469 c 0.140801,0.140808 0.325606,0.308013 0.554417,0.501615 0.246403,0.19361 0.739217,0.457617 1.478444,0.792024 0.739217,0.316813 1.460838,0.475217 2.164866,0.475214 1.056023,3e-6 1.94485,-0.264005 2.666481,-0.792024 0.721611,-0.528012 1.082421,-1.293634 1.082433,-2.296869 -1.2e-5,-1.020824 -0.387223,-1.804047 -1.161635,-2.349672 -0.756833,-0.563208 -1.69846,-0.844816 -2.824886,-0.844825 -1.214443,9e-6 -2.349676,0.290417 -3.405703,0.871226 l -1.32004,-1.425643 0,-8.870669 10.613121,0"
     style="font-size:26.4008007px;font-variant:normal;font-weight:normal;font-stretch:normal;writing-mode:lr-tb;fill:#ffffff;fill-opacity:1;fill-rule:nonzero;stroke:none;font-family:Montserrat;-inkscape-font-specification:Montserrat-Regular"
     id="path3218" /><path
     d="m 42.848498,109.66893 -1.557647,2.29687 c -0.123216,-0.10559 -0.290421,-0.22879 -0.501615,-0.36961 -0.211218,-0.15839 -0.624831,-0.3608 -1.240838,-0.60722 -0.598428,-0.26399 -1.161645,-0.396 -1.689651,-0.39601 -1.636857,10e-6 -2.842493,0.55443 -3.61691,1.66325 -0.774428,1.10884 -1.17044,2.60489 -1.188036,4.48813 0.440009,-0.4928 1.073627,-0.95041 1.900858,-1.37284 0.827218,-0.44 1.742445,-0.66001 2.745683,-0.66002 1.65444,1e-5 3.03608,0.55443 4.144926,1.66325 1.12642,1.09125 1.689636,2.53449 1.689651,4.32973 -1.5e-5,1.84806 -0.607232,3.32651 -1.821655,4.43534 -1.196848,1.10883 -2.710493,1.66325 -4.540938,1.66325 -1.038439,0 -1.962466,-0.16721 -2.772084,-0.50162 -0.809629,-0.33441 -1.487249,-0.79202 -2.032862,-1.37284 -0.528019,-0.58081 -0.968032,-1.27603 -1.32004,-2.08566 -0.334412,-0.80962 -0.580819,-1.65445 -0.739222,-2.53448 -0.140806,-0.89762 -0.211208,-1.86565 -0.211207,-2.90409 -10e-7,-1.68964 0.202405,-3.16808 0.607219,-4.43533 0.40481,-1.26722 0.959226,-2.27045 1.66325,-3.00969 0.704017,-0.73921 1.48724,-1.28482 2.349672,-1.63685 0.88002,-0.35199 1.821647,-0.528 2.824885,-0.52802 1.918448,2e-5 3.6873,0.62484 5.306561,1.87446 m -9.293082,11.03553 c -4e-6,0.89764 0.343206,1.68966 1.029632,2.37608 0.686414,0.66882 1.522438,1.00323 2.508076,1.00323 1.091223,0 1.980049,-0.29921 2.666481,-0.89763 0.686409,-0.61602 1.029619,-1.39044 1.029631,-2.32327 -1.2e-5,-0.95042 -0.316822,-1.75125 -0.950429,-2.40247 -0.63363,-0.66882 -1.496055,-1.00323 -2.587279,-1.00323 -1.038438,0 -1.918464,0.29921 -2.64008,0.89762 -0.704026,0.58083 -1.056036,1.36405 -1.056032,2.34967"
     style="font-size:26.4008007px;font-variant:normal;font-weight:normal;font-stretch:normal;writing-mode:lr-tb;fill:#ffffff;fill-opacity:1;fill-rule:nonzero;stroke:none;font-family:Montserrat;-inkscape-font-specification:Montserrat-Regular"
     id="path3220" /><path
     d="m 58.266566,108.11128 0,2.82489 -7.788237,0 0,4.54094 c 0.774418,-0.42241 1.654443,-0.63361 2.64008,-0.63362 1.724843,1e-5 3.212087,0.51922 4.461736,1.55764 1.249624,1.03844 1.874442,2.45529 1.874457,4.25053 -1.5e-5,1.76006 -0.651234,3.2297 -1.95366,4.40894 -1.30245,1.16163 -2.904097,1.74245 -4.804945,1.74245 -2.481681,0 -4.461739,-0.82723 -5.940181,-2.48168 l 1.663251,-2.27047 c 0.140801,0.14081 0.325606,0.30802 0.554417,0.50162 0.246403,0.19361 0.739217,0.45762 1.478445,0.79202 0.739216,0.31682 1.460837,0.47522 2.164865,0.47522 1.056024,0 1.94485,-0.26401 2.666481,-0.79203 0.721611,-0.52801 1.082422,-1.29363 1.082433,-2.29687 -1.1e-5,-1.02082 -0.387223,-1.80404 -1.161635,-2.34967 -0.756833,-0.5632 -1.69846,-0.84481 -2.824886,-0.84482 -1.214443,10e-6 -2.349676,0.29042 -3.405703,0.87122 l -1.32004,-1.42564 0,-8.87067 10.613122,0"
     style="font-size:26.4008007px;font-variant:normal;font-weight:normal;font-stretch:normal;writing-mode:lr-tb;fill:#ffffff;fill-opacity:1;fill-rule:nonzero;stroke:none;font-family:Montserrat;-inkscape-font-specification:Montserrat-Regular"
     id="path3222" /><path
     d="m -41.713265,141.37628 0,-5.30656 12.989194,0 0,2.77208 -7.814637,15.68208 -3.432105,0 7.629832,-15.62927 -6.547399,0 0,2.48167 -2.824885,0"
     style="font-size:26.4008007px;font-variant:normal;font-weight:normal;font-stretch:normal;writing-mode:lr-tb;fill:#ffffff;fill-opacity:1;fill-rule:nonzero;stroke:none;font-family:Montserrat;-inkscape-font-specification:Montserrat-Regular"
     id="path3224" /><path
     d="m -13.966022,136.04332 0,2.82489 -7.788236,0 0,4.54093 c 0.774417,-0.4224 1.654443,-0.6336 2.64008,-0.63362 1.724842,2e-5 3.212086,0.51923 4.461735,1.55765 1.249624,1.03844 1.874442,2.45528 1.874457,4.25053 -1.5e-5,1.76006 -0.651234,3.2297 -1.953659,4.40893 -1.302451,1.16164 -2.904098,1.74246 -4.804946,1.74246 -2.481681,0 -4.461739,-0.82723 -5.94018,-2.48168 l 1.66325,-2.27047 c 0.140801,0.14081 0.325606,0.30802 0.554417,0.50162 0.246403,0.19361 0.739218,0.45761 1.478445,0.79202 0.739216,0.31681 1.460837,0.47522 2.164865,0.47522 1.056024,0 1.94485,-0.26401 2.666481,-0.79203 0.721611,-0.52801 1.082422,-1.29363 1.082433,-2.29687 -1.1e-5,-1.02082 -0.387223,-1.80404 -1.161635,-2.34967 -0.756832,-0.56321 -1.69846,-0.84482 -2.824886,-0.84482 -1.214443,0 -2.349676,0.29041 -3.405703,0.87122 l -1.32004,-1.42564 0,-8.87067 10.613122,0"
     style="font-size:26.4008007px;font-variant:normal;font-weight:normal;font-stretch:normal;writing-mode:lr-tb;fill:#ffffff;fill-opacity:1;fill-rule:nonzero;stroke:none;font-family:Montserrat;-inkscape-font-specification:Montserrat-Regular"
     id="path3226" /><path
     d="m -94.752467,78.410379 c 1.179231,-0.93281 2.657674,-1.399224 4.435334,-1.399242 1.777644,1.8e-5 3.256088,0.466432 4.435335,1.399242 1.179222,0.932845 1.768839,2.12968 1.768853,3.590509 -1.4e-5,1.372854 -0.660033,2.60489 -1.98006,3.696112 1.77764,1.126443 2.666466,2.71049 2.666481,4.752144 -1.5e-5,1.584052 -0.633633,2.912891 -1.900858,3.986521 -1.26725,1.073633 -2.930499,1.610449 -4.989751,1.610449 -2.059268,0 -3.722517,-0.536816 -4.989751,-1.610449 -1.26724,-1.07363 -1.900859,-2.402469 -1.900858,-3.986521 -10e-7,-2.041654 0.888825,-3.625701 2.666481,-4.752144 -1.320043,-1.091222 -1.980062,-2.323258 -1.98006,-3.696112 -2e-6,-1.460829 0.589615,-2.657664 1.768854,-3.590509 m 1.848056,14.17723 c 0.809618,0.510418 1.672043,0.765626 2.587278,0.765623 0.915219,3e-6 1.777644,-0.255205 2.587279,-0.765623 0.809613,-0.528012 1.214425,-1.258434 1.214436,-2.191266 -1.1e-5,-1.003224 -0.387223,-1.768847 -1.161635,-2.29687 -0.774433,-0.528008 -1.654459,-0.792016 -2.64008,-0.792024 -0.985637,8e-6 -1.865663,0.264016 -2.64008,0.792024 -0.774428,0.528023 -1.161639,1.293646 -1.161635,2.29687 -4e-6,0.932832 0.404807,1.663254 1.214437,2.191266 m 0.237607,-8.395455 c 0.668814,0.528028 1.452037,0.792035 2.349671,0.792024 0.897618,1.1e-5 1.672041,-0.263996 2.323271,-0.792024 0.668809,-0.545604 1.003219,-1.232024 1.00323,-2.059262 -1.1e-5,-0.739208 -0.334421,-1.372827 -1.00323,-1.900858 -0.65123,-0.528 -1.425653,-0.792007 -2.323271,-0.792024 -0.897634,1.7e-5 -1.680857,0.264024 -2.349671,0.792024 -0.651225,0.528031 -0.976835,1.16165 -0.97683,1.900858 -5e-6,0.827238 0.325605,1.513658 0.97683,2.059262"
     style="font-size:26.4008007px;font-variant:normal;font-weight:normal;font-stretch:normal;writing-mode:lr-tb;fill:#ffffff;fill-opacity:1;fill-rule:nonzero;stroke:none;font-family:Montserrat;-inkscape-font-specification:Montserrat-Regular"
     id="path3228" /><path
     d="m -68.906088,77.354347 0,2.824886 -7.788236,0 0,4.540937 c 0.774417,-0.422401 1.654443,-0.633607 2.64008,-0.633619 1.724843,1.2e-5 3.212086,0.519227 4.461736,1.557647 1.249624,1.038441 1.874442,2.455283 1.874456,4.250529 -1.4e-5,1.760058 -0.651233,3.229701 -1.953659,4.408934 -1.302451,1.161636 -2.904097,1.742453 -4.804946,1.742453 -2.48168,0 -4.461738,-0.827225 -5.94018,-2.481675 l 1.663251,-2.270469 c 0.1408,0.140808 0.325606,0.308013 0.554417,0.501615 0.246403,0.19361 0.739217,0.457617 1.478444,0.792024 0.739217,0.316813 1.460838,0.475217 2.164866,0.475214 1.056023,3e-6 1.944849,-0.264005 2.666481,-0.792024 0.721611,-0.528011 1.082421,-1.293634 1.082433,-2.296869 -1.2e-5,-1.020824 -0.387223,-1.804047 -1.161636,-2.349671 -0.756832,-0.563209 -1.69846,-0.844817 -2.824885,-0.844826 -1.214443,9e-6 -2.349676,0.290417 -3.405703,0.871226 l -1.320041,-1.425643 0,-8.870669 10.613122,0"
     style="font-size:26.4008007px;font-variant:normal;font-weight:normal;font-stretch:normal;writing-mode:lr-tb;fill:#ffffff;fill-opacity:1;fill-rule:nonzero;stroke:none;font-family:Montserrat;-inkscape-font-specification:Montserrat-Regular"
     id="path3230" /><path
     d="m -76.456715,9.5042872 1.557647,-2.2968696 c 0.1232,0.105607 0.290405,0.2376109 0.501615,0.396012 0.211202,0.1408077 0.616014,0.3432136 1.214437,0.6072184 0.616013,0.2464102 1.18803,0.3696138 1.716052,0.3696112 1.636841,2.6e-6 2.842477,-0.5544137 3.61691,-1.6632504 0.774412,-1.1088283 1.170424,-2.6048722 1.188036,-4.4881361 -0.440025,0.4928231 -1.073643,0.9592368 -1.900858,1.3992424 -0.827234,0.4224197 -1.742461,0.6336259 -2.745683,0.6336192 -1.654456,6.7e-6 -3.044896,-0.5456093 -4.171327,-1.6368496 -1.108835,-1.1088242 -1.663251,-2.5608668 -1.66325,-4.3561321 -10e-7,-1.8480416 0.598416,-3.3264849 1.795254,-4.4353346 1.214433,-1.1088154 2.736878,-1.6632316 4.567339,-1.6632504 1.038423,1.88e-5 1.96245,0.1672237 2.772084,0.5016152 0.809613,0.3344281 1.478433,0.7920415 2.006461,1.3728416 0.545603,0.580834 0.985616,1.2760544 1.32004,2.0856633 0.351997,0.8096386 0.598404,1.6632636 0.739222,2.5608777 0.158391,0.88003805 0.237593,1.83926618 0.237608,2.8776872 -1.5e-5,1.689659 -0.202421,3.1681024 -0.607219,4.4353346 -0.404826,1.2672421 -0.959242,2.2704715 -1.66325,3.0096912 -0.704033,0.7392237 -1.496057,1.2848396 -2.376072,1.6368496 -0.862436,0.352011 -1.795263,0.528016 -2.798485,0.528016 -1.918464,0 -3.687316,-0.624818 -5.306561,-1.8744568 m 9.293082,-11.0355346 c -1.2e-5,-0.8976137 -0.343222,-1.6808366 -1.029632,-2.3496713 -0.68643,-0.6864051 -1.522454,-1.0296152 -2.508076,-1.0296312 -1.073639,1.6e-5 -1.944864,0.3080251 -2.613679,0.924028 -0.668825,0.5984327 -1.003234,1.3640551 -1.00323,2.2968696 -4e-6,0.96804129 0.299204,1.77766504 0.897627,2.42887371 0.616013,0.65122949 1.469638,0.97683909 2.560878,0.97682959 1.038422,9.5e-6 1.909648,-0.290399 2.613679,-0.87122639 0.721611,-0.59840722 1.082421,-1.39043045 1.082433,-2.37607201"
     style="font-size:26.4008007px;font-variant:normal;font-weight:normal;font-stretch:normal;writing-mode:lr-tb;fill:#ffffff;fill-opacity:1;fill-rule:nonzero;stroke:none;font-family:Montserrat;-inkscape-font-specification:Montserrat-Regular"
     id="path3232" /><path
     d="m -48.973482,-7.3130228 0,2.8248857 -7.788236,0 0,4.54093769 c 0.774417,-0.42240127 1.654443,-0.63360747 2.64008,-0.63361921 1.724842,1.174e-5 3.212086,0.51922697 4.461735,1.55764724 1.249624,1.03844068 1.874443,2.45528218 1.874457,4.25052888 -1.4e-5,1.7600576 -0.651233,3.2297007 -1.953659,4.4089337 -1.302451,1.1616358 -2.904098,1.7424528 -4.804946,1.7424528 -2.48168,0 -4.461738,-0.827224 -5.94018,-2.4816752 L -58.820981,6.6266 c 0.140801,0.1408086 0.325607,0.3080135 0.554417,0.5016152 0.246404,0.1936097 0.739218,0.4576174 1.478445,0.792024 0.739216,0.3168125 1.460838,0.4752172 2.164866,0.4752144 1.056023,2.8e-6 1.944849,-0.264005 2.666481,-0.792024 0.721611,-0.5280119 1.082421,-1.2936344 1.082432,-2.2968697 -1.1e-5,-1.020824 -0.387222,-1.804047 -1.161635,-2.3496712 -0.756832,-0.5632083 -1.69846,-0.8448166 -2.824885,-0.8448257 -1.214443,9.1e-6 -2.349677,0.2904176 -3.405704,0.8712265 l -1.32004,-1.4256433 0,-8.870669 10.613122,0"
     style="font-size:26.4008007px;font-variant:normal;font-weight:normal;font-stretch:normal;writing-mode:lr-tb;fill:#ffffff;fill-opacity:1;fill-rule:nonzero;stroke:none;font-family:Montserrat;-inkscape-font-specification:Montserrat-Regular"
     id="path3234" /></g>

<g
   id="g3381"><g
     id="g3383"
     clip-path="url(#clipPath3385)"><g
       id="g3389"
       transform="translate(288.7471,501.5801)"><path
         d="m 0,0 0.321,-9.357 c 69.142,2.918 104.327,-34.813 112.224,-78.065 7.896,-43.254 -15.541,-97.769 -69.58,-111.506 l 2.348,-9.062 c 58.515,14.877 85.875,67.254 76.503,122.24 C 112.236,-29.544 61.678,7.948 0,0"
         style="fill:#fab14d;fill-opacity:1;fill-rule:nonzero;stroke:none"
         id="path3391"
         inkscape:connector-curvature="0" /></g><g
       id="g3393"
       transform="translate(304.3018,438.7813)"><path
         d="m 0,0 c -23.804,0 -43.164,-19.361 -43.164,-43.164 0,-23.797 19.36,-43.162 43.164,-43.162 23.779,0 43.133,19.365 43.133,43.162 C 43.137,-19.361 23.779,0 0,0"
         style="fill:#292a2a;fill-opacity:1;fill-rule:nonzero;stroke:none"
         id="path3395"
         inkscape:connector-curvature="0" /></g><g
       id="g3397"
       transform="translate(304.5811,358.5957)"><path
         d="m 0,0 c -20.45,0 -37.023,16.574 -37.023,37.021 0,20.452 16.573,37.028 37.023,37.028 20.43,0 37.005,-16.576 37.005,-37.028 C 37.005,16.574 20.43,0 0,0 m -0.279,77.289 c -22.238,0 -40.265,-18.027 -40.265,-40.268 0,-22.23 18.025,-40.257 40.265,-40.257 22.211,0 40.236,18.027 40.236,40.257 0,22.239 -18.025,40.268 -40.236,40.268"
         style="fill:#ffffff;fill-opacity:1;fill-rule:nonzero;stroke:none"
         id="path3399"
         inkscape:connector-curvature="0" /></g></g></g><g
   id="g3401"><g
     id="g3403"
     clip-path="url(#clipPath3405)"><g
       id="g3409"><g
         id="g3411" /><g
         id="g3457"
         mask="url(#mask3431)"><g
           id="g3459" /><g
           id="g3475"><g
             clip-path="url(#clipPath3461)"
             id="g3477"><g
               id="g3479"><g
                 id="g3481"><g
                   id="g3483"><g
                     id="g3485"><path
                       d="m 314.036,465.462 53.523,-75.913 -80.43,-50.504 -53.532,75.91 80.439,50.507 z"
                       style="fill:url(#linearGradient3469);stroke:none"
                       id="path3487"
                       inkscape:connector-curvature="0" /></g></g></g></g></g></g></g></g></g></g><g
   id="g3489"><g
     id="g3491"
     clip-path="url(#clipPath3493)"><g
       id="g3497"><g
         id="g3499" /><g
         id="g3509"><g
           clip-path="url(#clipPath3501)"
           id="g3511"><g
             id="g3513"><g
               clip-path="url(#clipPath3505)"
               id="g3515"><g
                 transform="translate(306.6113,400.0645)"
                 id="g3517"><path
                   d="m 0,0 0,-16.574 c 0,-1.602 0.416,-2.873 1.256,-3.824 0.842,-0.946 1.955,-1.422 3.348,-1.422 1.642,0 3.155,0.738 4.547,2.215 l 2.902,-4.999 c -2.485,-2.23 -5.263,-3.351 -8.337,-3.351 -2.943,0 -5.473,1.047 -7.603,3.129 -2.132,2.092 -3.195,4.9 -3.195,8.443 l 0,16.383 -4.234,0 0,5.689 4.234,0 0,10.561 7.082,0 0,-10.561 8.834,0 L 8.834,0 0,0 z"
                   style="fill:#292a2a;fill-opacity:1;fill-rule:nonzero;stroke:none"
                   id="path3519"
                   inkscape:connector-curvature="0" /></g></g></g></g></g></g><g
       id="g3521"
       transform="translate(305.2383,401.4375)"><path
         d="m 0,0 0,-16.578 c 0,-1.6 0.42,-2.873 1.26,-3.822 0.839,-0.95 1.954,-1.42 3.344,-1.42 1.645,0 3.162,0.736 4.55,2.213 l 2.903,-4.998 c -2.484,-2.237 -5.261,-3.352 -8.338,-3.352 -2.942,0 -5.478,1.043 -7.605,3.131 -2.132,2.09 -3.196,4.898 -3.196,8.441 l 0,16.385 -4.234,0 0,5.688 4.234,0 0,10.558 7.082,0 0,-10.558 8.837,0 L 8.837,0 0,0 z"
         style="fill:#ffffff;fill-opacity:1;fill-rule:nonzero;stroke:none"
         id="path3523"
         inkscape:connector-curvature="0" /></g><g
       id="g3525"
       transform="translate(457.6318,395.7051)"><path
         d="m 0,0 c 0.01,-83.9 -68.014,-151.924 -151.929,-151.936 -83.924,-0.011 -151.969,67.997 -151.979,151.901 l 0,0.035 c -0.01,83.903 68.019,151.926 151.943,151.938 C -68.051,151.95 -0.012,83.94 0,0.039 L 0,0 z"
         style="fill:none;stroke:#ffffff;stroke-width:3.30100012;stroke-linecap:butt;stroke-linejoin:miter;stroke-miterlimit:4;stroke-opacity:1;stroke-dasharray:none"
         id="path3527"
         inkscape:connector-curvature="0" /></g></g></g></g></svg>