<?xml version="1.0" encoding="UTF-8" standalone="no"?>
<!-- Created with Inkscape (http://www.inkscape.org/) -->

<svg
   xmlns:dc="http://purl.org/dc/elements/1.1/"
   xmlns:cc="http://creativecommons.org/ns#"
   xmlns:rdf="http://www.w3.org/1999/02/22-rdf-syntax-ns#"
   xmlns:svg="http://www.w3.org/2000/svg"
   xmlns="http://www.w3.org/2000/svg"
   xmlns:xlink="http://www.w3.org/1999/xlink"
   xmlns:sodipodi="http://sodipodi.sourceforge.net/DTD/sodipodi-0.dtd"
   xmlns:inkscape="http://www.inkscape.org/namespaces/inkscape"
   id="svg3049"
   version="1.1"
   inkscape:version="0.48.2 r9819"
   width="384.02344"
   height="383.98438"
   xml:space="preserve"
   sodipodi:docname="thermostat.celcius.svg"><metadata
     id="metadata3055"><rdf:RDF><cc:Work
         rdf:about=""><dc:format>image/svg+xml</dc:format><dc:type
           rdf:resource="http://purl.org/dc/dcmitype/StillImage" /><dc:title></dc:title></cc:Work></rdf:RDF></metadata><defs
     id="defs3053"><clipPath
       clipPathUnits="userSpaceOnUse"
       id="clipPath3063"><path
         d="M 0,792 612,792 612,0 0,0 0,792 z"
         id="path3065"
         inkscape:connector-curvature="0" /></clipPath><clipPath
       clipPathUnits="userSpaceOnUse"
       id="clipPath3319"><path
         d="m 156.831,545.565 297.617,0 0,-299.143 -297.617,0 0,299.143 z"
         id="path3321"
         inkscape:connector-curvature="0" /></clipPath><radialGradient
       fx="0"
       fy="0"
       cx="0"
       cy="0"
       r="1"
       gradientUnits="userSpaceOnUse"
       gradientTransform="matrix(148.821,0,0,149.55936,305.63867,395.99316)"
       spreadMethod="pad"
       id="radialGradient3327"><stop
         style="stop-opacity:1;stop-color:#3e4851"
         offset="0"
         id="stop3329" /><stop
         style="stop-opacity:1;stop-color:#454b4f"
         offset="0.264008"
         id="stop3331" /><stop
         style="stop-opacity:1;stop-color:#454b4f"
         offset="0.264008"
         id="stop3333" /><stop
         style="stop-opacity:1;stop-color:#a6b1b7"
         offset="0.617996"
         id="stop3335" /><stop
         style="stop-opacity:1;stop-color:#cfdce5"
         offset="0.695404"
         id="stop3337" /><stop
         style="stop-opacity:1;stop-color:#b7c6d1"
         offset="0.771805"
         id="stop3339" /><stop
         style="stop-opacity:1;stop-color:#afc3d5"
         offset="0.847702"
         id="stop3341" /><stop
         style="stop-opacity:1;stop-color:#94afc6"
         offset="0.923401"
         id="stop3343" /><stop
         style="stop-opacity:1;stop-color:#7397b6"
         offset="0.998306"
         id="stop3345" /><stop
         style="stop-opacity:1;stop-color:#7397b6"
         offset="1"
         id="stop3347" /></radialGradient><clipPath
       clipPathUnits="userSpaceOnUse"
       id="clipPath3385"><path
         d="M 0,792 612,792 612,0 0,0 0,792 z"
         id="path3387"
         inkscape:connector-curvature="0" /></clipPath><clipPath
       clipPathUnits="userSpaceOnUse"
       id="clipPath3405"><path
         d="m 265.746,396.022 c 0,-10.374 4.239,-19.647 10.837,-26.655 l 0,0 c 3.428,28.317 27.325,50.338 56.53,50.338 l 0,0 c 0.785,0 1.518,-0.164 2.299,-0.192 l 0,0 c -7.152,9.299 -17.931,15.63 -30.55,15.63 l 0,0 c -21.594,0 -39.116,-17.524 -39.116,-39.121"
         id="path3407"
         inkscape:connector-curvature="0" /></clipPath><clipPath
       clipPathUnits="userSpaceOnUse"
       id="clipPath3413"><path
         d="m 233.597,465.462 133.962,0 0,-126.417 -133.962,0 0,126.417 z"
         id="path3415"
         inkscape:connector-curvature="0" /></clipPath><clipPath
       clipPathUnits="userSpaceOnUse"
       id="clipPath3417"><path
         d="m 233.597,465.462 133.962,0 0,-126.417 -133.962,0 0,126.417 z"
         id="path3419"
         inkscape:connector-curvature="0" /></clipPath><linearGradient
       x1="0"
       y1="0"
       x2="1"
       y2="0"
       gradientUnits="userSpaceOnUse"
       gradientTransform="matrix(26.963501,-38.236511,40.522232,25.442474,275.5,437.875)"
       spreadMethod="pad"
       id="linearGradient3425"><stop
         style="stop-opacity:1;stop-color:#ffffff"
         offset="0"
         id="stop3427" /><stop
         style="stop-opacity:1;stop-color:#373535"
         offset="1"
         id="stop3429" /></linearGradient><mask
       maskUnits="userSpaceOnUse"
       x="0"
       y="0"
       width="1"
       height="1"
       id="mask3431"><g
         id="g3433"><g
           clip-path="url(#clipPath3413)"
           id="g3435"><path
             d="m 233.597,465.462 133.962,0 0,-126.417 -133.962,0 0,126.417 z"
             style="fill:#000000;fill-opacity:1;fill-rule:nonzero;stroke:none"
             id="path3437"
             inkscape:connector-curvature="0" /><g
             id="g3439"><g
               id="g3441" /><g
               id="g3443"><g
                 clip-path="url(#clipPath3417)"
                 id="g3445"><g
                   id="g3447"><g
                     id="g3449"><g
                       id="g3451"><g
                         id="g3453"><path
                           d="m 314.036,465.462 53.523,-75.913 -80.43,-50.504 -53.532,75.91 80.439,50.507 z"
                           style="fill:url(#linearGradient3425);stroke:none"
                           id="path3455"
                           inkscape:connector-curvature="0" /></g></g></g></g></g></g></g></g></g></mask><clipPath
       clipPathUnits="userSpaceOnUse"
       id="clipPath3461"><path
         d="m 233.597,465.462 133.962,0 0,-126.417 -133.962,0 0,126.417 z"
         id="path3463"
         inkscape:connector-curvature="0" /></clipPath><linearGradient
       x1="0"
       y1="0"
       x2="1"
       y2="0"
       gradientUnits="userSpaceOnUse"
       gradientTransform="matrix(26.963501,-38.236511,40.522232,25.442474,275.46875,437.875)"
       spreadMethod="pad"
       id="linearGradient3469"><stop
         style="stop-opacity:1;stop-color:#ffffff"
         offset="0"
         id="stop3471" /><stop
         style="stop-opacity:1;stop-color:#ffffff"
         offset="1"
         id="stop3473" /></linearGradient><clipPath
       clipPathUnits="userSpaceOnUse"
       id="clipPath3493"><path
         d="M 0,792 612,792 612,0 0,0 0,792 z"
         id="path3495"
         inkscape:connector-curvature="0" /></clipPath><clipPath
       clipPathUnits="userSpaceOnUse"
       id="clipPath3501"><path
         d="m 295.295,416.314 23.369,0 0,-44.207 -23.369,0 0,44.207 z"
         id="path3503"
         inkscape:connector-curvature="0" /></clipPath><clipPath
       clipPathUnits="userSpaceOnUse"
       id="clipPath3505"><path
         d="m 295.295,372.107 23.369,0 0,44.207 -23.369,0 0,-44.207 z"
         id="path3507"
         inkscape:connector-curvature="0" /></clipPath><radialGradient
       inkscape:collect="always"
       xlink:href="#radialGradient3327"
       id="radialGradient3347"
       gradientUnits="userSpaceOnUse"
       gradientTransform="matrix(148.821,0,0,149.55936,305.63867,395.99316)"
       spreadMethod="pad"
       cx="0"
       cy="0"
       fx="0"
       fy="0"
       r="1" /></defs><sodipodi:namedview
     pagecolor="#ffffff"
     bordercolor="#666666"
     borderopacity="1"
     objecttolerance="10"
     gridtolerance="10"
     guidetolerance="10"
     inkscape:pageopacity="0"
     inkscape:pageshadow="2"
     inkscape:window-width="1403"
     inkscape:window-height="856"
     id="namedview3051"
     showgrid="false"
     fit-margin-top="0"
     fit-margin-left="0"
     fit-margin-right="0"
     fit-margin-bottom="0"
     inkscape:zoom="1.195472"
     inkscape:cx="284.3416"
     inkscape:cy="194.59924"
     inkscape:window-x="7"
     inkscape:window-y="0"
     inkscape:window-maximized="0"
     inkscape:current-layer="g3057" /><g
     id="g3057"
     inkscape:groupmode="layer"
     inkscape:label="thermostat"
     transform="matrix(1.25,0,0,-1.25,-190.08662,686.62356)"><g
   id="g3067"
   transform="translate(457.0244,395.6953)"><path
     d="m 0,0 c 0.01,-83.539 -67.742,-151.266 -151.321,-151.281 -83.588,-0.01 -151.359,67.705 -151.368,151.244 l 0,0.037 c -0.012,83.536 67.742,151.265 151.332,151.278 C -67.779,151.286 -0.008,83.573 0,0.035 L 0,0 z"
     style="fill:#292929;fill-opacity:1;fill-rule:nonzero;stroke:none"
     id="path3069"
     inkscape:connector-curvature="0" /></g><g
   id="g3071"
   transform="translate(456.665,395.9941)"><path
     d="m 0,0 c 0.012,-83.361 -67.602,-150.951 -151.003,-150.963 -83.412,-0.012 -151.043,67.561 -151.053,150.926 l 0,0.037 c -0.011,83.366 67.602,150.952 151.018,150.963 C -67.637,150.973 -0.008,83.402 0,0.039 L 0,0 z"
     style="fill:#292929;fill-opacity:1;fill-rule:nonzero;stroke:none"
     id="path3073"
     inkscape:connector-curvature="0" /></g><g
   id="g3075"
   transform="translate(160.7505,437.0254)"
   style="fill:#000000"><path
     d="m 0,0 -0.999,-3.656 40.577,-11.01 0.996,3.654 L 0,0 z"
     style="fill:#000000;fill-opacity:1;fill-rule:nonzero;stroke:none"
     id="path3077"
     inkscape:connector-curvature="0" /></g><g
   id="g3079"
   transform="translate(185.7583,443.7637)"
   style="fill:#000000"><path
     d="M 0,0 -1.232,-3.561 18.132,-10.25 19.365,-6.691 0,0 z"
     style="fill:#000000;fill-opacity:1;fill-rule:nonzero;stroke:none"
     id="path3081"
     inkscape:connector-curvature="0" /></g><g
   id="g3083"
   transform="translate(191.501,456.1968)"
   style="fill:#000000"><path
     d="m 0,0 -1.66,-3.416 18.367,-8.97 1.661,3.418 L 0,0 z"
     style="fill:#000000;fill-opacity:1;fill-rule:nonzero;stroke:none"
     id="path3085"
     inkscape:connector-curvature="0" /></g><g
   id="g3087"
   transform="translate(198.3364,467.7788)"
   style="fill:#000000"><path
     d="m 0,0 -1.995,-3.229 17.512,-10.917 1.995,3.229 L 0,0 z"
     style="fill:#000000;fill-opacity:1;fill-rule:nonzero;stroke:none"
     id="path3089"
     inkscape:connector-curvature="0" /></g><g
   id="g3091"
   transform="translate(206.4517,478.5986)"
   style="fill:#000000"><path
     d="m 0,0 -2.325,-2.942 16.134,-12.767 2.373,2.99 L 0,0 z"
     style="fill:#000000;fill-opacity:1;fill-rule:nonzero;stroke:none"
     id="path3093"
     inkscape:connector-curvature="0" /></g><g
   id="g3095"
   transform="translate(200.4258,503.7031)"
   style="fill:#000000"><path
     d="M 0,0 -2.659,-2.704 27.43,-32.129 30.087,-29.424 0,0 z"
     style="fill:#000000;fill-opacity:1;fill-rule:nonzero;stroke:none"
     id="path3097"
     inkscape:connector-curvature="0" /></g><g
   id="g3099"
   transform="translate(226.0518,497.5811)"
   style="fill:#000000"><path
     d="m 0,0 -2.941,-2.419 13.097,-15.708 2.94,2.419 L 0,0 z"
     style="fill:#000000;fill-opacity:1;fill-rule:nonzero;stroke:none"
     id="path3101"
     inkscape:connector-curvature="0" /></g><g
   id="g3103"
   transform="translate(236.9668,505.4121)"
   style="fill:#000000"><path
     d="M 0,0 -3.133,-2.135 8.4,-19.079 11.53,-16.942 0,0 z"
     style="fill:#000000;fill-opacity:1;fill-rule:nonzero;stroke:none"
     id="path3105"
     inkscape:connector-curvature="0" /></g><g
   id="g3107"
   transform="translate(248.7852,512.1509)"
   style="fill:#000000"><path
     d="M 0,0 -3.371,-1.755 6.075,-20.123 9.444,-18.365 0,0 z"
     style="fill:#000000;fill-opacity:1;fill-rule:nonzero;stroke:none"
     id="path3109"
     inkscape:connector-curvature="0" /></g><g
   id="g3111"
   transform="translate(261.4082,517.3257)"
   style="fill:#000000"><path
     d="M 0,0 -3.56,-1.377 4.129,-20.551 7.641,-19.128 0,0 z"
     style="fill:#000000;fill-opacity:1;fill-rule:nonzero;stroke:none"
     id="path3113"
     inkscape:connector-curvature="0" /></g><g
   id="g3115"
   transform="translate(268.6211,542.0972)"
   style="fill:#000000"><path
     d="M 0,0 -3.654,-0.949 7.217,-41.763 10.916,-40.767 0,0 z"
     style="fill:#000000;fill-opacity:1;fill-rule:nonzero;stroke:none"
     id="path3117"
     inkscape:connector-curvature="0" /></g><g
   id="g3119"
   transform="translate(287.5596,524.3486)"
   style="fill:#000000"><path
     d="m 0,0 -3.75,-0.521 2.895,-20.693 3.797,0.521 L 0,0 z"
     style="fill:#000000;fill-opacity:1;fill-rule:nonzero;stroke:none"
     id="path3121"
     inkscape:connector-curvature="0" /></g><g
   id="g3123"
   transform="translate(301.1797,525.1079)"
   style="fill:#000000"><path
     d="M 0,0 -3.797,-0.094 -3.182,-20.55 0.617,-20.454 0,0 z"
     style="fill:#000000;fill-opacity:1;fill-rule:nonzero;stroke:none"
     id="path3125"
     inkscape:connector-curvature="0" /></g><g
   id="g3127"
   transform="translate(310.9072,525.3931)"
   style="fill:#000000"><path
     d="M 0,0 -1.232,-20.787 2.56,-21.024 3.794,-0.189 0,0 z"
     style="fill:#000000;fill-opacity:1;fill-rule:nonzero;stroke:none"
     id="path3129"
     inkscape:connector-curvature="0" /></g><g
   id="g3131"
   transform="translate(324.2822,524.0166)"
   style="fill:#000000"><path
     d="M 0,0 -3.229,-20.313 0.521,-20.93 3.745,-0.617 0,0 z"
     style="fill:#000000;fill-opacity:1;fill-rule:nonzero;stroke:none"
     id="path3133"
     inkscape:connector-curvature="0" /></g><g
   id="g3135"
   transform="translate(343.0752,542.145)"
   style="fill:#000000"><path
     d="M 0,0 -10.728,-40.719 -7.074,-41.715 3.7,-0.997 0,0 z"
     style="fill:#000000;fill-opacity:1;fill-rule:nonzero;stroke:none"
     id="path3137"
     inkscape:connector-curvature="0" /></g><g
   id="g3139"
   transform="translate(350.6191,517.2773)"
   style="fill:#000000"><path
     d="m 0,0 -7.495,-19.08 3.508,-1.376 7.5,19.079 L 0,0 z"
     style="fill:#000000;fill-opacity:1;fill-rule:nonzero;stroke:none"
     id="path3141"
     inkscape:connector-curvature="0" /></g><g
   id="g3143"
   transform="translate(362.9111,512.0093)"
   style="fill:#000000"><path
     d="m 0,0 -9.254,-18.271 3.368,-1.71 L 3.369,-1.707 0,0 z"
     style="fill:#000000;fill-opacity:1;fill-rule:nonzero;stroke:none"
     id="path3145"
     inkscape:connector-curvature="0" /></g><g
   id="g3147"
   transform="translate(374.6807,505.3184)"
   style="fill:#000000"><path
     d="M 0,0 -11.248,-17.181 -8.066,-19.27 3.18,-2.089 0,0 z"
     style="fill:#000000;fill-opacity:1;fill-rule:nonzero;stroke:none"
     id="path3149"
     inkscape:connector-curvature="0" /></g><g
   id="g3151"
   transform="translate(385.7861,497.6777)"
   style="fill:#000000"><path
     d="m 0,0 -13.049,-15.948 2.94,-2.373 L 2.942,-2.375 0,0 z"
     style="fill:#000000;fill-opacity:1;fill-rule:nonzero;stroke:none"
     id="path3153"
     inkscape:connector-curvature="0" /></g><g
   id="g3155"
   transform="translate(411.2236,503.7515)"
   style="fill:#000000"><path
     d="m 0,0 -29.848,-29.567 2.702,-2.705 L 2.707,-2.707 0,0 z"
     style="fill:#000000;fill-opacity:1;fill-rule:nonzero;stroke:none"
     id="path3157"
     inkscape:connector-curvature="0" /></g><g
   id="g3159"
   transform="translate(405.2451,478.8833)"
   style="fill:#000000"><path
     d="m 0,0 -15.947,-13.146 2.422,-2.896 15.947,13.1 L 0,0 z"
     style="fill:#000000;fill-opacity:1;fill-rule:nonzero;stroke:none"
     id="path3161"
     inkscape:connector-curvature="0" /></g><g
   id="g3163"
   transform="translate(413.3604,467.9673)"
   style="fill:#000000"><path
     d="m 0,0 -17.369,-11.153 2.041,-3.181 L 2.043,-3.18 0,0 z"
     style="fill:#000000;fill-opacity:1;fill-rule:nonzero;stroke:none"
     id="path3165"
     inkscape:connector-curvature="0" /></g><g
   id="g3167"
   transform="translate(420.1963,456.2905)"
   style="fill:#000000"><path
     d="m 0,0 -18.367,-9.298 1.705,-3.369 18.369,9.25 L 0,0 z"
     style="fill:#000000;fill-opacity:1;fill-rule:nonzero;stroke:none"
     id="path3169"
     inkscape:connector-curvature="0" /></g><g
   id="g3171"
   transform="translate(425.7939,444)"
   style="fill:#000000"><path
     d="M 0,0 -19.029,-7.307 -17.654,-10.82 1.379,-3.559 0,0 z"
     style="fill:#000000;fill-opacity:1;fill-rule:nonzero;stroke:none"
     id="path3173"
     inkscape:connector-curvature="0" /></g><g
   id="g3175"
   transform="translate(450.9971,436.7891)"
   style="fill:#000000"><path
     d="M 0,0 -40.58,-10.775 -39.582,-14.43 0.949,-3.705 0,0 z"
     style="fill:#000000;fill-opacity:1;fill-rule:nonzero;stroke:none"
     id="path3177"
     inkscape:connector-curvature="0" /></g><g
   id="g3179"
   transform="translate(433.2451,418.0898)"
   style="fill:#000000"><path
     d="m 0,0 -20.264,-3.229 0.619,-3.75 L 0.571,-3.752 0,0 z"
     style="fill:#000000;fill-opacity:1;fill-rule:nonzero;stroke:none"
     id="path3181"
     inkscape:connector-curvature="0" /></g><g
   id="g3183"
   transform="translate(434.7646,404.6113)"
   style="fill:#000000"><path
     d="M 0,0 -20.406,-1.047 -20.217,-4.842 0.191,-3.799 0,0 z"
     style="fill:#000000;fill-opacity:1;fill-rule:nonzero;stroke:none"
     id="path3185"
     inkscape:connector-curvature="0" /></g><g
   id="g3187"
   transform="translate(414.4521,392.2715)"
   style="fill:#000000"><path
     d="M 0,0 -0.188,-3.799 20.406,-4.889 20.598,-1.09 0,0 z"
     style="fill:#000000;fill-opacity:1;fill-rule:nonzero;stroke:none"
     id="path3189"
     inkscape:connector-curvature="0" /></g><g
   id="g3191"
   transform="translate(413.5029,380.877)"
   style="fill:#000000"><path
     d="m 0,0 -0.521,-3.791 20.263,-2.945 0.524,3.75 L 0,0 z"
     style="fill:#000000;fill-opacity:1;fill-rule:nonzero;stroke:none"
     id="path3193"
     inkscape:connector-curvature="0" /></g><g
   id="g3195"
   transform="translate(411.415,369.6777)"
   style="fill:#000000"><path
     d="m 0,0 -0.998,-3.703 40.531,-10.912 0.998,3.654 L 0,0 z"
     style="fill:#000000;fill-opacity:1;fill-rule:nonzero;stroke:none"
     id="path3197"
     inkscape:connector-curvature="0" /></g><g
   id="g3199"
   transform="translate(407.8057,358.6699)"
   style="fill:#000000"><path
     d="M 0,0 -1.279,-3.557 18.037,-10.631 19.316,-7.07 0,0 z"
     style="fill:#000000;fill-opacity:1;fill-rule:nonzero;stroke:none"
     id="path3201"
     inkscape:connector-curvature="0" /></g><g
   id="g3203"
   transform="translate(403.6807,348.4199)"
   style="fill:#000000"><path
     d="m 0,0 -1.76,-3.369 18.227,-9.444 1.756,3.366 L 0,0 z"
     style="fill:#000000;fill-opacity:1;fill-rule:nonzero;stroke:none"
     id="path3205"
     inkscape:connector-curvature="0" /></g><g
   id="g3207"
   transform="translate(397.9834,338.1699)"
   style="fill:#000000"><path
     d="m 0,0 -2.088,-3.182 17.229,-11.152 2.041,3.178 L 0,0 z"
     style="fill:#000000;fill-opacity:1;fill-rule:nonzero;stroke:none"
     id="path3209"
     inkscape:connector-curvature="0" /></g><g
   id="g3211"
   transform="translate(391.6709,329.1973)"
   style="fill:#000000"><path
     d="m 0,0 -2.422,-2.939 15.854,-12.959 2.42,2.941 L 0,0 z"
     style="fill:#000000;fill-opacity:1;fill-rule:nonzero;stroke:none"
     id="path3213"
     inkscape:connector-curvature="0" /></g><g
   id="g3215"
   transform="translate(383.9844,320.416)"
   style="fill:#000000"><path
     d="M 0,0 -2.707,-2.656 27.05,-32.365 29.755,-29.662 0,0 z"
     style="fill:#000000;fill-opacity:1;fill-rule:nonzero;stroke:none"
     id="path3217"
     inkscape:connector-curvature="0" /></g><g
   id="g3219"
   transform="translate(375.7734,312.6836)"
   style="fill:#000000"><path
     d="m 0,0 -2.991,-2.375 13.004,-15.992 2.942,2.373 L 0,0 z"
     style="fill:#000000;fill-opacity:1;fill-rule:nonzero;stroke:none"
     id="path3221"
     inkscape:connector-curvature="0" /></g><g
   id="g3223"
   transform="translate(366.4736,305.8008)"
   style="fill:#000000"><path
     d="m 0,0 -3.183,-2.041 11.297,-17.18 3.18,2.088 L 0,0 z"
     style="fill:#000000;fill-opacity:1;fill-rule:nonzero;stroke:none"
     id="path3225"
     inkscape:connector-curvature="0" /></g><g
   id="g3227"
   transform="translate(356.9336,299.9609)"
   style="fill:#000000"><path
     d="M 0,0 -3.37,-1.705 5.978,-19.838 9.347,-18.125 0,0 z"
     style="fill:#000000;fill-opacity:1;fill-rule:nonzero;stroke:none"
     id="path3229"
     inkscape:connector-curvature="0" /></g><g
   id="g3231"
   transform="translate(346.54,295.1211)"
   style="fill:#000000"><path
     d="M 0,0 -3.563,-1.377 3.889,-20.404 7.449,-18.98 0,0 z"
     style="fill:#000000;fill-opacity:1;fill-rule:nonzero;stroke:none"
     id="path3233"
     inkscape:connector-curvature="0" /></g><g
   id="g3235"
   transform="translate(335.7168,291.4219)"
   style="fill:#000000"><path
     d="M 0,0 -3.655,-0.949 7.07,-41.527 10.729,-40.533 0,0 z"
     style="fill:#000000;fill-opacity:1;fill-rule:nonzero;stroke:none"
     id="path3237"
     inkscape:connector-curvature="0" /></g><g
   id="g3239"
   transform="translate(324.8516,289)"
   style="fill:#000000"><path
     d="M 0,0 -3.751,-0.617 -0.62,-20.881 3.131,-20.264 0,0 z"
     style="fill:#000000;fill-opacity:1;fill-rule:nonzero;stroke:none"
     id="path3241"
     inkscape:connector-curvature="0" /></g><g
   id="g3243"
   transform="translate(313.2803,287.5762)"
   style="fill:#000000"><path
     d="M 0,0 -3.796,-0.236 -2.515,-20.74 1.278,-20.5 0,0 z"
     style="fill:#000000;fill-opacity:1;fill-rule:nonzero;stroke:none"
     id="path3245"
     inkscape:connector-curvature="0" /></g><g
   id="g3247"
   transform="translate(298.2822,287.5762)"
   style="fill:#000000"><path
     d="M 0,0 -0.946,-20.5 2.852,-20.689 3.798,-0.188 0,0 z"
     style="fill:#000000;fill-opacity:1;fill-rule:nonzero;stroke:none"
     id="path3249"
     inkscape:connector-curvature="0" /></g><g
   id="g3251"
   transform="translate(287.0391,288.8574)"
   style="fill:#000000"><path
     d="M 0,0 -3.088,-20.17 0.661,-20.738 3.746,-0.57 0,0 z"
     style="fill:#000000;fill-opacity:1;fill-rule:nonzero;stroke:none"
     id="path3253"
     inkscape:connector-curvature="0" /></g><g
   id="g3255"
   transform="translate(275.7891,291.4668)"
   style="fill:#000000"><path
     d="M 0,0 -10.441,-40.578 -6.785,-41.523 3.654,-0.945 0,0 z"
     style="fill:#000000;fill-opacity:1;fill-rule:nonzero;stroke:none"
     id="path3257"
     inkscape:connector-curvature="0" /></g><g
   id="g3259"
   transform="translate(264.9209,295.2656)"
   style="fill:#000000"><path
     d="M 0,0 -7.403,-19.08 -3.844,-20.455 3.511,-1.377 0,0 z"
     style="fill:#000000;fill-opacity:1;fill-rule:nonzero;stroke:none"
     id="path3261"
     inkscape:connector-curvature="0" /></g><g
   id="g3263"
   transform="translate(254.8125,299.9609)"
   style="fill:#000000"><path
     d="M 0,0 -9.398,-18.125 -6.027,-19.881 3.371,-1.754 0,0 z"
     style="fill:#000000;fill-opacity:1;fill-rule:nonzero;stroke:none"
     id="path3265"
     inkscape:connector-curvature="0" /></g><g
   id="g3267"
   transform="translate(244.9863,305.8984)"
   style="fill:#000000"><path
     d="M 0,0 -10.914,-17.324 -7.688,-19.318 3.23,-2.045 0,0 z"
     style="fill:#000000;fill-opacity:1;fill-rule:nonzero;stroke:none"
     id="path3269"
     inkscape:connector-curvature="0" /></g><g
   id="g3271"
   transform="translate(236.0166,312.8262)"
   style="fill:#000000"><path
     d="m 0,0 -12.906,-16 2.941,-2.371 12.91,16 L 0,0 z"
     style="fill:#000000;fill-opacity:1;fill-rule:nonzero;stroke:none"
     id="path3273"
     inkscape:connector-curvature="0" /></g><g
   id="g3275"
   transform="translate(227.5234,320.5586)"
   style="fill:#000000"><path
     d="m 0,0 -29.616,-29.656 2.659,-2.66 L 2.704,-2.703 0,0 z"
     style="fill:#000000;fill-opacity:1;fill-rule:nonzero;stroke:none"
     id="path3277"
     inkscape:connector-curvature="0" /></g><g
   id="g3279"
   transform="translate(220.3594,328.8652)"
   style="fill:#000000"><path
     d="M 0,0 -15.854,-12.906 -13.48,-15.848 2.371,-2.943 0,0 z"
     style="fill:#000000;fill-opacity:1;fill-rule:nonzero;stroke:none"
     id="path3281"
     inkscape:connector-curvature="0" /></g><g
   id="g3283"
   transform="translate(213.7124,338.3555)"
   style="fill:#000000"><path
     d="m 0,0 -17.228,-11.057 2.042,-3.177 L 2.041,-3.18 0,0 z"
     style="fill:#000000;fill-opacity:1;fill-rule:nonzero;stroke:none"
     id="path3285"
     inkscape:connector-curvature="0" /></g><g
   id="g3287"
   transform="translate(208.208,348.0879)"
   style="fill:#000000"><path
     d="m 0,0 -18.176,-9.205 1.708,-3.371 L 1.709,-3.373 0,0 z"
     style="fill:#000000;fill-opacity:1;fill-rule:nonzero;stroke:none"
     id="path3289"
     inkscape:connector-curvature="0" /></g><g
   id="g3291"
   transform="translate(203.604,358.8105)"
   style="fill:#000000"><path
     d="m 0,0 -18.984,-7.307 1.375,-3.56 18.984,7.31 L 0,0 z"
     style="fill:#000000;fill-opacity:1;fill-rule:nonzero;stroke:none"
     id="path3293"
     inkscape:connector-curvature="0" /></g><g
   id="g3295"
   transform="translate(200.4258,369.3965)"
   style="fill:#000000"><path
     d="m 0,0 -40.627,-10.49 0.952,-3.653 L 0.946,-3.654 0,0 z"
     style="fill:#000000;fill-opacity:1;fill-rule:nonzero;stroke:none"
     id="path3297"
     inkscape:connector-curvature="0" /></g><g
   id="g3299"
   transform="translate(198.3364,380.5957)"
   style="fill:#000000"><path
     d="M 0,0 -20.312,-2.99 -19.743,-6.74 0.521,-3.75 0,0 z"
     style="fill:#000000;fill-opacity:1;fill-rule:nonzero;stroke:none"
     id="path3301"
     inkscape:connector-curvature="0" /></g><g
   id="g3303"
   transform="translate(197.291,391.9863)"
   style="fill:#000000"><path
     d="M 0,0 -20.501,-0.805 -20.36,-4.604 0.145,-3.797 0,0 z"
     style="fill:#000000;fill-opacity:1;fill-rule:nonzero;stroke:none"
     id="path3305"
     inkscape:connector-curvature="0" /></g><g
   id="g3307"
   transform="translate(176.9312,404.6113)"
   style="fill:#000000"><path
     d="M 0,0 -0.142,-3.799 20.312,-4.697 20.504,-0.9 0,0 z"
     style="fill:#000000;fill-opacity:1;fill-rule:nonzero;stroke:none"
     id="path3309"
     inkscape:connector-curvature="0" /></g><g
   id="g3311"
   transform="translate(178.5938,418.0898)"
   style="fill:#000000"><path
     d="m 0,0 -0.569,-3.799 20.215,-2.99 0.572,3.75 L 0,0 z"
     style="fill:#000000;fill-opacity:1;fill-rule:nonzero;stroke:none"
     id="path3313"
     inkscape:connector-curvature="0" /></g><g
   id="g3315"><g
     id="g3317" /><g
     id="g3349"><g
       clip-path="url(#clipPath3319)"
       id="g3351"
       style="opacity:0.41639703"><g
         id="g3353"><g
           id="g3355"><g
             id="g3357"><g
               id="g3359"><path
                 d="M 454.448,395.994 C 454.456,313.396 387.841,246.434 305.662,246.422 223.475,246.414 156.84,313.359 156.831,395.957 l 0,0.037 c -0.011,82.595 66.607,149.562 148.796,149.571 82.177,0.011 148.81,-66.938 148.821,-149.532 l 0,-0.039 z"
                 style="fill:url(#radialGradient3347);stroke:none"
                 id="path3361"
                 inkscape:connector-curvature="0" /></g></g></g></g></g></g></g><g
   id="g3363"
   transform="translate(457.2744,396.0078)"><path
     d="m 0,0 c 0.011,-83.727 -67.873,-151.609 -151.612,-151.619 -83.75,-0.014 -151.653,67.853 -151.661,151.582 l 0,0.037 c -0.01,83.726 67.874,151.609 151.626,151.619 C -67.912,151.629 -0.012,83.763 0,0.037 L 0,0 z"
     style="fill:none;stroke:#ffffff;stroke-width:3.29399991;stroke-linecap:butt;stroke-linejoin:miter;stroke-miterlimit:4;stroke-opacity:1;stroke-dasharray:none"
     id="path3365"
     inkscape:connector-curvature="0" /></g>


<g
   id="g3393"
   transform="translate(304.3018,438.7813)"><path
     d="m 0,0 c -23.804,0 -43.164,-19.361 -43.164,-43.164 0,-23.797 19.36,-43.162 43.164,-43.162 23.779,0 43.133,19.365 43.133,43.162 C 43.137,-19.361 23.779,0 0,0"
     style="fill:#292a2a;fill-opacity:1;fill-rule:nonzero;stroke:none"
     id="path3395"
     inkscape:connector-curvature="0" /></g><g
   id="g3397"
   transform="translate(304.5811,358.5957)"><path
     d="m 0,0 c -20.45,0 -37.023,16.574 -37.023,37.021 0,20.452 16.573,37.028 37.023,37.028 20.43,0 37.005,-16.576 37.005,-37.028 C 37.005,16.574 20.43,0 0,0 m -0.279,77.289 c -22.238,0 -40.265,-18.027 -40.265,-40.268 0,-22.23 18.025,-40.257 40.265,-40.257 22.211,0 40.236,18.027 40.236,40.257 0,22.239 -18.025,40.268 -40.236,40.268"
     style="fill:#ffffff;fill-opacity:1;fill-rule:nonzero;stroke:none"
     id="path3399"
     inkscape:connector-curvature="0" /></g><g
   id="g3401"><g
     id="g3403"
     clip-path="url(#clipPath3405)"><g
       id="g3409"><g
         id="g3411" /><g
         id="g3457"
         mask="url(#mask3431)"><g
           id="g3459" /><g
           id="g3475"><g
             clip-path="url(#clipPath3461)"
             id="g3477"><g
               id="g3479"><g
                 id="g3481"><g
                   id="g3483"><g
                     id="g3485"><path
                       d="m 314.036,465.462 53.523,-75.913 -80.43,-50.504 -53.532,75.91 80.439,50.507 z"
                       style="fill:url(#linearGradient3469);stroke:none"
                       id="path3487"
                       inkscape:connector-curvature="0" /></g></g></g></g></g></g></g></g></g></g><g
   id="g3489"><g
     id="g3491"
     clip-path="url(#clipPath3493)"><g
       id="g3497"><g
         id="g3499" /><g
         id="g3509"><g
           clip-path="url(#clipPath3501)"
           id="g3511"><g
             id="g3513"><g
               clip-path="url(#clipPath3505)"
               id="g3515"><g
                 transform="translate(306.6113,400.0645)"
                 id="g3517"><path
                   d="m 0,0 0,-16.574 c 0,-1.602 0.416,-2.873 1.256,-3.824 0.842,-0.946 1.955,-1.422 3.348,-1.422 1.642,0 3.155,0.738 4.547,2.215 l 2.902,-4.999 c -2.485,-2.23 -5.263,-3.351 -8.337,-3.351 -2.943,0 -5.473,1.047 -7.603,3.129 -2.132,2.092 -3.195,4.9 -3.195,8.443 l 0,16.383 -4.234,0 0,5.689 4.234,0 0,10.561 7.082,0 0,-10.561 8.834,0 L 8.834,0 0,0 z"
                   style="fill:#292a2a;fill-opacity:1;fill-rule:nonzero;stroke:none"
                   id="path3519"
                   inkscape:connector-curvature="0" /></g></g></g></g></g></g><g
       id="g3521"
       transform="translate(305.2383,401.4375)"><path
         d="m 0,0 0,-16.578 c 0,-1.6 0.42,-2.873 1.26,-3.822 0.839,-0.95 1.954,-1.42 3.344,-1.42 1.645,0 3.162,0.736 4.55,2.213 l 2.903,-4.998 c -2.484,-2.237 -5.261,-3.352 -8.338,-3.352 -2.942,0 -5.478,1.043 -7.605,3.131 -2.132,2.09 -3.196,4.898 -3.196,8.441 l 0,16.385 -4.234,0 0,5.688 4.234,0 0,10.558 7.082,0 0,-10.558 8.837,0 L 8.837,0 0,0 z"
         style="fill:#ffffff;fill-opacity:1;fill-rule:nonzero;stroke:none"
         id="path3523"
         inkscape:connector-curvature="0" /></g><g
       id="g3525"
       transform="translate(457.6318,395.7051)"><path
         d="m 0,0 c 0.01,-83.9 -68.014,-151.924 -151.929,-151.936 -83.924,-0.011 -151.969,67.997 -151.979,151.901 l 0,0.035 c -0.01,83.903 68.019,151.926 151.943,151.938 C -68.051,151.95 -0.012,83.94 0,0.039 L 0,0 z"
         style="fill:none;stroke:#ffffff;stroke-width:3.30100012;stroke-linecap:butt;stroke-linejoin:miter;stroke-miterlimit:4;stroke-opacity:1;stroke-dasharray:none"
         id="path3527"
         inkscape:connector-curvature="0" /></g></g></g><g
   transform="scale(1,-1)"
   style="font-size:28.79999923999999822px;font-style:normal;font-variant:normal;font-weight:normal;font-stretch:normal;text-align:start;line-height:125%;letter-spacing:0px;word-spacing:0px;writing-mode:lr-tb;text-anchor:start;fill:#ffffff;fill-opacity:1;stroke:none;font-family:Montserrat;-inkscape-font-specification:Montserrat"
   id="text3212"><path
     d="m 321.13525,-470.46751 0,-5.4672 13.3824,0 0,2.856 -8.0512,16.1568 -3.536,0 7.8608,-16.1024 -6.7456,0 0,2.5568 -2.9104,0"
     style="font-size:27.20000076000000178px;line-height:125%;font-family:Montserrat;-inkscape-font-specification:Montserrat;fill:#ffffff"
     id="path3337" /></g><g
   transform="scale(1,-1)"
   style="font-size:28.79999923999999822px;font-style:normal;font-variant:normal;font-weight:normal;font-stretch:normal;text-align:start;line-height:125%;letter-spacing:0px;word-spacing:0px;writing-mode:lr-tb;text-anchor:start;fill:#ffffff;fill-opacity:1;stroke:none;font-family:Montserrat;-inkscape-font-specification:Montserrat"
   id="text3212-0"><path
     d="m 364.5609,-423.60005 6.9088,0 0,19.0128 -3.0464,0 0,-16.1568 -3.8624,0 0,-2.856"
     style="font-size:27.20000076000000178px;line-height:125%;font-family:Montserrat;-inkscape-font-specification:Montserrat;fill:#ffffff"
     id="path3332" /><path
     d="m 385.89378,-420.74405 -6.8816,0 0,-2.856 11.1248,0 0,2.5024 -4.5968,5.1408 c 1.74079,0.0544 3.10079,0.60748 4.08,1.6592 0.97918,1.03361 1.46878,2.27574 1.4688,3.7264 -2e-5,1.94027 -0.66188,3.46347 -1.9856,4.5696 -1.30561,1.10613 -2.93761,1.6592 -4.896,1.6592 -2.17601,0 -4.25227,-0.66187 -6.2288,-1.9856 l 1.36,-2.584 c 1.55946,1.088 3.19146,1.632 4.896,1.632 1.10612,0 2.01279,-0.25386 2.72,-0.7616 0.72532,-0.52586 1.08799,-1.31466 1.088,-2.3664 -10e-6,-0.88853 -0.39895,-1.62293 -1.1968,-2.2032 -0.79788,-0.58026 -1.90401,-0.87039 -3.3184,-0.8704 -0.70721,10e-6 -1.38721,0.0997 -2.04,0.2992 l 0,-2.448 4.4064,-5.1136"
     style="font-size:27.20000076000000178px;line-height:125%;font-family:Montserrat;-inkscape-font-specification:Montserrat;fill:#ffffff"
     id="path3334" /></g><g
   transform="scale(1,-1)"
   style="font-size:28.79999923999999822px;font-style:normal;font-variant:normal;font-weight:normal;font-stretch:normal;text-align:start;line-height:125%;letter-spacing:0px;word-spacing:0px;writing-mode:lr-tb;text-anchor:start;fill:#ffffff;fill-opacity:1;stroke:none;font-family:Montserrat;-inkscape-font-specification:Montserrat"
   id="text3212-0-6"><path
     d="m 340.87755,-349.98897 6.9088,0 0,19.0128 -3.0464,0 0,-16.1568 -3.8624,0 0,-2.856"
     style="font-size:27.20000076000000178px;line-height:125%;font-family:Montserrat;-inkscape-font-specification:Montserrat;fill:#ffffff"
     id="path3327" /><path
     d="m 356.49843,-348.92817 c 1.21493,-0.96104 2.73813,-1.44158 4.5696,-1.4416 1.83145,2e-5 3.35465,0.48056 4.5696,1.4416 1.21492,0.96109 1.82238,2.19415 1.8224,3.6992 -2e-5,1.41442 -0.68002,2.68375 -2.04,3.808 1.83145,1.16055 2.74718,2.79254 2.7472,4.896 -2e-5,1.63201 -0.65282,3.00107 -1.9584,4.1072 -1.30561,1.10614 -3.01921,1.6592 -5.1408,1.6592 -2.12161,0 -3.83521,-0.55306 -5.1408,-1.6592 -1.3056,-1.10613 -1.9584,-2.47519 -1.9584,-4.1072 0,-2.10346 0.91573,-3.73545 2.7472,-4.896 -1.36,-1.12425 -2.04,-2.39358 -2.04,-3.808 0,-1.50505 0.60746,-2.73811 1.8224,-3.6992 m 1.904,14.6064 c 0.83413,0.52587 1.72266,0.78881 2.6656,0.7888 0.94292,10e-6 1.83145,-0.26293 2.6656,-0.7888 0.83412,-0.54399 1.25119,-1.29652 1.2512,-2.2576 -10e-6,-1.03359 -0.39895,-1.82239 -1.1968,-2.3664 -0.79788,-0.54399 -1.70454,-0.81599 -2.72,-0.816 -1.01548,1e-5 -1.92214,0.27201 -2.72,0.816 -0.79787,0.54401 -1.19681,1.33281 -1.1968,2.3664 -10e-6,0.96108 0.41706,1.71361 1.2512,2.2576 m 0.2448,-8.6496 c 0.68906,0.54402 1.49599,0.81602 2.4208,0.816 0.92479,2e-5 1.72265,-0.27198 2.3936,-0.816 0.68905,-0.56212 1.03359,-1.26932 1.0336,-2.1216 -10e-6,-0.76158 -0.34455,-1.41438 -1.0336,-1.9584 -0.67095,-0.54398 -1.46881,-0.81598 -2.3936,-0.816 -0.92481,2e-5 -1.73174,0.27202 -2.4208,0.816 -0.67094,0.54402 -1.00641,1.19682 -1.0064,1.9584 -10e-6,0.85228 0.33546,1.55948 1.0064,2.1216"
     style="font-size:27.20000076000000178px;line-height:125%;font-family:Montserrat;-inkscape-font-specification:Montserrat;fill:#ffffff"
     id="path3329" /></g><g
   transform="scale(1,-1)"
   style="font-size:28.79999923999999822px;font-style:normal;font-variant:normal;font-weight:normal;font-stretch:normal;text-align:start;line-height:125%;letter-spacing:0px;word-spacing:0px;writing-mode:lr-tb;text-anchor:start;fill:#ffffff;fill-opacity:1;stroke:none;font-family:Montserrat;-inkscape-font-specification:Montserrat"
   id="text3212-0-6-1"><path
     d="m 279.28925,-316.55172 c -10e-6,-0.87038 -0.29015,-1.56852 -0.8704,-2.0944 -0.58028,-0.54398 -1.31468,-0.81598 -2.2032,-0.816 -1.55948,2e-5 -2.85601,0.79788 -3.8896,2.3936 l -2.584,-1.496 c 0.83413,-1.25118 1.74986,-2.19411 2.7472,-2.8288 1.01546,-0.63465 2.26666,-0.95198 3.7536,-0.952 1.68639,2e-5 3.12799,0.50775 4.3248,1.5232 1.19678,0.99735 1.79518,2.36642 1.7952,4.1072 -2e-5,0.97922 -0.25388,1.91308 -0.7616,2.8016 -0.50775,0.88855 -1.44162,2.03094 -2.8016,3.4272 l -4.4608,4.5424 8.6224,0 0,3.0736 -13.0016,0 0,-2.72 5.7664,-5.7936 c 1.28745,-1.30559 2.20319,-2.33012 2.7472,-3.0736 0.54399,-0.74345 0.81599,-1.44158 0.816,-2.0944"
     style="font-size:27.20000076000000178px;line-height:125%;font-family:Montserrat;-inkscape-font-specification:Montserrat;fill:#ffffff"
     id="path3322" /><path
     d="m 289.82202,-310.56772 4.5424,0 0,-3.4816 3.0464,0 0,3.4816 2.2848,0 0,2.9104 -2.2848,0 0,4.7872 -3.0464,0 0,-4.7872 -8.16,0 0,-2.8288 6.9904,-11.3968 3.5088,0 -6.8816,11.3152"
     style="font-size:27.20000076000000178px;line-height:125%;font-family:Montserrat;-inkscape-font-specification:Montserrat;fill:#ffffff"
     id="path3324" /></g><g
   transform="scale(1,-1)"
   style="font-size:28.79999923999999822px;font-style:normal;font-variant:normal;font-weight:normal;font-stretch:normal;text-align:start;line-height:125%;letter-spacing:0px;word-spacing:0px;writing-mode:lr-tb;text-anchor:start;fill:#ffffff;fill-opacity:1;stroke:none;font-family:Montserrat;-inkscape-font-specification:Montserrat"
   id="text3212-0-6-1-5"><path
     d="m 223.60553,-377.91577 -6.8816,0 0,-2.856 11.1248,0 0,2.5024 -4.5968,5.1408 c 1.74079,0.0544 3.10079,0.60747 4.08,1.6592 0.97919,1.03361 1.46879,2.27574 1.4688,3.7264 -10e-6,1.94027 -0.66188,3.46347 -1.9856,4.5696 -1.30561,1.10613 -2.93761,1.6592 -4.896,1.6592 -2.17601,0 -4.25227,-0.66187 -6.2288,-1.9856 l 1.36,-2.584 c 1.55946,1.088 3.19146,1.632 4.896,1.632 1.10612,0 2.01279,-0.25387 2.72,-0.7616 0.72532,-0.52586 1.08799,-1.31466 1.088,-2.3664 -1e-5,-0.88853 -0.39894,-1.62293 -1.1968,-2.2032 -0.79788,-0.58026 -1.90401,-0.87039 -3.3184,-0.8704 -0.70721,10e-6 -1.38721,0.0997 -2.04,0.2992 l 0,-2.448 4.4064,-5.1136"
     style="font-size:27.20000076000000178px;line-height:125%;font-family:Montserrat;-inkscape-font-specification:Montserrat;fill:#ffffff"
     id="path3345" /><path
     d="m 236.38061,-376.52857 c -0.74348,1.30561 -1.11521,3.01921 -1.1152,5.1408 -1e-5,2.12161 0.37172,3.8352 1.1152,5.1408 0.76159,1.3056 1.94026,1.9584 3.536,1.9584 1.59572,0 2.75625,-0.64373 3.4816,-1.9312 0.74345,-1.3056 1.11518,-3.02826 1.1152,-5.168 -2e-5,-2.13972 -0.37175,-3.85332 -1.1152,-5.1408 -0.72535,-1.30559 -1.88588,-1.95839 -3.4816,-1.9584 -1.59574,10e-6 -2.77441,0.65281 -3.536,1.9584 m -2.2848,12.3216 c -1.28747,-1.7952 -1.93121,-4.1888 -1.9312,-7.1808 -1e-5,-2.99199 0.64373,-5.37652 1.9312,-7.1536 1.28746,-1.79518 3.22772,-2.69278 5.8208,-2.6928 2.59305,2e-5 4.53332,0.89762 5.8208,2.6928 1.28745,1.77708 1.93118,4.16161 1.9312,7.1536 -2e-5,2.992 -0.64375,5.3856 -1.9312,7.1808 -1.28748,1.77707 -3.22775,2.6656 -5.8208,2.6656 -2.59308,0 -4.53334,-0.88853 -5.8208,-2.6656"
     style="font-size:27.20000076000000178px;line-height:125%;font-family:Montserrat;-inkscape-font-specification:Montserrat;fill:#ffffff"
     id="path3347" /></g><g
   transform="scale(1,-1)"
   style="font-size:28.79999923999999822px;font-style:normal;font-variant:normal;font-weight:normal;font-stretch:normal;text-align:start;line-height:125%;letter-spacing:0px;word-spacing:0px;writing-mode:lr-tb;text-anchor:start;fill:#ffffff;fill-opacity:1;stroke:none;font-family:Montserrat;-inkscape-font-specification:Montserrat"
   id="text3212-0-6-1-5-9"><path
     d="m 239.81207,-461.56473 -6.8816,0 0,-2.856 11.1248,0 0,2.5024 -4.5968,5.1408 c 1.74079,0.0544 3.10079,0.60748 4.08,1.6592 0.97919,1.03361 1.46879,2.27574 1.4688,3.7264 -1e-5,1.94027 -0.66188,3.46347 -1.9856,4.5696 -1.30561,1.10614 -2.93761,1.6592 -4.896,1.6592 -2.176,0 -4.25227,-0.66186 -6.2288,-1.9856 l 1.36,-2.584 c 1.55946,1.088 3.19146,1.632 4.896,1.632 1.10613,0 2.01279,-0.25386 2.72,-0.7616 0.72532,-0.52586 1.08799,-1.31466 1.088,-2.3664 -1e-5,-0.88853 -0.39894,-1.62292 -1.1968,-2.2032 -0.79787,-0.58026 -1.90401,-0.87039 -3.3184,-0.8704 -0.7072,10e-6 -1.3872,0.0997 -2.04,0.2992 l 0,-2.448 4.4064,-5.1136"
     style="font-size:27.20000076000000178px;line-height:125%;font-family:Montserrat;-inkscape-font-specification:Montserrat;fill:#ffffff"
     id="path3340" /><path
     d="m 261.37275,-464.44793 0,2.9104 -8.024,0 0,4.6784 c 0.79786,-0.43519 1.70452,-0.65279 2.72,-0.6528 1.77706,1e-5 3.30932,0.53495 4.5968,1.6048 1.28745,1.06988 1.93118,2.52961 1.9312,4.3792 -2e-5,1.81334 -0.67095,3.32747 -2.0128,4.5424 -1.34188,1.1968 -2.99201,1.7952 -4.9504,1.7952 -2.55681,0 -4.5968,-0.85226 -6.12,-2.5568 l 1.7136,-2.3392 c 0.14506,0.14507 0.33546,0.31734 0.5712,0.5168 0.25386,0.19947 0.76159,0.47147 1.5232,0.816 0.76159,0.3264 1.50506,0.4896 2.2304,0.4896 1.08799,0 2.00372,-0.272 2.7472,-0.816 0.74345,-0.54399 1.11519,-1.33279 1.1152,-2.3664 -1e-5,-1.05172 -0.39895,-1.85866 -1.1968,-2.4208 -0.77974,-0.58026 -1.74988,-0.87039 -2.9104,-0.8704 -1.25121,10e-6 -2.42081,0.29921 -3.5088,0.8976 l -1.36,-1.4688 0,-9.1392 10.9344,0"
     style="font-size:27.20000076000000178px;line-height:125%;font-family:Montserrat;-inkscape-font-specification:Montserrat;fill:#ffffff"
     id="path3342" /></g></g></svg>