<?xml version="1.0" encoding="UTF-8" standalone="no"?>
<!-- Created with Inkscape (http://www.inkscape.org/) -->

<svg
   xmlns:dc="http://purl.org/dc/elements/1.1/"
   xmlns:cc="http://creativecommons.org/ns#"
   xmlns:rdf="http://www.w3.org/1999/02/22-rdf-syntax-ns#"
   xmlns:svg="http://www.w3.org/2000/svg"
   xmlns="http://www.w3.org/2000/svg"
   xmlns:sodipodi="http://sodipodi.sourceforge.net/DTD/sodipodi-0.dtd"
   xmlns:inkscape="http://www.inkscape.org/namespaces/inkscape"
   id="svg2"
   version="1.1"
   inkscape:version="0.48.2 r9819"
   width="41.845001"
   height="41.848751"
   xml:space="preserve"
   sodipodi:docname="metawatch.indicator.ai"><metadata
     id="metadata8"><rdf:RDF><cc:Work
         rdf:about=""><dc:format>image/svg+xml</dc:format><dc:type
           rdf:resource="http://purl.org/dc/dcmitype/StillImage" /><dc:title></dc:title></cc:Work></rdf:RDF></metadata><defs
     id="defs6"><clipPath
       clipPathUnits="userSpaceOnUse"
       id="clipPath16"><path
         d="m 0,1224 1224,0 L 1224,0 0,0 0,1224 z"
         id="path18"
         inkscape:connector-curvature="0" /></clipPath></defs><sodipodi:namedview
     pagecolor="#ffffff"
     bordercolor="#666666"
     borderopacity="1"
     objecttolerance="10"
     gridtolerance="10"
     guidetolerance="10"
     inkscape:pageopacity="0"
     inkscape:pageshadow="2"
     inkscape:window-width="640"
     inkscape:window-height="480"
     id="namedview4"
     showgrid="false"
     fit-margin-top="0"
     fit-margin-left="0"
     fit-margin-right="0"
     fit-margin-bottom="0"
     inkscape:zoom="0.15424837"
     inkscape:cx="20.282875"
     inkscape:cy="21.655875"
     inkscape:window-x="0"
     inkscape:window-y="0"
     inkscape:window-maximized="0"
     inkscape:current-layer="g10" /><g
     id="g10"
     inkscape:groupmode="layer"
     inkscape:label="metawatch.indicator"
     transform="matrix(1.25,0,0,-1.25,-744.71712,785.19288)"><g
       id="g12"><g
         id="g14"
         clip-path="url(#clipPath16)"><g
           id="g20"
           transform="translate(612.5137,628.1543)"><path
             d="m 0,0 c -9.23,0 -16.74,-7.51 -16.74,-16.739 0,-9.232 7.51,-16.74 16.74,-16.74 9.229,0 16.736,7.508 16.736,16.74 C 16.736,-7.508 9.229,0 0,0"
             style="fill:#bf373a;fill-opacity:1;fill-rule:nonzero;stroke:none"
             id="path22"
             inkscape:connector-curvature="0" /></g><g
           id="g24"
           transform="translate(612.6211,597.0566)"><path
             d="m 0,0 c -7.928,0 -14.357,6.43 -14.357,14.358 0,7.929 6.43,14.357 14.357,14.357 7.932,0 14.359,-6.428 14.359,-14.357 C 14.359,6.43 7.932,0 0,0 m -0.108,29.973 c -8.624,0 -15.613,-6.992 -15.613,-15.615 0,-8.623 6.989,-15.613 15.613,-15.613 8.623,0 15.613,6.99 15.613,15.613 0,8.623 -6.99,15.615 -15.613,15.615"
             style="fill:#ffffff;fill-opacity:1;fill-rule:nonzero;stroke:none"
             id="path26"
             inkscape:connector-curvature="0" /></g><g
           id="g28"
           transform="translate(611.4229,615.4746)"><path
             d="M 0,0 -0.476,0 -2.625,-5.479 -4.891,0 l -0.384,0 -1.454,-5.095 -2.663,0 c -0.184,0.299 -0.511,0.5 -0.887,0.5 -0.574,0 -1.04,-0.465 -1.04,-1.04 0,-0.575 0.466,-1.042 1.04,-1.042 0.386,0 0.718,0.211 0.898,0.521 l 3.493,0 0,0.062 0.975,3.388 2.083,-5.424 0.43,0 2.241,5.683 0.69,-1.674 L 1.063,-2.56 0,0 z"
             style="fill:#ffffff;fill-opacity:1;fill-rule:nonzero;stroke:none"
             id="path30"
             inkscape:connector-curvature="0" /></g><g
           id="g32"
           transform="translate(613.5518,607.3457)"><path
             d="M 0,0 0.476,0 2.626,5.479 4.89,0 l 0.385,0 1.453,5.098 2.666,0 c 0.182,-0.302 0.509,-0.5 0.884,-0.5 0.575,0 1.041,0.465 1.041,1.039 0,0.573 -0.466,1.043 -1.041,1.043 -0.384,0 -0.716,-0.214 -0.896,-0.523 l -3.496,0 0,-0.063 L 4.912,2.707 2.83,8.13 2.399,8.13 0.158,2.447 -0.532,4.123 -1.064,2.561 0,0 z"
             style="fill:#ffffff;fill-opacity:1;fill-rule:nonzero;stroke:none"
             id="path34"
             inkscape:connector-curvature="0" /></g><g
           id="g36"
           transform="translate(611.4229,615.4746)"><path
             d="M 0,0 -0.476,0 -2.625,-5.479 -4.891,0 l -0.384,0 -1.454,-5.095 -2.663,0 c -0.184,0.299 -0.511,0.5 -0.887,0.5 -0.574,0 -1.04,-0.465 -1.04,-1.04 0,-0.575 0.466,-1.042 1.04,-1.042 0.386,0 0.718,0.211 0.898,0.521 l 3.493,0 0,0.062 0.975,3.388 2.083,-5.424 0.43,0 2.241,5.683 0.69,-1.674 L 1.063,-2.56 0,0 z"
             style="fill:#ffffff;fill-opacity:1;fill-rule:nonzero;stroke:none"
             id="path38"
             inkscape:connector-curvature="0" /></g></g></g></g></svg>