<?xml version="1.0" encoding="UTF-8" standalone="no"?>
<!-- Created with Inkscape (http://www.inkscape.org/) -->

<svg
   xmlns:dc="http://purl.org/dc/elements/1.1/"
   xmlns:cc="http://creativecommons.org/ns#"
   xmlns:rdf="http://www.w3.org/1999/02/22-rdf-syntax-ns#"
   xmlns:svg="http://www.w3.org/2000/svg"
   xmlns="http://www.w3.org/2000/svg"
   xmlns:sodipodi="http://sodipodi.sourceforge.net/DTD/sodipodi-0.dtd"
   xmlns:inkscape="http://www.inkscape.org/namespaces/inkscape"
   id="svg2"
   version="1.1"
   inkscape:version="0.48.2 r9819"
   width="516.24377"
   height="21.796249"
   xml:space="preserve"
   sodipodi:docname="track_progress.ai"><metadata
     id="metadata8"><rdf:RDF><cc:Work
         rdf:about=""><dc:format>image/svg+xml</dc:format><dc:type
           rdf:resource="http://purl.org/dc/dcmitype/StillImage" /><dc:title></dc:title></cc:Work></rdf:RDF></metadata><defs
     id="defs6"><linearGradient
       x1="0"
       y1="0"
       x2="1"
       y2="0"
       gradientUnits="userSpaceOnUse"
       gradientTransform="matrix(0,4.4375,4.4375,0,522.39746,610.07422)"
       spreadMethod="pad"
       id="linearGradient24"><stop
         style="stop-opacity:1;stop-color:#2c77bc"
         offset="0"
         id="stop26" /><stop
         style="stop-opacity:1;stop-color:#373535"
         offset="0.269424"
         id="stop28" /><stop
         style="stop-opacity:1;stop-color:#516875"
         offset="0.735748"
         id="stop30" /><stop
         style="stop-opacity:1;stop-color:#62c9f3"
         offset="1"
         id="stop32" /></linearGradient><linearGradient
       x1="0"
       y1="0"
       x2="1"
       y2="0"
       gradientUnits="userSpaceOnUse"
       gradientTransform="matrix(0,4.4375,4.4375,0,709.84668,610.07422)"
       spreadMethod="pad"
       id="linearGradient48"><stop
         style="stop-opacity:1;stop-color:#606163"
         offset="0"
         id="stop50" /><stop
         style="stop-opacity:1;stop-color:#4d4c4e"
         offset="0.502594"
         id="stop52" /><stop
         style="stop-opacity:1;stop-color:#373535"
         offset="1"
         id="stop54" /></linearGradient><linearGradient
       x1="0"
       y1="0"
       x2="1"
       y2="0"
       gradientUnits="userSpaceOnUse"
       gradientTransform="matrix(0,17.436523,17.436523,0,600.93652,603.57422)"
       spreadMethod="pad"
       id="linearGradient70"><stop
         style="stop-opacity:1;stop-color:#373535"
         offset="0"
         id="stop72" /><stop
         style="stop-opacity:1;stop-color:#4d4c4e"
         offset="1"
         id="stop74" /></linearGradient><linearGradient
       x1="0"
       y1="0"
       x2="1"
       y2="0"
       gradientUnits="userSpaceOnUse"
       gradientTransform="matrix(0,15.936523,15.936523,0,600.93506,604.32422)"
       spreadMethod="pad"
       id="linearGradient90"><stop
         style="stop-opacity:1;stop-color:#4d4c4e"
         offset="0"
         id="stop92" /><stop
         style="stop-opacity:1;stop-color:#373535"
         offset="1"
         id="stop94" /></linearGradient><clipPath
       clipPathUnits="userSpaceOnUse"
       id="clipPath102"><path
         d="m 0,1224 1224,0 L 1224,0 0,0 0,1224 z"
         id="path104"
         inkscape:connector-curvature="0" /></clipPath><linearGradient
       x1="0"
       y1="0"
       x2="1"
       y2="0"
       gradientUnits="userSpaceOnUse"
       gradientTransform="matrix(6.8994141,0,0,-6.8994141,597.48535,607.70898)"
       spreadMethod="pad"
       id="linearGradient122"><stop
         style="stop-opacity:1;stop-color:#373535"
         offset="0"
         id="stop124" /><stop
         style="stop-opacity:1;stop-color:#82d4f7"
         offset="0.507767"
         id="stop126" /><stop
         style="stop-opacity:1;stop-color:#373535"
         offset="1"
         id="stop128" /></linearGradient><radialGradient
       fx="0"
       fy="0"
       cx="0"
       cy="0"
       r="1"
       gradientUnits="userSpaceOnUse"
       gradientTransform="matrix(14.564102,0,0,-14.646118,598.73389,617.38477)"
       spreadMethod="pad"
       id="radialGradient144"><stop
         style="stop-opacity:1;stop-color:#007da8"
         offset="0"
         id="stop146" /><stop
         style="stop-opacity:1;stop-color:#69cef6"
         offset="1"
         id="stop148" /></radialGradient><linearGradient
       x1="0"
       y1="0"
       x2="1"
       y2="0"
       gradientUnits="userSpaceOnUse"
       gradientTransform="matrix(0,11.291992,11.291992,0,436.97363,606.66016)"
       spreadMethod="pad"
       id="linearGradient164"><stop
         style="stop-opacity:1;stop-color:#858789"
         offset="0"
         id="stop166" /><stop
         style="stop-opacity:1;stop-color:#373535"
         offset="1"
         id="stop168" /></linearGradient><linearGradient
       x1="0"
       y1="0"
       x2="1"
       y2="0"
       gradientUnits="userSpaceOnUse"
       gradientTransform="matrix(0,10.307129,10.307129,0,436.97314,607.15332)"
       spreadMethod="pad"
       id="linearGradient184"><stop
         style="stop-opacity:1;stop-color:#373535"
         offset="0"
         id="stop186" /><stop
         style="stop-opacity:1;stop-color:#858789"
         offset="1"
         id="stop188" /></linearGradient><linearGradient
       x1="0"
       y1="0"
       x2="1"
       y2="0"
       gradientUnits="userSpaceOnUse"
       gradientTransform="matrix(0,-10.764648,-10.764648,0,424.10596,617.42432)"
       spreadMethod="pad"
       id="linearGradient204"><stop
         style="stop-opacity:1;stop-color:#373535"
         offset="0"
         id="stop206" /><stop
         style="stop-opacity:1;stop-color:#858789"
         offset="1"
         id="stop208" /></linearGradient><linearGradient
       x1="0"
       y1="0"
       x2="1"
       y2="0"
       gradientUnits="userSpaceOnUse"
       gradientTransform="matrix(0,-9.5625,-9.5625,0,424.10547,616.82373)"
       spreadMethod="pad"
       id="linearGradient224"><stop
         style="stop-opacity:1;stop-color:#858789"
         offset="0"
         id="stop226" /><stop
         style="stop-opacity:1;stop-color:#373535"
         offset="1"
         id="stop228" /></linearGradient><linearGradient
       x1="0"
       y1="0"
       x2="1"
       y2="0"
       gradientUnits="userSpaceOnUse"
       gradientTransform="matrix(0,11.200195,11.200195,0,408.22119,606.66016)"
       spreadMethod="pad"
       id="linearGradient244"><stop
         style="stop-opacity:1;stop-color:#858789"
         offset="0"
         id="stop246" /><stop
         style="stop-opacity:1;stop-color:#373535"
         offset="1"
         id="stop248" /></linearGradient><linearGradient
       x1="0"
       y1="0"
       x2="1"
       y2="0"
       gradientUnits="userSpaceOnUse"
       gradientTransform="matrix(0,10.258789,10.258789,0,408.22266,607.13086)"
       spreadMethod="pad"
       id="linearGradient264"><stop
         style="stop-opacity:1;stop-color:#373535"
         offset="0"
         id="stop266" /><stop
         style="stop-opacity:1;stop-color:#858789"
         offset="1"
         id="stop268" /></linearGradient><linearGradient
       x1="0"
       y1="0"
       x2="1"
       y2="0"
       gradientUnits="userSpaceOnUse"
       gradientTransform="matrix(0,11.200195,11.200195,0,414.25537,606.66016)"
       spreadMethod="pad"
       id="linearGradient284"><stop
         style="stop-opacity:1;stop-color:#858789"
         offset="0"
         id="stop286" /><stop
         style="stop-opacity:1;stop-color:#373535"
         offset="1"
         id="stop288" /></linearGradient><linearGradient
       x1="0"
       y1="0"
       x2="1"
       y2="0"
       gradientUnits="userSpaceOnUse"
       gradientTransform="matrix(0,-10.258942,22.977005,0,414.25293,617.39062)"
       spreadMethod="pad"
       id="linearGradient304"><stop
         style="stop-opacity:1;stop-color:#858789"
         offset="0"
         id="stop306" /><stop
         style="stop-opacity:1;stop-color:#373535"
         offset="1"
         id="stop308" /></linearGradient></defs><sodipodi:namedview
     pagecolor="#ffffff"
     bordercolor="#666666"
     borderopacity="1"
     objecttolerance="10"
     gridtolerance="10"
     guidetolerance="10"
     inkscape:pageopacity="0"
     inkscape:pageshadow="2"
     inkscape:window-width="640"
     inkscape:window-height="480"
     id="namedview4"
     showgrid="false"
     fit-margin-top="0"
     fit-margin-left="0"
     fit-margin-right="0"
     fit-margin-bottom="0"
     inkscape:zoom="0.15424837"
     inkscape:cx="257.40125"
     inkscape:cy="10.5325"
     inkscape:window-x="0"
     inkscape:window-y="0"
     inkscape:window-maximized="0"
     inkscape:current-layer="g10" /><g
     id="g10"
     inkscape:groupmode="layer"
     inkscape:label="track_progress"
     transform="matrix(1.25,0,0,-1.25,-507.59875,776.26375)"><g
       id="g12"><g
         id="g14"><g
           id="g20"><g
             id="g22"><path
               d="m 600.62,610.074 -156.445,0 0,4.438 156.445,0 0,-4.438 z"
               style="fill:url(#linearGradient24);stroke:none"
               id="path34"
               inkscape:connector-curvature="0" /></g></g></g></g><g
       id="g36"><g
         id="g38"><g
           id="g44"><g
             id="g46"><path
               d="m 819.074,610.074 -218.454,0 0,4.438 218.454,0 0,-4.438 z"
               style="fill:url(#linearGradient48);stroke:none"
               id="path56"
               inkscape:connector-curvature="0" /></g></g></g></g><g
       id="g58"><g
         id="g60"><g
           id="g66"><g
             id="g68"><path
               d="m 595.25,615.292 0,-5.999 c 0,-3.155 2.549,-5.719 5.686,-5.719 l 0,0 c 3.135,0 5.687,2.564 5.687,5.719 l 0,0 0,5.999 c 0,3.155 -2.552,5.719 -5.687,5.719 l 0,0 c -3.137,0 -5.686,-2.564 -5.686,-5.719"
               style="fill:url(#linearGradient70);stroke:none"
               id="path76"
               inkscape:connector-curvature="0" /></g></g></g></g><g
       id="g78"><g
         id="g80"><g
           id="g86"><g
             id="g88"><path
               d="m 595.994,615.292 0,-5.999 c 0,-2.738 2.218,-4.969 4.942,-4.969 l 0,0 c 2.723,0 4.94,2.231 4.94,4.969 l 0,0 0,5.999 c 0,2.741 -2.217,4.969 -4.94,4.969 l 0,0 c -2.724,0 -4.942,-2.228 -4.942,-4.969"
               style="fill:url(#linearGradient90);stroke:none"
               id="path96"
               inkscape:connector-curvature="0" /></g></g></g></g><g
       id="g98"><g
         id="g100"
         clip-path="url(#clipPath102)"><g
           id="g106"
           transform="translate(600.9365,605.8242)"><path
             d="m 0,0 c -1.904,0 -3.451,1.557 -3.451,3.469 l 0,5.999 c 0,1.914 1.547,3.469 3.451,3.469 1.901,0 3.448,-1.555 3.448,-3.469 l 0,-5.999 C 3.448,1.557 1.901,0 0,0"
             style="fill:#373535;fill-opacity:1;fill-rule:nonzero;stroke:none"
             id="path108"
             inkscape:connector-curvature="0" /></g></g></g><g
       id="g110"><g
         id="g112"><g
           id="g118"><g
             id="g120"><path
               d="m 600.936,606.273 c -1.904,0 -3.45,1.555 -3.45,3.469 l 0,0 0,-0.598 c 0,-1.913 1.546,-3.468 3.45,-3.468 l 0,0 c 1.902,0 3.449,1.555 3.449,3.468 l 0,0 0,0.598 c 0,-1.914 -1.547,-3.469 -3.449,-3.469"
               style="fill:url(#linearGradient122);stroke:none"
               id="path130"
               inkscape:connector-curvature="0" /></g></g></g></g><g
       id="g132"><g
         id="g134"><g
           id="g140"><g
             id="g142"><path
               d="m 598.233,615.292 0,-5.999 c 0,-1.502 1.209,-2.719 2.703,-2.719 l 0,0 c 1.492,0 2.704,1.217 2.704,2.719 l 0,0 0,5.999 c 0,1.502 -1.212,2.719 -2.704,2.719 l 0,0 c -1.494,0 -2.703,-1.217 -2.703,-2.719"
               style="fill:url(#radialGradient144);stroke:none"
               id="path150"
               inkscape:connector-curvature="0" /></g></g></g></g><g
       id="g152"><g
         id="g154"><g
           id="g160"><g
             id="g162"><path
               d="m 433.876,617.905 c -0.479,-0.163 -0.765,-0.628 -0.765,-1.246 l 0,0 0,-8.706 c 0,-0.617 0.286,-1.082 0.765,-1.244 l 0,0 c 0.096,-0.032 0.198,-0.049 0.301,-0.049 l 0,0 c 0.491,0 0.982,0.354 1.439,0.736 l 0,0 4.809,4.058 c 0.261,0.219 0.412,0.53 0.412,0.854 l 0,0 c -0.002,0.322 -0.151,0.632 -0.41,0.848 l 0,0 -4.811,4.062 c -0.457,0.382 -0.948,0.735 -1.439,0.735 l 0,0 c -0.103,0 -0.206,-0.016 -0.301,-0.048"
               style="fill:url(#linearGradient164);stroke:none"
               id="path170"
               inkscape:connector-curvature="0" /></g></g></g></g><g
       id="g172"><g
         id="g174"><g
           id="g180"><g
             id="g182"><path
               d="m 434.034,617.439 c -0.263,-0.09 -0.431,-0.363 -0.431,-0.78 l 0,0 0,-4.353 0,-4.353 c 0,-0.414 0.168,-0.69 0.431,-0.777 l 0,0 c 0.383,-0.129 0.953,0.336 1.265,0.598 l 0,0 4.809,4.058 c 0.314,0.262 0.314,0.687 0,0.947 l 0,0 -4.809,4.06 c -0.275,0.231 -0.751,0.622 -1.122,0.622 l 0,0 c -0.05,0 -0.098,-0.007 -0.143,-0.022"
               style="fill:url(#linearGradient184);stroke:none"
               id="path190"
               inkscape:connector-curvature="0" /></g></g></g></g><g
       id="g192"><g
         id="g194"><g
           id="g200"><g
             id="g202"><path
               d="m 420.751,617.424 c -1.117,0 -2.026,-0.909 -2.026,-2.027 l 0,0 0,-6.707 c 0,-1.118 0.909,-2.03 2.026,-2.03 l 0,0 6.71,0 c 1.116,0 2.026,0.912 2.026,2.03 l 0,0 0,6.707 c 0,1.118 -0.91,2.027 -2.026,2.027 l 0,0 -6.71,0 z"
               style="fill:url(#linearGradient204);stroke:none"
               id="path210"
               inkscape:connector-curvature="0" /></g></g></g></g><g
       id="g212"><g
         id="g214"><g
           id="g220"><g
             id="g222"><path
               d="m 420.751,616.824 c -0.789,0 -1.426,-0.637 -1.426,-1.427 l 0,0 0,-6.707 c 0,-0.789 0.637,-1.429 1.426,-1.429 l 0,0 6.71,0 c 0.788,0 1.425,0.64 1.425,1.429 l 0,0 0,6.707 c 0,0.79 -0.637,1.427 -1.425,1.427 l 0,0 -6.71,0 z"
               style="fill:url(#linearGradient224);stroke:none"
               id="path230"
               inkscape:connector-curvature="0" /></g></g></g></g><g
       id="g232"><g
         id="g234"><g
           id="g240"><g
             id="g242"><path
               d="m 406.079,616.75 0,-8.981 c 0,-0.621 0.94,-1.109 2.14,-1.109 l 0,0 c 1.202,0 2.144,0.488 2.144,1.109 l 0,0 0,8.981 c 0,0.62 -0.942,1.111 -2.144,1.111 l 0,0 c -1.2,0 -2.14,-0.491 -2.14,-1.111"
               style="fill:url(#linearGradient244);stroke:none"
               id="path250"
               inkscape:connector-curvature="0" /></g></g></g></g><g
       id="g252"><g
         id="g254"><g
           id="g260"><g
             id="g262"><path
               d="m 406.788,616.75 0,-8.981 c 0,-0.353 0.643,-0.638 1.431,-0.638 l 0,0 c 0.79,0 1.439,0.285 1.439,0.638 l 0,0 0,8.981 c 0,0.353 -0.649,0.64 -1.439,0.64 l 0,0 c -0.788,0 -1.431,-0.287 -1.431,-0.64"
               style="fill:url(#linearGradient264);stroke:none"
               id="path270"
               inkscape:connector-curvature="0" /></g></g></g></g><g
       id="g272"><g
         id="g274"><g
           id="g280"><g
             id="g282"><path
               d="m 412.113,616.75 0,-8.981 c 0,-0.621 0.938,-1.109 2.141,-1.109 l 0,0 c 1.202,0 2.144,0.488 2.144,1.109 l 0,0 0,8.981 c 0,0.62 -0.942,1.111 -2.144,1.111 l 0,0 c -1.203,0 -2.141,-0.491 -2.141,-1.111"
               style="fill:url(#linearGradient284);stroke:none"
               id="path290"
               inkscape:connector-curvature="0" /></g></g></g></g><g
       id="g292"><g
         id="g294"><g
           id="g300"><g
             id="g302"><path
               d="m 412.818,616.75 0,-8.981 c 0,-0.353 0.645,-0.638 1.436,-0.638 l 0,0 c 0.786,0 1.434,0.285 1.434,0.638 l 0,0 0,8.981 c 0,0.353 -0.648,0.64 -1.434,0.64 l 0,0 c -0.791,0 -1.436,-0.287 -1.436,-0.64"
               style="fill:url(#linearGradient304);stroke:none"
               id="path310"
               inkscape:connector-curvature="0" /></g></g></g></g></g></svg>