<?xml version="1.0" encoding="UTF-8" standalone="no"?>
<!-- Created with Inkscape (http://www.inkscape.org/) -->

<svg
   xmlns:dc="http://purl.org/dc/elements/1.1/"
   xmlns:cc="http://creativecommons.org/ns#"
   xmlns:rdf="http://www.w3.org/1999/02/22-rdf-syntax-ns#"
   xmlns:svg="http://www.w3.org/2000/svg"
   xmlns="http://www.w3.org/2000/svg"
   xmlns:sodipodi="http://sodipodi.sourceforge.net/DTD/sodipodi-0.dtd"
   xmlns:inkscape="http://www.inkscape.org/namespaces/inkscape"
   id="svg2"
   version="1.1"
   inkscape:version="0.48.2 r9819"
   width="17.77"
   height="27.24625"
   xml:space="preserve"
   sodipodi:docname="track-progress-knob.ai"><metadata
     id="metadata8"><rdf:RDF><cc:Work
         rdf:about=""><dc:format>image/svg+xml</dc:format><dc:type
           rdf:resource="http://purl.org/dc/dcmitype/StillImage" /><dc:title></dc:title></cc:Work></rdf:RDF></metadata><defs
     id="defs6"><linearGradient
       x1="0"
       y1="0"
       x2="1"
       y2="0"
       gradientUnits="userSpaceOnUse"
       gradientTransform="matrix(0,21.795654,-21.795654,0,291.95312,385.57812)"
       spreadMethod="pad"
       id="linearGradient24"><stop
         style="stop-opacity:1;stop-color:#464444"
         offset="0"
         id="stop26" /><stop
         style="stop-opacity:1;stop-color:#575758"
         offset="1"
         id="stop28" /></linearGradient><linearGradient
       x1="0"
       y1="0"
       x2="1"
       y2="0"
       gradientUnits="userSpaceOnUse"
       gradientTransform="matrix(0,19.920654,-19.920654,0,291.96875,386.53125)"
       spreadMethod="pad"
       id="linearGradient44"><stop
         style="stop-opacity:1;stop-color:#575758"
         offset="0"
         id="stop46" /><stop
         style="stop-opacity:1;stop-color:#464444"
         offset="1"
         id="stop48" /></linearGradient><clipPath
       clipPathUnits="userSpaceOnUse"
       id="clipPath56"><path
         d="M 0,0 612,0 612,792 0,792 0,0 z"
         id="path58"
         inkscape:connector-curvature="0" /></clipPath><linearGradient
       x1="0"
       y1="0"
       x2="1"
       y2="0"
       gradientUnits="userSpaceOnUse"
       gradientTransform="matrix(8.6200562,0,0,8.6200562,287.64063,390.77344)"
       spreadMethod="pad"
       id="linearGradient76"><stop
         style="stop-opacity:1;stop-color:#464444"
         offset="0"
         id="stop78" /><stop
         style="stop-opacity:1;stop-color:#87d5f7"
         offset="0.507767"
         id="stop80" /><stop
         style="stop-opacity:1;stop-color:#464444"
         offset="1"
         id="stop82" /></linearGradient><radialGradient
       fx="0"
       fy="0"
       cx="0"
       cy="0"
       r="1"
       gradientUnits="userSpaceOnUse"
       gradientTransform="matrix(18.205124,0,0,18.307648,289.1875,402.85937)"
       spreadMethod="pad"
       id="radialGradient98"><stop
         style="stop-opacity:1;stop-color:#2783ac"
         offset="0"
         id="stop100" /><stop
         style="stop-opacity:1;stop-color:#72cff6"
         offset="1"
         id="stop102" /></radialGradient></defs><sodipodi:namedview
     pagecolor="#ffffff"
     bordercolor="#666666"
     borderopacity="1"
     objecttolerance="10"
     gridtolerance="10"
     guidetolerance="10"
     inkscape:pageopacity="0"
     inkscape:pageshadow="2"
     inkscape:window-width="640"
     inkscape:window-height="480"
     id="namedview4"
     showgrid="false"
     fit-margin-top="0"
     fit-margin-left="0"
     fit-margin-right="0"
     fit-margin-bottom="0"
     inkscape:zoom="0.23838384"
     inkscape:cx="26.4475"
     inkscape:cy="12.99875"
     inkscape:window-x="0"
     inkscape:window-y="0"
     inkscape:window-maximized="0"
     inkscape:current-layer="g10" /><g
     id="g10"
     inkscape:groupmode="layer"
     inkscape:label="track-progress-knob"
     transform="matrix(1.25,0,0,-1.25,-356.0525,509.2475)"><g
       id="g12"><g
         id="g14"><g
           id="g20"><g
             id="g22"><path
               d="m 284.842,400.249 0,-7.498 c 0,-3.945 3.186,-7.15 7.107,-7.15 l 0,0 c 3.919,0 7.109,3.205 7.109,7.15 l 0,0 0,7.498 c 0,3.945 -3.19,7.149 -7.109,7.149 l 0,0 c -3.921,0 -7.107,-3.204 -7.107,-7.149"
               style="fill:url(#linearGradient24);stroke:none"
               id="path30"
               inkscape:connector-curvature="0" /></g></g></g></g><g
       id="g32"><g
         id="g34"><g
           id="g40"><g
             id="g42"><path
               d="m 285.772,400.249 0,-7.498 c 0,-3.423 2.772,-6.212 6.177,-6.212 l 0,0 c 3.404,0 6.175,2.789 6.175,6.212 l 0,0 0,7.498 c 0,3.427 -2.771,6.212 -6.175,6.212 l 0,0 c -3.405,0 -6.177,-2.785 -6.177,-6.212"
               style="fill:url(#linearGradient44);stroke:none"
               id="path50"
               inkscape:connector-curvature="0" /></g></g></g></g><g
       id="g52"><g
         id="g54"
         clip-path="url(#clipPath56)"><g
           id="g60"
           transform="translate(291.9497,388.415)"><path
             d="m 0,0 c -2.38,0 -4.313,1.946 -4.313,4.336 l 0,7.499 c 0,2.393 1.933,4.336 4.313,4.336 2.376,0 4.31,-1.943 4.31,-4.336 l 0,-7.499 C 4.31,1.946 2.376,0 0,0"
             style="fill:#454444;fill-opacity:1;fill-rule:nonzero;stroke:none"
             id="path62"
             inkscape:connector-curvature="0" /></g></g></g><g
       id="g64"><g
         id="g66"><g
           id="g72"><g
             id="g74"><path
               d="m 291.949,388.975 c -2.379,0 -4.313,1.944 -4.313,4.337 l 0,0 0,-0.747 c 0,-2.393 1.934,-4.336 4.313,-4.336 l 0,0 c 2.378,0 4.311,1.943 4.311,4.336 l 0,0 0,0.747 c 0,-2.393 -1.933,-4.337 -4.311,-4.337"
               style="fill:url(#linearGradient76);stroke:none"
               id="path84"
               inkscape:connector-curvature="0" /></g></g></g></g><g
       id="g86"><g
         id="g88"><g
           id="g94"><g
             id="g96"><path
               d="m 288.571,400.249 0,-7.498 c 0,-1.878 1.511,-3.399 3.378,-3.399 l 0,0 c 1.865,0 3.38,1.521 3.38,3.399 l 0,0 0,7.498 c 0,1.878 -1.515,3.399 -3.38,3.399 l 0,0 c -1.867,0 -3.378,-1.521 -3.378,-3.399"
               style="fill:url(#radialGradient98);stroke:none"
               id="path104"
               inkscape:connector-curvature="0" /></g></g></g></g></g></svg>