<?xml version="1.0" encoding="utf-8"?>
<!-- Generator: Adobe Illustrator 15.1.0, SVG Export Plug-In . SVG Version: 6.00 Build 0)  -->
<!DOCTYPE svg PUBLIC "-//W3C//DTD SVG 1.1//EN" "http://www.w3.org/Graphics/SVG/1.1/DTD/svg11.dtd">
<svg version="1.1"
	 id="svg3381" xmlns:inkscape="http://www.inkscape.org/namespaces/inkscape" xmlns:dc="http://purl.org/dc/elements/1.1/" xmlns:cc="http://creativecommons.org/ns#" xmlns:rdf="http://www.w3.org/1999/02/22-rdf-syntax-ns#" xmlns:svg="http://www.w3.org/2000/svg" sodipodi:docname="volume.control.ai" inkscape:version="0.48.2 r9819" xmlns:sodipodi="http://sodipodi.sourceforge.net/DTD/sodipodi-0.dtd"
	 xmlns="http://www.w3.org/2000/svg" xmlns:xlink="http://www.w3.org/1999/xlink" x="0px" y="0px" width="175.415px"
	 height="170.668px" viewBox="0 0 175.415 170.668" enable-background="new 0 0 175.415 170.668" xml:space="preserve">
<sodipodi:namedview  fit-margin-top="0" pagecolor="#ffffff" bordercolor="#666666" inkscape:window-maximized="0" inkscape:window-y="0" inkscape:window-x="0" inkscape:window-height="480" showgrid="false" inkscape:current-layer="g3389" inkscape:cy="84.81375" inkscape:cx="87.146" inkscape:pageshadow="2" inkscape:pageopacity="0" borderopacity="1" inkscape:zoom="0.15424837" id="namedview3383" inkscape:window-width="640" guidetolerance="10" gridtolerance="10" objecttolerance="10" fit-margin-right="0" fit-margin-bottom="0" fit-margin-left="0">
	</sodipodi:namedview>
<g>
	<g>
		<path display="none" fill="#262626" d="M87.597,0.5C39.718,0.5,0.905,39.314,0.905,87.189c0,32.226,17.6,60.326,43.698,75.268
			l0.004-0.006c-1.381-1.307-2.213-2.932-2.213-4.699c0-0.26,0.021-0.514,0.053-0.761C19.578,142.15,4.396,116.426,4.396,87.189
			c0-45.874,37.323-83.198,83.201-83.198s83.2,37.325,83.2,83.198c0,29.235-15.182,54.961-38.049,69.802
			c0.029,0.247,0.051,0.501,0.051,0.761c0,1.768-0.83,3.395-2.209,4.699l0.002,0.006c26.098-14.941,43.697-43.042,43.697-75.268
			C174.29,39.314,135.477,0.5,87.597,0.5z"/>
		
			<linearGradient id="SVGID_1_" gradientUnits="userSpaceOnUse" x1="96.3755" y1="3.2065" x2="78.7632" y2="166.2689" gradientTransform="matrix(1 0 0 -1 0 171.668)">
			<stop  offset="0" style="stop-color:#0C0D0D"/>
			<stop  offset="0.2953" style="stop-color:#2D2D2D"/>
			<stop  offset="0.5" style="stop-color:#0070A2"/>
			<stop  offset="0.6839" style="stop-color:#2D2D2D"/>
			<stop  offset="0.7911" style="stop-color:#282929"/>
			<stop  offset="0.9113" style="stop-color:#1B1B1B"/>
			<stop  offset="1" style="stop-color:#0C0D0D"/>
		</linearGradient>
		<path display="none" fill="url(#SVGID_1_)" d="M169.596,87.189c0,45.287-36.713,82-81.999,82c-45.287,0-81.998-36.713-81.998-82
			c0-45.283,36.711-81.998,81.998-81.998C132.883,5.192,169.596,41.906,169.596,87.189z"/>
		<path fill="#43C5EB" d="M55.373,8.59c0.158,0.352,0,0.763-0.353,0.917l-3.357,1.499c-0.351,0.155-0.763-0.004-0.917-0.354l0,0
			c-0.157-0.348,0.003-0.761,0.35-0.917l3.362-1.496C54.809,8.081,55.22,8.24,55.373,8.59L55.373,8.59z"/>
		<path fill="#43C5EB" d="M47.334,12.389c0.191,0.335,0.08,0.759-0.256,0.951l-3.182,1.838c-0.334,0.19-0.759,0.076-0.949-0.257l0,0
			c-0.193-0.33-0.076-0.757,0.253-0.947l3.186-1.839C46.719,11.942,47.144,12.056,47.334,12.389L47.334,12.389z"/>
		<path fill="#43C5EB" d="M39.736,17.007c0.225,0.314,0.158,0.745-0.156,0.97l-2.972,2.164c-0.312,0.225-0.749,0.153-0.971-0.155
			l0,0c-0.227-0.308-0.155-0.746,0.153-0.971l2.976-2.161C39.078,16.628,39.512,16.696,39.736,17.007L39.736,17.007z"/>
		<path fill="#43C5EB" d="M32.663,22.396c0.255,0.285,0.233,0.724-0.053,0.98l-2.732,2.461c-0.284,0.255-0.726,0.232-0.979-0.054
			l0,0c-0.259-0.283-0.232-0.724,0.05-0.98l2.732-2.461C31.967,22.088,32.407,22.109,32.663,22.396L32.663,22.396z"/>
		<g>
			<path fill="#43C5EB" d="M26.19,28.491c0.285,0.261,0.31,0.695,0.05,0.981l-2.46,2.735c-0.256,0.283-0.697,0.305-0.98,0.048l0,0
				c-0.287-0.253-0.307-0.695-0.053-0.979l2.461-2.734C25.466,28.257,25.906,28.235,26.19,28.491L26.19,28.491z"/>
			<path fill="#43C5EB" d="M20.392,35.234c0.309,0.225,0.378,0.657,0.152,0.97l-2.16,2.976c-0.228,0.309-0.664,0.377-0.973,0.153
				l0,0c-0.312-0.224-0.377-0.663-0.154-0.971l2.161-2.976C19.646,35.076,20.081,35.007,20.392,35.234L20.392,35.234z"/>
			<path fill="#43C5EB" d="M15.326,42.542c0.332,0.192,0.448,0.616,0.253,0.949l-1.836,3.186c-0.193,0.33-0.621,0.444-0.951,0.253
				l0,0c-0.334-0.189-0.442-0.62-0.253-0.949l1.838-3.186C14.571,42.463,14.996,42.35,15.326,42.542L15.326,42.542z"/>
			<path fill="#43C5EB" d="M11.055,50.343c0.35,0.156,0.508,0.564,0.352,0.917l-1.496,3.359c-0.158,0.35-0.569,0.509-0.917,0.351
				l0,0c-0.352-0.152-0.503-0.568-0.351-0.917l1.494-3.361C10.295,50.344,10.706,50.184,11.055,50.343L11.055,50.343z"/>
			<path fill="#43C5EB" d="M7.623,58.545c0.362,0.121,0.564,0.507,0.444,0.877L6.93,62.918c-0.119,0.363-0.511,0.565-0.873,0.447
				l0,0c-0.367-0.117-0.563-0.512-0.446-0.874l1.134-3.501C6.869,58.625,7.259,58.424,7.623,58.545L7.623,58.545z"/>
			<path fill="#43C5EB" d="M5.065,67.061c0.375,0.082,0.615,0.448,0.536,0.826l-0.766,3.596c-0.08,0.376-0.45,0.615-0.822,0.535l0,0
				c-0.379-0.078-0.615-0.449-0.534-0.823l0.76-3.599C4.322,67.219,4.691,66.979,5.065,67.061L5.065,67.061z"/>
			<path fill="#43C5EB" d="M3.413,75.797c0.381,0.043,0.658,0.38,0.62,0.767L3.646,80.22c-0.042,0.381-0.384,0.659-0.762,0.617l0,0
				c-0.384-0.037-0.66-0.38-0.618-0.761l0.381-3.659C2.691,76.033,3.032,75.758,3.413,75.797L3.413,75.797z"/>
			<path fill="#43C5EB" d="M2.684,84.661c0.384,0.002,0.696,0.309,0.696,0.695l-0.003,3.671c0,0.387-0.311,0.699-0.693,0.697l0,0
				c-0.386,0.002-0.695-0.312-0.693-0.695l-0.007-3.675C1.988,84.969,2.301,84.659,2.684,84.661L2.684,84.661z"/>
			<path fill="#43C5EB" d="M2.885,93.547c0.381-0.036,0.721,0.236,0.763,0.621l0.384,3.655c0.038,0.384-0.239,0.726-0.619,0.763l0,0
				c-0.381,0.044-0.724-0.234-0.762-0.617l-0.39-3.656C2.223,93.928,2.502,93.589,2.885,93.547L2.885,93.547z"/>
			<path fill="#43C5EB" d="M4.014,102.37c0.374-0.08,0.743,0.157,0.823,0.534l0.763,3.594c0.08,0.377-0.159,0.75-0.534,0.825l0,0
				c-0.375,0.084-0.745-0.159-0.824-0.534l-0.768-3.596C3.394,102.812,3.637,102.447,4.014,102.37L4.014,102.37z"/>
			<path fill="#43C5EB" d="M6.059,111.023c0.363-0.118,0.754,0.078,0.875,0.445l1.134,3.497c0.118,0.364-0.082,0.761-0.444,0.875
				l0,0c-0.367,0.121-0.761-0.082-0.876-0.446l-1.139-3.496C5.488,111.529,5.691,111.139,6.059,111.023L6.059,111.023z"/>
			<path fill="#43C5EB" d="M8.997,119.415c0.349-0.155,0.757-0.002,0.917,0.353l1.493,3.357c0.155,0.354-0.002,0.766-0.352,0.919
				l0,0c-0.35,0.159-0.765,0-0.917-0.354l-1.499-3.356C8.483,119.979,8.643,119.568,8.997,119.415L8.997,119.415z"/>
			<path fill="#43C5EB" d="M12.794,127.455c0.332-0.189,0.753-0.08,0.949,0.253l1.836,3.187c0.193,0.332,0.078,0.762-0.253,0.947
				l0,0c-0.331,0.195-0.761,0.082-0.949-0.255l-1.84-3.183C12.342,128.07,12.459,127.643,12.794,127.455L12.794,127.455z"/>
			<path fill="#43C5EB" d="M17.414,135.052c0.309-0.222,0.742-0.159,0.971,0.155l2.16,2.977c0.226,0.312,0.157,0.748-0.152,0.969
				l0,0c-0.311,0.228-0.752,0.16-0.973-0.155l-2.162-2.972C17.028,135.711,17.1,135.277,17.414,135.052L17.414,135.052z"/>
			<path fill="#43C5EB" d="M22.802,142.129c0.284-0.254,0.718-0.238,0.98,0.051l2.458,2.729c0.259,0.29,0.235,0.729-0.05,0.983l0,0
				c-0.282,0.26-0.729,0.239-0.983-0.056l-2.461-2.729C22.486,142.822,22.513,142.383,22.802,142.129L22.802,142.129z"/>
			<path fill="#43C5EB" d="M28.899,148.6c0.256-0.281,0.688-0.312,0.98-0.053l2.73,2.462c0.286,0.259,0.31,0.7,0.053,0.981l0,0
				c-0.253,0.287-0.702,0.311-0.983,0.051l-2.733-2.456C28.658,149.324,28.639,148.883,28.899,148.6L28.899,148.6z"/>
			<path fill="#43C5EB" d="M35.64,154.398c0.224-0.31,0.651-0.381,0.97-0.154l2.971,2.162c0.313,0.229,0.384,0.666,0.156,0.971l0,0
				c-0.223,0.311-0.664,0.383-0.971,0.15l-2.976-2.157C35.476,155.146,35.409,154.711,35.64,154.398L35.64,154.398z"/>
		</g>
		<path fill="#43C5EB" d="M135.458,157.373c-0.221-0.307-0.162-0.734,0.156-0.967l2.971-2.158c0.316-0.229,0.752-0.161,0.977,0.157
			l0,0c0.229,0.3,0.152,0.741-0.159,0.963l-2.967,2.169C136.118,157.766,135.681,157.688,135.458,157.373L135.458,157.373z"/>
		<path fill="#43C5EB" d="M142.528,151.986c-0.246-0.283-0.232-0.715,0.059-0.977l2.729-2.46c0.289-0.259,0.729-0.237,0.985,0.058
			l0,0c0.257,0.271,0.232,0.719-0.057,0.972l-2.727,2.468C143.228,152.307,142.788,152.277,142.528,151.986L142.528,151.986z"/>
		<path fill="#43C5EB" d="M149.002,145.887c-0.279-0.254-0.312-0.682-0.047-0.974l2.455-2.729c0.264-0.293,0.701-0.313,0.987-0.049
			l0,0c0.285,0.246,0.306,0.691,0.049,0.975l-2.456,2.736C149.729,146.135,149.29,146.152,149.002,145.887L149.002,145.887z"/>
		<path fill="#43C5EB" d="M154.799,139.148c-0.305-0.227-0.379-0.648-0.147-0.965l2.157-2.972c0.232-0.317,0.666-0.387,0.979-0.149
			l0,0c0.308,0.211,0.373,0.652,0.147,0.963l-2.153,2.976C155.551,139.316,155.114,139.379,154.799,139.148L154.799,139.148z"/>
		<path fill="#43C5EB" d="M159.863,131.84c-0.325-0.191-0.446-0.605-0.249-0.945l1.838-3.181c0.195-0.339,0.619-0.452,0.957-0.251
			l0,0c0.324,0.178,0.438,0.609,0.246,0.941l-1.833,3.185C160.625,131.93,160.2,132.035,159.863,131.84L159.863,131.84z"/>
		<path fill="#43C5EB" d="M164.133,124.042c-0.344-0.157-0.508-0.556-0.346-0.917l1.494-3.354c0.159-0.358,0.568-0.515,0.924-0.352
			l0,0c0.344,0.146,0.502,0.562,0.344,0.911l-1.486,3.358C164.904,124.053,164.488,124.201,164.133,124.042L164.133,124.042z"/>
		<path fill="#43C5EB" d="M167.569,115.84c-0.359-0.121-0.564-0.497-0.439-0.877l1.134-3.488c0.122-0.375,0.513-0.568,0.88-0.447
			l0,0c0.359,0.109,0.561,0.509,0.438,0.871l-1.127,3.496C168.334,115.77,167.938,115.961,167.569,115.84L167.569,115.84z"/>
		<path fill="#43C5EB" d="M170.125,107.323c-0.369-0.083-0.612-0.435-0.528-0.825l0.763-3.592c0.081-0.383,0.45-0.616,0.829-0.534
			l0,0c0.369,0.071,0.606,0.446,0.526,0.823l-0.756,3.594C170.875,107.172,170.504,107.405,170.125,107.323L170.125,107.323z"/>
		<path fill="#43C5EB" d="M171.776,98.586c-0.375-0.045-0.654-0.37-0.611-0.763l0.381-3.653c0.043-0.389,0.386-0.662,0.771-0.617
			l0,0c0.373,0.029,0.65,0.377,0.609,0.76l-0.375,3.656C172.51,98.357,172.163,98.63,171.776,98.586L171.776,98.586z"/>
		<path fill="#43C5EB" d="M172.506,89.727c-0.381-0.004-0.69-0.301-0.688-0.699V85.36c0-0.392,0.312-0.699,0.7-0.695l0,0
			c0.375-0.008,0.686,0.309,0.686,0.691l0.01,3.671C173.211,89.42,172.893,89.729,172.506,89.727L172.506,89.727z"/>
		<path fill="#43C5EB" d="M172.305,80.839c-0.379,0.036-0.719-0.228-0.76-0.62l-0.381-3.654c-0.041-0.389,0.237-0.729,0.623-0.766
			l0,0c0.373-0.046,0.715,0.237,0.754,0.619l0.393,3.653C172.976,80.463,172.69,80.8,172.305,80.839L172.305,80.839z"/>
		<path fill="#43C5EB" d="M171.178,72.018c-0.373,0.077-0.738-0.148-0.819-0.536l-0.763-3.593c-0.081-0.383,0.158-0.75,0.537-0.826
			l0,0c0.367-0.085,0.736,0.161,0.818,0.536l0.772,3.59C171.807,71.575,171.559,71.943,171.178,72.018L171.178,72.018z"/>
		<path fill="#43C5EB" d="M169.131,63.366c-0.36,0.113-0.748-0.071-0.869-0.449l-1.133-3.495c-0.123-0.372,0.078-0.761,0.451-0.877
			l0,0c0.354-0.123,0.748,0.083,0.864,0.448l1.146,3.491C169.711,62.86,169.504,63.25,169.131,63.366L169.131,63.366z"/>
		<path fill="#43C5EB" d="M166.196,54.974c-0.349,0.152-0.754,0.007-0.912-0.355l-1.494-3.355c-0.158-0.359,0-0.767,0.356-0.919l0,0
			c0.341-0.16,0.756,0.003,0.911,0.354l1.502,3.352C166.717,54.408,166.551,54.819,166.196,54.974L166.196,54.974z"/>
		<path fill="#43C5EB" d="M162.396,46.934c-0.329,0.188-0.747,0.087-0.944-0.259l-1.834-3.18c-0.197-0.339-0.08-0.761,0.258-0.952
			l0,0c0.322-0.192,0.752-0.076,0.942,0.258l1.845,3.177C162.858,46.319,162.735,46.744,162.396,46.934L162.396,46.934z"/>
		<path fill="#43C5EB" d="M157.778,39.336c-0.309,0.221-0.734,0.163-0.967-0.16l-2.157-2.97c-0.229-0.315-0.159-0.75,0.161-0.976
			l0,0c0.297-0.223,0.736-0.152,0.963,0.158l2.165,2.967C158.172,38.674,158.094,39.112,157.778,39.336L157.778,39.336z"/>
		<path fill="#43C5EB" d="M152.389,32.263c-0.281,0.251-0.711,0.24-0.977-0.057l-2.455-2.73c-0.263-0.289-0.236-0.727,0.057-0.984
			l0,0c0.27-0.256,0.719-0.229,0.972,0.054l2.468,2.727C152.715,31.565,152.682,32.006,152.389,32.263L152.389,32.263z"/>
		<path fill="#43C5EB" d="M146.293,25.792c-0.254,0.279-0.683,0.311-0.978,0.046l-2.729-2.457c-0.289-0.265-0.312-0.702-0.049-0.987
			l0,0c0.244-0.284,0.691-0.304,0.977-0.048l2.736,2.452C146.543,25.064,146.555,25.505,146.293,25.792L146.293,25.792z"/>
		<path fill="#43C5EB" d="M139.551,19.992c-0.221,0.305-0.645,0.38-0.965,0.149l-2.971-2.161c-0.316-0.232-0.384-0.663-0.15-0.975
			l0,0c0.214-0.307,0.654-0.375,0.967-0.151l2.975,2.153C139.729,19.242,139.786,19.682,139.551,19.992L139.551,19.992z"/>
		<path fill="#43C5EB" d="M132.245,14.93c-0.19,0.325-0.603,0.448-0.945,0.249l-3.18-1.838c-0.336-0.196-0.451-0.621-0.254-0.952
			l0,0c0.18-0.33,0.613-0.442,0.943-0.25l3.188,1.827C132.34,14.164,132.444,14.596,132.245,14.93L132.245,14.93z"/>
		<path fill="#43C5EB" d="M124.448,10.661c-0.156,0.342-0.554,0.504-0.917,0.344l-3.353-1.496c-0.356-0.161-0.516-0.572-0.354-0.921
			l0,0c0.146-0.345,0.563-0.501,0.913-0.349l3.36,1.488C124.461,9.889,124.61,10.307,124.448,10.661L124.448,10.661z"/>
	</g>
	<path fill="#43C5EB" d="M90.131,2.28c0,0.384-0.312,0.695-0.695,0.695h-3.678c-0.384,0-0.695-0.311-0.695-0.695l0,0
		c0-0.384,0.311-0.695,0.695-0.695h3.678C89.821,1.585,90.131,1.896,90.131,2.28L90.131,2.28z"/>
	<path fill="#43C5EB" d="M81.241,2.481c0.042,0.38-0.236,0.723-0.617,0.763l-3.659,0.384c-0.38,0.04-0.72-0.238-0.762-0.619l0,0
		c-0.042-0.381,0.237-0.724,0.617-0.764l3.659-0.384C80.859,1.821,81.203,2.099,81.241,2.481L81.241,2.481z"/>
	<path fill="#43C5EB" d="M72.421,3.606c0.079,0.377-0.16,0.747-0.537,0.826l-3.596,0.766c-0.375,0.081-0.745-0.162-0.825-0.536l0,0
		C67.383,4.286,67.626,3.918,68,3.839l3.597-0.765C71.974,2.992,72.342,3.232,72.421,3.606L72.421,3.606z"/>
	<path fill="#43C5EB" d="M63.768,5.651c0.118,0.367-0.082,0.76-0.45,0.879l-3.494,1.134c-0.367,0.12-0.758-0.083-0.876-0.445l0,0
		c-0.12-0.363,0.082-0.756,0.444-0.876l3.499-1.137C63.257,5.087,63.649,5.287,63.768,5.651L63.768,5.651z"/>
	<path fill="#43C5EB" d="M116.243,7.227c-0.115,0.358-0.492,0.561-0.869,0.438l-3.494-1.134c-0.371-0.122-0.569-0.514-0.446-0.879
		l0,0c0.108-0.359,0.509-0.562,0.872-0.442l3.498,1.126C116.176,6.458,116.37,6.861,116.243,7.227L116.243,7.227z"/>
	<path fill="#43C5EB" d="M107.729,4.671c-0.081,0.368-0.436,0.609-0.82,0.528l-3.596-0.768c-0.379-0.08-0.619-0.448-0.535-0.826l0,0
		c0.071-0.368,0.446-0.609,0.823-0.532l3.591,0.756C107.584,3.914,107.815,4.293,107.729,4.671L107.729,4.671z"/>
	<path fill="#43C5EB" d="M98.991,3.02c-0.039,0.373-0.369,0.651-0.762,0.608l-3.652-0.385c-0.387-0.042-0.664-0.382-0.619-0.767l0,0
		c0.031-0.375,0.383-0.652,0.762-0.615l3.654,0.376C98.771,2.28,99.038,2.633,98.991,3.02L98.991,3.02z"/>
</g>
</svg>
