<?xml version="1.0" encoding="utf-8"?>
<!-- Generator: Adobe Illustrator 15.1.0, SVG Export Plug-In . SVG Version: 6.00 Build 0)  -->
<!DOCTYPE svg PUBLIC "-//W3C//DTD SVG 1.1//EN" "http://www.w3.org/Graphics/SVG/1.1/DTD/svg11.dtd">
<svg version="1.1" id="Layer_1" xmlns="http://www.w3.org/2000/svg" xmlns:xlink="http://www.w3.org/1999/xlink" x="0px" y="0px"
	 width="14.4px" height="14.4px" viewBox="0 0 14.4 14.4" enable-background="new 0 0 14.4 14.4" xml:space="preserve">
<path fill="#414142" d="M7.2,14.033c-3.768,0-6.834-3.064-6.834-6.833S3.433,0.367,7.2,0.367c3.768,0,6.834,3.065,6.834,6.834
	S10.968,14.033,7.2,14.033z"/>
<radialGradient id="SVGID_1_" cx="11.1436" cy="14.584" r="13.4158" gradientTransform="matrix(1 0 0 -1 0 16)" gradientUnits="userSpaceOnUse">
	<stop  offset="0" style="stop-color:#010101"/>
	<stop  offset="0.5556" style="stop-color:#2E2D2E"/>
	<stop  offset="1" style="stop-color:#4E4E50"/>
</radialGradient>
<circle fill="url(#SVGID_1_)" cx="7.201" cy="7.2" r="6.132"/>
<g>
	
		<radialGradient id="SVGID_2_" cx="-308.9404" cy="-128.7378" r="9.3673" gradientTransform="matrix(0.8221 -0.5694 -0.5694 -0.8221 189.9902 -271.6416)" gradientUnits="userSpaceOnUse">
		<stop  offset="0" style="stop-color:#5EC6F1"/>
		<stop  offset="0.2849" style="stop-color:#407288"/>
		<stop  offset="0.5699" style="stop-color:#231F20"/>
	</radialGradient>
	<circle fill="url(#SVGID_2_)" cx="7.201" cy="7.201" r="4.356"/>
	
		<radialGradient id="SVGID_3_" cx="-374.8838" cy="-428.3174" r="7.9864" gradientTransform="matrix(0.6345 -0.4395 -0.3357 -0.4847 101.7712 -364.5332)" gradientUnits="userSpaceOnUse">
		<stop  offset="0" style="stop-color:#92A5B1"/>
		<stop  offset="0.0488" style="stop-color:#8898A1"/>
		<stop  offset="0.1509" style="stop-color:#778188"/>
		<stop  offset="0.2559" style="stop-color:#6B7176"/>
		<stop  offset="0.3644" style="stop-color:#63676B"/>
		<stop  offset="0.4819" style="stop-color:#616467"/>
		<stop  offset="0.6023" style="stop-color:#686B6E"/>
		<stop  offset="0.7811" style="stop-color:#7C7E81"/>
		<stop  offset="0.9955" style="stop-color:#9C9EA0"/>
		<stop  offset="1" style="stop-color:#9D9FA1"/>
	</radialGradient>
	<path fill="url(#SVGID_3_)" d="M8.966,4.306c0.75,1.079,0.211,2.739-1.197,3.713C6.363,8.996,4.616,8.912,3.874,7.838
		C3.128,6.765,3.667,5.1,5.071,4.128C6.479,3.154,8.224,3.231,8.966,4.306z"/>
</g>
</svg>
