<?xml version="1.0" encoding="utf-8"?>
<!-- Generator: Adobe Illustrator 15.1.0, SVG Export Plug-In . SVG Version: 6.00 Build 0)  -->
<!DOCTYPE svg PUBLIC "-//W3C//DTD SVG 1.1//EN" "http://www.w3.org/Graphics/SVG/1.1/DTD/svg11.dtd">
<svg version="1.1"
	 id="svg2" sodipodi:docname="wearable-popover.ai" xmlns:inkscape="http://www.inkscape.org/namespaces/inkscape" inkscape:version="0.48.2 r9819" xmlns:svg="http://www.w3.org/2000/svg" xmlns:dc="http://purl.org/dc/elements/1.1/" xmlns:sodipodi="http://sodipodi.sourceforge.net/DTD/sodipodi-0.dtd" xmlns:rdf="http://www.w3.org/1999/02/22-rdf-syntax-ns#" xmlns:cc="http://creativecommons.org/ns#"
	 xmlns="http://www.w3.org/2000/svg" xmlns:xlink="http://www.w3.org/1999/xlink" x="0px" y="0px" width="419.922px"
	 height="339.871px" viewBox="0 0 419.922 339.871" enable-background="new 0 0 419.922 339.871" xml:space="preserve">
<sodipodi:namedview  inkscape:cx="210.3175" inkscape:pageshadow="2" pagecolor="#ffffff" fit-margin-top="0" borderopacity="1" bordercolor="#666666" guidetolerance="10" inkscape:window-x="0" fit-margin-right="0" inkscape:pageopacity="0" inkscape:window-width="640" inkscape:current-layer="g10" inkscape:window-maximized="0" fit-margin-bottom="0" objecttolerance="10" gridtolerance="10" id="namedview4" inkscape:window-y="0" inkscape:window-height="480" inkscape:cy="169.8925" fit-margin-left="0" inkscape:zoom="0.23838384" showgrid="false">
	</sodipodi:namedview>
<g id="g10" transform="matrix(1.25,0,0,-1.25,-172.1825,664.97875)" inkscape:groupmode="layer" inkscape:label="wearable-popover">
	<g id="g14">
		<g>
			<defs>
				<rect id="SVGID_1_" x="-76.5" y="-99" width="765" height="990"/>
			</defs>
			<clipPath id="SVGID_2_">
				<use xlink:href="#SVGID_1_"  overflow="visible"/>
			</clipPath>
			<g id="g16" clip-path="url(#SVGID_2_)">
				<g id="g22" transform="translate(470,265.9473)">
				</g>
				<g id="g26" transform="translate(362.8291,313.5781)">
				</g>
			</g>
		</g>
	</g>
	<g id="g262">
		<g>
			<defs>
				<rect id="SVGID_3_" x="-76.5" y="-99" width="765" height="990"/>
			</defs>
			<clipPath id="SVGID_4_">
				<use xlink:href="#SVGID_3_"  overflow="visible"/>
			</clipPath>
		</g>
	</g>
	<g id="g294">
		<g>
			<defs>
				<rect id="SVGID_5_" x="-76.5" y="-99" width="765" height="990"/>
			</defs>
			<clipPath id="SVGID_6_">
				<use xlink:href="#SVGID_5_"  overflow="visible"/>
			</clipPath>
		</g>
	</g>
	<g id="g410">
		<g>
			<defs>
				<rect id="SVGID_7_" x="-76.5" y="-99" width="765" height="990"/>
			</defs>
			<clipPath id="SVGID_8_">
				<use xlink:href="#SVGID_7_"  overflow="visible"/>
			</clipPath>
		</g>
	</g>
	<g id="g470">
		<g>
			<defs>
				<rect id="SVGID_9_" x="-76.5" y="-99" width="765" height="990"/>
			</defs>
			<clipPath id="SVGID_10_">
				<use xlink:href="#SVGID_9_"  overflow="visible"/>
			</clipPath>
		</g>
	</g>
	<g id="g504">
		<g>
			<defs>
				<rect id="SVGID_11_" x="-76.5" y="-99" width="765" height="990"/>
			</defs>
			<clipPath id="SVGID_12_">
				<use xlink:href="#SVGID_11_"  overflow="visible"/>
			</clipPath>
		</g>
	</g>
	<g id="g540">
		<g>
			<defs>
				<rect id="SVGID_13_" x="-76.5" y="-99" width="765" height="990"/>
			</defs>
			<clipPath id="SVGID_14_">
				<use xlink:href="#SVGID_13_"  overflow="visible"/>
			</clipPath>
		</g>
	</g>
	<g id="g572">
		<g>
			<defs>
				<rect id="SVGID_15_" x="-76.5" y="-99" width="765" height="990"/>
			</defs>
			<clipPath id="SVGID_16_">
				<use xlink:href="#SVGID_15_"  overflow="visible"/>
			</clipPath>
		</g>
	</g>
	<g id="g624">
		<g>
			<defs>
				<rect id="SVGID_17_" x="-76.5" y="-99" width="765" height="990"/>
			</defs>
			<clipPath id="SVGID_18_">
				<use xlink:href="#SVGID_17_"  overflow="visible"/>
			</clipPath>
		</g>
	</g>
	<g id="g658">
		<g>
			<defs>
				<rect id="SVGID_19_" x="-76.5" y="-99" width="765" height="990"/>
			</defs>
			<clipPath id="SVGID_20_">
				<use xlink:href="#SVGID_19_"  overflow="visible"/>
			</clipPath>
		</g>
	</g>
</g>
<rect x="0" fill="#717272" width="419.922" height="339.871"/>
<path fill="#343434" d="M415.319,332.545c0,1.381-1.119,2.5-2.5,2.5H7.104c-1.381,0-2.5-1.119-2.5-2.5V7.865
	c0-1.381,1.119-2.5,2.5-2.5h405.714c1.381,0,2.5,1.119,2.5,2.5V332.545z"/>
<path fill="#1D1D1D" d="M281.354,273.006h1.23h5.02h112.932c2.762,0,5-2.238,5-5V62.78H281.354H153.64h-14.996H14.463v205.226
	c0,2.762,2.238,5,5,5h118.083h1.098h14.996H281.354z"/>
</svg>
