<?xml version="1.0" encoding="UTF-8" standalone="no"?>
<!-- Generator: Adobe Illustrator 15.1.0, SVG Export Plug-In . SVG Version: 6.00 Build 0)  -->

<svg
   xmlns:dc="http://purl.org/dc/elements/1.1/"
   xmlns:cc="http://creativecommons.org/ns#"
   xmlns:rdf="http://www.w3.org/1999/02/22-rdf-syntax-ns#"
   xmlns:svg="http://www.w3.org/2000/svg"
   xmlns="http://www.w3.org/2000/svg"
   xmlns:sodipodi="http://sodipodi.sourceforge.net/DTD/sodipodi-0.dtd"
   xmlns:inkscape="http://www.inkscape.org/namespaces/inkscape"
   version="1.1"
   id="svg2"
   inkscape:version="0.48.2 r9819"
   sodipodi:docname="window.shortest.svg"
   x="0px"
   y="0px"
   width="646.79999"
   height="221.675"
   viewBox="0 0 646.8 221.675"
   enable-background="new 0 0 646.8 282.35"
   xml:space="preserve"><metadata
   id="metadata9"><rdf:RDF><cc:Work
       rdf:about=""><dc:format>image/svg+xml</dc:format><dc:type
         rdf:resource="http://purl.org/dc/dcmitype/StillImage" /></cc:Work></rdf:RDF></metadata><defs
   id="defs7" />
<sodipodi:namedview
   inkscape:zoom="0.15424837"
   fit-margin-top="0"
   guidetolerance="10"
   inkscape:window-width="640"
   inkscape:window-height="480"
   inkscape:window-maximized="0"
   inkscape:window-y="0"
   inkscape:pageshadow="2"
   borderopacity="1"
   inkscape:pageopacity="0"
   gridtolerance="10"
   objecttolerance="10"
   id="namedview4"
   bordercolor="#666666"
   pagecolor="#ffffff"
   inkscape:cx="233.23324"
   inkscape:cy="-4.5540055"
   inkscape:window-x="0"
   inkscape:current-layer="svg2"
   showgrid="false"
   fit-margin-bottom="0"
   fit-margin-right="0"
   fit-margin-left="0">
	</sodipodi:namedview>
<rect
   id="rect4"
   y="-5.7161483e-06"
   width="646.79999"
   height="221.675"
   x="0"
   style="fill:#717272" />
<path
   id="path6"
   inkscape:connector-curvature="0"
   d="m 642.203,214.35599 c 0,1.379 -1.117,2.491 -2.496,2.491 H 7.095 c -1.379,0 -2.496,-1.112 -2.496,-2.491 V 7.8549943 c 0,-1.38 1.117,-2.497 2.496,-2.497 h 632.609 c 1.379,0 2.498,1.117 2.498,2.497 V 214.35599 l 10e-4,0 0,0 z"
   style="fill:#343434" />
<path
   id="path7"
   inkscape:connector-curvature="0"
   d="m 14.443,199.49099 c 0,2.762 2.237,4.993 4.993,4.993 l 607.999,0.002 h 0.002 c 2.758,0 4.955,-2.231 4.955,-4.993 V 24.181994 c 0,-2.761 -2.271,-4.993 -5.027,-4.993 l -608.002,-0.002 h -0.002 c -2.757,0 -4.99,2.232 -4.99,4.993 l 0.072,175.310996 0,0 0,0 z"
   style="fill:#1d1d1d" />
</svg>