<?xml version="1.0" encoding="UTF-8" standalone="no"?>
<!-- Generator: Adobe Illustrator 15.1.0, SVG Export Plug-In . SVG Version: 6.00 Build 0)  -->

<svg
   xmlns:dc="http://purl.org/dc/elements/1.1/"
   xmlns:cc="http://creativecommons.org/ns#"
   xmlns:rdf="http://www.w3.org/1999/02/22-rdf-syntax-ns#"
   xmlns:svg="http://www.w3.org/2000/svg"
   xmlns="http://www.w3.org/2000/svg"
   xmlns:sodipodi="http://sodipodi.sourceforge.net/DTD/sodipodi-0.dtd"
   xmlns:inkscape="http://www.inkscape.org/namespaces/inkscape"
   version="1.1"
   id="svg2"
   sodipodi:docname="window.short.svg"
   inkscape:version="0.48.2 r9819"
   x="0px"
   y="0px"
   width="597.78497"
   height="253.69899"
   viewBox="0 0 597.785 253.69899"
   enable-background="new 0 0 597.785 319.699"
   xml:space="preserve"><metadata
   id="metadata11"><rdf:RDF><cc:Work
       rdf:about=""><dc:format>image/svg+xml</dc:format><dc:type
         rdf:resource="http://purl.org/dc/dcmitype/StillImage" /></cc:Work></rdf:RDF></metadata><defs
   id="defs9" />
<sodipodi:namedview
   id="namedview4"
   bordercolor="#666666"
   pagecolor="#ffffff"
   inkscape:cx="233.23324"
   borderopacity="1"
   inkscape:pageopacity="0"
   inkscape:pageshadow="2"
   inkscape:zoom="0.15424837"
   inkscape:cy="27.469999"
   inkscape:current-layer="svg2"
   showgrid="false"
   inkscape:window-width="640"
   inkscape:window-height="480"
   inkscape:window-x="0"
   inkscape:window-y="0"
   objecttolerance="10"
   fit-margin-right="0"
   gridtolerance="10"
   guidetolerance="10"
   inkscape:window-maximized="0"
   fit-margin-top="0"
   fit-margin-left="0"
   fit-margin-bottom="0">
	</sodipodi:namedview>
<rect
   id="rect4"
   width="597.78497"
   height="253.69901"
   x="0"
   y="-9.74471e-06"
   style="fill:#717272" />
<path
   id="path6"
   inkscape:connector-curvature="0"
   d="m 593.188,246.37999 c 0,1.379 -1.118,2.492 -2.497,2.492 H 7.095 c -1.379,0 -2.496,-1.113 -2.496,-2.492 V 7.8549903 c 0,-1.38 1.117,-2.497 2.496,-2.497 H 590.69 c 1.379,0 2.497,1.117 2.497,2.497 V 246.37999 l 10e-4,0 z"
   style="fill:#343434" />
<path
   d="m 14.443,231.51599 c 0,2.761 2.237,4.993 4.993,4.993 l 558.986,0.002 h 0.002 c 2.757,0 4.954,-2.232 4.954,-4.993 v -207.336 c 0,-2.761 -2.272,-4.993 -5.028,-4.993 l -558.987,-0.002 h -0.002 c -2.757,0 -4.99,2.232 -4.99,4.993 l 0.072,207.336 z"
   id="path7"
   inkscape:connector-curvature="0"
   style="fill:#1d1d1d" />
</svg>