<?xml version="1.0" encoding="utf-8"?>
<!-- Generator: Adobe Illustrator 15.1.0, SVG Export Plug-In . SVG Version: 6.00 Build 0)  -->
<!DOCTYPE svg PUBLIC "-//W3C//DTD SVG 1.1//EN" "http://www.w3.org/Graphics/SVG/1.1/DTD/svg11.dtd">
<svg version="1.1"
	 id="svg2" sodipodi:docname="window.ai" xmlns:inkscape="http://www.inkscape.org/namespaces/inkscape" inkscape:version="0.48.2 r9819" xmlns:sodipodi="http://sodipodi.sourceforge.net/DTD/sodipodi-0.dtd" xmlns:svg="http://www.w3.org/2000/svg" xmlns:rdf="http://www.w3.org/1999/02/22-rdf-syntax-ns#" xmlns:cc="http://creativecommons.org/ns#" xmlns:dc="http://purl.org/dc/elements/1.1/"
	 xmlns="http://www.w3.org/2000/svg" xmlns:xlink="http://www.w3.org/1999/xlink" x="0px" y="0px" width="598.57px"
	 height="497.348px" viewBox="0 0 598.57 497.348" enable-background="new 0 0 598.57 497.348" xml:space="preserve">
<sodipodi:namedview  fit-margin-bottom="0" fit-margin-top="0" fit-margin-right="0" inkscape:window-maximized="0" inkscape:window-x="0" inkscape:window-y="0" pagecolor="#ffffff" bordercolor="#666666" objecttolerance="10" gridtolerance="10" borderopacity="1" inkscape:cy="271.12" inkscape:window-height="480" showgrid="false" inkscape:pageopacity="0" inkscape:zoom="0.15424837" inkscape:window-width="640" guidetolerance="10" id="namedview4" inkscape:cx="233.25125" inkscape:current-layer="g10" fit-margin-left="0" inkscape:pageshadow="2">
	</sodipodi:namedview>
<rect x="0.018" fill="#717272" width="597.785" height="496.698"/>
<path fill="#343434" d="M593.206,489.381c0,1.379-1.119,2.492-2.498,2.492H7.113c-1.379,0-2.496-1.113-2.496-2.492V7.855
	c0-1.38,1.117-2.497,2.496-2.497h583.595c1.379,0,2.498,1.117,2.498,2.497V489.381L593.206,489.381z"/>
<rect x="138.481" y="131.285" fill="#1D1D1D" width="320.936" height="348.227"/>
<path fill="#1D1D1D" d="M137.383,479.512H19.454c-2.756,0-4.993-2.235-4.993-4.994V131.285h122.771v348.227H137.383z"/>
<path fill="#1D1D1D" d="M465.659,479.512h112.783c2.757,0,4.992-2.235,4.992-4.994V131.285h-122.77v348.227h-0.021h117.797"/>
<polyline fill="#1D1D1D" points="14.461,131.285 14.461,62.697 583.316,62.697 583.316,130.037 14.234,130.037 "/>
</svg>
