<?xml version="1.0" encoding="UTF-8" standalone="no"?>
<!-- Created with Inkscape (http://www.inkscape.org/) -->

<svg
   xmlns:dc="http://purl.org/dc/elements/1.1/"
   xmlns:cc="http://creativecommons.org/ns#"
   xmlns:rdf="http://www.w3.org/1999/02/22-rdf-syntax-ns#"
   xmlns:svg="http://www.w3.org/2000/svg"
   xmlns="http://www.w3.org/2000/svg"
   xmlns:sodipodi="http://sodipodi.sourceforge.net/DTD/sodipodi-0.dtd"
   xmlns:inkscape="http://www.inkscape.org/namespaces/inkscape"
   id="svg2"
   version="1.1"
   inkscape:version="0.48.2 r9819"
   width="601.10626"
   height="620.8725"
   xml:space="preserve"
   sodipodi:docname="window.square.ai"><metadata
     id="metadata8"><rdf:RDF><cc:Work
         rdf:about=""><dc:format>image/svg+xml</dc:format><dc:type
           rdf:resource="http://purl.org/dc/dcmitype/StillImage" /><dc:title></dc:title></cc:Work></rdf:RDF></metadata><defs
     id="defs6"><clipPath
       clipPathUnits="userSpaceOnUse"
       id="clipPath18"><path
         d="m 0,497.348 598.57,0 L 598.57,0 0,0 0,497.348 z"
         id="path20"
         inkscape:connector-curvature="0" /></clipPath></defs><sodipodi:namedview
     pagecolor="#ffffff"
     bordercolor="#666666"
     borderopacity="1"
     objecttolerance="10"
     gridtolerance="10"
     guidetolerance="10"
     inkscape:pageopacity="0"
     inkscape:pageshadow="2"
     inkscape:window-width="640"
     inkscape:window-height="480"
     id="namedview4"
     showgrid="false"
     fit-margin-top="0"
     fit-margin-left="0"
     fit-margin-right="0"
     fit-margin-bottom="0"
     inkscape:zoom="0.37961347"
     inkscape:cx="374.08376"
     inkscape:cy="310.03"
     inkscape:window-x="0"
     inkscape:window-y="0"
     inkscape:window-maximized="0"
     inkscape:current-layer="g10" /><g
     id="g10"
     inkscape:groupmode="layer"
     inkscape:label="window.square"
     transform="matrix(1.25,0,0,-1.25,-0.0225,621.685)"><path
       d="m 0.018,497.348 480.885,0 0,-496.698 -480.885,0 0,496.698 z"
       style="fill:#717272;fill-opacity:1;fill-rule:nonzero;stroke:none"
       id="path12"
       inkscape:connector-curvature="0" /><g
       id="g14"><g
         id="g16"
         clip-path="url(#clipPath18)"><g
           id="g22"
           transform="translate(476.3066,7.9668)"><path
             d="m 0,0 c 0,-1.379 -1.119,-2.492 -2.498,-2.492 l -466.696,0 c -1.379,0 -2.495,1.113 -2.495,2.492 l 0,481.526 c 0,1.38 1.116,2.497 2.495,2.497 l 466.696,0 c 1.379,0 2.498,-1.117 2.498,-2.497 L 0,0 z"
             style="fill:#343434;fill-opacity:1;fill-rule:nonzero;stroke:none"
             id="path24"
             inkscape:connector-curvature="0" /></g><path
           d="m 131.481,366.063 334.936,0 0,-348.227 -334.936,0 0,348.227 z"
           style="fill:#1d1d1d;fill-opacity:1;fill-rule:nonzero;stroke:none"
           id="path26"
           inkscape:connector-curvature="0" /><g
           id="g28"
           transform="translate(137.3828,17.8359)"><path
             d="m 0,0 -117.929,0 c -2.756,0 -4.993,2.233 -4.993,4.994 l 0,343.233 115.771,0 L -7.151,0 0,0 z"
             style="fill:#1d1d1d;fill-opacity:1;fill-rule:nonzero;stroke:none"
             id="path30"
             inkscape:connector-curvature="0" /></g><g
           id="g32"
           transform="translate(14.4609,366.0625)"><path
             d="m 0,0 0,68.588 451.956,0 0,-67.34 -452.183,0"
             style="fill:#1d1d1d;fill-opacity:1;fill-rule:nonzero;stroke:none"
             id="path34"
             inkscape:connector-curvature="0" /></g></g></g></g></svg>