<?xml version="1.0" encoding="utf-8"?>
<!-- Generator: Adobe Illustrator 15.1.0, SVG Export Plug-In . SVG Version: 6.00 Build 0)  -->
<!DOCTYPE svg PUBLIC "-//W3C//DTD SVG 1.1//EN" "http://www.w3.org/Graphics/SVG/1.1/DTD/svg11.dtd">
<svg version="1.1"
	 id="Layer_1" sodipodi:docname="insteon_LED.svg" inkscape:version="0.48.1 r9760" xmlns:sodipodi="http://sodipodi.sourceforge.net/DTD/sodipodi-0.dtd" xmlns:rdf="http://www.w3.org/1999/02/22-rdf-syntax-ns#" xmlns:dc="http://purl.org/dc/elements/1.1/" xmlns:cc="http://creativecommons.org/ns#" xmlns:inkscape="http://www.inkscape.org/namespaces/inkscape" xmlns:svg="http://www.w3.org/2000/svg"
	 xmlns="http://www.w3.org/2000/svg" xmlns:xlink="http://www.w3.org/1999/xlink" x="0px" y="0px" width="44.637px"
	 height="44.637px" viewBox="0 0 44.637 44.637" enable-background="new 0 0 44.637 44.637" xml:space="preserve">
<sodipodi:namedview  id="namedview11726" borderopacity="1" guidetolerance="10" inkscape:window-width="1910" inkscape:window-height="1156" inkscape:window-y="0" inkscape:pageshadow="2" inkscape:pageopacity="0" inkscape:window-x="0" inkscape:current-layer="Layer_1" inkscape:window-maximized="0" inkscape:zoom="21.013957" objecttolerance="10" inkscape:cx="22.318501" inkscape:cy="22.318501" bordercolor="#666666" showgrid="false" gridtolerance="10" pagecolor="#ffffff">
	</sodipodi:namedview>
<g id="g11706">
	<g id="g11708">
	</g>
	<g id="g11712">
	</g>
	<g id="g11716">
	</g>
	<g id="g11720">
	</g>
</g>
<g id="Livello_1_2_">
</g>
<g>
	<path d="M0-0.094V44.64h44.637V-0.094H0z M22.32,43.067c-11.498,0-20.812-9.312-20.812-20.812S10.82,1.434,22.32,1.434
		c11.496,0,20.816,9.321,20.816,20.821C43.136,33.749,33.816,43.07,22.32,43.067z"/>
	<path d="M22.465,3.108c-10.573,0-19.146,8.572-19.146,19.146c0,10.562,8.573,19.143,19.146,19.143
		c10.577,0,19.144-8.57,19.145-19.143C41.61,11.679,33.039,3.108,22.465,3.108z M29.63,35.301c0,1.654-1.346,3-3,3h-6.521
		c-1.653,0-3-1.346-3-3V10.045c0-1.654,1.347-3,3-3h6.521c1.654,0,3,1.346,3,3V35.301z"/>
	<circle cx="25.55" cy="20.981" r="1.093"/>
	<circle cx="19.834" cy="9.718" r="0.757"/>
	<path d="M18.254,36.963c0.458,0.511,1.116,0.838,1.854,0.838h0.627v-0.598h-1.428C18.93,37.203,18.575,37.115,18.254,36.963z"/>
	<path d="M27.697,7.791c0.393,0.44,0.638,1.016,0.638,1.652v25.26c0,1.381-1.119,2.5-2.5,2.5h-0.876v0.598h1.673
		c1.381,0,2.5-1.119,2.5-2.5V10.045C29.13,9.047,28.541,8.193,27.697,7.791z"/>
</g>
</svg>
