<?xml version="1.0" encoding="utf-8"?>
<!-- Generator: Adobe Illustrator 15.1.0, SVG Export Plug-In . SVG Version: 6.00 Build 0)  -->
<!DOCTYPE svg PUBLIC "-//W3C//DTD SVG 1.1//EN" "http://www.w3.org/Graphics/SVG/1.1/DTD/svg11.dtd">
<svg version="1.1"
	 id="Layer_1" xmlns:svg="http://www.w3.org/2000/svg" xmlns:rdf="http://www.w3.org/1999/02/22-rdf-syntax-ns#" xmlns:cc="http://creativecommons.org/ns#" xmlns:dc="http://purl.org/dc/elements/1.1/" sodipodi:docname="insteon_LED.svg" xmlns:inkscape="http://www.inkscape.org/namespaces/inkscape" xmlns:sodipodi="http://sodipodi.sourceforge.net/DTD/sodipodi-0.dtd" inkscape:version="0.48.1 r9760"
	 xmlns="http://www.w3.org/2000/svg" xmlns:xlink="http://www.w3.org/1999/xlink" x="0px" y="0px" width="44.637px"
	 height="44.637px" viewBox="0 0 44.637 44.637" enable-background="new 0 0 44.637 44.637" xml:space="preserve">
<sodipodi:namedview  inkscape:window-maximized="0" inkscape:window-y="0" inkscape:window-x="0" inkscape:window-height="1156" inkscape:window-width="1910" showgrid="false" inkscape:current-layer="Layer_1" inkscape:cy="22.318501" inkscape:zoom="21.013957" inkscape:pageshadow="2" bordercolor="#666666" borderopacity="1" inkscape:cx="22.318501" inkscape:pageopacity="0" pagecolor="#ffffff" id="namedview11726" guidetolerance="10" objecttolerance="10" gridtolerance="10">
	</sodipodi:namedview>
<g id="g11706">
	<g id="g11708">
	</g>
	<g id="g11712">
	</g>
	<g id="g11716">
	</g>
	<g id="g11720">
	</g>
</g>
<g>
	<path fill="none" d="M22.32,1.428c-11.498,0-20.814,9.321-20.814,20.821c0,11.495,9.316,20.812,20.814,20.812
		c11.496,0.003,20.816-9.317,20.816-20.812C43.136,10.749,33.816,1.428,22.32,1.428z M22.465,41.391
		c-10.573,0-19.146-8.572-19.146-19.143c0-10.574,8.573-19.146,19.146-19.146c10.574,0,19.145,8.571,19.145,19.146
		C41.609,32.817,33.042,41.391,22.465,41.391z"/>
	<path d="M0,0v44.637h44.637V0H0z M22.32,43.061c-11.498,0-20.814-9.316-20.814-20.812c0-11.5,9.316-20.821,20.814-20.821
		c11.496,0,20.816,9.321,20.816,20.821C43.136,33.743,33.816,43.064,22.32,43.061z"/>
	<path d="M22.465,3.102c-10.573,0-19.146,8.572-19.146,19.146c0,10.57,8.573,19.143,19.146,19.143
		c10.577,0,19.144-8.574,19.145-19.143C41.61,11.673,33.039,3.102,22.465,3.102z M36.242,19.246c0.447,0,0.811,0.363,0.811,0.81
		s-0.363,0.81-0.811,0.81h-2.094v0.674h2.094c0.447,0,0.811,0.363,0.811,0.81s-0.363,0.811-0.811,0.811h-2.094v0.676h2.094
		c0.447,0,0.811,0.363,0.811,0.81c0,0.448-0.363,0.811-0.811,0.811h-2.094v0.677h2.094c0.447,0,0.811,0.363,0.811,0.811
		c0,0.448-0.363,0.811-0.811,0.811h-2.094v0.675h2.094c0.447,0,0.811,0.362,0.811,0.81s-0.363,0.811-0.811,0.811h-2.176
		c-0.342,1.992-1.908,3.561-3.9,3.902v2.177c0,0.448-0.363,0.81-0.811,0.81s-0.811-0.361-0.811-0.81v-2.094h-0.676v2.094
		c0,0.448-0.362,0.81-0.811,0.81c-0.447,0-0.81-0.361-0.81-0.81v-2.094h-0.677v2.094c0,0.448-0.363,0.81-0.811,0.81
		s-0.811-0.361-0.811-0.81v-2.094h-0.674v2.094c0,0.448-0.363,0.81-0.811,0.81s-0.81-0.361-0.81-0.81v-2.094h-0.676v2.094
		c0,0.448-0.363,0.81-0.811,0.81s-0.811-0.361-0.811-0.81v-2.094h-0.676v2.094c0,0.448-0.363,0.81-0.81,0.81
		c-0.448,0-0.811-0.361-0.811-0.81v-2.094h-0.675v2.094c0,0.448-0.363,0.81-0.811,0.81s-0.811-0.361-0.811-0.81v-2.177
		c-1.992-0.341-3.56-1.908-3.902-3.902H8.69c-0.447,0-0.81-0.363-0.81-0.811s0.363-0.81,0.81-0.81h2.094v-0.675H8.69
		c-0.447,0-0.81-0.362-0.81-0.811c0-0.447,0.363-0.811,0.81-0.811h2.094v-0.677H8.69c-0.447,0-0.81-0.362-0.81-0.811
		c0-0.446,0.363-0.81,0.81-0.81h2.094V23.16H8.69c-0.447,0-0.81-0.363-0.81-0.811s0.363-0.81,0.81-0.81h2.094v-0.674H8.69
		c-0.447,0-0.81-0.363-0.81-0.81s0.363-0.81,0.81-0.81h2.094v-0.678H8.69c-0.447,0-0.81-0.362-0.81-0.81s0.363-0.81,0.81-0.81h2.094
		v-0.677H8.69c-0.447,0-0.81-0.362-0.81-0.81c0-0.447,0.363-0.81,0.81-0.81h2.175c0.343-1.992,1.91-3.559,3.901-3.901V8.575
		c0-0.447,0.363-0.81,0.81-0.81c0.448,0,0.811,0.362,0.811,0.81v2.094h0.676V8.575c0-0.447,0.363-0.81,0.811-0.81
		s0.81,0.362,0.81,0.81v2.094h0.677V8.575c0-0.447,0.363-0.81,0.811-0.81s0.811,0.362,0.811,0.81v2.094h0.675V8.575
		c0-0.447,0.363-0.81,0.811-0.81s0.81,0.362,0.81,0.81v2.094h0.673V8.575c0-0.447,0.363-0.81,0.811-0.81s0.811,0.362,0.811,0.81
		v2.094h0.679V8.575c0-0.447,0.362-0.81,0.81-0.81c0.448,0,0.811,0.362,0.811,0.81v2.094h0.676V8.575c0-0.447,0.363-0.81,0.811-0.81
		s0.811,0.362,0.811,0.81v2.176c1.99,0.343,3.559,1.91,3.9,3.901h2.176c0.447,0,0.811,0.362,0.811,0.81
		c0,0.448-0.363,0.81-0.811,0.81h-2.094v0.677h2.094c0.447,0,0.811,0.363,0.811,0.81s-0.363,0.81-0.811,0.81h-2.094v0.678H36.242z"
		/>
	<path d="M28.436,13.802h-11.94c-1.423,0-2.581,1.157-2.581,2.58v11.939c0,1.422,1.158,2.581,2.581,2.581h11.94
		c1.422,0,2.58-1.159,2.58-2.581V16.382C31.016,14.96,29.858,13.802,28.436,13.802z M23.876,28.741c-0.837,0-1.557-0.297-2.16-0.888
		c-0.604-0.592-0.904-1.389-0.904-2.393v-4.639h-1.202V19.21h1.202v-2.993h2.006v2.993h2.508v1.612h-2.508v4.694
		c0,0.453,0.119,0.814,0.358,1.083c0.238,0.269,0.557,0.404,0.949,0.404c0.469,0,0.896-0.209,1.291-0.628l0.823,1.416
		C25.535,28.425,24.748,28.741,23.876,28.741z"/>
</g>
</svg>
