<?xml version="1.0" encoding="utf-8"?>
<!-- Generator: Adobe Illustrator 15.1.0, SVG Export Plug-In . SVG Version: 6.00 Build 0)  -->
<!DOCTYPE svg PUBLIC "-//W3C//DTD SVG 1.1//EN" "http://www.w3.org/Graphics/SVG/1.1/DTD/svg11.dtd">
<svg version="1.1"
	 id="Layer_1" xmlns:dc="http://purl.org/dc/elements/1.1/" xmlns:cc="http://creativecommons.org/ns#" xmlns:rdf="http://www.w3.org/1999/02/22-rdf-syntax-ns#" xmlns:svg="http://www.w3.org/2000/svg" xmlns:sodipodi="http://sodipodi.sourceforge.net/DTD/sodipodi-0.dtd" inkscape:version="0.48.1 r9760" xmlns:inkscape="http://www.inkscape.org/namespaces/inkscape" sodipodi:docname="insteon_LED.svg"
	 xmlns="http://www.w3.org/2000/svg" xmlns:xlink="http://www.w3.org/1999/xlink" x="0px" y="0px" width="44.637px"
	 height="44.637px" viewBox="0 0 44.637 44.637" enable-background="new 0 0 44.637 44.637" xml:space="preserve">
<sodipodi:namedview  id="namedview11726" showgrid="false" inkscape:cy="22.318501" guidetolerance="10" inkscape:pageopacity="0" gridtolerance="10" pagecolor="#ffffff" objecttolerance="10" inkscape:pageshadow="2" borderopacity="1" inkscape:current-layer="Layer_1" inkscape:window-width="1910" bordercolor="#666666" inkscape:cx="22.318501" inkscape:window-x="0" inkscape:window-y="0" inkscape:window-maximized="0" inkscape:zoom="21.013957" inkscape:window-height="1156">
	</sodipodi:namedview>
<g id="g11706">
	<g id="g11708">
	</g>
	<g id="g11712">
	</g>
	<g id="g11716">
	</g>
	<g id="g11720">
	</g>
</g>
<path d="M41.61,22.248c-0.001,10.569-8.568,19.143-19.145,19.143c-10.573,0-19.146-8.572-19.146-19.143
	c0-10.574,8.573-19.146,19.146-19.146C33.039,3.102,41.61,11.673,41.61,22.248z M44.637,0v44.637H0V0H44.637z M43.136,22.249
	c0-11.5-9.32-20.821-20.816-20.821c-11.498,0-20.815,9.321-20.815,20.821c0,11.495,9.317,20.812,20.815,20.812
	C33.816,43.064,43.136,33.743,43.136,22.249z M6.14,23.16c0,8.014,11.019,10.998,16.463,2.838c5.641,8.461,16.217,4.914,16.217-2.85
	c0-7.766-10.527-11.499-16.217-2.829C17.209,11.75,6.14,15.146,6.14,23.16L6.14,23.16z M9.033,23.16c0-5.784,8.173-7.609,11.975,0
	C17.132,30.487,9.033,28.944,9.033,23.16L9.033,23.16z M24.196,23.16c3.426-7.759,11.82-5.621,11.795,0.012
	C35.965,28.807,27.522,30.561,24.196,23.16z M12.106,23.949h4.85v-1.601h-4.85V23.949z M29.705,25.524h1.701v-1.6h1.6v-1.701h-1.6
	v-1.601h-1.701v1.601h-1.6v1.701h1.6V25.524z"/>
</svg>
