<?xml version="1.0" encoding="utf-8"?>
<!-- Generator: Adobe Illustrator 15.1.0, SVG Export Plug-In . SVG Version: 6.00 Build 0)  -->
<!DOCTYPE svg PUBLIC "-//W3C//DTD SVG 1.1//EN" "http://www.w3.org/Graphics/SVG/1.1/DTD/svg11.dtd">
<svg version="1.1"
	 id="Layer_1" sodipodi:docname="insteon_LED.svg" inkscape:version="0.48.1 r9760" xmlns:dc="http://purl.org/dc/elements/1.1/" xmlns:cc="http://creativecommons.org/ns#" xmlns:svg="http://www.w3.org/2000/svg" xmlns:rdf="http://www.w3.org/1999/02/22-rdf-syntax-ns#" xmlns:inkscape="http://www.inkscape.org/namespaces/inkscape" xmlns:sodipodi="http://sodipodi.sourceforge.net/DTD/sodipodi-0.dtd"
	 xmlns="http://www.w3.org/2000/svg" xmlns:xlink="http://www.w3.org/1999/xlink" x="0px" y="0px" width="44.637px"
	 height="44.637px" viewBox="0 0 44.637 44.637" enable-background="new 0 0 44.637 44.637" xml:space="preserve">
<sodipodi:namedview  inkscape:current-layer="Layer_1" inkscape:window-maximized="0" inkscape:window-y="0" inkscape:window-x="0" inkscape:cy="22.318501" inkscape:zoom="21.013957" inkscape:cx="22.318501" showgrid="false" inkscape:window-height="1156" inkscape:pageshadow="2" inkscape:pageopacity="0" guidetolerance="10" pagecolor="#ffffff" bordercolor="#666666" gridtolerance="10" borderopacity="1" objecttolerance="10" inkscape:window-width="1910" id="namedview11726">
	</sodipodi:namedview>
<g id="g11706">
	<g id="g11708">
	</g>
	<g id="g11712">
	</g>
	<g id="g11716">
	</g>
	<g id="g11720">
	</g>
</g>
<g>
	<circle cx="22.518" cy="34.741" r="2.232"/>
	<path d="M22.465,3.102c-10.573,0-19.146,8.572-19.146,19.146c0,10.569,8.573,19.143,19.146,19.143
		c10.577,0,19.144-8.574,19.145-19.143C41.61,11.673,33.039,3.102,22.465,3.102z M26.489,14.607c0.674,0,1.218,0.547,1.218,1.221
		s-0.544,1.219-1.218,1.219c-0.675,0-1.222-0.545-1.222-1.219S25.814,14.607,26.489,14.607z M26.489,22.179
		c0.674,0,1.218,0.549,1.218,1.222s-0.544,1.222-1.218,1.222c-0.675,0-1.222-0.549-1.222-1.222S25.814,22.179,26.489,22.179z
		 M22.642,13.241c0.672,0,1.219,0.547,1.219,1.219c0,0.674-0.547,1.223-1.219,1.223c-0.674,0-1.221-0.549-1.221-1.223
		C21.421,13.788,21.968,13.241,22.642,13.241z M22.642,23.691c0.672,0,1.219,0.545,1.219,1.219c0,0.676-0.547,1.225-1.219,1.225
		c-0.674,0-1.221-0.549-1.221-1.225C21.421,24.236,21.968,23.691,22.642,23.691z M18.917,14.607c0.672,0,1.219,0.547,1.219,1.221
		s-0.547,1.219-1.219,1.219c-0.673,0-1.223-0.545-1.223-1.219S18.244,14.607,18.917,14.607z M20.136,23.401
		c0,0.673-0.545,1.222-1.219,1.222c-0.673,0-1.223-0.549-1.223-1.222s0.55-1.222,1.223-1.222
		C19.591,22.179,20.136,22.728,20.136,23.401z M16.195,19.628c0-0.672,0.545-1.22,1.223-1.22c0.672,0,1.217,0.548,1.217,1.22
		c0,0.674-0.545,1.221-1.217,1.221C16.74,20.849,16.195,20.302,16.195,19.628z M22.518,38.425c-2.031,0-3.683-1.652-3.683-3.683
		c0-2.032,1.652-3.685,3.683-3.685c2.03,0,3.683,1.652,3.683,3.685C26.2,36.773,24.548,38.425,22.518,38.425z M27.889,20.849
		c-0.673,0-1.219-0.547-1.219-1.221c0-0.672,0.546-1.22,1.219-1.22s1.22,0.548,1.22,1.22C29.109,20.302,28.562,20.849,27.889,20.849
		z"/>
	<path d="M0,0v44.637h44.637V0H0z M22.32,43.061c-11.498,0-20.813-9.315-20.813-20.812c0-11.5,9.315-20.821,20.813-20.821
		c11.496,0,20.816,9.321,20.816,20.821C43.136,33.743,33.816,43.064,22.32,43.061z"/>
</g>
</svg>
