<?xml version="1.0" encoding="utf-8"?>
<!-- Generator: Adobe Illustrator 15.1.0, SVG Export Plug-In . SVG Version: 6.00 Build 0)  -->
<!DOCTYPE svg PUBLIC "-//W3C//DTD SVG 1.1//EN" "http://www.w3.org/Graphics/SVG/1.1/DTD/svg11.dtd">
<svg version="1.1"
	 id="Layer_1" xmlns:inkscape="http://www.inkscape.org/namespaces/inkscape" xmlns:svg="http://www.w3.org/2000/svg" xmlns:rdf="http://www.w3.org/1999/02/22-rdf-syntax-ns#" xmlns:sodipodi="http://sodipodi.sourceforge.net/DTD/sodipodi-0.dtd" xmlns:dc="http://purl.org/dc/elements/1.1/" xmlns:cc="http://creativecommons.org/ns#" inkscape:version="0.48.1 r9760" sodipodi:docname="insteon_LED.svg"
	 xmlns="http://www.w3.org/2000/svg" xmlns:xlink="http://www.w3.org/1999/xlink" x="0px" y="0px" width="44.637px"
	 height="44.637px" viewBox="0 0 44.637 44.637" enable-background="new 0 0 44.637 44.637" xml:space="preserve">
<sodipodi:namedview  showgrid="false" inkscape:pageopacity="0" inkscape:pageshadow="2" objecttolerance="10" inkscape:cx="22.318501" inkscape:current-layer="Layer_1" inkscape:window-width="1910" borderopacity="1" inkscape:window-x="0" inkscape:window-y="0" bordercolor="#666666" inkscape:window-maximized="0" inkscape:window-height="1156" inkscape:zoom="21.013957" inkscape:cy="22.318501" id="namedview11726" pagecolor="#ffffff" gridtolerance="10" guidetolerance="10">
	</sodipodi:namedview>
<g id="g11706">
	<g id="g11708">
	</g>
	<g id="g11712">
	</g>
	<g id="g11716">
	</g>
	<g id="g11720">
	</g>
</g>
<g id="Livello_1_2_">
</g>
<g>
	<path d="M0,0v44.637h44.637V0H0z M22.32,43.061c-11.498,0-20.812-9.313-20.812-20.812c0-11.5,9.313-20.821,20.812-20.821
		c11.496,0,20.816,9.321,20.816,20.821C43.136,33.743,33.816,43.064,22.32,43.061z"/>
	<path d="M22.465,3.102c-10.573,0-19.146,8.572-19.146,19.146c0,10.567,8.573,19.143,19.146,19.143
		c10.577,0,19.144-8.574,19.145-19.143C41.61,11.673,33.039,3.102,22.465,3.102z"/>
</g>
<g>
	<title>Layer 1</title>
	<path id="path2993" fill="#FFFFFF" d="M35.74,14.897c0.872,0.254,1.929,1.183,2.057,1.805c0.127,0.621,0.02,1.292-0.283,1.793
		c-0.207,0.338-0.271,0.538-0.229,0.701c0.035,0.125,0.371,0.56,0.75,0.963c0.741,0.793,1.047,1.292,1.152,1.878
		c0.098,0.559-0.246,1.274-0.836,1.731c-0.701,0.547-1.346,0.744-2.334,0.714c-1.169-0.033-2.301-0.434-3.752-1.32l-0.706-0.433
		l-1.954,0.361c-1.805,0.335-2.629,0.495-5.316,1.034c-2.832,0.57-9.756,2.247-9.985,2.419c-0.06,0.045-0.167,0.297-0.238,0.561
		c-0.404,1.493-2.352,3.201-3.793,3.324c-0.911,0.078-1.699-0.385-2.253-1.325c-0.217-0.367-0.261-0.559-0.308-1.345
		c-0.041-0.673-0.016-1.072,0.091-1.503l0.147-0.583l-0.294-0.375c-1.27-1.619-1.034-3.285,0.578-4.078
		c0.297-0.146,0.54-0.183,1.072-0.163c0.895,0.035,1.294,0.161,2.591,0.819l1.072,0.544l2.097-0.315
		c1.153-0.173,2.61-0.403,3.239-0.51c1.047-0.178,1.756-0.307,5.391-0.981c0.679-0.125,2.573-0.52,4.21-0.875
		c2.949-0.641,2.98-0.65,3.287-0.979c0.181-0.193,0.432-0.655,0.602-1.109c0.512-1.362,1.191-2.239,2.031-2.625
		C34.274,14.818,35.248,14.753,35.74,14.897z"/>
</g>
</svg>
