<?xml version="1.0" encoding="utf-8"?>
<!-- Generator: Adobe Illustrator 15.1.0, SVG Export Plug-In . SVG Version: 6.00 Build 0)  -->
<!DOCTYPE svg PUBLIC "-//W3C//DTD SVG 1.1//EN" "http://www.w3.org/Graphics/SVG/1.1/DTD/svg11.dtd">
<svg version="1.1"
	 id="Layer_1" sodipodi:docname="ecobee.svg" inkscape:version="0.48.2 r9819" xmlns:inkscape="http://www.inkscape.org/namespaces/inkscape" xmlns:rdf="http://www.w3.org/1999/02/22-rdf-syntax-ns#" xmlns:svg="http://www.w3.org/2000/svg" xmlns:dc="http://purl.org/dc/elements/1.1/" xmlns:cc="http://creativecommons.org/ns#" xmlns:sodipodi="http://sodipodi.sourceforge.net/DTD/sodipodi-0.dtd"
	 xmlns="http://www.w3.org/2000/svg" xmlns:xlink="http://www.w3.org/1999/xlink" x="0px" y="0px" width="44.637px"
	 height="44.637px" viewBox="0 0 44.637 44.637" enable-background="new 0 0 44.637 44.637" xml:space="preserve">
<g>
	<path fill-rule="evenodd" clip-rule="evenodd" d="M-0.1,0v44.732h44.737V0H-0.1z M22.32,43.138
		c-11.498,0-20.814-9.322-20.814-20.818C1.501,10.823,10.821,1.5,22.32,1.5c11.496,0,20.816,9.323,20.816,20.815
		C43.136,33.815,33.816,43.138,22.32,43.138z"/>
	<path fill-rule="evenodd" clip-rule="evenodd" d="M22.465,3.176C11.892,3.176,3.32,11.747,3.32,22.32
		c0,10.573,8.571,19.146,19.146,19.146S41.61,32.895,41.61,22.321C41.61,11.748,33.039,3.176,22.465,3.176z M34.889,24.674
		c-0.521,2.632-1.741,4.694-3.288,6.301c-1.042,1.082-2.239,2.008-3.696,2.699c-1.434,0.682-3.167,1.205-5.124,1.26
		c-2.107,0.059-3.909-0.354-5.4-0.996c-1.521-0.654-2.735-1.492-3.864-2.531c-1.082-0.996-2.017-2.286-2.7-3.696
		c-0.512-1.056-0.923-2.274-1.128-3.672c-0.366-2.501,0.071-5.053,0.852-6.852c0.654-1.506,1.481-2.748,2.532-3.864
		c1.545-1.642,3.513-2.837,6.024-3.564c0.407-0.118,0.872-0.202,1.332-0.264c0.486-0.066,0.979-0.108,1.488-0.132
		c2.122-0.102,3.933,0.387,5.399,0.996c0.754,0.312,1.444,0.689,2.088,1.116c1.932,1.279,3.414,2.981,4.477,5.112
		c0.706,1.417,1.177,3.167,1.26,5.137C35.186,22.778,35.067,23.779,34.889,24.674z"/>
	<path fill-rule="evenodd" clip-rule="evenodd" d="M23.573,16.694c-1.423-0.337-2.817-0.013-3.792,0.492
		c-1.008,0.523-1.796,1.331-2.316,2.268c-0.542,0.977-0.844,2.423-0.564,3.792c0.257,1.256,0.851,2.16,1.645,2.939
		c0.779,0.768,1.786,1.275,3.096,1.477c1.441,0.222,2.841-0.254,3.684-0.805c0.895-0.583,1.66-1.403,2.137-2.447
		c0.464-1.018,0.674-2.6,0.252-3.876c0.501-1.427,1.002-2.848,1.488-4.272c0.162-0.477,0.362-0.946,0.492-1.439
		c-0.013,0-0.016-0.01-0.025-0.012C27.646,15.447,25.592,16.053,23.573,16.694z"/>
</g>
</svg>
