<?xml version="1.0" encoding="utf-8"?>
<!-- Generator: Adobe Illustrator 15.1.0, SVG Export Plug-In . SVG Version: 6.00 Build 0)  -->
<!DOCTYPE svg PUBLIC "-//W3C//DTD SVG 1.1//EN" "http://www.w3.org/Graphics/SVG/1.1/DTD/svg11.dtd">
<svg version="1.1"
	 id="Layer_1" sodipodi:docname="insteon_LED.svg" inkscape:version="0.48.1 r9760" xmlns:sodipodi="http://sodipodi.sourceforge.net/DTD/sodipodi-0.dtd" xmlns:rdf="http://www.w3.org/1999/02/22-rdf-syntax-ns#" xmlns:dc="http://purl.org/dc/elements/1.1/" xmlns:cc="http://creativecommons.org/ns#" xmlns:inkscape="http://www.inkscape.org/namespaces/inkscape" xmlns:svg="http://www.w3.org/2000/svg"
	 xmlns="http://www.w3.org/2000/svg" xmlns:xlink="http://www.w3.org/1999/xlink" x="0px" y="0px" width="44.637px"
	 height="44.637px" viewBox="0 0 44.637 44.637" enable-background="new 0 0 44.637 44.637" xml:space="preserve">
<sodipodi:namedview  id="namedview11726" borderopacity="1" guidetolerance="10" inkscape:window-width="1910" inkscape:window-height="1156" inkscape:window-y="0" inkscape:pageshadow="2" inkscape:pageopacity="0" inkscape:window-x="0" inkscape:current-layer="Layer_1" inkscape:window-maximized="0" inkscape:zoom="21.013957" objecttolerance="10" inkscape:cx="22.318501" inkscape:cy="22.318501" bordercolor="#666666" showgrid="false" gridtolerance="10" pagecolor="#ffffff">
	</sodipodi:namedview>
<g id="g11706">
	<g id="g11708">
	</g>
	<g id="g11712">
	</g>
	<g id="g11716">
	</g>
	<g id="g11720">
	</g>
</g>
<g id="Livello_1_2_">
</g>
<g>
	<path d="M0-0.094V44.64h44.637V-0.094H0z M22.32,43.067c-11.498,0-20.812-9.312-20.812-20.812S10.82,1.434,22.32,1.434
		c11.496,0,20.816,9.321,20.816,20.821C43.136,33.749,33.816,43.07,22.32,43.067z"/>
	<path d="M21.493,25.233c0.302-0.359,0.756-0.592,1.265-0.592c0.473,0,0.901,0.203,1.203,0.524c1.733-1.008,2.73-4.14,3.281-6.838
		c0.611-2.992,0.783-6.023,0.828-7.188c-2.262-0.396-4.143-0.581-5.915-0.581c-2.027,0-3.797,0.25-5.619,0.589
		C16.715,15.271,17.864,23.642,21.493,25.233z M23.391,14.374h1.834v3.302h-1.834V14.374z M19.968,14.068h2.139v3.914h-2.139V14.068
		z"/>
	<path d="M29.641,11.532c-0.062,1.383-0.258,4.218-0.844,7.092c-0.918,4.523-2.415,7.244-4.459,8.134
		c-0.201,0.682-0.832,1.182-1.581,1.182c-0.722,0-1.336-0.468-1.558-1.113c-1.161-0.397-2.181-1.258-3.047-2.57
		c-0.912-1.391-1.658-3.313-2.211-5.701c-0.651-2.814-0.886-5.592-0.967-7.041c-0.726,0.31-2.352,1.141-2.352,2.414
		c0,1.008,0.159,2.041,0.345,3.236c0.22,1.427,0.47,3.044,0.573,5.234c0.125,3.021,0.354,7.499,0.469,8.012
		c0.027,0.11,0.046,0.229,0.067,0.354c0.141,0.837,0.354,2.099,2.796,2.977c0.375,0.067,2.65,0.464,5.531,0.464c0,0,0,0,0.004,0
		c1.842,0,3.563-0.16,5.12-0.475c0.142-0.029,3.566-0.785,3.649-3.532c0.003-0.09,0.274-8.826,0.274-10.271
		c0-1.472,0.486-5.751,0.524-6.075C31.983,13.735,32,12.361,29.641,11.532z"/>
	<path d="M22.465,3.108c-10.573,0-19.146,8.572-19.146,19.146c0,10.562,8.573,19.143,19.146,19.143
		c10.577,0,19.144-8.569,19.145-19.143C41.61,11.679,33.039,3.108,22.465,3.108z M33.553,14.015
		c-0.004,0.047-0.516,4.503-0.516,5.91c0,1.469-0.265,9.96-0.275,10.321c-0.122,4.003-4.721,4.994-4.918,5.034
		c-1.66,0.336-3.488,0.508-5.436,0.508c-0.004,0-0.004,0-0.004,0c-3.303,0-5.788-0.485-5.893-0.507l-0.056-0.01l-0.053-0.02
		c-3.376-1.188-3.724-3.239-3.889-4.227c-0.017-0.104-0.034-0.194-0.048-0.261c-0.191-0.826-0.458-7.055-0.51-8.297
		c-0.1-2.104-0.341-3.677-0.556-5.062c-0.194-1.262-0.363-2.35-0.363-3.479c0-2.812,3.641-4.007,3.795-4.057l0.086-0.021
		c2.39-0.479,4.583-0.875,7.235-0.875c1.893,0,3.887,0.199,6.28,0.621C33.881,10.56,33.569,13.875,33.553,14.015z"/>
</g>
</svg>
