<?xml version="1.0" encoding="utf-8"?>
<!-- Generator: Adobe Illustrator 15.1.0, SVG Export Plug-In . SVG Version: 6.00 Build 0)  -->
<!DOCTYPE svg PUBLIC "-//W3C//DTD SVG 1.1//EN" "http://www.w3.org/Graphics/SVG/1.1/DTD/svg11.dtd">
<svg version="1.1"
	 id="Layer_1" xmlns:dc="http://purl.org/dc/elements/1.1/" inkscape:version="0.48.1 r9760" xmlns:rdf="http://www.w3.org/1999/02/22-rdf-syntax-ns#" xmlns:svg="http://www.w3.org/2000/svg" xmlns:sodipodi="http://sodipodi.sourceforge.net/DTD/sodipodi-0.dtd" sodipodi:docname="insteon_LED.svg" xmlns:inkscape="http://www.inkscape.org/namespaces/inkscape" xmlns:cc="http://creativecommons.org/ns#"
	 xmlns="http://www.w3.org/2000/svg" xmlns:xlink="http://www.w3.org/1999/xlink" x="0px" y="0px" width="44.637px"
	 height="44.637px" viewBox="0 0 44.637 44.637" enable-background="new 0 0 44.637 44.637" xml:space="preserve">
<sodipodi:namedview  inkscape:window-y="0" objecttolerance="10" pagecolor="#ffffff" borderopacity="1" guidetolerance="10" inkscape:cy="22.318501" inkscape:window-x="0" inkscape:window-width="1910" inkscape:pageopacity="0" showgrid="false" inkscape:zoom="21.013957" gridtolerance="10" inkscape:window-height="1156" inkscape:pageshadow="2" inkscape:window-maximized="0" inkscape:current-layer="Layer_1" id="namedview11726" inkscape:cx="22.318501" bordercolor="#666666">
	</sodipodi:namedview>
<g id="g11706">
	<g id="g11708">
	</g>
	<g id="g11712">
	</g>
	<g id="g11716">
	</g>
	<g id="g11720">
	</g>
</g>
<g id="Livello_1_2_">
</g>
<g>
	<path fill="#020202" d="M0,0v44.637h44.637V0H0z M22.32,43.061c-11.498,0-20.812-9.313-20.812-20.812
		c0-11.5,9.313-20.821,20.812-20.821c11.496,0,20.816,9.321,20.816,20.821C43.136,33.743,33.816,43.064,22.32,43.061z"/>
	<path fill="#020202" d="M18.912,11.283c0-1.953,1.589-3.542,3.541-3.542c1.954,0,3.542,1.589,3.542,3.542
		c0,1.738-1.258,3.185-2.91,3.484v0.702c2.035-0.307,3.605-2.064,3.605-4.186c0-2.336-1.9-4.237-4.237-4.237
		c-2.334,0-4.234,1.901-4.234,4.237c0,2.122,1.569,3.88,3.606,4.186v-0.702C20.172,14.469,18.912,13.022,18.912,11.283z"/>
	<path fill="#020202" d="M24.606,11.283c0,0.969-0.643,1.789-1.521,2.059v0.784c1.303-0.29,2.281-1.453,2.281-2.843
		c0-1.606-1.308-2.913-2.913-2.913c-1.604,0-2.911,1.307-2.911,2.913c0,1.391,0.979,2.555,2.283,2.843v-0.783
		c-0.881-0.27-1.524-1.091-1.524-2.06c0-1.188,0.966-2.153,2.154-2.153C23.639,9.13,24.606,10.096,24.606,11.283z"/>
	<path fill="#020202" d="M22.465,3.102c-10.573,0-19.146,8.572-19.146,19.146c0,10.567,8.573,19.143,19.146,19.143
		c10.577,0,19.144-8.574,19.145-19.143C41.61,11.673,33.039,3.102,22.465,3.102z M30.344,36.395c-0.787,0-1.426-0.64-1.426-1.427
		c0-0.56,0.325-1.04,0.795-1.272v-5.781h-6.631v3.913c0,0.347-0.278,0.628-0.625,0.63L15.939,32.5
		c-0.231,0.475-0.714,0.804-1.278,0.804c-0.788,0-1.425-0.638-1.425-1.425c0-0.788,0.638-1.426,1.425-1.426
		c0.557,0,1.034,0.322,1.269,0.787l5.895-0.039l0-12.696l-5.107,0.012v2.741c0.47,0.233,0.795,0.712,0.795,1.273
		c0,0.789-0.638,1.426-1.425,1.426s-1.426-0.638-1.426-1.426c0-0.561,0.326-1.04,0.796-1.273v-3.37c0-0.347,0.281-0.629,0.628-0.63
		l5.739-0.013v-1.139c-2.386-0.31-4.236-2.352-4.236-4.822c0-2.684,2.183-4.867,4.864-4.867c2.684,0,4.866,2.183,4.866,4.867
		c0,2.47-1.85,4.511-4.234,4.822l-0.001,1.136l5.204-0.012v-2.772c-0.469-0.233-0.795-0.713-0.795-1.273
		c0-0.787,0.639-1.425,1.426-1.425s1.426,0.638,1.426,1.425c0,0.561-0.327,1.041-0.797,1.273v3.4c0,0.347-0.281,0.629-0.627,0.63
		l-5.837,0.013l-0.001,8.153h7.262c0.348,0,0.629,0.283,0.629,0.631v6.41c0.471,0.232,0.797,0.713,0.797,1.272
		C31.77,35.755,31.131,36.395,30.344,36.395z"/>
</g>
</svg>
