<?xml version="1.0" encoding="utf-8"?>
<!-- Generator: Adobe Illustrator 15.1.0, SVG Export Plug-In . SVG Version: 6.00 Build 0)  -->
<!DOCTYPE svg PUBLIC "-//W3C//DTD SVG 1.1//EN" "http://www.w3.org/Graphics/SVG/1.1/DTD/svg11.dtd">
<svg version="1.1"
	 id="Layer_1" xmlns:inkscape="http://www.inkscape.org/namespaces/inkscape" xmlns:rdf="http://www.w3.org/1999/02/22-rdf-syntax-ns#" xmlns:svg="http://www.w3.org/2000/svg" xmlns:sodipodi="http://sodipodi.sourceforge.net/DTD/sodipodi-0.dtd" sodipodi:docname="insteon_LED.svg" inkscape:version="0.48.1 r9760" xmlns:dc="http://purl.org/dc/elements/1.1/" xmlns:cc="http://creativecommons.org/ns#"
	 xmlns="http://www.w3.org/2000/svg" xmlns:xlink="http://www.w3.org/1999/xlink" x="0px" y="0px" width="44.637px"
	 height="44.637px" viewBox="0 0 44.637 44.637" enable-background="new 0 0 44.637 44.637" xml:space="preserve">
<sodipodi:namedview  inkscape:window-height="1156" inkscape:zoom="21.013957" inkscape:window-maximized="0" inkscape:window-y="0" inkscape:window-x="0" bordercolor="#666666" inkscape:window-width="1910" inkscape:current-layer="Layer_1" inkscape:cx="22.318501" borderopacity="1" inkscape:pageshadow="2" inkscape:pageopacity="0" showgrid="false" inkscape:cy="22.318501" id="namedview11726" pagecolor="#ffffff" objecttolerance="10" gridtolerance="10" guidetolerance="10">
	</sodipodi:namedview>
<g id="g11706">
	<g id="g11708">
	</g>
	<g id="g11712">
	</g>
	<g id="g11716">
	</g>
	<g id="g11720">
	</g>
</g>
<g id="Livello_1_2_">
</g>
<g>
	<path fill="#231F20" d="M0,0v44.637h44.637V0H0z M22.32,43.061c-11.498,0-20.813-9.315-20.813-20.812
		c0-11.5,9.315-20.821,20.813-20.821c11.496,0,20.816,9.321,20.816,20.821C43.136,33.743,33.816,43.064,22.32,43.061z"/>
	<rect x="8.573" y="14.709" fill="#231F20" width="17.667" height="11.955"/>
	<ellipse fill="#231F20" cx="32.714" cy="25.891" rx="0.345" ry="0.351"/>
	<ellipse fill="#231F20" cx="32.714" cy="24.54" rx="0.458" ry="0.465"/>
	<path fill="#231F20" d="M22.465,3.102c-10.573,0-19.146,8.572-19.146,19.146c0,10.569,8.573,19.143,19.146,19.143
		c10.577,0,19.144-8.574,19.145-19.143C41.61,11.673,33.039,3.102,22.465,3.102z M26.976,27.036c0,0.206-0.164,0.373-0.368,0.373
		h-6.993v2.241h2.944c0.203,0,0.368,0.167,0.368,0.374c0,0.206-0.165,0.373-0.368,0.373H12.253c-0.203,0-0.368-0.167-0.368-0.373
		c0-0.207,0.165-0.374,0.368-0.374h2.944v-2.241H8.204c-0.203,0-0.368-0.167-0.368-0.373V14.335c0-0.207,0.165-0.373,0.368-0.373
		h18.403c0.203,0,0.368,0.166,0.368,0.373V27.036z M36.201,14.473v15.334c0,0.326-0.261,0.59-0.582,0.59h-5.811
		c-0.32,0-0.581-0.264-0.581-0.59V14.473c0-0.325,0.261-0.59,0.581-0.59h5.811C35.941,13.884,36.201,14.148,36.201,14.473z"/>
	<rect x="29.809" y="16.243" fill="#231F20" width="5.811" height="1.18"/>
	<rect x="29.809" y="18.602" fill="#231F20" width="5.811" height="1.18"/>
</g>
</svg>
