<?xml version="1.0" encoding="utf-8"?>
<!-- Generator: Adobe Illustrator 15.1.0, SVG Export Plug-In . SVG Version: 6.00 Build 0)  -->
<!DOCTYPE svg PUBLIC "-//W3C//DTD SVG 1.1//EN" "http://www.w3.org/Graphics/SVG/1.1/DTD/svg11.dtd">
<svg version="1.1"
	 id="Layer_1" sodipodi:docname="insteon_LED.svg" inkscape:version="0.48.1 r9760" xmlns:cc="http://creativecommons.org/ns#" xmlns:dc="http://purl.org/dc/elements/1.1/" xmlns:svg="http://www.w3.org/2000/svg" xmlns:sodipodi="http://sodipodi.sourceforge.net/DTD/sodipodi-0.dtd" xmlns:rdf="http://www.w3.org/1999/02/22-rdf-syntax-ns#" xmlns:inkscape="http://www.inkscape.org/namespaces/inkscape"
	 xmlns="http://www.w3.org/2000/svg" xmlns:xlink="http://www.w3.org/1999/xlink" x="0px" y="0px" width="44.637px"
	 height="44.637px" viewBox="0 0 44.637 44.637" enable-background="new 0 0 44.637 44.637" xml:space="preserve">
<sodipodi:namedview  borderopacity="1" id="namedview11726" inkscape:cy="22.318501" inkscape:cx="22.318501" gridtolerance="10" bordercolor="#666666" inkscape:pageopacity="0" inkscape:pageshadow="2" inkscape:window-width="1910" pagecolor="#ffffff" inkscape:window-height="1156" inkscape:window-x="0" inkscape:window-y="0" inkscape:window-maximized="0" inkscape:current-layer="Layer_1" inkscape:zoom="21.013957" showgrid="false" objecttolerance="10" guidetolerance="10">
	</sodipodi:namedview>
<g id="g11706">
	<g id="g11708">
	</g>
	<g id="g11712">
	</g>
	<g id="g11716">
	</g>
	<g id="g11720">
	</g>
</g>
<g>
	<path d="M0,0v44.637h44.637V0H0z M22.32,43.063c-11.498,0-20.814-9.316-20.814-20.812c0-11.5,9.316-20.821,20.814-20.821
		c11.496,0,20.816,9.321,20.816,20.821C43.136,33.743,33.816,43.064,22.32,43.063z"/>
	<path d="M22.465,3.102c-10.573,0-19.146,8.572-19.146,19.146c0,10.568,8.573,19.143,19.146,19.143
		c10.575,0,19.144-8.572,19.145-19.143C41.61,11.673,33.039,3.102,22.465,3.102z"/>
</g>
<path fill="none" stroke="#FFFFFF" stroke-miterlimit="10" d="M29.816,29.615"/>
<path fill="none" stroke="#FFFFFF" stroke-miterlimit="10" d="M5.84,20.656"/>
<path fill="#FFFFFF" d="M29.816,11.88c-4.981,0-9.038,4.019-9.109,8.984l-5.658,1.111c-0.018-0.14-0.3-0.18-0.38-0.345
	c-0.083-0.174,0.091-0.264,0.157-0.379c0.063-0.116,0.031-0.272,0.031-0.272s-0.255-0.709-0.288-0.767
	c-0.002-0.003-0.004-0.005-0.008-0.008c0.441-0.103,0.816-0.376,1.051-0.748c-0.001,0.016-0.002,0.03-0.002,0.047
	c0,0.357,0.291,0.647,0.648,0.647c0.359,0,0.65-0.29,0.65-0.647c0.001-0.361-0.29-0.652-0.649-0.652c-0.18,0-0.342,0.074-0.46,0.192
	c0.046-0.153,0.071-0.316,0.071-0.485c0-0.933-0.756-1.688-1.689-1.688c-0.933,0-1.688,0.756-1.688,1.688
	c0,0.162,0.022,0.32,0.065,0.469c-0.116-0.107-0.271-0.176-0.441-0.176c-0.359,0-0.65,0.291-0.65,0.65
	c0,0.357,0.291,0.647,0.65,0.647c0.357,0,0.648-0.29,0.648-0.647c0-0.009-0.001-0.018-0.001-0.024
	c0.248,0.384,0.649,0.659,1.117,0.743c-0.002,0.001-0.109,0.18-0.187,0.417c-0.148,0.468-0.024,0.604-0.024,0.604
	c0.082,0.031,0.338,0.222-0.074,0.437c-0.419,0.218-0.444,0.667-0.444,0.667l0.189-0.035l-1.2,0.235
	c-0.008-0.042-0.015-0.085-0.038-0.124l-0.138-0.229c-0.068-0.113-0.19-0.182-0.322-0.182H7.107c-0.085,0-0.167,0.029-0.234,0.082
	L5.24,23.397c-0.065,0.052-0.111,0.124-0.131,0.205c-0.023,0.096-0.218,0.95-0.028,1.595c0.018,0.06,0.05,0.114,0.095,0.159
	l0.934,0.934c0.07,0.07,0.166,0.109,0.265,0.109h5.2c0.1,0,0.195-0.04,0.265-0.11l1.077-1.078c0.078-0.077,0.099-0.183,0.093-0.288
	l8.35-0.537c1.348,3.354,4.627,5.729,8.457,5.729c5.027,0,9.117-4.09,9.117-9.117S34.843,11.88,29.816,11.88z"/>
<path d="M32.767,20.824c-1.696,0-3.077,1.38-3.077,3.076s1.381,3.077,3.077,3.077s3.077-1.381,3.077-3.077
	S34.463,20.824,32.767,20.824z"/>
<path d="M37.217,16.969l-0.2-0.032c-2.942-0.467-5.548-0.704-7.743-0.704c-2.498,0-3.553,0.312-3.597,0.326l-0.15,0.046
	l-0.945,1.817l0.668-0.047c0.61-0.043,1.513-0.065,2.682-0.065c3.831,0,9.345,0.235,9.4,0.237l0.606,0.026L37.217,16.969z"/>
</svg>
