<?xml version="1.0" encoding="utf-8"?>
<!-- Generator: Adobe Illustrator 15.1.0, SVG Export Plug-In . SVG Version: 6.00 Build 0)  -->
<!DOCTYPE svg PUBLIC "-//W3C//DTD SVG 1.1//EN" "http://www.w3.org/Graphics/SVG/1.1/DTD/svg11.dtd">
<svg version="1.1"
	 id="Layer_1" xmlns:rdf="http://www.w3.org/1999/02/22-rdf-syntax-ns#" inkscape:version="0.48.1 r9760" xmlns:dc="http://purl.org/dc/elements/1.1/" xmlns:inkscape="http://www.inkscape.org/namespaces/inkscape" xmlns:sodipodi="http://sodipodi.sourceforge.net/DTD/sodipodi-0.dtd" xmlns:svg="http://www.w3.org/2000/svg" sodipodi:docname="insteon_LED.svg" xmlns:cc="http://creativecommons.org/ns#"
	 xmlns="http://www.w3.org/2000/svg" xmlns:xlink="http://www.w3.org/1999/xlink" x="0px" y="0px" width="44.637px"
	 height="44.637px" viewBox="0 0 44.637 44.637" enable-background="new 0 0 44.637 44.637" xml:space="preserve">
<sodipodi:namedview  id="namedview11726" inkscape:window-height="1156" inkscape:cx="22.318501" inkscape:cy="22.318501" bordercolor="#666666" inkscape:current-layer="Layer_1" inkscape:zoom="21.013957" inkscape:pageshadow="2" inkscape:pageopacity="0" inkscape:window-width="1910" borderopacity="1" inkscape:window-maximized="0" gridtolerance="10" pagecolor="#ffffff" inkscape:window-y="0" guidetolerance="10" inkscape:window-x="0" showgrid="false" objecttolerance="10">
	</sodipodi:namedview>
<g id="g11706">
	<g id="g11708">
	</g>
	<g id="g11712">
	</g>
	<g id="g11716">
	</g>
	<g id="g11720">
	</g>
</g>
<path d="M0,0v44.637h44.637V0H0z M22.32,43.063c-11.498,0-20.815-9.317-20.815-20.812c0-11.5,9.317-20.821,20.815-20.821
	c11.496,0,20.816,9.321,20.816,20.821C43.136,33.743,33.816,43.064,22.32,43.063z"/>
<g>
	<path d="M22.465,3.102c-10.573,0-19.146,8.572-19.146,19.146c0,10.569,8.573,19.143,19.146,19.143
		c10.575,0,19.144-8.572,19.145-19.143C41.61,11.673,33.039,3.102,22.465,3.102z M29.753,29.723l-7.294,4.73l-7.132-4.764v-1.111
		l2.134,1.263l0.237,0.142l0.219-0.169l4.607-3.536l4.605,3.536l0.221,0.169l0.239-0.143l2.164-1.299V29.723z M29.753,27.731
		l-2.374,1.423l-4.855-3.726l-4.856,3.726l-2.341-1.386l-5.095-3.018l5.121-3.896l-5.121-3.895l7.436-4.844l4.856,4.167l4.969-4.167
		l7.227,4.618l-4.742,3.952l4.743,4.066L29.753,27.731z"/>
	<polygon points="15.442,20.785 22.476,25.217 29.553,20.527 22.539,16.497 	"/>
</g>
</svg>
