<?xml version="1.0" encoding="utf-8"?>
<!-- Generator: Adobe Illustrator 15.1.0, SVG Export Plug-In . SVG Version: 6.00 Build 0)  -->
<!DOCTYPE svg PUBLIC "-//W3C//DTD SVG 1.1//EN" "http://www.w3.org/Graphics/SVG/1.1/DTD/svg11.dtd">
<svg version="1.1"
	 id="Layer_1" xmlns:dc="http://purl.org/dc/elements/1.1/" inkscape:version="0.48.1 r9760" xmlns:rdf="http://www.w3.org/1999/02/22-rdf-syntax-ns#" xmlns:svg="http://www.w3.org/2000/svg" xmlns:sodipodi="http://sodipodi.sourceforge.net/DTD/sodipodi-0.dtd" sodipodi:docname="insteon_LED.svg" xmlns:inkscape="http://www.inkscape.org/namespaces/inkscape" xmlns:cc="http://creativecommons.org/ns#"
	 xmlns="http://www.w3.org/2000/svg" xmlns:xlink="http://www.w3.org/1999/xlink" x="0px" y="0px" width="44.637px"
	 height="44.637px" viewBox="0 0 44.637 44.637" enable-background="new 0 0 44.637 44.637" xml:space="preserve">
<sodipodi:namedview  inkscape:window-y="0" objecttolerance="10" pagecolor="#ffffff" borderopacity="1" guidetolerance="10" inkscape:cy="22.318501" inkscape:window-x="0" inkscape:window-width="1910" inkscape:pageopacity="0" showgrid="false" inkscape:zoom="21.013957" gridtolerance="10" inkscape:window-height="1156" inkscape:pageshadow="2" inkscape:window-maximized="0" inkscape:current-layer="Layer_1" id="namedview11726" inkscape:cx="22.318501" bordercolor="#666666">
	</sodipodi:namedview>
<g id="g11706">
	<g id="g11708">
	</g>
	<g id="g11712">
	</g>
	<g id="g11716">
	</g>
	<g id="g11720">
	</g>
</g>
<g id="Livello_1_2_">
</g>
<path fill="none" stroke="#FFFFFF" stroke-width="7" stroke-miterlimit="10" d="M257.424-174.28c0,0,49.877,8.099,87.862-0.2"/>
<path fill="#FFFFFF" d="M501.361-114.128"/>
<path fill="#231F20" stroke="#231F20" stroke-miterlimit="10" d="M492.298-133.372"/>
<g>
	<path d="M0,0v44.637h44.637V0H0z M22.32,43.061c-11.498,0-20.812-9.312-20.812-20.812c0-11.5,9.312-20.821,20.812-20.821
		c11.496,0,20.816,9.321,20.816,20.821C43.136,33.743,33.816,43.064,22.32,43.061z"/>
	<path fill="#231F20" d="M22.465,3.102c-10.573,0-19.146,8.572-19.146,19.146c0,10.566,8.573,19.143,19.146,19.143
		c10.577,0,19.144-8.574,19.145-19.143C41.61,11.673,33.039,3.102,22.465,3.102z M31.647,34.646c0,1.325-1.075,2.4-2.401,2.4h-12.6
		c-1.326,0-2.401-1.075-2.401-2.4V9.87c0-1.325,1.075-2.401,2.401-2.401h12.6c1.326,0,2.401,1.076,2.401,2.401V34.646z"/>
	<path fill="#231F20" d="M22.973,15.233c-1.84,0-3.337,1.497-3.337,3.337c0,1.839,1.497,3.336,3.337,3.336
		c1.84,0,3.337-1.497,3.337-3.336C26.31,16.73,24.813,15.233,22.973,15.233z M22.973,20.873c-1.271,0-2.304-1.033-2.304-2.303
		c0-1.271,1.034-2.304,2.304-2.304c1.27,0,2.303,1.033,2.303,2.304C25.276,19.84,24.242,20.873,22.973,20.873z"/>
	<rect x="20.492" y="28.394" fill="#231F20" width="1.118" height="2.796"/>
	<rect x="24.153" y="28.66" fill="#231F20" width="1.119" height="2.376"/>
	<path fill="#231F20" d="M22.816,31.846c-0.617,0-1.1,0.667-1.1,1.52v0.258h2.202v-0.258C23.918,32.528,23.424,31.846,22.816,31.846
		z"/>
</g>
</svg>
