<?xml version="1.0" encoding="utf-8"?>
<!-- Generator: Adobe Illustrator 15.1.0, SVG Export Plug-In . SVG Version: 6.00 Build 0)  -->
<!DOCTYPE svg PUBLIC "-//W3C//DTD SVG 1.1//EN" "http://www.w3.org/Graphics/SVG/1.1/DTD/svg11.dtd">
<svg version="1.1"
	 id="Layer_1" sodipodi:docname="insteon_LED.svg" inkscape:version="0.48.1 r9760" xmlns:sodipodi="http://sodipodi.sourceforge.net/DTD/sodipodi-0.dtd" xmlns:rdf="http://www.w3.org/1999/02/22-rdf-syntax-ns#" xmlns:dc="http://purl.org/dc/elements/1.1/" xmlns:cc="http://creativecommons.org/ns#" xmlns:inkscape="http://www.inkscape.org/namespaces/inkscape" xmlns:svg="http://www.w3.org/2000/svg"
	 xmlns="http://www.w3.org/2000/svg" xmlns:xlink="http://www.w3.org/1999/xlink" x="0px" y="0px" width="44.637px"
	 height="44.637px" viewBox="0 0 44.637 44.637" enable-background="new 0 0 44.637 44.637" xml:space="preserve">
<sodipodi:namedview  id="namedview11726" borderopacity="1" guidetolerance="10" inkscape:window-width="1910" inkscape:window-height="1156" inkscape:window-y="0" inkscape:pageshadow="2" inkscape:pageopacity="0" inkscape:window-x="0" inkscape:current-layer="Layer_1" inkscape:window-maximized="0" inkscape:zoom="21.013957" objecttolerance="10" inkscape:cx="22.318501" inkscape:cy="22.318501" bordercolor="#666666" showgrid="false" gridtolerance="10" pagecolor="#ffffff">
	</sodipodi:namedview>
<g id="g11706">
	<g id="g11708">
	</g>
	<g id="g11712">
	</g>
	<g id="g11716">
	</g>
	<g id="g11720">
	</g>
</g>
<g id="Livello_1_2_">
</g>
<g>
	<path d="M0-0.094V44.64h44.637V-0.094H0z M22.32,43.067c-11.498,0-20.812-9.312-20.812-20.812S10.82,1.434,22.32,1.434
		c11.496,0,20.816,9.321,20.816,20.821C43.136,33.749,33.816,43.07,22.32,43.067z"/>
	<path d="M22.465,3.108c-10.573,0-19.146,8.572-19.146,19.146c0,10.408,8.331,18.876,18.693,19.119v-3.535h-0.893l-0.584-3.832
		h-4.799c-2.991,0-5.42-2.428-5.42-5.422V14.731c0-2.994,2.429-5.421,5.42-5.421h13.854c2.992,0,5.42,2.427,5.42,5.421v13.854
		c0,2.994-2.428,5.422-5.42,5.422h-5.058l-0.615,3.832h-0.893v3.53c10.314-0.302,18.581-8.73,18.582-19.114
		C41.61,11.679,33.039,3.108,22.465,3.108z"/>
	<path d="M32.285,26.856V16.463c0-2.521-2.053-4.573-4.572-4.573H17.324c-2.521,0-4.573,2.051-4.573,4.573v10.393
		c0,2.521,2.051,4.572,4.573,4.572h10.389C30.235,31.428,32.285,29.377,32.285,26.856z M13.768,26.856V16.463
		c0-1.961,1.595-3.556,3.558-3.556h10.389c1.961,0,3.557,1.595,3.557,3.556v10.393c0,1.961-1.596,3.559-3.557,3.559h-10.39
		C15.364,30.412,13.768,28.817,13.768,26.856z"/>
	<circle cx="22.52" cy="17.504" r="1.437"/>
</g>
</svg>
