<?xml version="1.0" encoding="utf-8"?>
<!-- Generator: Adobe Illustrator 15.1.0, SVG Export Plug-In . SVG Version: 6.00 Build 0)  -->
<!DOCTYPE svg PUBLIC "-//W3C//DTD SVG 1.1//EN" "http://www.w3.org/Graphics/SVG/1.1/DTD/svg11.dtd">
<svg version="1.1"
	 id="Layer_1" sodipodi:docname="insteon_LED.svg" inkscape:version="0.48.1 r9760" xmlns:sodipodi="http://sodipodi.sourceforge.net/DTD/sodipodi-0.dtd" xmlns:rdf="http://www.w3.org/1999/02/22-rdf-syntax-ns#" xmlns:dc="http://purl.org/dc/elements/1.1/" xmlns:cc="http://creativecommons.org/ns#" xmlns:inkscape="http://www.inkscape.org/namespaces/inkscape" xmlns:svg="http://www.w3.org/2000/svg"
	 xmlns="http://www.w3.org/2000/svg" xmlns:xlink="http://www.w3.org/1999/xlink" x="0px" y="0px" width="44.637px"
	 height="44.637px" viewBox="0 0 44.637 44.637" enable-background="new 0 0 44.637 44.637" xml:space="preserve">
<sodipodi:namedview  id="namedview11726" borderopacity="1" guidetolerance="10" inkscape:window-width="1910" inkscape:window-height="1156" inkscape:window-y="0" inkscape:pageshadow="2" inkscape:pageopacity="0" inkscape:window-x="0" inkscape:current-layer="Layer_1" inkscape:window-maximized="0" inkscape:zoom="21.013957" objecttolerance="10" inkscape:cx="22.318501" inkscape:cy="22.318501" bordercolor="#666666" showgrid="false" gridtolerance="10" pagecolor="#ffffff">
	</sodipodi:namedview>
<g id="g11706">
	<g id="g11708">
	</g>
	<g id="g11712">
	</g>
	<g id="g11716">
	</g>
	<g id="g11720">
	</g>
</g>
<g id="Livello_1_2_">
</g>
<g>
	<path d="M0-0.094v44.734h44.637V-0.094H0z M22.32,43.067c-11.498,0-20.812-9.312-20.812-20.812S10.82,1.434,22.32,1.434
		c11.496,0,20.816,9.321,20.816,20.821C43.136,33.749,33.816,43.07,22.32,43.067z"/>
	<path d="M22.465,3.108c-10.573,0-19.146,8.572-19.146,19.146c0,10.562,8.573,19.143,19.146,19.143
		c10.577,0,19.144-8.571,19.145-19.143C41.61,11.679,33.039,3.108,22.465,3.108z M22.685,37.149c-8.28,0-14.992-6.711-14.992-14.993
		c0-8.279,6.712-14.991,14.992-14.991c8.276,0,14.988,6.712,14.988,14.991C37.673,30.438,30.961,37.149,22.685,37.149z"/>
	<path d="M28.627,10.742c-0.109-0.119-0.238-0.234-0.377-0.342c-0.627-0.495-1.417-0.707-2.201-0.692L22.37,9.797L18.779,9.87
		c-0.16-0.008-0.335,0.004-0.509,0.025c-0.793,0.092-1.501,0.502-2.046,1.066l-2.542,2.667l-2.486,2.591
		c-0.119,0.109-0.233,0.24-0.342,0.378c-0.496,0.626-0.707,1.417-0.692,2.201l0.089,3.684l0.074,3.594
		c-0.008,0.159,0.004,0.334,0.025,0.508c0.092,0.795,0.502,1.502,1.066,2.047l2.667,2.541l2.591,2.487
		c0.109,0.118,0.24,0.232,0.378,0.341c0.626,0.496,1.417,0.707,2.201,0.692l3.683-0.09l3.587-0.072
		c0.161,0.009,0.335-0.006,0.51-0.026c0.793-0.092,1.501-0.502,2.047-1.066l2.541-2.666l2.485-2.59
		c0.119-0.108,0.234-0.241,0.343-0.379c0.495-0.627,0.706-1.417,0.692-2.201l-0.089-3.686l-0.073-3.59
		c0.006-0.162-0.005-0.335-0.025-0.51c-0.094-0.793-0.503-1.501-1.066-2.046l-2.667-2.542L28.627,10.742z M21.153,27.838
		c-0.031,0.082-0.11,0.134-0.195,0.134c-0.018,0-0.034-0.003-0.052-0.007c-2.539-0.635-4.215-1.219-4.363-3.449
		c-0.148-2.229,1.673-3.406,1.751-3.455c0.072-0.045,0.165-0.043,0.234,0.007c0.069,0.051,0.103,0.138,0.082,0.221
		c-1.034,4.321,2.306,6.21,2.448,6.289C21.151,27.627,21.191,27.74,21.153,27.838z M25.686,27.343
		c-0.719,0.718-2.242,1.646-2.307,1.685c-0.033,0.021-0.07,0.031-0.108,0.031c-0.036,0-0.07-0.01-0.104-0.028
		c-0.066-0.036-0.105-0.107-0.105-0.185c0-0.021-0.006-2.223-2.271-5.211c-3.133-4.133-0.642-6.593-0.11-7.044
		c0.928-0.789,2.428-2.29,2.442-2.305c0.066-0.066,0.167-0.08,0.249-0.035c0.081,0.045,0.124,0.14,0.103,0.23
		c-0.01,0.042-0.925,4.203,1.726,6.406c1.039,0.863,1.595,1.916,1.65,3.122C26.919,25.521,26.172,26.856,25.686,27.343z
		 M27.147,28.438c-0.018,0.004-0.034,0.006-0.051,0.006c-0.071,0-0.14-0.036-0.179-0.098c-0.048-0.078-0.04-0.178,0.019-0.248
		c0.088-0.103,2.107-2.539,0.445-5.82c-0.039-0.076-0.027-0.168,0.029-0.231c0.057-0.064,0.146-0.089,0.228-0.061
		c0.099,0.034,2.441,0.868,2.645,2.588C30.485,26.301,28.34,28.139,27.147,28.438z"/>
</g>
</svg>
