<?xml version="1.0" encoding="utf-8"?>
<!-- Generator: Adobe Illustrator 15.1.0, SVG Export Plug-In . SVG Version: 6.00 Build 0)  -->
<!DOCTYPE svg PUBLIC "-//W3C//DTD SVG 1.1//EN" "http://www.w3.org/Graphics/SVG/1.1/DTD/svg11.dtd">
<svg version="1.1"
	 id="Layer_1" sodipodi:docname="insteon_LED.svg" inkscape:version="0.48.1 r9760" xmlns:sodipodi="http://sodipodi.sourceforge.net/DTD/sodipodi-0.dtd" xmlns:rdf="http://www.w3.org/1999/02/22-rdf-syntax-ns#" xmlns:dc="http://purl.org/dc/elements/1.1/" xmlns:cc="http://creativecommons.org/ns#" xmlns:inkscape="http://www.inkscape.org/namespaces/inkscape" xmlns:svg="http://www.w3.org/2000/svg"
	 xmlns="http://www.w3.org/2000/svg" xmlns:xlink="http://www.w3.org/1999/xlink" x="0px" y="0px" width="44.637px"
	 height="44.637px" viewBox="0 0 44.637 44.637" enable-background="new 0 0 44.637 44.637" xml:space="preserve">
<sodipodi:namedview  id="namedview11726" borderopacity="1" guidetolerance="10" inkscape:window-width="1910" inkscape:window-height="1156" inkscape:window-y="0" inkscape:pageshadow="2" inkscape:pageopacity="0" inkscape:window-x="0" inkscape:current-layer="Layer_1" inkscape:window-maximized="0" inkscape:zoom="21.013957" objecttolerance="10" inkscape:cx="22.318501" inkscape:cy="22.318501" bordercolor="#666666" showgrid="false" gridtolerance="10" pagecolor="#ffffff">
	</sodipodi:namedview>
<g id="g11706">
	<g id="g11708">
	</g>
	<g id="g11712">
	</g>
	<g id="g11716">
	</g>
	<g id="g11720">
	</g>
</g>
<g id="Livello_1_2_">
</g>
<g>
	<path d="M0-0.094v44.734h44.637V-0.094H0z M22.32,43.067c-11.498,0-20.812-9.312-20.812-20.812S10.82,1.434,22.32,1.434
		c11.496,0,20.816,9.321,20.816,20.821C43.136,33.749,33.816,43.07,22.32,43.067z"/>
	<path d="M22.465,3.108c-10.573,0-19.146,8.572-19.146,19.146c0,10.562,8.573,19.143,19.146,19.143
		c10.577,0,19.144-8.571,19.145-19.143C41.61,11.679,33.039,3.108,22.465,3.108z M31.603,35.406c0,0.387-0.312,0.7-0.7,0.7H13.845
		c-0.387,0-0.7-0.313-0.7-0.7V9.253c0-0.387,0.313-0.7,0.7-0.7h17.057c0.388,0,0.7,0.313,0.7,0.7L31.603,35.406L31.603,35.406z"/>
	<path d="M14.84,34.41h15.069V10.336H14.84V34.41z M22.76,19.154l2.999-5.241h-2.257c-0.139,0-0.25-0.112-0.25-0.25v-0.929
		c0-0.138,0.111-0.25,0.25-0.25h4.311c0.089,0,0.172,0.048,0.216,0.125c0.046,0.077,0.047,0.173,0.001,0.25l-2.999,5.242h2.711
		c0.138,0,0.25,0.112,0.25,0.25v0.928c0,0.139-0.112,0.25-0.25,0.25h-4.765c-0.089,0-0.171-0.047-0.216-0.125
		C22.716,19.326,22.716,19.231,22.76,19.154z M20.131,25.881c1.541,0,2.789,1.248,2.789,2.79c0,1.541-1.248,2.79-2.789,2.79
		c-1.542,0-2.791-1.249-2.791-2.79C17.34,27.129,18.59,25.881,20.131,25.881z"/>
</g>
</svg>
