<?xml version="1.0" encoding="utf-8"?>
<!-- Generator: Adobe Illustrator 15.1.0, SVG Export Plug-In . SVG Version: 6.00 Build 0)  -->
<!DOCTYPE svg PUBLIC "-//W3C//DTD SVG 1.1//EN" "http://www.w3.org/Graphics/SVG/1.1/DTD/svg11.dtd">
<svg version="1.1"
	 id="Layer_1" sodipodi:docname="ecobee.svg" inkscape:version="0.48.2 r9819" xmlns:svg="http://www.w3.org/2000/svg" xmlns:rdf="http://www.w3.org/1999/02/22-rdf-syntax-ns#" xmlns:dc="http://purl.org/dc/elements/1.1/" xmlns:inkscape="http://www.inkscape.org/namespaces/inkscape" xmlns:sodipodi="http://sodipodi.sourceforge.net/DTD/sodipodi-0.dtd" xmlns:cc="http://creativecommons.org/ns#"
	 xmlns="http://www.w3.org/2000/svg" xmlns:xlink="http://www.w3.org/1999/xlink" x="0px" y="0px" width="44.637px"
	 height="44.637px" viewBox="0 0 44.637 44.637" enable-background="new 0 0 44.637 44.637" xml:space="preserve">
<title>Layer 1</title>
<g>
	<path fill="#020202" d="M20.992,15.512v-1.59c0-0.439-0.355-0.795-0.797-0.795c-0.438,0-0.794,0.356-0.794,0.795v1.59
		c0,0.438,0.355,0.795,0.794,0.795C20.636,16.308,20.992,15.952,20.992,15.512z"/>
	<path fill="#020202" d="M14.473,13.128c-0.438,0-0.794,0.356-0.794,0.795v1.59c0,0.438,0.354,0.795,0.794,0.795
		c0.438,0,0.794-0.356,0.794-0.795v-1.59C15.267,13.484,14.911,13.128,14.473,13.128z"/>
	<path fill="#020202" d="M17.336,13.128c-0.439,0-0.796,0.356-0.796,0.795v1.59c0,0.438,0.356,0.795,0.796,0.795
		c0.438,0,0.794-0.356,0.794-0.795v-1.59C18.131,13.484,17.775,13.128,17.336,13.128z"/>
	<path fill="#020202" d="M11.611,13.128c-0.438,0-0.794,0.356-0.794,0.795v1.59c0,0.438,0.356,0.795,0.794,0.795
		c0.439,0,0.795-0.356,0.795-0.795v-1.59C12.406,13.484,12.051,13.128,11.611,13.128z"/>
	<path fill="#020202" d="M22.465,3.176C11.892,3.176,3.32,11.747,3.32,22.32c0,10.573,8.571,19.146,19.146,19.146
		S41.61,32.895,41.61,22.321C41.61,11.748,33.039,3.176,22.465,3.176z M17.813,20.444v1.209c0,0.386-0.312,0.7-0.7,0.7h-2.417
		c-0.387,0-0.7-0.314-0.7-0.7v-1.209h-1.844c-0.387,0-0.7-0.313-0.7-0.704v-1.208h-0.89c-0.387,0-0.701-0.312-0.701-0.699v-4.961
		c0-0.386,0.312-0.699,0.702-0.699h10.686c0.389,0,0.7,0.313,0.7,0.699v4.961c0,0.389-0.311,0.699-0.7,0.699h-0.892v1.208
		c0,0.391-0.311,0.704-0.7,0.704H17.813z M36.022,31.174c-0.002,0.273-0.146,0.521-0.38,0.654l-7.876,4.5
		c-0.002,0.002-0.005,0.002-0.007,0.002c-0.004,0.002-0.007,0.006-0.011,0.008c-0.111,0.062-0.232,0.092-0.354,0.092
		c-0.121,0-0.239-0.037-0.348-0.096c-0.01-0.006-0.021-0.004-0.029-0.008c-0.004-0.004-0.006-0.008-0.011-0.012
		c-0.009-0.006-0.021-0.008-0.029-0.016l-6.75-4.5c-0.208-0.139-0.334-0.371-0.334-0.625v-7.873c0-0.007,0.002-0.013,0.002-0.019
		c0-0.002-0.002-0.004-0.002-0.008c0-0.008,0.005-0.012,0.005-0.021c0.008-0.121,0.04-0.238,0.104-0.342
		c0.001-0.002,0.002-0.002,0.003-0.004c0.062-0.102,0.147-0.186,0.254-0.248c0.005-0.004,0.007-0.01,0.013-0.014l7.875-4.491
		c0.247-0.143,0.553-0.131,0.789,0.027l6.75,4.489c0.059,0.037,0.088,0.098,0.131,0.146c0.036,0.041,0.081,0.072,0.107,0.121
		c0.038,0.064,0.045,0.145,0.06,0.223c0.011,0.045,0.036,0.086,0.036,0.133v7.88H36.022z"/>
	<path fill="#020202" d="M-0.1,0V44.73h44.737V0H-0.1z M22.32,43.138c-11.498,0-20.812-9.322-20.812-20.818
		C1.501,10.823,10.821,1.5,22.32,1.5c11.496,0,20.816,9.323,20.816,20.812C43.136,33.815,33.816,43.138,22.32,43.138z"/>
	<polygon fill="#020202" points="28.489,19.693 22.07,23.352 27.424,26.922 33.844,23.254 	"/>
	<polygon fill="#020202" points="21.394,30.778 26.644,34.278 26.644,28.203 21.394,24.703 	"/>
	<polygon fill="#020202" points="28.144,34.387 34.52,30.742 34.52,24.595 28.144,28.239 	"/>
</g>
</svg>
