<?xml version="1.0" encoding="utf-8"?>
<!-- Generator: Adobe Illustrator 15.1.0, SVG Export Plug-In . SVG Version: 6.00 Build 0)  -->
<!DOCTYPE svg PUBLIC "-//W3C//DTD SVG 1.1//EN" "http://www.w3.org/Graphics/SVG/1.1/DTD/svg11.dtd">
<svg version="1.1"
	 id="Layer_1" sodipodi:docname="insteon_LED.svg" inkscape:version="0.48.1 r9760" xmlns:sodipodi="http://sodipodi.sourceforge.net/DTD/sodipodi-0.dtd" xmlns:rdf="http://www.w3.org/1999/02/22-rdf-syntax-ns#" xmlns:dc="http://purl.org/dc/elements/1.1/" xmlns:cc="http://creativecommons.org/ns#" xmlns:inkscape="http://www.inkscape.org/namespaces/inkscape" xmlns:svg="http://www.w3.org/2000/svg"
	 xmlns="http://www.w3.org/2000/svg" xmlns:xlink="http://www.w3.org/1999/xlink" x="0px" y="0px" width="44.637px"
	 height="44.637px" viewBox="0 0 44.637 44.637" enable-background="new 0 0 44.637 44.637" xml:space="preserve">
<sodipodi:namedview  id="namedview11726" borderopacity="1" guidetolerance="10" inkscape:window-width="1910" inkscape:window-height="1156" inkscape:window-y="0" inkscape:pageshadow="2" inkscape:pageopacity="0" inkscape:window-x="0" inkscape:current-layer="Layer_1" inkscape:window-maximized="0" inkscape:zoom="21.013957" objecttolerance="10" inkscape:cx="22.318501" inkscape:cy="22.318501" bordercolor="#666666" showgrid="false" gridtolerance="10" pagecolor="#ffffff">
	</sodipodi:namedview>
<g id="g11706">
	<g id="g11708">
	</g>
	<g id="g11712">
	</g>
	<g id="g11716">
	</g>
	<g id="g11720">
	</g>
</g>
<g id="Livello_1_2_">
</g>
<g display="none">
	<path display="inline" fill="#231F20" d="M0-0.094v44.735h44.637V-0.094H0z M22.32,43.067c-11.498,0-20.812-9.312-20.812-20.812
		S10.82,1.434,22.32,1.434c11.496,0,20.816,9.321,20.816,20.821C43.136,33.749,33.816,43.07,22.32,43.067z"/>
	<path display="inline" fill="#231F20" d="M22.465,3.108c-10.573,0-19.146,8.572-19.146,19.146c0,10.563,8.573,19.143,19.146,19.143
		c10.577,0,19.144-8.572,19.145-19.143C41.61,11.679,33.039,3.108,22.465,3.108z M36.436,21.537l-0.012,2.366l-0.016,2.887
		c-0.201,2.321-0.429,2.738-0.472,2.8c-0.567,0.798-0.992,1.29-2.471,1.399c-1.508,0.108-6.9,0.381-10.051,0.381
		c-0.386,0-0.739-0.005-1.078-0.015c-2.854,0.077-9.407-0.244-11.102-0.366c-1.479-0.109-1.9-0.603-2.471-1.399
		c-0.043-0.06-0.269-0.478-0.469-2.744l-0.018-2.94l-0.014-2.367l-0.016-2.563c0.213-2.917,0.465-3.411,0.515-3.48
		c0.568-0.796,0.99-1.29,2.471-1.398c1.512-0.11,6.902-0.381,10.049-0.381c0.387,0,0.739,0.005,1.079,0.013
		c2.855-0.081,9.406,0.244,11.103,0.368c1.479,0.109,1.902,0.604,2.471,1.398c0.049,0.067,0.303,0.563,0.515,3.458L36.436,21.537z"
		/>
	<path display="inline" fill="#231F20" d="M35.496,22.339h-7.907c-0.143-2.664-2.345-4.794-5.056-4.794
		c-2.712,0-4.914,2.13-5.056,4.794H9.079c-0.147,0-0.271,0.119-0.273,0.265c-0.003,0.149,0.117,0.274,0.275,0.277h8.397
		c0.148,2.656,2.348,4.778,5.055,4.778c2.705,0,4.904-2.122,5.054-4.778h7.915c0.143,0,0.264-0.11,0.273-0.25l-0.003-0.054
		C35.757,22.441,35.641,22.339,35.496,22.339z M22.533,26.44c-2.131,0-3.857-1.719-3.857-3.837c0-2.121,1.728-3.837,3.857-3.837
		c2.129,0,3.856,1.716,3.856,3.837C26.391,24.721,24.662,26.44,22.533,26.44z"/>
	<path display="inline" fill="#231F20" d="M24.633,20.568l-2.198,1.845c-0.116,0.088-0.146,0.251-0.065,0.371l0.043,0.048
		c0.05,0.046,0.115,0.069,0.184,0.069c0.07,0,0.137-0.025,0.181-0.067l2.203-1.85c0.114-0.095,0.134-0.261,0.042-0.38
		C24.933,20.494,24.767,20.466,24.633,20.568z"/>
</g>
<g>
	<path d="M0-0.094v44.735h44.637V-0.094H0z M22.32,43.067c-11.498,0-20.812-9.312-20.812-20.812S10.82,1.434,22.32,1.434
		c11.496,0,20.816,9.321,20.816,20.821C43.136,33.749,33.816,43.07,22.32,43.067z"/>
	<path d="M22.465,3.108c-10.573,0-19.146,8.572-19.146,19.146c0,10.563,8.573,19.143,19.146,19.143
		c10.577,0,19.144-8.572,19.145-19.143C41.61,11.679,33.039,3.108,22.465,3.108z M36.436,21.537l-0.012,2.366l-0.016,2.887
		c-0.201,2.321-0.429,2.738-0.472,2.8c-0.567,0.798-0.992,1.29-2.471,1.399c-1.508,0.108-6.9,0.381-10.051,0.381
		c-0.386,0-0.739-0.005-1.078-0.015c-2.854,0.077-9.407-0.244-11.102-0.366c-1.479-0.109-1.9-0.603-2.471-1.399
		c-0.043-0.06-0.269-0.478-0.469-2.744l-0.018-2.94l-0.014-2.367l-0.016-2.563c0.213-2.917,0.465-3.411,0.515-3.48
		c0.568-0.796,0.99-1.29,2.471-1.398c1.512-0.11,6.902-0.381,10.049-0.381c0.387,0,0.739,0.005,1.079,0.013
		c2.855-0.081,9.406,0.244,11.103,0.368c1.479,0.109,1.902,0.604,2.471,1.398c0.049,0.067,0.303,0.563,0.515,3.458L36.436,21.537z"
		/>
	<path d="M35.496,22.339h-7.907h-2.231v-5.001h-5.355v5.001h-2.523H9.079c-0.147,0-0.271,0.119-0.273,0.265
		c-0.003,0.149,0.117,0.274,0.275,0.277h8.397h2.522v4.799h5.355v-4.799h2.229h7.915c0.143,0,0.264-0.11,0.273-0.25l-0.003-0.054
		C35.757,22.441,35.641,22.339,35.496,22.339z M24.858,27.18h-4.355v-9.342h4.355V27.18z"/>
	<rect x="20.999" y="22.36" width="3.375" height="4.38"/>
</g>
</svg>
