<?xml version="1.0" encoding="utf-8"?>
<!-- Generator: Adobe Illustrator 15.1.0, SVG Export Plug-In . SVG Version: 6.00 Build 0)  -->
<!DOCTYPE svg PUBLIC "-//W3C//DTD SVG 1.1//EN" "http://www.w3.org/Graphics/SVG/1.1/DTD/svg11.dtd">
<svg version="1.1"
	 id="Layer_1" sodipodi:docname="insteon_LED.svg" inkscape:version="0.48.1 r9760" xmlns:dc="http://purl.org/dc/elements/1.1/" xmlns:cc="http://creativecommons.org/ns#" xmlns:svg="http://www.w3.org/2000/svg" xmlns:rdf="http://www.w3.org/1999/02/22-rdf-syntax-ns#" xmlns:inkscape="http://www.inkscape.org/namespaces/inkscape" xmlns:sodipodi="http://sodipodi.sourceforge.net/DTD/sodipodi-0.dtd"
	 xmlns="http://www.w3.org/2000/svg" xmlns:xlink="http://www.w3.org/1999/xlink" x="0px" y="0px" width="44.637px"
	 height="44.637px" viewBox="0 0 44.637 44.637" enable-background="new 0 0 44.637 44.637" xml:space="preserve">
<sodipodi:namedview  inkscape:current-layer="Layer_1" inkscape:window-maximized="0" inkscape:window-y="0" inkscape:window-x="0" inkscape:cy="22.318501" inkscape:zoom="21.013957" inkscape:cx="22.318501" showgrid="false" inkscape:window-height="1156" inkscape:pageshadow="2" inkscape:pageopacity="0" guidetolerance="10" pagecolor="#ffffff" bordercolor="#666666" gridtolerance="10" borderopacity="1" objecttolerance="10" inkscape:window-width="1910" id="namedview11726">
	</sodipodi:namedview>
<g id="g11706">
	<g id="g11708">
	</g>
	<g id="g11712">
	</g>
	<g id="g11716">
	</g>
	<g id="g11720">
	</g>
</g>
<g>
	<path d="M24.498,24.531c0-1.205-0.978-2.183-2.182-2.183c-1.205,0-2.181,0.978-2.181,2.183c0,0.768,0.398,1.443,0.998,1.83
		l-0.453,2.803c0,0.453,0.365,0.817,0.818,0.817h1.635c0.453,0,0.818-0.364,0.818-0.817c-0.24-1.517-0.453-2.803-0.453-2.803
		C24.1,25.974,24.498,25.297,24.498,24.531z"/>
	<path d="M22.465,3.102c-10.573,0-19.146,8.572-19.146,19.146c0,10.568,8.573,19.143,19.146,19.143
		c10.577,0,19.144-8.574,19.145-19.143C41.61,11.673,33.039,3.102,22.465,3.102z M33.221,31.615c0,1.204-0.977,2.181-2.182,2.181
		H13.596c-1.205,0-2.181-0.977-2.181-2.181V20.713c0-1.205,0.976-2.181,2.181-2.181h1.635v-3.815c0-3.914,3.172-7.087,7.087-7.087
		c3.913,0,7.087,3.173,7.087,7.087v0.272c0,0.752-0.61,1.361-1.362,1.361s-1.362-0.609-1.362-1.361v-0.272
		c0-2.41-1.952-4.361-4.361-4.361c-2.408,0-4.36,1.951-4.36,4.361v3.815h13.083c1.205,0,2.182,0.976,2.182,2.181v10.902H33.221z"/>
	<path d="M0,0v44.637h44.637V0H0z M22.32,43.061c-11.498,0-20.812-9.314-20.812-20.812c0-11.5,9.314-20.821,20.812-20.821
		c11.496,0,20.816,9.321,20.816,20.821C43.136,33.743,33.816,43.064,22.32,43.061z"/>
</g>
</svg>
