<?xml version="1.0" encoding="utf-8"?>
<!-- Generator: Adobe Illustrator 15.1.0, SVG Export Plug-In . SVG Version: 6.00 Build 0)  -->
<!DOCTYPE svg PUBLIC "-//W3C//DTD SVG 1.1//EN" "http://www.w3.org/Graphics/SVG/1.1/DTD/svg11.dtd">
<svg version="1.1"
	 id="Layer_1" xmlns:dc="http://purl.org/dc/elements/1.1/" xmlns:cc="http://creativecommons.org/ns#" xmlns:rdf="http://www.w3.org/1999/02/22-rdf-syntax-ns#" xmlns:svg="http://www.w3.org/2000/svg" xmlns:sodipodi="http://sodipodi.sourceforge.net/DTD/sodipodi-0.dtd" inkscape:version="0.48.1 r9760" xmlns:inkscape="http://www.inkscape.org/namespaces/inkscape" sodipodi:docname="insteon_LED.svg"
	 xmlns="http://www.w3.org/2000/svg" xmlns:xlink="http://www.w3.org/1999/xlink" x="0px" y="0px" width="44.637px"
	 height="44.637px" viewBox="0 0 44.637 44.637" enable-background="new 0 0 44.637 44.637" xml:space="preserve">
<sodipodi:namedview  id="namedview11726" showgrid="false" inkscape:cy="22.318501" guidetolerance="10" inkscape:pageopacity="0" gridtolerance="10" pagecolor="#ffffff" objecttolerance="10" inkscape:pageshadow="2" borderopacity="1" inkscape:current-layer="Layer_1" inkscape:window-width="1910" bordercolor="#666666" inkscape:cx="22.318501" inkscape:window-x="0" inkscape:window-y="0" inkscape:window-maximized="0" inkscape:zoom="21.013957" inkscape:window-height="1156">
	</sodipodi:namedview>
<g id="g11706">
	<g id="g11708">
	</g>
	<g id="g11712">
	</g>
	<g id="g11716">
	</g>
	<g id="g11720">
	</g>
</g>
<g>
	<path d="M22.465,3.102c-10.573,0-19.146,8.572-19.146,19.146c0,10.57,8.573,19.143,19.146,19.143
		c10.577,0,19.144-8.574,19.145-19.143C41.61,11.673,33.039,3.102,22.465,3.102z M14.882,25.402h-2.193v-1.978H8.923v1.978H6.764
		v-5.518h2.159v2.254h3.766v-2.254h2.193V25.402z M23.92,23.951c0,0.403-0.144,0.745-0.428,1.027
		c-0.284,0.281-0.625,0.423-1.023,0.423h-6.674l-0.009-3.264h2.089l0.009,1.891h3.947v-2.772h-6.045l0.009-1.373h6.674
		c0.398,0,0.739,0.142,1.023,0.423c0.284,0.283,0.428,0.625,0.428,1.028V23.951z M35.033,21.335v4.069h-2.089V21.26h-1.989v4.144
		h-2.08V21.26h-1.992v4.144h-2.09v-5.521h8.8c0.397,0,0.735,0.142,1.019,0.423c0.28,0.283,0.424,0.625,0.424,1.028H35.033z
		 M38.076,22.137l-0.008,0.742l0.008,0.545v1.978h-2.16v-5.518h2.16V22.137z"/>
	<path d="M0,0v44.637h44.637V0H0z M22.32,43.061c-11.498,0-20.814-9.316-20.814-20.812c0-11.5,9.316-20.821,20.814-20.821
		c11.496,0,20.816,9.321,20.816,20.821C43.136,33.743,33.816,43.064,22.32,43.061z"/>
</g>
</svg>
