<?xml version="1.0" encoding="utf-8"?>
<!-- Generator: Adobe Illustrator 15.1.0, SVG Export Plug-In . SVG Version: 6.00 Build 0)  -->
<!DOCTYPE svg PUBLIC "-//W3C//DTD SVG 1.1//EN" "http://www.w3.org/Graphics/SVG/1.1/DTD/svg11.dtd">
<svg version="1.1"
	 id="Layer_1" inkscape:version="0.48.1 r9760" xmlns:rdf="http://www.w3.org/1999/02/22-rdf-syntax-ns#" sodipodi:docname="insteon_LED.svg" xmlns:cc="http://creativecommons.org/ns#" xmlns:inkscape="http://www.inkscape.org/namespaces/inkscape" xmlns:svg="http://www.w3.org/2000/svg" xmlns:dc="http://purl.org/dc/elements/1.1/" xmlns:sodipodi="http://sodipodi.sourceforge.net/DTD/sodipodi-0.dtd"
	 xmlns="http://www.w3.org/2000/svg" xmlns:xlink="http://www.w3.org/1999/xlink" x="0px" y="0px" width="44.637px"
	 height="44.637px" viewBox="0 0 44.637 44.637" enable-background="new 0 0 44.637 44.637" xml:space="preserve">
<sodipodi:namedview  id="namedview11726" bordercolor="#666666" pagecolor="#ffffff" borderopacity="1" inkscape:pageopacity="0" inkscape:pageshadow="2" inkscape:zoom="21.013957" inkscape:cx="22.318501" inkscape:cy="22.318501" inkscape:current-layer="Layer_1" showgrid="false" inkscape:window-width="1910" inkscape:window-height="1156" inkscape:window-x="0" inkscape:window-y="0" inkscape:window-maximized="0" guidetolerance="10" objecttolerance="10" gridtolerance="10">
	</sodipodi:namedview>
<g id="g11706">
	<g id="g11708">
	</g>
	<g id="g11712">
	</g>
	<g id="g11716">
	</g>
	<g id="g11720">
	</g>
</g>
<g id="Livello_1_2_">
</g>
<g>
	<path fill="none" d="M22.32,1.428c-11.5,0-20.812,9.321-20.812,20.821s9.313,20.812,20.812,20.812
		c11.496,0.003,20.816-9.317,20.816-20.812C43.136,10.749,33.816,1.428,22.32,1.428z M32.122,38.757
		c0.029,0.064,0.051,0.137,0.053,0.223c0,0.031,0.027,0.074,0.003,0.095c-3.751,3.218-10.787,2.665-10.787,2.665
		c-0.019-0.111-0.052-0.251-0.095-0.407C11.27,40.725,3.319,32.419,3.319,22.248c0-10.574,8.573-19.146,19.146-19.146
		c10.574,0,19.145,8.571,19.145,19.146C41.609,29.292,37.792,35.434,32.122,38.757z"/>
	<path d="M12.809,31.95c0.174-0.053,0.337-0.103,0.498-0.152c0.982-0.305,1.991-0.761,2.942-0.876
		c-0.951,0.115-1.96,0.571-2.943,0.876C13.146,31.848,12.983,31.898,12.809,31.95z"/>
	<path d="M31.16,18.476c-0.275-0.6-0.777-1.067-1.562-1.141c-0.917-0.084-1.607,0.255-2.176,0.786
		c0.568-0.53,1.259-0.869,2.176-0.785C30.383,17.409,30.885,17.877,31.16,18.476z"/>
	<g>
		<path fill="none" d="M25.128,19.326c0.911-1.977,2.405-2.977,4.583-3.11c1.028-0.064,1.528,0.603,1.824,1.236
			c0.042,0.09,0.08,0.18,0.114,0.267c0.488,1.235,0.708,2.606,0.851,3.939c0.093,0.864-0.152,1.761-0.079,2.655
			c1.812-2.287,1.737-4.693,1.259-7.126c-0.121-0.612-1.029-3.748-1.039-3.773c-1.437-3.921-4.928-6.338-9.108-6.317
			c-5.975,0.027-11.664,3.863-13.112,9.03c-0.411,1.47-0.472,4.238-0.495,4.166c0.091,4.489,1.164,8.298,2.884,11.659
			c0.174-0.053,0.337-0.103,0.498-0.152c0.982-0.305,1.991-0.761,2.942-0.876c1.377-0.166,2.72-0.118,4.061-0.098
			c0.547,0.009,1.012-0.086,1.431-0.322c-0.256-0.074-0.492-0.181-0.668-0.31c-0.763-0.557-0.522-1.408-0.022-2.163
			c1.054-1.593,2.436-2.52,4.421-2.457c0.444,0.014,0.897-0.26,1.347-0.402c-0.2-0.438-0.308-0.963-0.616-1.303
			C24.989,22.537,24.29,21.147,25.128,19.326z"/>
		<path fill="none" d="M31.032,24.581c0.453-1.56,0.454-3.289,0.392-4.939c-0.015-0.398-0.099-0.806-0.264-1.166
			c-0.275-0.6-0.777-1.067-1.562-1.141c-0.917-0.084-1.607,0.255-2.176,0.786c-0.188,0.176-0.364,0.375-0.53,0.585
			c-0.222,0.281-0.425,0.584-0.62,0.889c-0.679,1.062-0.584,2.007,0.323,3.001c0.779,0.852,1.317,1.925,2.26,3.353
			C28.902,25.924,30.869,25.143,31.032,24.581z"/>
		<path fill="none" d="M22.32,1.428c-11.5,0-20.812,9.321-20.812,20.821s9.313,20.812,20.812,20.812
			c11.496,0.003,20.816-9.317,20.816-20.812C43.136,10.749,33.816,1.428,22.32,1.428z M32.122,38.757
			c0.029,0.064,0.051,0.137,0.053,0.223c0,0.031,0.027,0.074,0.003,0.095c-3.751,3.218-10.787,2.665-10.787,2.665
			c-0.019-0.111-0.052-0.251-0.095-0.407C11.27,40.725,3.319,32.419,3.319,22.248c0-10.574,8.573-19.146,19.146-19.146
			c10.574,0,19.145,8.571,19.145,19.146C41.609,29.292,37.792,35.434,32.122,38.757z"/>
		<g>
			<path fill="none" d="M12.809,31.95c0.174-0.053,0.337-0.103,0.498-0.152c0.982-0.305,1.991-0.761,2.942-0.876
				c-0.951,0.115-1.96,0.571-2.943,0.876C13.146,31.848,12.983,31.898,12.809,31.95z"/>
			<path fill="none" d="M31.032,24.581c0.453-1.56,0.454-3.289,0.392-4.939c-0.015-0.398-0.099-0.806-0.264-1.166
				c-0.275-0.6-0.777-1.067-1.562-1.141c-0.917-0.084-1.607,0.255-2.176,0.786c-0.188,0.176-0.364,0.375-0.53,0.585
				c-0.222,0.281-0.425,0.584-0.62,0.889c-0.679,1.062-0.584,2.007,0.323,3.001c0.779,0.852,1.317,1.925,2.26,3.353
				C28.902,25.924,30.869,25.143,31.032,24.581z"/>
			<path fill="none" d="M22.32,1.428c-11.5,0-20.812,9.321-20.812,20.821s9.313,20.812,20.812,20.812
				c11.496,0.003,20.816-9.317,20.816-20.812C43.136,10.749,33.816,1.428,22.32,1.428z M32.122,38.757
				c0.029,0.064,0.051,0.137,0.053,0.223c0,0.031,0.027,0.074,0.003,0.095c-3.751,3.218-10.787,2.665-10.787,2.665
				c-0.019-0.111-0.052-0.251-0.095-0.407C11.27,40.725,3.319,32.419,3.319,22.248c0-10.574,8.573-19.146,19.146-19.146
				c10.574,0,19.145,8.571,19.145,19.146C41.609,29.292,37.792,35.434,32.122,38.757z"/>
		</g>
	</g>
</g>
<g>
	<path fill="#020202" d="M31.032,24.581c0.453-1.56,0.454-3.289,0.392-4.939c-0.015-0.398-0.099-0.806-0.264-1.166
		c-0.275-0.6-0.777-1.067-1.562-1.14c-0.917-0.084-1.607,0.254-2.176,0.785c-0.188,0.176-0.364,0.375-0.53,0.585
		c-0.222,0.281-0.425,0.584-0.62,0.889c-0.679,1.062-0.584,2.007,0.323,3.001c0.779,0.852,1.317,1.925,2.26,3.353
		C28.902,25.924,30.869,25.143,31.032,24.581z"/>
	<path fill="#020202" d="M25.128,19.326c0.911-1.977,2.405-2.977,4.583-3.11c1.028-0.064,1.528,0.603,1.824,1.236
		c0.042,0.09,0.08,0.18,0.114,0.267c0.488,1.235,0.708,2.606,0.851,3.939c0.093,0.864-0.152,1.761-0.079,2.655
		c1.812-2.287,1.737-4.693,1.259-7.126c-0.121-0.612-1.029-3.748-1.039-3.773c-1.437-3.921-4.928-6.338-9.108-6.317
		c-5.975,0.027-11.664,3.863-13.112,9.03c-0.411,1.47-0.472,4.238-0.495,4.166c0.091,4.489,1.164,8.298,2.884,11.659
		c0.174-0.053,0.337-0.103,0.497-0.152c0.983-0.305,1.992-0.761,2.943-0.876c1.377-0.166,2.72-0.118,4.061-0.098
		c0.547,0.009,1.012-0.086,1.431-0.322c-0.256-0.074-0.492-0.181-0.668-0.31c-0.763-0.557-0.522-1.408-0.022-2.163
		c1.054-1.593,2.436-2.52,4.421-2.457c0.444,0.014,0.897-0.26,1.347-0.402c-0.2-0.438-0.308-0.963-0.616-1.303
		C24.989,22.537,24.29,21.147,25.128,19.326z M13.559,29.937c-0.475,0.022-0.999-1.01-1.502-1.562
		c0.142-0.136,0.284-0.271,0.427-0.406c0.872-0.117,1.743-0.236,2.729-0.369C15.182,28.886,14.72,29.882,13.559,29.937z
		 M18.524,12.905c0.243,0.081,0.51,0.117,0.725,0.245c2.174,1.297,4.381,1.033,6.493-0.035c1.749-0.884,1.738-2.041-0.091-4.589
		c0.963,0.368,1.547,0.593,2.562,0.981c-0.617,0.099-0.806,0.128-1.01,0.161c0.674,2.48-0.064,3.797-2.662,4.487
		C22.371,14.733,20.22,14.922,18.524,12.905z"/>
	<path fill="#020202" d="M0,0v44.637h44.637V0H0z M22.32,43.061c-11.498,0-20.812-9.312-20.812-20.812S10.82,1.428,22.32,1.428
		c11.496,0,20.816,9.321,20.816,20.821C43.136,33.743,33.816,43.064,22.32,43.061z"/>
	<path fill="#020202" d="M22.465,3.102c-10.573,0-19.146,8.572-19.146,19.146c0,10.171,7.952,18.477,17.978,19.084
		c-0.323-1.188-1.239-3.465-1.257-3.512c-1.028-2.626-2.875-4.068-5.601-4.269c-0.446-0.032-0.88-0.141-1.268-0.311
		c-0.445-0.193-0.798-0.523-0.685-1.192h0.003c-1.681-2.557-2.684-6.323-2.851-9.744c-0.16-0.979-0.104-2.975-0.103-2.983
		c-0.002-0.009-0.003-0.021-0.003-0.031c0-0.057,0.076-1.77,0.123-1.904c0.156-1.597,0.782-3.283,1.884-4.9
		c2.928-4.291,9.57-6.964,14.615-5.847c4.349,0.965,7.025,4.478,7.963,8.617c0.542,2.407,0.52,5.01,0.307,7.485
		c-0.089,1.046-1.312,2.001-2.039,2.984c-0.258,0.35-0.636,0.621-0.84,0.994c-0.049,0.092-1.301,2.614-1.654,3.068
		c-0.102,0.191-0.204,0.383-0.307,0.574c-0.058,1.137,1.532,5.939,2.131,7.649c0.062,0.06,0.114,0.137,0.146,0.235
		c0.036,0.107,0.073,0.214,0.114,0.32c0.062,0.048,0.111,0.113,0.146,0.189c5.67-3.323,9.486-9.465,9.487-16.509
		C41.61,11.673,33.039,3.102,22.465,3.102z"/>
</g>
</svg>
