<?xml version="1.0" encoding="utf-8"?>
<!-- Generator: Adobe Illustrator 15.1.0, SVG Export Plug-In . SVG Version: 6.00 Build 0)  -->
<!DOCTYPE svg PUBLIC "-//W3C//DTD SVG 1.1//EN" "http://www.w3.org/Graphics/SVG/1.1/DTD/svg11.dtd">
<svg version="1.1"
	 id="Layer_1" sodipodi:docname="ecobee.svg" inkscape:version="0.48.2 r9819" xmlns:cc="http://creativecommons.org/ns#" xmlns:dc="http://purl.org/dc/elements/1.1/" xmlns:rdf="http://www.w3.org/1999/02/22-rdf-syntax-ns#" xmlns:inkscape="http://www.inkscape.org/namespaces/inkscape" xmlns:sodipodi="http://sodipodi.sourceforge.net/DTD/sodipodi-0.dtd" xmlns:svg="http://www.w3.org/2000/svg"
	 xmlns="http://www.w3.org/2000/svg" xmlns:xlink="http://www.w3.org/1999/xlink" x="0px" y="0px" width="44.637px"
	 height="44.637px" viewBox="0 0 44.637 44.637" enable-background="new 0 0 44.637 44.637" xml:space="preserve">
<title>Layer 1</title>
<g>
	<path fill="none" d="M22.32,1.5C10.821,1.5,1.501,10.823,1.508,22.32c0,11.496,9.313,20.818,20.812,20.818
		c11.496,0,20.816-9.323,20.816-20.826C43.136,10.823,33.816,1.5,22.32,1.5z M22.466,41.466c-10.575,0-19.146-8.573-19.146-19.146
		c0-10.572,8.572-19.144,19.146-19.144c10.574,0,19.145,8.572,19.145,19.145C41.61,32.895,33.041,41.466,22.466,41.466z"/>
	<path d="M22.465,3.176C11.892,3.176,3.32,11.747,3.32,22.32c0,10.573,8.571,19.146,19.146,19.146S41.61,32.895,41.61,22.321
		C41.61,11.748,33.039,3.176,22.465,3.176z M13.727,10.703h3.301l-0.029,1.954l-3.271,2.956V10.703z M32.08,33.233
		c0,0.301-0.24,0.541-0.54,0.541h-5.738V28.68c0-0.299-0.24-0.543-0.542-0.543h-4.713c-0.299,0-0.54,0.244-0.54,0.543v5.094h-5.737
		c-0.3,0-0.542-0.24-0.542-0.541V21.618l9.179-8.129l9.174,8.126V33.233z M34.606,22.119L22.906,11.757L11.206,22.119l-1.372-1.548
		L22.853,9.043l0.054,0.059l0.051-0.059l13.017,11.528L34.606,22.119z"/>
	<path d="M-0.1,0V44.73h44.737V0H-0.1z M22.32,43.138c-11.498,0-20.812-9.322-20.812-20.818C1.501,10.823,10.821,1.5,22.32,1.5
		c11.496,0,20.816,9.323,20.816,20.812C43.136,33.815,33.816,43.138,22.32,43.138z"/>
</g>
</svg>
