<?xml version="1.0" encoding="utf-8"?>
<!-- Generator: Adobe Illustrator 15.1.0, SVG Export Plug-In . SVG Version: 6.00 Build 0)  -->
<!DOCTYPE svg PUBLIC "-//W3C//DTD SVG 1.1//EN" "http://www.w3.org/Graphics/SVG/1.1/DTD/svg11.dtd">
<svg version="1.1"
	 id="Layer_1" sodipodi:docname="insteon_LED.svg" inkscape:version="0.48.1 r9760" xmlns:sodipodi="http://sodipodi.sourceforge.net/DTD/sodipodi-0.dtd" xmlns:inkscape="http://www.inkscape.org/namespaces/inkscape" xmlns:rdf="http://www.w3.org/1999/02/22-rdf-syntax-ns#" xmlns:svg="http://www.w3.org/2000/svg" xmlns:cc="http://creativecommons.org/ns#" xmlns:dc="http://purl.org/dc/elements/1.1/"
	 xmlns="http://www.w3.org/2000/svg" xmlns:xlink="http://www.w3.org/1999/xlink" x="0px" y="0px" width="44.637px"
	 height="44.637px" viewBox="0 0 44.637 44.637" enable-background="new 0 0 44.637 44.637" xml:space="preserve">
<sodipodi:namedview  bordercolor="#666666" objecttolerance="10" id="namedview11726" inkscape:window-width="1910" borderopacity="1" pagecolor="#ffffff" gridtolerance="10" guidetolerance="10" inkscape:pageopacity="0" inkscape:pageshadow="2" inkscape:window-height="1156" showgrid="false" inkscape:zoom="21.013957" inkscape:cx="22.318501" inkscape:cy="22.318501" inkscape:window-x="0" inkscape:window-y="0" inkscape:window-maximized="0" inkscape:current-layer="Layer_1">
	</sodipodi:namedview>
<g id="g11706">
	<g id="g11708">
	</g>
	<g id="g11712">
	</g>
	<g id="g11716">
	</g>
	<g id="g11720">
	</g>
</g>
<g>
	<path fill="#231F20" d="M22.465,3.102c-10.573,0-19.146,8.572-19.146,19.146c0,10.569,8.573,19.143,19.146,19.143
		c10.577,0,19.144-8.574,19.145-19.143C41.61,11.673,33.039,3.102,22.465,3.102z M33.326,34c0,0.345-0.28,0.625-0.625,0.625H12.7
		c-0.345,0-0.625-0.28-0.625-0.625v-1c0-0.209,0.104-0.404,0.278-0.521l3-2c0.103-0.068,0.223-0.104,0.347-0.104h6l7.924-0.995
		c0.176-0.021,0.356,0.032,0.491,0.151c0.134,0.119,0.211,0.289,0.211,0.469v0.665l2.722,1.814c0.174,0.116,0.278,0.312,0.278,0.521
		V34z M14.622,19.38l16.002-2c0.34-0.042,0.655,0.2,0.697,0.542c0.043,0.343-0.2,0.655-0.543,0.698l-16.001,2
		c-0.026,0.003-0.053,0.005-0.079,0.005c-0.311,0-0.58-0.231-0.619-0.547C14.037,19.735,14.28,19.423,14.622,19.38z M14.08,17.078
		c-0.043-0.343,0.2-0.655,0.542-0.698l16.002-2c0.34-0.043,0.655,0.2,0.697,0.542c0.043,0.343-0.2,0.655-0.543,0.698l-16.001,2
		c-0.026,0.003-0.053,0.005-0.079,0.005C14.388,17.625,14.119,17.394,14.08,17.078z M14.622,22.38l16.002-2
		c0.34-0.042,0.655,0.2,0.697,0.542c0.043,0.343-0.2,0.655-0.543,0.698l-16.001,2c-0.026,0.003-0.053,0.005-0.079,0.005
		c-0.311,0-0.58-0.231-0.619-0.548C14.037,22.735,14.28,22.423,14.622,22.38z M14.622,25.38l16.002-2
		c0.34-0.034,0.655,0.2,0.697,0.543c0.043,0.342-0.2,0.654-0.543,0.697l-16.001,2c-0.026,0.003-0.053,0.005-0.079,0.005
		c-0.311,0-0.58-0.231-0.619-0.548C14.037,25.736,14.28,25.423,14.622,25.38z M14.622,28.38l16.002-2
		c0.34-0.033,0.655,0.2,0.697,0.543c0.043,0.342-0.2,0.654-0.543,0.697l-16.001,2c-0.026,0.003-0.053,0.005-0.079,0.005
		c-0.311,0-0.58-0.231-0.619-0.548C14.037,28.736,14.28,28.423,14.622,28.38z M33.326,11c0,0.209-0.104,0.404-0.278,0.52l-3,2
		c-0.103,0.068-0.224,0.105-0.347,0.105h-6l-7.924,0.995c-0.026,0.003-0.052,0.005-0.078,0.005c-0.151,0-0.299-0.055-0.414-0.156
		c-0.134-0.119-0.211-0.29-0.211-0.469v-0.666l-2.722-1.814c-0.174-0.116-0.278-0.311-0.278-0.52v-1c0-0.345,0.28-0.625,0.625-0.625
		h20.001c0.345,0,0.625,0.28,0.625,0.625V11z"/>
	<path fill="#231F20" d="M0,0v44.637h44.637V0H0z M22.32,43.061c-11.498,0-20.813-9.315-20.813-20.812
		c0-11.5,9.315-20.821,20.813-20.821c11.496,0,20.816,9.321,20.816,20.821C43.136,33.743,33.816,43.064,22.32,43.061z"/>
</g>
</svg>
