<?xml version="1.0" encoding="utf-8"?>
<!-- Generator: Adobe Illustrator 15.1.0, SVG Export Plug-In . SVG Version: 6.00 Build 0)  -->
<!DOCTYPE svg PUBLIC "-//W3C//DTD SVG 1.1//EN" "http://www.w3.org/Graphics/SVG/1.1/DTD/svg11.dtd">
<svg version="1.1"
	 id="Layer_1" sodipodi:docname="insteon_LED.svg" inkscape:version="0.48.1 r9760" xmlns:sodipodi="http://sodipodi.sourceforge.net/DTD/sodipodi-0.dtd" xmlns:inkscape="http://www.inkscape.org/namespaces/inkscape" xmlns:rdf="http://www.w3.org/1999/02/22-rdf-syntax-ns#" xmlns:svg="http://www.w3.org/2000/svg" xmlns:cc="http://creativecommons.org/ns#" xmlns:dc="http://purl.org/dc/elements/1.1/"
	 xmlns="http://www.w3.org/2000/svg" xmlns:xlink="http://www.w3.org/1999/xlink" x="0px" y="0px" width="44.637px"
	 height="44.637px" viewBox="0 0 44.637 44.637" enable-background="new 0 0 44.637 44.637" xml:space="preserve">
<sodipodi:namedview  bordercolor="#666666" objecttolerance="10" id="namedview11726" inkscape:window-width="1910" borderopacity="1" pagecolor="#ffffff" gridtolerance="10" guidetolerance="10" inkscape:pageopacity="0" inkscape:pageshadow="2" inkscape:window-height="1156" showgrid="false" inkscape:zoom="21.013957" inkscape:cx="22.318501" inkscape:cy="22.318501" inkscape:window-x="0" inkscape:window-y="0" inkscape:window-maximized="0" inkscape:current-layer="Layer_1">
	</sodipodi:namedview>
<g id="g11706">
	<g id="g11708">
	</g>
	<g id="g11712">
	</g>
	<g id="g11716">
	</g>
	<g id="g11720">
	</g>
</g>
<g>
	<path fill="#231F20" d="M22.593,12.094c-7.372,0-13.601,4.243-13.601,9.265c0,4.942,5.974,8.819,13.601,8.819
		s13.6-3.877,13.6-8.819C36.193,16.337,29.965,12.094,22.593,12.094z M22.671,28.182c-5.655,0-10.256-3.154-10.256-7.024
		c0-3.876,4.602-7.031,10.256-7.031c5.656,0,10.257,3.154,10.257,7.031C32.928,25.028,28.326,28.182,22.671,28.182z"/>
	<path fill="#231F20" d="M22.671,14.511c-5.443,0-9.872,2.981-9.872,6.646c0,3.658,4.428,6.64,9.872,6.64
		c5.445,0,9.873-2.981,9.873-6.64C32.543,17.492,28.115,14.511,22.671,14.511z M22.671,23.951c-2.449,0-4.441-1.251-4.441-2.794
		c0-1.544,1.993-2.801,4.441-2.801s4.441,1.256,4.441,2.801C27.112,22.7,25.119,23.951,22.671,23.951z"/>
	<path fill="#231F20" d="M22.671,18.741c-2.237,0-4.057,1.084-4.057,2.417s1.82,2.411,4.057,2.411c2.238,0,4.057-1.079,4.057-2.411
		S24.908,18.741,22.671,18.741z"/>
	<path fill="#231F20" d="M22.465,3.002c-10.573,0-19.146,8.572-19.146,19.146c0,10.569,8.573,19.143,19.146,19.143
		c10.577,0,19.144-8.574,19.145-19.143C41.61,11.573,33.039,3.002,22.465,3.002z M36.248,24.444
		c-1.692,4.903-7.254,8.619-13.657,8.619c-6.402,0-11.964-3.717-13.656-8.619c-0.476-0.967-0.744-1.998-0.744-3.084
		c0-5.55,6.46-10.065,14.401-10.065c7.941,0,14.4,4.515,14.4,10.065C36.992,22.447,36.725,23.477,36.248,24.444z"/>
	<path fill="#231F20" d="M0,0v44.637h44.637V0H0z M22.32,42.961c-11.498,0-20.812-9.314-20.812-20.812
		c0-11.5,9.314-20.821,20.812-20.821c11.496,0,20.816,9.321,20.816,20.821C43.136,33.644,33.816,42.964,22.32,42.961z"/>
</g>
</svg>
