<?xml version="1.0" encoding="utf-8"?>
<!-- Generator: Adobe Illustrator 15.1.0, SVG Export Plug-In . SVG Version: 6.00 Build 0)  -->
<!DOCTYPE svg PUBLIC "-//W3C//DTD SVG 1.1//EN" "http://www.w3.org/Graphics/SVG/1.1/DTD/svg11.dtd">
<svg version="1.1"
	 id="Layer_1" xmlns:inkscape="http://www.inkscape.org/namespaces/inkscape" inkscape:version="0.48.1 r9760" xmlns:cc="http://creativecommons.org/ns#" xmlns:rdf="http://www.w3.org/1999/02/22-rdf-syntax-ns#" sodipodi:docname="insteon_LED.svg" xmlns:dc="http://purl.org/dc/elements/1.1/" xmlns:sodipodi="http://sodipodi.sourceforge.net/DTD/sodipodi-0.dtd" xmlns:svg="http://www.w3.org/2000/svg"
	 xmlns="http://www.w3.org/2000/svg" xmlns:xlink="http://www.w3.org/1999/xlink" x="0px" y="0px" width="44.637px"
	 height="44.637px" viewBox="0 0 44.637 44.637" enable-background="new 0 0 44.637 44.637" xml:space="preserve">
<sodipodi:namedview  pagecolor="#ffffff" objecttolerance="10" borderopacity="1" id="namedview11726" inkscape:window-width="1910" bordercolor="#666666" gridtolerance="10" guidetolerance="10" inkscape:pageopacity="0" inkscape:pageshadow="2" inkscape:window-height="1156" showgrid="false" inkscape:zoom="21.013957" inkscape:cx="22.318501" inkscape:cy="22.318501" inkscape:window-x="0" inkscape:window-y="0" inkscape:window-maximized="0" inkscape:current-layer="Layer_1">
	</sodipodi:namedview>
<g id="g11706">
	<g id="g11708">
	</g>
	<g id="g11712">
	</g>
	<g id="g11716">
	</g>
	<g id="g11720">
	</g>
</g>
<g>
	<path d="M22.465,3.102c-10.573,0-19.146,8.572-19.146,19.146c0,10.57,8.573,19.143,19.146,19.143
		c10.577,0,19.144-8.574,19.145-19.143C41.61,11.673,33.039,3.102,22.465,3.102z M37.059,15.462c0,0.448-0.363,0.81-0.811,0.81
		h-2.095v0.678h2.095c0.446,0,0.811,0.362,0.811,0.81s-0.363,0.81-0.811,0.81h-2.095v0.679h2.089v-0.001
		c0.446,0,0.811,0.362,0.811,0.81s-0.363,0.811-0.811,0.811h-2.095v0.674h2.095c0.446,0,0.811,0.362,0.811,0.81
		s-0.363,0.812-0.811,0.812h-2.095v0.676h2.095c0.446,0,0.811,0.363,0.811,0.81c0,0.448-0.363,0.812-0.811,0.812h-2.095v0.677h2.095
		c0.446,0,0.811,0.363,0.811,0.811c0,0.448-0.363,0.812-0.811,0.812h-2.095v0.675h2.095c0.446,0,0.811,0.362,0.811,0.811
		c0,0.447-0.363,0.811-0.811,0.811h-2.177c-0.342,1.992-1.907,3.562-3.899,3.902v2.177c0,0.448-0.363,0.81-0.812,0.81
		c-0.447,0-0.811-0.36-0.811-0.81v-2.094h-0.676v2.094c0,0.448-0.362,0.81-0.812,0.81c-0.447,0-0.81-0.36-0.81-0.81v-2.094H25.57
		v2.094c0,0.448-0.362,0.81-0.811,0.81s-0.811-0.36-0.811-0.81v-2.094h-0.675v2.094c0,0.448-0.362,0.81-0.811,0.81
		s-0.811-0.36-0.811-0.81v-2.094h-0.676v2.094c0,0.448-0.363,0.81-0.811,0.81c-0.448,0-0.812-0.36-0.812-0.81v-2.094h-0.676v2.094
		c0,0.448-0.363,0.81-0.81,0.81c-0.448,0-0.812-0.36-0.812-0.81v-2.094h-0.675v2.094c0,0.448-0.363,0.81-0.812,0.81
		c-0.447,0-0.811-0.36-0.811-0.81v-2.177c-1.992-0.341-3.56-1.908-3.902-3.902H8.69c-0.446,0-0.81-0.363-0.81-0.811
		c0-0.448,0.363-0.811,0.81-0.811h2.095v-0.675H8.69c-0.446,0-0.81-0.362-0.81-0.812c0-0.446,0.363-0.811,0.81-0.811h2.095v-0.677
		H8.69c-0.446,0-0.81-0.362-0.81-0.812c0-0.445,0.363-0.81,0.81-0.81h2.095V23.16H8.69c-0.446,0-0.81-0.363-0.81-0.812
		s0.363-0.81,0.81-0.81h2.095v-0.674H8.69c-0.446,0-0.81-0.363-0.81-0.811s0.363-0.81,0.81-0.81h2.095v-0.679H8.69
		c-0.446,0-0.81-0.361-0.81-0.81s0.363-0.81,0.81-0.81h2.095V16.27H8.69c-0.446,0-0.81-0.361-0.81-0.81
		c0-0.447,0.363-0.811,0.81-0.811h2.176c0.343-1.991,1.909-3.559,3.9-3.9V8.575c0-0.447,0.363-0.811,0.811-0.811
		s0.811,0.362,0.811,0.811v2.094h0.676V8.575c0-0.447,0.363-0.811,0.812-0.811c0.447,0,0.81,0.362,0.81,0.811v2.094h0.677V8.575
		c0-0.447,0.363-0.811,0.812-0.811s0.811,0.362,0.811,0.811v2.094h0.676V8.575c0-0.447,0.362-0.811,0.811-0.811
		s0.81,0.362,0.81,0.811v2.094h0.674V8.575c0-0.447,0.362-0.811,0.811-0.811s0.812,0.362,0.812,0.811v2.094h0.679V8.575
		c0-0.447,0.362-0.811,0.81-0.811c0.448,0,0.812,0.362,0.812,0.811v2.094h0.676V8.575c0-0.447,0.363-0.811,0.811-0.811
		c0.448,0,0.812,0.362,0.812,0.811v2.176c1.99,0.343,3.559,1.91,3.899,3.9h2.177C36.695,14.652,37.059,15.014,37.059,15.462z"/>
	<path d="M0,0v44.637h44.637V0H0z M22.32,43.061c-11.498,0-20.813-9.316-20.813-20.812c0-11.5,9.315-20.821,20.813-20.821
		c11.496,0,20.816,9.321,20.816,20.821C43.136,33.744,33.816,43.064,22.32,43.061z"/>
	<path d="M18.216,20.389c0.392-0.536,0.588-1.252,0.588-2.148s-0.196-1.612-0.588-2.148c-0.392-0.536-0.983-0.805-1.772-0.805
		s-1.38,0.269-1.772,0.805s-0.588,1.252-0.588,2.148s0.196,1.612,0.588,2.148c0.392,0.537,0.983,0.805,1.772,0.805
		S17.824,20.926,18.216,20.389z M17.285,19.626c-0.18,0.349-0.46,0.523-0.841,0.523c-0.381,0-0.662-0.174-0.841-0.523
		c-0.18-0.348-0.27-0.809-0.27-1.38s0.09-1.032,0.27-1.38c0.18-0.348,0.46-0.522,0.841-0.522c0.381,0,0.662,0.174,0.841,0.522
		c0.18,0.349,0.27,0.809,0.27,1.38S17.465,19.278,17.285,19.626z"/>
	<polygon points="20.6,21.129 21.825,21.129 21.825,15.42 19.514,15.42 19.514,16.506 20.6,16.506 	"/>
	<path d="M27.142,20.389c0.393-0.536,0.588-1.252,0.588-2.148s-0.195-1.612-0.588-2.148c-0.392-0.536-0.982-0.805-1.772-0.805
		c-0.789,0-1.38,0.269-1.771,0.805c-0.393,0.536-0.588,1.252-0.588,2.148s0.195,1.612,0.588,2.148
		c0.392,0.537,0.982,0.805,1.771,0.805C26.159,21.194,26.75,20.926,27.142,20.389z M26.211,19.626
		c-0.18,0.349-0.46,0.523-0.842,0.523c-0.381,0-0.661-0.174-0.841-0.523c-0.18-0.348-0.27-0.809-0.27-1.38s0.09-1.032,0.27-1.38
		c0.18-0.348,0.46-0.522,0.841-0.522c0.382,0,0.662,0.174,0.842,0.522c0.18,0.349,0.27,0.809,0.27,1.38S26.391,19.278,26.211,19.626
		z"/>
	<polygon points="29.528,21.129 30.752,21.129 30.752,15.42 28.441,15.42 28.441,16.506 29.528,16.506 	"/>
	<polygon points="13.879,24.673 14.965,24.673 14.965,29.296 16.19,29.296 16.19,23.587 13.879,23.587 	"/>
	<path d="M19.735,23.456c-0.79,0-1.38,0.269-1.772,0.805s-0.588,1.252-0.588,2.147c0,0.896,0.196,1.612,0.588,2.148
		s0.983,0.805,1.772,0.805s1.38-0.269,1.772-0.805c0.392-0.536,0.588-1.252,0.588-2.148c0-0.896-0.196-1.611-0.588-2.147
		C21.115,23.725,20.525,23.456,19.735,23.456z M20.576,27.793c-0.18,0.349-0.46,0.522-0.841,0.522c-0.381,0-0.662-0.174-0.841-0.522
		s-0.27-0.809-0.27-1.38c0-0.572,0.09-1.032,0.27-1.381s0.46-0.522,0.841-0.522c0.381,0,0.662,0.174,0.841,0.522
		s0.27,0.809,0.27,1.381C20.846,26.985,20.756,27.445,20.576,27.793z"/>
	<polygon points="22.806,24.673 23.892,24.673 23.892,29.296 25.116,29.296 25.116,23.587 22.806,23.587 	"/>
	<path d="M28.661,23.456c-0.789,0-1.38,0.269-1.771,0.805c-0.393,0.536-0.589,1.252-0.589,2.147c0,0.896,0.196,1.612,0.589,2.148
		c0.392,0.536,0.982,0.805,1.771,0.805c0.79,0,1.381-0.269,1.772-0.805c0.393-0.536,0.588-1.252,0.588-2.148
		c0-0.896-0.195-1.611-0.588-2.147C30.042,23.725,29.451,23.456,28.661,23.456z M29.503,27.793c-0.18,0.349-0.46,0.522-0.842,0.522
		c-0.381,0-0.661-0.174-0.841-0.522s-0.27-0.809-0.27-1.38c0-0.572,0.09-1.032,0.27-1.381s0.46-0.522,0.841-0.522
		c0.382,0,0.662,0.174,0.842,0.522s0.27,0.809,0.27,1.381C29.773,26.985,29.683,27.445,29.503,27.793z"/>
</g>
</svg>
