<?xml version="1.0" encoding="utf-8"?>
<!-- Generator: Adobe Illustrator 15.1.0, SVG Export Plug-In . SVG Version: 6.00 Build 0)  -->
<!DOCTYPE svg PUBLIC "-//W3C//DTD SVG 1.1//EN" "http://www.w3.org/Graphics/SVG/1.1/DTD/svg11.dtd">
<svg version="1.1"
	 id="Layer_1" sodipodi:docname="ecobee.svg" xmlns:inkscape="http://www.inkscape.org/namespaces/inkscape" xmlns:rdf="http://www.w3.org/1999/02/22-rdf-syntax-ns#" xmlns:dc="http://purl.org/dc/elements/1.1/" xmlns:sodipodi="http://sodipodi.sourceforge.net/DTD/sodipodi-0.dtd" inkscape:version="0.48.2 r9819" xmlns:svg="http://www.w3.org/2000/svg" xmlns:cc="http://creativecommons.org/ns#"
	 xmlns="http://www.w3.org/2000/svg" xmlns:xlink="http://www.w3.org/1999/xlink" x="0px" y="0px" width="44.637px"
	 height="44.637px" viewBox="0 0 44.637 44.637" enable-background="new 0 0 44.637 44.637" xml:space="preserve">
<g>
	<path fill-rule="evenodd" clip-rule="evenodd" d="M22.465,3.176C11.892,3.176,3.32,11.747,3.32,22.32
		c0,10.573,8.571,19.146,19.146,19.146S41.61,32.895,41.61,22.321C41.61,11.748,33.039,3.176,22.465,3.176z M13.648,30.158
		c-2.389,0.004-4.263-0.989-5.616-2.256c-1.347-1.26-2.365-3.163-2.496-5.376c-0.149-2.524,0.979-4.56,2.063-5.809
		c1.159-1.333,2.877-2.452,5.28-2.688c3.022-0.296,5.115,0.975,6.576,2.496c1.055,1.098,2.243,3.132,2.256,5.472
		C21.736,26.527,18.139,30.152,13.648,30.158z M39.152,21.998c0.024,4.528-3.572,8.153-8.063,8.16
		c-2.389,0.004-4.263-0.989-5.616-2.256c-1.347-1.26-2.365-3.163-2.496-5.376c-0.149-2.524,0.979-4.56,2.063-5.809
		c1.159-1.333,2.877-2.452,5.28-2.688c3.022-0.296,5.115,0.975,6.576,2.496C37.95,17.624,39.139,19.659,39.152,21.998z"/>
	<path fill-rule="evenodd" clip-rule="evenodd" d="M-0.1,0v44.732h44.737V0H-0.1z M22.32,43.138
		c-11.498,0-20.814-9.322-20.814-20.818C1.501,10.823,10.821,1.5,22.32,1.5c11.496,0,20.816,9.323,20.816,20.815
		C43.136,33.815,33.816,43.138,22.32,43.138z"/>
	<path fill-rule="evenodd" clip-rule="evenodd" d="M13.263,15.326c-1.415,0.098-2.402,0.474-3.312,1.056
		c-1.812,1.161-3.133,3.038-3.12,5.712c0.016,3.411,2.208,5.548,4.704,6.385c3.045,1.02,6.282-0.378,7.776-2.688
		c0.514-0.795,0.951-1.775,1.056-2.976c0.215-2.459-0.661-4.169-1.824-5.376C17.258,16.104,15.605,15.164,13.263,15.326z
		 M13.681,16.48c0.528,0.093,0.387,1.68-0.173,1.452C13.12,17.774,13.135,16.384,13.681,16.48z M8.847,19.166
		c0.322-0.209,1.225,0.327,1.248,0.624C10.172,20.751,8.189,19.596,8.847,19.166z M7.984,22.143
		C7.9,21.551,9.216,21.584,9.471,21.95C9.544,22.722,8.038,22.534,7.984,22.143z M8.703,24.782c-0.042-0.301,0.561-0.731,0.96-0.768
		C11.013,23.891,8.835,25.735,8.703,24.782z M10.864,17.198c0.503-0.184,1.175,1.261,0.576,1.344
		C11.025,18.6,10.343,17.388,10.864,17.198z M13.077,24.131l-2.049,1.781l1.046-2.596c0.375-0.767,0.751-2.039,1.501-2.183
		c0.525-0.099,1.256,0.303,1.199,1.124C14.728,22.908,13.659,23.571,13.077,24.131z M16.431,26.99
		c-0.395,0.111-0.955-0.723-0.911-1.056C15.638,25.032,17.059,26.474,16.431,26.99z M15.52,18.254
		c-0.07-0.379,0.486-1.013,0.672-1.056C17.346,16.929,15.729,19.387,15.52,18.254z M18.543,19.359
		c0.112,0.477-0.771,0.719-1.2,0.815c-0.177,0.015-0.191-0.191-0.191-0.191C17.126,19.365,18.414,18.808,18.543,19.359z
		 M17.44,24.015c0.21-0.062,1.161,0.347,1.104,0.768C18.437,25.567,16.447,24.308,17.44,24.015z M19.215,22.286
		c-0.315,0.202-1.329,0.307-1.439-0.096C17.574,21.458,19.628,21.526,19.215,22.286z"/>
	<path fill-rule="evenodd" clip-rule="evenodd" d="M27.392,16.382c-1.812,1.161-3.133,3.038-3.12,5.712
		c0.016,3.411,2.208,5.548,4.704,6.385c3.045,1.02,6.282-0.378,7.776-2.688c0.514-0.795,0.951-1.775,1.056-2.976
		c0.215-2.459-0.661-4.169-1.824-5.376c-1.285-1.335-2.938-2.274-5.28-2.112C29.288,15.425,28.301,15.8,27.392,16.382z
		 M28.304,17.198c0.503-0.184,1.175,1.261,0.576,1.344C28.465,18.6,27.783,17.388,28.304,17.198z M25.424,22.143
		c-0.084-0.592,1.232-0.559,1.487-0.192C26.985,22.722,25.479,22.534,25.424,22.143z M28.175,26.99
		c-0.628-0.517,0.793-1.958,0.912-1.056C29.131,26.268,28.57,27.102,28.175,26.99z M36.656,22.286
		c-0.315,0.202-1.329,0.307-1.439-0.096C35.015,21.458,37.069,21.526,36.656,22.286z M33.632,17.198
		c1.154-0.27-0.463,2.188-0.672,1.056C32.89,17.875,33.447,17.241,33.632,17.198z M33.871,26.99
		c-0.395,0.111-0.955-0.723-0.911-1.056C33.078,25.032,34.499,26.474,33.871,26.99z M32.222,21.922
		c0.154,0.512-0.169,1.281-0.991,1.31c-0.653,0.022-1.422-0.972-2.039-1.491l-1.987-1.853l2.691,0.77
		C30.696,20.95,32.001,21.192,32.222,21.922z"/>
</g>
</svg>
