<?xml version="1.0" encoding="utf-8"?>
<!-- Generator: Adobe Illustrator 15.1.0, SVG Export Plug-In . SVG Version: 6.00 Build 0)  -->
<!DOCTYPE svg PUBLIC "-//W3C//DTD SVG 1.1//EN" "http://www.w3.org/Graphics/SVG/1.1/DTD/svg11.dtd">
<svg version="1.1"
	 id="Layer_1" sodipodi:docname="insteon_LED.svg" inkscape:version="0.48.1 r9760" xmlns:svg="http://www.w3.org/2000/svg" xmlns:rdf="http://www.w3.org/1999/02/22-rdf-syntax-ns#" xmlns:inkscape="http://www.inkscape.org/namespaces/inkscape" xmlns:cc="http://creativecommons.org/ns#" xmlns:dc="http://purl.org/dc/elements/1.1/" xmlns:sodipodi="http://sodipodi.sourceforge.net/DTD/sodipodi-0.dtd"
	 xmlns="http://www.w3.org/2000/svg" xmlns:xlink="http://www.w3.org/1999/xlink" x="0px" y="0px" width="44.637px"
	 height="44.637px" viewBox="0 0 44.637 44.637" enable-background="new 0 0 44.637 44.637" xml:space="preserve">
<sodipodi:namedview  guidetolerance="10" borderopacity="1" id="namedview11726" inkscape:window-width="1910" inkscape:window-height="1156" inkscape:window-y="0" inkscape:pageshadow="2" inkscape:pageopacity="0" inkscape:window-x="0" inkscape:current-layer="Layer_1" inkscape:window-maximized="0" inkscape:zoom="21.013957" inkscape:cy="22.318501" objecttolerance="10" inkscape:cx="22.318501" bordercolor="#666666" showgrid="false" gridtolerance="10" pagecolor="#ffffff">
	</sodipodi:namedview>
<g id="g11706">
	<g id="g11708">
	</g>
	<g id="g11712">
	</g>
	<g id="g11716">
	</g>
	<g id="g11720">
	</g>
</g>
<g id="Livello_1_2_">
</g>
<g>
	<path d="M0,0v44.637h44.637V0H0z M22.32,43.061c-11.498,0-20.812-9.312-20.812-20.812S10.82,1.428,22.32,1.428
		c11.496,0,20.816,9.321,20.816,20.821C43.136,33.743,33.816,43.064,22.32,43.061z"/>
	<path fill="#020202" d="M22.465,3.102c-10.573,0-19.146,8.572-19.146,19.146c0,10.564,8.573,19.143,19.146,19.143
		c10.577,0,19.144-8.574,19.145-19.143C41.61,11.673,33.039,3.102,22.465,3.102z M11.823,32.461L11.93,12.03
		c0,0,0.152-0.448,0.565-0.482c0.413-0.035,19.594,0,19.594,0s0.905-0.153,0.953,0.482c0.053,0.638-0.031,20.432-0.031,20.432
		H11.823z"/>
	<polygon fill="#020202" points="20.384,18.637 17.395,18.637 17.395,21.281 16.927,21.749 17.395,22.221 17.395,24.851 
		20.384,24.851 20.384,22.221 20.853,21.749 20.384,21.281 	"/>
	<path fill="#020202" d="M30.162,15.441H14.936c-0.174,0-0.315,0.141-0.315,0.312l-0.062,12.098c0,0.174,0.141,0.312,0.312,0.312
		h15.321c0.175,0,0.315-0.141,0.315-0.312l-0.03-12.098C30.479,15.581,30.336,15.441,30.162,15.441z M21.467,21.49l-0.261,0.259
		l0.261,0.288v3.303l-0.595,0.6h-3.966l-0.334-0.334l0.002-0.002l-0.264-0.264V22.01l0.263-0.26l-0.263-0.26v-3.342l0.263-0.258
		l-0.001-0.004l0.334-0.334h3.966l0.262,0.265l0,0l0.333,0.332V21.49z M23.138,25.937h-1.083v-1.086h1.083V25.937z M28.877,21.49
		l-0.261,0.259l0.261,0.287v3.303l-0.262,0.265l0.001,0.001l-0.336,0.334h-3.963l-0.337-0.334l0.002-0.002l-0.264-0.264v-3.329
		l0.264-0.26l-0.264-0.26v-3.342l0.264-0.261h-0.001l0.332-0.335h3.965l0.264,0.266h0.001l0.334,0.331V21.49z"/>
	<polygon fill="#020202" points="27.791,18.637 24.803,18.637 24.803,21.281 24.332,21.749 24.349,21.767 24.803,22.221 
		24.803,24.851 27.791,24.851 27.791,22.221 28.259,21.749 27.791,21.281 	"/>
</g>
</svg>
