<?xml version="1.0" encoding="utf-8"?>
<!-- Generator: Adobe Illustrator 15.1.0, SVG Export Plug-In . SVG Version: 6.00 Build 0)  -->
<!DOCTYPE svg PUBLIC "-//W3C//DTD SVG 1.1//EN" "http://www.w3.org/Graphics/SVG/1.1/DTD/svg11.dtd">
<svg version="1.1"
	 id="Layer_1" inkscape:version="0.48.2 r9819" sodipodi:docname="ecobee.svg" xmlns:svg="http://www.w3.org/2000/svg" xmlns:inkscape="http://www.inkscape.org/namespaces/inkscape" xmlns:cc="http://creativecommons.org/ns#" xmlns:dc="http://purl.org/dc/elements/1.1/" xmlns:sodipodi="http://sodipodi.sourceforge.net/DTD/sodipodi-0.dtd" xmlns:rdf="http://www.w3.org/1999/02/22-rdf-syntax-ns#"
	 xmlns="http://www.w3.org/2000/svg" xmlns:xlink="http://www.w3.org/1999/xlink" x="0px" y="0px" width="44.637px"
	 height="44.637px" viewBox="0 0 44.637 44.637" enable-background="new 0 0 44.637 44.637" xml:space="preserve">
<g>
	<path d="M22.465,3.175C11.892,3.175,3.32,11.746,3.32,22.32s8.573,19.144,19.146,19.144c10.574,0,19.144-8.57,19.145-19.144
		C41.61,11.745,33.039,3.175,22.465,3.175z M32.078,32.971c0,0.873-0.707,1.578-1.579,1.578H14.336
		c-0.872,0-1.578-0.705-1.578-1.578V11.166c0-0.873,0.706-1.578,1.578-1.578h16.163c0.872,0,1.579,0.705,1.579,1.578V32.971z"/>
	<path d="M0.001,0.001v44.636h44.636V0.001H0.001z M22.32,43.138c-11.498,0-20.818-9.322-20.818-20.818
		C1.501,10.823,10.822,1.5,22.32,1.5c11.496,0,20.816,9.323,20.816,20.819S33.816,43.138,22.32,43.138z"/>
	<path d="M27.937,19.367l-1.949,1.545l-1.55-1.953l1.949-1.547c0.263-0.209,0.308-0.594,0.097-0.859
		c-0.21-0.264-0.595-0.309-0.858-0.098L23.677,18l-0.953-1.201c-0.065-0.084-0.203-0.1-0.288-0.033L20.58,18.24
		c-1.577,1.25-2.019,3.396-1.173,5.133l-3.072,2.436c-0.396,0.316-0.464,0.89-0.148,1.287c0.316,0.398,0.891,0.463,1.288,0.148
		l3.07-2.438c1.5,1.221,3.688,1.279,5.265,0.027l1.857-1.474c0.084-0.065,0.1-0.202,0.032-0.286l-0.952-1.201l1.948-1.547
		c0.267-0.209,0.311-0.593,0.1-0.857C28.586,19.201,28.202,19.156,27.937,19.367z"/>
</g>
</svg>
