<?xml version="1.0" encoding="utf-8"?>
<!-- Generator: Adobe Illustrator 15.1.0, SVG Export Plug-In . SVG Version: 6.00 Build 0)  -->
<!DOCTYPE svg PUBLIC "-//W3C//DTD SVG 1.1//EN" "http://www.w3.org/Graphics/SVG/1.1/DTD/svg11.dtd">
<svg version="1.1"
	 id="Layer_1" inkscape:version="0.48.1 r9760" sodipodi:docname="insteon_LED.svg" xmlns:svg="http://www.w3.org/2000/svg" xmlns:inkscape="http://www.inkscape.org/namespaces/inkscape" xmlns:cc="http://creativecommons.org/ns#" xmlns:dc="http://purl.org/dc/elements/1.1/" xmlns:sodipodi="http://sodipodi.sourceforge.net/DTD/sodipodi-0.dtd" xmlns:rdf="http://www.w3.org/1999/02/22-rdf-syntax-ns#"
	 xmlns="http://www.w3.org/2000/svg" xmlns:xlink="http://www.w3.org/1999/xlink" x="0px" y="0px" width="44.637px"
	 height="44.637px" viewBox="0 0 44.637 44.637" enable-background="new 0 0 44.637 44.637" xml:space="preserve">
<sodipodi:namedview  inkscape:window-height="1156" inkscape:window-maximized="0" showgrid="false" borderopacity="1" inkscape:current-layer="Layer_1" bordercolor="#666666" inkscape:cx="22.318501" objecttolerance="10" inkscape:cy="22.318501" inkscape:pageshadow="2" inkscape:pageopacity="0" inkscape:zoom="21.013957" guidetolerance="10" inkscape:window-y="0" inkscape:window-x="0" inkscape:window-width="1910" id="namedview11726" pagecolor="#ffffff" gridtolerance="10">
	</sodipodi:namedview>
<g>
	<path d="M27.875,19.845c-0.004-0.033-0.019-0.062-0.031-0.094c-0.01-0.012-0.021-0.022-0.031-0.031
		c-0.038-0.05-0.095-0.084-0.152-0.094c-0.015-0.002-0.023-0.002-0.033-0.001c-0.269,0.018-0.558,0.06-0.812,0.094
		c-0.047,0.008-0.091,0.03-0.125,0.062c-0.012,0.01-0.021,0.02-0.027,0.027c-0.018,0.021-0.024,0.04-0.031,0.062
		c-0.964,2.034-1.437,3.624-1.781,5.219c-0.001,0.01-0.001,0.021,0,0.031l-0.25,3.625v0.028c-0.001,0.013-0.001,0.021,0,0.03
		c0.004,0.032,0.016,0.064,0.031,0.095c0.021,0.038,0.055,0.07,0.094,0.097c0.021,0.013,0.04,0.021,0.062,0.028
		c0.041,0.014,0.084,0.014,0.125,0c0.027,0.001,0.061-0.01,0.09-0.025c0.043-0.03,0.076-0.075,0.094-0.125
		c0.002-0.021,0.002-0.042,0-0.062c0.288-2.034,0.921-5.37,2.75-8.812C27.87,19.954,27.882,19.897,27.875,19.845z"/>
	<path d="M25.782,20.094c0.006-0.067-0.021-0.137-0.062-0.188c-0.02-0.018-0.041-0.024-0.062-0.031
		c-0.029-0.021-0.062-0.027-0.098-0.031c-0.011-0.001-0.021-0.001-0.029,0c-0.271,0.017-0.55,0.018-0.812,0.031
		c-0.022,0.007-0.044,0.018-0.062,0.031c-0.072,0.021-0.136,0.084-0.156,0.152c-0.325,0.986-0.617,2.07-0.812,3
		c-0.192,0.934-0.304,1.661-0.277,2.098c-0.001,0.043,0.01,0.087,0.027,0.125c-0.003-0.01,0.021,0.058,0.031,0.152
		c0.012,0.103,0.027,0.227,0.031,0.375c0.008,0.307-0.021,0.696-0.031,1.098c-0.028,0.771-0.078,1.559-0.062,2
		c0,0.014-0.001,0.049,0,0.062c0.009,0.077,0.057,0.148,0.125,0.188c0.019,0.013,0.04,0.021,0.062,0.027
		c0.041,0.015,0.084,0.015,0.125,0c0.032-0.004,0.064-0.015,0.094-0.027c0.015-0.014,0.021-0.021,0.031-0.031
		c0.032-0.035,0.054-0.079,0.062-0.125c0.002-0.02-0.006-0.047,0-0.062c0.291-2.062,0.736-5.807,1.875-8.75
		C25.788,20.158,25.788,20.126,25.782,20.094z"/>
	<path d="M21.165,25.255c-0.351-1.595-0.817-3.188-1.781-5.219c-0.008-0.022-0.017-0.041-0.031-0.062
		c-0.01-0.01-0.019-0.02-0.031-0.031c-0.031-0.029-0.075-0.053-0.125-0.062c-0.258-0.034-0.548-0.076-0.812-0.094
		c-0.011-0.001-0.02-0.001-0.034,0c-0.06,0.011-0.118,0.045-0.156,0.094c-0.01,0.01-0.021,0.018-0.027,0.031
		c-0.019,0.026-0.027,0.061-0.031,0.094c-0.007,0.052,0.004,0.109,0.031,0.156c1.828,3.439,2.462,6.775,2.75,8.812
		c-0.003,0.021-0.003,0.041,0,0.062c0.017,0.05,0.05,0.095,0.094,0.125c0.03,0.015,0.061,0.023,0.094,0.027
		c0.04,0.015,0.084,0.015,0.125,0c0.021-0.008,0.041-0.017,0.062-0.027c0.038-0.024,0.069-0.059,0.094-0.098
		c0.015-0.027,0.026-0.061,0.031-0.094c0-0.01,0-0.019,0-0.031v-0.027l-0.25-3.625C21.165,25.276,21.165,25.266,21.165,25.255z"/>
	<path d="M19.697,24.848c-0.521-1.528-1.192-3.229-2.219-5.125c-0.01-0.01-0.019-0.02-0.031-0.031
		c-0.009-0.01-0.019-0.02-0.027-0.027c-0.028-0.027-0.062-0.047-0.098-0.062c-0.268-0.075-0.538-0.129-0.812-0.188
		c-0.011-0.001-0.02-0.001-0.031-0.004c-0.083-0.012-0.168,0.027-0.219,0.094c-0.012,0.019-0.024,0.041-0.031,0.062
		c-0.033,0.069-0.033,0.152,0,0.223c2.016,3.681,2.884,6.816,3.223,8.812c0.001,0.008-0.006,0.023,0,0.031
		c0.004,0.033,0.013,0.062,0.027,0.094c0.009,0.01,0.021,0.021,0.031,0.031c0.038,0.049,0.094,0.083,0.156,0.094
		c0.043,0.001,0.087-0.01,0.125-0.031c0.021-0.008,0.042-0.017,0.062-0.027c0.043-0.03,0.076-0.075,0.094-0.125
		c0.01-0.033,0.01-0.064,0-0.098v-0.027l-0.25-3.625C19.7,24.89,19.7,24.869,19.697,24.848z"/>
	<path d="M22.51,25.973c0.004-0.147,0.017-0.272,0.031-0.375c0.01-0.097,0.034-0.162,0.027-0.156
		c0.021-0.034,0.031-0.082,0.031-0.125c0.024-0.433-0.085-1.164-0.281-2.094c-0.193-0.93-0.484-2.014-0.812-3
		c-0.025-0.072-0.084-0.132-0.156-0.156c-0.019-0.012-0.041-0.021-0.062-0.027c-0.269-0.016-0.543-0.016-0.812-0.031
		c-0.011-0.001-0.021-0.001-0.032,0.001c-0.029,0.004-0.063,0.013-0.094,0.031c-0.021,0.008-0.043,0.016-0.062,0.027
		c-0.044,0.054-0.068,0.121-0.062,0.188c-0.006,0.032-0.006,0.062,0,0.094c1.134,2.943,1.584,6.688,1.875,8.75
		c0.002,0.018-0.003,0.045,0,0.062c0.006,0.046,0.03,0.09,0.062,0.125c0.009,0.009,0.018,0.02,0.027,0.027
		c0.03,0.019,0.062,0.027,0.098,0.031c0.04,0.011,0.084,0.011,0.125,0c0.021-0.008,0.042-0.017,0.062-0.031
		c0.067-0.04,0.115-0.108,0.125-0.188c0-0.011-0.001-0.047,0-0.062c0.018-0.438-0.036-1.229-0.062-2
		C22.527,26.669,22.502,26.277,22.51,25.973z"/>
	<path d="M28.594,19.5c-0.012,0.01-0.022,0.02-0.031,0.031c-0.012,0.01-0.021,0.02-0.027,0.027
		c-1.024,1.896-1.699,3.601-2.223,5.125c-0.003,0.021-0.003,0.042,0,0.062l-0.25,3.625V28.4c-0.006,0.029-0.006,0.062,0,0.097
		c0.021,0.05,0.05,0.095,0.098,0.125c0.019,0.013,0.036,0.021,0.062,0.028c0.038,0.021,0.081,0.03,0.125,0.03
		c0.062-0.011,0.118-0.045,0.156-0.094c0.011-0.01,0.021-0.021,0.031-0.031c0.017-0.026,0.023-0.062,0.027-0.094
		c0.001-0.008-0.002-0.023,0-0.031c0.334-1.993,1.206-5.131,3.223-8.812c0.029-0.068,0.029-0.151,0-0.222
		c-0.012-0.021-0.021-0.045-0.031-0.062c-0.052-0.065-0.141-0.104-0.219-0.094c-0.014,0.002-0.022,0.002-0.032,0.003
		c-0.272,0.059-0.545,0.112-0.812,0.188C28.652,19.452,28.621,19.473,28.594,19.5z"/>
	<path d="M0.001,0.001v44.636h44.636V0.001H0.001z M22.32,43.062c-11.498,0-20.814-9.316-20.814-20.812
		c0-11.5,9.316-20.821,20.814-20.821c11.496,0,20.816,9.321,20.816,20.821C43.136,33.743,33.816,43.062,22.32,43.062z"/>
	<path d="M22.465,3.102c-10.574,0-19.146,8.572-19.146,19.146c0,10.569,8.574,19.143,19.146,19.143
		c10.574,0,19.144-8.571,19.145-19.143C41.61,11.673,33.039,3.102,22.465,3.102z M22.954,37.31c-0.86,0-1.623-0.516-1.989-1.229
		h3.968C24.57,36.805,23.82,37.31,22.954,37.31z M26.347,35.011c0,0.238-0.173,0.427-0.386,0.427h-6.022
		c-0.214,0-0.388-0.189-0.388-0.427v-0.403c0-0.233,0.174-0.427,0.388-0.427h6.022c0.213,0,0.386,0.194,0.386,0.427V35.011z
		 M26.347,33.176c0,0.237-0.173,0.426-0.386,0.426h-6.022c-0.214,0-0.388-0.189-0.388-0.426v-0.403c0-0.233,0.174-0.427,0.388-0.427
		h6.022c0.213,0,0.386,0.194,0.386,0.427V33.176z M26.347,31.34c0,0.238-0.173,0.427-0.386,0.427h-6.022
		c-0.214,0-0.388-0.189-0.388-0.427v-0.403c0-0.233,0.174-0.426,0.388-0.426h6.022c0.213,0,0.386,0.193,0.386,0.426V31.34z
		 M30.224,19.899c-2.06,3.714-2.604,5.803-2.94,7.818c-0.282,1.692-0.678,2.086-1.952,2.086c-0.543,0-1.438,0-2.38,0
		c-0.948,0-1.842,0-2.386,0c-1.273,0-1.669-0.394-1.946-2.086c-0.336-2.016-0.886-4.102-2.945-7.818
		c-0.689-1.241-1.119-2.666-1.119-4.188c0-4.635,3.757-8.396,8.396-8.396c4.637,0,8.395,3.763,8.393,8.396
		C31.342,17.233,30.913,18.653,30.224,19.899z"/>
</g>
</svg>
