<?xml version="1.0" encoding="utf-8"?>
<!-- Generator: Adobe Illustrator 15.1.0, SVG Export Plug-In . SVG Version: 6.00 Build 0)  -->
<!DOCTYPE svg PUBLIC "-//W3C//DTD SVG 1.1//EN" "http://www.w3.org/Graphics/SVG/1.1/DTD/svg11.dtd">
<svg version="1.1"
	 id="Layer_1" xmlns:inkscape="http://www.inkscape.org/namespaces/inkscape" sodipodi:docname="insteon_LED.svg" xmlns:sodipodi="http://sodipodi.sourceforge.net/DTD/sodipodi-0.dtd" xmlns:svg="http://www.w3.org/2000/svg" xmlns:rdf="http://www.w3.org/1999/02/22-rdf-syntax-ns#" xmlns:cc="http://creativecommons.org/ns#" xmlns:dc="http://purl.org/dc/elements/1.1/" inkscape:version="0.48.1 r9760"
	 xmlns="http://www.w3.org/2000/svg" xmlns:xlink="http://www.w3.org/1999/xlink" x="0px" y="0px" width="44.637px"
	 height="44.637px" viewBox="0 0 44.637 44.637" enable-background="new 0 0 44.637 44.637" xml:space="preserve">
<sodipodi:namedview  id="namedview11726" inkscape:window-maximized="0" showgrid="false" pagecolor="#ffffff" borderopacity="1" inkscape:window-x="0" gridtolerance="10" guidetolerance="10" objecttolerance="10" inkscape:pageopacity="0" inkscape:pageshadow="2" inkscape:zoom="21.013957" inkscape:cx="22.318501" inkscape:cy="22.318501" inkscape:current-layer="Layer_1" inkscape:window-width="1910" inkscape:window-height="1156" inkscape:window-y="0" bordercolor="#666666">
	</sodipodi:namedview>
<g>
	<path opacity="0.99" enable-background="new    " d="M0.001,0.001v44.636h44.636V0.001H0.001z M22.32,43.062
		c-11.498,0-20.813-9.315-20.813-20.812c0-11.5,9.315-20.821,20.813-20.821c11.496,0,20.816,9.321,20.816,20.821
		C43.136,33.743,33.816,43.062,22.32,43.062z"/>
	<path opacity="0.99" enable-background="new    " d="M22.465,3.102c-10.574,0-19.146,8.572-19.146,19.146
		c0,10.568,8.574,19.143,19.146,19.143c10.574,0,19.144-8.571,19.145-19.143C41.61,11.673,33.039,3.102,22.465,3.102z
		 M32.601,34.309c0,0.766-0.621,1.387-1.387,1.387c-6.56,1.145-17.596,0-17.596,0c-0.765,0-1.386-0.621-1.386-1.387V10.225
		c0-0.765,0.621-1.387,1.386-1.387h17.596c0.766,0,1.387,0.622,1.387,1.387V34.309z"/>
	<path opacity="0.99" enable-background="new    " d="M29.694,10.297c-0.034,0.002-3.475,0.172-6.658,0.228
		c-3.24-0.056-7.551-0.227-7.595-0.229c-0.382-0.026-0.744,0.124-1.016,0.385c-0.272,0.261-0.426,0.623-0.426,1v9.297
		c0,0.506,0.276,0.971,0.719,1.215c0.438,0.24,2.113,0.798,8.223,0.806c0.005,0,0.011,0,0.016,0h0.116c0.005,0,0.011,0,0.016,0
		c7.3-0.009,7.641-0.779,7.941-1.458c0.079-0.177,0.119-0.369,0.119-0.562v-9.297c0-0.379-0.155-0.743-0.431-1.004
		S30.067,10.28,29.694,10.297z M29.763,20.978c0,0-0.283,0.63-6.74,0.634c0.017,0,0.032,0,0.05,0c-0.021,0-0.038,0-0.059,0
		s-0.037,0-0.058,0c0.018,0,0.032,0,0.049,0c-6.469-0.004-7.62-0.634-7.62-0.634v-9.297c0,0,4.332,0.173,7.626,0.229
		c3.293-0.057,6.751-0.229,6.751-0.229V20.978z"/>
	<polygon opacity="0.99" enable-background="new    " points="23.005,21.612 23.014,21.612 23.023,21.612 23.014,21.612 	"/>
	<path opacity="0.99" enable-background="new    " d="M23.642,30.47c-0.101,0.016-0.185,0.085-0.219,0.183s-0.011,0.204,0.059,0.279
		c0.423,0.502,0.355,1.244-0.144,1.665c-0.503,0.423-1.249,0.357-1.671-0.145c-0.376-0.448-0.376-1.07,0-1.521
		c0.071-0.083,0.088-0.199,0.042-0.3c-0.046-0.097-0.147-0.159-0.256-0.157c-0.083,0.002-0.16,0.038-0.209,0.101
		c-0.544,0.646-0.544,1.585,0,2.232c0.614,0.732,1.717,0.828,2.45,0.215c0.732-0.615,0.827-1.715,0.214-2.447
		C23.846,30.494,23.745,30.452,23.642,30.47z"/>
	<path opacity="0.99" enable-background="new    " d="M22.714,32.323c0.088-0.051,0.14-0.144,0.136-0.244v-1.781
		c0.004-0.075-0.025-0.146-0.079-0.199c-0.053-0.053-0.125-0.084-0.2-0.082c-0.073,0-0.145,0.031-0.197,0.083
		c-0.051,0.053-0.08,0.124-0.079,0.198v1.781c-0.001,0.101,0.052,0.193,0.139,0.244C22.519,32.372,22.628,32.372,22.714,32.323z"/>
</g>
</svg>
