<?xml version="1.0" encoding="utf-8"?>
<!-- Generator: Adobe Illustrator 15.1.0, SVG Export Plug-In . SVG Version: 6.00 Build 0)  -->
<!DOCTYPE svg PUBLIC "-//W3C//DTD SVG 1.1//EN" "http://www.w3.org/Graphics/SVG/1.1/DTD/svg11.dtd">
<svg version="1.1"
	 id="Layer_1" xmlns:dc="http://purl.org/dc/elements/1.1/" xmlns:cc="http://creativecommons.org/ns#" xmlns:rdf="http://www.w3.org/1999/02/22-rdf-syntax-ns#" xmlns:svg="http://www.w3.org/2000/svg" xmlns:sodipodi="http://sodipodi.sourceforge.net/DTD/sodipodi-0.dtd" inkscape:version="0.48.1 r9760" xmlns:inkscape="http://www.inkscape.org/namespaces/inkscape" sodipodi:docname="insteon_LED.svg"
	 xmlns="http://www.w3.org/2000/svg" xmlns:xlink="http://www.w3.org/1999/xlink" x="0px" y="0px" width="44.637px"
	 height="44.637px" viewBox="0 0 44.637 44.637" enable-background="new 0 0 44.637 44.637" xml:space="preserve">
<sodipodi:namedview  id="namedview11726" showgrid="false" inkscape:cy="22.318501" guidetolerance="10" inkscape:pageopacity="0" gridtolerance="10" pagecolor="#ffffff" objecttolerance="10" inkscape:pageshadow="2" borderopacity="1" inkscape:current-layer="Layer_1" inkscape:window-width="1910" bordercolor="#666666" inkscape:cx="22.318501" inkscape:window-x="0" inkscape:window-y="0" inkscape:window-maximized="0" inkscape:zoom="21.013957" inkscape:window-height="1156">
	</sodipodi:namedview>
<g id="g11706">
	<g id="g11708">
	</g>
	<g id="g11712">
	</g>
	<g id="g11716">
	</g>
	<g id="g11720">
	</g>
</g>
<path d="M22.465,3.102c-10.573,0-19.146,8.572-19.146,19.146c0,10.57,8.573,19.143,19.146,19.143
	c10.577,0,19.144-8.574,19.145-19.143C41.61,11.673,33.039,3.102,22.465,3.102z M0,0v44.637h44.637V0H0z M22.32,43.061
	c-11.498,0-20.814-9.316-20.814-20.812c0-11.5,9.316-20.821,20.814-20.821c11.496,0,20.816,9.321,20.816,20.821
	C43.136,33.743,33.816,43.064,22.32,43.061z M33.174,32.861h-21.71c-1.734,0-3.145-1.411-3.145-3.146V14.94
	c0-1.403,1.278-3.36,3.36-3.36h21.28c1.759,0,3.36,1.56,3.36,3.273v14.861C36.32,31.449,34.908,32.861,33.174,32.861z M11.679,12.7
	c-1.449,0-2.24,1.479-2.24,2.24v14.775c0,1.117,0.908,2.026,2.025,2.026h21.71c1.117,0,2.026-0.909,2.026-2.026V14.854
	c0-1.087-1.11-2.153-2.241-2.153H11.679z M32.959,30.62h-20.72c-0.309,0-0.56-0.25-0.56-0.56V14.38c0-0.309,0.251-0.56,0.56-0.56
	h20.72c0.31,0,0.56,0.251,0.56,0.56v15.681C33.519,30.37,33.269,30.62,32.959,30.62z M12.799,29.501H32.4V14.94H12.799V29.501z
	 M10.559,21.381c0.464,0,0.84,0.376,0.84,0.84c0,0.463-0.376,0.84-0.84,0.84c-0.464,0-0.84-0.377-0.84-0.84
	C9.719,21.757,10.095,21.381,10.559,21.381z"/>
</svg>
