<?xml version="1.0" encoding="utf-8"?>
<!-- Generator: Adobe Illustrator 15.1.0, SVG Export Plug-In . SVG Version: 6.00 Build 0)  -->
<!DOCTYPE svg PUBLIC "-//W3C//DTD SVG 1.1//EN" "http://www.w3.org/Graphics/SVG/1.1/DTD/svg11.dtd">
<svg version="1.1"
	 id="Layer_1" xmlns:dc="http://purl.org/dc/elements/1.1/" xmlns:cc="http://creativecommons.org/ns#" xmlns:rdf="http://www.w3.org/1999/02/22-rdf-syntax-ns#" xmlns:svg="http://www.w3.org/2000/svg" xmlns:sodipodi="http://sodipodi.sourceforge.net/DTD/sodipodi-0.dtd" inkscape:version="0.48.1 r9760" xmlns:inkscape="http://www.inkscape.org/namespaces/inkscape" sodipodi:docname="insteon_LED.svg"
	 xmlns="http://www.w3.org/2000/svg" xmlns:xlink="http://www.w3.org/1999/xlink" x="0px" y="0px" width="44.637px"
	 height="44.637px" viewBox="0 0 44.637 44.637" enable-background="new 0 0 44.637 44.637" xml:space="preserve">
<sodipodi:namedview  id="namedview11726" showgrid="false" inkscape:cy="22.318501" guidetolerance="10" inkscape:pageopacity="0" gridtolerance="10" pagecolor="#ffffff" objecttolerance="10" inkscape:pageshadow="2" borderopacity="1" inkscape:current-layer="Layer_1" inkscape:window-width="1910" bordercolor="#666666" inkscape:cx="22.318501" inkscape:window-x="0" inkscape:window-y="0" inkscape:window-maximized="0" inkscape:zoom="21.013957" inkscape:window-height="1156">
	</sodipodi:namedview>
<g id="g11706">
	<g id="g11708">
	</g>
	<g id="g11712">
	</g>
	<g id="g11716">
	</g>
	<g id="g11720">
	</g>
</g>
<path d="M22.465,3.102c-10.573,0-19.146,8.572-19.146,19.146c0,10.57,8.573,19.143,19.146,19.143
	c10.577,0,19.144-8.574,19.145-19.143C41.61,11.673,33.039,3.102,22.465,3.102z M0,0v44.637h44.637V0H0z M22.32,43.061
	c-11.498,0-20.814-9.316-20.814-20.812c0-11.5,9.316-20.821,20.814-20.821c11.496,0,20.816,9.321,20.816,20.821
	C43.136,33.743,33.816,43.064,22.32,43.061z M33.086,11.302v21.711c0,1.734-1.41,3.146-3.145,3.146H15.167
	c-1.403,0-3.36-1.279-3.36-3.36V11.517c0-1.759,1.56-3.36,3.273-3.36h14.861C31.676,8.156,33.086,9.568,33.086,11.302z
	 M12.927,32.798c0,1.449,1.479,2.239,2.24,2.239h14.775c1.117,0,2.025-0.908,2.025-2.024V11.302c0-1.117-0.908-2.026-2.025-2.026
	H15.08c-1.087,0-2.153,1.11-2.153,2.241V32.798z M30.846,11.517v20.722c0,0.309-0.25,0.56-0.559,0.56H14.607
	c-0.309,0-0.56-0.251-0.56-0.56V11.517c0-0.31,0.251-0.56,0.56-0.56h15.681C30.596,10.957,30.846,11.207,30.846,11.517z
	 M29.727,31.678V12.076h-14.56v19.602H29.727z M21.607,33.918c0-0.465,0.376-0.84,0.84-0.84c0.462,0,0.84,0.375,0.84,0.84
	c0,0.464-0.378,0.84-0.84,0.84C21.983,34.758,21.607,34.382,21.607,33.918z"/>
</svg>
