<?xml version="1.0" encoding="utf-8"?>
<!-- Generator: Adobe Illustrator 15.1.0, SVG Export Plug-In . SVG Version: 6.00 Build 0)  -->
<!DOCTYPE svg PUBLIC "-//W3C//DTD SVG 1.1//EN" "http://www.w3.org/Graphics/SVG/1.1/DTD/svg11.dtd">
<svg version="1.1"
	 id="Layer_1" inkscape:version="0.48.1 r9760" sodipodi:docname="insteon_LED.svg" xmlns:dc="http://purl.org/dc/elements/1.1/" xmlns:cc="http://creativecommons.org/ns#" xmlns:rdf="http://www.w3.org/1999/02/22-rdf-syntax-ns#" xmlns:svg="http://www.w3.org/2000/svg" xmlns:inkscape="http://www.inkscape.org/namespaces/inkscape" xmlns:sodipodi="http://sodipodi.sourceforge.net/DTD/sodipodi-0.dtd"
	 xmlns="http://www.w3.org/2000/svg" xmlns:xlink="http://www.w3.org/1999/xlink" x="0px" y="0px" width="44.637px"
	 height="44.637px" viewBox="0 0 44.637 44.637" enable-background="new 0 0 44.637 44.637" xml:space="preserve">
<sodipodi:namedview  id="namedview11726" pagecolor="#ffffff" bordercolor="#666666" inkscape:cx="22.318501" borderopacity="1" inkscape:cy="22.318501" inkscape:pageopacity="0" inkscape:pageshadow="2" inkscape:zoom="21.013957" inkscape:current-layer="Layer_1" showgrid="false" inkscape:window-width="1910" inkscape:window-height="1156" inkscape:window-x="0" inkscape:window-y="0" inkscape:window-maximized="0" guidetolerance="10" objecttolerance="10" gridtolerance="10">
	</sodipodi:namedview>
<g id="g11706">
	<g id="g11708">
	</g>
	<g id="g11712">
	</g>
	<g id="g11716">
	</g>
	<g id="g11720">
	</g>
</g>
<g id="Livello_1_2_">
</g>
<g>
	<path d="M0,0v44.637h44.637V0H0z M22.32,43.061c-11.498,0-20.812-9.314-20.812-20.812c0-11.5,9.314-20.821,20.812-20.821
		c11.496,0,20.816,9.321,20.816,20.821C43.136,33.743,33.816,43.064,22.32,43.061z"/>
	<path d="M17.91,11.077h9.471c0.181,0,0.328-0.146,0.328-0.328s-0.147-0.328-0.328-0.328H17.91c-0.182,0-0.328,0.146-0.328,0.328
		S17.729,11.077,17.91,11.077z"/>
	<circle cx="22.646" cy="32.898" r="0.94"/>
	<path d="M16.364,30.488h12.564V12.51H16.364V30.488z M24.793,14.373c0-0.311,0.251-0.561,0.56-0.561h1.735
		c0.309,0,0.56,0.25,0.56,0.561v1.731c0,0.311-0.251,0.561-0.56,0.561h-1.735c-0.309,0-0.56-0.25-0.56-0.561V14.373z M24.793,17.998
		c0-0.31,0.251-0.561,0.56-0.561h1.735c0.309,0,0.56,0.25,0.56,0.561v1.731c0,0.311-0.251,0.562-0.56,0.562h-1.735
		c-0.309,0-0.56-0.25-0.56-0.562V17.998z M24.793,21.624c0-0.311,0.251-0.561,0.56-0.561h1.735c0.309,0,0.56,0.25,0.56,0.561v1.731
		c0,0.311-0.251,0.562-0.56,0.562h-1.735c-0.309,0-0.56-0.251-0.56-0.562V21.624z M21.227,14.373c0-0.311,0.251-0.561,0.562-0.561
		h1.733c0.311,0,0.561,0.25,0.561,0.561v1.731c0,0.311-0.25,0.561-0.561,0.561h-1.733c-0.311,0-0.562-0.25-0.562-0.561V14.373z
		 M21.227,17.998c0-0.31,0.251-0.561,0.562-0.561h1.733c0.311,0,0.561,0.25,0.561,0.561v1.731c0,0.311-0.25,0.562-0.561,0.562
		h-1.733c-0.311,0-0.562-0.25-0.562-0.562V17.998z M21.227,21.624c0-0.311,0.251-0.561,0.562-0.561h1.733
		c0.311,0,0.561,0.25,0.561,0.561v1.731c0,0.311-0.25,0.562-0.561,0.562h-1.733c-0.311,0-0.562-0.251-0.562-0.562V21.624z
		 M17.661,14.373c0-0.311,0.251-0.561,0.56-0.561h1.734c0.31,0,0.561,0.25,0.561,0.561v1.731c0,0.311-0.251,0.561-0.561,0.561
		h-1.734c-0.309,0-0.56-0.25-0.56-0.561V14.373z M17.661,17.998c0-0.31,0.251-0.561,0.56-0.561h1.734c0.31,0,0.561,0.25,0.561,0.561
		v1.731c0,0.311-0.251,0.562-0.561,0.562h-1.734c-0.309,0-0.56-0.25-0.56-0.562V17.998z M17.661,21.624
		c0-0.311,0.251-0.561,0.56-0.561h1.734c0.31,0,0.561,0.25,0.561,0.561v1.731c0,0.311-0.251,0.562-0.561,0.562h-1.734
		c-0.309,0-0.56-0.251-0.56-0.562V21.624z"/>
	<path d="M22.465,3.102c-10.573,0-19.146,8.572-19.146,19.146c0,10.568,8.573,19.143,19.146,19.143
		c10.577,0,19.144-8.574,19.145-19.143C41.61,11.673,33.039,3.102,22.465,3.102z M29.82,33.406c0,0.862-0.699,1.562-1.562,1.562
		H17.035c-0.863,0-1.563-0.699-1.563-1.562V10.744c0-0.863,0.7-1.563,1.563-1.563h11.221c0.863,0,1.562,0.7,1.562,1.563
		L29.82,33.406L29.82,33.406z"/>
</g>
</svg>
