<?xml version="1.0" encoding="utf-8"?>
<!-- Generator: Adobe Illustrator 15.1.0, SVG Export Plug-In . SVG Version: 6.00 Build 0)  -->
<!DOCTYPE svg PUBLIC "-//W3C//DTD SVG 1.1//EN" "http://www.w3.org/Graphics/SVG/1.1/DTD/svg11.dtd">
<svg version="1.1"
	 id="Layer_1" inkscape:version="0.48.1 r9760" sodipodi:docname="insteon_LED.svg" xmlns:sodipodi="http://sodipodi.sourceforge.net/DTD/sodipodi-0.dtd" xmlns:inkscape="http://www.inkscape.org/namespaces/inkscape" xmlns:rdf="http://www.w3.org/1999/02/22-rdf-syntax-ns#" xmlns:svg="http://www.w3.org/2000/svg" xmlns:cc="http://creativecommons.org/ns#" xmlns:dc="http://purl.org/dc/elements/1.1/"
	 xmlns="http://www.w3.org/2000/svg" xmlns:xlink="http://www.w3.org/1999/xlink" x="0px" y="0px" width="44.637px"
	 height="44.637px" viewBox="0 0 44.637 44.637" enable-background="new 0 0 44.637 44.637" xml:space="preserve">
<sodipodi:namedview  id="namedview11726" bordercolor="#666666" pagecolor="#ffffff" inkscape:cx="22.318501" inkscape:cy="22.318501" borderopacity="1" inkscape:pageopacity="0" inkscape:pageshadow="2" inkscape:zoom="21.013957" inkscape:current-layer="Layer_1" showgrid="false" inkscape:window-width="1910" inkscape:window-height="1156" inkscape:window-x="0" inkscape:window-y="0" inkscape:window-maximized="0" guidetolerance="10" objecttolerance="10" gridtolerance="10">
	</sodipodi:namedview>
<g id="g11706">
	<g id="g11708">
	</g>
	<g id="g11712">
	</g>
	<g id="g11716">
	</g>
	<g id="g11720">
	</g>
</g>
<g>
	<path fill="#231F20" d="M0,0v44.637h44.637V0H0z M22.32,42.961c-11.498,0-20.812-9.314-20.812-20.812
		c0-11.5,9.312-20.819,20.812-20.819c11.496,0,20.816,9.319,20.816,20.819C43.136,33.644,33.816,42.964,22.32,42.961z"/>
	<path fill="#231F20" d="M22.465,3.002c-10.573,0-19.146,8.572-19.146,19.146c0,10.036,7.735,18.26,17.568,19.064l0.258-8.583
		c-1.504-0.592-3.969-1.628-4.368-2.203l0.881,0.991c0,0-4.976,2.065-8.219-6.413c-1.85-4.834-4.726-4.736-4.726-4.736
		s12.945-0.987,14.178,7.301c0,0,0.519,2.246-0.316,3.415c0,0,1.39,0.652,2.592,0.916l0.228-7.557l-0.076,0.004
		c0,0,0.029-0.075,0.083-0.205l0.091-3.025c0-0.218-0.018-0.424-0.031-0.615c-1.09-0.429-2.869-1.178-3.158-1.594l0.639,0.718
		c0,0-3.605,1.497-5.955-4.647c-1.34-3.502-3.424-3.431-3.424-3.431s9.379-0.715,10.272,5.29c0,0,0.376,1.627-0.229,2.474
		c0,0,0.984,0.461,1.849,0.657c0.035-0.327,0.188-0.534,0.697-0.534c0.974,0,0.528,0.75,0.528,1.682l0.005,0.145
		c0.472-0.959,0.965-1.825,1.301-2.041l-0.994,0.815c0,0-2.078-4.604,6.435-7.606c4.851-1.711,4.752-4.373,4.752-4.373
		s0.99,11.979-7.326,13.12c0,0-2.254,0.48-3.427-0.293c0,0-0.396,0.785-0.697,1.656l0.375,11.085
		c0.707-1.487,1.488-2.922,2.002-3.251l-1.36,1.115c0,0-2.84-6.298,8.801-10.402c6.634-2.34,6.498-5.981,6.498-5.981
		S40.396,31.49,29.023,33.05c0,0-3.082,0.657-4.686-0.399c0,0-0.769,1.51-1.17,2.942l0.191,5.654
		c10.159-0.47,18.25-8.831,18.251-19.1C41.61,11.573,33.039,3.002,22.465,3.002z"/>
</g>
</svg>
