<?xml version="1.0" encoding="utf-8"?>
<!-- Generator: Adobe Illustrator 15.1.0, SVG Export Plug-In . SVG Version: 6.00 Build 0)  -->
<!DOCTYPE svg PUBLIC "-//W3C//DTD SVG 1.1//EN" "http://www.w3.org/Graphics/SVG/1.1/DTD/svg11.dtd">
<svg version="1.1"
	 id="Layer_1" sodipodi:docname="ecobee.svg" inkscape:version="0.48.2 r9819" xmlns:inkscape="http://www.inkscape.org/namespaces/inkscape" xmlns:rdf="http://www.w3.org/1999/02/22-rdf-syntax-ns#" xmlns:svg="http://www.w3.org/2000/svg" xmlns:dc="http://purl.org/dc/elements/1.1/" xmlns:cc="http://creativecommons.org/ns#" xmlns:sodipodi="http://sodipodi.sourceforge.net/DTD/sodipodi-0.dtd"
	 xmlns="http://www.w3.org/2000/svg" xmlns:xlink="http://www.w3.org/1999/xlink" x="0px" y="0px" width="44.637px"
	 height="44.637px" viewBox="0 0 44.637 44.637" enable-background="new 0 0 44.637 44.637" xml:space="preserve">
<g>
	<path d="M22.465,3.176C11.892,3.176,3.32,11.747,3.32,22.32c0,10.573,8.571,19.146,19.146,19.146S41.61,32.895,41.61,22.321
		C41.61,11.748,33.039,3.176,22.465,3.176z M37.741,24.098c0.006,0.077,0.021,0.15,0.025,0.228c0.029,0.098,0.045,0.211,0.046,0.342
		l-0.062,0.766l0,0c-0.002,0.015,0.002-0.015,0,0c-0.032,0.229-0.121,0.483-0.177,0.707c-0.02,0.074-0.031,0.149-0.053,0.223
		c-0.068,0.235-0.157,0.464-0.252,0.691c-0.025,0.06-0.046,0.121-0.073,0.181c-0.102,0.226-0.222,0.445-0.349,0.662
		c-0.035,0.06-0.067,0.12-0.104,0.18c-0.131,0.209-0.276,0.412-0.431,0.613c-0.049,0.063-0.095,0.128-0.146,0.19
		c-0.154,0.19-0.321,0.375-0.497,0.557c-0.066,0.069-0.132,0.139-0.201,0.206c-0.173,0.17-0.356,0.334-0.547,0.496
		c-0.088,0.074-0.177,0.147-0.268,0.22c-0.188,0.148-0.382,0.293-0.584,0.434c-0.111,0.078-0.227,0.155-0.343,0.23
		c-0.197,0.128-0.398,0.253-0.608,0.374c-0.138,0.08-0.279,0.156-0.422,0.232c-0.205,0.108-0.411,0.216-0.626,0.317
		c-0.164,0.079-0.335,0.152-0.505,0.227c-0.208,0.091-0.417,0.181-0.634,0.265c-0.192,0.075-0.392,0.144-0.59,0.214
		c-0.21,0.073-0.419,0.147-0.636,0.215c-0.22,0.068-0.446,0.129-0.673,0.19c-0.211,0.059-0.419,0.118-0.636,0.17
		c-0.247,0.06-0.502,0.109-0.756,0.162c-0.209,0.042-0.413,0.088-0.626,0.126c-0.28,0.049-0.569,0.087-0.856,0.127
		c-0.198,0.028-0.393,0.061-0.594,0.084c-0.329,0.038-0.668,0.062-1.006,0.088c-0.17,0.013-0.335,0.032-0.508,0.042
		c-0.514,0.029-1.036,0.045-1.567,0.045c-0.527,0-1.045-0.016-1.556-0.045c-0.169-0.01-0.333-0.029-0.5-0.042
		c-0.337-0.025-0.674-0.05-1.002-0.088c-0.194-0.022-0.38-0.054-0.571-0.081c-0.293-0.04-0.587-0.08-0.873-0.13
		c-0.197-0.035-0.387-0.078-0.581-0.118c-0.268-0.055-0.537-0.108-0.798-0.171c-0.193-0.047-0.379-0.102-0.568-0.153
		c-0.249-0.067-0.498-0.135-0.739-0.211c-0.186-0.058-0.364-0.122-0.545-0.185c-0.231-0.081-0.462-0.161-0.685-0.249
		c-0.175-0.069-0.344-0.143-0.514-0.216c-0.215-0.093-0.427-0.186-0.632-0.285c-0.164-0.079-0.321-0.161-0.479-0.244
		c-0.198-0.104-0.392-0.21-0.579-0.32c-0.15-0.089-0.295-0.179-0.438-0.271c-0.18-0.115-0.354-0.233-0.524-0.354
		c-0.136-0.097-0.267-0.194-0.396-0.295c-0.161-0.126-0.315-0.255-0.466-0.386c-0.12-0.104-0.237-0.21-0.349-0.317
		c-0.142-0.136-0.275-0.275-0.404-0.416c-0.104-0.111-0.206-0.224-0.301-0.339c-0.121-0.145-0.231-0.294-0.339-0.443
		c-0.086-0.119-0.172-0.236-0.25-0.357c-0.099-0.155-0.186-0.313-0.272-0.473c-0.067-0.123-0.136-0.246-0.195-0.372
		c-0.076-0.164-0.138-0.333-0.201-0.501c-0.047-0.128-0.1-0.254-0.139-0.384C7.535,26.28,7.499,26.1,7.462,25.921
		c-0.027-0.129-0.061-0.256-0.08-0.387c-0.004-0.026-0.001-0.052-0.005-0.078l0,0l-0.061-0.769c0-0.116-0.016-0.219,0.008-0.309
		c0.005-0.094,0.022-0.184,0.029-0.277c0.016-0.202,0.029-0.404,0.063-0.604C8.292,15.667,14.753,9.702,22.61,9.702
		c7.735,0,14.14,5.953,15.06,13.743C37.708,23.66,37.725,23.879,37.741,24.098z"/>
	<path d="M22.61,11.202c-5.19,0-9.706,2.893-12.065,7.209c2.803-2.427,7.149-4.024,11.939-4.024c4.845,0,9.239,1.604,12.065,4.037
		C32.2,14.107,27.728,11.202,22.61,11.202z"/>
	<path d="M-0.1,0V44.73h44.737V0H-0.1z M22.32,43.138c-11.498,0-20.812-9.322-20.812-20.818C1.501,10.823,10.821,1.5,22.32,1.5
		c11.496,0,20.816,9.323,20.816,20.812C43.136,33.815,33.816,43.138,22.32,43.138z"/>
	<path d="M28.754,20.449l-5.095-3.77l-6.123,3.262l5.277,3.763L28.754,20.449z M23.572,17.859l3.331,2.464l-4.02,2.203l-3.451-2.461
		L23.572,17.859z"/>
	<polygon points="23.354,24.41 28.631,28.159 34.579,24.916 29.479,21.141 	"/>
	<polygon points="16.742,20.39 10.617,23.662 15.894,27.411 21.843,24.17 	"/>
	<polygon points="16.439,28.117 21.718,31.866 27.659,28.622 22.567,24.854 	"/>
</g>
</svg>
