<?xml version="1.0" encoding="utf-8"?>
<!-- Generator: Adobe Illustrator 15.1.0, SVG Export Plug-In . SVG Version: 6.00 Build 0)  -->
<!DOCTYPE svg PUBLIC "-//W3C//DTD SVG 1.1//EN" "http://www.w3.org/Graphics/SVG/1.1/DTD/svg11.dtd">
<svg version="1.1"
	 id="Layer_1" sodipodi:docname="ecobee.svg" inkscape:version="0.48.2 r9819" xmlns:inkscape="http://www.inkscape.org/namespaces/inkscape" xmlns:rdf="http://www.w3.org/1999/02/22-rdf-syntax-ns#" xmlns:svg="http://www.w3.org/2000/svg" xmlns:dc="http://purl.org/dc/elements/1.1/" xmlns:cc="http://creativecommons.org/ns#" xmlns:sodipodi="http://sodipodi.sourceforge.net/DTD/sodipodi-0.dtd"
	 xmlns="http://www.w3.org/2000/svg" xmlns:xlink="http://www.w3.org/1999/xlink" x="0px" y="0px" width="44.637px"
	 height="44.637px" viewBox="0 0 44.637 44.637" enable-background="new 0 0 44.637 44.637" xml:space="preserve">
<g>
	<path d="M-0.1,0v44.733h44.737V0H-0.1z M22.32,43.138c-11.498,0-20.815-9.322-20.815-20.818C1.501,10.823,10.821,1.5,22.32,1.5
		c11.496,0,20.816,9.323,20.816,20.816C43.136,33.815,33.816,43.138,22.32,43.138z"/>
	<path d="M22.465,3.176C11.892,3.176,3.32,11.747,3.32,22.32c0,10.573,8.571,19.146,19.146,19.146S41.61,32.895,41.61,22.321
		C41.61,11.748,33.039,3.176,22.465,3.176z M21.349,8.608c0.006-0.004,0.008-0.008,0.012-0.011c0.081-0.058,0.144-0.14,0.176-0.238
		c0.062-0.298,0.425-0.521,0.685-0.521h0.743c0.258,0,0.62,0.223,0.684,0.521c0.032,0.1,0.094,0.182,0.174,0.238
		c0.005,0.003,0.008,0.007,0.013,0.011c0.003,0.004,0.008,0.011,0.008,0.018c0,0.014-0.01,0.023-0.021,0.027h-2.454
		c-0.013-0.004-0.021-0.015-0.021-0.027C21.343,8.617,21.346,8.612,21.349,8.608z M20.695,8.991h3.793
		c0.298,0,0.541,0.261,0.541,0.58c0,0.32-0.242,0.58-0.541,0.58h-3.793c-0.299,0-0.541-0.26-0.541-0.58
		C20.154,9.252,20.396,8.991,20.695,8.991z M20.454,10.489h4.276c0.298,0,0.54,0.261,0.54,0.582c0,0.32-0.242,0.58-0.54,0.58h-4.276
		c-0.298,0-0.542-0.26-0.542-0.58C19.912,10.749,20.156,10.489,20.454,10.489z M20.454,11.989h4.276c0.298,0,0.54,0.261,0.54,0.58
		c0,0.321-0.242,0.582-0.54,0.582h-4.276c-0.298,0-0.542-0.261-0.542-0.582C19.912,12.249,20.156,11.989,20.454,11.989z
		 M18.508,16.048c0-0.109,0.046-0.277,0.102-0.371l1.088-1.828c0.057-0.094,0.192-0.172,0.301-0.172h5.187
		c0.108,0,0.245,0.078,0.301,0.172l1.087,1.828c0.057,0.094,0.104,0.262,0.104,0.371v3.057H18.51v-3.057H18.508z M15.355,25.855
		c2.148-2.592,2.078-3.63,2.078-4.225c0-0.484,0.284-1.559,1.083-1.942c-0.002-0.009-0.003-0.017-0.005-0.024h8.16
		c-0.001,0.009-0.003,0.017-0.005,0.024c0.8,0.385,1.083,1.458,1.083,1.942c0,0.595-0.071,1.633,2.078,4.225
		c2.149,2.603,2.507,4.388,2.507,5.132c0,2.382-4.361,4.313-9.742,4.313c-5.383,0-9.744-1.932-9.744-4.313
		C12.848,30.242,13.207,28.456,15.355,25.855z"/>
</g>
</svg>
