<?xml version="1.0" encoding="utf-8"?>
<!-- Generator: Adobe Illustrator 15.1.0, SVG Export Plug-In . SVG Version: 6.00 Build 0)  -->
<!DOCTYPE svg PUBLIC "-//W3C//DTD SVG 1.1//EN" "http://www.w3.org/Graphics/SVG/1.1/DTD/svg11.dtd">
<svg version="1.1"
	 id="Layer_1" sodipodi:docname="ecobee.svg" inkscape:version="0.48.2 r9819" xmlns:svg="http://www.w3.org/2000/svg" xmlns:rdf="http://www.w3.org/1999/02/22-rdf-syntax-ns#" xmlns:dc="http://purl.org/dc/elements/1.1/" xmlns:inkscape="http://www.inkscape.org/namespaces/inkscape" xmlns:sodipodi="http://sodipodi.sourceforge.net/DTD/sodipodi-0.dtd" xmlns:cc="http://creativecommons.org/ns#"
	 xmlns="http://www.w3.org/2000/svg" xmlns:xlink="http://www.w3.org/1999/xlink" x="0px" y="0px" width="44.637px"
	 height="44.637px" viewBox="0 0 44.637 44.637" enable-background="new 0 0 44.637 44.637" xml:space="preserve">
<g>
	<path d="M-0.1,0v44.731h44.737V0H-0.1z M22.32,43.138c-11.498,0-20.813-9.322-20.813-20.818C1.501,10.823,10.821,1.5,22.32,1.5
		c11.496,0,20.816,9.323,20.816,20.814C43.136,33.815,33.816,43.138,22.32,43.138z"/>
	<path d="M22.465,3.176C11.892,3.176,3.32,11.747,3.32,22.32c0,10.573,8.571,19.146,19.146,19.146S41.61,32.895,41.61,22.321
		C41.61,11.748,33.039,3.176,22.465,3.176z M36.307,15.969c0.121,0.145,0.23,0.294,0.339,0.442c0.086,0.119,0.172,0.236,0.25,0.357
		c0.099,0.154,0.186,0.312,0.271,0.473c0.067,0.123,0.137,0.246,0.195,0.372c0.076,0.164,0.138,0.333,0.201,0.501
		c0.047,0.128,0.1,0.254,0.139,0.384c0.051,0.176,0.087,0.356,0.124,0.535c0.027,0.129,0.062,0.256,0.08,0.387
		c0.004,0.026,0.001,0.053,0.005,0.078l0.062,0.77c0,0.116,0.016,0.219-0.009,0.309c-0.005,0.094-0.021,0.185-0.028,0.277
		c-0.017,0.202-0.029,0.403-0.063,0.604c-0.876,7.832-7.337,13.796-15.194,13.796c-7.736,0-14.141-5.953-15.061-13.744
		c-0.038-0.216-0.055-0.435-0.071-0.653c-0.006-0.077-0.021-0.15-0.024-0.229c-0.029-0.098-0.045-0.211-0.046-0.342l0.062-0.766
		c0.032-0.229,0.121-0.483,0.177-0.707c0.021-0.074,0.031-0.149,0.054-0.224c0.067-0.234,0.157-0.464,0.252-0.69
		c0.024-0.061,0.046-0.121,0.073-0.181c0.102-0.227,0.222-0.445,0.349-0.662c0.035-0.061,0.067-0.12,0.104-0.181
		c0.132-0.209,0.276-0.412,0.432-0.612c0.049-0.063,0.095-0.128,0.146-0.19c0.154-0.189,0.321-0.375,0.497-0.557
		c0.066-0.069,0.132-0.14,0.201-0.206c0.173-0.17,0.356-0.334,0.547-0.496c0.088-0.074,0.177-0.147,0.269-0.22
		c0.188-0.148,0.382-0.293,0.584-0.435c0.11-0.078,0.227-0.155,0.343-0.229c0.197-0.128,0.397-0.253,0.607-0.374
		c0.139-0.08,0.279-0.156,0.423-0.232c0.204-0.107,0.41-0.216,0.626-0.317c0.164-0.078,0.335-0.151,0.505-0.227
		c0.208-0.091,0.417-0.181,0.634-0.265c0.192-0.075,0.392-0.145,0.59-0.214c0.21-0.073,0.419-0.147,0.636-0.216
		c0.221-0.067,0.446-0.129,0.674-0.189c0.211-0.06,0.419-0.118,0.636-0.17c0.247-0.061,0.502-0.109,0.756-0.162
		c0.209-0.042,0.413-0.088,0.626-0.126c0.28-0.049,0.569-0.087,0.855-0.127c0.198-0.028,0.394-0.062,0.595-0.084
		c0.329-0.038,0.668-0.062,1.006-0.088c0.17-0.014,0.335-0.032,0.508-0.042c0.514-0.029,1.036-0.045,1.568-0.045
		c0.527,0,1.045,0.016,1.556,0.045c0.169,0.01,0.333,0.028,0.5,0.042c0.337,0.024,0.674,0.05,1.002,0.088
		c0.194,0.021,0.38,0.054,0.571,0.081c0.293,0.04,0.587,0.08,0.873,0.13c0.196,0.035,0.387,0.078,0.581,0.118
		c0.268,0.055,0.537,0.107,0.798,0.171c0.192,0.047,0.379,0.102,0.567,0.152c0.249,0.067,0.498,0.136,0.739,0.212
		c0.187,0.058,0.364,0.121,0.545,0.185c0.231,0.081,0.462,0.161,0.686,0.249c0.175,0.069,0.344,0.143,0.514,0.216
		c0.215,0.093,0.427,0.187,0.632,0.285c0.164,0.079,0.321,0.161,0.479,0.244c0.197,0.104,0.392,0.21,0.579,0.319
		c0.149,0.09,0.295,0.18,0.438,0.271c0.18,0.115,0.354,0.233,0.524,0.354c0.136,0.098,0.267,0.194,0.396,0.296
		c0.161,0.126,0.315,0.255,0.466,0.386c0.12,0.104,0.237,0.21,0.35,0.316c0.142,0.137,0.274,0.275,0.403,0.416
		C36.11,15.74,36.211,15.853,36.307,15.969z"/>
	<path d="M10.738,26.531c2.349,4.317,6.821,7.222,11.94,7.222c5.19,0,9.707-2.893,12.065-7.209
		c-2.803,2.428-7.148,4.024-11.939,4.024C17.958,30.569,13.564,28.964,10.738,26.531z"/>
	<ellipse cx="22.702" cy="20.729" rx="13.205" ry="7.948"/>
</g>
</svg>
