<?xml version="1.0" encoding="utf-8"?>
<!-- Generator: Adobe Illustrator 15.1.0, SVG Export Plug-In . SVG Version: 6.00 Build 0)  -->
<!DOCTYPE svg PUBLIC "-//W3C//DTD SVG 1.1//EN" "http://www.w3.org/Graphics/SVG/1.1/DTD/svg11.dtd">
<svg version="1.1"
	 id="Layer_1" sodipodi:docname="ecobee.svg" inkscape:version="0.48.2 r9819" xmlns:svg="http://www.w3.org/2000/svg" xmlns:rdf="http://www.w3.org/1999/02/22-rdf-syntax-ns#" xmlns:inkscape="http://www.inkscape.org/namespaces/inkscape" xmlns:cc="http://creativecommons.org/ns#" xmlns:dc="http://purl.org/dc/elements/1.1/" xmlns:sodipodi="http://sodipodi.sourceforge.net/DTD/sodipodi-0.dtd"
	 xmlns="http://www.w3.org/2000/svg" xmlns:xlink="http://www.w3.org/1999/xlink" x="0px" y="0px" width="44.637px"
	 height="44.637px" viewBox="0 0 44.637 44.637" enable-background="new 0 0 44.637 44.637" xml:space="preserve">
<g>
	<path d="M-0.1,0v44.734h44.737V0H-0.1z M22.32,43.138c-11.498,0-20.816-9.322-20.816-20.818C1.501,10.823,10.821,1.5,22.32,1.5
		c11.496,0,20.816,9.323,20.816,20.817C43.136,33.815,33.816,43.138,22.32,43.138z"/>
	<path d="M22.465,3.176C11.892,3.176,3.32,11.747,3.32,22.32c0,10.573,8.571,19.146,19.146,19.146S41.61,32.895,41.61,22.321
		C41.61,11.748,33.039,3.176,22.465,3.176z M22.627,36.217c-0.773,0-1.456-0.465-1.786-1.111h3.567
		C24.08,35.76,23.406,36.217,22.627,36.217z M25.68,34.145c0,0.212-0.156,0.385-0.348,0.385h-5.415
		c-0.192,0-0.349-0.173-0.349-0.385v-0.363c0-0.212,0.157-0.385,0.349-0.385h5.415c0.191,0,0.348,0.173,0.348,0.385V34.145z
		 M25.68,32.493c0,0.211-0.156,0.384-0.348,0.384h-5.415c-0.192,0-0.349-0.173-0.349-0.384v-0.364c0-0.211,0.157-0.383,0.349-0.383
		h5.415c0.191,0,0.348,0.172,0.348,0.383V32.493z M25.68,30.841c0,0.211-0.156,0.384-0.348,0.384h-5.415
		c-0.192,0-0.349-0.173-0.349-0.384v-0.364c0-0.211,0.157-0.383,0.349-0.383h5.415c0.191,0,0.348,0.172,0.348,0.383V30.841z
		 M29.172,20.545c-1.857,3.342-2.35,5.221-2.651,7.037c-0.254,1.522-0.605,1.877-1.757,1.877h-2.142h-2.137
		c-1.15,0-1.502-0.354-1.756-1.877c-0.302-1.817-0.794-3.695-2.65-7.037c-0.621-1.121-1.007-2.399-1.007-3.772
		c0-4.174,3.384-7.557,7.551-7.557c4.173,0,7.557,3.383,7.557,7.557C30.179,18.146,29.792,19.424,29.172,20.545z"/>
</g>
</svg>
