<?xml version="1.0" encoding="utf-8"?>
<!-- Generator: Adobe Illustrator 15.1.0, SVG Export Plug-In . SVG Version: 6.00 Build 0)  -->
<!DOCTYPE svg PUBLIC "-//W3C//DTD SVG 1.1//EN" "http://www.w3.org/Graphics/SVG/1.1/DTD/svg11.dtd">
<svg version="1.1"
	 id="Layer_1" sodipodi:docname="ecobee.svg" inkscape:version="0.48.2 r9819" xmlns:inkscape="http://www.inkscape.org/namespaces/inkscape" xmlns:rdf="http://www.w3.org/1999/02/22-rdf-syntax-ns#" xmlns:svg="http://www.w3.org/2000/svg" xmlns:dc="http://purl.org/dc/elements/1.1/" xmlns:cc="http://creativecommons.org/ns#" xmlns:sodipodi="http://sodipodi.sourceforge.net/DTD/sodipodi-0.dtd"
	 xmlns="http://www.w3.org/2000/svg" xmlns:xlink="http://www.w3.org/1999/xlink" x="0px" y="0px" width="44.637px"
	 height="44.637px" viewBox="0 0 44.637 44.637" enable-background="new 0 0 44.637 44.637" xml:space="preserve">
<g>
	<path fill-rule="evenodd" clip-rule="evenodd" d="M-0.1,0v44.733h44.737V0H-0.1z M22.32,43.138
		c-11.498,0-20.815-9.322-20.815-20.818C1.501,10.823,10.821,1.5,22.32,1.5c11.496,0,20.816,9.323,20.816,20.816
		C43.136,33.815,33.816,43.138,22.32,43.138z"/>
	<path fill-rule="evenodd" clip-rule="evenodd" d="M22.465,3.176C11.892,3.176,3.32,11.747,3.32,22.32
		c0,10.573,8.571,19.146,19.146,19.146S41.61,32.895,41.61,22.321C41.61,11.748,33.039,3.176,22.465,3.176z M30.656,35.356
		c-0.809,0.38-2.401,0.229-3.918,0.229c-2.968,0-5.384,0-8.298,0c-2.205,0-4.504,0.279-5.011-1.383V10.414
		c0.223-0.755,1.013-1.27,1.843-1.383l11.753-0.058c2.121,0,3.942-0.226,4.609,1.21c0.294,0.635,0.172,1.743,0.172,2.938
		c0,5.919,0,12.154,0,18.374C31.807,33.488,31.92,34.763,30.656,35.356z"/>
	<path fill-rule="evenodd" clip-rule="evenodd" d="M23.572,17.21c0.866-0.272,2.051-1.353,2.016-2.88
		c-0.041-1.812-1.559-3.07-3.344-2.88c-1.471,0.157-2.5,1.152-2.651,2.593C19.375,16.128,21.451,17.877,23.572,17.21z M23.916,13.87
		c0.527,2.033-2.195,2.369-2.653,1.036C20.67,13.182,23.22,12.277,23.916,13.87z"/>
	<path fill-rule="evenodd" clip-rule="evenodd" d="M21.897,19.169c-2.098,0.155-3.844,1.208-4.896,2.477
		c-1.048,1.263-1.889,3.088-1.671,5.415c0.362,3.896,3.83,6.922,8.067,6.509c2.998-0.293,5.625-2.618,6.279-5.528
		c0.657-2.935-0.612-5.607-2.074-6.971C26.18,19.742,24.37,18.987,21.897,19.169z M28.237,26.658
		c-0.271,4.209-5.052,6.829-8.759,4.434c-1.549-1-2.775-2.974-2.535-5.414c0.165-1.667,0.952-2.602,1.786-3.398
		c0.912-0.871,1.961-1.451,3.571-1.555C25.542,20.516,28.463,23.133,28.237,26.658z"/>
	<path fill-rule="evenodd" clip-rule="evenodd" d="M21.032,26.831c0.478,1.624,3.549,1.331,3.114-0.922
		C23.73,24.221,20.52,24.462,21.032,26.831z"/>
</g>
</svg>
