<?xml version="1.0" encoding="utf-8"?>
<!-- Generator: Adobe Illustrator 15.1.0, SVG Export Plug-In . SVG Version: 6.00 Build 0)  -->
<!DOCTYPE svg PUBLIC "-//W3C//DTD SVG 1.1//EN" "http://www.w3.org/Graphics/SVG/1.1/DTD/svg11.dtd">
<svg version="1.1"
	 id="Layer_1" sodipodi:docname="insteon_LED.svg" inkscape:version="0.48.1 r9760" xmlns:inkscape="http://www.inkscape.org/namespaces/inkscape" xmlns:rdf="http://www.w3.org/1999/02/22-rdf-syntax-ns#" xmlns:svg="http://www.w3.org/2000/svg" xmlns:dc="http://purl.org/dc/elements/1.1/" xmlns:cc="http://creativecommons.org/ns#" xmlns:sodipodi="http://sodipodi.sourceforge.net/DTD/sodipodi-0.dtd"
	 xmlns="http://www.w3.org/2000/svg" xmlns:xlink="http://www.w3.org/1999/xlink" x="0px" y="0px" width="44.637px"
	 height="44.637px" viewBox="0 0 44.637 44.637" enable-background="new 0 0 44.637 44.637" xml:space="preserve">
<sodipodi:namedview  inkscape:zoom="21.013957" inkscape:pageopacity="0" inkscape:cx="22.318501" inkscape:window-y="0" pagecolor="#ffffff" objecttolerance="10" inkscape:pageshadow="2" inkscape:cy="22.318501" guidetolerance="10" inkscape:current-layer="Layer_1" inkscape:window-width="1910" gridtolerance="10" inkscape:window-x="0" bordercolor="#666666" id="namedview11726" inkscape:window-height="1156" inkscape:window-maximized="0" borderopacity="1" showgrid="false">
	</sodipodi:namedview>
<g id="g11706">
	<g id="g11708">
	</g>
	<g id="g11712">
	</g>
	<g id="g11716">
	</g>
	<g id="g11720">
	</g>
</g>
<g id="Livello_1_2_">
</g>
<g>
	<path d="M0,0v44.637h44.637V0H0z M22.32,43.061c-11.498,0-20.812-9.312-20.812-20.812S10.82,1.428,22.32,1.428
		c11.496,0,20.816,9.321,20.816,20.821C43.136,33.743,33.816,43.064,22.32,43.061z"/>
	<rect x="14.283" y="15.877" width="16.502" height="10.503"/>
	<path d="M31.535,26.377c0,0.414-0.336,0.75-0.75,0.75H14.283c-0.415,0-0.75-0.336-0.75-0.75v-10.5c0-0.415,0.335-0.747,0.75-0.747
		l16.502-0.003c0.414,0,0.75,0.335,0.75,0.75V26.377z"/>
	<path d="M22.465,3.102c-10.573,0-19.146,8.572-19.146,19.146c0,10.563,8.573,19.143,19.146,19.143
		c10.577,0,19.144-8.574,19.145-19.143C41.61,11.673,33.039,3.102,22.465,3.102z M34.535,29.38c0,1.241-1.004,2.245-2.242,2.249
		h-7.508v0.912l4.682,0.607c0.334,0.084,0.568,0.385,0.568,0.729c0,0.414-0.336,0.75-0.75,0.75H15.783
		c-0.415,0-0.75-0.336-0.75-0.75c0-0.344,0.234-0.645,0.568-0.729l4.682-0.607v-0.912h-7.507c-1.239-0.004-2.243-1.008-2.243-2.249
		v-15c0-1.244,1.007-2.25,2.25-2.25h19.502c1.242,0,2.25,1.006,2.25,2.25V29.38z"/>
</g>
</svg>
