<?xml version="1.0" encoding="utf-8"?>
<!-- Generator: Adobe Illustrator 15.1.0, SVG Export Plug-In . SVG Version: 6.00 Build 0)  -->
<!DOCTYPE svg PUBLIC "-//W3C//DTD SVG 1.1//EN" "http://www.w3.org/Graphics/SVG/1.1/DTD/svg11.dtd">
<svg version="1.1"
	 id="Layer_1" inkscape:version="0.48.2 r9819" sodipodi:docname="ecobee.svg" xmlns:svg="http://www.w3.org/2000/svg" xmlns:inkscape="http://www.inkscape.org/namespaces/inkscape" xmlns:cc="http://creativecommons.org/ns#" xmlns:dc="http://purl.org/dc/elements/1.1/" xmlns:sodipodi="http://sodipodi.sourceforge.net/DTD/sodipodi-0.dtd" xmlns:rdf="http://www.w3.org/1999/02/22-rdf-syntax-ns#"
	 xmlns="http://www.w3.org/2000/svg" xmlns:xlink="http://www.w3.org/1999/xlink" x="0px" y="0px" width="44.637px"
	 height="44.637px" viewBox="0 0 44.637 44.637" enable-background="new 0 0 44.637 44.637" xml:space="preserve">
<g>
	<path d="M0,0v44.637h44.637V0H0z M22.319,43.139C10.821,43.139,1.5,33.817,1.5,22.321c0-11.497,9.32-20.82,20.818-20.82
		c11.497,0,20.817,9.323,20.817,20.82C43.136,33.817,33.816,43.139,22.319,43.139z"/>
	<path d="M22.464,3.175c-10.573,0-19.146,8.572-19.146,19.145c0,10.573,8.572,19.145,19.146,19.145
		c10.575,0,19.145-8.571,19.145-19.145S33.039,3.175,22.464,3.175z M21.574,22.4l-0.922-2.231l-2.987,7.576h-0.573l-2.777-7.23
		l-1.298,4.517v0.084H8.358c-0.239,0.413-0.683,0.694-1.196,0.694c-0.767,0-1.388-0.623-1.388-1.389
		c0-0.768,0.621-1.388,1.388-1.388c0.502,0,0.938,0.269,1.182,0.667h3.551l1.938-6.793h0.513l3.02,7.306l2.866-7.306h0.636
		l1.417,3.411L21.574,22.4z M37.41,18.841c0.766,0,1.389,0.623,1.389,1.389c0,0.768-0.623,1.389-1.389,1.389
		c-0.5,0-0.938-0.27-1.181-0.667h-3.555l-1.938,6.793h-0.512l-3.02-7.307l-2.867,7.307h-0.633l-1.418-3.412l0.71-2.082l0.922,2.231
		l2.988-7.575h0.573l2.775,7.229l1.299-4.516v-0.084h4.66C36.455,19.122,36.896,18.841,37.41,18.841z"/>
</g>
</svg>
