<?xml version="1.0" encoding="utf-8"?>
<!-- Generator: Adobe Illustrator 15.1.0, SVG Export Plug-In . SVG Version: 6.00 Build 0)  -->
<!DOCTYPE svg PUBLIC "-//W3C//DTD SVG 1.1//EN" "http://www.w3.org/Graphics/SVG/1.1/DTD/svg11.dtd">
<svg version="1.1"
	 id="Layer_1" xmlns:dc="http://purl.org/dc/elements/1.1/" inkscape:version="0.48.1 r9760" xmlns:rdf="http://www.w3.org/1999/02/22-rdf-syntax-ns#" xmlns:svg="http://www.w3.org/2000/svg" xmlns:sodipodi="http://sodipodi.sourceforge.net/DTD/sodipodi-0.dtd" sodipodi:docname="insteon_LED.svg" xmlns:inkscape="http://www.inkscape.org/namespaces/inkscape" xmlns:cc="http://creativecommons.org/ns#"
	 xmlns="http://www.w3.org/2000/svg" xmlns:xlink="http://www.w3.org/1999/xlink" x="0px" y="0px" width="44.637px"
	 height="44.637px" viewBox="0 0 44.637 44.637" enable-background="new 0 0 44.637 44.637" xml:space="preserve">
<sodipodi:namedview  inkscape:window-y="0" objecttolerance="10" pagecolor="#ffffff" borderopacity="1" guidetolerance="10" inkscape:cy="22.318501" inkscape:window-x="0" inkscape:window-width="1910" inkscape:pageopacity="0" showgrid="false" inkscape:zoom="21.013957" gridtolerance="10" inkscape:window-height="1156" inkscape:pageshadow="2" inkscape:window-maximized="0" inkscape:current-layer="Layer_1" id="namedview11726" inkscape:cx="22.318501" bordercolor="#666666">
	</sodipodi:namedview>
<g id="g11706">
	<g id="g11708">
	</g>
	<g id="g11712">
	</g>
	<g id="g11716">
	</g>
	<g id="g11720">
	</g>
</g>
<g id="Livello_1_2_">
</g>
<g id="Selected_x5F_Ver2">
	
		<g id="svg1_copy_4_1_" xmlns:dc="http://purl.org/dc/elements/1.1/" inkscape:version="0.46" xmlns:rdf="http://www.w3.org/1999/02/22-rdf-syntax-ns#" xmlns:svg="http://www.w3.org/2000/svg" xmlns:sodipodi="http://sodipodi.sourceforge.net/DTD/sodipodi-0.dtd" sodipodi:docname="heart_jon_phillips_01.svg" xmlns:inkscape="http://www.inkscape.org/namespaces/inkscape" xmlns:cc="http://creativecommons.org/ns#" inkscape:output_extension="org.inkscape.output.svg.inkscape" sodipodi:docbase="C:\Documents and Settings\Jon Phillips\My Documents\projects\clipart-project\submissions" sodipodi:version="0.32">
		<defs>
			
			
				<inkscape:perspective  inkscape:vp_y="0 : 1000 : 0" id="perspective9" inkscape:vp_x="0 : 526.18109 : 1" inkscape:vp_z="744.09448 : 526.18109 : 1" inkscape:persp3d-origin="372.04724 : 350.78739 : 1" sodipodi:type="inkscape:persp3d">
				</inkscape:perspective>
		</defs>
		
			<sodipodi:namedview  inkscape:window-y="116" pagecolor="#ffffff" borderopacity="1.0" inkscape:cy="596.00159" inkscape:window-x="88" inkscape:window-width="866" inkscape:pageopacity="0.0" showgrid="false" inkscape:zoom="0.35" inkscape:window-height="667" inkscape:pageshadow="2" inkscape:current-layer="layer1" id="base" inkscape:cx="549.40674" bordercolor="#666666" showguides="true" inkscape:guide-bbox="true" inkscape:document-units="px">
			</sodipodi:namedview>
	</g>
	
		<g id="svg1_copy_4" xmlns:dc="http://purl.org/dc/elements/1.1/" inkscape:version="0.46" xmlns:rdf="http://www.w3.org/1999/02/22-rdf-syntax-ns#" xmlns:svg="http://www.w3.org/2000/svg" xmlns:sodipodi="http://sodipodi.sourceforge.net/DTD/sodipodi-0.dtd" sodipodi:docname="heart_jon_phillips_01.svg" xmlns:inkscape="http://www.inkscape.org/namespaces/inkscape" xmlns:cc="http://creativecommons.org/ns#" inkscape:output_extension="org.inkscape.output.svg.inkscape" sodipodi:docbase="C:\Documents and Settings\Jon Phillips\My Documents\projects\clipart-project\submissions" sodipodi:version="0.32">
		<defs>
			
			
				<inkscape:perspective  inkscape:vp_y="0 : 1000 : 0" id="perspective9" inkscape:vp_x="0 : 526.18109 : 1" inkscape:vp_z="744.09448 : 526.18109 : 1" inkscape:persp3d-origin="372.04724 : 350.78739 : 1" sodipodi:type="inkscape:persp3d">
				</inkscape:perspective>
		</defs>
		
			<sodipodi:namedview  inkscape:window-y="116" pagecolor="#ffffff" borderopacity="1.0" inkscape:cy="596.00159" inkscape:window-x="88" inkscape:window-width="866" inkscape:pageopacity="0.0" showgrid="false" inkscape:zoom="0.35" inkscape:window-height="667" inkscape:pageshadow="2" inkscape:current-layer="layer1" id="base" inkscape:cx="549.40674" bordercolor="#666666" showguides="true" inkscape:guide-bbox="true" inkscape:document-units="px">
			</sodipodi:namedview>
	</g>
</g>
<g>
	<path d="M0,0v44.637h44.637V0H0z M22.32,43.061c-11.498,0-20.812-9.313-20.812-20.812c0-11.5,9.313-20.821,20.812-20.821
		c11.496,0,20.816,9.321,20.816,20.821C43.136,33.743,33.816,43.064,22.32,43.061z"/>
	<path d="M22.25,14.457c-4.233,0-7.68,3.446-7.68,7.68c0,4.235,3.446,7.68,7.68,7.68c4.238,0,7.68-3.445,7.68-7.68
		C29.93,17.903,26.489,14.457,22.25,14.457z M22.353,28.012c-2.323-3.342-5.731-4.229-5.731-7.607c0-1.662,1.348-3.01,3.01-3.01
		c1.205,0,2.241,0.711,2.722,1.735c0.481-1.024,1.518-1.735,2.722-1.735c1.662,0,3.012,1.348,3.012,3.01
		C28.086,23.676,24.553,24.692,22.353,28.012z"/>
	<path d="M22.465,3.102c-10.573,0-19.146,8.572-19.146,19.146c0,10.567,8.573,19.143,19.146,19.143
		c10.577,0,19.144-8.574,19.145-19.143C41.61,11.673,33.039,3.102,22.465,3.102z M18.41,6.777h7.681l1.579,6.312
		c-1.586-0.954-3.436-1.513-5.42-1.513c-1.979,0-3.832,0.559-5.418,1.513L18.41,6.777z M26.091,37.496H18.41l-1.578-6.312
		c1.586,0.953,3.439,1.512,5.418,1.512c1.984,0,3.834-0.559,5.42-1.512L26.091,37.496z M22.25,31.737
		c-4.643,0-8.516-3.297-9.404-7.68h-1.155c-0.528,0-0.96-0.43-0.96-0.961v-1.919c0-0.53,0.432-0.959,0.96-0.959h1.155
		c0.889-4.383,4.762-7.681,9.404-7.681c5.303,0,9.601,4.297,9.601,9.6C31.851,27.438,27.553,31.737,22.25,31.737z"/>
</g>
</svg>
