<?xml version="1.0" encoding="utf-8"?>
<!-- Generator: Adobe Illustrator 15.1.0, SVG Export Plug-In . SVG Version: 6.00 Build 0)  -->
<!DOCTYPE svg PUBLIC "-//W3C//DTD SVG 1.1//EN" "http://www.w3.org/Graphics/SVG/1.1/DTD/svg11.dtd">
<svg version="1.1"
	 id="Layer_1" sodipodi:docname="ecobee.svg" inkscape:version="0.48.2 r9819" xmlns:svg="http://www.w3.org/2000/svg" xmlns:rdf="http://www.w3.org/1999/02/22-rdf-syntax-ns#" xmlns:dc="http://purl.org/dc/elements/1.1/" xmlns:inkscape="http://www.inkscape.org/namespaces/inkscape" xmlns:sodipodi="http://sodipodi.sourceforge.net/DTD/sodipodi-0.dtd" xmlns:cc="http://creativecommons.org/ns#"
	 xmlns="http://www.w3.org/2000/svg" xmlns:xlink="http://www.w3.org/1999/xlink" x="0px" y="0px" width="44.637px"
	 height="44.637px" viewBox="0 0 44.637 44.637" enable-background="new 0 0 44.637 44.637" xml:space="preserve">
<g>
	<path d="M24.87,30.826c1.217,0.554,2.604,0.543,4.018-0.026c2.075-0.837,3.771-3.33,3.013-6.056
		c-0.423-1.52-1.346-2.575-2.847-3.25v7.828h-6.071C23.516,29.982,24.156,30.502,24.87,30.826z"/>
	<path d="M22.465,3.176C11.892,3.176,3.32,11.747,3.32,22.32c0,10.573,8.571,19.146,19.146,19.146S41.61,32.895,41.61,22.321
		C41.61,11.748,33.039,3.176,22.465,3.176z M35.563,32.568c-1.742,2.263-4.499,3.884-7.193,4.231
		c-0.514,0.065-1.021,0.098-1.519,0.098c-4.782,0-8.782-2.971-10.229-7.572H9.941V10.328h19.113v5.216
		c4.323,0.92,7.5,3.94,8.442,8.169C38.192,26.847,37.487,30.074,35.563,32.568z"/>
	<path d="M29.054,17.597v1.76c2.507,0.87,4.115,2.491,4.773,4.853c1.056,3.805-1.304,7.282-4.19,8.444
		c-0.963,0.391-1.927,0.583-2.865,0.583c-0.941,0-1.86-0.194-2.729-0.59c-1.425-0.646-2.632-1.827-3.454-3.323h-1.863
		c1.612,4.195,5.715,5.967,9.386,5.49c2.188-0.28,4.438-1.609,5.866-3.468c1.562-2.021,2.132-4.646,1.565-7.198
		C34.797,20.801,32.418,18.446,29.054,17.597z"/>
	<path d="M-0.1,0V44.73h44.737V0H-0.1z M22.32,43.138c-11.498,0-20.812-9.322-20.812-20.818C1.501,10.823,10.821,1.5,22.32,1.5
		c11.496,0,20.816,9.323,20.816,20.812C43.136,33.815,33.816,43.138,22.32,43.138z"/>
	<path d="M24.78,21.961c0-1.488-0.602-2.839-1.568-3.825v-3.178h-0.002c0-1.519-1.234-2.755-2.754-2.755h-2.38
		c-1.521,0-2.755,1.237-2.755,2.755v3.283c-0.91,0.976-1.474,2.282-1.474,3.72c0,3.016,2.453,5.465,5.468,5.465
		C22.328,27.426,24.778,24.977,24.78,21.961z M17.458,14.96c0-0.341,0.278-0.619,0.618-0.619h2.381c0.34,0,0.616,0.277,0.616,0.619
		v1.841h-0.001c-0.553-0.191-1.142-0.304-1.759-0.304c-0.653,0-1.274,0.126-1.855,0.338V14.96z"/>
</g>
</svg>
