<?xml version="1.0" encoding="utf-8"?>
<!-- Generator: Adobe Illustrator 15.1.0, SVG Export Plug-In . SVG Version: 6.00 Build 0)  -->
<!DOCTYPE svg PUBLIC "-//W3C//DTD SVG 1.1//EN" "http://www.w3.org/Graphics/SVG/1.1/DTD/svg11.dtd">
<svg version="1.1"
	 id="Layer_1" xmlns:dc="http://purl.org/dc/elements/1.1/" xmlns:cc="http://creativecommons.org/ns#" xmlns:svg="http://www.w3.org/2000/svg" xmlns:rdf="http://www.w3.org/1999/02/22-rdf-syntax-ns#" xmlns:sodipodi="http://sodipodi.sourceforge.net/DTD/sodipodi-0.dtd" xmlns:inkscape="http://www.inkscape.org/namespaces/inkscape" inkscape:version="0.48.2 r9819" sodipodi:docname="ecobee.svg"
	 xmlns="http://www.w3.org/2000/svg" xmlns:xlink="http://www.w3.org/1999/xlink" x="0px" y="0px" width="44.637px"
	 height="44.637px" viewBox="0 0 44.637 44.637" enable-background="new 0 0 44.637 44.637" xml:space="preserve">
<g>
	<path d="M31.522,15.011H13.834v3.861h-2.082v2.172h2.082v9.941h17.688v-9.941h2.156v-2.172h-2.156V15.011z M20.247,21.045h4.787
		v1.802h-4.787V21.045z M16.537,16.834h1.933v4.211h-1.933V16.834z M26.99,28.53h-8.548v-2.942h8.548V28.53z M28.797,21.045h-1.933
		v-4.211h1.933V21.045z"/>
	<path d="M22.465,3.176c-10.574,0-19.146,8.571-19.146,19.145c0,10.572,8.572,19.144,19.146,19.144s19.144-8.57,19.145-19.144
		C41.61,11.747,33.039,3.176,22.465,3.176z M35.383,22.996h-2.027v9.796H12.152v-9.531H10.05v-6.427h2.028v-3.832h21.278v3.832
		h2.027V22.996z"/>
	<path d="M0,0v44.637h44.637V0H0z M22.32,43.139C10.821,43.139,1.5,33.817,1.5,22.321C1.5,10.823,10.821,1.5,22.32,1.5
		c11.496,0,20.816,9.323,20.816,20.819C43.136,33.817,33.816,43.139,22.32,43.139z"/>
</g>
</svg>
