<?xml version="1.0" encoding="utf-8"?>
<!-- Generator: Adobe Illustrator 15.1.0, SVG Export Plug-In . SVG Version: 6.00 Build 0)  -->
<!DOCTYPE svg PUBLIC "-//W3C//DTD SVG 1.1//EN" "http://www.w3.org/Graphics/SVG/1.1/DTD/svg11.dtd">
<svg version="1.1"
	 id="Layer_1" sodipodi:docname="ecobee.svg" inkscape:version="0.48.2 r9819" xmlns:svg="http://www.w3.org/2000/svg" xmlns:rdf="http://www.w3.org/1999/02/22-rdf-syntax-ns#" xmlns:inkscape="http://www.inkscape.org/namespaces/inkscape" xmlns:cc="http://creativecommons.org/ns#" xmlns:dc="http://purl.org/dc/elements/1.1/" xmlns:sodipodi="http://sodipodi.sourceforge.net/DTD/sodipodi-0.dtd"
	 xmlns="http://www.w3.org/2000/svg" xmlns:xlink="http://www.w3.org/1999/xlink" x="0px" y="0px" width="44.637px"
	 height="44.637px" viewBox="0 0 44.637 44.637" enable-background="new 0 0 44.637 44.637" xml:space="preserve">
<g>
	<path fill="#231F20" d="M31.977,20.978c-2.426-0.788-4.72-1.187-6.825-1.187c-4.604,0-7.153,1.908-8.047,2.742
		c0.206,0.004,0.428,0.007,0.667,0.007c4.143,0,12.41-0.669,13.178-0.996C31.391,21.357,31.741,21.143,31.977,20.978z"/>
	<ellipse fill="#231F20" cx="32.018" cy="26.591" rx="1.765" ry="1.642"/>
	<ellipse fill="#231F20" cx="11.791" cy="26.591" rx="1.764" ry="1.642"/>
	<path fill="#231F20" d="M22.465,3.176C11.892,3.176,3.32,11.747,3.32,22.32c0,10.573,8.571,19.146,19.146,19.146
		S41.61,32.895,41.61,22.321C41.61,11.748,33.039,3.176,22.465,3.176z M37.643,19.338c0.317,0.918,0.564,2.418,0,2.922
		c0,0,0.744,0.607,0.336,2.298c-0.406,1.696-0.9,1.907-0.9,1.907s-0.646,0.609-2.537,0.901c-0.374,0.925-1.387,1.586-2.578,1.586
		c-0.998,0-1.842-0.426-2.32-1.118c-0.02-0.046-0.391-0.557-4.136-0.487c-3.881,0.071-8.966,0.106-8.966,0.106
		s-1.75,0.352-2.216,0.352c-0.442,0.797-1.356,1.147-2.441,1.147c-1.069,0-1.994-0.534-2.444-1.312
		c-0.403-0.067-1.473-0.287-1.473-0.717c0-0.479-1.699-2.022-1.325-3.852c0.041-0.195,0.104-0.393,0.196-0.594
		c0.926-2.023,4.092-4.241,9.259-4.265c2.978-1.655,6.185-2.495,9.547-2.495c5.447,0,9.436,2.254,9.475,2.276
		c0.127,0.095,0.246,0.188,0.355,0.28C36.174,18.39,37.417,18.684,37.643,19.338z"/>
	<path fill="#231F20" d="M34.85,18.406c-0.015-0.005-3.896-2.196-9.205-2.196c-3.803,0-7.403,1.1-10.69,3.27
		c-0.111,0.177-0.573,0.994-0.295,1.94c0.21,0.484,0.665,0.591,1.008,0.591c0.076,0,0.14-0.004,0.186-0.011
		c0.47-0.491,3.462-3.38,8.979-3.474c5.629-0.1,10.105,1.788,10.917,2.151c0.122-0.096,0.321-0.296,0.341-0.59
		C36.121,19.615,35.692,19.032,34.85,18.406z"/>
	<path fill="#231F20" d="M-0.1,0v44.734h44.737V0H-0.1z M22.32,43.138c-11.498,0-20.816-9.322-20.816-20.818
		C1.501,10.823,10.821,1.5,22.32,1.5c11.496,0,20.816,9.323,20.816,20.817C43.136,33.815,33.816,43.138,22.32,43.138z"/>
</g>
</svg>
