<?xml version="1.0" encoding="utf-8"?>
<!-- Generator: Adobe Illustrator 15.1.0, SVG Export Plug-In . SVG Version: 6.00 Build 0)  -->
<!DOCTYPE svg PUBLIC "-//W3C//DTD SVG 1.1//EN" "http://www.w3.org/Graphics/SVG/1.1/DTD/svg11.dtd">
<svg version="1.1"
	 id="Layer_1" inkscape:version="0.48.2 r9819" sodipodi:docname="ecobee.svg" xmlns:inkscape="http://www.inkscape.org/namespaces/inkscape" xmlns:sodipodi="http://sodipodi.sourceforge.net/DTD/sodipodi-0.dtd" xmlns:rdf="http://www.w3.org/1999/02/22-rdf-syntax-ns#" xmlns:svg="http://www.w3.org/2000/svg" xmlns:cc="http://creativecommons.org/ns#" xmlns:dc="http://purl.org/dc/elements/1.1/"
	 xmlns="http://www.w3.org/2000/svg" xmlns:xlink="http://www.w3.org/1999/xlink" x="0px" y="0px" width="44.637px"
	 height="44.637px" viewBox="0 0 44.637 44.637" enable-background="new 0 0 44.637 44.637" xml:space="preserve">
<g>
	<path d="M31.977,20.978c-2.426-0.788-4.72-1.187-6.825-1.187c-4.604,0-7.152,1.908-8.047,2.742
		c0.206,0.004,0.429,0.007,0.667,0.007c4.144,0,12.41-0.669,13.179-0.996C31.391,21.357,31.741,21.143,31.977,20.978z"/>
	<ellipse cx="32.018" cy="26.591" rx="1.766" ry="1.642"/>
	<ellipse cx="11.791" cy="26.591" rx="1.764" ry="1.642"/>
	<path d="M22.465,3.176C11.892,3.176,3.32,11.747,3.32,22.32c0,10.573,8.571,19.146,19.146,19.146S41.61,32.895,41.61,22.321
		C41.61,11.748,33.039,3.176,22.465,3.176z M37.643,19.338c0.317,0.918,0.564,2.418,0,2.922c0,0,0.744,0.607,0.336,2.298
		c-0.405,1.696-0.899,1.907-0.899,1.907s-0.646,0.609-2.537,0.901c-0.374,0.925-1.387,1.586-2.578,1.586
		c-0.998,0-1.842-0.427-2.32-1.118c-0.02-0.046-0.391-0.558-4.136-0.487c-3.881,0.071-8.966,0.106-8.966,0.106
		s-1.75,0.352-2.216,0.352c-0.442,0.797-1.356,1.147-2.441,1.147c-1.069,0-1.994-0.534-2.444-1.312
		c-0.402-0.066-1.473-0.287-1.473-0.717c0-0.479-1.699-2.022-1.325-3.853c0.041-0.194,0.104-0.393,0.196-0.594
		c0.926-2.022,4.092-4.241,9.259-4.265c2.979-1.655,6.186-2.495,9.547-2.495c5.447,0,9.437,2.254,9.476,2.276
		c0.127,0.095,0.246,0.188,0.354,0.279C36.174,18.39,37.417,18.684,37.643,19.338z"/>
	<path d="M34.85,18.406c-0.015-0.006-3.896-2.196-9.205-2.196c-3.803,0-7.402,1.1-10.689,3.27c-0.111,0.178-0.573,0.994-0.295,1.94
		c0.21,0.483,0.665,0.591,1.008,0.591c0.076,0,0.14-0.004,0.186-0.011c0.471-0.491,3.462-3.38,8.979-3.475
		c5.629-0.1,10.104,1.788,10.917,2.151c0.122-0.096,0.32-0.296,0.341-0.59C36.121,19.615,35.692,19.032,34.85,18.406z"/>
	<path d="M-0.1,0v44.733h44.737V0H-0.1z M22.32,43.138c-11.497,0-20.815-9.322-20.815-20.818C1.501,10.823,10.821,1.5,22.32,1.5
		c11.496,0,20.816,9.323,20.816,20.816C43.136,33.815,33.816,43.138,22.32,43.138z"/>
</g>
</svg>
