<?xml version="1.0" encoding="utf-8"?>
<!-- Generator: Adobe Illustrator 15.1.0, SVG Export Plug-In . SVG Version: 6.00 Build 0)  -->
<!DOCTYPE svg PUBLIC "-//W3C//DTD SVG 1.1//EN" "http://www.w3.org/Graphics/SVG/1.1/DTD/svg11.dtd">
<svg version="1.1"
	 id="Layer_1" inkscape:version="0.48.1 r9760" xmlns:rdf="http://www.w3.org/1999/02/22-rdf-syntax-ns#" sodipodi:docname="insteon_LED.svg" xmlns:cc="http://creativecommons.org/ns#" xmlns:inkscape="http://www.inkscape.org/namespaces/inkscape" xmlns:svg="http://www.w3.org/2000/svg" xmlns:dc="http://purl.org/dc/elements/1.1/" xmlns:sodipodi="http://sodipodi.sourceforge.net/DTD/sodipodi-0.dtd"
	 xmlns="http://www.w3.org/2000/svg" xmlns:xlink="http://www.w3.org/1999/xlink" x="0px" y="0px" width="44.637px"
	 height="44.637px" viewBox="0 0 44.637 44.637" enable-background="new 0 0 44.637 44.637" xml:space="preserve">
<sodipodi:namedview  id="namedview11726" bordercolor="#666666" pagecolor="#ffffff" borderopacity="1" inkscape:pageopacity="0" inkscape:pageshadow="2" inkscape:zoom="21.013957" inkscape:cx="22.318501" inkscape:cy="22.318501" inkscape:current-layer="Layer_1" showgrid="false" inkscape:window-width="1910" inkscape:window-height="1156" inkscape:window-x="0" inkscape:window-y="0" inkscape:window-maximized="0" guidetolerance="10" objecttolerance="10" gridtolerance="10">
	</sodipodi:namedview>
<g id="g11706">
	<g id="g11708">
	</g>
	<g id="g11712">
	</g>
	<g id="g11716">
	</g>
	<g id="g11720">
	</g>
</g>
<g id="Livello_1_2_">
</g>
<g>
	<path d="M0-0.094V44.64h44.637V-0.094H0z M22.32,43.067c-11.498,0-20.812-9.312-20.812-20.812S10.82,1.434,22.32,1.434
		c11.496,0,20.816,9.321,20.816,20.821C43.136,33.749,33.816,43.07,22.32,43.067z"/>
	<path d="M22.145,11.044c-4.644,0-8.408,3.765-8.408,8.408c0,4.171,3.046,7.635,7.035,8.291v-5.741h-3.476l4.849-6.855l5.011,6.879
		h-3.483v5.688c3.916-0.718,6.884-4.145,6.884-8.262C30.556,14.809,26.792,11.044,22.145,11.044z"/>
	<path d="M22.465,3.108c-10.573,0-19.146,8.572-19.146,19.146c0,10.562,8.573,19.143,19.146,19.143
		c10.577,0,19.144-8.568,19.145-19.143C41.61,11.679,33.039,3.108,22.465,3.108z M30.524,26.491c0,0-6.637,8.986-7.404,10.171
		c-0.698,1.065-1.715,0-1.715,0L13.77,26.491c-1.602-1.903-2.567-4.357-2.567-7.041c0-6.044,4.899-10.943,10.943-10.943
		c6.046,0,10.948,4.899,10.948,10.943C33.093,22.134,32.127,24.588,30.524,26.491z"/>
</g>
</svg>
