<?xml version="1.0" encoding="utf-8"?>
<!-- Generator: Adobe Illustrator 15.1.0, SVG Export Plug-In . SVG Version: 6.00 Build 0)  -->
<!DOCTYPE svg PUBLIC "-//W3C//DTD SVG 1.1//EN" "http://www.w3.org/Graphics/SVG/1.1/DTD/svg11.dtd">
<svg version="1.1"
	 id="Layer_1" inkscape:version="0.48.1 r9760" xmlns:rdf="http://www.w3.org/1999/02/22-rdf-syntax-ns#" sodipodi:docname="insteon_LED.svg" xmlns:cc="http://creativecommons.org/ns#" xmlns:inkscape="http://www.inkscape.org/namespaces/inkscape" xmlns:svg="http://www.w3.org/2000/svg" xmlns:dc="http://purl.org/dc/elements/1.1/" xmlns:sodipodi="http://sodipodi.sourceforge.net/DTD/sodipodi-0.dtd"
	 xmlns="http://www.w3.org/2000/svg" xmlns:xlink="http://www.w3.org/1999/xlink" x="0px" y="0px" width="44.637px"
	 height="44.637px" viewBox="0 0 44.637 44.637" enable-background="new 0 0 44.637 44.637" xml:space="preserve">
<sodipodi:namedview  id="namedview11726" bordercolor="#666666" pagecolor="#ffffff" borderopacity="1" inkscape:pageopacity="0" inkscape:pageshadow="2" inkscape:zoom="21.013957" inkscape:cx="22.318501" inkscape:cy="22.318501" inkscape:current-layer="Layer_1" showgrid="false" inkscape:window-width="1910" inkscape:window-height="1156" inkscape:window-x="0" inkscape:window-y="0" inkscape:window-maximized="0" guidetolerance="10" objecttolerance="10" gridtolerance="10">
	</sodipodi:namedview>
<g id="g11706">
	<g id="g11708">
	</g>
	<g id="g11712">
	</g>
	<g id="g11716">
	</g>
	<g id="g11720">
	</g>
</g>
<g id="Livello_1_2_">
</g>
<g>
	<path d="M0-0.094V44.64h44.637V-0.094H0z M22.32,43.067c-11.498,0-20.812-9.312-20.812-20.812S10.82,1.434,22.32,1.434
		c11.496,0,20.816,9.321,20.816,20.821C43.136,33.749,33.816,43.07,22.32,43.067z"/>
	<path d="M12.108,16.505v3.896l0.201,0.024c0.11,0.014,0.221,0.029,0.331,0.046l0.282,0.046c0.108,0.019,0.217,0.039,0.326,0.061
		l0.277,0.058c0.107,0.024,0.214,0.05,0.321,0.076l0.273,0.071c0.104,0.028,0.209,0.059,0.314,0.089l0.269,0.083
		c0.104,0.033,0.208,0.067,0.311,0.104c0.086,0.03,0.174,0.061,0.263,0.094c0.101,0.037,0.202,0.077,0.304,0.118l0.255,0.104
		c0.102,0.043,0.201,0.088,0.301,0.133c0.082,0.036,0.166,0.074,0.248,0.113c0.1,0.048,0.198,0.098,0.296,0.147l0.24,0.123
		c0.098,0.053,0.194,0.107,0.291,0.162l0.232,0.132c0.096,0.057,0.19,0.115,0.285,0.174l0.223,0.14
		c0.079,0.051,0.159,0.105,0.237,0.16c0.117,0.079,0.188,0.127,0.258,0.178c0.077,0.054,0.158,0.115,0.238,0.176l0.238,0.178
		c0.102,0.079,0.201,0.162,0.299,0.246l0.161,0.129c0.112,0.097,0.218,0.192,0.324,0.29c0.07,0.062,0.1,0.088,0.129,0.116
		c0.284,0.263,0.568,0.55,0.837,0.847l0.084,0.097c0.106,0.119,0.209,0.236,0.31,0.357l0.121,0.151
		c0.084,0.104,0.169,0.21,0.251,0.317c0.033,0.042,0.065,0.088,0.099,0.135l0.037,0.052c0.072,0.098,0.146,0.196,0.217,0.298
		l0.202,0.302c0.045,0.067,0.089,0.134,0.132,0.202l0.177,0.291c0.045,0.074,0.091,0.149,0.134,0.225l0.125,0.225
		c0.057,0.104,0.111,0.204,0.164,0.307c0.041,0.075,0.081,0.156,0.12,0.237c0.05,0.1,0.1,0.201,0.148,0.306
		c0.034,0.069,0.066,0.144,0.1,0.219l-0.199,0.168l0.229-0.102c0.04,0.09,0.079,0.18,0.117,0.271l0.084,0.209
		c0.057,0.143,0.093,0.242,0.13,0.343c0.039,0.103,0.069,0.193,0.1,0.284c0.035,0.101,0.07,0.207,0.104,0.314l0.081,0.268
		c0.036,0.128,0.064,0.227,0.091,0.327c0.021,0.075,0.042,0.158,0.062,0.239c0.034,0.145,0.061,0.253,0.084,0.361l0.167,0.905
		c0.018,0.108,0.034,0.221,0.047,0.333c0.009,0.066,0.019,0.139,0.026,0.212h3.429C27.042,24.03,20.427,17.147,12.108,16.505z"/>
	<path d="M17.579,11.703h-3.296c-0.05,0-0.099-0.002-0.148-0.004l-0.125-0.006c-0.015,0-0.029,0-0.044,0.003
		c-1.058,0.165-1.858,1.171-1.858,2.34l0.027,1.212c0.138,0.01,0.277,0.021,0.416,0.035c0.15,0.015,0.299,0.032,0.447,0.051
		c0.135,0.017,0.271,0.034,0.406,0.053c0.15,0.022,0.297,0.048,0.445,0.074c0.134,0.023,0.267,0.046,0.399,0.073
		c0.147,0.029,0.293,0.062,0.438,0.094c0.162,0.037,0.277,0.063,0.392,0.092c0.14,0.035,0.278,0.073,0.418,0.111
		c0.143,0.04,0.271,0.076,0.397,0.114c0.144,0.043,0.287,0.09,0.429,0.138l0.075,0.024c0.099,0.033,0.199,0.065,0.297,0.101
		c0.132,0.047,0.262,0.097,0.393,0.147l0.123,0.047c0.09,0.034,0.18,0.069,0.268,0.105c0.141,0.058,0.279,0.119,0.417,0.181
		l0.062,0.027c0.096,0.042,0.192,0.084,0.287,0.128c0.127,0.06,0.252,0.122,0.378,0.185l0.121,0.061
		c0.084,0.041,0.168,0.083,0.25,0.126c0.122,0.064,0.243,0.132,0.364,0.2l0.107,0.06c0.085,0.047,0.172,0.095,0.257,0.145
		c0.103,0.06,0.204,0.124,0.306,0.187l0.401,0.25c0.119,0.078,0.234,0.158,0.349,0.237l0.339,0.233
		c0.114,0.082,0.226,0.167,0.336,0.252l0.165,0.125c0.056,0.042,0.111,0.083,0.166,0.126c0.116,0.092,0.23,0.188,0.345,0.284
		l0.139,0.115c0.053,0.044,0.106,0.087,0.159,0.133c0.152,0.132,0.301,0.269,0.451,0.407l0.168,0.153
		c0.403,0.382,0.796,0.789,1.164,1.208l0.099,0.115c0.151,0.175,0.3,0.349,0.441,0.526c0.036,0.044,0.072,0.092,0.109,0.14
		l0.129,0.167c0.093,0.119,0.186,0.238,0.274,0.36c0.043,0.059,0.086,0.121,0.13,0.183l0.098,0.14
		c0.086,0.121,0.172,0.242,0.255,0.368l0.261,0.405c0.065,0.102,0.13,0.203,0.192,0.307l0.181,0.311
		c0.082,0.142,0.164,0.281,0.241,0.423l0.391,0.755c0.04,0.081,0.076,0.161,0.113,0.242l0.048,0.106
		c0.066,0.142,0.133,0.284,0.195,0.428l0.497,1.271c0.039,0.11,0.079,0.222,0.117,0.333l0.119,0.385
		c0.055,0.18,0.096,0.312,0.133,0.447c0.037,0.129,0.07,0.26,0.104,0.394l0.037,0.147c0.026,0.101,0.052,0.2,0.075,0.303
		l0.086,0.401c0.033,0.152,0.064,0.306,0.093,0.458c0.024,0.137,0.048,0.273,0.069,0.41l0.071,0.464
		c0.018,0.139,0.034,0.276,0.05,0.415c0.019,0.156,0.035,0.313,0.049,0.472c0.014,0.137,0.023,0.279,0.033,0.421l0.004,0.047h2.171
		c1.283,0,2.289-1.022,2.289-2.328v-1.645C31.247,20.575,25.202,14.068,17.579,11.703z"/>
	<path d="M31.256,12.17c0.271,0.254,0.541,0.513,0.805,0.78c0.278,0.281,0.529,0.545,0.778,0.814l0.229,0.251
		c0.086,0.094,0.17,0.188,0.254,0.283l-0.029-1.224c-0.09-0.294-0.235-0.549-0.433-0.758c-0.175-0.165-0.396-0.312-0.63-0.416
		c-0.076-0.03-0.476-0.135-0.628-0.175l-0.08-0.022h-0.775c0.096,0.086,0.191,0.173,0.288,0.261L31.256,12.17z"/>
	<path d="M22.465,3.108c-10.573,0-19.146,8.572-19.146,19.146c0,10.562,8.573,19.143,19.146,19.143
		c10.577,0,19.144-8.567,19.145-19.143C41.61,11.679,33.039,3.108,22.465,3.108z M34.625,30.344c0,1.979-1.592,3.588-3.549,3.588
		H14.231c-0.766,0-1.494-0.238-2.112-0.69l-0.072-0.001l-0.034-0.066h-0.095l-0.03-0.114c-0.005-0.004-0.01-0.009-0.015-0.013
		c-0.019-0.017-0.066-0.063-0.078-0.075c-0.364-0.399-0.628-0.867-0.788-1.394c-0.037-0.125-0.059-0.216-0.079-0.308l-0.013-0.065
		c-0.021-0.11-0.031-0.185-0.04-0.259l-0.007-0.066l0.239-0.107l-0.248,0.032c-0.008-0.093-0.011-0.161-0.012-0.228l-0.038-0.061
		l0.037-0.072V14.036c0-1.785,1.259-3.327,2.928-3.586c0.131-0.019,0.264-0.018,0.399-0.011c0.038,0.002,0.073,0.004,0.108,0.004
		h14.589c0.169-0.012,0.195-0.011,0.27,0.005l2.462-0.005c0.058,0,0.115,0.008,0.171,0.023l0.153,0.042
		c0.502,0.133,0.699,0.191,0.81,0.239c0.368,0.162,0.709,0.39,1.015,0.679c0.378,0.401,0.636,0.865,0.776,1.389
		c0.01,0.036,0.022,0.091,0.022,0.154l0.074,3.048c0.016,0.051,0.016,0.147-0.006,0.245L34.625,30.344z"/>
	<path d="M28.806,11.704l-7.78-0.001c0.001,0,0.001,0.001,0.002,0.001l0.178,0.086c0.379,0.184,0.718,0.357,1.052,0.54l0.067,0.039
		c0.322,0.177,0.637,0.363,0.949,0.555l0.181,0.11c0.316,0.198,0.628,0.404,0.938,0.618c0.061,0.042,0.121,0.085,0.18,0.128
		c0.306,0.215,0.61,0.438,0.908,0.67c0.332,0.259,0.63,0.505,0.924,0.757l0.127,0.111c0.328,0.285,0.608,0.541,0.882,0.803
		l0.13,0.127c0.258,0.25,0.513,0.506,0.761,0.77l0.091,0.093c0.261,0.28,0.516,0.567,0.765,0.858l0.151,0.18
		c0.247,0.293,0.49,0.592,0.724,0.898l0.079,0.107c0.216,0.283,0.429,0.578,0.637,0.878l0.11,0.157
		c0.216,0.315,0.423,0.637,0.626,0.963l0.121,0.199c0.205,0.337,0.403,0.677,0.595,1.022c0.197,0.364,0.375,0.712,0.547,1.063
		l0.028,0.058c0.025,0.052,0.052,0.104,0.075,0.157c0.164,0.34,0.324,0.693,0.476,1.048l0.038,0.093v-8.493
		C31.989,14.583,30.415,12.996,28.806,11.704z"/>
</g>
</svg>
