<?xml version="1.0" encoding="utf-8"?>
<!-- Generator: Adobe Illustrator 15.1.0, SVG Export Plug-In . SVG Version: 6.00 Build 0)  -->
<!DOCTYPE svg PUBLIC "-//W3C//DTD SVG 1.1//EN" "http://www.w3.org/Graphics/SVG/1.1/DTD/svg11.dtd">
<svg version="1.1"
	 id="Layer_1" inkscape:version="0.48.2 r9819" sodipodi:docname="ecobee.svg" xmlns:svg="http://www.w3.org/2000/svg" xmlns:inkscape="http://www.inkscape.org/namespaces/inkscape" xmlns:cc="http://creativecommons.org/ns#" xmlns:dc="http://purl.org/dc/elements/1.1/" xmlns:sodipodi="http://sodipodi.sourceforge.net/DTD/sodipodi-0.dtd" xmlns:rdf="http://www.w3.org/1999/02/22-rdf-syntax-ns#"
	 xmlns="http://www.w3.org/2000/svg" xmlns:xlink="http://www.w3.org/1999/xlink" x="0px" y="0px" width="44.637px"
	 height="44.637px" viewBox="0 0 44.637 44.637" enable-background="new 0 0 44.637 44.637" xml:space="preserve">
<sodipodi:namedview  fit-margin-top="0" fit-margin-left="0" fit-margin-right="0" fit-margin-bottom="0" inkscape:window-height="480" inkscape:window-maximized="0" showgrid="false" borderopacity="1" inkscape:current-layer="Layer_1" bordercolor="#666666" inkscape:cx="22.148" objecttolerance="10" inkscape:cy="22.631" inkscape:pageshadow="2" inkscape:pageopacity="0" inkscape:zoom="0.18209877" guidetolerance="10" inkscape:window-y="0" inkscape:window-x="0" inkscape:window-width="640" id="namedview9" pagecolor="#ffffff" gridtolerance="10">
	</sodipodi:namedview>
<g>
	<path d="M22.268,36.453c-3.823,0-6.499-1.484-6.755-1.637H8.055c3.511,4.062,8.689,6.646,14.479,6.646
		c6.028,0,11.402-2.797,14.915-7.157h-7.446C27.198,35.933,24.532,36.453,22.268,36.453z"/>
	<path d="M22.303,6.159c-0.319,0-0.538,0.238-0.6,0.488h1.177C22.829,6.403,22.656,6.159,22.303,6.159z"/>
	<path d="M22.534,3.175c-10.574,0-19.146,8.571-19.146,19.145c0,4.705,1.705,9.012,4.521,12.345h7.646l0.021,0.012
		c0.062,0.04,6.689,3.947,14.362-0.516l0.021-0.015h7.605c2.565-3.257,4.109-7.354,4.109-11.826
		C41.679,11.746,33.107,3.175,22.534,3.175z M19.183,6.716c0-0.549,0.448-0.996,0.997-0.996s0.995,0.447,0.995,0.996v0.139
		c0.04-0.648,0.514-1.135,1.131-1.135c0.506,0,0.883,0.312,1.026,0.804c-0.008-0.045-0.019-0.091-0.019-0.132
		c0-0.39,0.312-0.672,0.729-0.672h0.906V5.193h0.45V5.72h0.366v0.447H25.4v1.27c0,0.156,0.127,0.284,0.281,0.284v0.45
		c-0.402,0-0.729-0.33-0.729-0.734v-1.27h-0.906c-0.128,0-0.232,0.087-0.232,0.203c0,0.132,0.101,0.193,0.297,0.288
		c0.041,0.02,0.074,0.031,0.109,0.051l0.003,0.002c0.031,0.015,0.064,0.029,0.104,0.047c0.307,0.142,0.477,0.38,0.477,0.671
		c0,0.488-0.405,0.742-0.803,0.742c-0.349,0-0.623-0.175-0.771-0.479c-0.188,0.262-0.524,0.479-0.911,0.479
		c-0.627,0-1.104-0.484-1.146-1.139V8.14H20.72V6.716c0-0.298-0.243-0.54-0.54-0.54c-0.298,0-0.539,0.242-0.539,0.54v1.428h-0.458
		V6.716L19.183,6.716z M15.874,27.758l-2.938,2.466c-4.253-5.064-3.588-12.686,1.481-16.938c2.22-1.862,4.929-2.782,7.629-2.805
		v3.82c-1.821,0.023-3.647,0.654-5.16,1.923C13.409,19.146,12.956,24.281,15.874,27.758z M23.081,28.541
		c-0.188,0.416-0.236,1.02-0.604,1.309c-0.625,0.398-0.941,0.201-1.251,0.072c-0.136-0.062-0.188-0.125-0.113-0.246
		c0.424-0.904,0.729-1.768,1.786-1.646c-0.85-0.104-1.135,0.062-1.975,1.254c-0.123,0.229-0.172,0.181-0.218,0.116
		c-0.028-0.768,0.228-1.334,0.708-1.737c1.021-0.707,2.017-0.275,2.652,0.062C23.473,28.08,23.217,28.237,23.081,28.541z
		 M31.356,30.224l-2.938-2.466c2.608-3.11,2.608-7.408,0-10.521c-1.426-1.695-3.38-2.669-5.412-2.883v-3.831
		c3.135,0.229,6.18,1.658,8.35,4.244C35.119,19.25,35.119,25.741,31.356,30.224z"/>
	<path d="M0,0v44.734h44.637V0H0z M22.39,43.136c-11.499,0-20.82-9.32-20.82-20.816C1.57,10.821,10.891,1.5,22.39,1.5
		c11.495,0,20.817,9.317,20.817,20.815S33.886,43.136,22.39,43.136z"/>
	<path d="M22.327,7.723c0.23,0,0.436-0.154,0.531-0.321h0.367h0.396l0.028,0.07c0.022,0.057,0.121,0.243,0.335,0.243
		c0.196,0,0.314-0.092,0.314-0.247c0-0.117-0.075-0.218-0.202-0.273c-0.136-0.059-0.265-0.116-0.353-0.156
		c-0.237-0.112-0.353-0.271-0.397-0.42c0.025,0.113,0.039,0.24,0.039,0.38v0.067H21.66C21.694,7.392,21.905,7.723,22.327,7.723z"/>
</g>
</svg>
