<?xml version="1.0" encoding="utf-8"?>
<!-- Generator: Adobe Illustrator 15.1.0, SVG Export Plug-In . SVG Version: 6.00 Build 0)  -->
<!DOCTYPE svg PUBLIC "-//W3C//DTD SVG 1.1//EN" "http://www.w3.org/Graphics/SVG/1.1/DTD/svg11.dtd">
<svg version="1.1"
	 id="Layer_1" inkscape:version="0.48.2 r9819" sodipodi:docname="ecobee.svg" xmlns:svg="http://www.w3.org/2000/svg" xmlns:inkscape="http://www.inkscape.org/namespaces/inkscape" xmlns:cc="http://creativecommons.org/ns#" xmlns:dc="http://purl.org/dc/elements/1.1/" xmlns:sodipodi="http://sodipodi.sourceforge.net/DTD/sodipodi-0.dtd" xmlns:rdf="http://www.w3.org/1999/02/22-rdf-syntax-ns#"
	 xmlns="http://www.w3.org/2000/svg" xmlns:xlink="http://www.w3.org/1999/xlink" x="0px" y="0px" width="44.637px"
	 height="44.637px" viewBox="0 0 44.637 44.637" enable-background="new 0 0 44.637 44.637" xml:space="preserve">
<g>
	<path d="M0-0.151v44.788h44.637V-0.151H0z M22.322,42.986c-11.495,0-20.816-9.316-20.816-20.812c0-11.499,9.321-20.82,20.816-20.82
		c11.494,0,20.815,9.322,20.815,20.82C43.137,33.665,33.816,42.986,22.322,42.986z"/>
	<path d="M22.465,3.025c-10.574,0-19.146,8.571-19.146,19.146c0,10.572,8.571,19.143,19.146,19.143S41.61,32.744,41.61,22.171
		C41.61,11.596,33.039,3.025,22.465,3.025z M25.379,31.059c0,1.213-0.982,2.196-2.195,2.196s-2.191-0.983-2.191-2.196V12.558
		c0-1.212,0.979-2.196,2.191-2.196s2.195,0.983,2.195,2.196V31.059z"/>
</g>
</svg>
