<?xml version="1.0" encoding="utf-8"?>
<!-- Generator: Adobe Illustrator 15.1.0, SVG Export Plug-In . SVG Version: 6.00 Build 0)  -->
<!DOCTYPE svg PUBLIC "-//W3C//DTD SVG 1.1//EN" "http://www.w3.org/Graphics/SVG/1.1/DTD/svg11.dtd">
<svg version="1.1"
	 id="Layer_1" xmlns:inkscape="http://www.inkscape.org/namespaces/inkscape" sodipodi:docname="insteon_LED.svg" xmlns:sodipodi="http://sodipodi.sourceforge.net/DTD/sodipodi-0.dtd" xmlns:svg="http://www.w3.org/2000/svg" xmlns:rdf="http://www.w3.org/1999/02/22-rdf-syntax-ns#" xmlns:cc="http://creativecommons.org/ns#" xmlns:dc="http://purl.org/dc/elements/1.1/" inkscape:version="0.48.1 r9760"
	 xmlns="http://www.w3.org/2000/svg" xmlns:xlink="http://www.w3.org/1999/xlink" x="0px" y="0px" width="44.637px"
	 height="44.637px" viewBox="0 0 44.637 44.637" enable-background="new 0 0 44.637 44.637" xml:space="preserve">
<sodipodi:namedview  id="namedview11726" inkscape:window-maximized="0" showgrid="false" pagecolor="#ffffff" borderopacity="1" inkscape:window-x="0" gridtolerance="10" guidetolerance="10" objecttolerance="10" inkscape:pageopacity="0" inkscape:pageshadow="2" inkscape:zoom="21.013957" inkscape:cx="22.318501" inkscape:cy="22.318501" inkscape:current-layer="Layer_1" inkscape:window-width="1910" inkscape:window-height="1156" inkscape:window-y="0" bordercolor="#666666">
	</sodipodi:namedview>
<g id="g11706">
	<g id="g11708">
	</g>
	<g id="g11712">
	</g>
	<g id="g11716">
	</g>
	<g id="g11720">
	</g>
</g>
<g>
	<path d="M10.027,19.127L8.46,19.143c-0.042,0.515-0.105,1.591-0.105,3.406c0,1.851,0.063,3.165,0.11,3.887h1.634
		C9.871,23.242,9.947,20.584,10.027,19.127z"/>
	<path d="M34.571,22.051h0.01l0.002,0.581l-0.003,0.072c-0.001,0.113,0,0.461,0,0.891c0,0.65,0,1.487-0.005,2.045
		c-0.019,0.293-0.041,0.556-0.07,0.797h1.422c0.058-0.179,0.128-0.501,0.159-0.843l0.029-2.835c-0.001,0-0.003-0.044-0.006-0.137
		l-0.003-0.114c-0.016-0.5-0.049-1.584-0.121-2.81c-0.011-0.175-0.022-0.353-0.034-0.532c-0.002-0.02-0.015-0.071-0.044-0.146
		c-0.236-0.01-0.68-0.021-1.505-0.03c0.005,0.039,0.009,0.072,0.011,0.1C34.49,20.26,34.541,21.372,34.571,22.051z"/>
	<path d="M33.439,22.276c-0.027-0.645-0.079-1.844-0.164-3.11c-0.003-0.036-0.014-0.101-0.03-0.184
		c-0.51-0.002-1.104-0.004-1.801-0.004c-5.929,0-15.979,0.094-20.274,0.137c-0.081,1.443-0.161,4.111,0.073,7.321h22.107
		c0.039-0.269,0.068-0.557,0.085-0.83l0.021-2.858c-0.004-0.008-0.003-0.049-0.002-0.086L33.439,22.276z M17.141,23.77
		c0,0.27-0.113,0.433-0.208,0.522c-0.165,0.155-0.361,0.184-0.525,0.184c-0.05,0-0.098-0.003-0.14-0.005l-0.122-0.005h-2.472
		c-0.548,0-0.994-0.446-0.994-0.995v-2.47c0-0.548,0.446-0.995,0.994-0.995c0.276,0,0.5,0.224,0.5,0.5s-0.224,0.5-0.5,0.5
		l0.006,2.464l2.461-0.005v-2.465c-0.276,0-0.498-0.221-0.498-0.497c0-0.276,0.227-0.498,0.503-0.498
		c0.548,0,0.995,0.446,0.995,0.995V23.77z"/>
	<path d="M22.465,3.102c-10.573,0-19.146,8.572-19.146,19.146c0,10.566,8.573,19.143,19.146,19.143
		c10.577,0,19.144-8.574,19.145-19.143C41.61,11.673,33.039,3.102,22.465,3.102z M36.781,18.203
		c0.046,0.079,0.281,0.503,0.306,0.886c0.099,1.454,0.141,2.8,0.158,3.375c0.006,0.072,0.012,0.116,0.012,0.157v0.102l-0.032,2.917
		c-0.105,1.178-0.393,1.79-0.879,1.917c-0.042,0.012-0.093,0.02-0.145,0.02h-2.726l-0.025-0.123l-0.049-0.045v0.168H7.936
		c-0.295,0-0.539-0.223-0.567-0.518c-0.006-0.067-0.154-1.682-0.154-4.51c0-2.658,0.128-3.758,0.154-3.951
		c-0.002-0.33,0.251-0.586,0.562-0.589c0.037,0,0.94-0.01,2.403-0.025l0.642-0.007c5.196-0.052,14.765-0.138,20.468-0.138
		c0.721,0,1.333,0.001,1.856,0.003l0.66,0.003c2.354,0.017,2.438,0.059,2.578,0.128C36.642,18.026,36.725,18.105,36.781,18.203z"/>
	<path d="M0,0v44.637h44.637V0H0z M22.32,43.061c-11.498,0-20.812-9.312-20.812-20.812c0-11.5,9.312-20.821,20.812-20.821
		c11.496,0,20.816,9.321,20.816,20.821C43.136,33.743,33.816,43.064,22.32,43.061z"/>
</g>
</svg>
