<?xml version="1.0" encoding="utf-8"?>
<!-- Generator: Adobe Illustrator 15.1.0, SVG Export Plug-In . SVG Version: 6.00 Build 0)  -->
<!DOCTYPE svg PUBLIC "-//W3C//DTD SVG 1.1//EN" "http://www.w3.org/Graphics/SVG/1.1/DTD/svg11.dtd">
<svg version="1.1"
	 id="Layer_1" sodipodi:docname="ecobee.svg" inkscape:version="0.48.2 r9819" xmlns:rdf="http://www.w3.org/1999/02/22-rdf-syntax-ns#" xmlns:cc="http://creativecommons.org/ns#" xmlns:dc="http://purl.org/dc/elements/1.1/" xmlns:inkscape="http://www.inkscape.org/namespaces/inkscape" xmlns:sodipodi="http://sodipodi.sourceforge.net/DTD/sodipodi-0.dtd" xmlns:svg="http://www.w3.org/2000/svg"
	 xmlns="http://www.w3.org/2000/svg" xmlns:xlink="http://www.w3.org/1999/xlink" x="0px" y="0px" width="44.637px"
	 height="44.637px" viewBox="0 0 44.637 44.637" enable-background="new 0 0 44.637 44.637" xml:space="preserve">
<title>Layer 1</title>
<g>
	<path fill="none" d="M22.32,1.5C10.821,1.5,1.501,10.823,1.508,22.32c0,11.496,9.312,20.818,20.812,20.818
		c11.496,0,20.816-9.323,20.816-20.826C43.136,10.823,33.816,1.5,22.32,1.5z M22.466,41.466c-10.575,0-19.146-8.573-19.146-19.146
		c0-10.57,8.572-19.144,19.146-19.144s19.145,8.572,19.145,19.145C41.61,32.895,33.041,41.466,22.466,41.466z"/>
	<path d="M-0.1,0V44.73h44.737V0H-0.1z M22.32,43.138c-11.498,0-20.812-9.322-20.812-20.818C1.501,10.823,10.821,1.5,22.32,1.5
		c11.496,0,20.816,9.323,20.816,20.812C43.136,33.815,33.816,43.138,22.32,43.138z"/>
</g>
<path d="M22.465,3.176C11.892,3.176,3.32,11.747,3.32,22.32c0,10.573,8.571,19.146,19.146,19.146S41.61,32.895,41.61,22.321
	C41.61,11.748,33.039,3.176,22.465,3.176z M32.155,32.249c-4.726,4.765-12.907,3.888-17.995-2.423
	c-5.089-6.312-4.549-14.715,0.505-19.127c5.052-4.414,13.019-3.409,17.792,3.144C37.202,20.358,36.293,28.075,32.155,32.249z"/>
<path d="M27.229,29.774C27.228,29.774,27.228,29.774,27.229,29.774c-2.688-0.001-5.435-1.475-7.35-3.942
	c-3.238-4.167-3.229-9.954,0.02-12.899c1.237-1.122,2.8-1.714,4.518-1.714c2.686,0,5.434,1.473,7.351,3.941
	c3.24,4.167,3.231,9.953-0.02,12.898C30.509,29.18,28.947,29.774,27.229,29.774z M24.416,12.218c-1.466,0-2.795,0.503-3.846,1.456
	c-2.87,2.602-2.826,7.781,0.098,11.544c1.728,2.226,4.18,3.555,6.559,3.556h0.001c1.466,0,2.796-0.504,3.847-1.456
	c2.872-2.603,2.828-7.781-0.098-11.545C29.248,13.547,26.795,12.218,24.416,12.218z"/>
<g>
	<path d="M29.59,23.327l-1.052-3.776l-1.124-4.81l-0.131-0.082c-0.024-0.015-0.493-0.301-1.14-0.438
		c-0.645-0.209-1.506-0.294-2.406,0.183c-0.051,0.027-0.092,0.071-0.113,0.125c-0.025,0.061-0.15,0.377-0.118,0.629
		c0.007,0.061,0.021,0.413,0.042,0.905c0.054,1.264,0.145,3.38,0.237,4.021c0.034,0.245,1.238,6.128,1.715,6.389
		c0.176,0.096,0.834,0.223,1.519,0.223c0.536,0,1.088-0.078,1.435-0.31c0.027-0.019,0.051-0.041,0.068-0.068
		c0.034-0.05,0.708-1.061,0.916-1.916C29.695,24.012,29.62,23.468,29.59,23.327z M27.885,20.001l0.977,3.502
		c0.039,0.197,0.021,0.452-0.028,0.497c-0.106,0.071-0.641,0.169-1.363,0.169c-0.221,0-0.421-0.01-0.562-0.028
		c-0.331-0.046-0.502-0.319-0.508-0.319v0.001l-1.425-3.764L27.885,20.001z M24.779,19.313c-0.168-1.94-0.308-3.979-0.29-4.178
		c0.031-0.05,0.283-0.237,0.96-0.237l0.11,0.002c0.52,0.016,0.982,0.216,1.198,0.326l0.941,4.029L24.779,19.313z"/>
</g>
</svg>
