<?xml version="1.0" encoding="utf-8"?>
<!-- Generator: Adobe Illustrator 15.1.0, SVG Export Plug-In . SVG Version: 6.00 Build 0)  -->
<!DOCTYPE svg PUBLIC "-//W3C//DTD SVG 1.1//EN" "http://www.w3.org/Graphics/SVG/1.1/DTD/svg11.dtd">
<svg version="1.1"
	 id="Layer_1" sodipodi:docname="ecobee.svg" inkscape:version="0.48.2 r9819" xmlns:rdf="http://www.w3.org/1999/02/22-rdf-syntax-ns#" xmlns:cc="http://creativecommons.org/ns#" xmlns:dc="http://purl.org/dc/elements/1.1/" xmlns:inkscape="http://www.inkscape.org/namespaces/inkscape" xmlns:sodipodi="http://sodipodi.sourceforge.net/DTD/sodipodi-0.dtd" xmlns:svg="http://www.w3.org/2000/svg"
	 xmlns="http://www.w3.org/2000/svg" xmlns:xlink="http://www.w3.org/1999/xlink" x="0px" y="0px" width="44.637px"
	 height="44.637px" viewBox="0 0 44.637 44.637" enable-background="new 0 0 44.637 44.637" xml:space="preserve">
<title>Layer 1</title>
<path fill="none" d="M22.466,41.466c-10.575,0-19.146-8.573-19.146-19.146c0-10.57,8.572-19.144,19.146-19.144
	s19.145,8.572,19.145,19.145C41.61,32.895,33.041,41.466,22.466,41.466z"/>
<g>
	<path d="M-0.1,0V44.73h44.737V0H-0.1z M22.32,43.138c-11.498,0-20.812-9.322-20.812-20.818C1.501,10.823,10.821,1.5,22.32,1.5
		c11.496,0,20.816,9.323,20.816,20.812C43.136,33.815,33.816,43.138,22.32,43.138z"/>
	<path d="M28.873,16.272c0-3.625-2.949-6.573-6.575-6.573c-3.625,0-6.574,2.949-6.574,6.573c0,2.854,1.831,5.281,4.377,6.188
		c-2.546,0.907-4.377,3.334-4.377,6.187c0,3.624,2.949,6.573,6.574,6.573c3.626,0,6.575-2.949,6.575-6.573
		c0-1.757-0.684-3.407-1.925-4.648c-0.702-0.701-1.538-1.218-2.447-1.54C27.045,21.55,28.873,19.123,28.873,16.272z M27.373,28.647
		c0,2.798-2.276,5.073-5.075,5.073c-2.798,0-5.074-2.275-5.074-5.073c0-2.797,2.277-5.072,5.076-5.072
		C25.097,23.574,27.373,25.85,27.373,28.647z M22.298,21.346c-2.798,0-5.074-2.276-5.074-5.074c0-2.797,2.276-5.073,5.074-5.073
		c2.799,0,5.075,2.276,5.075,5.073C27.373,19.07,25.097,21.346,22.298,21.346z"/>
	<circle cx="19.61" cy="16.284" r="1.396"/>
	<circle cx="24.989" cy="16.284" r="1.396"/>
	<circle cx="19.61" cy="28.684" r="1.396"/>
	<circle cx="24.989" cy="28.684" r="1.396"/>
	<path d="M22.465,3.176C11.892,3.176,3.32,11.747,3.32,22.32c0,10.573,8.571,19.146,19.146,19.146S41.61,32.895,41.61,22.321
		C41.61,11.748,33.039,3.176,22.465,3.176z M13.686,31.903c0.233,0.343,0.144,0.81-0.198,1.042c-0.129,0.088-0.276,0.13-0.421,0.13
		c-0.24,0-0.476-0.115-0.621-0.328l-1.193-1.756V13.665l1.269-1.97c0.224-0.348,0.689-0.448,1.037-0.224
		c0.348,0.224,0.449,0.688,0.224,1.037l-1.03,1.599V30.53L13.686,31.903z M30.293,34.023c0,1.393-1.129,2.521-2.521,2.521h-10.57
		c-1.393,0-2.521-1.128-2.521-2.521V10.637c0-1.392,1.128-2.52,2.521-2.52h10.57c1.392,0,2.521,1.128,2.521,2.52V34.023z
		 M33.824,30.99l-1.194,1.756c-0.146,0.213-0.381,0.328-0.621,0.328c-0.145,0-0.292-0.042-0.421-0.13
		c-0.343-0.233-0.432-0.699-0.198-1.042l0.935-1.374V14.107l-1.03-1.599c-0.225-0.348-0.125-0.812,0.224-1.037
		c0.351-0.225,0.814-0.124,1.036,0.224l1.271,1.97V30.99z"/>
</g>
</svg>
