<?xml version="1.0" encoding="utf-8"?>
<!-- Generator: Adobe Illustrator 15.1.0, SVG Export Plug-In . SVG Version: 6.00 Build 0)  -->
<!DOCTYPE svg PUBLIC "-//W3C//DTD SVG 1.1//EN" "http://www.w3.org/Graphics/SVG/1.1/DTD/svg11.dtd">
<svg version="1.1"
	 id="Layer_1" xmlns:dc="http://purl.org/dc/elements/1.1/" inkscape:version="0.48.1 r9760" xmlns:rdf="http://www.w3.org/1999/02/22-rdf-syntax-ns#" xmlns:svg="http://www.w3.org/2000/svg" xmlns:sodipodi="http://sodipodi.sourceforge.net/DTD/sodipodi-0.dtd" sodipodi:docname="insteon_LED.svg" xmlns:inkscape="http://www.inkscape.org/namespaces/inkscape" xmlns:cc="http://creativecommons.org/ns#"
	 xmlns="http://www.w3.org/2000/svg" xmlns:xlink="http://www.w3.org/1999/xlink" x="0px" y="0px" width="44.637px"
	 height="44.637px" viewBox="0 0 44.637 44.637" enable-background="new 0 0 44.637 44.637" xml:space="preserve">
<sodipodi:namedview  inkscape:window-y="0" objecttolerance="10" pagecolor="#ffffff" borderopacity="1" guidetolerance="10" inkscape:cy="22.318501" inkscape:window-x="0" inkscape:window-width="1910" inkscape:pageopacity="0" showgrid="false" inkscape:zoom="21.013957" gridtolerance="10" inkscape:window-height="1156" inkscape:pageshadow="2" inkscape:window-maximized="0" inkscape:current-layer="Layer_1" id="namedview11726" inkscape:cx="22.318501" bordercolor="#666666">
	</sodipodi:namedview>
<g id="g11706">
	<g id="g11708">
	</g>
	<g id="g11712">
	</g>
	<g id="g11716">
	</g>
	<g id="g11720">
	</g>
</g>
<g id="Livello_1_2_">
</g>
<g>
	<path fill="#020202" d="M0,0v44.637h44.637V0H0z M22.32,43.061c-11.498,0-20.812-9.312-20.812-20.812
		c0-11.5,9.312-20.821,20.812-20.821c11.496,0,20.816,9.321,20.816,20.821C43.136,33.743,33.816,43.064,22.32,43.061z"/>
	<path fill="#020202" d="M22.465,3.102c-10.573,0-19.146,8.572-19.146,19.146c0,10.566,8.573,19.143,19.146,19.143
		c10.577,0,19.144-8.574,19.145-19.143C41.61,11.673,33.039,3.102,22.465,3.102z M11.622,33.656l0.208-23.028
		c0,0,0.154-0.448,0.567-0.482c0.413-0.035,19.593,0,19.593,0s0.907-0.155,0.955,0.482c0.051,0.638,0.465,23.028,0.465,23.028
		H11.622z"/>
	<polygon fill="#020202" points="20.283,17.236 17.295,17.236 17.295,19.88 16.826,20.348 17.295,20.82 17.295,23.456 
		20.283,23.456 20.283,20.82 20.753,20.348 20.283,19.88 	"/>
	<path fill="#020202" d="M30.063,14.039H14.836c-0.174,0-0.315,0.141-0.315,0.314l-0.062,12.103c0,0.174,0.141,0.313,0.314,0.313
		h15.321c0.175,0,0.315-0.141,0.315-0.313l-0.03-12.103C30.379,14.18,30.237,14.039,30.063,14.039z M21.366,20.088l-0.259,0.259
		l0.259,0.288v3.31l-0.593,0.598h-3.966l-0.334-0.334l0.002-0.002l-0.264-0.262v-3.336l0.263-0.26l-0.263-0.26v-3.342l0.263-0.258
		l-0.001-0.002l0.334-0.334h3.966l0.26,0.263v0l0.333,0.332V20.088z M23.038,24.542h-1.083v-1.086h1.083V24.542z M28.778,20.088
		l-0.261,0.259l0.261,0.287v3.31l-0.262,0.263l0.001,0.001l-0.336,0.334h-3.963l-0.337-0.334l0.002-0.002l-0.264-0.262v-3.336
		l0.264-0.26l-0.264-0.26v-3.342l0.264-0.259l-0.001,0l0.332-0.335h3.965l0.264,0.264l0.001,0l0.334,0.331V20.088z"/>
	<polygon fill="#020202" points="27.692,17.236 24.703,17.236 24.703,19.88 24.233,20.348 24.249,20.364 24.703,20.82 
		24.703,23.456 27.692,23.456 27.692,20.82 28.159,20.348 27.692,19.88 	"/>
	<path fill="#020202" d="M23.756,28.397c-0.621,0-1.127,0.506-1.127,1.128c0,0.621,0.506,1.127,1.127,1.127
		c0.622,0,1.129-0.506,1.129-1.127C24.885,28.903,24.378,28.397,23.756,28.397z M23.756,30.152c-0.346,0-0.627-0.28-0.627-0.627
		s0.281-0.628,0.627-0.628c0.347,0,0.629,0.281,0.629,0.628C24.385,29.87,24.103,30.152,23.756,30.152z"/>
	<path fill="#020202" d="M26.39,28.397c-0.622,0-1.128,0.506-1.128,1.128c0,0.621,0.506,1.127,1.128,1.127s1.128-0.506,1.128-1.127
		C27.518,28.903,27.012,28.397,26.39,28.397z M26.39,30.152c-0.347,0-0.628-0.28-0.628-0.627s0.281-0.628,0.628-0.628
		s0.628,0.281,0.628,0.628C27.018,29.87,26.737,30.152,26.39,30.152z"/>
	<path fill="#020202" d="M29.055,28.397c-0.622,0-1.128,0.506-1.128,1.128c0,0.621,0.506,1.127,1.128,1.127
		c0.621,0,1.127-0.506,1.127-1.127C30.182,28.903,29.676,28.397,29.055,28.397z M29.055,30.152c-0.347,0-0.628-0.28-0.628-0.627
		s0.281-0.628,0.628-0.628c0.346,0,0.627,0.281,0.627,0.628C29.682,29.87,29.401,30.152,29.055,30.152z"/>
	<path fill="#020202" d="M19.909,27.399h-4.053c-0.138,0-0.25,0.112-0.25,0.25v3.373c0,0.08,0.039,0.156,0.104,0.203l1.94,1.396
		c0.043,0.03,0.096,0.047,0.146,0.047s0.102-0.017,0.145-0.046l2.111-1.498c0.066-0.047,0.105-0.123,0.105-0.204v-3.271
		C20.159,27.511,20.048,27.399,19.909,27.399z M19.659,30.789l-1.86,1.318l-1.692-1.215v-2.995h3.553V30.789z"/>
</g>
</svg>
