<?xml version="1.0" encoding="utf-8"?>
<!-- Generator: Adobe Illustrator 15.1.0, SVG Export Plug-In . SVG Version: 6.00 Build 0)  -->
<!DOCTYPE svg PUBLIC "-//W3C//DTD SVG 1.1//EN" "http://www.w3.org/Graphics/SVG/1.1/DTD/svg11.dtd">
<svg version="1.1"
	 id="Layer_1" xmlns:inkscape="http://www.inkscape.org/namespaces/inkscape" sodipodi:docname="insteon_LED.svg" xmlns:sodipodi="http://sodipodi.sourceforge.net/DTD/sodipodi-0.dtd" xmlns:svg="http://www.w3.org/2000/svg" xmlns:rdf="http://www.w3.org/1999/02/22-rdf-syntax-ns#" xmlns:cc="http://creativecommons.org/ns#" xmlns:dc="http://purl.org/dc/elements/1.1/" inkscape:version="0.48.1 r9760"
	 xmlns="http://www.w3.org/2000/svg" xmlns:xlink="http://www.w3.org/1999/xlink" x="0px" y="0px" width="44.637px"
	 height="44.637px" viewBox="0 0 44.637 44.637" enable-background="new 0 0 44.637 44.637" xml:space="preserve">
<sodipodi:namedview  id="namedview11726" inkscape:window-maximized="0" showgrid="false" pagecolor="#ffffff" borderopacity="1" inkscape:window-x="0" gridtolerance="10" guidetolerance="10" objecttolerance="10" inkscape:pageopacity="0" inkscape:pageshadow="2" inkscape:zoom="21.013957" inkscape:cx="22.318501" inkscape:cy="22.318501" inkscape:current-layer="Layer_1" inkscape:window-width="1910" inkscape:window-height="1156" inkscape:window-y="0" bordercolor="#666666">
	</sodipodi:namedview>
<g id="g11706">
	<g id="g11708">
	</g>
	<g id="g11712">
	</g>
	<g id="g11716">
	</g>
	<g id="g11720">
	</g>
</g>
<g>
	<path d="M22.465,3.102c-10.573,0-19.146,8.572-19.146,19.146c0,10.565,8.573,19.143,19.146,19.143
		c10.577,0,19.144-8.574,19.145-19.143C41.61,11.673,33.039,3.102,22.465,3.102z M17.272,8.245c0,0,0-1.49,1.491-1.49h7.281
		c1.492,0,1.492,1.49,1.492,1.49v3.222H17.272V8.245z M27.536,36.612c0,0,0,1.491-1.492,1.491h-7.281
		c-1.491,0-1.491-1.491-1.491-1.491v-3.22h10.265V36.612z M31.818,19.413h-0.863c0.004,0.397,0.006,0.797,0.008,1.2h0.855v3.234
		h-0.851c-0.003,0.415-0.006,0.828-0.007,1.24h0.857v5.753h-0.981c-0.1,2.448-0.268,4.344-0.533,5.115h-1.85v-3.223H16.401v3.223
		h-1.849c-0.532-1.539-0.669-7.556-0.665-13.51h-0.85v-5.756h0.891c0.056-4.317,0.147-7.633,0.147-7.633h2.325v2.684
		c0,0,0.06,0.507,0.507,0.507h11.041c0.445,0,0.505-0.507,0.505-0.507V9.058h2.325c0,0,0.051,1.856,0.102,4.601h0.938V19.413z"/>
	<rect x="17.237" y="15.738" width="10.74" height="13.419"/>
	<path d="M0,0v44.637h44.637V0H0z M22.32,43.061c-11.498,0-20.812-9.312-20.812-20.812S10.82,1.428,22.32,1.428
		c11.496,0,20.816,9.321,20.816,20.821C43.136,33.743,33.816,43.064,22.32,43.061z"/>
</g>
</svg>
