<?xml version="1.0" encoding="utf-8"?>
<!-- Generator: Adobe Illustrator 15.1.0, SVG Export Plug-In . SVG Version: 6.00 Build 0)  -->
<!DOCTYPE svg PUBLIC "-//W3C//DTD SVG 1.1//EN" "http://www.w3.org/Graphics/SVG/1.1/DTD/svg11.dtd">
<svg version="1.1"
	 id="Layer_1" sodipodi:docname="ecobee.svg" inkscape:version="0.48.2 r9819" xmlns:svg="http://www.w3.org/2000/svg" xmlns:rdf="http://www.w3.org/1999/02/22-rdf-syntax-ns#" xmlns:dc="http://purl.org/dc/elements/1.1/" xmlns:inkscape="http://www.inkscape.org/namespaces/inkscape" xmlns:sodipodi="http://sodipodi.sourceforge.net/DTD/sodipodi-0.dtd" xmlns:cc="http://creativecommons.org/ns#"
	 xmlns="http://www.w3.org/2000/svg" xmlns:xlink="http://www.w3.org/1999/xlink" x="0px" y="0px" width="44.637px"
	 height="44.637px" viewBox="0 0 44.637 44.637" enable-background="new 0 0 44.637 44.637" xml:space="preserve">
<title>Layer 1</title>
<g>
	<path d="M16.053,17.523c-1.357,0-2.462,1.104-2.462,2.464c0,1.357,1.104,2.462,2.462,2.462c1.359,0,2.464-1.104,2.463-2.462
		C18.516,18.626,17.41,17.523,16.053,17.523z"/>
	<path d="M15.348,16.224c0.26-0.123,0.527-0.166,0.775-0.169c0.244,0.003,0.513,0.046,0.772,0.169
		c0.811,0.386,1.499-0.576,1.423-1.076c-0.078-0.501-0.654-0.732-1.06-0.769c-0.402-0.039-1.018-0.071-1.018-0.071h-0.239
		c0,0-0.618,0.032-1.02,0.071c-0.405,0.036-0.982,0.268-1.06,0.769C13.85,15.648,14.539,16.61,15.348,16.224z"/>
	<path d="M22.465,3.176C11.892,3.176,3.32,11.747,3.32,22.32c0,10.573,8.571,19.146,19.146,19.146S41.61,32.895,41.61,22.321
		C41.61,11.748,33.039,3.176,22.465,3.176z M16.051,26.86c-3.824,0-6.924-3.097-6.924-6.918c0-0.455,0.048-0.898,0.131-1.331H9.256
		c0,0,0.003-0.017,0.005-0.026c0.063-0.318,0.153-0.625,0.257-0.921c0.484-1.539,1.729-4.654,4.39-7.021c0,0,2.448-2.08,5.02,0.551
		c2.014,2.062,3.048,4.385,3.58,6.265c0.299,0.771,0.47,1.608,0.47,2.483C22.977,23.763,19.876,26.86,16.051,26.86z M33.764,28.77
		c-0.896,1.113-2.809,2.117-3.191,6.537c0,0.26-0.176,0.807-0.979,0.807s-0.964-0.547-0.964-0.807
		c-0.383-4.42-2.311-5.422-3.206-6.537c-0.737-0.916-1.18-2.082-1.18-3.35c0-2.959,2.395-5.359,5.35-5.359
		c2.954,0,5.35,2.4,5.35,5.359C34.944,26.688,34.502,27.854,33.764,28.77z"/>
	<path d="M-0.1,0V44.73h44.737V0H-0.1z M22.32,43.138c-11.498,0-20.812-9.322-20.812-20.818C1.501,10.823,10.821,1.5,22.32,1.5
		c11.496,0,20.816,9.323,20.816,20.812C43.136,33.815,33.816,43.138,22.32,43.138z"/>
	<circle cx="29.51" cy="25.427" r="1.729"/>
</g>
</svg>
