<?xml version="1.0" encoding="UTF-8" standalone="no"?>
<!-- Created with Inkscape (http://www.inkscape.org/) -->

<svg
   xmlns:dc="http://purl.org/dc/elements/1.1/"
   xmlns:cc="http://creativecommons.org/ns#"
   xmlns:rdf="http://www.w3.org/1999/02/22-rdf-syntax-ns#"
   xmlns:svg="http://www.w3.org/2000/svg"
   xmlns="http://www.w3.org/2000/svg"
   xmlns:sodipodi="http://sodipodi.sourceforge.net/DTD/sodipodi-0.dtd"
   xmlns:inkscape="http://www.inkscape.org/namespaces/inkscape"
   id="svg2"
   version="1.1"
   inkscape:version="0.48.2 r9819"
   width="55.795875"
   height="55.795875"
   xml:space="preserve"
   sodipodi:docname="presence-fob.ai"><metadata
     id="metadata8"><rdf:RDF><cc:Work
         rdf:about=""><dc:format>image/svg+xml</dc:format><dc:type
           rdf:resource="http://purl.org/dc/dcmitype/StillImage" /><dc:title></dc:title></cc:Work></rdf:RDF></metadata><defs
     id="defs6"><clipPath
       clipPathUnits="userSpaceOnUse"
       id="clipPath16"><path
         d="m 0,44.637 44.637,0 L 44.637,0 0,0 0,44.637 z"
         id="path18" /></clipPath></defs><sodipodi:namedview
     pagecolor="#ffffff"
     bordercolor="#666666"
     borderopacity="1"
     objecttolerance="10"
     gridtolerance="10"
     guidetolerance="10"
     inkscape:pageopacity="0"
     inkscape:pageshadow="2"
     inkscape:window-width="640"
     inkscape:window-height="480"
     id="namedview4"
     showgrid="false"
     inkscape:zoom="4.2297033"
     inkscape:cx="27.897938"
     inkscape:cy="27.897938"
     inkscape:window-x="0"
     inkscape:window-y="0"
     inkscape:window-maximized="0"
     inkscape:current-layer="g10" /><g
     id="g10"
     inkscape:groupmode="layer"
     inkscape:label="presence-fob"
     transform="matrix(1.25,0,0,-1.25,0,55.795875)"><g
       id="g12"><g
         id="g14"
         clip-path="url(#clipPath16)"><g
           id="g20"
           transform="translate(22.3193,1.6758)"><path
             d="m 0,0 c -11.498,0 -20.812,9.314 -20.812,20.813 0,11.5 9.313,20.819 20.812,20.819 11.496,0 20.816,-9.319 20.816,-20.819 C 20.816,9.317 11.496,-0.003 0,0 m -22.319,-1.676 44.637,0 0,44.637 -44.637,0 0,-44.637 z"
             style="fill:#231f20;fill-opacity:1;fill-rule:nonzero;stroke:none"
             id="path22" /></g><g
           id="g24"
           transform="translate(22.4639,9.0186)"><path
             d="m 0,0 c -6.06,0 -10.973,4.912 -10.973,10.972 0,0.72 0.075,1.424 0.207,2.105 l -0.003,0 c 0,0 0.006,0.027 0.009,0.039 0.1,0.502 0.24,0.988 0.406,1.462 0.768,2.438 2.739,7.377 6.958,11.127 0,0 3.881,3.297 7.955,-0.873 3.19,-3.268 4.83,-6.949 5.676,-9.929 0.47,-1.222 0.738,-2.545 0.738,-3.931 C 10.973,4.912 6.06,0 0,0 m 0.001,32.616 c -10.573,0 -19.147,-8.572 -19.147,-19.145 0,-10.57 8.574,-19.145 19.147,-19.145 10.577,0 19.144,8.574 19.145,19.145 0,10.574 -8.571,19.145 -19.145,19.145"
             style="fill:#231f20;fill-opacity:1;fill-rule:nonzero;stroke:none"
             id="path26" /></g><g
           id="g28"
           transform="translate(16.0752,22.0166)"><path
             d="M 0,0 C 0.863,2.707 3.399,4.673 6.389,4.673 9.378,4.673 11.914,2.707 12.777,0 L 0,0 z m 6.389,-8.737 c -2.912,0 -5.391,1.87 -6.315,4.469 l 12.628,0 C 11.779,-6.867 9.301,-8.737 6.389,-8.737 m 0,14.51 c -4.304,0 -7.806,-3.501 -7.806,-7.805 0,-4.304 3.502,-7.805 7.806,-7.805 4.303,0 7.804,3.501 7.804,7.805 0,4.304 -3.501,7.805 -7.804,7.805"
             style="fill:#231f20;fill-opacity:1;fill-rule:nonzero;stroke:none"
             id="path30" /></g><g
           id="g32"
           transform="translate(21.4199,30.1807)"><path
             d="M 0,0 C 0.364,0.174 0.743,0.234 1.089,0.239 1.435,0.234 1.813,0.174 2.178,0 3.316,-0.542 4.291,0.813 4.183,1.517 4.074,2.222 3.263,2.547 2.693,2.601 2.124,2.655 1.257,2.701 1.257,2.701 l -0.336,0 c 0,0 -0.867,-0.046 -1.437,-0.1 C -1.085,2.547 -1.896,2.222 -2.005,1.517 -2.113,0.813 -1.139,-0.542 0,0"
             style="fill:#231f20;fill-opacity:1;fill-rule:nonzero;stroke:none"
             id="path34" /></g></g></g></g></svg>