<?xml version="1.0" encoding="utf-8"?>
<!-- Generator: Adobe Illustrator 15.1.0, SVG Export Plug-In . SVG Version: 6.00 Build 0)  -->
<!DOCTYPE svg PUBLIC "-//W3C//DTD SVG 1.1//EN" "http://www.w3.org/Graphics/SVG/1.1/DTD/svg11.dtd">
<svg version="1.1"
	 id="Layer_1" inkscape:version="0.48.1 r9760" sodipodi:docname="insteon_LED.svg" xmlns:dc="http://purl.org/dc/elements/1.1/" xmlns:cc="http://creativecommons.org/ns#" xmlns:rdf="http://www.w3.org/1999/02/22-rdf-syntax-ns#" xmlns:svg="http://www.w3.org/2000/svg" xmlns:inkscape="http://www.inkscape.org/namespaces/inkscape" xmlns:sodipodi="http://sodipodi.sourceforge.net/DTD/sodipodi-0.dtd"
	 xmlns="http://www.w3.org/2000/svg" xmlns:xlink="http://www.w3.org/1999/xlink" x="0px" y="0px" width="44.637px"
	 height="44.637px" viewBox="0 0 44.637 44.637" enable-background="new 0 0 44.637 44.637" xml:space="preserve">
<sodipodi:namedview  id="namedview11726" pagecolor="#ffffff" bordercolor="#666666" inkscape:cx="22.318501" borderopacity="1" inkscape:cy="22.318501" inkscape:pageopacity="0" inkscape:pageshadow="2" inkscape:zoom="21.013957" inkscape:current-layer="Layer_1" showgrid="false" inkscape:window-width="1910" inkscape:window-height="1156" inkscape:window-x="0" inkscape:window-y="0" inkscape:window-maximized="0" guidetolerance="10" objecttolerance="10" gridtolerance="10">
	</sodipodi:namedview>
<g id="g11706">
	<g id="g11708">
	</g>
	<g id="g11712">
	</g>
	<g id="g11716">
	</g>
	<g id="g11720">
	</g>
</g>
<g id="Livello_1_2_">
</g>
<g>
	<path d="M0,0v44.637h44.637V0H0z M22.32,43.061c-11.498,0-20.812-9.313-20.812-20.812c0-11.5,9.313-20.821,20.812-20.821
		c11.496,0,20.816,9.321,20.816,20.821C43.136,33.743,33.816,43.064,22.32,43.061z"/>
	<path d="M22.465,3.102c-10.573,0-19.146,8.572-19.146,19.146c0,10.567,8.573,19.143,19.146,19.143
		c10.577,0,19.144-8.574,19.145-19.143C41.61,11.673,33.039,3.102,22.465,3.102z M32.419,28.475
		c-0.143,0.761-0.376,1.31-0.587,1.914c-0.314,2.439-2.367,3.582-2.908,3.719c-0.793,0.604-1.637,1.177-2.779,1.578
		c-1.078,1.111-2.246,1.535-3.419,1.534c-0.017,0-0.035,0-0.052,0c-1.173,0.001-2.341-0.423-3.418-1.534
		c-1.144-0.401-1.987-0.975-2.78-1.578c-0.541-0.137-2.593-1.278-2.908-3.719c-0.21-0.604-0.445-1.153-0.587-1.914
		c-2.154-2.434-0.776-5.428,0.755-6.358l0.196-0.351c-0.008-2.506,1.138-3.528,2.474-4.305c-0.403-0.108-0.821-0.197-0.936-0.712
		c-0.695-0.182-0.84-0.507-0.91-0.854c-0.182-0.123-0.79-0.468-0.726-1.062c-0.341-0.239-0.53-0.545-0.435-0.979
		c-0.365-0.404-0.462-0.739-0.307-1.048c-0.439-0.554-0.245-0.841-0.057-1.132c-0.329-0.605-0.039-1.255,0.88-1.146
		c0.366-0.545,1.164-0.421,1.287-0.419c0.138-0.175,0.319-0.324,0.88-0.252c0.362-0.329,0.769-0.271,1.188-0.11
		c0.171-0.136,0.322-0.188,0.461-0.191l0,0l0,0l0,0c0.268-0.008,0.493,0.154,0.74,0.232c0.603-0.197,0.739,0.072,1.035,0.183
		c0.656-0.139,0.855,0.163,1.171,0.482l0.366-0.008c0.99,0.583,1.48,1.771,1.655,2.383c0.174-0.611,0.667-1.8,1.656-2.383
		l0.365,0.008c0.314-0.319,0.514-0.621,1.17-0.482c0.296-0.11,0.435-0.379,1.035-0.183c0.377-0.119,0.705-0.434,1.201-0.041
		c0.42-0.162,0.825-0.217,1.188,0.11c0.561-0.072,0.742,0.077,0.88,0.252c0.123-0.003,0.923-0.127,1.287,0.419
		c0.92-0.107,1.209,0.541,0.881,1.146c0.188,0.291,0.384,0.578-0.057,1.132c0.155,0.31,0.06,0.645-0.307,1.048
		c0.096,0.435-0.095,0.74-0.436,0.979c0.063,0.594-0.544,0.938-0.726,1.062c-0.07,0.347-0.215,0.672-0.909,0.854
		c-0.114,0.515-0.532,0.604-0.937,0.713c1.336,0.775,2.48,1.798,2.475,4.305l0.195,0.351C33.196,23.047,34.574,26.041,32.419,28.475
		z"/>
	<path d="M17.271,17.251c0.817,0.048,3.053-0.03,3.48-1.747c-0.835-0.932-2.36-2.026-4.981-3.378c2.04,0.693,3.88,1.618,5.422,2.89
		c1.813-0.856,0.563-3.02-0.321-3.878c-0.045,0.228-0.097,0.37-0.153,0.412c-0.289-0.313-0.524-0.634-0.896-0.936
		c-0.001,0.177,0.089,0.368-0.133,0.51c-0.198-0.271-0.467-0.515-0.825-0.719c0.173,0.301,0.03,0.392-0.062,0.517
		c-0.272-0.237-0.532-0.479-1.034-0.664c0.137,0.17,0.329,0.336,0.125,0.531c-0.28-0.179-0.562-0.355-1.229-0.482
		c0.149,0.17,0.46,0.34,0.271,0.51c-0.353-0.137-0.743-0.235-1.174-0.293c0.207,0.172,0.379,0.342,0.21,0.476
		c-0.377-0.118-0.896-0.276-1.405-0.141l0.321,0.328c0.036,0.044-0.751,0.035-1.271,0.042c0.188,0.269,0.383,0.526,0.495,0.985
		c-0.051,0.053-0.309,0.022-0.552,0c0.25,0.532,0.683,0.667,0.783,0.895c-0.152,0.117-0.363,0.086-0.594,0.008
		c0.179,0.375,0.555,0.632,0.853,0.937c-0.075,0.054-0.207,0.086-0.517,0.049c0.273,0.296,0.605,0.567,0.999,0.812
		c-0.069,0.082-0.31,0.079-0.531,0.084c0.356,0.354,0.814,0.537,1.244,0.769c-0.214,0.148-0.367,0.114-0.531,0.112
		c0.304,0.253,0.821,0.385,1.3,0.538c-0.091,0.144-0.183,0.184-0.377,0.224c0.507,0.285,1.234,0.155,1.439,0.3
		C17.578,17.08,17.438,17.174,17.271,17.251z"/>
	<path d="M24.268,15.015c1.542-1.271,3.385-2.197,5.426-2.892c-2.624,1.354-4.149,2.447-4.985,3.381
		c0.428,1.717,2.663,1.795,3.479,1.747c-0.167-0.078-0.307-0.171-0.355-0.314c0.204-0.146,0.933-0.015,1.438-0.3
		c-0.192-0.04-0.285-0.08-0.376-0.224c0.479-0.153,0.995-0.285,1.3-0.538c-0.164,0.002-0.316,0.037-0.53-0.112
		c0.43-0.23,0.887-0.415,1.244-0.769c-0.224-0.005-0.464-0.002-0.531-0.084c0.393-0.243,0.725-0.515,1-0.812
		c-0.312,0.038-0.442,0.005-0.519-0.049c0.297-0.305,0.673-0.562,0.853-0.938c-0.23,0.08-0.441,0.11-0.594-0.007
		c0.102-0.228,0.532-0.361,0.782-0.895c-0.241,0.022-0.5,0.053-0.553,0c0.113-0.459,0.307-0.718,0.496-0.985
		c-0.521-0.008-1.307,0.002-1.271-0.042l0.321-0.329c-0.507-0.136-1.026,0.022-1.403,0.141c-0.17-0.134,0.003-0.303,0.21-0.476
		c-0.433,0.059-0.822,0.157-1.175,0.293c-0.188-0.17,0.121-0.34,0.271-0.51c-0.666,0.126-0.949,0.304-1.23,0.482
		c-0.203-0.195-0.01-0.361,0.127-0.531c-0.503,0.186-0.762,0.426-1.034,0.664c-0.093-0.125-0.234-0.216-0.062-0.518
		c-0.357,0.206-0.625,0.448-0.824,0.721c-0.221-0.142-0.131-0.333-0.133-0.511c-0.371,0.303-0.607,0.623-0.895,0.938
		c-0.06-0.042-0.109-0.187-0.154-0.412C23.703,11.995,22.453,14.158,24.268,15.015z"/>
	<path d="M22.747,26.689c-1.738,0.01-3.14,1.314-3.129,2.916c0,0.012,0,0.021,0,0.03c0.009,1.603,1.425,2.896,3.162,2.887
		c1.737-0.01,3.139-1.313,3.13-2.917c0-0.011,0-0.02,0-0.029C25.901,27.973,24.485,26.68,22.747,26.689z"/>
	<path d="M21.468,25.642c1.014-1.534,0.779-3.47-0.524-4.323s-3.182-0.303-4.195,1.23c-1.015,1.534-0.779,3.47,0.524,4.324
		C18.576,27.727,20.455,27.176,21.468,25.642z"/>
	<path d="M28.133,26.719c1.303-0.854,1.537-2.791,0.524-4.324c-1.016-1.534-2.894-2.085-4.196-1.23
		c-1.303,0.854-1.538,2.79-0.524,4.322C24.95,27.021,26.828,27.573,28.133,26.719z"/>
	<path d="M14.428,22.714c-2.335,1.334-1.93,4.301-0.67,5.312C14.904,28.536,15.836,22.337,14.428,22.714z"/>
	<path d="M30.693,22.637c-1.406-0.377-0.476,5.823,0.669,5.314C32.621,26.938,33.028,23.971,30.693,22.637z"/>
	<path d="M25.91,18.02c-0.896,0.15,4.289,4.676,4.368,3.667C30.36,19.053,28.34,17.61,25.91,18.02z"/>
	<path d="M19.2,17.943c-2.43-0.409-4.45,1.033-4.368,3.667C14.912,22.619,20.095,18.094,19.2,17.943z"/>
	<path d="M19.845,19.051c-0.004,0.785,1.146,1.588,2.854,1.609c1.744,0.012,2.857-0.645,2.861-1.454
		c0.008-0.917-1.586-1.892-2.872-1.877C21.24,17.291,19.848,18.406,19.845,19.051z"/>
	<path d="M22.778,33.422c-1.256-0.031-3.182,0.504-3.158,1.188c-0.021,0.468,1.512,1.814,3.074,1.748
		c1.511,0.025,3.068-1.319,3.048-1.915C25.737,33.829,24.041,33.366,22.778,33.422z"/>
	<path d="M14.867,28.406c-0.581,0.441-0.688,1.944,0.14,3.424c1.226,1.762,2.952,1.938,3.662,1.51c0.75-0.562,0.34-2.467-0.56-3.551
		C17.077,28.59,15.735,27.875,14.867,28.406z"/>
	<path d="M27.266,29.445c-0.974,1.141-1.516,3.221-0.806,3.891c0.679,0.521,2.501,0.448,3.849-1.421
		c0.979-1.255,0.65-3.352,0.092-3.907C29.571,27.365,28.379,28.186,27.266,29.445z"/>
</g>
</svg>
