<?xml version="1.0" encoding="utf-8"?>
<!-- Generator: Adobe Illustrator 15.1.0, SVG Export Plug-In . SVG Version: 6.00 Build 0)  -->
<!DOCTYPE svg PUBLIC "-//W3C//DTD SVG 1.1//EN" "http://www.w3.org/Graphics/SVG/1.1/DTD/svg11.dtd">
<svg version="1.1"
	 id="Layer_1" inkscape:version="0.48.1 r9760" sodipodi:docname="insteon_LED.svg" xmlns:inkscape="http://www.inkscape.org/namespaces/inkscape" xmlns:svg="http://www.w3.org/2000/svg" xmlns:cc="http://creativecommons.org/ns#" xmlns:dc="http://purl.org/dc/elements/1.1/" xmlns:rdf="http://www.w3.org/1999/02/22-rdf-syntax-ns#" xmlns:sodipodi="http://sodipodi.sourceforge.net/DTD/sodipodi-0.dtd"
	 xmlns="http://www.w3.org/2000/svg" xmlns:xlink="http://www.w3.org/1999/xlink" x="0px" y="0px" width="44.637px"
	 height="44.637px" viewBox="0 0 44.637 44.637" enable-background="new 0 0 44.637 44.637" xml:space="preserve">
<sodipodi:namedview  borderopacity="1" inkscape:cy="22.318501" inkscape:cx="22.318501" inkscape:pageopacity="0" guidetolerance="10" id="namedview11726" inkscape:window-maximized="0" inkscape:window-width="1910" inkscape:current-layer="Layer_1" pagecolor="#ffffff" inkscape:pageshadow="2" bordercolor="#666666" inkscape:window-y="0" gridtolerance="10" inkscape:window-height="1156" showgrid="false" objecttolerance="10" inkscape:zoom="21.013957" inkscape:window-x="0">
	</sodipodi:namedview>
<g id="g11706">
	<g id="g11708">
	</g>
	<g id="g11712">
	</g>
	<g id="g11716">
	</g>
	<g id="g11720">
	</g>
</g>
<g id="Livello_1_2_">
</g>
<g>
	<path d="M0-0.094V44.64h44.637V-0.094H0z M22.32,43.067c-11.498,0-20.812-9.312-20.812-20.812S10.82,1.434,22.32,1.434
		c11.496,0,20.816,9.321,20.816,20.821C43.136,33.749,33.816,43.07,22.32,43.067z"/>
	<path d="M33.328,13.668l0.01-0.008c-0.005-0.217-0.181-0.392-0.398-0.392H10.143c-0.221,0-0.399,0.18-0.399,0.399v17.699
		c0,0.221,0.18,0.399,0.399,0.399H32.94c0.22,0,0.396-0.176,0.399-0.394l-0.011-0.007V13.668z"/>
	<polygon points="7.99,30.223 8.743,30.578 8.743,14.264 7.99,14.397 	"/>
	<path d="M22.465,3.108c-10.573,0-19.146,8.572-19.146,19.146c0,10.562,8.573,19.143,19.146,19.143
		c8.747,0,16.103-5.865,18.393-13.874h-2.429v0.307l-2.347,0.405v2.307l-0.287,0.452L34.296,31.7
		c-0.15,0.61-0.699,1.067-1.356,1.067H10.143c-0.655,0-1.202-0.453-1.354-1.062l-1.514-0.714L6.99,30.54V13.978l0.412-0.492
		l1.416-0.25c0.185-0.559,0.705-0.967,1.325-0.967H32.94c0.621,0,1.144,0.409,1.325,0.969l1.404,0.248l0.413,0.492V25.82
		l2.347,0.446v0.257h2.688c0.312-1.374,0.493-2.799,0.493-4.269C41.61,11.679,33.039,3.108,22.465,3.108z"/>
	<polygon points="34.34,30.573 35.082,30.223 35.082,14.397 34.34,14.266 	"/>
</g>
</svg>
