<?xml version="1.0" encoding="utf-8"?>
<!-- Generator: Adobe Illustrator 15.1.0, SVG Export Plug-In . SVG Version: 6.00 Build 0)  -->
<!DOCTYPE svg PUBLIC "-//W3C//DTD SVG 1.1//EN" "http://www.w3.org/Graphics/SVG/1.1/DTD/svg11.dtd">
<svg version="1.1"
	 id="Layer_1" inkscape:version="0.48.1 r9760" sodipodi:docname="insteon_LED.svg" xmlns:inkscape="http://www.inkscape.org/namespaces/inkscape" xmlns:svg="http://www.w3.org/2000/svg" xmlns:cc="http://creativecommons.org/ns#" xmlns:dc="http://purl.org/dc/elements/1.1/" xmlns:rdf="http://www.w3.org/1999/02/22-rdf-syntax-ns#" xmlns:sodipodi="http://sodipodi.sourceforge.net/DTD/sodipodi-0.dtd"
	 xmlns="http://www.w3.org/2000/svg" xmlns:xlink="http://www.w3.org/1999/xlink" x="0px" y="0px" width="44.637px"
	 height="44.637px" viewBox="0 0 44.637 44.637" enable-background="new 0 0 44.637 44.637" xml:space="preserve">
<sodipodi:namedview  borderopacity="1" inkscape:cy="22.318501" inkscape:cx="22.318501" inkscape:pageopacity="0" guidetolerance="10" id="namedview11726" inkscape:window-maximized="0" inkscape:window-width="1910" inkscape:current-layer="Layer_1" pagecolor="#ffffff" inkscape:pageshadow="2" bordercolor="#666666" inkscape:window-y="0" gridtolerance="10" inkscape:window-height="1156" showgrid="false" objecttolerance="10" inkscape:zoom="21.013957" inkscape:window-x="0">
	</sodipodi:namedview>
<g id="g11706">
	<g id="g11708">
	</g>
	<g id="g11712">
	</g>
	<g id="g11716">
	</g>
	<g id="g11720">
	</g>
</g>
<g id="Livello_1_2_">
</g>
<g>
	<path d="M0-0.094V44.64h44.637V-0.094H0z M22.32,43.067c-11.498,0-20.812-9.312-20.812-20.812S10.82,1.434,22.32,1.434
		c11.496,0,20.816,9.321,20.816,20.821C43.136,33.749,33.816,43.07,22.32,43.067z"/>
	<path d="M22.465,3.108c-10.573,0-19.146,8.572-19.146,19.146c0,10.562,8.573,19.143,19.146,19.143
		c10.577,0,19.144-8.568,19.145-19.143C41.61,11.679,33.039,3.108,22.465,3.108z M37.465,15.152c0.5,1.562,0.49,6.816,0.49,6.87
		s0.01,5.308-0.49,6.869c-0.361,1.132-2.093,1.312-2.166,1.319l-0.125,0.013c-2.655,0.267-9.312,0.885-13.729,0.885
		c-0.257,0-0.505-0.002-0.744-0.006c-5.447-0.1-10.39-0.499-12.018-0.971c-1.59-0.46-1.92-2.689-2.059-7.503V21.42
		c0.139-4.821,0.469-7.049,2.059-7.511c1.626-0.471,6.567-0.869,12.018-0.971c4.36-0.086,11.662,0.598,14.473,0.879l0.125,0.014
		C35.373,13.838,37.103,14.017,37.465,15.152z"/>
	<path d="M33.774,27.156c0,0.8-0.649,1.449-1.45,1.449H10.035c-0.8,0-1.449-0.649-1.449-1.449V16.897
		c0-0.799,0.649-1.448,1.449-1.448h22.288c0.801,0,1.45,0.649,1.45,1.448V27.156z"/>
	<path d="M36.694,27.699c0.084-0.425,0.255-4.451,0.255-4.451s0.043-4.41-0.213-6.064c-0.253-1.654-1.326-1.061-1.326-1.061
		c0.679,5.216,0,12.298,0,12.298C36.131,28.61,36.61,28.124,36.694,27.699z"/>
	<path d="M32.323,15.948H10.035c-0.523,0-0.949,0.426-0.949,0.948v10.259c0,0.522,0.426,0.949,0.949,0.949h22.288
		c0.523,0,0.95-0.427,0.95-0.949V16.897C33.274,16.373,32.847,15.948,32.323,15.948z"/>
</g>
</svg>
