<?xml version="1.0" encoding="utf-8"?>
<!-- Generator: Adobe Illustrator 15.1.0, SVG Export Plug-In . SVG Version: 6.00 Build 0)  -->
<!DOCTYPE svg PUBLIC "-//W3C//DTD SVG 1.1//EN" "http://www.w3.org/Graphics/SVG/1.1/DTD/svg11.dtd">
<svg version="1.1"
	 id="Layer_1" inkscape:version="0.48.2 r9819" sodipodi:docname="ecobee.svg" xmlns:svg="http://www.w3.org/2000/svg" xmlns:inkscape="http://www.inkscape.org/namespaces/inkscape" xmlns:cc="http://creativecommons.org/ns#" xmlns:dc="http://purl.org/dc/elements/1.1/" xmlns:sodipodi="http://sodipodi.sourceforge.net/DTD/sodipodi-0.dtd" xmlns:rdf="http://www.w3.org/1999/02/22-rdf-syntax-ns#"
	 xmlns="http://www.w3.org/2000/svg" xmlns:xlink="http://www.w3.org/1999/xlink" x="0px" y="0px" width="44.637px"
	 height="44.637px" viewBox="0 0 44.637 44.637" enable-background="new 0 0 44.637 44.637" xml:space="preserve">
<g>
	<path d="M0,0v44.637h44.637V0H0z M22.234,43.672c-11.76,0-21.293-9.532-21.293-21.291c0-11.755,9.533-21.286,21.293-21.286
		c11.759,0,21.288,9.531,21.288,21.286C43.522,34.139,33.992,43.672,22.234,43.672z"/>
	<path d="M22.918,13.06v8.692h8.57C31.258,17.1,27.555,13.356,22.918,13.06z"/>
	<path d="M31.485,22.752h-8.566v8.607C27.526,31.065,31.212,27.365,31.485,22.752z M27.594,28.415c-0.192,0-0.349-0.156-0.349-0.35
		c0-0.192,0.156-0.35,0.349-0.35c0.193,0,0.35,0.157,0.35,0.35C27.944,28.259,27.787,28.415,27.594,28.415z"/>
	<path d="M21.918,31.368v-8.616h-8.741C13.452,27.423,17.229,31.158,21.918,31.368z"/>
	<path d="M13.173,21.752h8.746v-8.701C17.201,13.262,13.406,17.041,13.173,21.752z"/>
	<path d="M22.918,6.143v5.917c5.188,0.298,9.338,4.488,9.57,9.692h5.914C38.163,13.287,31.366,6.451,22.918,6.143z M35.297,14.695
		c0.192,0,0.349,0.156,0.349,0.349c0,0.193-0.156,0.349-0.349,0.349c-0.193,0-0.349-0.155-0.349-0.349
		C34.948,14.851,35.104,14.695,35.297,14.695z"/>
	<path d="M22.234,1.951c-11.286,0-20.435,9.148-20.435,20.43c0,11.285,9.148,20.434,20.435,20.434
		c11.283,0,20.431-9.148,20.431-20.434C42.664,11.1,33.517,1.951,22.234,1.951z M41.869,21.752c0.276,0,0.5,0.224,0.5,0.5
		s-0.224,0.5-0.5,0.5h-2.471c-0.285,8.978-7.51,16.216-16.48,16.523v1.92c0,0.276-0.224,0.5-0.5,0.5s-0.5-0.224-0.5-0.5v-1.911
		c-9.054-0.218-16.371-7.496-16.657-16.532H2.879c-0.276,0-0.5-0.224-0.5-0.5s0.224-0.5,0.5-0.5h2.377
		c0.242-9.076,7.579-16.4,16.662-16.618V3.223c0-0.276,0.224-0.5,0.5-0.5s0.5,0.224,0.5,0.5v1.92
		c9,0.308,16.244,7.592,16.484,16.609H41.869z"/>
	<path d="M6.257,21.752h5.917c0.235-5.262,4.476-9.488,9.745-9.701V6.135C13.387,6.352,6.498,13.228,6.257,21.752z M18.158,7.079
		c0.329,0,0.597,0.267,0.597,0.597s-0.268,0.597-0.597,0.597c-0.33,0-0.598-0.267-0.598-0.597S17.828,7.079,18.158,7.079z"/>
	<path d="M12.177,22.752H6.261c0.285,8.484,7.155,15.315,15.657,15.532v-5.916C16.678,32.156,12.455,27.975,12.177,22.752z
		 M13.555,34.526c-0.33,0-0.597-0.267-0.597-0.597s0.267-0.597,0.597-0.597s0.597,0.267,0.597,0.597S13.885,34.526,13.555,34.526z"
		/>
	<path d="M22.918,32.36v5.916c8.419-0.307,15.196-7.098,15.48-15.523h-5.914C32.21,27.916,28.077,32.063,22.918,32.36z"/>
	<circle cx="22.33" cy="22.209" r="0.346"/>
</g>
</svg>
