<?xml version="1.0" encoding="utf-8"?>
<!-- Generator: Adobe Illustrator 15.1.0, SVG Export Plug-In . SVG Version: 6.00 Build 0)  -->
<!DOCTYPE svg PUBLIC "-//W3C//DTD SVG 1.1//EN" "http://www.w3.org/Graphics/SVG/1.1/DTD/svg11.dtd">
<svg version="1.1"
	 id="Layer_1" xmlns:inkscape="http://www.inkscape.org/namespaces/inkscape" sodipodi:docname="ecobee.svg" inkscape:version="0.48.2 r9819" xmlns:cc="http://creativecommons.org/ns#" xmlns:sodipodi="http://sodipodi.sourceforge.net/DTD/sodipodi-0.dtd" xmlns:dc="http://purl.org/dc/elements/1.1/" xmlns:svg="http://www.w3.org/2000/svg" xmlns:rdf="http://www.w3.org/1999/02/22-rdf-syntax-ns#"
	 xmlns="http://www.w3.org/2000/svg" xmlns:xlink="http://www.w3.org/1999/xlink" x="0px" y="0px" width="44.637px"
	 height="44.637px" viewBox="0 0 44.637 44.637" enable-background="new 0 0 44.637 44.637" xml:space="preserve">
<g>
	<path fill="#231F20" d="M22.485,23.774c0.598-0.717,0.951-2.017,0.986-3.326c0.03-1.033-0.157-2.088-0.48-2.825
		c-0.494-1.028-1.204-1.517-2.26-1.541c-0.95-0.023-1.622,0.25-2.131,0.867c-0.579,0.777-0.952,1.99-0.992,3.344
		c-0.028,0.989,0.183,2.092,0.507,2.806c0.467,1.029,1.183,1.521,2.341,1.549C21.323,24.672,21.997,24.389,22.485,23.774z
		 M19.373,22.637c-0.306-0.523-0.454-1.43-0.429-2.305c0.017-0.694,0.151-1.445,0.373-1.932c0.29-0.693,0.693-1.006,1.283-0.991
		c0.025,0.003,0.05,0.003,0.073,0c0.495,0.052,0.807,0.23,1.058,0.674c0.307,0.562,0.461,1.406,0.436,2.333
		c-0.021,0.641-0.188,1.449-0.375,1.875c-0.305,0.721-0.693,1.031-1.294,1.018C19.965,23.293,19.622,23.076,19.373,22.637z"/>
	<path fill="#231F20" d="M26.589,17.596l-0.234,0.124l-0.246,0.134l-0.26,0.127c-0.07,0.05-0.134,0.099-0.224,0.146
		c-0.342,0.243-0.664,0.54-0.87,0.901c-0.281,0.456-0.419,0.904-0.448,1.465l3.294,0.084l0.022-0.771l-2.379-0.067
		c0.253-0.531,0.513-0.814,0.974-1.074l0.246-0.128l0.267-0.131l0.234-0.145c0.062-0.025,0.133-0.077,0.207-0.132
		c0.325-0.271,0.507-0.642,0.514-1.014c0.023-0.793-0.683-1.457-1.608-1.481c-0.85-0.022-1.486,0.447-1.673,1.242l0.759,0.187
		c0.093-0.433,0.405-0.666,0.899-0.653c0.479,0.012,0.87,0.312,0.866,0.671C26.924,17.283,26.777,17.48,26.589,17.596z"/>
	<path fill="#231F20" d="M24.87,30.826c1.217,0.554,2.606,0.543,4.018-0.026c2.075-0.837,3.769-3.33,3.013-6.056
		c-0.423-1.518-1.346-2.575-2.847-3.25v7.828h-6.071C23.516,29.982,24.156,30.502,24.87,30.826z"/>
	<path fill="#231F20" d="M14.407,17.227c0.63,0.013,0.895,0.194,1.333,0.91l1.234-0.49c-0.524-1.172-1.289-1.723-2.534-1.756
		c-0.934-0.023-1.639,0.281-2.147,0.873c-0.599,0.711-0.979,2.008-1.013,3.316c-0.028,1.038,0.18,2.094,0.531,2.832
		c0.504,1.029,1.267,1.516,2.49,1.549c1.186,0.031,2.017-0.564,2.538-1.764l-1.23-0.501c-0.34,0.659-0.755,0.94-1.312,0.933
		c-0.575-0.021-0.939-0.238-1.227-0.675c-0.304-0.527-0.479-1.435-0.46-2.338c0.024-0.7,0.146-1.41,0.375-1.901
		C13.282,17.491,13.742,17.205,14.407,17.227z"/>
	<path fill="#231F20" d="M22.465,3.176C11.892,3.176,3.32,11.747,3.32,22.32c0,10.573,8.571,19.146,19.146,19.146
		S41.61,32.895,41.61,22.321C41.61,11.748,33.039,3.176,22.465,3.176z M35.563,32.568c-1.742,2.261-4.499,3.882-7.195,4.231
		c-0.512,0.065-1.019,0.098-1.517,0.098c-4.782,0-8.782-2.971-10.229-7.574H9.941V10.328h19.113v5.216
		c4.323,0.92,7.5,3.942,8.442,8.169C38.192,26.847,37.487,30.074,35.563,32.568z"/>
	<path fill="#231F20" d="M29.054,17.597v1.76c2.507,0.87,4.115,2.491,4.773,4.851c1.056,3.805-1.302,7.282-4.19,8.446
		c-0.963,0.389-1.927,0.583-2.865,0.583c-0.943,0-1.862-0.196-2.729-0.59c-1.425-0.647-2.632-1.827-3.454-3.325h-1.863
		c1.612,4.197,5.715,5.967,9.386,5.492c2.188-0.282,4.436-1.611,5.866-3.468c1.561-2.023,2.132-4.647,1.565-7.198
		C34.797,20.801,32.418,18.446,29.054,17.597z"/>
	<path fill="#231F20" d="M-0.1,0V44.73h44.737V0H-0.1z M22.32,43.138c-11.498,0-20.812-9.322-20.812-20.818
		C1.501,10.823,10.821,1.5,22.32,1.5c11.496,0,20.816,9.323,20.816,20.812C43.136,33.815,33.816,43.138,22.32,43.138z"/>
</g>
</svg>
