<?xml version="1.0" encoding="utf-8"?>
<!-- Generator: Adobe Illustrator 15.1.0, SVG Export Plug-In . SVG Version: 6.00 Build 0)  -->
<!DOCTYPE svg PUBLIC "-//W3C//DTD SVG 1.1//EN" "http://www.w3.org/Graphics/SVG/1.1/DTD/svg11.dtd">
<svg version="1.1"
	 id="Layer_1" inkscape:version="0.48.1 r9760" sodipodi:docname="insteon_LED.svg" xmlns:inkscape="http://www.inkscape.org/namespaces/inkscape" xmlns:sodipodi="http://sodipodi.sourceforge.net/DTD/sodipodi-0.dtd" xmlns:rdf="http://www.w3.org/1999/02/22-rdf-syntax-ns#" xmlns:svg="http://www.w3.org/2000/svg" xmlns:cc="http://creativecommons.org/ns#" xmlns:dc="http://purl.org/dc/elements/1.1/"
	 xmlns="http://www.w3.org/2000/svg" xmlns:xlink="http://www.w3.org/1999/xlink" x="0px" y="0px" width="44.637px"
	 height="44.637px" viewBox="0 0 44.637 44.637" enable-background="new 0 0 44.637 44.637" xml:space="preserve">
<sodipodi:namedview  guidetolerance="10" inkscape:zoom="21.013957" inkscape:window-width="1910" inkscape:window-height="1156" inkscape:window-y="0" inkscape:pageshadow="2" inkscape:pageopacity="0" gridtolerance="10" objecttolerance="10" borderopacity="1" bordercolor="#666666" pagecolor="#ffffff" id="namedview11726" inkscape:cx="22.318501" inkscape:cy="22.318501" inkscape:window-x="0" inkscape:current-layer="Layer_1" showgrid="false" inkscape:window-maximized="0">
	</sodipodi:namedview>
<g id="g11706">
	<g id="g11708">
	</g>
	<g id="g11712">
	</g>
	<g id="g11716">
	</g>
	<g id="g11720">
	</g>
</g>
<g id="Livello_1_2_">
</g>
<g>
	<path d="M0,0v44.637h44.637V0H0z M22.32,43.061c-11.498,0-20.812-9.312-20.812-20.812c0-11.5,9.312-20.821,20.812-20.821
		c11.496,0,20.816,9.321,20.816,20.821C43.136,33.743,33.816,43.064,22.32,43.061z"/>
	<path d="M22.465,3.102c-10.573,0-19.146,8.572-19.146,19.146c0,10.566,8.573,19.143,19.146,19.143
		c10.577,0,19.144-8.574,19.145-19.143C41.61,11.673,33.039,3.102,22.465,3.102z M28.988,36.445l-0.446,0.638H16.794l-0.446-0.446
		V8.789V8.756V7.161l0.83-0.957h2.999l1.989,1.315v1.237h6.823V36.445z"/>
	<polygon points="20.997,7.908 20.115,7.275 18.007,7.275 17.56,7.736 17.56,8.756 21.005,8.756 	"/>
	<path d="M27.307,25.706V22.42H23.47v3.793h3.218L27.307,25.706z M26.021,24.776H25.01v-1.138h1.011V24.776z"/>
	<path d="M22.001,22.42h-3.843v3.286l0.619,0.507h3.224V22.42z M20.456,24.776h-1.012v-1.138h1.012V24.776z"/>
	<polygon points="21.568,30.885 21.949,31.46 23.47,31.46 23.85,30.823 23.85,29.69 21.568,29.69 	"/>
</g>
</svg>
