<?xml version="1.0" encoding="utf-8"?>
<!-- Generator: Adobe Illustrator 15.1.0, SVG Export Plug-In . SVG Version: 6.00 Build 0)  -->
<!DOCTYPE svg PUBLIC "-//W3C//DTD SVG 1.1//EN" "http://www.w3.org/Graphics/SVG/1.1/DTD/svg11.dtd">
<svg version="1.1"
	 id="Layer_1" sodipodi:docname="ecobee.svg" inkscape:version="0.48.2 r9819" xmlns:svg="http://www.w3.org/2000/svg" xmlns:rdf="http://www.w3.org/1999/02/22-rdf-syntax-ns#" xmlns:dc="http://purl.org/dc/elements/1.1/" xmlns:inkscape="http://www.inkscape.org/namespaces/inkscape" xmlns:sodipodi="http://sodipodi.sourceforge.net/DTD/sodipodi-0.dtd" xmlns:cc="http://creativecommons.org/ns#"
	 xmlns="http://www.w3.org/2000/svg" xmlns:xlink="http://www.w3.org/1999/xlink" x="0px" y="0px" width="44.637px"
	 height="44.637px" viewBox="0 0 44.637 44.637" enable-background="new 0 0 44.637 44.637" xml:space="preserve">
<g>
	<path d="M24.87,30.826c1.217,0.554,2.604,0.543,4.018-0.026c2.075-0.837,3.771-3.33,3.013-6.056
		c-0.423-1.52-1.346-2.575-2.847-3.25v7.828h-6.071C23.516,29.982,24.156,30.502,24.87,30.826z"/>
	<path d="M22.465,3.176C11.892,3.176,3.32,11.747,3.32,22.32c0,10.573,8.571,19.146,19.146,19.146S41.61,32.895,41.61,22.321
		C41.61,11.748,33.039,3.176,22.465,3.176z M35.563,32.568c-1.742,2.263-4.499,3.884-7.193,4.231
		c-0.514,0.065-1.021,0.098-1.519,0.098c-4.782,0-8.782-2.971-10.229-7.572H9.941V10.328h19.113v5.216
		c4.323,0.92,7.5,3.94,8.442,8.169C38.192,26.847,37.487,30.074,35.563,32.568z"/>
	<path d="M29.054,17.597v1.76c2.507,0.87,4.115,2.491,4.773,4.853c1.056,3.805-1.304,7.282-4.19,8.444
		c-0.963,0.391-1.927,0.583-2.865,0.583c-0.941,0-1.86-0.194-2.729-0.59c-1.425-0.646-2.632-1.827-3.454-3.323h-1.863
		c1.612,4.195,5.715,5.967,9.386,5.49c2.188-0.28,4.438-1.609,5.866-3.468c1.562-2.021,2.132-4.646,1.565-7.198
		C34.797,20.801,32.418,18.446,29.054,17.597z"/>
	<path d="M-0.1,0V44.73h44.737V0H-0.1z M22.32,43.138c-11.498,0-20.812-9.322-20.812-20.818C1.501,10.823,10.821,1.5,22.32,1.5
		c11.496,0,20.816,9.323,20.816,20.812C43.136,33.815,33.816,43.138,22.32,43.138z"/>
	<path d="M17.354,23.373c0.894-2.746,3.039-4.301,3.578-6.396c0.539-2.095-3.986-7.043-2.521-5.235
		c1.467,1.804-0.727,4.544-3.42,9.157c-2.69,4.611,3.33,6.938,3.811,6.982C19.282,27.924,16.461,26.117,17.354,23.373z"/>
	<path d="M20.99,20.354c-0.501,0.781-1.039,1.291-1.965,2.957c-0.925,1.668,0.963,3.309,0.602,2.746
		c-0.36-0.566,0.078-1.712,0.65-2.406c0.573-0.693,0.959-1.235,1.343-1.793c0.762-1.121,0.963-1.835,0.966-2.454
		c0.003-0.621-0.004-0.817-0.248-1.485c-0.246-0.667-0.804-1.538-0.511-0.945c0.146,0.297,0.215,0.84,0.053,1.48
		C21.718,19.096,21.49,19.573,20.99,20.354z"/>
	<path d="M20.895,25.455c-0.414,1.109-0.347,2.391-0.115,1.979c0.232-0.416,0.235-0.682,1.939-2.195
		c1.703-1.513,1.96-2.671,1.97-3.657c0.01-0.987-0.204-1.432-0.585-2.034c-0.379-0.604-0.909-1.545-0.459-0.7
		c0.451,0.844,0.096,2.428-0.466,3.477C22.616,23.373,21.309,24.349,20.895,25.455z"/>
</g>
</svg>
