<?xml version="1.0" encoding="utf-8"?>
<!-- Generator: Adobe Illustrator 15.1.0, SVG Export Plug-In . SVG Version: 6.00 Build 0)  -->
<!DOCTYPE svg PUBLIC "-//W3C//DTD SVG 1.1//EN" "http://www.w3.org/Graphics/SVG/1.1/DTD/svg11.dtd">
<svg version="1.1"
	 id="Layer_1" sodipodi:docname="ecobee.svg" inkscape:version="0.48.2 r9819" xmlns:inkscape="http://www.inkscape.org/namespaces/inkscape" xmlns:svg="http://www.w3.org/2000/svg" xmlns:dc="http://purl.org/dc/elements/1.1/" xmlns:rdf="http://www.w3.org/1999/02/22-rdf-syntax-ns#" xmlns:sodipodi="http://sodipodi.sourceforge.net/DTD/sodipodi-0.dtd" xmlns:cc="http://creativecommons.org/ns#"
	 xmlns="http://www.w3.org/2000/svg" xmlns:xlink="http://www.w3.org/1999/xlink" x="0px" y="0px" width="44.637px"
	 height="44.637px" viewBox="0 0 44.637 44.637" enable-background="new 0 0 44.637 44.637" xml:space="preserve">
<g>
	<path d="M24.87,30.826c1.217,0.554,2.604,0.543,4.018-0.026c2.075-0.837,3.771-3.33,3.013-6.056
		c-0.423-1.521-1.346-2.575-2.847-3.25v7.828h-6.071C23.516,29.982,24.156,30.502,24.87,30.826z"/>
	<path d="M29.054,17.597v1.76c2.507,0.87,4.115,2.491,4.773,4.854c1.056,3.805-1.307,7.282-4.19,8.441
		c-0.963,0.394-1.927,0.583-2.865,0.583s-1.857-0.191-2.729-0.59c-1.425-0.646-2.632-1.827-3.454-3.32h-1.863
		c1.612,4.192,5.715,5.967,9.386,5.487c2.188-0.277,4.438-1.606,5.866-3.468c1.562-2.021,2.132-4.646,1.565-7.198
		C34.797,20.801,32.418,18.446,29.054,17.597z"/>
	<path d="M-0.1,0v44.729h44.737V0H-0.1z M22.32,43.138c-11.498,0-20.812-9.322-20.812-20.818C1.501,10.823,10.821,1.5,22.32,1.5
		c11.496,0,20.816,9.323,20.816,20.812C43.136,33.815,33.816,43.138,22.32,43.138z"/>
	<path d="M22.466,3.176c-10.573,0-19.146,8.571-19.146,19.145c0,10.574,8.572,19.146,19.146,19.146s19.145-8.571,19.145-19.146
		C41.611,11.747,33.039,3.176,22.466,3.176z M35.564,32.567c-1.742,2.265-4.499,3.886-7.19,4.231
		c-0.517,0.066-1.022,0.098-1.521,0.098c-4.783,0-8.783-2.97-10.229-7.569H9.941V10.328h19.113v5.216
		c4.323,0.92,7.5,3.938,8.444,8.169C38.193,26.846,37.488,30.074,35.564,32.567z"/>
	<path d="M20.758,24.65c0.866,0.022,1.54-0.261,2.027-0.876c0.598-0.717,0.948-2.017,0.983-3.322
		c0.03-1.033-0.157-2.092-0.479-2.825c-0.493-1.028-1.203-1.521-2.262-1.541c-0.948-0.023-1.62,0.25-2.131,0.867
		c-0.579,0.773-0.951,1.986-0.99,3.344c-0.026,0.989,0.185,2.092,0.509,2.806C18.884,24.13,19.6,24.622,20.758,24.65z
		 M19.616,18.398c0.288-0.689,0.691-1.006,1.281-0.987c0.025,0.003,0.052,0.003,0.073,0c0.495,0.052,0.807,0.229,1.058,0.674
		c0.311,0.562,0.463,1.406,0.438,2.333c-0.021,0.641-0.188,1.449-0.375,1.875c-0.307,0.721-0.693,1.031-1.294,1.018
		c-0.534-0.016-0.876-0.231-1.125-0.672c-0.308-0.521-0.454-1.43-0.431-2.305C19.262,19.638,19.394,18.887,19.616,18.398z"/>
	<path d="M26.788,22.596l-0.234,0.124l-0.246,0.134l-0.26,0.127c-0.07,0.054-0.134,0.103-0.224,0.146
		c-0.344,0.243-0.664,0.54-0.87,0.897c-0.281,0.456-0.419,0.904-0.448,1.469l3.294,0.084l0.021-0.771l-2.379-0.063
		c0.253-0.531,0.515-0.814,0.976-1.074l0.246-0.128l0.267-0.131l0.234-0.146c0.062-0.025,0.133-0.077,0.207-0.132
		c0.323-0.271,0.507-0.646,0.514-1.014c0.023-0.793-0.683-1.457-1.606-1.481c-0.852-0.021-1.484,0.447-1.675,1.242l0.763,0.187
		c0.093-0.433,0.401-0.666,0.896-0.649c0.479,0.012,0.87,0.312,0.866,0.671C27.123,22.283,26.976,22.48,26.788,22.596z"/>
	<polygon points="15.698,21.437 12.649,16.088 11.324,16.088 11.324,24.461 12.649,24.461 12.649,18.788 15.848,24.461 
		17.023,24.461 17.023,16.088 15.698,16.088 	"/>
</g>
</svg>
