<?xml version="1.0" encoding="utf-8"?>
<!-- Generator: Adobe Illustrator 15.1.0, SVG Export Plug-In . SVG Version: 6.00 Build 0)  -->
<!DOCTYPE svg PUBLIC "-//W3C//DTD SVG 1.1//EN" "http://www.w3.org/Graphics/SVG/1.1/DTD/svg11.dtd">
<svg version="1.1"
	 id="Layer_1" sodipodi:docname="ecobee.svg" inkscape:version="0.48.2 r9819" xmlns:svg="http://www.w3.org/2000/svg" xmlns:rdf="http://www.w3.org/1999/02/22-rdf-syntax-ns#" xmlns:dc="http://purl.org/dc/elements/1.1/" xmlns:inkscape="http://www.inkscape.org/namespaces/inkscape" xmlns:sodipodi="http://sodipodi.sourceforge.net/DTD/sodipodi-0.dtd" xmlns:cc="http://creativecommons.org/ns#"
	 xmlns="http://www.w3.org/2000/svg" xmlns:xlink="http://www.w3.org/1999/xlink" x="0px" y="0px" width="44.637px"
	 height="44.637px" viewBox="0 0 44.637 44.637" enable-background="new 0 0 44.637 44.637" xml:space="preserve">
<g>
	<path d="M24.87,30.826c1.217,0.554,2.604,0.543,4.018-0.026c2.075-0.837,3.771-3.33,3.013-6.056
		c-0.423-1.521-1.346-2.575-2.847-3.25v7.828h-6.071C23.516,29.982,24.156,30.502,24.87,30.826z"/>
	<path d="M22.465,3.176C11.892,3.176,3.32,11.747,3.32,22.32c0,10.573,8.571,19.146,19.146,19.146S41.61,32.895,41.61,22.321
		C41.61,11.748,33.039,3.176,22.465,3.176z M35.563,32.568c-1.742,2.265-4.499,3.886-7.191,4.231
		c-0.516,0.065-1.021,0.098-1.521,0.098c-4.782,0-8.782-2.971-10.229-7.57H9.941V10.328h19.113v5.216
		c4.323,0.92,7.5,3.938,8.442,8.169C38.192,26.847,37.487,30.074,35.563,32.568z"/>
	<path d="M29.054,17.597v1.76c2.507,0.87,4.115,2.491,4.773,4.854c1.056,3.805-1.306,7.282-4.19,8.442
		c-0.963,0.393-1.927,0.583-2.865,0.583c-0.939,0-1.858-0.192-2.729-0.59c-1.425-0.646-2.632-1.827-3.454-3.321h-1.863
		c1.612,4.193,5.715,5.967,9.386,5.488c2.188-0.278,4.438-1.607,5.866-3.468c1.562-2.021,2.132-4.646,1.565-7.198
		C34.797,20.801,32.418,18.446,29.054,17.597z"/>
	<path d="M-0.1,0V44.73h44.737V0H-0.1z M22.32,43.138c-11.498,0-20.812-9.322-20.812-20.818C1.501,10.823,10.821,1.5,22.32,1.5
		c11.496,0,20.816,9.323,20.816,20.812C43.136,33.815,33.816,43.138,22.32,43.138z"/>
	<path d="M22.724,25.377c0.985-0.573,1.764-1.355,2.338-2.34c0.574-0.988,0.863-2.068,0.863-3.239c0-1.167-0.289-2.243-0.863-3.228
		c-0.574-0.982-1.354-1.764-2.338-2.338c-0.99-0.573-2.071-0.86-3.239-0.86c-1.166,0-2.24,0.286-3.226,0.86
		s-1.764,1.354-2.339,2.338c-0.574,0.985-0.861,2.061-0.861,3.228c0,1.171,0.287,2.251,0.861,3.239
		c0.575,0.984,1.354,1.767,2.339,2.34c0.984,0.574,2.059,0.86,3.226,0.86C20.654,26.24,21.735,25.951,22.724,25.377z M16.457,22.841
		c-0.386-0.387-0.69-0.845-0.916-1.375c-0.228-0.531-0.339-1.086-0.339-1.668c0-0.581,0.111-1.134,0.339-1.662
		c0.226-0.527,0.53-0.983,0.916-1.368c0.385-0.385,0.841-0.688,1.369-0.916c0.525-0.227,1.079-0.339,1.659-0.339v8.583
		c-0.578,0-1.134-0.113-1.659-0.339C17.298,23.531,16.842,23.227,16.457,22.841z"/>
</g>
</svg>
