<?xml version="1.0" encoding="utf-8"?>
<!-- Generator: Adobe Illustrator 15.1.0, SVG Export Plug-In . SVG Version: 6.00 Build 0)  -->
<!DOCTYPE svg PUBLIC "-//W3C//DTD SVG 1.1//EN" "http://www.w3.org/Graphics/SVG/1.1/DTD/svg11.dtd">
<svg version="1.1"
	 id="Layer_1" xmlns:inkscape="http://www.inkscape.org/namespaces/inkscape" inkscape:version="0.48.1 r9760" xmlns:cc="http://creativecommons.org/ns#" xmlns:rdf="http://www.w3.org/1999/02/22-rdf-syntax-ns#" sodipodi:docname="insteon_LED.svg" xmlns:dc="http://purl.org/dc/elements/1.1/" xmlns:sodipodi="http://sodipodi.sourceforge.net/DTD/sodipodi-0.dtd" xmlns:svg="http://www.w3.org/2000/svg"
	 xmlns="http://www.w3.org/2000/svg" xmlns:xlink="http://www.w3.org/1999/xlink" x="0px" y="0px" width="44.637px"
	 height="44.637px" viewBox="0 0 44.637 44.637" enable-background="new 0 0 44.637 44.637" xml:space="preserve">
<sodipodi:namedview  pagecolor="#ffffff" objecttolerance="10" borderopacity="1" id="namedview11726" inkscape:window-width="1910" bordercolor="#666666" gridtolerance="10" guidetolerance="10" inkscape:pageopacity="0" inkscape:pageshadow="2" inkscape:window-height="1156" showgrid="false" inkscape:zoom="21.013957" inkscape:cx="22.318501" inkscape:cy="22.318501" inkscape:window-x="0" inkscape:window-y="0" inkscape:window-maximized="0" inkscape:current-layer="Layer_1">
	</sodipodi:namedview>
<g id="g11706">
	<g id="g11708">
	</g>
	<g id="g11712">
	</g>
	<g id="g11716">
	</g>
	<g id="g11720">
	</g>
</g>
<g>
	<g>
		<path fill="#020202" d="M15.62,16.83c-0.204,0.436-0.054,2.295-0.002,2.929c0.055,0.669,0.098,1.183,0.064,1.502
			c-0.011,0.211,0.367,1.614,0.892,3.171l0.019,0.071c0.719,3.598,5.617,10.884,6.592,12.308c0.01,0.018,0.312,0.331,1.22,0.331
			c0.578,0,1.271-0.125,2.059-0.372c2.229-0.695,2.858-1.547,3.025-1.881c0.113-0.226,0.14-0.44,0.076-0.62l-0.018-0.062
			c-0.004-0.018-0.358-1.53,0.172-2.761c0.414-0.957,0.549-3.042,0.593-3.728c0.004-0.07,0.011-0.161,0.02-0.27l0.019-0.229
			c0.287-3.65,0.15-4.741-0.014-5.021c-0.124-0.207-0.233-0.46-0.351-0.728c-0.354-0.811-0.643-1.349-0.998-1.618
			c0.208,0.598,0.435,1.226,0.591,1.649l0.087,0.234l-1.094,0.407l-0.088-0.233c-0.01-0.025-0.987-2.677-1.137-3.369
			c-0.044-0.19-0.303-1.105-1.186-1.22c0.289,1.14,0.823,3.032,0.828,3.049l0.071,0.242l-1.134,0.321l-0.115-0.427
			c-0.2-0.715-0.808-2.89-0.944-3.589c-0.068-0.336-0.296-0.82-0.712-1.074c-0.275-0.166-0.616-0.219-1.006-0.157
			c0.555,2.145,1.083,3.591,1.531,4.191l0.149,0.2l-0.932,0.699l-0.15-0.2c-0.997-1.328-1.881-5.032-2.459-7.703l-0.117-0.542
			c-0.149-0.69-0.54-2.494-1.054-2.796c-0.034-0.02-0.053-0.023-0.067-0.023c-0.401,0.295-0.068,3.287,0.092,4.725
			c0.15,1.362,0.315,2.857,0.376,4.277c0.188,4.396-0.354,6.29-0.376,6.368l-0.071,0.24l-1.078-0.317l0.021-0.207
			c0.073-0.299,0.137-0.656,0.19-1.054c-1.46-0.373-2.096-2.408-2.167-2.65l-0.027-0.139c0.007-0.164,0.1-2.695-0.794-3.633
			C16.044,16.946,15.853,16.851,15.62,16.83z"/>
	</g>
	<path d="M22.465,3.102c-10.573,0-19.146,8.572-19.146,19.146c0,10.569,8.573,19.143,19.146,19.143
		c10.577,0,19.144-8.574,19.145-19.143C41.61,11.673,33.039,3.102,22.465,3.102z M24.114,6.268L23.825,5.65l2.409,0.876
		l-0.878,2.408l-0.301-0.646L23.244,9.13l-0.938-2.018L24.114,6.268z M14.178,10.152l0.302,0.646l1.811-0.844l0.941,2.019
		l-1.81,0.844l0.288,0.62l-2.408-0.876L14.178,10.152z M31.265,27.291c-0.017,0.207-0.028,0.373-0.035,0.481
		c-0.081,1.261-0.239,3.047-0.669,4.037c-0.369,0.859-0.151,2.021-0.123,2.172c0.14,0.41,0.092,0.875-0.129,1.317
		c-0.332,0.664-1.223,1.613-3.573,2.348c-0.978,0.306-1.744,0.415-2.341,0.415c-1.396,0-1.874-0.596-1.938-0.688
		c-0.246-0.351-5.924-8.559-6.762-12.669c-0.239-0.719-0.979-2.985-0.927-3.533c0.023-0.235-0.02-0.761-0.065-1.319
		c-0.145-1.771-0.216-3.166,0.28-3.707c0.145-0.155,0.328-0.237,0.533-0.238h0.01c0.529,0,0.984,0.195,1.354,0.584
		c1.11,1.163,1.069,3.75,1.052,4.194c0.101,0.299,0.656,1.852,1.615,1.987c0.082-0.978,0.129-2.335,0.054-4.118
		c-0.059-1.402-0.225-2.896-0.372-4.212c-0.356-3.231-0.594-5.366,0.497-5.696c0.298-0.09,0.594-0.056,0.856,0.1
		c0.801,0.471,1.176,1.936,1.488,3.396l0.117,0.542c0.104,0.479,0.277,1.271,0.493,2.167c0.744-0.19,1.398-0.123,1.949,0.21
		c0.619,0.376,0.912,0.96,1.046,1.351c1.649-0.188,2.388,1.12,2.567,1.938c0.019,0.087,0.055,0.22,0.104,0.381
		c1.426-0.027,2.04,1.374,2.456,2.324c0.112,0.258,0.218,0.503,0.321,0.678C31.579,22.496,31.461,24.858,31.265,27.291z"/>
	<path d="M0,0v44.637h44.637V0H0z M22.32,43.061c-11.498,0-20.812-9.315-20.812-20.812c0-11.5,9.314-20.821,20.812-20.821
		c11.496,0,20.816,9.321,20.816,20.821C43.136,33.744,33.816,43.064,22.32,43.061z"/>
</g>
</svg>
