<?xml version="1.0" encoding="utf-8"?>
<!-- Generator: Adobe Illustrator 15.1.0, SVG Export Plug-In . SVG Version: 6.00 Build 0)  -->
<!DOCTYPE svg PUBLIC "-//W3C//DTD SVG 1.1//EN" "http://www.w3.org/Graphics/SVG/1.1/DTD/svg11.dtd">
<svg version="1.1"
	 id="Layer_1" sodipodi:docname="ecobee.svg" inkscape:version="0.48.2 r9819" xmlns:svg="http://www.w3.org/2000/svg" xmlns:rdf="http://www.w3.org/1999/02/22-rdf-syntax-ns#" xmlns:dc="http://purl.org/dc/elements/1.1/" xmlns:inkscape="http://www.inkscape.org/namespaces/inkscape" xmlns:sodipodi="http://sodipodi.sourceforge.net/DTD/sodipodi-0.dtd" xmlns:cc="http://creativecommons.org/ns#"
	 xmlns="http://www.w3.org/2000/svg" xmlns:xlink="http://www.w3.org/1999/xlink" x="0px" y="0px" width="44.637px"
	 height="44.637px" viewBox="0 0 44.637 44.637" enable-background="new 0 0 44.637 44.637" xml:space="preserve">
<g>
	<path d="M24.87,30.826c1.217,0.554,2.604,0.543,4.018-0.026c2.075-0.837,3.771-3.33,3.013-6.056
		c-0.423-1.52-1.346-2.575-2.847-3.25v7.828h-6.071C23.516,29.982,24.156,30.502,24.87,30.826z"/>
	<path d="M22.465,3.176C11.892,3.176,3.32,11.747,3.32,22.32c0,10.573,8.571,19.146,19.146,19.146S41.61,32.895,41.61,22.321
		C41.61,11.748,33.039,3.176,22.465,3.176z M35.563,32.568c-1.742,2.263-4.499,3.884-7.193,4.231
		c-0.514,0.065-1.021,0.098-1.519,0.098c-4.782,0-8.782-2.971-10.229-7.572H9.941V10.328h19.113v5.216
		c4.323,0.92,7.5,3.94,8.442,8.169C38.192,26.847,37.487,30.074,35.563,32.568z"/>
	<path d="M29.054,17.597v1.76c2.507,0.87,4.115,2.491,4.773,4.853c1.056,3.805-1.304,7.282-4.19,8.444
		c-0.963,0.391-1.927,0.583-2.865,0.583c-0.941,0-1.86-0.194-2.729-0.59c-1.424-0.646-2.631-1.827-3.454-3.322h-1.863
		c1.612,4.194,5.714,5.966,9.385,5.489c2.188-0.28,4.438-1.609,5.866-3.468c1.562-2.021,2.132-4.646,1.565-7.198
		C34.797,20.801,32.418,18.446,29.054,17.597z"/>
	<path d="M-0.1,0V44.73h44.737V0H-0.1z M22.32,43.138c-11.498,0-20.812-9.322-20.812-20.818C1.501,10.823,10.821,1.5,22.32,1.5
		c11.496,0,20.816,9.323,20.816,20.812C43.136,33.815,33.816,43.138,22.32,43.138z"/>
	<path d="M20.589,29.323L20.589,29.323l1.741,0.001c-0.072-0.445-0.14-0.922-0.198-1.461l-0.076-0.77
		c-0.031-0.416-0.061-0.861-0.077-1.367c0.044-0.219,0.044-0.412,0.215-0.695c0.386-0.824,0.578-1.746,0.706-2.929
		c0.084-0.767,0.326-1.072,0.455-1.364c0.018,0.038,0.836-0.943,1.536-1.937c0.432-0.614,0.896-1.192,0.951-1.249
		c0.217-0.201,0.48-0.898,0.432-0.874c0.295-0.61-0.01-0.688-0.588-0.55c-0.369,0.228-0.658,0.579-0.961,0.905
		c-0.748,0.752-1.407,1.517-2.341,2.237c-0.493,0.107-0.592-0.029-0.604-0.556l0.315-1.213l0.213-0.915
		c0.084-1.273,0.363-2.028,0.547-3.038c0.064-1.306-1.006-1.155-1.228-0.507l-0.403,1.771l-0.201,0.87l-0.634,1.985
		c-0.236,0.24-0.533,0.693-0.517,0l0.101-1.081c-0.052-0.5-0.087-1.067-0.075-1.596c-0.086-0.979-0.067-1.834,0-2.59
		c0.065-0.486-0.309-0.973-0.686-0.977c-0.291-0.001-0.588,0.289-0.68,1.103l-0.138,1.769l-0.103,1.568l0.014,1.894
		c-0.082,0.409-0.309,0.394-0.556,0.303c-1.055-1.318-1.18-3.355-1.895-4.888c-0.658-1.014-1.165-0.617-1.341,0.253
		c0.112,0.722,0.244,1.183,0.393,1.503l0.264,0.998c0.13,0.627,0.261,1.292,0.391,1.653l0.266,1.086l0.353,1.771
		c0.058,0.439,0.088,0.871-0.152,1.212c0,0-1.489-0.126-1.478-0.326c-0.521-0.675-1.126-1.143-1.678-1.511
		c-0.878-0.584-1.731-0.374-1.806,0.025c-0.03,0.186,0.183,0.338,0.414,0.564c0.25,0.105,0.406,0.441,0.627,0.696
		c0.242,0.277,0.403,0.632,0.711,0.867c0.371,0.284,0.553,0.758,0.821,1.099c0.425,1.029,0.91,1.896,1.578,2.387
		c0.645,0.547,1.044,1.094,1.343,1.646l0.368,0.77c0.111,0.26,0.215,0.525,0.325,0.789c0.081,0.242,0.157,0.457,0.215,0.668h1.257
		l0-0.001H20.589z"/>
</g>
</svg>
