<?xml version="1.0" encoding="utf-8"?>
<!-- Generator: Adobe Illustrator 15.1.0, SVG Export Plug-In . SVG Version: 6.00 Build 0)  -->
<!DOCTYPE svg PUBLIC "-//W3C//DTD SVG 1.1//EN" "http://www.w3.org/Graphics/SVG/1.1/DTD/svg11.dtd">
<svg version="1.1"
	 id="Layer_1" sodipodi:docname="ecobee.svg" inkscape:version="0.48.2 r9819" xmlns:rdf="http://www.w3.org/1999/02/22-rdf-syntax-ns#" xmlns:cc="http://creativecommons.org/ns#" xmlns:dc="http://purl.org/dc/elements/1.1/" xmlns:inkscape="http://www.inkscape.org/namespaces/inkscape" xmlns:sodipodi="http://sodipodi.sourceforge.net/DTD/sodipodi-0.dtd" xmlns:svg="http://www.w3.org/2000/svg"
	 xmlns="http://www.w3.org/2000/svg" xmlns:xlink="http://www.w3.org/1999/xlink" x="0px" y="0px" width="44.637px"
	 height="44.637px" viewBox="0 0 44.637 44.637" enable-background="new 0 0 44.637 44.637" xml:space="preserve">
<title>Layer 1</title>
<g>
	<path fill="none" d="M22.32,1.5C10.821,1.5,1.501,10.823,1.508,22.32c0,11.496,9.312,20.818,20.812,20.818
		c11.496,0,20.816-9.323,20.816-20.826C43.136,10.823,33.816,1.5,22.32,1.5z M22.466,41.466c-10.575,0-19.146-8.573-19.146-19.146
		c0-10.57,8.572-19.144,19.146-19.144s19.145,8.572,19.145,19.145C41.61,32.895,33.041,41.466,22.466,41.466z"/>
	<path d="M-0.1,0V44.73h44.737V0H-0.1z M22.32,43.138c-11.498,0-20.812-9.322-20.812-20.818C1.501,10.823,10.821,1.5,22.32,1.5
		c11.496,0,20.816,9.323,20.816,20.812C43.136,33.815,33.816,43.138,22.32,43.138z"/>
</g>
<g>
	<path d="M15.924,11.284c0.007,0,0.015,0,0.022,0l0,0c0.493,0,0.946,0.2,1.349,0.523c-0.01-0.056-0.022-0.108-0.033-0.162
		c-0.036-0.177-0.074-0.35-0.118-0.508c-0.012-0.044-0.025-0.086-0.038-0.129c-0.054-0.18-0.111-0.35-0.174-0.503
		c-0.006-0.016-0.013-0.031-0.019-0.046c-0.07-0.168-0.144-0.319-0.221-0.451c-0.003-0.005-0.006-0.01-0.009-0.015
		c-0.074-0.126-0.15-0.23-0.227-0.32c-0.012-0.013-0.023-0.028-0.035-0.041c-0.062-0.068-0.124-0.117-0.185-0.16
		c-0.027-0.019-0.054-0.041-0.082-0.055c-0.059-0.031-0.116-0.047-0.171-0.053c-0.017-0.003-0.039-0.007-0.052-0.009
		c-0.421,0.013-0.961,0.794-1.261,2.098C15.348,11.299,15.806,11.284,15.924,11.284z"/>
	<path d="M30.96,10.852c-2.003,0-3.633,1.63-3.633,3.633c0,2.004,1.63,3.634,3.633,3.634s3.633-1.63,3.633-3.634
		C34.593,12.482,32.963,10.852,30.96,10.852z"/>
	<path d="M15.946,19.284c1.03,0,1.9-1.603,1.9-3.5c0-1.896-0.87-3.5-1.9-3.5c-1.029,0-1.899,1.604-1.899,3.5c0,0.01,0,0.017,0,0.026
		c0.007,1.606,0.638,2.988,1.458,3.364c0.027,0.009,0.048,0.02,0.077,0.028l-0.003,0.011C15.698,19.259,15.821,19.284,15.946,19.284
		z"/>
	<g>
		<path d="M22.465,3.176C11.892,3.176,3.32,11.747,3.32,22.32c0,10.573,8.571,19.146,19.146,19.146S41.61,32.895,41.61,22.321
			C41.61,11.748,33.039,3.176,22.465,3.176z M24.534,19.701c3.246,0.628,4.581,2.484,4.998,3.236
			c-0.613,0.405-2.474,1.306-6.898,1.306l-0.386-0.002c-4.674-0.053-6.735-1.073-7.435-1.539c0.547-0.74,2.112-2.439,5.249-3.015
			c0.237-0.043,0.41-0.25,0.41-0.492V14.26c0.856,0.104,2.551,0.207,3.657,0.038v4.913C24.129,19.45,24.299,19.656,24.534,19.701z
			 M23.688,13.346c-0.318,0.034-0.669,0.053-1.057,0.053c-0.557,0-1.094-0.037-1.537-0.079c0.211-0.283,0.578-0.568,1.206-0.578
			C23.131,12.728,23.49,12.98,23.688,13.346z M13.566,19.677l0.019-0.015c-1.797-0.598-4.352-1.695-4.775-3.203
			c-0.132-0.467-0.125-1.186,0.651-1.962c1.5-1.499,2.969-2.295,4.131-2.722c0.332-2.031,1.229-3.425,2.354-3.425V8.35
			c0.145,0,0.289,0.023,0.43,0.068c1.254,0.244,4.654,1.1,5.953,3.325c-0.016,0-0.029-0.002-0.045-0.002
			c-1.273,0.021-1.961,0.799-2.266,1.452c-0.131-0.01-0.265,0.023-0.368,0.11c-0.112,0.095-0.177,0.234-0.177,0.381v0.552h-0.808
			c0.089,0.387,0.143,0.799,0.162,1.23h0.646v1.703c-0.284,0.152-0.575,0.297-0.87,0.438c-0.192,0.689-0.496,1.272-0.872,1.724
			c-0.74,0.987-1.318,0.972-1.786,0.953c-0.234,0-0.457-0.051-0.673-0.129c-0.241-0.059-0.879-0.224-1.678-0.489L13.566,19.677z
			 M29.705,35.58c-0.411,0.359-2.2,1.577-7.556,1.604c-0.063,0-0.126,0-0.188,0c-5.204,0-6.924-1.113-7.315-1.438V23.763
			c1.088,0.603,3.341,1.429,7.591,1.478l0.397,0.002c0,0,0,0,0,0c4.003,0,6.069-0.7,7.071-1.241V35.58z M30.96,19.118
			c-2.07,0-3.807-1.374-4.398-3.251c-0.042-0.133-0.095-0.262-0.125-0.4h-1.308v-1.23h1.224c0.007-0.135,0.021-0.269,0.04-0.4
			c0.319-2.246,2.234-3.984,4.567-3.984c2.555,0,4.633,2.078,4.633,4.633C35.593,17.04,33.515,19.118,30.96,19.118z"/>
	</g>
</g>
</svg>
