<?xml version="1.0" encoding="utf-8"?>
<!-- Generator: Adobe Illustrator 15.1.0, SVG Export Plug-In . SVG Version: 6.00 Build 0)  -->
<!DOCTYPE svg PUBLIC "-//W3C//DTD SVG 1.1//EN" "http://www.w3.org/Graphics/SVG/1.1/DTD/svg11.dtd">
<svg version="1.1"
	 id="Layer_1" sodipodi:docname="ecobee.svg" inkscape:version="0.48.2 r9819" xmlns:inkscape="http://www.inkscape.org/namespaces/inkscape" xmlns:svg="http://www.w3.org/2000/svg" xmlns:dc="http://purl.org/dc/elements/1.1/" xmlns:rdf="http://www.w3.org/1999/02/22-rdf-syntax-ns#" xmlns:sodipodi="http://sodipodi.sourceforge.net/DTD/sodipodi-0.dtd" xmlns:cc="http://creativecommons.org/ns#"
	 xmlns="http://www.w3.org/2000/svg" xmlns:xlink="http://www.w3.org/1999/xlink" x="0px" y="0px" width="44.637px"
	 height="44.637px" viewBox="0 0 44.637 44.637" enable-background="new 0 0 44.637 44.637" xml:space="preserve">
<g>
	<path d="M17.606,22.194c-0.34,0.659-0.755,0.94-1.312,0.937c-0.575-0.021-0.939-0.238-1.229-0.675
		c-0.304-0.527-0.479-1.438-0.46-2.338c0.024-0.7,0.146-1.41,0.375-1.901c0.304-0.724,0.764-1.01,1.429-0.988
		c0.63,0.017,0.895,0.194,1.333,0.91l1.23-0.49c-0.521-1.172-1.289-1.723-2.534-1.756c-0.934-0.021-1.639,0.281-2.146,0.873
		c-0.603,0.711-0.979,2.008-1.017,3.316c-0.024,1.038,0.184,2.094,0.531,2.832c0.504,1.025,1.271,1.516,2.49,1.549
		c1.186,0.031,2.017-0.564,2.538-1.764L17.606,22.194z"/>
	<path d="M24.87,30.826c1.217,0.554,2.604,0.543,4.018-0.026c2.075-0.837,3.771-3.33,3.013-6.056
		c-0.423-1.521-1.346-2.575-2.847-3.25v7.828h-6.071C23.516,29.982,24.156,30.502,24.87,30.826z"/>
	<path d="M22.457,24.65c0.866,0.022,1.54-0.261,2.026-0.876c0.602-0.717,0.951-2.017,0.986-3.322
		c0.03-1.033-0.157-2.092-0.479-2.825c-0.494-1.028-1.204-1.521-2.264-1.541c-0.95-0.023-1.622,0.25-2.131,0.867
		c-0.579,0.773-0.952,1.986-0.992,3.344c-0.024,0.989,0.187,2.092,0.511,2.806C20.583,24.13,21.299,24.622,22.457,24.65z
		 M21.315,18.397c0.29-0.689,0.693-1.006,1.283-0.987c0.025,0.003,0.05,0.003,0.073,0c0.496,0.052,0.807,0.229,1.058,0.674
		c0.31,0.562,0.46,1.406,0.438,2.333c-0.021,0.641-0.188,1.449-0.375,1.875c-0.309,0.721-0.693,1.032-1.294,1.018
		c-0.533-0.016-0.876-0.232-1.124-0.672c-0.31-0.521-0.454-1.43-0.433-2.305C20.961,19.637,21.093,18.886,21.315,18.397z"/>
	<path d="M29.054,17.597v1.76c2.507,0.87,4.115,2.491,4.773,4.854c1.056,3.805-1.306,7.282-4.19,8.442
		c-0.963,0.393-1.927,0.583-2.865,0.583c-0.939,0-1.858-0.192-2.729-0.59c-1.425-0.646-2.632-1.827-3.454-3.321h-1.863
		c1.612,4.193,5.715,5.967,9.386,5.488c2.188-0.278,4.438-1.607,5.866-3.468c1.562-2.021,2.132-4.646,1.565-7.198
		C34.797,20.801,32.418,18.446,29.054,17.597z"/>
	<path d="M-0.1,0v44.729h44.737V0H-0.1z M22.32,43.138c-11.498,0-20.812-9.322-20.812-20.818C1.501,10.823,10.821,1.5,22.32,1.5
		c11.496,0,20.816,9.323,20.816,20.812C43.136,33.815,33.816,43.138,22.32,43.138z"/>
	<path d="M22.466,3.176c-10.573,0-19.146,8.571-19.146,19.145c0,10.574,8.572,19.146,19.146,19.146s19.145-8.571,19.145-19.146
		C41.611,11.747,33.039,3.176,22.466,3.176z M35.564,32.567c-1.742,2.264-4.499,3.885-7.191,4.231
		c-0.516,0.066-1.022,0.098-1.521,0.098c-4.783,0-8.783-2.97-10.229-7.57H9.941V10.328h19.113v5.216
		c4.323,0.92,7.5,3.939,8.444,8.169C38.193,26.846,37.488,30.074,35.564,32.567z"/>
</g>
</svg>
