<?xml version="1.0" encoding="utf-8"?>
<!-- Generator: Adobe Illustrator 15.1.0, SVG Export Plug-In . SVG Version: 6.00 Build 0)  -->
<!DOCTYPE svg PUBLIC "-//W3C//DTD SVG 1.1//EN" "http://www.w3.org/Graphics/SVG/1.1/DTD/svg11.dtd">
<svg version="1.1"
	 id="Layer_1" sodipodi:docname="ecobee.svg" inkscape:version="0.48.2 r9819" xmlns:dc="http://purl.org/dc/elements/1.1/" xmlns:svg="http://www.w3.org/2000/svg" xmlns:rdf="http://www.w3.org/1999/02/22-rdf-syntax-ns#" xmlns:inkscape="http://www.inkscape.org/namespaces/inkscape" xmlns:cc="http://creativecommons.org/ns#" xmlns:sodipodi="http://sodipodi.sourceforge.net/DTD/sodipodi-0.dtd"
	 xmlns="http://www.w3.org/2000/svg" xmlns:xlink="http://www.w3.org/1999/xlink" x="0px" y="0px" width="44.637px"
	 height="44.637px" viewBox="0 0 44.637 44.637" enable-background="new 0 0 44.637 44.637" xml:space="preserve">
<g>
	<path fill="none" d="M22.32,1.5C10.821,1.5,1.501,10.823,1.506,22.32c0,11.496,9.315,20.818,20.813,20.818
		c11.496,0,20.816-9.323,20.816-20.823C43.136,10.823,33.816,1.5,22.32,1.5z M22.466,41.466c-10.575,0-19.146-8.573-19.146-19.146
		c0-10.572,8.572-19.144,19.146-19.144c10.574,0,19.145,8.572,19.145,19.145C41.61,32.895,33.041,41.466,22.466,41.466z"/>
	<path d="M-0.1,0v44.731h44.737V0H-0.1z M22.32,43.138c-11.498,0-20.813-9.322-20.813-20.818C1.501,10.823,10.821,1.5,22.32,1.5
		c11.496,0,20.816,9.323,20.816,20.814C43.136,33.815,33.816,43.138,22.32,43.138z"/>
	<path d="M22.465,3.176C11.892,3.176,3.32,11.747,3.32,22.32c0,10.573,8.571,19.146,19.146,19.146S41.61,32.895,41.61,22.321
		C41.61,11.748,33.039,3.176,22.465,3.176z M17.003,12.451c0.326-1.067,1.011-1.985,1.846-2.652
		c0.821-0.656,1.896-1.231,3.171-1.326c1.507-0.11,2.971,0.281,4.189,0.65c2.397,0.728,4.458,1.967,5.927,3.718
		c0.723,0.861,1.421,1.938,1.612,3.198c0.33,2.181-1.562,2.626-3.328,2.887c-1.143,0.168-2.479,0.068-3.588,0.285
		c-0.241,0.048-0.605,0.21-0.779,0.182c-0.165-0.026-0.428-0.408-0.572-0.546c-0.541-0.509-1.242-0.981-2.132-1.169
		c-1.723-0.365-3.186,0.289-4.137,1.092c-0.73-0.824-1.477-1.503-1.95-2.549C16.792,15.18,16.602,13.76,17.003,12.451z
		 M25.143,22.253c-0.055,1.305-1.046,2.457-2.288,2.676c-0.324,0.058-0.658,0.068-1.043,0c-1.165-0.209-2.312-1.269-2.312-2.78
		c0-0.426,0.162-1.032,0.337-1.353c0.376-0.687,1.12-1.335,2.236-1.43C23.78,19.222,25.215,20.49,25.143,22.253z M16.951,31.611
		c-2.688,0.815-5.191-0.521-6.319-2.21c-1.691-2.534-2.631-7.454-1.3-11.021c0.392-1.05,1.027-2.096,1.768-2.757
		c0.389-0.346,1.011-0.824,1.899-0.702c0.645,0.09,1.236,0.588,1.663,1.015c1.325,1.324,2.104,3.324,3.406,4.549
		c-0.261,0.603-0.392,1.638-0.261,2.445c0.3,1.825,1.663,3.057,3.147,3.611C20.347,29.032,19.323,30.891,16.951,31.611z
		 M34.919,27.035c-0.136,1.101-0.521,1.923-1.041,2.704c-0.935,1.401-2.335,2.722-3.77,3.717c-1.555,1.078-3.408,1.932-5.435,2.055
		c-1.59,0.096-3.265-0.252-3.85-1.301c-0.701-1.255,0.177-3.01,0.649-3.977c0.601-1.226,1.207-2.216,1.536-3.562
		c2.493-0.553,4.123-2.236,3.822-5.406c0.416-0.148,0.847-0.187,1.274-0.286c0.586-0.136,1.213-0.237,1.924-0.183
		c2.29,0.177,3.667,1.562,4.394,3.091C34.85,24.784,35.047,25.977,34.919,27.035z"/>
</g>
</svg>
