<?xml version="1.0" encoding="utf-8"?>
<!-- Generator: Adobe Illustrator 15.1.0, SVG Export Plug-In . SVG Version: 6.00 Build 0)  -->
<!DOCTYPE svg PUBLIC "-//W3C//DTD SVG 1.1//EN" "http://www.w3.org/Graphics/SVG/1.1/DTD/svg11.dtd">
<svg version="1.1"
	 id="Layer_1" sodipodi:docname="ecobee.svg" inkscape:version="0.48.2 r9819" xmlns:dc="http://purl.org/dc/elements/1.1/" xmlns:svg="http://www.w3.org/2000/svg" xmlns:rdf="http://www.w3.org/1999/02/22-rdf-syntax-ns#" xmlns:inkscape="http://www.inkscape.org/namespaces/inkscape" xmlns:cc="http://creativecommons.org/ns#" xmlns:sodipodi="http://sodipodi.sourceforge.net/DTD/sodipodi-0.dtd"
	 xmlns="http://www.w3.org/2000/svg" xmlns:xlink="http://www.w3.org/1999/xlink" x="0px" y="0px" width="44.637px"
	 height="44.637px" viewBox="0 0 44.637 44.637" enable-background="new 0 0 44.637 44.637" xml:space="preserve">
<g>
	<path fill="none" d="M22.32,1.5C10.821,1.5,1.501,10.823,1.506,22.32c0,11.496,9.315,20.818,20.813,20.818
		c11.496,0,20.816-9.323,20.816-20.823C43.136,10.823,33.816,1.5,22.32,1.5z M22.466,41.466c-10.575,0-19.146-8.573-19.146-19.146
		c0-10.572,8.572-19.144,19.146-19.144c10.574,0,19.145,8.572,19.145,19.145C41.61,32.895,33.041,41.466,22.466,41.466z"/>
	<path d="M-0.1,0v44.731h44.737V0H-0.1z M22.32,43.138c-11.498,0-20.813-9.322-20.813-20.818C1.501,10.823,10.821,1.5,22.32,1.5
		c11.496,0,20.816,9.323,20.816,20.814C43.136,33.815,33.816,43.138,22.32,43.138z"/>
	<path d="M22.465,3.176C11.892,3.176,3.32,11.747,3.32,22.32c0,10.573,8.571,19.146,19.146,19.146S41.61,32.895,41.61,22.321
		C41.61,11.748,33.039,3.176,22.465,3.176z M10.279,27.721c-1.28,0-2.588,0.16-2.764-0.607c-0.175-0.768,0.32-1.008,0.829-1.107
		c0.659-0.129,2.034-0.055,3.15-0.055c1.06,0,2.221-0.021,2.265,0.828C13.827,28.063,11.785,27.721,10.279,27.721z M15.805,30.537
		c-0.061,0.557-1.357,1.725-1.714,1.771c-0.567,0.07-1.086-0.312-1.051-0.941c0.031-0.529,1.288-1.676,1.714-1.768
		C15.297,29.481,15.886,29.772,15.805,30.537z M19.728,36.838c-0.312,0.908-1.611,0.67-1.769-0.387
		c-0.101-0.686-0.035-1.453-0.11-2.375c-0.096-1.186-0.454-2.557,0.442-2.82c1.368-0.402,1.252,1.574,1.327,3.039
		C19.665,35.196,19.905,36.326,19.728,36.838z M16.854,22.42c0.031,0.012,0.083-0.017,0.112,0c0.966,0.529,1.82,1.76,2.707,2.649
		c0.946,0.945,1.949,1.779,2.597,2.707C18.645,29.885,14.918,25.854,16.854,22.42z M33.102,14.848
		c-0.432,0.433-0.697,0.754-1.047,1.105c-0.564,0.561-1.947,1.508-2.047,2.266c-0.078,0.615,0.557,1.47,0.773,2.154
		c1.305,4.097-0.25,8.402-2.709,10.498c-2.516-2.236-4.805-4.699-7.183-7.074c-2.376-2.373-4.839-4.663-7.074-7.181
		c2.05-1.879,4.285-3.458,8.345-3.149c0.645,0.049,1.37,0.245,1.991,0.441c0.592,0.188,1.361,0.638,1.824,0.608
		c0.742-0.046,1.816-1.542,2.266-1.989c0.705-0.704,1.375-1.417,2.1-2.101c0.041-0.052,0.1-0.084,0.164-0.11
		c0.811,0.194,1.768,0.604,2.434,1.271c0.4,0.401,1.209,1.435,1.16,2.1C34.069,14.082,33.442,14.508,33.102,14.848z"/>
</g>
</svg>
