<?xml version="1.0" encoding="utf-8"?>
<!-- Generator: Adobe Illustrator 15.1.0, SVG Export Plug-In . SVG Version: 6.00 Build 0)  -->
<!DOCTYPE svg PUBLIC "-//W3C//DTD SVG 1.1//EN" "http://www.w3.org/Graphics/SVG/1.1/DTD/svg11.dtd">
<svg version="1.1"
	 id="Layer_1" sodipodi:docname="ecobee.svg" inkscape:version="0.48.2 r9819" xmlns:dc="http://purl.org/dc/elements/1.1/" xmlns:svg="http://www.w3.org/2000/svg" xmlns:rdf="http://www.w3.org/1999/02/22-rdf-syntax-ns#" xmlns:inkscape="http://www.inkscape.org/namespaces/inkscape" xmlns:cc="http://creativecommons.org/ns#" xmlns:sodipodi="http://sodipodi.sourceforge.net/DTD/sodipodi-0.dtd"
	 xmlns="http://www.w3.org/2000/svg" xmlns:xlink="http://www.w3.org/1999/xlink" x="0px" y="0px" width="44.637px"
	 height="44.637px" viewBox="0 0 44.637 44.637" enable-background="new 0 0 44.637 44.637" xml:space="preserve">
<g>
	<path fill="none" d="M22.32,1.5C10.821,1.5,1.501,10.823,1.506,22.32c0,11.496,9.315,20.818,20.813,20.818
		c11.496,0,20.816-9.323,20.816-20.823C43.136,10.823,33.816,1.5,22.32,1.5z M22.466,41.466c-10.575,0-19.146-8.573-19.146-19.146
		c0-10.572,8.572-19.144,19.146-19.144c10.574,0,19.145,8.572,19.145,19.145C41.61,32.895,33.041,41.466,22.466,41.466z"/>
	<path d="M-0.1,0v44.731h44.737V0H-0.1z M22.32,43.138c-11.498,0-20.813-9.322-20.813-20.818C1.501,10.823,10.821,1.5,22.32,1.5
		c11.496,0,20.816,9.323,20.816,20.814C43.136,33.815,33.816,43.138,22.32,43.138z"/>
	<path d="M22.465,3.176C11.892,3.176,3.32,11.747,3.32,22.32c0,10.573,8.571,19.146,19.146,19.146S41.61,32.895,41.61,22.321
		C41.61,11.748,33.039,3.176,22.465,3.176z M11.578,15.738c2.179-2.572,5.176-4.025,9.699-4.256
		c-0.062-0.343-0.334-0.723-0.594-1.187c-0.199-0.357-1.01-1.369-0.209-1.465c0.881-0.106,1.787,0,2.86,0
		c0.528,0,2.468-0.187,2.581,0.244c0.076,0.283-0.447,1.023-0.558,1.221c-0.255,0.455-0.448,0.68-0.628,1.151
		c1.256,0.132,2.395,0.294,3.453,0.558c2.597,0.648,4.627,1.858,6.245,3.698c0.261,0.295,0.845,0.908,0.733,1.256
		c-0.125,0.389-2.366,0.209-2.896,0.209c-6.793,0-13.186,0-20.024,0c-0.518,0-1.245,0.058-1.361-0.175
		C10.698,16.63,11.362,15.993,11.578,15.738z M37.708,24.634c-0.146,1.924-1.666,2.766-2.826,3.838
		c-0.023,1.059,0.046,2.209-0.035,3.209c-7.896,0.059-16.037,0.059-23.932,0c0-0.465,0-0.975,0-1.535c0-0.489,0.111-1.114,0-1.535
		c-0.061-0.23-0.549-0.525-0.837-0.767c-0.838-0.704-1.729-1.53-2.023-2.757c-0.208-0.864-0.021-1.746,0.349-2.371
		c0.559-0.943,1.42-1.459,2.512-1.989c0-0.825,0-1.651,0-2.477c0.02-0.05,0.055-0.085,0.104-0.105
		c7.917,0.084,15.964,0.036,23.863,0.14c0,0.814,0,1.628,0,2.442C36.23,21.468,37.866,22.532,37.708,24.634z"/>
	<path d="M10.845,22.262c-0.64,0.401-1.491,1.09-1.57,1.884c-0.083,0.836,0.383,1.408,0.768,1.85
		c0.256,0.293,0.526,0.656,0.872,0.732C10.868,25.262,11.007,23.611,10.845,22.262z"/>
	<path d="M34.882,26.657c0.561-0.286,1.203-0.985,1.43-1.639c0.426-1.226-0.47-2.225-1.43-2.688
		C34.882,23.774,34.882,25.216,34.882,26.657z"/>
	<path d="M23.979,22.108c-0.438-0.159-0.973-0.16-1.553-0.086c-3.61,0.459-3.174,5.64,0.172,5.866
		C26.14,28.127,26.922,23.178,23.979,22.108z M21.477,25.904c0.012-0.896,1.177-2.421,1.984-2.415
		C25.496,23.502,22.596,27.399,21.477,25.904z"/>
</g>
</svg>
