<?xml version="1.0" encoding="utf-8"?>
<!-- Generator: Adobe Illustrator 15.1.0, SVG Export Plug-In . SVG Version: 6.00 Build 0)  -->
<!DOCTYPE svg PUBLIC "-//W3C//DTD SVG 1.1//EN" "http://www.w3.org/Graphics/SVG/1.1/DTD/svg11.dtd">
<svg version="1.1"
	 id="Layer_1" sodipodi:docname="ecobee.svg" inkscape:version="0.48.2 r9819" xmlns:dc="http://purl.org/dc/elements/1.1/" xmlns:svg="http://www.w3.org/2000/svg" xmlns:rdf="http://www.w3.org/1999/02/22-rdf-syntax-ns#" xmlns:inkscape="http://www.inkscape.org/namespaces/inkscape" xmlns:cc="http://creativecommons.org/ns#" xmlns:sodipodi="http://sodipodi.sourceforge.net/DTD/sodipodi-0.dtd"
	 xmlns="http://www.w3.org/2000/svg" xmlns:xlink="http://www.w3.org/1999/xlink" x="0px" y="0px" width="44.637px"
	 height="44.637px" viewBox="0 0 44.637 44.637" enable-background="new 0 0 44.637 44.637" xml:space="preserve">
<g>
	<path fill="none" d="M22.32,1.5C10.821,1.5,1.501,10.823,1.506,22.32c0,11.496,9.315,20.818,20.813,20.818
		c11.496,0,20.816-9.323,20.816-20.823C43.136,10.823,33.816,1.5,22.32,1.5z M22.466,41.466c-10.575,0-19.146-8.573-19.146-19.146
		c0-10.572,8.572-19.144,19.146-19.144c10.574,0,19.145,8.572,19.145,19.145C41.61,32.895,33.041,41.466,22.466,41.466z"/>
	<path d="M-0.1,0v44.731h44.737V0H-0.1z M22.32,43.138c-11.498,0-20.813-9.322-20.813-20.818C1.501,10.823,10.821,1.5,22.32,1.5
		c11.496,0,20.816,9.323,20.816,20.814C43.136,33.815,33.816,43.138,22.32,43.138z"/>
	<path d="M22.39,10.246c-0.014,0-0.027,0-0.039,0c-0.193,0.217-0.309,0.604-0.484,1.008c-0.145,0.329-0.321,0.671-0.389,0.969
		c-0.102,0.457-0.129,1.109,0.02,1.492c0.148,0.383,0.71,0.735,1.261,0.504c0.57-0.239,0.64-1.128,0.483-1.919
		C23.093,11.543,22.609,10.764,22.39,10.246z"/>
	<path d="M22.465,3.176C11.892,3.176,3.32,11.747,3.32,22.32c0,10.573,8.571,19.146,19.146,19.146S41.61,32.895,41.61,22.321
		C41.61,11.748,33.039,3.176,22.465,3.176z M14.99,36.078c-0.115-2.425,2.885-2.262,3-4.686c0.025-0.031,0.062-0.052,0.104-0.068
		c4.731,0.045,3.663-0.092,8.333,0.068c0.115,2.425,3.115,2.261,3,4.686C24.881,36.135,19.573,36.136,14.99,36.078z M27.124,21.054
		c1.213,0.359,2.178,1.501,2.283,2.896c0.074,0.979-0.283,1.73-0.729,2.285c-0.422,0.521-1.065,0.994-1.86,1.154
		c-0.255,0.051-0.512,0.006-0.766,0.027c-0.139,0.875-0.275,1.747-0.415,2.608c-2.127,0.114-4.73,0.115-6.856,0
		c-0.404-1.909-0.614-4.021-0.93-6.064c-0.263-1.7-0.565-3.404-0.758-5.099c0.02-0.049,0.054-0.084,0.104-0.103
		c3.319,0.045,6.838-0.091,10.095,0.068c-0.092,0.727-0.189,1.461-0.291,2.197C27.04,21.032,27.081,21.042,27.124,21.054z
		 M29.427,15.996c-4.546,0.057-9.854,0.057-14.437,0c-0.115-2.425-0.115-5.329,0-7.753c0.025-0.032,0.062-0.052,0.104-0.069
		c4.731,0.046,9.663-0.091,14.333,0.069C29.542,10.668,29.542,13.571,29.427,15.996z"/>
	<path d="M26.739,22.873c-0.041,0.282-0.082,0.565-0.124,0.848c0,0.272,0.014,0.56,0.014,0.819c0,0.568,0.029,1.061,0.307,1.178
		c0.205,0.086,0.495-0.005,0.659-0.165c0.7-0.684,0.554-2.665-0.353-2.921c-0.084-0.023-0.176-0.007-0.213,0
		C26.894,22.659,26.802,22.746,26.739,22.873z"/>
</g>
</svg>
