<?xml version="1.0" encoding="utf-8"?>
<!-- Generator: Adobe Illustrator 15.1.0, SVG Export Plug-In . SVG Version: 6.00 Build 0)  -->
<!DOCTYPE svg PUBLIC "-//W3C//DTD SVG 1.1//EN" "http://www.w3.org/Graphics/SVG/1.1/DTD/svg11.dtd">
<svg version="1.1"
	 id="Layer_1" sodipodi:docname="ecobee.svg" inkscape:version="0.48.2 r9819" xmlns:inkscape="http://www.inkscape.org/namespaces/inkscape" xmlns:cc="http://creativecommons.org/ns#" xmlns:sodipodi="http://sodipodi.sourceforge.net/DTD/sodipodi-0.dtd" xmlns:rdf="http://www.w3.org/1999/02/22-rdf-syntax-ns#" xmlns:svg="http://www.w3.org/2000/svg" xmlns:dc="http://purl.org/dc/elements/1.1/"
	 xmlns="http://www.w3.org/2000/svg" xmlns:xlink="http://www.w3.org/1999/xlink" x="0px" y="0px" width="44.637px"
	 height="44.637px" viewBox="0 0 44.637 44.637" enable-background="new 0 0 44.637 44.637" xml:space="preserve">
<g>
	<path d="M-0.1,0v44.73h44.737V0H-0.1z M22.32,43.138c-11.498,0-20.812-9.322-20.812-20.818C1.501,10.823,10.821,1.5,22.32,1.5
		c11.496,0,20.816,9.323,20.816,20.813C43.136,33.815,33.816,43.138,22.32,43.138z"/>
	<path d="M28.653,31.102c-0.434,0.061-0.741,0.28-0.896,0.552c-0.476,0.821,0.224,1.885,1.208,1.794
		C30.536,33.304,30.245,30.877,28.653,31.102z"/>
	<path d="M27.499,16.282c-1.099-1.031-2.723-1.899-4.842-1.798c-2.051,0.097-3.286,0.831-4.35,1.798
		c-1.368,1.241-2.518,3.206-2.125,5.917c0.471,3.251,3.28,5.907,6.967,5.779c1.883-0.064,3.347-0.85,4.448-1.93
		c1.043-1.021,1.922-2.424,2.06-4.339C29.837,19.206,28.726,17.431,27.499,16.282z M22.627,25.879
		c-0.271-0.024-3.657-1.334-2.144-3.928c1.515-2.594,2.749-4.135,1.923-5.15c-0.824-1.017,1.722,1.767,1.418,2.944
		c-0.303,1.179-1.509,2.054-2.012,3.599C21.311,24.887,22.897,25.903,22.627,25.879z M23.091,24.853
		c0.203,0.317-0.858-0.606-0.339-1.544c0.521-0.938,0.823-1.225,1.105-1.664c0.281-0.438,0.41-0.707,0.5-1.068
		c0.092-0.359,0.053-0.666-0.029-0.833c-0.164-0.333,0.149,0.157,0.287,0.532c0.138,0.376,0.143,0.486,0.141,0.834
		c-0.002,0.35-0.115,0.75-0.543,1.382c-0.217,0.313-0.434,0.618-0.756,1.008C23.135,23.891,22.889,24.535,23.091,24.853z
		 M24.83,24.393c-0.959,0.852-0.96,1-1.091,1.234c-0.13,0.232-0.168-0.488,0.064-1.113c0.233-0.622,0.969-1.17,1.285-1.76
		c0.316-0.591,0.516-1.481,0.262-1.956c-0.253-0.475,0.046,0.054,0.259,0.394c0.214,0.339,0.335,0.59,0.328,1.145
		C25.933,22.89,25.788,23.541,24.83,24.393z"/>
	<path d="M22.466,3.176C11.892,3.176,3.32,11.748,3.32,22.32c0,10.573,8.571,19.146,19.146,19.146s19.144-8.571,19.145-19.146
		C41.611,11.748,33.04,3.176,22.466,3.176z M31.532,34.864c-0.526,0.454-3.14,0.207-4.1,0.207c-3.664,0-6.907,0-10.688,0
		c-1.451,0-2.345,0.21-2.525-0.911c-0.132-0.812-0.042-2.146-0.042-3.104c0-6.057,0-12.233,0-18.377
		c0-1.047-0.124-2.358,0.373-2.815c0.481-0.442,3.23-0.207,4.182-0.207c2.914,0,5.752,0,8.701,0c1.257,0,3.68-0.221,4.183,0.331
		c0.384,0.423,0.248,1.789,0.248,2.939c0,6.454,0,12.604,0,19.123C31.864,33.092,31.989,34.468,31.532,34.864z"/>
</g>
</svg>
