<?xml version="1.0" encoding="utf-8"?>
<!-- Generator: Adobe Illustrator 15.1.0, SVG Export Plug-In . SVG Version: 6.00 Build 0)  -->
<!DOCTYPE svg PUBLIC "-//W3C//DTD SVG 1.1//EN" "http://www.w3.org/Graphics/SVG/1.1/DTD/svg11.dtd">
<svg version="1.1"
	 id="Layer_1" sodipodi:docname="insteon_LED.svg" inkscape:version="0.48.1 r9760" xmlns:svg="http://www.w3.org/2000/svg" xmlns:rdf="http://www.w3.org/1999/02/22-rdf-syntax-ns#" xmlns:dc="http://purl.org/dc/elements/1.1/" xmlns:inkscape="http://www.inkscape.org/namespaces/inkscape" xmlns:sodipodi="http://sodipodi.sourceforge.net/DTD/sodipodi-0.dtd" xmlns:cc="http://creativecommons.org/ns#"
	 xmlns="http://www.w3.org/2000/svg" xmlns:xlink="http://www.w3.org/1999/xlink" x="0px" y="0px" width="44.637px"
	 height="44.637px" viewBox="0 0 44.637 44.637" enable-background="new 0 0 44.637 44.637" xml:space="preserve">
<sodipodi:namedview  objecttolerance="10" inkscape:current-layer="Layer_1" showgrid="false" guidetolerance="10" gridtolerance="10" inkscape:window-y="0" inkscape:window-maximized="0" inkscape:window-height="1156" inkscape:zoom="21.013957" inkscape:window-width="1910" inkscape:window-x="0" id="namedview11726" borderopacity="1" inkscape:cy="22.318501" inkscape:pageshadow="2" bordercolor="#666666" inkscape:cx="22.318501" inkscape:pageopacity="0" pagecolor="#ffffff">
	</sodipodi:namedview>
<g id="g11706">
	<g id="g11708">
	</g>
	<g id="g11712">
	</g>
	<g id="g11716">
	</g>
	<g id="g11720">
	</g>
</g>
<g id="Livello_1_2_">
</g>
<g>
	<path d="M0-0.094V44.64h44.637V-0.094H0z M22.32,43.067c-11.498,0-20.812-9.312-20.812-20.812S10.82,1.434,22.32,1.434
		c11.496,0,20.816,9.321,20.816,20.821C43.136,33.749,33.816,43.07,22.32,43.067z"/>
	<path d="M19.459,18.971c-0.385,0.385-0.69,0.841-0.916,1.368c-0.227,0.527-0.339,1.081-0.339,1.661c0,0.579,0.112,1.132,0.339,1.66
		c0.226,0.527,0.531,0.983,0.916,1.368c0.385,0.386,0.841,0.689,1.369,0.916c0.526,0.226,1.081,0.339,1.66,0.339v-8.567
		c-0.58,0-1.134,0.112-1.66,0.339C20.3,18.281,19.844,18.586,19.459,18.971z"/>
	<path d="M29.641,11.532l-1.572-0.395c-2.262-0.396-4.143-0.581-5.915-0.581c-2.024,0-3.797,0.25-5.616,0.589l-1.563,0.369
		c-0.726,0.312-2.352,1.144-2.352,2.414c0,1.008,0.156,2.041,0.345,3.236c0.22,1.427,0.47,3.044,0.573,5.231
		c0.125,3.021,0.354,7.499,0.469,8.015c0.027,0.107,0.046,0.229,0.067,0.354c0.141,0.837,0.354,2.102,2.796,2.979
		c0.375,0.064,2.647,0.464,5.528,0.464c0,0,0,0,0.005,0c1.844,0,3.562-0.16,5.119-0.478c0.145-0.026,3.566-0.783,3.649-3.529
		c0.003-0.093,0.274-8.826,0.274-10.271c0-1.472,0.483-5.751,0.521-6.075C31.983,13.735,32,12.361,29.641,11.532z M28.055,25.225
		c-0.574,0.984-1.354,1.767-2.338,2.34c-0.984,0.574-2.062,0.861-3.229,0.861c-1.167,0-2.241-0.287-3.226-0.861
		c-0.984-0.573-1.764-1.354-2.339-2.34c-0.574-0.983-0.861-2.059-0.861-3.224c0-1.167,0.287-2.241,0.861-3.227
		c0.575-0.984,1.354-1.764,2.339-2.338c0.984-0.575,2.06-0.861,3.226-0.861c1.168,0,2.244,0.287,3.229,0.861
		c0.984,0.574,1.764,1.354,2.338,2.338c0.574,0.984,0.863,2.061,0.863,3.227C28.918,23.166,28.629,24.24,28.055,25.225z"/>
	<path d="M22.465,3.108c-10.573,0-19.146,8.572-19.146,19.146c0,10.562,8.573,19.143,19.146,19.143
		c10.577,0,19.144-8.566,19.145-19.143C41.61,11.679,33.039,3.108,22.465,3.108z M33.553,14.015
		c-0.004,0.047-0.516,4.503-0.516,5.91c0,1.469-0.268,9.96-0.275,10.321c-0.122,4.003-4.721,4.994-4.918,5.034
		c-1.66,0.336-3.488,0.508-5.436,0.508c-0.007,0-0.007,0-0.007,0c-3.303,0-5.785-0.485-5.893-0.507l-0.056-0.013L16.4,35.25
		c-3.376-1.188-3.724-3.239-3.889-4.229c-0.017-0.104-0.034-0.191-0.048-0.261c-0.191-0.826-0.458-7.055-0.51-8.297
		c-0.103-2.104-0.344-3.677-0.559-5.062c-0.191-1.262-0.36-2.35-0.36-3.479c0-2.812,3.641-4.007,3.795-4.057l0.086-0.021
		c2.39-0.479,4.583-0.875,7.232-0.875c1.896,0,3.89,0.199,6.28,0.621C33.881,10.56,33.569,13.875,33.553,14.015z"/>
</g>
</svg>
