<?xml version="1.0" encoding="utf-8"?>
<!-- Generator: Adobe Illustrator 15.1.0, SVG Export Plug-In . SVG Version: 6.00 Build 0)  -->
<!DOCTYPE svg PUBLIC "-//W3C//DTD SVG 1.1//EN" "http://www.w3.org/Graphics/SVG/1.1/DTD/svg11.dtd">
<svg version="1.1"
	 id="Layer_1" inkscape:version="0.48.2 r9819" sodipodi:docname="ecobee.svg" xmlns:svg="http://www.w3.org/2000/svg" xmlns:inkscape="http://www.inkscape.org/namespaces/inkscape" xmlns:cc="http://creativecommons.org/ns#" xmlns:dc="http://purl.org/dc/elements/1.1/" xmlns:sodipodi="http://sodipodi.sourceforge.net/DTD/sodipodi-0.dtd" xmlns:rdf="http://www.w3.org/1999/02/22-rdf-syntax-ns#"
	 xmlns="http://www.w3.org/2000/svg" xmlns:xlink="http://www.w3.org/1999/xlink" x="0px" y="0px" width="44.637px"
	 height="44.637px" viewBox="0 0 44.637 44.637" enable-background="new 0 0 44.637 44.637" xml:space="preserve">
<sodipodi:namedview  fit-margin-top="0" fit-margin-left="0" fit-margin-right="0" fit-margin-bottom="0" inkscape:window-height="480" inkscape:window-maximized="0" showgrid="false" borderopacity="1" inkscape:current-layer="Layer_1" bordercolor="#666666" inkscape:cx="22.148" objecttolerance="10" inkscape:cy="22.631" inkscape:pageshadow="2" inkscape:pageopacity="0" inkscape:zoom="0.18209877" guidetolerance="10" inkscape:window-y="0" inkscape:window-x="0" inkscape:window-width="640" id="namedview9" pagecolor="#ffffff" gridtolerance="10">
	</sodipodi:namedview>
<g>
	<path fill="#020202" d="M22.465,3.173c-10.575,0-19.146,8.572-19.146,19.145c0,10.575,8.574,19.146,19.146,19.146
		c10.574,0,19.145-8.57,19.145-19.146C41.61,11.744,33.04,3.173,22.465,3.173z M24.746,34.717c-1.659,0-3.087-0.587-4.283-1.76
		c-1.197-1.173-1.795-2.755-1.795-4.745v-9.207h-2.381v-3.199h2.381V9.869h3.979v5.937h4.978v3.199h-4.979v9.312
		c0,0.901,0.237,1.617,0.71,2.15c0.475,0.533,1.104,0.8,1.886,0.8c0.925,0,1.775-0.414,2.56-1.244l1.636,2.811
		C28.039,34.089,26.474,34.717,24.746,34.717z"/>
	<path fill="#020202" d="M-0.099-0.099v44.736h44.637V-0.099H-0.099z M22.32,43.135c-11.499,0-20.818-9.321-20.818-20.817
		C1.501,10.821,10.821,1.5,22.32,1.5c11.496,0,20.816,9.321,20.816,20.817S33.816,43.135,22.32,43.135z"/>
</g>
</svg>
