<?xml version="1.0" encoding="utf-8"?>
<!-- Generator: Adobe Illustrator 15.1.0, SVG Export Plug-In . SVG Version: 6.00 Build 0)  -->
<!DOCTYPE svg PUBLIC "-//W3C//DTD SVG 1.1//EN" "http://www.w3.org/Graphics/SVG/1.1/DTD/svg11.dtd">
<svg version="1.1"
	 id="Layer_1" sodipodi:docname="insteon_LED.svg" inkscape:version="0.48.1 r9760" xmlns:inkscape="http://www.inkscape.org/namespaces/inkscape" xmlns:sodipodi="http://sodipodi.sourceforge.net/DTD/sodipodi-0.dtd" xmlns:rdf="http://www.w3.org/1999/02/22-rdf-syntax-ns#" xmlns:svg="http://www.w3.org/2000/svg" xmlns:cc="http://creativecommons.org/ns#" xmlns:dc="http://purl.org/dc/elements/1.1/"
	 xmlns="http://www.w3.org/2000/svg" xmlns:xlink="http://www.w3.org/1999/xlink" x="0px" y="0px" width="44.637px"
	 height="44.637px" viewBox="0 0 44.637 44.637" enable-background="new 0 0 44.637 44.637" xml:space="preserve">
<sodipodi:namedview  pagecolor="#ffffff" id="namedview11726" bordercolor="#666666" inkscape:cy="22.318501" borderopacity="1" inkscape:pageopacity="0" inkscape:pageshadow="2" inkscape:zoom="21.013957" inkscape:cx="22.318501" inkscape:current-layer="Layer_1" showgrid="false" inkscape:window-width="1910" inkscape:window-height="1156" inkscape:window-x="0" inkscape:window-y="0" inkscape:window-maximized="0" guidetolerance="10" objecttolerance="10" gridtolerance="10">
	</sodipodi:namedview>
<g id="g11706">
	<g id="g11708">
	</g>
	<g id="g11712">
	</g>
	<g id="g11716">
	</g>
	<g id="g11720">
	</g>
</g>
<path fill="none" d="M22.32,1.428c-11.498,0-20.812,9.321-20.812,20.821c0,11.496,9.314,20.812,20.812,20.812
	c11.496,0.003,20.816-9.316,20.816-20.812C43.136,10.749,33.816,1.428,22.32,1.428z M22.465,41.391
	c-10.573,0-19.146-8.573-19.146-19.143c0-10.574,8.573-19.146,19.146-19.146c10.574,0,19.145,8.571,19.145,19.146
	C41.609,32.817,33.042,41.391,22.465,41.391z"/>
<g>
	<path d="M0,0v44.637h44.637V0H0z M22.32,43.061c-11.498,0-20.812-9.314-20.812-20.812c0-11.5,9.314-20.821,20.812-20.821
		c11.496,0,20.816,9.321,20.816,20.821C43.136,33.743,33.816,43.064,22.32,43.061z"/>
	<g>
		<path d="M22.465,3.102c-10.573,0-19.146,8.572-19.146,19.146c0,10.568,8.573,19.143,19.146,19.143
			c10.577,0,19.144-8.574,19.145-19.143C41.61,11.673,33.039,3.102,22.465,3.102z M15.123,18.603
			c-0.074,3.34,0.022,6.828-0.049,10.166c-0.589-0.016-1.24,0.031-1.794-0.023c-0.055-3.322-0.008-6.731-0.024-10.095
			c-0.807-0.127-1.884,0.016-2.731-0.073c-0.058-0.508-0.008-1.12-0.025-1.669c0-0.041,0.017-0.062,0.049-0.072
			c2.425,0.017,4.92-0.031,7.308,0.024c0.038,0.517,0.038,1.199,0,1.717C16.992,18.635,16.025,18.588,15.123,18.603z M27.098,27.657
			c-0.116,0.213-0.365,0.3-0.555,0.412c-0.561,0.322-1.252,0.662-2.033,0.797c-2.043,0.352-3.785-0.345-4.959-1.256
			c-1.197-0.935-2.176-2.379-2.322-4.124c-0.176-2.066,0.59-3.697,1.596-4.81c1.047-1.158,2.388-1.883,4.381-2.058
			c0.145-0.012,0.304-0.01,0.436,0c1.451,0.098,2.625,0.552,3.46,1.282c0.056,0.728,0.007,1.556,0.022,2.323
			c-0.173,0.039-0.318-0.223-0.457-0.362c-0.952-0.951-2.695-1.9-4.597-1.258c-1.714,0.579-3.456,2.585-2.929,5.075
			c0.363,1.697,1.862,3.298,3.75,3.496c1.145,0.121,2.121-0.221,2.83-0.677c0.526-0.337,0.933-0.793,1.38-1.162
			C27.137,26.052,27.137,26.941,27.098,27.657z M35.057,20.805c-0.127,1.084-0.706,1.881-1.479,2.37
			c-0.799,0.502-1.865,0.68-3.169,0.6c-0.129,1.547,0.017,3.375-0.071,4.973c-0.554,0.039-1.266,0.039-1.814,0
			c0-3.959,0-7.902,0-11.86c-0.002-0.042,0.018-0.063,0.045-0.073c1.398,0.032,2.676-0.081,3.801,0.121
			C34.031,17.231,35.299,18.689,35.057,20.805z"/>
		<path d="M30.364,18.677c0.014,1.104-0.031,2.273,0.023,3.337c1.179,0.113,2.227-0.114,2.661-0.822
			c0.087-0.335,0.198-0.595,0.194-0.92c-0.013-1.37-1.152-1.795-2.807-1.669C30.4,18.617,30.375,18.641,30.364,18.677z"/>
	</g>
</g>
</svg>
