<?xml version="1.0" encoding="utf-8"?>
<!-- Generator: Adobe Illustrator 15.1.0, SVG Export Plug-In . SVG Version: 6.00 Build 0)  -->
<!DOCTYPE svg PUBLIC "-//W3C//DTD SVG 1.1//EN" "http://www.w3.org/Graphics/SVG/1.1/DTD/svg11.dtd">
<svg version="1.1"
	 id="Layer_1" sodipodi:docname="insteon_LED.svg" inkscape:version="0.48.1 r9760" xmlns:inkscape="http://www.inkscape.org/namespaces/inkscape" xmlns:sodipodi="http://sodipodi.sourceforge.net/DTD/sodipodi-0.dtd" xmlns:rdf="http://www.w3.org/1999/02/22-rdf-syntax-ns#" xmlns:svg="http://www.w3.org/2000/svg" xmlns:cc="http://creativecommons.org/ns#" xmlns:dc="http://purl.org/dc/elements/1.1/"
	 xmlns="http://www.w3.org/2000/svg" xmlns:xlink="http://www.w3.org/1999/xlink" x="0px" y="0px" width="44.637px"
	 height="44.637px" viewBox="0 0 44.637 44.637" enable-background="new 0 0 44.637 44.637" xml:space="preserve">
<sodipodi:namedview  pagecolor="#ffffff" id="namedview11726" bordercolor="#666666" inkscape:cy="22.318501" borderopacity="1" inkscape:pageopacity="0" inkscape:pageshadow="2" inkscape:zoom="21.013957" inkscape:cx="22.318501" inkscape:current-layer="Layer_1" showgrid="false" inkscape:window-width="1910" inkscape:window-height="1156" inkscape:window-x="0" inkscape:window-y="0" inkscape:window-maximized="0" guidetolerance="10" objecttolerance="10" gridtolerance="10">
	</sodipodi:namedview>
<g>
	<path fill="#020202" d="M0.001,0.001v44.636h44.636V0.001H0.001z M22.32,43.062c-11.498,0-20.813-9.315-20.813-20.812
		c0-11.5,9.315-20.821,20.813-20.821c11.496,0,20.816,9.321,20.816,20.821C43.136,33.743,33.816,43.062,22.32,43.062z"/>
	<path fill="#020202" d="M22.465,3.102c-10.574,0-19.146,8.572-19.146,19.146c0,10.568,8.574,19.143,19.146,19.143
		c10.574,0,19.144-8.571,19.145-19.143C41.61,11.673,33.039,3.102,22.465,3.102z M22.954,37.31c-0.86,0-1.623-0.516-1.989-1.229
		h3.968C24.57,36.805,23.82,37.31,22.954,37.31z M26.347,35.011c0,0.238-0.173,0.427-0.386,0.427h-6.022
		c-0.214,0-0.388-0.188-0.388-0.427v-0.403c0-0.232,0.174-0.427,0.388-0.427h6.022c0.213,0,0.386,0.194,0.386,0.427V35.011z
		 M26.347,33.176c0,0.237-0.173,0.426-0.386,0.426h-6.022c-0.214,0-0.388-0.188-0.388-0.426v-0.403c0-0.232,0.174-0.427,0.388-0.427
		h6.022c0.213,0,0.386,0.194,0.386,0.427V33.176z M26.347,31.34c0,0.238-0.173,0.427-0.386,0.427h-6.022
		c-0.214,0-0.388-0.188-0.388-0.427v-0.403c0-0.232,0.174-0.426,0.388-0.426h6.022c0.213,0,0.386,0.193,0.386,0.426V31.34z
		 M26.791,27.635c-0.266,1.592-0.562,1.668-1.459,1.668h-4.767c-0.896,0-1.192-0.076-1.452-1.668
		c-0.35-2.101-1.422-4.083-3.098-7.236h13.868C28.215,23.535,27.144,25.522,26.791,27.635z M30.465,19.399H15.433
		c-0.539-1.12-0.877-2.363-0.877-3.688c0-4.635,3.757-8.396,8.396-8.396c4.637,0,8.395,3.764,8.393,8.396
		C31.342,17.036,31.004,18.276,30.465,19.399z"/>
</g>
</svg>
