<?xml version="1.0" encoding="utf-8"?>
<!-- Generator: Adobe Illustrator 15.1.0, SVG Export Plug-In . SVG Version: 6.00 Build 0)  -->
<!DOCTYPE svg PUBLIC "-//W3C//DTD SVG 1.1//EN" "http://www.w3.org/Graphics/SVG/1.1/DTD/svg11.dtd">
<svg version="1.1"
	 id="Layer_1" sodipodi:docname="insteon_LED.svg" inkscape:version="0.48.1 r9760" xmlns:inkscape="http://www.inkscape.org/namespaces/inkscape" xmlns:sodipodi="http://sodipodi.sourceforge.net/DTD/sodipodi-0.dtd" xmlns:rdf="http://www.w3.org/1999/02/22-rdf-syntax-ns#" xmlns:svg="http://www.w3.org/2000/svg" xmlns:cc="http://creativecommons.org/ns#" xmlns:dc="http://purl.org/dc/elements/1.1/"
	 xmlns="http://www.w3.org/2000/svg" xmlns:xlink="http://www.w3.org/1999/xlink" x="0px" y="0px" width="44.637px"
	 height="44.637px" viewBox="0 0 44.637 44.637" enable-background="new 0 0 44.637 44.637" xml:space="preserve">
<sodipodi:namedview  pagecolor="#ffffff" id="namedview11726" bordercolor="#666666" inkscape:cy="22.318501" borderopacity="1" inkscape:pageopacity="0" inkscape:pageshadow="2" inkscape:zoom="21.013957" inkscape:cx="22.318501" inkscape:current-layer="Layer_1" showgrid="false" inkscape:window-width="1910" inkscape:window-height="1156" inkscape:window-x="0" inkscape:window-y="0" inkscape:window-maximized="0" guidetolerance="10" objecttolerance="10" gridtolerance="10">
	</sodipodi:namedview>
<g id="g11706">
	<g id="g11708">
	</g>
	<g id="g11712">
	</g>
	<g id="g11716">
	</g>
	<g id="g11720">
	</g>
</g>
<g>
	<path fill="none" d="M22.32,1.428c-11.498,0-20.812,9.321-20.812,20.821c0,11.497,9.313,20.812,20.812,20.812
		c11.496,0.003,20.816-9.316,20.816-20.812C43.136,10.749,33.816,1.428,22.32,1.428z M22.465,41.391
		c-10.573,0-19.146-8.574-19.146-19.143c0-10.574,8.573-19.146,19.146-19.146c10.574,0,19.145,8.571,19.145,19.146
		C41.609,32.817,33.042,41.391,22.465,41.391z"/>
	<path d="M0,0v44.637h44.637V0H0z M22.32,43.061c-11.498,0-20.812-9.313-20.812-20.812c0-11.5,9.313-20.821,20.812-20.821
		c11.496,0,20.816,9.321,20.816,20.821C43.136,33.743,33.816,43.064,22.32,43.061z"/>
	<path d="M22.465,3.102c-10.573,0-19.146,8.572-19.146,19.146c0,10.567,8.573,19.143,19.146,19.143
		c10.577,0,19.144-8.574,19.145-19.143C41.61,11.673,33.039,3.102,22.465,3.102z"/>
</g>
<path fill="#FFFFFF" d="M29.963,16.18l-0.179-0.646c-0.078-0.282-0.222-0.54-0.415-0.757c0.161-0.14,0.299-0.306,0.407-0.494
	c0.26-0.447,0.326-0.966,0.188-1.46l-0.18-0.648c-0.247-0.892-1.141-1.5-2.061-1.42c0.024-0.234,0.005-0.473-0.061-0.706
	l-0.179-0.646c-0.275-0.995-1.297-1.642-2.402-1.362l-8.084,2.1c-0.516,0.131-0.946,0.456-1.211,0.915
	c-0.259,0.448-0.325,0.967-0.187,1.459l0.179,0.648c0.059,0.212,0.155,0.411,0.281,0.589c-0.509,0.138-0.932,0.461-1.192,0.912
	c-0.258,0.446-0.325,0.965-0.187,1.46l0.179,0.645c0.078,0.283,0.222,0.542,0.416,0.76c-0.16,0.14-0.298,0.306-0.407,0.495
	c-0.258,0.446-0.325,0.965-0.187,1.46l0.179,0.646c0.078,0.283,0.222,0.542,0.416,0.759c-0.161,0.14-0.299,0.307-0.408,0.496
	c-0.258,0.447-0.324,0.966-0.187,1.46l0.179,0.645c0.256,0.929,1.155,1.561,2.186,1.406c-0.027,0.238-0.008,0.482,0.058,0.719
	l0.178,0.645c0.059,0.217,0.155,0.419,0.285,0.6c-0.4,0.333-0.647,0.828-0.647,1.367v0.898c0,0.816,0.56,1.509,1.321,1.727v1.674
	c0,1.22,0.662,2.243,1.587,2.533c0.325,0.958,1.095,1.603,1.956,1.603h1.076c0.86,0,1.63-0.645,1.956-1.602
	c0.926-0.29,1.588-1.312,1.588-2.534v-1.674c0.762-0.218,1.32-0.91,1.32-1.727v-0.898c0-0.896-0.668-1.64-1.589-1.776
	c-0.078-0.12-0.169-0.229-0.271-0.329l-0.082-0.079l1.989-0.518c0.519-0.135,0.947-0.461,1.208-0.916
	c0.259-0.447,0.325-0.965,0.188-1.457l-0.179-0.647c-0.062-0.227-0.166-0.437-0.302-0.623c0.464-0.151,0.847-0.461,1.088-0.879
	c0.259-0.446,0.326-0.965,0.188-1.461l-0.179-0.647c-0.078-0.282-0.223-0.54-0.416-0.757c0.161-0.14,0.298-0.306,0.407-0.495
	C30.034,17.195,30.102,16.676,29.963,16.18z"/>
<path d="M27.886,18.629c-0.071,0-0.143,0.009-0.213,0.027l-11.306,2.935c-0.214,0.056-0.39,0.188-0.496,0.373
	c-0.102,0.175-0.127,0.377-0.074,0.57l0.179,0.646c0.112,0.404,0.566,0.658,0.993,0.549l11.308-2.936
	c0.214-0.057,0.39-0.188,0.495-0.373c0.102-0.175,0.127-0.377,0.073-0.57l-0.179-0.646C28.573,18.865,28.251,18.629,27.886,18.629z"
	/>
<path d="M27.886,15.269c-0.071,0-0.143,0.009-0.213,0.027l-11.306,2.935c-0.214,0.056-0.39,0.188-0.496,0.373
	c-0.103,0.175-0.127,0.378-0.074,0.571l0.179,0.646c0.112,0.405,0.565,0.658,0.993,0.549l11.308-2.937
	c0.214-0.055,0.39-0.188,0.495-0.373c0.102-0.175,0.127-0.377,0.073-0.569l-0.179-0.647C28.573,15.506,28.251,15.269,27.886,15.269z
	"/>
<path d="M28.772,13.701c0.102-0.176,0.127-0.377,0.073-0.57l-0.179-0.647c-0.095-0.338-0.415-0.575-0.78-0.575
	c-0.071,0-0.143,0.01-0.213,0.027l-11.306,2.936c-0.214,0.056-0.39,0.188-0.496,0.373c-0.103,0.175-0.127,0.377-0.074,0.57
	l0.179,0.646c0.112,0.405,0.566,0.659,0.993,0.548l11.308-2.935C28.49,14.019,28.665,13.886,28.772,13.701z"/>
<path d="M17.888,13.402l8.088-2.1c0.213-0.055,0.39-0.188,0.495-0.372c0.101-0.175,0.127-0.378,0.074-0.571l-0.179-0.646
	c-0.095-0.339-0.415-0.575-0.781-0.575c-0.07,0-0.144,0.009-0.212,0.027l-8.088,2.1c-0.214,0.055-0.39,0.188-0.496,0.372
	c-0.102,0.175-0.127,0.378-0.074,0.571l0.179,0.646C17.007,13.258,17.46,13.513,17.888,13.402z"/>
<path d="M26.877,22.264l-8.088,2.099c-0.213,0.057-0.39,0.188-0.496,0.373c-0.102,0.176-0.127,0.379-0.073,0.57l0.179,0.646
	c0.112,0.404,0.565,0.659,0.993,0.549l8.088-2.101c0.213-0.055,0.39-0.188,0.495-0.373c0.102-0.174,0.127-0.377,0.073-0.568
	l-0.178-0.647c-0.095-0.339-0.415-0.575-0.781-0.575C27.018,22.237,26.947,22.245,26.877,22.264z"/>
<path d="M19.4,32.525c0,0.79,0.44,1.457,0.961,1.457h3.923c0.521,0,0.961-0.667,0.961-1.457v-2.103H19.4V32.525z"/>
<path d="M18.079,28.226v0.898c0,0.352,0.3,0.639,0.669,0.639h7.146c0.369,0,0.669-0.287,0.669-0.639v-0.898
	c0-0.353-0.3-0.639-0.669-0.639h-7.146C18.379,27.587,18.079,27.873,18.079,28.226z"/>
</svg>
