<?xml version="1.0" encoding="utf-8"?>
<!-- Generator: Adobe Illustrator 15.1.0, SVG Export Plug-In . SVG Version: 6.00 Build 0)  -->
<!DOCTYPE svg PUBLIC "-//W3C//DTD SVG 1.1//EN" "http://www.w3.org/Graphics/SVG/1.1/DTD/svg11.dtd">
<svg version="1.1"
	 id="Layer_1" xmlns:rdf="http://www.w3.org/1999/02/22-rdf-syntax-ns#" inkscape:version="0.48.1 r9760" xmlns:dc="http://purl.org/dc/elements/1.1/" xmlns:inkscape="http://www.inkscape.org/namespaces/inkscape" xmlns:sodipodi="http://sodipodi.sourceforge.net/DTD/sodipodi-0.dtd" xmlns:svg="http://www.w3.org/2000/svg" sodipodi:docname="insteon_LED.svg" xmlns:cc="http://creativecommons.org/ns#"
	 xmlns="http://www.w3.org/2000/svg" xmlns:xlink="http://www.w3.org/1999/xlink" x="0px" y="0px" width="44.637px"
	 height="44.637px" viewBox="0 0 44.637 44.637" enable-background="new 0 0 44.637 44.637" xml:space="preserve">
<sodipodi:namedview  id="namedview11726" inkscape:window-height="1156" inkscape:cx="22.318501" inkscape:cy="22.318501" bordercolor="#666666" inkscape:current-layer="Layer_1" inkscape:zoom="21.013957" inkscape:pageshadow="2" inkscape:pageopacity="0" inkscape:window-width="1910" borderopacity="1" inkscape:window-maximized="0" gridtolerance="10" pagecolor="#ffffff" inkscape:window-y="0" guidetolerance="10" inkscape:window-x="0" showgrid="false" objecttolerance="10">
	</sodipodi:namedview>
<g id="g11706">
	<g id="g11708">
	</g>
	<g id="g11712">
	</g>
	<g id="g11716">
	</g>
	<g id="g11720">
	</g>
</g>
<path d="M0,0v44.637h44.637V0H0z M22.32,43.063c-11.498,0-20.815-9.317-20.815-20.812c0-11.5,9.317-20.821,20.815-20.821
	c11.496,0,20.816,9.321,20.816,20.821C43.136,33.743,33.816,43.064,22.32,43.063z"/>
<path d="M22.465,3.102c-10.573,0-19.146,8.572-19.146,19.146c0,10.569,8.573,19.143,19.146,19.143
	c10.575,0,19.144-8.572,19.145-19.143C41.61,11.673,33.039,3.102,22.465,3.102z M34.195,23.339c-0.521,2.13-1.761,4.041-3.37,5.515
	c-3.129,2.833-7.465,4.191-11.653,3.922c-4.026-0.246-7.989-2.23-10.368-5.523c0.208,0.121,0.383,0.289,0.581,0.424
	c1.842,1.332,4.293,1.756,6.483,1.161c1.329-0.343,2.535-1.087,3.499-2.057c-0.616,0.041-1.301-0.068-1.748-0.533
	c-0.279-0.265-0.393-0.701-0.226-1.057c0.202-0.449,0.653-0.704,1.079-0.905c-1.397,0.199-2.92-0.451-3.564-1.744
	c0.472-0.562,1.226-0.743,1.927-0.798c-0.815-0.238-1.653-0.529-2.271-1.138c-0.492-0.46-0.811-1.1-0.907-1.765
	c0.577-0.108,1.157-0.239,1.749-0.214c-1.342-0.698-2.568-2.028-2.461-3.636c2.544,0.928,5.047,1.987,7.438,3.265
	c0.836,0.459,1.531,1.125,2.216,1.78c0.662-1.72,1.373-3.447,2.45-4.956c0.577-0.793,1.259-1.532,2.096-2.055
	c-0.033,0.26-0.166,0.487-0.289,0.712c0.624-0.471,1.348-0.836,2.133-0.928c-0.108,0.47-0.555,0.715-0.942,0.929
	c0.587-0.173,1.158-0.429,1.775-0.471c0.165-0.006,0.4,0.001,0.46,0.193c0.088,0.239-0.154,0.424-0.338,0.523
	c-0.674,0.348-1.453,0.399-2.139,0.721c1.41-0.132,2.816,0.414,3.885,1.316c1.275,1.05,2.119,2.57,2.427,4.187
	c1.128,0.302,2.347,0.083,3.404-0.366c-0.532,1.205-1.887,1.755-3.124,1.862c1.028,0.388,2.16,0.455,3.247,0.339
	C36.781,22.996,35.448,23.368,34.195,23.339z"/>
</svg>
