<?xml version="1.0" encoding="utf-8"?>
<!-- Generator: Adobe Illustrator 15.1.0, SVG Export Plug-In . SVG Version: 6.00 Build 0)  -->
<!DOCTYPE svg PUBLIC "-//W3C//DTD SVG 1.1//EN" "http://www.w3.org/Graphics/SVG/1.1/DTD/svg11.dtd">
<svg version="1.1"
	 id="Layer_1" inkscape:version="0.48.2 r9819" sodipodi:docname="ecobee.svg" xmlns:svg="http://www.w3.org/2000/svg" xmlns:inkscape="http://www.inkscape.org/namespaces/inkscape" xmlns:cc="http://creativecommons.org/ns#" xmlns:dc="http://purl.org/dc/elements/1.1/" xmlns:sodipodi="http://sodipodi.sourceforge.net/DTD/sodipodi-0.dtd" xmlns:rdf="http://www.w3.org/1999/02/22-rdf-syntax-ns#"
	 xmlns="http://www.w3.org/2000/svg" xmlns:xlink="http://www.w3.org/1999/xlink" x="0px" y="0px" width="44.637px"
	 height="44.637px" viewBox="0 0 44.637 44.637" enable-background="new 0 0 44.637 44.637" xml:space="preserve">
<g>
	<path d="M18.383,26.221h-0.629c-0.102,0-0.178,0.08-0.178,0.178v1.521c0,0.098,0.076,0.176,0.178,0.176h0.629
		c0.1,0,0.178-0.078,0.178-0.176v-1.521C18.561,26.301,18.483,26.221,18.383,26.221z"/>
	<path d="M16.122,26.24c0-0.101-0.08-0.181-0.181-0.181h-0.586c-0.1,0-0.179,0.08-0.179,0.181v1.768
		c0,0.098,0.079,0.178,0.179,0.178h0.586c0.101,0,0.181-0.08,0.181-0.178V26.24z"/>
	<path d="M16.867,28.518c-0.621,0-0.745,0.558-0.745,0.558v0.812c0,0.099,0.078,0.178,0.178,0.178h1.135
		c0.101,0,0.178-0.079,0.178-0.178v-0.812C17.612,29.02,17.479,28.521,16.867,28.518z"/>
	<path d="M20.159,21.816c-3.31-0.903-6.479-0.042-6.479-0.042c-1.138,0.429-1.195,2.627-1.195,4.269c0,2.079-0.09,4.587,1.466,5.217
		c1.25,0.506,4.857,0.424,5.979-0.035c1.446-0.595,1.282-3.131,1.282-5.057C21.211,24.708,21.242,22.115,20.159,21.816z
		 M19.222,30.578c-0.862,0.353-3.643,0.416-4.604,0.023c-1.196-0.481-1.126-2.416-1.126-4.016c0-1.264,0.043-2.957,0.921-3.285
		c0,0,2.698-0.66,4.983,0.032c0.827,0.25,0.812,2.226,0.812,3.349C20.21,28.166,20.336,30.12,19.222,30.578z"/>
	<path d="M0-0.001v44.736h44.637V-0.001H0z M22.259,43.136c-11.498,0-20.819-9.322-20.819-20.817C1.44,10.82,10.761,1.5,22.259,1.5
		c11.496,0,20.816,9.319,20.816,20.817C43.075,33.814,33.755,43.136,22.259,43.136z"/>
	<path d="M22.403,3.173c-10.57,0-19.145,8.573-19.145,19.146c0,10.573,8.573,19.146,19.145,19.146
		c10.574,0,19.146-8.572,19.146-19.146C41.548,11.745,32.977,3.173,22.403,3.173z M21.512,32.225
		c-1.783,1.008-7.033,1.127-9.045,0.088c-2.82-1.456-2.484-6.569-2.484-10.998c0-3.489-0.106-6.823,1.773-8.515
		c0.848-0.759,1.912-0.95,3.548-1.063c2.604-0.181,5.491-0.104,6.829,1.152c1.468,1.381,1.685,5.585,1.685,8.692
		C23.819,25.68,24.139,30.74,21.512,32.225z M26.407,25.948l-0.384-0.6c1.656-1.146,2.107-3.478,1.009-5.205
		c-0.271-0.422-0.605-0.768-0.984-1.035l0.386-0.595c0.451,0.317,0.854,0.73,1.171,1.234C28.917,21.805,28.38,24.582,26.407,25.948z
		 M28.382,29.042l-0.697-1.099c3.035-2.102,3.86-6.371,1.844-9.535c-0.49-0.772-1.107-1.407-1.803-1.896l0.705-1.091
		c0.828,0.581,1.562,1.339,2.146,2.26C32.98,21.45,31.997,26.536,28.382,29.042z M31.057,33.231l-1.127-1.77
		c4.903-3.396,6.236-10.293,2.979-15.404c-0.798-1.248-1.791-2.271-2.912-3.062l1.141-1.762c1.336,0.939,2.521,2.162,3.466,3.647
		C38.485,20.971,36.897,29.185,31.057,33.231z"/>
	<path d="M16.879,17.143c0.586,0,1.062-0.477,1.062-1.062s-0.476-1.064-1.062-1.064c-0.588,0-1.062,0.479-1.062,1.064
		S16.293,17.143,16.879,17.143z M16.802,15.573c-0.001-0.023,0.008-0.048,0.024-0.063s0.039-0.026,0.062-0.026
		c0.024,0,0.05,0.012,0.066,0.026c0.016,0.016,0.023,0.04,0.023,0.063v0.567c0,0.032-0.017,0.062-0.045,0.078
		c-0.025,0.016-0.062,0.016-0.089,0c-0.026-0.016-0.045-0.046-0.044-0.078L16.802,15.573z M16.467,15.665
		c0.017-0.021,0.04-0.033,0.067-0.033c0.032,0,0.063,0.02,0.082,0.052c0.014,0.031,0.008,0.07-0.016,0.095
		c-0.119,0.146-0.119,0.345,0,0.486c0.136,0.162,0.371,0.183,0.532,0.047c0.161-0.135,0.182-0.372,0.047-0.533
		c-0.021-0.021-0.03-0.059-0.019-0.089c0.009-0.029,0.037-0.054,0.067-0.06c0.031-0.004,0.064,0.008,0.085,0.035
		c0.199,0.231,0.169,0.583-0.064,0.779c-0.234,0.197-0.586,0.165-0.782-0.065C16.292,16.172,16.292,15.872,16.467,15.665z"/>
	<circle cx="16.851" cy="13.553" r="0.226"/>
</g>
</svg>
