<?xml version="1.0" encoding="utf-8"?>
<!-- Generator: Adobe Illustrator 15.1.0, SVG Export Plug-In . SVG Version: 6.00 Build 0)  -->
<!DOCTYPE svg PUBLIC "-//W3C//DTD SVG 1.1//EN" "http://www.w3.org/Graphics/SVG/1.1/DTD/svg11.dtd">
<svg version="1.1"
	 id="Layer_1" inkscape:version="0.48.2 r9819" sodipodi:docname="ecobee.svg" xmlns:svg="http://www.w3.org/2000/svg" xmlns:inkscape="http://www.inkscape.org/namespaces/inkscape" xmlns:cc="http://creativecommons.org/ns#" xmlns:dc="http://purl.org/dc/elements/1.1/" xmlns:sodipodi="http://sodipodi.sourceforge.net/DTD/sodipodi-0.dtd" xmlns:rdf="http://www.w3.org/1999/02/22-rdf-syntax-ns#"
	 xmlns="http://www.w3.org/2000/svg" xmlns:xlink="http://www.w3.org/1999/xlink" x="0px" y="0px" width="44.637px"
	 height="44.637px" viewBox="0 0 44.637 44.637" enable-background="new 0 0 44.637 44.637" xml:space="preserve">
<g>
	<path d="M0,0v44.637h44.637V0H0z M22.32,43.061c-11.498,0-20.813-9.315-20.813-20.812c0-11.5,9.315-20.821,20.813-20.821
		c11.496,0,20.816,9.321,20.816,20.821C43.136,33.743,33.816,43.061,22.32,43.061z"/>
	<path d="M22.465,3.102c-10.574,0-19.146,8.572-19.146,19.146c0,10.569,8.574,19.143,19.146,19.143
		c10.574,0,19.144-8.571,19.145-19.143C41.61,11.673,33.039,3.102,22.465,3.102z M27.848,34.096h-5.267l-3.778-5.893l-3.915,5.893
		c-1.529,0-3.33,0-4.859,0l5.673-8.998l-5.673-8.769c1.714,0,3.149,0,4.859,0l3.915,5.396l3.778-5.396c1.712,0,3.556,0,5.267,0
		l-5.938,8.769L27.848,34.096z M32.977,34.096c-1.53,0-3.06,0-4.589,0c0-5.937,0-11.829,0-17.767c1.529,0,3.059,0,4.589,0
		C32.977,22.268,32.977,28.158,32.977,34.096z M30.661,14.552c-1.624,0-2.94-1.316-2.94-2.94c0-1.621,1.316-2.938,2.94-2.938
		c1.623,0,2.938,1.316,2.938,2.938C33.601,13.236,32.284,14.552,30.661,14.552z"/>
</g>
</svg>
