<?xml version="1.0" encoding="utf-8"?>
<!-- Generator: Adobe Illustrator 15.1.0, SVG Export Plug-In . SVG Version: 6.00 Build 0)  -->
<!DOCTYPE svg PUBLIC "-//W3C//DTD SVG 1.1//EN" "http://www.w3.org/Graphics/SVG/1.1/DTD/svg11.dtd">
<svg version="1.1"
	 id="Layer_1" inkscape:version="0.48.2 r9819" sodipodi:docname="ecobee.svg" xmlns:svg="http://www.w3.org/2000/svg" xmlns:inkscape="http://www.inkscape.org/namespaces/inkscape" xmlns:cc="http://creativecommons.org/ns#" xmlns:dc="http://purl.org/dc/elements/1.1/" xmlns:sodipodi="http://sodipodi.sourceforge.net/DTD/sodipodi-0.dtd" xmlns:rdf="http://www.w3.org/1999/02/22-rdf-syntax-ns#"
	 xmlns="http://www.w3.org/2000/svg" xmlns:xlink="http://www.w3.org/1999/xlink" x="0px" y="0px" width="44.637px"
	 height="44.637px" viewBox="0 0 44.637 44.637" enable-background="new 0 0 44.637 44.637" xml:space="preserve">
<g>
	<path d="M22.575,3.102c-10.574,0-19.146,8.572-19.146,19.146c0,10.569,8.572,19.144,19.146,19.144
		c10.569,0,19.144-8.571,19.145-19.144C41.72,11.674,33.149,3.102,22.575,3.102z M30.157,11.968
		c1.518,1.144,2.771,2.622,3.656,4.315l-3.562,1.648c-0.292-0.544-0.635-1.051-1.023-1.51c-0.396-0.47-0.834-0.896-1.304-1.266
		l1.826-2.61L30.157,11.968z M24.033,9.488c1.888,0.236,3.699,0.893,5.303,1.91l-2.23,3.188c-0.512-0.316-1.061-0.582-1.637-0.792
		c-0.568-0.208-1.161-0.358-1.77-0.447L24.033,9.488z M23.037,9.399l-0.335,3.861c-0.604-0.02-1.219,0.028-1.818,0.133
		c-0.61,0.108-1.211,0.28-1.79,0.515l-1.642-3.517C19.235,9.639,21.149,9.288,23.037,9.399z M12.713,13.824
		c0.138-0.158,0.277-0.314,0.423-0.469c0.229-0.237,0.473-0.47,0.723-0.691l0.163-0.15c0.07-0.063,0.143-0.132,0.213-0.189
		c0.342-0.278,0.708-0.551,1.125-0.824c0.135-0.087,0.271-0.167,0.405-0.248l0.116-0.068c0.219-0.13,0.438-0.253,0.665-0.369
		l1.685,3.606c-0.549,0.297-1.056,0.641-1.509,1.022c-0.471,0.396-0.896,0.832-1.269,1.306l-3.262-2.281
		C12.361,14.249,12.531,14.033,12.713,13.824z M11.615,15.282l3.223,2.256c-0.302,0.498-0.554,1.019-0.751,1.557
		c-0.206,0.566-0.354,1.16-0.444,1.772l-3.966-0.352C9.927,18.659,10.591,16.867,11.615,15.282z M9.75,24.369
		c-0.073-0.419-0.118-0.836-0.152-1.295c-0.015-0.218-0.029-0.432-0.032-0.65l-0.002-0.3c0.002-0.205,0.008-0.409,0.021-0.611
		l3.974,0.35c-0.017,0.604,0.027,1.213,0.134,1.82c0.105,0.595,0.271,1.178,0.497,1.75l-3.631,1.684
		C10.188,26.244,9.917,25.324,9.75,24.369z M12.57,30.413c-0.63-0.758-1.161-1.562-1.592-2.396l3.119-1.44l0.513-0.237
		c0.293,0.543,0.639,1.048,1.021,1.506c0.396,0.468,0.832,0.892,1.299,1.264l-2.291,3.279C13.885,31.81,13.19,31.147,12.57,30.413z
		 M20.809,34.906c-0.952-0.12-1.887-0.35-2.786-0.679c-0.886-0.316-1.747-0.745-2.562-1.27l2.29-3.277
		c0.512,0.317,1.06,0.583,1.635,0.794c0.566,0.207,1.16,0.357,1.771,0.446L20.809,34.906z M24.661,34.814
		c-0.935,0.165-1.9,0.228-2.856,0.182l0.078-0.896l0.268-3.09c0.6,0.021,1.212-0.028,1.816-0.136
		c0.603-0.105,1.19-0.271,1.755-0.493l0.136,0.291l1.56,3.334C26.545,34.374,25.621,34.645,24.661,34.814z M30.708,31.993
		c-0.755,0.628-1.56,1.157-2.391,1.589l-1.689-3.624c0.547-0.293,1.053-0.64,1.51-1.024c0.471-0.396,0.896-0.835,1.271-1.306
		l3.276,2.295C32.106,30.681,31.442,31.376,30.708,31.993z M34.52,26.542c-0.323,0.896-0.748,1.756-1.265,2.561l-3.272-2.291
		c0.314-0.508,0.58-1.056,0.792-1.633c0.207-0.566,0.356-1.16,0.445-1.771l2.789,0.241l1.186,0.104
		C35.073,24.717,34.848,25.652,34.52,26.542z M35.281,22.761l-3.978-0.348c0.021-0.604-0.021-1.214-0.131-1.819
		c-0.104-0.591-0.271-1.179-0.501-1.755l3.572-1.654c0.694,1.617,1.051,3.319,1.051,5.064
		C35.298,22.422,35.291,22.592,35.281,22.761z"/>
	<path d="M0-0.073v44.81h44.637v-44.81H0z M22.43,43.067c-11.499,0-20.819-9.318-20.819-20.814c0-11.5,9.32-20.822,20.819-20.822
		c11.496,0,20.817,9.321,20.816,20.822C43.246,33.745,33.925,43.067,22.43,43.067z"/>
</g>
</svg>
