<?xml version="1.0" encoding="utf-8"?>
<!-- Generator: Adobe Illustrator 15.1.0, SVG Export Plug-In . SVG Version: 6.00 Build 0)  -->
<!DOCTYPE svg PUBLIC "-//W3C//DTD SVG 1.1//EN" "http://www.w3.org/Graphics/SVG/1.1/DTD/svg11.dtd">
<svg version="1.1"
	 id="Layer_1" inkscape:version="0.48.2 r9819" sodipodi:docname="ecobee.svg" xmlns:svg="http://www.w3.org/2000/svg" xmlns:inkscape="http://www.inkscape.org/namespaces/inkscape" xmlns:cc="http://creativecommons.org/ns#" xmlns:dc="http://purl.org/dc/elements/1.1/" xmlns:sodipodi="http://sodipodi.sourceforge.net/DTD/sodipodi-0.dtd" xmlns:rdf="http://www.w3.org/1999/02/22-rdf-syntax-ns#"
	 xmlns="http://www.w3.org/2000/svg" xmlns:xlink="http://www.w3.org/1999/xlink" x="0px" y="0px" width="44.637px"
	 height="44.637px" viewBox="0 0 44.637 44.637" enable-background="new 0 0 44.637 44.637" xml:space="preserve">
<g>
	<path d="M22.465,3.102c-10.574,0-19.146,8.572-19.146,19.146c0,10.57,8.574,19.143,19.146,19.143
		c10.574,0,19.144-8.571,19.145-19.143C41.61,11.673,33.039,3.102,22.465,3.102z M11.399,21.846l-2.56-0.002V21.84h0.006
		c0-3.548,1.441-6.763,3.766-9.087c2.321-2.32,5.531-3.758,9.079-3.76V8.988H21.7v2.562H21.69v-0.005
		c-2.84,0.002-5.415,1.156-7.275,3.02c-1.863,1.863-3.021,4.438-3.021,7.278h0.005V21.846z M17.068,17.582
		c-1.168,1.167-1.893,2.783-1.894,4.562h0.004v0.003l-1.83-0.001v-0.003h0.003c0.002-2.286,0.933-4.354,2.433-5.854
		c1.492-1.494,3.562-2.42,5.848-2.422v-0.007h0.007v1.828H21.63v-0.003C19.85,15.688,18.235,16.413,17.068,17.582z M19.292,19.924
		c-0.584,0.583-0.948,1.391-0.948,2.281h0.002v0.003h-1.098v-0.003h0.003c0-1.194,0.483-2.275,1.268-3.059
		c0.779-0.775,1.856-1.261,3.047-1.263v-0.003h0.012v1.098h-0.012v-0.002C20.679,18.979,19.874,19.342,19.292,19.924z
		 M33.091,23.428v0.003h-0.006c-0.001,2.842-1.154,5.418-3.02,7.278c-1.855,1.855-4.428,3.008-7.267,3.009v0.007h-0.008H22.79
		v-0.007c-2.847,0-5.419-1.152-7.281-3.016c-1.857-1.859-3.008-4.431-3.01-7.271h-0.005v-0.007h2.56v0.007H15.05
		c0.001,2.134,0.869,4.066,2.27,5.469c1.399,1.399,3.334,2.27,5.475,2.27v-0.005h0.003h0.008v0.005
		c2.131-0.001,4.065-0.87,5.467-2.271c1.4-1.396,2.271-3.334,2.271-5.469h-0.006v-0.003v-0.009h0.006
		c-0.002-2.131-0.869-4.066-2.271-5.467c-1.396-1.4-3.334-2.271-5.468-2.271v0.006H22.8v-2.554c2.841,0.001,5.416,1.155,7.277,3.018
		c1.855,1.859,3.009,4.432,3.01,7.27h0.006v0.009H33.091z"/>
	<path d="M0,0v44.637h44.637V0H0z M22.32,43.062c-11.498,0-20.815-9.317-20.815-20.812c0-11.5,9.317-20.821,20.815-20.821
		c11.496,0,20.816,9.321,20.816,20.821C43.136,33.743,33.816,43.062,22.32,43.062z"/>
</g>
</svg>
