<?xml version="1.0" encoding="utf-8"?>
<!-- Generator: Adobe Illustrator 15.1.0, SVG Export Plug-In . SVG Version: 6.00 Build 0)  -->
<!DOCTYPE svg PUBLIC "-//W3C//DTD SVG 1.1//EN" "http://www.w3.org/Graphics/SVG/1.1/DTD/svg11.dtd">
<svg version="1.1"
	 id="Layer_1" inkscape:version="0.48.2 r9819" sodipodi:docname="ecobee.svg" xmlns:svg="http://www.w3.org/2000/svg" xmlns:inkscape="http://www.inkscape.org/namespaces/inkscape" xmlns:cc="http://creativecommons.org/ns#" xmlns:dc="http://purl.org/dc/elements/1.1/" xmlns:sodipodi="http://sodipodi.sourceforge.net/DTD/sodipodi-0.dtd" xmlns:rdf="http://www.w3.org/1999/02/22-rdf-syntax-ns#"
	 xmlns="http://www.w3.org/2000/svg" xmlns:xlink="http://www.w3.org/1999/xlink" x="0px" y="0px" width="44.637px"
	 height="44.637px" viewBox="0 0 44.637 44.637" enable-background="new 0 0 44.637 44.637" xml:space="preserve">
<g>
	<path d="M22.568,3.175c-10.569,0-19.145,8.572-19.145,19.145c0,10.573,8.573,19.146,19.145,19.146
		c10.574,0,19.146-8.571,19.146-19.146C41.714,11.746,33.142,3.175,22.568,3.175z M14.871,31.09
		c-0.243,0.252-0.646,0.256-0.896,0.012c-2.261-2.207-3.67-5.299-3.67-8.713c0-3.488,1.472-6.639,3.824-8.861
		c0.122-0.11,0.279-0.168,0.434-0.168c0.168,0,0.336,0.062,0.461,0.193c0.241,0.256,0.229,0.657-0.021,0.896
		c-2.112,1.988-3.432,4.808-3.432,7.938c0,3.065,1.264,5.826,3.287,7.813v-0.009C15.111,30.444,15.115,30.844,14.871,31.09z
		 M16.967,29.093c-0.241,0.253-0.642,0.266-0.894,0.021c-1.772-1.688-2.882-4.081-2.882-6.729c0-2.668,1.127-5.08,2.936-6.771
		c0.123-0.113,0.274-0.176,0.432-0.176c0.168,0,0.336,0.066,0.461,0.197c0.241,0.256,0.229,0.657-0.025,0.896
		c-1.562,1.468-2.531,3.546-2.531,5.854c0,2.288,0.953,4.346,2.482,5.812C17.196,28.441,17.207,28.841,16.967,29.093z
		 M19.125,27.126c-0.231,0.263-0.631,0.285-0.896,0.056c-1.315-1.174-2.149-2.887-2.15-4.794c0-1.823,0.765-3.474,1.983-4.636
		c0.123-0.116,0.279-0.176,0.438-0.176c0.168,0,0.334,0.065,0.459,0.194c0.239,0.253,0.229,0.653-0.024,0.896
		c-0.979,0.938-1.595,2.257-1.595,3.722c0,1.535,0.668,2.902,1.729,3.846C19.334,26.467,19.358,26.866,19.125,27.126z
		 M22.591,25.754c-1.896,0-3.432-1.536-3.432-3.437c0-1.896,1.531-3.436,3.432-3.436c1.896,0,3.435,1.539,3.435,3.436
		C26.026,24.217,24.49,25.754,22.591,25.754z M26.681,27.063c-0.168,0-0.332-0.063-0.457-0.192c-0.241-0.26-0.229-0.655,0.021-0.896
		c0.979-0.938,1.596-2.259,1.596-3.726c0-1.53-0.668-2.899-1.73-3.851c-0.26-0.229-0.279-0.629-0.051-0.889
		c0.231-0.261,0.631-0.285,0.896-0.056c1.313,1.176,2.149,2.888,2.149,4.792c0,1.824-0.763,3.475-1.982,4.639
		C26.996,27.003,26.839,27.063,26.681,27.063z M28.627,29.198c-0.17,0-0.335-0.068-0.461-0.199
		c-0.241-0.256-0.229-0.657,0.025-0.896c1.562-1.463,2.533-3.542,2.533-5.854c0-2.286-0.957-4.351-2.489-5.812
		c-0.252-0.237-0.261-0.639-0.021-0.891c0.243-0.255,0.641-0.265,0.894-0.024c1.773,1.69,2.884,4.08,2.885,6.728
		c0,2.67-1.127,5.082-2.938,6.771C28.938,29.139,28.781,29.198,28.627,29.198z M31.056,31.111c-0.122,0.116-0.279,0.175-0.434,0.175
		c-0.167,0-0.334-0.063-0.46-0.195c-0.243-0.254-0.229-0.655,0.022-0.896c2.112-1.989,3.426-4.811,3.426-7.94
		c0-3.063-1.258-5.824-3.285-7.812v0.002c-0.248-0.242-0.258-0.642-0.014-0.89c0.244-0.25,0.646-0.256,0.896-0.012
		c2.261,2.209,3.67,5.301,3.667,8.712C34.882,25.74,33.409,28.893,31.056,31.111z"/>
	<path d="M0,0v44.737h44.637V0H0z M22.424,43.138c-11.498,0-20.819-9.322-20.819-20.818S10.926,1.5,22.424,1.5
		C33.92,1.5,43.24,10.823,43.24,22.32C43.24,33.817,33.92,43.138,22.424,43.138z"/>
</g>
</svg>
