<?xml version="1.0" encoding="utf-8"?>
<!-- Generator: Adobe Illustrator 15.1.0, SVG Export Plug-In . SVG Version: 6.00 Build 0)  -->
<!DOCTYPE svg PUBLIC "-//W3C//DTD SVG 1.1//EN" "http://www.w3.org/Graphics/SVG/1.1/DTD/svg11.dtd">
<svg version="1.1"
	 id="Layer_1" inkscape:version="0.48.2 r9819" sodipodi:docname="ecobee.svg" xmlns:svg="http://www.w3.org/2000/svg" xmlns:inkscape="http://www.inkscape.org/namespaces/inkscape" xmlns:cc="http://creativecommons.org/ns#" xmlns:dc="http://purl.org/dc/elements/1.1/" xmlns:sodipodi="http://sodipodi.sourceforge.net/DTD/sodipodi-0.dtd" xmlns:rdf="http://www.w3.org/1999/02/22-rdf-syntax-ns#"
	 xmlns="http://www.w3.org/2000/svg" xmlns:xlink="http://www.w3.org/1999/xlink" x="0px" y="0px" width="44.637px"
	 height="44.637px" viewBox="0 0 44.637 44.637" enable-background="new 0 0 44.637 44.637" xml:space="preserve">
<g>
	<path d="M0,0v44.636h44.637V0H0z M22.321,43.138c-11.499,0-20.818-9.322-20.818-20.818C1.502,10.823,10.822,1.5,22.321,1.5
		c11.495,0,20.815,9.323,20.815,20.819S33.816,43.138,22.321,43.138z"/>
	<path d="M22.466,3.176c-10.574,0-19.146,8.571-19.146,19.144c0,10.573,8.572,19.146,19.146,19.146S41.61,32.894,41.61,22.321
		C41.61,11.748,33.04,3.176,22.466,3.176z M31.807,15.338c0,0-0.865,2.6-8.086,3.248v7.076L27.33,33.1v4.909h-8.082
		c-0.002,0-0.002,0-0.004,0h-2.452l-0.216-0.285c-0.092-0.119-2.209-2.975-1.433-6.789c0.267-1.297,0.964-2.496,1.64-3.656
		c1.44-2.473,2.237-4.09,0.543-6.055c-0.474-0.549-1.203-1.113-1.979-0.672c-0.684,0.387-1.068,1.34-0.901,1.848
		c0.138,0.418,0.709,0.442,1.163,0.386c0.397-0.048,0.754,0.233,0.802,0.629c0.048,0.395-0.233,0.754-0.628,0.801
		c-2.014,0.237-2.579-0.982-2.705-1.365c-0.399-1.221,0.314-2.846,1.562-3.551c1.232-0.698,2.646-0.328,3.78,0.986
		c2.451,2.842,0.94,5.432-0.392,7.721c-0.616,1.059-1.254,2.153-1.471,3.219c-0.518,2.532,0.534,4.61,0.98,5.346h1.272V33.1
		l3.756-7.367l0.071-7.146c0,0-6.066-2.961-7.509-6.932l1.516-1.589l0.217-3.539l2.455,3.539c0,0,4.332,0.361,5.775,0.795
		c1.446,0.432,3.395,1.695,3.395,1.695h4.767L31.807,15.338z"/>
	<path d="M17.15,11.293c0.723,4.262,4.91,3.033,4.91,3.033C20.832,9.49,17.15,11.293,17.15,11.293z M18.738,13.533
		c0,0-0.071-1.371,0.939-1.734l0.071,0.867C19.749,12.666,19.172,13.17,18.738,13.533z"/>
	<path d="M24.433,14.76c0,0,2.609,3.898,5.785,0C30.219,14.76,28.138,12.026,24.433,14.76z M27.345,16.196
		c0,0-0.748-1.147-0.053-1.969l0.496,0.715C27.789,14.942,27.539,15.668,27.345,16.196z"/>
</g>
</svg>
