<?xml version="1.0" encoding="utf-8"?>
<!-- Generator: Adobe Illustrator 15.1.0, SVG Export Plug-In . SVG Version: 6.00 Build 0)  -->
<!DOCTYPE svg PUBLIC "-//W3C//DTD SVG 1.1//EN" "http://www.w3.org/Graphics/SVG/1.1/DTD/svg11.dtd">
<svg version="1.1"
	 id="Layer_1" inkscape:version="0.48.2 r9819" sodipodi:docname="ecobee.svg" xmlns:svg="http://www.w3.org/2000/svg" xmlns:inkscape="http://www.inkscape.org/namespaces/inkscape" xmlns:cc="http://creativecommons.org/ns#" xmlns:dc="http://purl.org/dc/elements/1.1/" xmlns:sodipodi="http://sodipodi.sourceforge.net/DTD/sodipodi-0.dtd" xmlns:rdf="http://www.w3.org/1999/02/22-rdf-syntax-ns#"
	 xmlns="http://www.w3.org/2000/svg" xmlns:xlink="http://www.w3.org/1999/xlink" x="0px" y="0px" width="44.637px"
	 height="44.637px" viewBox="0 0 44.637 44.637" enable-background="new 0 0 44.637 44.637" xml:space="preserve">
<g>
	<path d="M22.465,3.102c-10.574,0-19.146,8.572-19.146,19.146c0,1.726,0.25,3.39,0.679,4.979h5.722
		c-0.247-0.333-0.858-0.835-2.333-0.949c-0.071-0.005-0.135-0.039-0.179-0.096c-0.043-0.056-0.062-0.127-0.048-0.197l0.446-2.527
		c0.013-0.07,0.056-0.132,0.116-0.169c0.062-0.037,0.136-0.045,0.204-0.026c0.588,0.182,2.312,0.541,2.634-0.119
		c0.005-0.188-0.061-1.188-1.917-2.033c-0.063-0.028-0.113-0.084-0.135-0.15c-0.021-0.067-0.014-0.141,0.021-0.201l1.282-2.223
		c0.036-0.062,0.098-0.106,0.167-0.12c0.069-0.016,0.145,0.003,0.201,0.046c0.491,0.373,1.99,1.305,2.52,0.795
		c0.069-0.174,0.35-1.13-1.105-2.559c-0.05-0.05-0.077-0.118-0.075-0.188c0.003-0.07,0.035-0.137,0.089-0.182l1.967-1.648
		c0.056-0.046,0.13-0.068,0.197-0.056c0.071,0.011,0.135,0.052,0.173,0.111c0.333,0.521,1.417,1.912,2.091,1.616
		c0.125-0.139,0.711-0.935-0.168-2.772c-0.03-0.063-0.033-0.138-0.007-0.203c0.027-0.065,0.08-0.116,0.146-0.141l2.413-0.878
		c0.067-0.023,0.142-0.019,0.205,0.017c0.062,0.035,0.107,0.094,0.124,0.164c0.139,0.613,0.692,2.35,1.454,2.234
		c-0.018-0.002,0.979-0.453,0.764-2.653c-0.007-0.07,0.017-0.141,0.064-0.192c0.047-0.052,0.114-0.082,0.185-0.082h2.568
		c0.069,0,0.138,0.03,0.185,0.082c0.048,0.052,0.071,0.122,0.064,0.192c-0.06,0.632-0.06,2.471,0.688,2.628
		c0.729,0.097,1.365-1.609,1.525-2.217c0.019-0.068,0.063-0.125,0.126-0.158c0.062-0.032,0.136-0.037,0.202-0.014l2.412,0.878
		c0.065,0.024,0.119,0.075,0.146,0.141c0.026,0.064,0.024,0.139-0.006,0.203c-0.88,1.838-0.294,2.634-0.17,2.772
		c0.668,0.293,1.757-1.095,2.09-1.616c0.039-0.061,0.102-0.102,0.173-0.111c0.071-0.014,0.144,0.009,0.198,0.056l1.967,1.648
		c0.055,0.045,0.087,0.11,0.09,0.182s-0.023,0.139-0.075,0.188c-1.456,1.429-1.175,2.384-1.104,2.559
		c0.53,0.511,2.028-0.421,2.52-0.795c0.059-0.043,0.135-0.061,0.2-0.046c0.071,0.014,0.132,0.058,0.168,0.12l1.283,2.223
		c0.035,0.061,0.043,0.134,0.021,0.201c-0.021,0.066-0.069,0.122-0.135,0.15c-1.857,0.845-1.924,1.845-1.919,2.033
		c0.323,0.66,2.045,0.301,2.633,0.119c0.071-0.02,0.145-0.011,0.204,0.025c0.062,0.038,0.104,0.1,0.116,0.17l0.447,2.527
		c0.013,0.07-0.005,0.143-0.049,0.197c-0.043,0.057-0.107,0.091-0.179,0.097c-1.474,0.113-2.086,0.614-2.333,0.948h5.659
		c0.428-1.591,0.678-3.255,0.678-4.979C41.61,11.673,33.039,3.102,22.465,3.102z"/>
	<path d="M0.001,0.001v44.636h44.636V0.001H0.001z M22.32,43.061c-11.498,0-20.814-9.316-20.814-20.812
		c0-11.5,9.316-20.821,20.814-20.821c11.496,0,20.816,9.321,20.816,20.821C43.136,33.743,33.816,43.061,22.32,43.061z"/>
	<path d="M34.676,27.636c-0.047-0.058-0.065-0.135-0.051-0.208c0.013-0.057,0.309-1.347,2.668-1.62l-0.354-1.99
		c-0.727,0.188-2.562,0.539-2.985-0.519c-0.023-0.116-0.183-1.459,1.94-2.525l-1.01-1.75c-0.619,0.429-2.225,1.394-2.988,0.541
		c-0.062-0.1-0.672-1.299,0.958-3.027l-1.547-1.297c-0.436,0.614-1.613,2.075-2.618,1.537c-0.092-0.071-1.069-0.984-0.13-3.165
		l-1.907-0.693c-0.223,0.712-0.882,2.486-2.021,2.32c-1.13-0.238-1.153-2.146-1.117-2.895h-2.03c0.14,2.372-1.102,2.887-1.156,2.909
		c-1.175,0.172-1.796-1.604-1.998-2.331l-1.899,0.691c0.941,2.18-0.037,3.091-0.081,3.13c-1.052,0.566-2.231-0.89-2.667-1.503
		l-1.547,1.297c1.629,1.729,1.021,2.926,0.994,2.979c-0.792,0.893-2.403-0.066-3.023-0.492l-1.009,1.75
		c2.122,1.067,1.964,2.407,1.956,2.466c-0.438,1.108-2.275,0.763-3.003,0.576l-0.352,1.991c2.357,0.273,2.654,1.562,2.667,1.62
		c0.016,0.073-0.004,0.15-0.052,0.208c-0.047,0.059-0.119,0.093-0.193,0.093H4.125c2.358,7.899,9.674,13.662,18.34,13.662
		c8.668,0,15.979-5.763,18.338-13.662H34.87C34.795,27.729,34.724,27.695,34.676,27.636z M25.942,27.538
		c0-1.907-1.547-3.452-3.451-3.452c-1.907,0-3.453,1.545-3.453,3.452l-6.989-0.001c0-5.769,4.674-10.442,10.442-10.442
		c5.767,0,10.44,4.674,10.44,10.442L25.942,27.538z"/>
</g>
</svg>
