<?xml version="1.0" encoding="utf-8"?>
<!-- Generator: Adobe Illustrator 15.1.0, SVG Export Plug-In . SVG Version: 6.00 Build 0)  -->
<!DOCTYPE svg PUBLIC "-//W3C//DTD SVG 1.1//EN" "http://www.w3.org/Graphics/SVG/1.1/DTD/svg11.dtd">
<svg version="1.1"
	 id="Layer_1" inkscape:version="0.48.2 r9819" sodipodi:docname="ecobee.svg" xmlns:svg="http://www.w3.org/2000/svg" xmlns:inkscape="http://www.inkscape.org/namespaces/inkscape" xmlns:cc="http://creativecommons.org/ns#" xmlns:dc="http://purl.org/dc/elements/1.1/" xmlns:sodipodi="http://sodipodi.sourceforge.net/DTD/sodipodi-0.dtd" xmlns:rdf="http://www.w3.org/1999/02/22-rdf-syntax-ns#"
	 xmlns="http://www.w3.org/2000/svg" xmlns:xlink="http://www.w3.org/1999/xlink" x="0px" y="0px" width="44.637px"
	 height="44.637px" viewBox="0 0 44.637 44.637" enable-background="new 0 0 44.637 44.637" xml:space="preserve">
<g>
	<path fill="#020202" d="M22.451,3.176c-10.573,0-19.146,8.571-19.146,19.144c0,10.573,8.572,19.146,19.146,19.146
		s19.145-8.571,19.145-19.145C41.596,11.748,33.025,3.176,22.451,3.176z M25.578,19.662c-0.252-0.272-0.336-0.658-0.216-1.009
		c0.121-0.352,0.425-0.604,0.789-0.663c0.365-0.057,0.734,0.092,0.957,0.387c2.216,2.64,1.868,6.606-0.771,8.824
		c-2.64,2.215-6.608,1.867-8.823-0.771c-1.959-2.336-1.959-5.717,0-8.053c0.187-0.227,0.462-0.361,0.756-0.367
		c0.394-0.006,0.754,0.219,0.921,0.577c0.167,0.354,0.11,0.777-0.146,1.076c-1.36,1.621-1.36,3.858,0,5.479
		c1.52,1.811,4.194,2.045,6.006,0.525C26.861,24.148,27.098,21.473,25.578,19.662z M23.301,23.8
		c0.005,0.361-0.184,0.697-0.496,0.879c-0.312,0.182-0.697,0.182-1.009,0c-0.312-0.182-0.501-0.518-0.496-0.879v-6.43
		c-0.004-0.267,0.098-0.524,0.285-0.715c0.187-0.19,0.44-0.3,0.708-0.302c0.269-0.002,0.526,0.105,0.718,0.295
		c0.19,0.192,0.294,0.451,0.29,0.722V23.8z M9.683,16.99l12.422-8.388l0.03,1.957l-11.622,7.685
		C10.017,18.257,9.338,18.026,9.683,16.99z M13.774,16.627l-0.045,14.808h-1.351v-13.74L13.774,16.627z M32.986,32.391H11.609
		c-0.277-0.231-0.188-0.465,0-0.699h21.377C33.291,32.026,33.144,32.211,32.986,32.391z M30.822,16.627l1.397,1.068v13.74h-1.35
		L30.822,16.627z M34.085,18.218l-11.577-7.68l-0.064-1.914l3.61,2.416l-0.107-3.437l1.109-0.006l0.13,4.2l7.729,5.168
		C35.271,18.097,34.671,18.226,34.085,18.218z"/>
	<path fill="#020202" d="M0.001,0.001v44.636h44.636V0.001H0.001z M22.306,43.138c-11.499,0-20.82-9.322-20.82-20.818
		c0-11.497,9.321-20.819,20.82-20.819c11.496,0,20.817,9.323,20.816,20.819C43.122,33.816,33.802,43.138,22.306,43.138z"/>
</g>
</svg>
