<?xml version="1.0" encoding="utf-8"?>
<!-- Generator: Adobe Illustrator 15.1.0, SVG Export Plug-In . SVG Version: 6.00 Build 0)  -->
<!DOCTYPE svg PUBLIC "-//W3C//DTD SVG 1.1//EN" "http://www.w3.org/Graphics/SVG/1.1/DTD/svg11.dtd">
<svg version="1.1"
	 id="Layer_1" inkscape:version="0.48.2 r9819" sodipodi:docname="ecobee.svg" xmlns:svg="http://www.w3.org/2000/svg" xmlns:inkscape="http://www.inkscape.org/namespaces/inkscape" xmlns:cc="http://creativecommons.org/ns#" xmlns:dc="http://purl.org/dc/elements/1.1/" xmlns:sodipodi="http://sodipodi.sourceforge.net/DTD/sodipodi-0.dtd" xmlns:rdf="http://www.w3.org/1999/02/22-rdf-syntax-ns#"
	 xmlns="http://www.w3.org/2000/svg" xmlns:xlink="http://www.w3.org/1999/xlink" x="0px" y="0px" width="44.637px"
	 height="44.637px" viewBox="0 0 44.637 44.637" enable-background="new 0 0 44.637 44.637" xml:space="preserve">
<g>
	<path d="M22.465,3.176c-10.573,0-19.145,8.571-19.145,19.144c0,10.573,8.571,19.146,19.145,19.146
		c10.574,0,19.145-8.571,19.145-19.145C41.61,11.748,33.039,3.176,22.465,3.176z M14.971,10.414
		c0.117-0.131,2.914-3.226,8.175-3.226c5.222,0,8.396,3.045,8.529,3.176c0.379,0.369,0.386,0.979,0.016,1.356
		c-0.371,0.379-0.979,0.387-1.357,0.015c-0.024-0.022-2.776-2.627-7.188-2.627c-4.405,0-6.714,2.552-6.736,2.577
		c-0.19,0.215-0.455,0.324-0.721,0.324c-0.226,0-0.453-0.079-0.635-0.241C14.657,11.416,14.619,10.811,14.971,10.414z
		 M23.097,15.973c-1.104,0-1.689,0.604-1.714,0.631c-0.359,0.379-0.964,0.41-1.352,0.055c-0.387-0.354-0.425-0.945-0.076-1.339
		c0.113-0.13,1.178-1.267,3.142-1.267c1.926,0,3.098,1.092,3.227,1.217c0.379,0.37,0.386,0.979,0.016,1.357
		c-0.189,0.192-0.438,0.289-0.688,0.289c-0.241,0-0.483-0.092-0.672-0.274C24.959,16.622,24.25,15.973,23.097,15.973z M24.324,18.2
		c0,0.54-0.438,0.978-0.979,0.978s-0.978-0.438-0.978-0.978c0-0.541,0.438-0.979,0.978-0.979S24.324,17.659,24.324,18.2z
		 M23.085,12.651c-2.672,0-4.074,1.505-4.132,1.567c-0.356,0.39-0.961,0.423-1.354,0.069c-0.393-0.353-0.43-0.952-0.08-1.349
		c0.08-0.09,1.996-2.209,5.565-2.209c3.528,0,5.688,2.072,5.778,2.159c0.38,0.37,0.387,0.979,0.016,1.358
		c-0.188,0.192-0.436,0.29-0.686,0.29c-0.241,0-0.483-0.094-0.671-0.274C27.508,14.25,25.805,12.651,23.085,12.651z M20.882,21.928
		c0.001-0.001,0.135-0.073,0.442-0.073c0.245,0,0.528,0.044,0.843,0.132c0.993,0.275,7.927,1.944,10.608,2.588l-6.326,4.691
		c-0.017,0.013-0.422,0.3-1.194,0.3c-0.28,0-0.576-0.038-0.881-0.115c-1.274-0.318-7.755-2.37-10.287-3.176L20.882,21.928z
		 M13.204,12.278l-0.017-0.01c0.009-0.012,0.021-0.024,0.029-0.037L13.204,12.278z M33.435,30.929l-0.294,0.207
		c-0.391-0.413-1.117-0.729-1.864-0.406c-0.917,0.398-3.787,2.006-4.436,3.383c-0.34,0.722-0.483,1.206-0.544,1.498l-1.511,0.736
		l-1.633-0.723c-0.021-1.26-0.92-1.717-1.014-1.76c-0.225-0.078-5.524-1.916-6.627-2.123l-0.181-0.018
		c-0.25,0-0.476,0.104-0.638,0.295c-0.178,0.21-0.255,0.51-0.282,0.804l-0.992-0.495v-5.213c2.222,0.707,9.324,2.962,10.711,3.309
		c0.384,0.096,0.762,0.145,1.124,0.145c1.113,0,1.732-0.452,1.792-0.498l6.388-4.736V30.929z"/>
	<path d="M-0.1,0v44.736h44.737V0H-0.1z M22.32,43.138c-11.498,0-20.818-9.322-20.818-20.818C1.501,10.823,10.821,1.5,22.32,1.5
		c11.496,0,20.816,9.323,20.816,20.819S33.816,43.138,22.32,43.138z"/>
</g>
</svg>
