<?xml version="1.0" encoding="utf-8"?>
<!-- Generator: Adobe Illustrator 15.1.0, SVG Export Plug-In . SVG Version: 6.00 Build 0)  -->
<!DOCTYPE svg PUBLIC "-//W3C//DTD SVG 1.1//EN" "http://www.w3.org/Graphics/SVG/1.1/DTD/svg11.dtd">
<svg version="1.1"
	 id="Layer_1" inkscape:version="0.48.2 r9819" sodipodi:docname="ecobee.svg" xmlns:svg="http://www.w3.org/2000/svg" xmlns:inkscape="http://www.inkscape.org/namespaces/inkscape" xmlns:cc="http://creativecommons.org/ns#" xmlns:dc="http://purl.org/dc/elements/1.1/" xmlns:sodipodi="http://sodipodi.sourceforge.net/DTD/sodipodi-0.dtd" xmlns:rdf="http://www.w3.org/1999/02/22-rdf-syntax-ns#"
	 xmlns="http://www.w3.org/2000/svg" xmlns:xlink="http://www.w3.org/1999/xlink" x="0px" y="0px" width="44.637px"
	 height="44.637px" viewBox="0 0 44.637 44.637" enable-background="new 0 0 44.637 44.637" xml:space="preserve">
<g>
	<path d="M7.017,33.551l34.566-10.783c0.005-0.166,0.021-0.327,0.021-0.494c0-0.15-0.02-0.303-0.021-0.456L6.464,32.772
		C6.639,33.038,6.829,33.293,7.017,33.551z"/>
	<path d="M9.865,36.662l31.146-9.719c0.086-0.341,0.175-0.68,0.242-1.024L9.084,35.954C9.335,36.199,9.6,36.431,9.865,36.662z"/>
	<path d="M8.321,35.145L41.421,24.82c0.043-0.323,0.083-0.651,0.105-0.983L7.653,34.401C7.865,34.658,8.096,34.898,8.321,35.145z"/>
	<path d="M0-0.039v44.773h44.635V-0.039H0z M22.319,43.093C10.821,43.093,1.5,33.771,1.5,22.276
		c0-11.489,9.316-20.812,20.814-20.812c11.496,0,20.816,9.321,20.816,20.812C43.135,33.771,33.815,43.093,22.319,43.093z"/>
	<path d="M22.464,3.136c-10.573,0-19.146,8.571-19.146,19.139c0,3.514,0.96,6.788,2.609,9.616l35.605-11.104
		C40.772,10.917,32.536,3.136,22.464,3.136z M27.495,19.496h-0.062c-0.055,0.979-1.375,1.771-3.019,1.806
		c-1.729,0.033-3.17-0.775-3.229-1.806c-0.057-1.036,1.294-1.903,3.021-1.938c0.826-0.016,1.588,0.161,2.164,0.465V11.44
		l-7.625,2.184v8.369h-0.062c-0.055,0.982-1.375,1.774-3.019,1.812c-1.729,0.035-3.17-0.777-3.229-1.812
		c-0.057-1.035,1.294-1.897,3.021-1.936c0.826-0.017,1.588,0.16,2.164,0.462v-8.874l9.875-2.817V19.496z"/>
	<path d="M11.687,38.094l28.622-8.928c0.138-0.355,0.277-0.71,0.396-1.075L10.79,37.422C11.085,37.651,11.378,37.883,11.687,38.094z
		"/>
	<path d="M22.464,41.418c7.675,0,14.271-4.525,17.327-11.043L12.816,38.79C15.652,40.45,18.942,41.418,22.464,41.418z"/>
</g>
</svg>
