<?xml version="1.0" encoding="utf-8"?>
<!-- Generator: Adobe Illustrator 15.1.0, SVG Export Plug-In . SVG Version: 6.00 Build 0)  -->
<!DOCTYPE svg PUBLIC "-//W3C//DTD SVG 1.1//EN" "http://www.w3.org/Graphics/SVG/1.1/DTD/svg11.dtd">
<svg version="1.1"
	 id="Layer_1" inkscape:version="0.48.2 r9819" sodipodi:docname="ecobee.svg" xmlns:svg="http://www.w3.org/2000/svg" xmlns:inkscape="http://www.inkscape.org/namespaces/inkscape" xmlns:cc="http://creativecommons.org/ns#" xmlns:dc="http://purl.org/dc/elements/1.1/" xmlns:sodipodi="http://sodipodi.sourceforge.net/DTD/sodipodi-0.dtd" xmlns:rdf="http://www.w3.org/1999/02/22-rdf-syntax-ns#"
	 xmlns="http://www.w3.org/2000/svg" xmlns:xlink="http://www.w3.org/1999/xlink" x="0px" y="0px" width="44.637px"
	 height="44.637px" viewBox="0 0 44.637 44.637" enable-background="new 0 0 44.637 44.637" xml:space="preserve">
<g>
	<path d="M22.471,3.281c-10.573,0-19.145,8.57-19.145,19.145c0,10.572,8.572,19.144,19.145,19.144
		c10.574,0,19.145-8.572,19.145-19.144C41.615,11.851,33.045,3.281,22.471,3.281z M30.254,36.14H15.691V8.894
		c0,0,0.595-0.115,2.005-0.121V6.714l0.463,0.012c0.134,0.004,3.284,0.088,4.572,0.604l0.208,0.084l0.468,1.735
		c1.54,0.183,3.35,0.44,5.456,0.81C28.863,9.959,30.662,23.703,30.254,36.14z"/>
	<circle cx="22.532" cy="20.888" r="2.618"/>
	<path d="M22.19,8.094c-0.894-0.273-2.601-0.404-3.594-0.449v1.139c0.988,0.023,2.259,0.098,3.849,0.262L22.19,8.094z"/>
	<path d="M0,0v44.637h44.637V0H0z M22.326,43.243c-11.498,0-20.819-9.322-20.819-20.817c0-11.498,9.321-20.82,20.819-20.82
		c11.495,0,20.815,9.322,20.815,20.82C43.142,33.921,33.822,43.243,22.326,43.243z"/>
</g>
</svg>
