<?xml version="1.0" encoding="utf-8"?>
<!-- Generator: Adobe Illustrator 15.1.0, SVG Export Plug-In . SVG Version: 6.00 Build 0)  -->
<!DOCTYPE svg PUBLIC "-//W3C//DTD SVG 1.1//EN" "http://www.w3.org/Graphics/SVG/1.1/DTD/svg11.dtd">
<svg version="1.1"
	 id="Layer_1" inkscape:version="0.48.2 r9819" sodipodi:docname="ecobee.svg" xmlns:svg="http://www.w3.org/2000/svg" xmlns:inkscape="http://www.inkscape.org/namespaces/inkscape" xmlns:cc="http://creativecommons.org/ns#" xmlns:dc="http://purl.org/dc/elements/1.1/" xmlns:sodipodi="http://sodipodi.sourceforge.net/DTD/sodipodi-0.dtd" xmlns:rdf="http://www.w3.org/1999/02/22-rdf-syntax-ns#"
	 xmlns="http://www.w3.org/2000/svg" xmlns:xlink="http://www.w3.org/1999/xlink" x="0px" y="0px" width="44.637px"
	 height="44.637px" viewBox="0 0 44.637 44.637" enable-background="new 0 0 44.637 44.637" xml:space="preserve">
<g>
	<path d="M22.465,3.176C11.892,3.176,3.32,11.747,3.32,22.32c0,10.573,8.573,19.146,19.146,19.146
		c10.574,0,19.145-8.571,19.145-19.145C41.61,11.748,33.039,3.176,22.465,3.176z M36.385,29.238l-0.822,0.347
		c-3.244-3.409-5.411-4.551-6.547-4.933c0.42,0.595,0.346,1.486,0.087,2.033c-1.223,2.597-1.551,3.461-6.193,2.664
		c-2.729-0.629-4.765-3.203-6.828-4.994c-1.515-1.313-1.882-2.576-6.034-2.989c8.253-3.257,10.653-7.38,18.023-6.136
		c3.646,1.002,3.909,4.453,3.346,7.197c-0.095,0.451-0.89,1.09-2.149,0.133c-6.081-3.203-10.099-2.931-13.264-2.028
		c3.4,0.293,6.327,0.301,8.768,1.252C37.056,26.574,36.386,29.24,36.385,29.238z M31.417,22.426v0.002h-0.001L31.417,22.426z"/>
	<path d="M0,0v44.637h44.537V0H0z M22.32,43.138c-11.498,0-20.818-9.322-20.818-20.818C1.501,10.823,10.822,1.5,22.32,1.5
		c11.496,0,20.816,9.323,20.816,20.819S33.816,43.138,22.32,43.138z"/>
</g>
</svg>
