<?xml version="1.0" encoding="utf-8"?>
<!-- Generator: Adobe Illustrator 15.1.0, SVG Export Plug-In . SVG Version: 6.00 Build 0)  -->
<!DOCTYPE svg PUBLIC "-//W3C//DTD SVG 1.1//EN" "http://www.w3.org/Graphics/SVG/1.1/DTD/svg11.dtd">
<svg version="1.1"
	 id="Layer_1" inkscape:version="0.48.2 r9819" sodipodi:docname="ecobee.svg" xmlns:svg="http://www.w3.org/2000/svg" xmlns:inkscape="http://www.inkscape.org/namespaces/inkscape" xmlns:cc="http://creativecommons.org/ns#" xmlns:dc="http://purl.org/dc/elements/1.1/" xmlns:sodipodi="http://sodipodi.sourceforge.net/DTD/sodipodi-0.dtd" xmlns:rdf="http://www.w3.org/1999/02/22-rdf-syntax-ns#"
	 xmlns="http://www.w3.org/2000/svg" xmlns:xlink="http://www.w3.org/1999/xlink" x="0px" y="0px" width="44.637px"
	 height="44.637px" viewBox="0 0 44.637 44.637" enable-background="new 0 0 44.637 44.637" xml:space="preserve">
<g>
	<path d="M17.083,16.827c0.587,0,1.063-0.479,1.063-1.065s-0.477-1.063-1.063-1.063c-0.588,0-1.062,0.477-1.062,1.063
		S16.496,16.827,17.083,16.827z M17.007,15.253c-0.001-0.023,0.008-0.044,0.024-0.062c0.017-0.017,0.038-0.026,0.062-0.026
		s0.048,0.01,0.066,0.026c0.016,0.016,0.024,0.039,0.024,0.062v0.571c0,0.031-0.016,0.061-0.044,0.077
		c-0.028,0.016-0.062,0.016-0.089,0s-0.045-0.046-0.044-0.077V15.253z M16.67,15.344c0.016-0.019,0.04-0.032,0.066-0.032
		c0.034-0.001,0.066,0.019,0.082,0.053c0.015,0.03,0.009,0.068-0.013,0.094c-0.12,0.144-0.12,0.343,0,0.485
		c0.135,0.162,0.371,0.183,0.532,0.048c0.161-0.136,0.181-0.371,0.047-0.533c-0.023-0.024-0.031-0.06-0.019-0.088
		c0.009-0.032,0.036-0.056,0.068-0.061s0.065,0.007,0.085,0.034c0.197,0.234,0.166,0.586-0.067,0.783
		c-0.234,0.197-0.586,0.164-0.782-0.068C16.495,15.852,16.495,15.551,16.67,15.344z"/>
	<circle cx="17.046" cy="13.233" r="0.225"/>
	<ellipse cx="30.572" cy="21.292" rx="3.02" ry="1.312"/>
	<path d="M22.464,3.175c-10.573,0-19.146,8.572-19.146,19.145c0,10.573,8.572,19.145,19.146,19.145
		c10.575,0,19.145-8.571,19.145-19.145S33.039,3.175,22.464,3.175z M21.694,31.904c-1.782,1.009-7.032,1.128-9.045,0.089
		c-2.819-1.455-2.483-6.572-2.483-10.998c0-3.491-0.108-6.826,1.772-8.515c0.849-0.759,1.912-0.949,3.548-1.063
		c2.604-0.181,5.491-0.105,6.829,1.151c1.471,1.382,1.688,5.586,1.688,8.693C24.002,25.359,24.322,30.419,21.694,31.904z
		 M34.582,32.467h-8.068c-0.154,0-0.279-0.125-0.279-0.279s0.125-0.279,0.279-0.279h8.068c0.153,0,0.278,0.125,0.278,0.279
		S34.736,32.467,34.582,32.467z M25.81,31.488l0.705-10.244l0.008,0.065c0-1.249,1.791-2.262,4-2.262s4.002,1.013,4.002,2.262
		v-0.072l0.824,10.251H25.81z"/>
	<path d="M0,0v44.637h44.637V0H0z M22.319,43.139C10.821,43.139,1.5,33.817,1.5,22.321c0-11.497,9.32-20.82,20.818-20.82
		c11.497,0,20.817,9.323,20.817,20.82C43.136,33.817,33.816,43.139,22.319,43.139z"/>
	<path d="M20.352,21.498c-3.306-0.905-6.476-0.043-6.477-0.043c-1.139,0.427-1.195,2.627-1.195,4.266c0,2.08-0.09,4.588,1.463,5.217
		c1.25,0.506,4.86,0.425,5.979-0.035c1.445-0.594,1.281-3.131,1.281-5.056C21.404,24.387,21.435,21.793,20.352,21.498z
		 M19.416,30.259c-0.862,0.352-3.644,0.416-4.604,0.026c-1.195-0.485-1.126-2.417-1.126-4.018c0-1.264,0.043-2.956,0.921-3.285
		c-0.001,0,2.7-0.659,4.986,0.033c0.827,0.25,0.811,2.226,0.811,3.349C20.404,27.846,20.53,29.8,19.416,30.259z"/>
	<path d="M17.06,28.198c-0.621-0.001-0.745,0.555-0.745,0.555v0.812c0,0.099,0.078,0.179,0.179,0.179h1.135
		c0.098,0,0.178-0.08,0.178-0.179v-0.812C17.805,28.7,17.673,28.201,17.06,28.198z"/>
	<path d="M18.577,25.9h-0.629c-0.1,0-0.179,0.08-0.179,0.179v1.518c0,0.098,0.079,0.176,0.179,0.176h0.629
		c0.1,0,0.178-0.078,0.178-0.176v-1.518C18.755,25.98,18.677,25.9,18.577,25.9z"/>
	<path d="M16.315,25.919c0-0.1-0.08-0.179-0.178-0.179h-0.586c-0.1,0-0.179,0.079-0.179,0.179v1.767
		c0,0.099,0.079,0.179,0.179,0.179h0.586c0.098,0,0.178-0.08,0.178-0.179V25.919z"/>
</g>
</svg>
