<?xml version="1.0" encoding="utf-8"?>
<!-- Generator: Adobe Illustrator 15.1.0, SVG Export Plug-In . SVG Version: 6.00 Build 0)  -->
<!DOCTYPE svg PUBLIC "-//W3C//DTD SVG 1.1//EN" "http://www.w3.org/Graphics/SVG/1.1/DTD/svg11.dtd">
<svg version="1.1"
	 id="Layer_1" inkscape:version="0.48.2 r9819" sodipodi:docname="ecobee.svg" xmlns:svg="http://www.w3.org/2000/svg" xmlns:inkscape="http://www.inkscape.org/namespaces/inkscape" xmlns:cc="http://creativecommons.org/ns#" xmlns:dc="http://purl.org/dc/elements/1.1/" xmlns:sodipodi="http://sodipodi.sourceforge.net/DTD/sodipodi-0.dtd" xmlns:rdf="http://www.w3.org/1999/02/22-rdf-syntax-ns#"
	 xmlns="http://www.w3.org/2000/svg" xmlns:xlink="http://www.w3.org/1999/xlink" x="0px" y="0px" width="44.637px"
	 height="44.637px" viewBox="0 0 44.637 44.637" enable-background="new 0 0 44.637 44.637" xml:space="preserve">
<g>
	<circle cx="22.843" cy="14.169" r="1.44"/>
	<circle cx="22.794" cy="10.748" r="0.304"/>
	<g>
		<circle cx="22.794" cy="10.748" r="0.304"/>
		<path d="M0,0v44.734h44.636V0H0z M22.32,43.138c-11.498,0-20.815-9.322-20.815-20.818C1.501,10.823,10.822,1.5,22.32,1.5
			c11.496,0,20.816,9.323,20.816,20.816C43.136,33.815,33.816,43.138,22.32,43.138z"/>
		<path d="M22.465,3.175C11.892,3.175,3.32,11.746,3.32,22.32c0,10.574,8.573,19.146,19.146,19.146
			c10.574,0,19.144-8.57,19.145-19.146C41.61,11.745,33.039,3.175,22.465,3.175z M29.082,36.008
			c-2.414,1.363-9.52,1.525-12.238,0.119c-3.814-1.971-3.36-8.895-3.36-14.879c0-4.727-0.146-9.234,2.4-11.521
			c1.145-1.023,2.586-1.286,4.799-1.438c3.521-0.244,7.429-0.146,9.239,1.559c1.986,1.869,2.28,7.561,2.28,11.76
			C32.202,27.156,32.636,34.001,29.082,36.008z"/>
	</g>
</g>
<g>
	<path d="M22.812,30.994c-0.84-0.002-1.008,0.75-1.008,0.75v1.1c0,0.133,0.106,0.24,0.239,0.24h1.537
		c0.133,0,0.236-0.107,0.236-0.24v-1.1C23.821,31.674,23.641,30.996,22.812,30.994z"/>
	<path d="M21.804,27.91c0-0.137-0.107-0.24-0.24-0.24H20.77c-0.133,0-0.24,0.104-0.24,0.24v2.391c0,0.133,0.107,0.24,0.24,0.24
		h0.794c0.133,0,0.24-0.107,0.24-0.24V27.91z"/>
	<path d="M28.689,27.813c0-1.975,0.042-5.481-1.423-5.885c-4.473-1.223-8.76-0.055-8.761-0.055c-1.541,0.577-1.617,3.551-1.617,5.77
		c0,2.813-0.123,6.205,1.979,7.061c1.688,0.685,6.569,0.57,8.087-0.051C28.912,33.848,28.689,30.417,28.689,27.813z M25.998,33.781
		c-1.166,0.478-4.931,0.562-6.229,0.032c-1.618-0.652-1.521-3.268-1.521-5.432c0-1.709,0.059-4,1.246-4.445
		c0,0,3.649-0.893,6.741,0.045c1.119,0.338,1.1,3.014,1.1,4.529C27.334,30.518,27.506,33.158,25.998,33.781z"/>
	<path d="M24.866,27.885h-0.854c-0.134,0-0.24,0.107-0.24,0.24v2.053c0,0.133,0.106,0.24,0.24,0.24h0.854
		c0.132,0,0.234-0.107,0.234-0.24v-2.053C25.104,27.992,24.998,27.885,24.866,27.885z"/>
</g>
<path d="M22.843,12.729c-0.794,0-1.438,0.646-1.438,1.441s0.646,1.438,1.438,1.438c0.796,0,1.44-0.645,1.44-1.438
	S23.638,12.729,22.843,12.729z M22.74,13.483c-0.005-0.027,0.013-0.062,0.03-0.086c0.023-0.021,0.057-0.035,0.085-0.035
	c0.032,0,0.065,0.015,0.088,0.035c0.021,0.024,0.035,0.059,0.035,0.086v0.773c0,0.043-0.021,0.082-0.061,0.104
	c-0.037,0.021-0.084,0.021-0.12,0c-0.039-0.021-0.062-0.062-0.062-0.104v-0.773H22.74z M23.344,14.663
	c-0.318,0.267-0.794,0.224-1.06-0.096c-0.235-0.275-0.235-0.686,0-0.967c0.021-0.023,0.055-0.043,0.092-0.043
	c0.047-0.002,0.09,0.025,0.106,0.069c0.021,0.043,0.017,0.094-0.018,0.129c-0.162,0.195-0.162,0.463,0,0.658
	c0.182,0.216,0.503,0.246,0.721,0.062c0.216-0.182,0.245-0.504,0.063-0.721c-0.03-0.033-0.041-0.078-0.025-0.121
	c0.018-0.041,0.05-0.072,0.095-0.078c0.047-0.008,0.092,0.01,0.113,0.045C23.701,13.923,23.66,14.397,23.344,14.663z"/>
</svg>
