<?xml version="1.0" encoding="utf-8"?>
<!-- Generator: Adobe Illustrator 15.1.0, SVG Export Plug-In . SVG Version: 6.00 Build 0)  -->
<!DOCTYPE svg PUBLIC "-//W3C//DTD SVG 1.1//EN" "http://www.w3.org/Graphics/SVG/1.1/DTD/svg11.dtd">
<svg version="1.1" id="Layer_1" xmlns="http://www.w3.org/2000/svg" xmlns:xlink="http://www.w3.org/1999/xlink" x="0px" y="0px"
	 width="273px" height="274px" viewBox="0 0 273 274" enable-background="new 0 0 273 274" xml:space="preserve">
<path id="path8282" fill="#FFFFFF" stroke="#FFFFFF" stroke-miterlimit="10" d="M226.803,272.625v-11.703h-20.636v3.811h-8.655
	v7.646L226.803,272.625z"/>
<path id="path2921_1_" fill="none" stroke="#FFFFFF" stroke-miterlimit="10" d="M75.211,64.488L8.118,64.383v59.818h258.138V64.383
	l-66.816,0.105"/>
<rect id="rect2913" x="3.402" y="123.56" fill="none" stroke="#FFFFFF" stroke-miterlimit="10" width="74.905" height="95.834"/>
<rect id="rect2905" x="79.057" y="207.659" fill="none" stroke="#FFFFFF" stroke-miterlimit="10" width="81.07" height="65.289"/>
<path id="path12742" fill="none" stroke="#FFFFFF" stroke-miterlimit="10" d="M4.146,219.146v53.23h74.247l0.226-22.025h14.527
	V232.73H77.947l0.181-27.487H52.969v13.903H4.146z"/>
<path id="path10951" fill="none" stroke="#FFFFFF" stroke-miterlimit="10" d="M195.318,208.021v-3.006h4.014V179.04l6.488-0.235
	V155.9h-6.252v-14.168h-3.07V123.82L77.87,123.729l0.258,84.292H195.318z"/>
<path id="path9173" fill="none" stroke="#FFFFFF" stroke-miterlimit="10" d="M195.525,124.294v17.642h3.979v1.728h7.402v46.088
	l-7.678-0.065v15.561h35.019l0.132,16.287h36.812l-0.266-97.328L195.525,124.294z"/>
<path id="path5621" fill="none" stroke="#FFFFFF" stroke-miterlimit="10" d="M159.963,208.021h35.355v-2.779h38.931l0.132,16.287
	h36.812l-0.264,51.096h-44.128v-11.703h-20.636v3.811h-8.655v7.646h-37.549L159.963,208.021L159.963,208.021z"/>
<path id="rect4730" fill="none" stroke="#FFFFFF" stroke-miterlimit="10" d="M197.957,142.748l9.579-0.132v46.696h-9.474v-3.934
	h-3.682v-9.551h9.973v-18.164h-9.973v-8.701h3.574L197.957,142.748L197.957,142.748z"/>
<path id="path8286" fill="#FFFFFF" stroke="#FFFFFF" d="M255.7,220.652v-3.909h-8.566v3.909 M248.467,216.736v-5.563
	c0-3.478,6.021-3.592,6.021,0v5.29 M245.412,220.34v-17.148c0-7.396-10.992-7.287-10.992,0v17.424h33.02v-7.036h-7.084v6.892"/>
<path id="rect2050" fill="none" stroke="#FFFFFF" stroke-width="2" d="M193.861,141.936h6.395 M195.318,185.381v22.643H150.42
	 M195.318,124.294v6.593 M190.418,213.85v-5.826 M78.128,205.242H52.969 M77.864,131.221v-14.036 M93.489,253.839v-6.886
	 M93.489,216.232v-7.945 M159.963,215.173v-7.149 M244.18,238.214v-16.42 M168.702,229.209h-9.005 M215.843,229.209h-31.78
	 M72.567,219.146h5.827 M31.253,219.146h28.602 M125.701,208.021H78.128 M265.5,189.749h5.43 M225.377,189.749h25.291
	 M71.375,189.749h6.753 M25.294,189.749h32.442 M73.583,64.483l125.854,0.005l66.816-0.105v59.818 M130.656,272.625H3.975V124.202
	H32.1 M270.93,260.275v12.35H146.471 M270.93,250.576v2.964 M270.93,235.217v2.965 M243.622,124.202h27.308V228.48 M153.624,124.202
	h69.25 M50.153,124.202h70.597 M8.118,124.201V64.383l67.092,0.105 M3.975,189.749h6.886 M234.249,205.242h-38.931 M3.975,219.146
	h13.771 M52.704,219.146v-28.867 M271.193,221.529H234.38 M234.116,189.221v39.988h-3.708 M244.18,272.111v-18.272 M159.963,272.378
	v-46.876 M93.489,272.378v-9.534 M93.489,228.415v4.502h-15.36v-90.838 M78.394,272.378v-21.981h15.095 M190.418,229.209v-4.236
	 M199.158,229.209l0.074-39.525l12.24,0.065 M197.834,116.654v7.813 M2.752,107.643h5.104 M266.711,105.092h4.537"/>
<path id="rect5618" fill="none" stroke="#FFFFFF" stroke-miterlimit="10" d="M195.715,124.6h11.389v4.635h-8.209v1.854h-3.18V124.6
	L195.715,124.6z"/>
<path id="path8284" fill="none" stroke="#FFFFFF" d="M197.6,264.229v5.4h7.82v-8.938h21.043v10.429 M215.477,270.934v-10.429"/>
<path id="path12735" fill="#FFFFFF" stroke="#FFFFFF" d="M4.867,218.131h8.179v-8.066H4.867V218.131z"/>
<path id="path12737" fill="#FFFFFF" stroke="#FFFFFF" d="M51.777,214.43v-8.615h-3.87v8.615H51.777z M47.9,213.096h-5.564
	c-3.476,0-3.591-6.021,0-6.021h5.291"/>
<path id="path12729" fill="#FFFFFF" stroke="#FFFFFF" d="M51.844,190.723H34.422c-7.398,0-7.288,10.99,0,10.99h17.422V190.723z"/>
</svg>
