<?xml version="1.0" encoding="UTF-8" standalone="no"?>
<!-- Generator: Adobe Illustrator 15.1.0, SVG Export Plug-In . SVG Version: 6.00 Build 0)  -->

<svg
   xmlns:dc="http://purl.org/dc/elements/1.1/"
   xmlns:cc="http://creativecommons.org/ns#"
   xmlns:rdf="http://www.w3.org/1999/02/22-rdf-syntax-ns#"
   xmlns:svg="http://www.w3.org/2000/svg"
   xmlns="http://www.w3.org/2000/svg"
   xmlns:sodipodi="http://sodipodi.sourceforge.net/DTD/sodipodi-0.dtd"
   xmlns:inkscape="http://www.inkscape.org/namespaces/inkscape"
   version="1.1"
   id="Layer_1"
   inkscape:version="0.48.2 r9819"
   sodipodi:docname="thing.bkg.svg"
   x="0px"
   y="0px"
   width="761.90503"
   height="804.15399"
   viewBox="0 0 761.90503 804.15399"
   enable-background="new 0 0 802 802"
   xml:space="preserve"><metadata
   id="metadata10"><rdf:RDF><cc:Work
       rdf:about=""><dc:format>image/svg+xml</dc:format><dc:type
         rdf:resource="http://purl.org/dc/dcmitype/StillImage" /></cc:Work></rdf:RDF></metadata><defs
   id="defs8" />
<sodipodi:namedview
   inkscape:window-maximized="1"
   inkscape:window-height="821"
   inkscape:current-layer="Layer_1"
   showgrid="false"
   bordercolor="#666666"
   borderopacity="1"
   objecttolerance="10"
   inkscape:cy="385.57213"
   inkscape:cx="549.2908"
   inkscape:pageshadow="2"
   inkscape:pageopacity="0"
   inkscape:zoom="0.72528826"
   guidetolerance="10"
   inkscape:window-y="0"
   fit-margin-bottom="0"
   inkscape:window-x="0"
   inkscape:window-width="1440"
   fit-margin-right="0"
   fit-margin-left="0"
   id="namedview11"
   fit-margin-top="0"
   pagecolor="#ffffff"
   gridtolerance="10">
	</sodipodi:namedview>
<rect
   id="rect3"
   y="0"
   width="761.90503"
   height="804.15399"
   x="0" />
<g
   id="g5"
   transform="translate(-231.47301,-188.74999)">
	<path
   id="path7"
   inkscape:connector-curvature="0"
   d="m 609.536,901.992 c -88.931,0 -172.539,-34.631 -235.424,-97.516 -62.885,-62.885 -97.516,-146.494 -97.516,-235.424 0,-88.931 34.632,-172.54 97.516,-235.423 62.885,-62.885 146.493,-97.516 235.424,-97.516 88.933,0 172.54,34.631 235.427,97.516 62.883,62.884 97.514,146.492 97.514,235.423 0,88.932 -34.632,172.54 -97.514,235.424 -62.887,62.885 -146.495,97.516 -235.427,97.516 l 0,0 z m 0,-627.786 c -162.578,0 -294.845,132.267 -294.845,294.845 0,162.58 132.267,294.845 294.845,294.845 162.579,0 294.846,-132.264 294.846,-294.845 C 904.381,406.472 772.115,274.206 609.536,274.206 z"
   style="fill:#282828;stroke:#282828" />
</g>
<path
   id="path9"
   inkscape:connector-curvature="0"
   d="m 378.2,256.624 c 68.196,0 123.677,55.481 123.677,123.678 0,68.196 -55.481,123.678 -123.677,123.678 V 256.624 z"
   style="fill:#282828;stroke:#282828" />
</svg>