<?xml version="1.0" encoding="utf-8"?>
<!-- Generator: Adobe Illustrator 15.1.0, SVG Export Plug-In . SVG Version: 6.00 Build 0)  -->
<!DOCTYPE svg PUBLIC "-//W3C//DTD SVG 1.1//EN" "http://www.w3.org/Graphics/SVG/1.1/DTD/svg11.dtd">
<svg version="1.1"
	 id="Layer_1" xmlns:rdf="http://www.w3.org/1999/02/22-rdf-syntax-ns#" xmlns:sodipodi="http://sodipodi.sourceforge.net/DTD/sodipodi-0.dtd" xmlns:dc="http://purl.org/dc/elements/1.1/" xmlns:cc="http://creativecommons.org/ns#" xmlns:inkscape="http://www.inkscape.org/namespaces/inkscape" xmlns:svg="http://www.w3.org/2000/svg" sodipodi:docname="motive.svg" inkscape:version="0.48.2 r9819"
	 xmlns="http://www.w3.org/2000/svg" xmlns:xlink="http://www.w3.org/1999/xlink" x="0px" y="0px" width="44.637px"
	 height="44.637px" viewBox="0 0 44.637 44.637" enable-background="new 0 0 44.637 44.637" xml:space="preserve">
<sodipodi:namedview  fit-margin-top="0" gridtolerance="10" fit-margin-left="0" id="namedview9" fit-margin-right="0" inkscape:window-width="866" inkscape:window-x="0" fit-margin-bottom="0" inkscape:window-y="0" guidetolerance="10" inkscape:pageopacity="0" inkscape:pageshadow="2" inkscape:cx="32.697631" inkscape:cy="13.582093" objecttolerance="10" borderopacity="1" bordercolor="#666666" showgrid="false" inkscape:current-layer="Layer_1" inkscape:window-height="787" inkscape:zoom="3.774151" pagecolor="#ffffff" inkscape:window-maximized="0">
	</sodipodi:namedview>
<path id="path3" inkscape:connector-curvature="0" fill="#222222" d="M22.32,0C10.013,0,0,10.013,0,22.32
	C0,34.627,10.014,44.637,22.32,44.637c12.309,0,22.316-10.012,22.316-22.317C44.636,10.013,34.626,0,22.32,0z"/>
<g id="g5" transform="translate(-463.852,-625.994)">
	<path id="path7" inkscape:connector-curvature="0" fill="#222222" d="M486.172,627.494c-11.499,0-20.816,9.317-20.816,20.815
		c0,11.496,9.317,20.817,20.816,20.817c11.496,0,20.816-9.321,20.816-20.817S497.668,627.494,486.172,627.494z M486.317,667.457
		c-10.572,0-19.146-8.57-19.146-19.146c0-10.57,8.571-19.145,19.146-19.145s19.145,8.571,19.145,19.145
		C505.462,658.887,496.891,667.457,486.317,667.457z"/>
</g>
<path id="path1873" inkscape:connector-curvature="0" fill="none" stroke="#FFFFFF" stroke-miterlimit="10" d="M21.061,8.768
	c-0.649,0.061-1.286,0.165-1.906,0.312c0.08,1.222,0.152,2.328,0.208,3.299c-0.577,0.173-1.136,0.389-1.668,0.65
	c-0.607-0.756-1.299-1.623-2.054-2.582c-0.565,0.316-1.106,0.671-1.619,1.062c0.571,1.083,1.083,2.066,1.527,2.931
	c-0.454,0.383-0.874,0.804-1.259,1.257c-0.861-0.444-1.842-0.957-2.925-1.526c-0.392,0.516-0.749,1.057-1.065,1.625
	c0.959,0.756,1.824,1.441,2.58,2.049c-0.263,0.531-0.479,1.09-0.648,1.668c-0.972-0.056-2.078-0.122-3.299-0.203
	c-0.148,0.622-0.258,1.255-0.319,1.907c1.18,0.299,2.25,0.573,3.188,0.821c-0.008,0.16-0.013,0.323-0.013,0.484
	c0,0.45,0.031,0.888,0.085,1.325c-0.912,0.345-1.948,0.735-3.096,1.157c0.115,0.64,0.271,1.261,0.472,1.864
	c1.197-0.206,2.287-0.39,3.25-0.546c0.227,0.585,0.494,1.146,0.815,1.674c-0.697,0.69-1.488,1.463-2.36,2.312
	c0.36,0.526,0.755,1.023,1.184,1.496c1.006-0.673,1.923-1.285,2.74-1.821c0.448,0.449,0.938,0.856,1.46,1.22
	c-0.358,0.919-0.77,1.949-1.221,3.078c0.538,0.333,1.103,0.626,1.688,0.883c0.643-1.021,1.233-1.948,1.766-2.776
	c0.599,0.229,1.225,0.414,1.87,0.532c0.046,0.987,0.088,2.093,0.135,3.3c0.587,0.075,1.184,0.116,1.791,0.116
	c0.03,0,0.062,0,0.092,0c0.171-1.188,0.33-2.274,0.479-3.25c0.671-0.034,1.325-0.139,1.96-0.294
	c0.444,0.886,0.933,1.873,1.465,2.955c0.604-0.182,1.189-0.402,1.754-0.662c-0.327-1.157-0.621-2.222-0.883-3.177
	c0.594-0.309,1.152-0.674,1.674-1.085c0.768,0.628,1.619,1.332,2.545,2.104c0.471-0.411,0.908-0.854,1.318-1.325
	c-0.771-0.923-1.47-1.772-2.097-2.538c0.411-0.522,0.774-1.084,1.085-1.68c0.955,0.262,2.018,0.562,3.176,0.889
	c0.26-0.564,0.479-1.151,0.662-1.754c-1.083-0.533-2.075-1.025-2.961-1.473c0.154-0.635,0.259-1.287,0.294-1.962
	c0.976-0.147,2.063-0.305,3.256-0.477c0-0.029,0-0.057,0-0.086c0-0.609-0.046-1.208-0.122-1.796
	c-1.21-0.047-2.312-0.089-3.299-0.135c-0.12-0.649-0.295-1.274-0.527-1.878c0.827-0.53,1.756-1.121,2.777-1.766
	c-0.256-0.58-0.554-1.14-0.883-1.674c-1.128,0.451-2.16,0.855-3.078,1.214c-0.361-0.519-0.77-1.008-1.214-1.453
	c0.536-0.816,1.142-1.734,1.813-2.741c-0.473-0.429-0.974-0.827-1.502-1.188c-0.851,0.874-1.628,1.664-2.318,2.361
	c-0.523-0.317-1.082-0.593-1.66-0.816c0.156-0.961,0.34-2.048,0.546-3.244c-0.604-0.2-1.229-0.362-1.864-0.479
	c-0.423,1.147-0.812,2.188-1.159,3.103c-0.434-0.055-0.878-0.086-1.327-0.086c-0.164,0-0.322,0.005-0.483,0.012
	C21.635,11.018,21.36,9.948,21.061,8.768z"/>
<path id="path1894" inkscape:connector-curvature="0" fill="none" stroke="#FFFFFF" stroke-miterlimit="10" d="M22.367,18.426
	c2.258,0,4.093,1.835,4.093,4.096c0,2.26-1.835,4.095-4.093,4.095c-2.261,0-4.097-1.835-4.097-4.095
	C18.271,20.261,20.107,18.426,22.367,18.426z"/>
</svg>
