<?xml version="1.0" encoding="UTF-8" standalone="no"?>
<!-- Generator: Adobe Illustrator 15.1.0, SVG Export Plug-In . SVG Version: 6.00 Build 0)  -->

<svg
   xmlns:dc="http://purl.org/dc/elements/1.1/"
   xmlns:cc="http://creativecommons.org/ns#"
   xmlns:rdf="http://www.w3.org/1999/02/22-rdf-syntax-ns#"
   xmlns:svg="http://www.w3.org/2000/svg"
   xmlns="http://www.w3.org/2000/svg"
   xmlns:sodipodi="http://sodipodi.sourceforge.net/DTD/sodipodi-0.dtd"
   xmlns:inkscape="http://www.inkscape.org/namespaces/inkscape"
   version="1.1"
   id="Layer_1"
   sodipodi:docname="presence.svg"
   inkscape:version="0.48.2 r9819"
   x="0px"
   y="0px"
   width="44.637px"
   height="44.637px"
   viewBox="0 0 44.637 44.637"
   enable-background="new 0 0 44.637 44.637"
   xml:space="preserve"><metadata
   id="metadata11"><rdf:RDF><cc:Work
       rdf:about=""><dc:format>image/svg+xml</dc:format><dc:type
         rdf:resource="http://purl.org/dc/dcmitype/StillImage" /></cc:Work></rdf:RDF></metadata><defs
   id="defs9" />
<sodipodi:namedview
   fit-margin-top="0"
   gridtolerance="10"
   fit-margin-left="0"
   id="namedview9"
   fit-margin-right="0"
   inkscape:window-width="1031"
   inkscape:window-x="0"
   fit-margin-bottom="0"
   inkscape:window-y="0"
   guidetolerance="10"
   inkscape:pageopacity="0"
   inkscape:pageshadow="2"
   inkscape:cx="-14.200334"
   inkscape:cy="13.582093"
   objecttolerance="10"
   borderopacity="1"
   bordercolor="#666666"
   showgrid="false"
   inkscape:current-layer="Layer_1"
   inkscape:window-height="859"
   inkscape:zoom="3.774151"
   pagecolor="#ffffff"
   inkscape:window-maximized="0">
	</sodipodi:namedview>
<path
   id="path3"
   inkscape:connector-curvature="0"
   d="M22.32,0C10.013,0,0,10.013,0,22.32  C0,34.627,10.014,44.637,22.32,44.637c12.309,0,22.316-10.012,22.316-22.317C44.636,10.013,34.626,0,22.32,0z"
   fill="#222222" />
<g
   id="g5"
   transform="translate(-463.852,-625.994)">
	<path
   id="path7"
   inkscape:connector-curvature="0"
   fill="#222222"
   d="M486.172,627.494c-11.499,0-20.816,9.317-20.816,20.815   c0,11.496,9.317,20.817,20.816,20.817c11.496,0,20.816-9.321,20.816-20.817S497.668,627.494,486.172,627.494z M486.317,667.457   c-10.572,0-19.146-8.57-19.146-19.146c0-10.57,8.571-19.145,19.146-19.145s19.145,8.571,19.145,19.145   C505.462,658.887,496.891,667.457,486.317,667.457z" />
</g>
<g
   id="g5311"
   transform="matrix(0.1040381,0,0,0.1040381,676.02094,-600.2731)"
   style="stroke-width:19.22372625;stroke-miterlimit:4;stroke-dasharray:none">
	<path
   id="path5187"
   sodipodi:nodetypes="cccsccc"
   fill="none"
   stroke="#FFFFFF"
   stroke-width="4"
   stroke-miterlimit="10"
   d="   M-6335.456,5894.682c-66.335-1.183-127.742,102.534,51.128,210.077c0.197-0.366,0.958-0.366,1.155,0   c184.634-110.997,113.259-217.943,44.708-209.607c-26.743,3.238-39.33,18.079-45.291,30.844   c-5.932-12.766-18.548-27.606-45.271-30.844C-6331.166,5894.879-6333.315,5894.729-6335.456,5894.682z"
   style="stroke-width:19.22372625;stroke-miterlimit:4;stroke-dasharray:none" />
</g>
</svg>