<?xml version="1.0" encoding="utf-8"?>
<!-- Generator: Adobe Illustrator 15.1.0, SVG Export Plug-In . SVG Version: 6.00 Build 0)  -->
<!DOCTYPE svg PUBLIC "-//W3C//DTD SVG 1.1//EN" "http://www.w3.org/Graphics/SVG/1.1/DTD/svg11.dtd">
<svg version="1.1"
	 id="Layer_1" inkscape:version="0.48.2 r9819" sodipodi:docname="ecobee.svg" xmlns:rdf="http://www.w3.org/1999/02/22-rdf-syntax-ns#" xmlns:sodipodi="http://sodipodi.sourceforge.net/DTD/sodipodi-0.dtd" xmlns:dc="http://purl.org/dc/elements/1.1/" xmlns:cc="http://creativecommons.org/ns#" xmlns:inkscape="http://www.inkscape.org/namespaces/inkscape" xmlns:svg="http://www.w3.org/2000/svg"
	 xmlns="http://www.w3.org/2000/svg" xmlns:xlink="http://www.w3.org/1999/xlink" x="0px" y="0px" width="44.637px"
	 height="44.637px" viewBox="0 0 44.637 44.637" enable-background="new 0 0 44.637 44.637" xml:space="preserve">
<sodipodi:namedview  fit-margin-top="0" gridtolerance="10" fit-margin-left="0" id="namedview9" fit-margin-right="0" inkscape:window-x="0" fit-margin-bottom="0" inkscape:window-y="0" guidetolerance="10" inkscape:pageopacity="0" inkscape:pageshadow="2" inkscape:cx="22.148" inkscape:cy="22.631" objecttolerance="10" borderopacity="1" bordercolor="#666666" showgrid="false" inkscape:current-layer="Layer_1" inkscape:window-height="480" inkscape:zoom="0.18209877" pagecolor="#ffffff" inkscape:window-width="640" inkscape:window-maximized="0">
	</sodipodi:namedview>
<path id="path3" inkscape:connector-curvature="0" fill="#222222" d="M22.32,0C10.013,0,0,10.013,0,22.32
	C0,34.627,10.014,44.637,22.32,44.637c12.307,0,22.316-10.012,22.316-22.317C44.636,10.013,34.626,0,22.32,0z"/>
<g id="g5" transform="translate(-463.852,-625.994)">
	<path id="path7" inkscape:connector-curvature="0" fill="#222222" d="M486.172,627.494c-11.499,0-20.818,9.319-20.818,20.817
		c0,11.496,9.319,20.817,20.818,20.817c11.496,0,20.816-9.321,20.816-20.817S497.668,627.494,486.172,627.494z M486.317,667.457
		c-10.572,0-19.146-8.57-19.146-19.146c0-10.572,8.571-19.145,19.146-19.145s19.145,8.571,19.145,19.145
		C505.462,658.887,496.891,667.457,486.317,667.457z"/>
</g>
<g>
</g>
<g id="layer2" transform="translate(-11.494103,-8.0640801)" inkscape:groupmode="layer" inkscape:label="Layer">
	<path id="path2999" inkscape:connector-curvature="0" fill="none" stroke="#FFFFFF" stroke-width="1.3891" d="M17.303,28.289h32"/>
	<path id="path3001" inkscape:connector-curvature="0" fill="none" stroke="#FFFFFF" stroke-width="1.878" d="M34.58,28.312v-4.5"/>
	<rect id="rect3771" x="29.66" y="15.49" fill="none" stroke="#FFFFFF" stroke-width="1.8532" width="10" height="8.5"/>
	<path id="path3001-1" inkscape:connector-curvature="0" fill="none" stroke="#FFFFFF" stroke-width="1.878" d="M25.348,32.99v-4.5"
		/>
	<path id="path3001-1-7" inkscape:connector-curvature="0" fill="none" stroke="#FFFFFF" stroke-width="1.878" d="M44.053,33.035
		v-4.5"/>
	<rect id="rect3771-4" x="20.067" y="32.816" fill="none" stroke="#FFFFFF" stroke-width="1.8532" width="10" height="8.5"/>
	<rect id="rect3771-0" x="38.692" y="32.689" fill="none" stroke="#FFFFFF" stroke-width="1.8532" width="10" height="8.5"/>
</g>
</svg>
