<?xml version="1.0" encoding="utf-8"?>
<!-- Generator: Adobe Illustrator 15.1.0, SVG Export Plug-In . SVG Version: 6.00 Build 0)  -->
<!DOCTYPE svg PUBLIC "-//W3C//DTD SVG 1.1//EN" "http://www.w3.org/Graphics/SVG/1.1/DTD/svg11.dtd">
<svg version="1.1"
	 id="Layer_1" xmlns:rdf="http://www.w3.org/1999/02/22-rdf-syntax-ns#" xmlns:sodipodi="http://sodipodi.sourceforge.net/DTD/sodipodi-0.dtd" xmlns:dc="http://purl.org/dc/elements/1.1/" xmlns:cc="http://creativecommons.org/ns#" xmlns:inkscape="http://www.inkscape.org/namespaces/inkscape" xmlns:svg="http://www.w3.org/2000/svg" sodipodi:docname="presence.svg" inkscape:version="0.48.2 r9819"
	 xmlns="http://www.w3.org/2000/svg" xmlns:xlink="http://www.w3.org/1999/xlink" x="0px" y="0px" width="44.637px"
	 height="44.637px" viewBox="0 0 44.637 44.637" enable-background="new 0 0 44.637 44.637" xml:space="preserve">
<sodipodi:namedview  fit-margin-top="0" gridtolerance="10" fit-margin-left="0" id="namedview9" fit-margin-right="0" inkscape:window-width="1031" inkscape:window-x="0" fit-margin-bottom="0" inkscape:window-y="0" guidetolerance="10" inkscape:pageopacity="0" inkscape:pageshadow="2" inkscape:cx="-14.200334" inkscape:cy="13.582093" objecttolerance="10" borderopacity="1" bordercolor="#666666" showgrid="false" inkscape:current-layer="Layer_1" inkscape:window-height="859" inkscape:zoom="3.774151" pagecolor="#ffffff" inkscape:window-maximized="0">
	</sodipodi:namedview>
<path id="path3" inkscape:connector-curvature="0" fill="#222222" d="M22.32,0C10.013,0,0,10.013,0,22.32
	C0,34.627,10.014,44.637,22.32,44.637c12.31,0,22.316-10.012,22.316-22.317C44.636,10.013,34.626,0,22.32,0z"/>
<g id="g5" transform="translate(-463.852,-625.994)">
	<path id="path7" inkscape:connector-curvature="0" fill="#222222" d="M486.172,627.494c-11.499,0-20.815,9.316-20.815,20.814
		c0,11.496,9.316,20.817,20.815,20.817c11.496,0,20.816-9.321,20.816-20.817S497.668,627.494,486.172,627.494z M486.317,667.457
		c-10.572,0-19.146-8.57-19.146-19.146c0-10.569,8.571-19.145,19.146-19.145s19.145,8.571,19.145,19.145
		C505.462,658.887,496.891,667.457,486.317,667.457z"/>
</g>
<g id="layer1_5_" inkscape:groupmode="layer" inkscape:label="Calque 1">
	<g id="g3203">
		<path id="rect2420" fill="#231F20" stroke="#FFFFFF" stroke-miterlimit="10" d="M12.405,10.045h20.031
			c2.207,0,3.984,1.777,3.984,3.984v17.028c0,2.207-1.777,3.984-3.984,3.984H12.405c-2.207,0-3.984-1.777-3.984-3.984V14.029
			C8.421,11.822,10.198,10.045,12.405,10.045z"/>
	</g>
</g>
<path id="path2423" fill="#FFFFFF" d="M23.403,14.822c-0.29,0.076-0.502,0.312-0.562,0.584c-0.002,0.01,0.002,0.025,0,0.036
	l-1.876,7.768l-0.312-0.874c-0.004-0.01,0.003-0.025,0-0.036h-0.062c-0.123-0.329-0.453-0.541-0.812-0.511
	c-0.365,0.031-0.672,0.28-0.719,0.62c-0.002,0.012,0.001,0.024,0,0.036l-0.312,1.383l-0.625-4.702V19.09v-0.073
	c0-0.012,0-0.024,0-0.037c-0.057-0.37-0.38-0.64-0.781-0.657c-0.402-0.017-0.729,0.255-0.812,0.583
	c-0.003,0.024-0.003,0.049,0,0.073v0.037v0.073l-1.125,5.066h-3.688v1.459h4.344c0.383,0.001,0.705-0.235,0.781-0.584l0.344-1.422
	l0.625,4.705v0.037v0.072c-0.001,0.013-0.001,0.025,0,0.037c0.056,0.369,0.379,0.64,0.781,0.656
	c0.401,0.018,0.697-0.254,0.781-0.584c0.002-0.023,0.002-0.048,0-0.072v-0.037v-0.072l0.625-2.882l0.312,0.802
	c0.005,0.018,0.057,0.021,0.062,0.037c0.122,0.329,0.453,0.541,0.812,0.511c0.365-0.03,0.672-0.28,0.719-0.62
	c0.002-0.012-0.001-0.024,0-0.037l1.376-5.723l0.812,9.006v0.037v0.109c-0.001,0.012-0.001,0.024,0,0.036
	c0.029,0.356,0.341,0.625,0.719,0.657c0.377,0.031,0.772-0.188,0.875-0.547l1.094-4.123h6.41v-1.459h-7.035
	c-0.363-0.008-0.678,0.189-0.781,0.511c-0.001,0.013-0.001,0.024,0,0.036l-0.094,0.365l-0.844-9.444v-0.037v-0.073
	c0-0.012,0-0.024,0-0.037c-0.02-0.246-0.205-0.435-0.375-0.547c-0.17-0.112-0.381-0.168-0.625-0.109
	C23.42,14.822,23.415,14.822,23.403,14.822z"/>
</svg>
