<?xml version="1.0" encoding="UTF-8" standalone="no"?>
<!-- Generator: Adobe Illustrator 15.1.0, SVG Export Plug-In . SVG Version: 6.00 Build 0)  -->

<svg
   xmlns:dc="http://purl.org/dc/elements/1.1/"
   xmlns:cc="http://creativecommons.org/ns#"
   xmlns:rdf="http://www.w3.org/1999/02/22-rdf-syntax-ns#"
   xmlns:svg="http://www.w3.org/2000/svg"
   xmlns="http://www.w3.org/2000/svg"
   xmlns:sodipodi="http://sodipodi.sourceforge.net/DTD/sodipodi-0.dtd"
   xmlns:inkscape="http://www.inkscape.org/namespaces/inkscape"
   version="1.1"
   id="svg2"
   inkscape:version="0.48.2 r9819"
   sodipodi:docname="form-button-two-blue.svg"
   x="0px"
   y="0px"
   width="276.86398"
   height="28.162998"
   viewBox="0 0 276.86399 28.162999"
   enable-background="new 0 0 346.08 35.203"
   xml:space="preserve"><metadata
   id="metadata124"><rdf:RDF><cc:Work
       rdf:about=""><dc:format>image/svg+xml</dc:format><dc:type
         rdf:resource="http://purl.org/dc/dcmitype/StillImage" /></cc:Work></rdf:RDF></metadata><defs
   id="defs122" />
<sodipodi:namedview
   fit-margin-left="0"
   fit-margin-bottom="0"
   showgrid="false"
   inkscape:current-layer="svg2"
   inkscape:window-x="0"
   inkscape:cx="139.22425"
   pagecolor="#ffffff"
   inkscape:cy="13.849"
   bordercolor="#666666"
   inkscape:zoom="0.23838384"
   guidetolerance="10"
   fit-margin-top="0"
   inkscape:window-width="640"
   inkscape:window-height="480"
   fit-margin-right="0"
   inkscape:window-maximized="0"
   inkscape:window-y="0"
   inkscape:pageshadow="2"
   borderopacity="1"
   id="namedview4"
   inkscape:pageopacity="0"
   gridtolerance="10"
   objecttolerance="10">
	</sodipodi:namedview>
<g
   id="g4"
   transform="translate(-32.867,-3.6940002)">
	<linearGradient
   id="SVGID_1_"
   gradientUnits="userSpaceOnUse"
   x1="171.2993"
   y1="31.857201"
   x2="171.2993"
   y2="3.6951001">
		<stop
   offset="0"
   style="stop-color:#404041"
   id="stop7" />
		<stop
   offset="0.3497"
   style="stop-color:#3D3C3D"
   id="stop9" />
		<stop
   offset="0.6944"
   style="stop-color:#323031"
   id="stop11" />
		<stop
   offset="1"
   style="stop-color:#231F20"
   id="stop13" />
	</linearGradient>
	<path
   d="m 46.947,31.857 c -7.764,0 -14.08,-6.316 -14.08,-14.082 0,-7.764 6.316,-14.081 14.08,-14.081 h 248.702 c 7.766,0 14.082,6.316 14.082,14.081 0,7.766 -6.316,14.082 -14.082,14.082 H 46.947 z"
   id="path15"
   inkscape:connector-curvature="0"
   style="fill:url(#SVGID_1_)" />
	<linearGradient
   id="SVGID_2_"
   gradientUnits="userSpaceOnUse"
   x1="171.2993"
   y1="29.607201"
   x2="171.2993"
   y2="5.9450998">
		<stop
   offset="0"
   style="stop-color:#231F20"
   id="stop18" />
		<stop
   offset="0.3056"
   style="stop-color:#323031"
   id="stop20" />
		<stop
   offset="0.6503"
   style="stop-color:#3D3C3D"
   id="stop22" />
		<stop
   offset="1"
   style="stop-color:#404041"
   id="stop24" />
	</linearGradient>
	<path
   d="m 307.481,17.775 c 0,6.535 -5.297,11.832 -11.832,11.832 H 46.947 c -6.533,0 -11.83,-5.297 -11.83,-11.832 l 0,0 c 0,-6.534 5.297,-11.831 11.83,-11.831 h 248.702 c 6.536,0.001 11.832,5.297 11.832,11.831 l 0,0 z"
   id="path26"
   inkscape:connector-curvature="0"
   style="fill:url(#SVGID_2_)" />
	<linearGradient
   id="SVGID_3_"
   gradientUnits="userSpaceOnUse"
   x1="35.117199"
   y1="11.9724"
   x2="307.48141"
   y2="11.9724">
		<stop
   offset="0"
   style="stop-color:#231F20"
   id="stop29" />
		<stop
   offset="0.0732"
   style="stop-color:#333E46"
   id="stop31" />
		<stop
   offset="0.2296"
   style="stop-color:#537D90"
   id="stop33" />
		<stop
   offset="0.3593"
   style="stop-color:#6AABC7"
   id="stop35" />
		<stop
   offset="0.4556"
   style="stop-color:#79C7E9"
   id="stop37" />
		<stop
   offset="0.5078"
   style="stop-color:#7ED2F6"
   id="stop39" />
		<stop
   offset="1"
   style="stop-color:#231F20"
   id="stop41" />
	</linearGradient>
	<path
   d="m 46.947,6.394 h 248.702 c 6.459,0 11.701,5.176 11.82,11.606 0,-0.074 0.012,-0.148 0.012,-0.225 0,-6.534 -5.297,-11.831 -11.832,-11.831 H 46.947 c -6.533,0 -11.83,5.297 -11.83,11.831 0,0.076 0.009,0.15 0.012,0.225 0.12,-6.43 5.361,-11.606 11.818,-11.606 z"
   id="path43"
   inkscape:connector-curvature="0"
   style="fill:url(#SVGID_3_)" />
	
		<linearGradient
   id="SVGID_4_"
   gradientUnits="userSpaceOnUse"
   x1="35.117199"
   y1="262.11499"
   x2="307.48141"
   y2="262.11499"
   gradientTransform="matrix(1,0,0,-1,0,286.1421)">
		<stop
   offset="0"
   style="stop-color:#231F20"
   id="stop46" />
		<stop
   offset="0.0732"
   style="stop-color:#333E46"
   id="stop48" />
		<stop
   offset="0.2296"
   style="stop-color:#537D90"
   id="stop50" />
		<stop
   offset="0.3593"
   style="stop-color:#6AABC7"
   id="stop52" />
		<stop
   offset="0.4556"
   style="stop-color:#79C7E9"
   id="stop54" />
		<stop
   offset="0.5078"
   style="stop-color:#7ED2F6"
   id="stop56" />
		<stop
   offset="1"
   style="stop-color:#231F20"
   id="stop58" />
	</linearGradient>
	<path
   d="m 46.947,29.605 h 248.702 c 6.459,0 11.701,-5.176 11.82,-11.605 0,0.074 0.012,0.148 0.012,0.225 0,6.533 -5.297,11.83 -11.832,11.83 H 46.947 c -6.533,0 -11.83,-5.297 -11.83,-11.83 0,-0.076 0.009,-0.15 0.012,-0.225 0.12,6.429 5.361,11.605 11.818,11.605 z"
   id="path60"
   inkscape:connector-curvature="0"
   style="fill:url(#SVGID_4_)" />
</g>
<g
   id="g62"
   transform="translate(-32.867,-3.6940002)">
	<path
   d="m 61.296,20.457 c -0.49,0.924 -1.611,1.582 -2.759,1.582 -1.149,0 -2.27,-0.658 -2.773,-1.582 -0.252,-0.561 -0.42,-1.219 -0.42,-1.947 v -6.023 h 1.485 v 6.023 c 0,1.219 0.687,2.018 1.709,2.018 1.022,0 1.709,-0.799 1.709,-2.018 v -6.023 h 1.484 v 6.023 c -0.001,0.728 -0.169,1.386 -0.435,1.947 z"
   id="path64"
   inkscape:connector-curvature="0"
   style="fill:#6fccf4" />
	<path
   d="m 68.771,21.31 c -0.519,0.463 -1.247,0.729 -2.045,0.729 -1.611,0 -2.787,-0.951 -3.417,-2.381 l 1.415,-0.518 c 0.392,0.883 1.121,1.387 2.003,1.387 0.869,0 1.457,-0.604 1.457,-1.387 0,-1.248 -1.457,-1.458 -2.675,-1.948 -0.561,-0.224 -1.807,-0.784 -1.807,-2.339 0,-1.835 1.247,-2.535 2.928,-2.535 1.316,0 2.213,0.756 2.675,1.919 l -1.317,0.392 c 0,0 -0.336,-0.798 -1.387,-0.826 -0.042,0 -0.07,0 -0.098,0 -0.644,0 -1.345,0.252 -1.345,0.994 0,0.028 0,0.07 0,0.099 0.126,1.736 4.539,0.588 4.539,4.272 -0.001,0.855 -0.337,1.611 -0.926,2.142 z"
   id="path66"
   inkscape:connector-curvature="0"
   style="fill:#6fccf4" />
	<path
   d="m 71.274,21.871 v -9.384 h 5.533 v 1.484 h -4.048 v 2.297 h 2.731 v 1.514 h -2.731 v 2.578 h 4.342 v 1.512 h -5.827 z"
   id="path68"
   inkscape:connector-curvature="0"
   style="fill:#6fccf4" />
	<path
   d="m 84.996,22.039 c -1.415,0 -2.241,-0.531 -2.801,-1.709 -0.393,-0.826 -0.617,-1.988 -0.617,-3.137 0,-1.513 0.42,-2.997 1.051,-3.824 0.56,-0.687 1.345,-1.05 2.409,-1.05 1.443,0 2.297,0.602 2.928,2.072 l -1.415,0.561 c -0.392,-0.812 -0.798,-1.12 -1.513,-1.12 -0.756,0 -1.261,0.336 -1.583,1.162 -0.238,0.561 -0.364,1.415 -0.364,2.199 0,0.995 0.168,1.975 0.462,2.577 0.294,0.52 0.729,0.758 1.289,0.758 0.952,0 1.639,-0.604 1.639,-1.457 v -0.393 h -1.709 v -1.485 h 3.194 v 1.877 c 0,1.709 -1.247,2.969 -2.97,2.969 z"
   id="path70"
   inkscape:connector-curvature="0"
   style="fill:#6fccf4" />
	<path
   d="m 90.006,21.871 v -9.384 h 5.533 v 1.484 h -4.048 v 2.297 h 2.731 v 1.514 h -2.731 v 2.578 h 4.342 v 1.512 h -5.827 z"
   id="path72"
   inkscape:connector-curvature="0"
   style="fill:#6fccf4" />
	<path
   d="m 102.847,20.988 c -0.532,0.715 -1.289,1.051 -2.27,1.051 -1.316,0 -2.143,-0.531 -2.703,-1.68 -0.393,-0.799 -0.659,-2.045 -0.659,-3.167 0,-1.541 0.393,-2.928 1.023,-3.824 0.56,-0.714 1.316,-1.05 2.395,-1.05 1.191,0 2.017,0.532 2.605,1.681 0.392,0.826 0.63,2.017 0.63,3.193 0.002,1.485 -0.363,2.97 -1.021,3.796 z m -1.022,-6.428 c -0.294,-0.49 -0.659,-0.687 -1.219,-0.729 -0.028,0 -0.056,0 -0.084,0 -0.672,0 -1.121,0.364 -1.429,1.162 -0.238,0.561 -0.364,1.415 -0.364,2.199 0,0.995 0.196,2.018 0.56,2.606 0.294,0.49 0.687,0.729 1.289,0.729 0.687,0 1.121,-0.365 1.443,-1.191 0.196,-0.49 0.364,-1.415 0.364,-2.143 0,-1.051 -0.197,-2.003 -0.56,-2.633 z"
   id="path74"
   inkscape:connector-curvature="0"
   style="fill:#6fccf4" />
	<path
   d="m 109.3,22.039 c -1.387,0 -2.269,-0.531 -2.872,-1.68 -0.42,-0.826 -0.687,-2.018 -0.687,-3.195 0,-1.484 0.393,-2.969 1.051,-3.796 0.56,-0.687 1.345,-1.05 2.409,-1.05 1.415,0 2.297,0.602 2.928,1.919 l -1.387,0.588 c -0.519,-0.798 -0.827,-0.994 -1.541,-0.994 -0.756,0 -1.261,0.336 -1.583,1.162 -0.238,0.561 -0.364,1.373 -0.364,2.171 0,1.023 0.224,2.046 0.588,2.634 0.336,0.49 0.756,0.729 1.415,0.729 0.63,0 1.093,-0.336 1.457,-1.094 l 1.415,0.533 c -0.56,1.374 -1.484,2.073 -2.829,2.073 z"
   id="path76"
   inkscape:connector-curvature="0"
   style="fill:#6fccf4" />
	<path
   d="m 119.605,20.988 c -0.532,0.715 -1.289,1.051 -2.27,1.051 -1.316,0 -2.143,-0.531 -2.703,-1.68 -0.393,-0.799 -0.659,-2.045 -0.659,-3.167 0,-1.541 0.393,-2.928 1.023,-3.824 0.56,-0.714 1.316,-1.05 2.395,-1.05 1.191,0 2.017,0.532 2.605,1.681 0.392,0.826 0.63,2.017 0.63,3.193 10e-4,1.485 -0.363,2.97 -1.021,3.796 z m -1.022,-6.428 c -0.294,-0.49 -0.659,-0.687 -1.219,-0.729 -0.028,0 -0.056,0 -0.084,0 -0.672,0 -1.121,0.364 -1.429,1.162 -0.238,0.561 -0.364,1.415 -0.364,2.199 0,0.995 0.196,2.018 0.56,2.606 0.294,0.49 0.687,0.729 1.289,0.729 0.687,0 1.121,-0.365 1.443,-1.191 0.196,-0.49 0.364,-1.415 0.364,-2.143 0,-1.051 -0.197,-2.003 -0.56,-2.633 z"
   id="path78"
   inkscape:connector-curvature="0"
   style="fill:#6fccf4" />
	<path
   d="m 127.43,21.34 c -0.35,0.336 -0.854,0.504 -1.345,0.531 -0.098,0 -0.294,0 -0.532,0 h -2.857 v -9.384 h 3.025 c 0.953,0 1.317,0.098 1.821,0.49 0.98,0.854 1.541,2.339 1.541,4.188 0,1.878 -0.588,3.362 -1.653,4.175 z m -0.616,-6.976 c -0.238,-0.225 -0.56,-0.393 -0.953,-0.393 h -1.681 v 6.388 h 1.485 c 0.49,0 0.784,-0.1 1.05,-0.365 0.561,-0.561 0.854,-1.582 0.854,-2.83 10e-4,-1.259 -0.293,-2.31 -0.755,-2.8 z"
   id="path80"
   inkscape:connector-curvature="0"
   style="fill:#6fccf4" />
	<path
   d="m 131.124,21.871 v -9.384 h 1.513 v 9.384 h -1.513 z"
   id="path82"
   inkscape:connector-curvature="0"
   style="fill:#6fccf4" />
	<path
   d="m 139.946,21.871 -3.586,-6.359 v 6.359 h -1.485 v -9.384 h 1.485 l 3.418,5.996 v -5.996 h 1.485 v 9.384 h -1.317 z"
   id="path84"
   inkscape:connector-curvature="0"
   style="fill:#6fccf4" />
	<path
   d="m 146.721,22.039 c -1.415,0 -2.241,-0.531 -2.801,-1.709 -0.393,-0.826 -0.617,-1.988 -0.617,-3.137 0,-1.513 0.42,-2.997 1.051,-3.824 0.56,-0.687 1.345,-1.05 2.409,-1.05 1.443,0 2.297,0.602 2.928,2.072 l -1.415,0.561 c -0.392,-0.812 -0.798,-1.12 -1.513,-1.12 -0.756,0 -1.261,0.336 -1.583,1.162 -0.238,0.561 -0.364,1.415 -0.364,2.199 0,0.995 0.168,1.975 0.462,2.577 0.294,0.52 0.729,0.758 1.289,0.758 0.952,0 1.639,-0.604 1.639,-1.457 v -0.393 h -1.709 v -1.485 h 3.194 v 1.877 c 0,1.709 -1.247,2.969 -2.97,2.969 z"
   id="path86"
   inkscape:connector-curvature="0"
   style="fill:#6fccf4" />
	<path
   d="m 156.311,13.971 v 2.297 h 2.731 v 1.514 h -2.731 v 4.089 h -1.485 v -9.384 h 5.827 v 1.484 h -4.342 z"
   id="path88"
   inkscape:connector-curvature="0"
   style="fill:#6fccf4" />
	<path
   d="m 166.812,21.871 -1.513,-4.089 h -1.779 v 4.089 h -1.485 v -9.384 h 3.096 c 0.729,0 1.219,0.069 1.681,0.294 0.827,0.393 1.415,1.387 1.415,2.339 0,0.995 -0.588,1.976 -1.457,2.367 l 1.653,4.384 h -1.611 z m -0.658,-7.732 c -0.252,-0.14 -0.364,-0.168 -0.854,-0.168 h -1.779 v 2.297 h 1.779 c 0.462,0 0.616,-0.027 0.854,-0.153 0.364,-0.21 0.588,-0.603 0.588,-0.995 0,-0.392 -0.224,-0.785 -0.588,-0.981 z"
   id="path90"
   inkscape:connector-curvature="0"
   style="fill:#6fccf4" />
	<path
   d="m 175.437,20.988 c -0.532,0.715 -1.289,1.051 -2.27,1.051 -1.316,0 -2.143,-0.531 -2.703,-1.68 -0.393,-0.799 -0.659,-2.045 -0.659,-3.167 0,-1.541 0.393,-2.928 1.023,-3.824 0.56,-0.714 1.316,-1.05 2.395,-1.05 1.191,0 2.017,0.532 2.606,1.681 0.392,0.826 0.63,2.017 0.63,3.193 0,1.485 -0.364,2.97 -1.022,3.796 z m -1.023,-6.428 c -0.294,-0.49 -0.659,-0.687 -1.219,-0.729 -0.028,0 -0.056,0 -0.084,0 -0.672,0 -1.121,0.364 -1.429,1.162 -0.238,0.561 -0.364,1.415 -0.364,2.199 0,0.995 0.196,2.018 0.56,2.606 0.294,0.49 0.687,0.729 1.289,0.729 0.687,0 1.121,-0.365 1.443,-1.191 0.195,-0.49 0.363,-1.415 0.363,-2.143 10e-4,-1.051 -0.195,-2.003 -0.559,-2.633 z"
   id="path92"
   inkscape:connector-curvature="0"
   style="fill:#6fccf4" />
	<path
   d="m 184.354,21.871 v -5.434 l -2.172,5.434 -2.17,-5.434 v 5.434 h -1.485 v -9.384 h 1.485 l 2.17,5.267 2.172,-5.267 h 1.484 v 9.384 h -1.484 z"
   id="path94"
   inkscape:connector-curvature="0"
   style="fill:#6fccf4" />
	<path
   d="m 195.974,21.31 c -0.518,0.463 -1.246,0.729 -2.045,0.729 -1.611,0 -2.787,-0.951 -3.418,-2.381 l 1.414,-0.518 c 0.393,0.883 1.121,1.387 2.004,1.387 0.869,0 1.457,-0.604 1.457,-1.387 0,-1.248 -1.457,-1.458 -2.676,-1.948 -0.561,-0.224 -1.807,-0.784 -1.807,-2.339 0,-1.835 1.246,-2.535 2.928,-2.535 1.316,0 2.213,0.756 2.674,1.919 l -1.316,0.392 c 0,0 -0.336,-0.798 -1.387,-0.826 -0.041,0 -0.07,0 -0.098,0 -0.645,0 -1.344,0.252 -1.344,0.994 0,0.028 0,0.07 0,0.099 0.125,1.736 4.537,0.588 4.537,4.272 0,0.855 -0.335,1.611 -0.923,2.142 z"
   id="path96"
   inkscape:connector-curvature="0"
   style="fill:#6fccf4" />
	<path
   d="m 201.278,13.803 v 8.068 h -1.484 v -8.068 h -2.145 v -1.316 h 5.801 v 1.316 h -2.172 z"
   id="path98"
   inkscape:connector-curvature="0"
   style="fill:#6fccf4" />
	<path
   d="m 209.61,21.871 -1.514,-4.089 h -1.779 v 4.089 h -1.484 v -9.384 h 3.096 c 0.729,0 1.219,0.069 1.682,0.294 0.826,0.393 1.414,1.387 1.414,2.339 0,0.995 -0.588,1.976 -1.457,2.367 l 1.652,4.384 h -1.61 z m -0.658,-7.732 c -0.254,-0.14 -0.365,-0.168 -0.855,-0.168 h -1.779 v 2.297 h 1.779 c 0.463,0 0.617,-0.027 0.855,-0.153 0.363,-0.21 0.588,-0.603 0.588,-0.995 0,-0.392 -0.225,-0.785 -0.588,-0.981 z"
   id="path100"
   inkscape:connector-curvature="0"
   style="fill:#6fccf4" />
	<path
   d="m 212.8,21.871 v -9.384 h 5.531 v 1.484 h -4.047 v 2.297 h 2.73 v 1.514 h -2.73 v 2.578 h 4.342 v 1.512 H 212.8 z"
   id="path102"
   inkscape:connector-curvature="0"
   style="fill:#6fccf4" />
	<path
   d="m 220.204,21.871 v -9.384 h 5.533 v 1.484 h -4.049 v 2.297 h 2.732 v 1.514 h -2.732 v 2.578 h 4.344 v 1.512 h -5.828 z"
   id="path104"
   inkscape:connector-curvature="0"
   style="fill:#6fccf4" />
	<path
   d="m 230.411,13.803 v 8.068 h -1.484 v -8.068 h -2.143 v -1.316 h 5.799 v 1.316 h -2.172 z"
   id="path106"
   inkscape:connector-curvature="0"
   style="fill:#6fccf4" />
	<path
   d="m 242.593,21.871 -0.924,-2.633 h -2.928 l -0.924,2.633 h -1.584 l 3.236,-9.384 h 1.471 l 3.236,9.384 h -1.583 z m -2.367,-6.779 -0.967,2.633 h 1.879 l -0.912,-2.633 z"
   id="path108"
   inkscape:connector-curvature="0"
   style="fill:#6fccf4" />
	<path
   d="m 250.321,21.34 c -0.352,0.336 -0.855,0.504 -1.346,0.531 -0.098,0 -0.295,0 -0.531,0 h -2.857 v -9.384 h 3.025 c 0.951,0 1.316,0.098 1.82,0.49 0.98,0.854 1.541,2.339 1.541,4.188 10e-4,1.878 -0.587,3.362 -1.652,4.175 z m -0.617,-6.976 c -0.238,-0.225 -0.561,-0.393 -0.953,-0.393 h -1.68 v 6.388 h 1.484 c 0.49,0 0.785,-0.1 1.051,-0.365 0.561,-0.561 0.854,-1.582 0.854,-2.83 0,-1.259 -0.293,-2.31 -0.756,-2.8 z"
   id="path110"
   inkscape:connector-curvature="0"
   style="fill:#6fccf4" />
	<path
   d="m 258.749,21.34 c -0.352,0.336 -0.855,0.504 -1.346,0.531 -0.098,0 -0.295,0 -0.531,0 h -2.857 v -9.384 h 3.025 c 0.951,0 1.316,0.098 1.82,0.49 0.98,0.854 1.541,2.339 1.541,4.188 0,1.878 -0.588,3.362 -1.652,4.175 z m -0.617,-6.976 c -0.238,-0.225 -0.561,-0.393 -0.953,-0.393 h -1.68 v 6.388 h 1.484 c 0.49,0 0.785,-0.1 1.051,-0.365 0.561,-0.561 0.854,-1.582 0.854,-2.83 0,-1.259 -0.293,-2.31 -0.756,-2.8 z"
   id="path112"
   inkscape:connector-curvature="0"
   style="fill:#6fccf4" />
	<path
   d="m 267.218,21.871 -1.512,-4.089 h -1.779 v 4.089 h -1.484 v -9.384 h 3.094 c 0.729,0 1.219,0.069 1.682,0.294 0.826,0.393 1.414,1.387 1.414,2.339 0,0.995 -0.588,1.976 -1.455,2.367 l 1.652,4.384 h -1.612 z m -0.658,-7.732 c -0.252,-0.14 -0.363,-0.168 -0.854,-0.168 h -1.779 v 2.297 h 1.779 c 0.461,0 0.615,-0.027 0.854,-0.153 0.365,-0.21 0.588,-0.603 0.588,-0.995 -0.001,-0.392 -0.223,-0.785 -0.588,-0.981 z"
   id="path114"
   inkscape:connector-curvature="0"
   style="fill:#6fccf4" />
	<path
   d="m 270.407,21.871 v -9.384 h 5.533 v 1.484 h -4.049 v 2.297 h 2.732 v 1.514 h -2.732 v 2.578 h 4.344 v 1.512 h -5.828 z"
   id="path116"
   inkscape:connector-curvature="0"
   style="fill:#6fccf4" />
	<path
   d="m 282.618,21.31 c -0.518,0.463 -1.246,0.729 -2.045,0.729 -1.611,0 -2.787,-0.951 -3.418,-2.381 l 1.414,-0.518 c 0.393,0.883 1.121,1.387 2.004,1.387 0.869,0 1.457,-0.604 1.457,-1.387 0,-1.248 -1.457,-1.458 -2.676,-1.948 -0.561,-0.224 -1.807,-0.784 -1.807,-2.339 0,-1.835 1.246,-2.535 2.928,-2.535 1.316,0 2.213,0.756 2.674,1.919 l -1.316,0.392 c 0,0 -0.336,-0.798 -1.387,-0.826 -0.041,0 -0.07,0 -0.098,0 -0.645,0 -1.344,0.252 -1.344,0.994 0,0.028 0,0.07 0,0.099 0.125,1.736 4.537,0.588 4.537,4.272 10e-4,0.855 -0.335,1.611 -0.923,2.142 z"
   id="path118"
   inkscape:connector-curvature="0"
   style="fill:#6fccf4" />
	<path
   d="m 289.925,21.31 c -0.518,0.463 -1.246,0.729 -2.045,0.729 -1.609,0 -2.787,-0.951 -3.418,-2.381 l 1.416,-0.518 c 0.393,0.883 1.121,1.387 2.002,1.387 0.869,0 1.457,-0.604 1.457,-1.387 0,-1.248 -1.457,-1.458 -2.676,-1.948 -0.559,-0.224 -1.807,-0.784 -1.807,-2.339 0,-1.835 1.248,-2.535 2.928,-2.535 1.316,0 2.213,0.756 2.676,1.919 l -1.316,0.392 c 0,0 -0.336,-0.798 -1.387,-0.826 -0.043,0 -0.07,0 -0.098,0 -0.645,0 -1.346,0.252 -1.346,0.994 0,0.028 0,0.07 0,0.099 0.127,1.736 4.539,0.588 4.539,4.272 10e-4,0.855 -0.335,1.611 -0.925,2.142 z"
   id="path120"
   inkscape:connector-curvature="0"
   style="fill:#6fccf4" />
</g>
</svg>