<?xml version="1.0" encoding="UTF-8" standalone="no"?>
<!-- Generator: Adobe Illustrator 15.1.0, SVG Export Plug-In . SVG Version: 6.00 Build 0)  -->

<svg
   xmlns:dc="http://purl.org/dc/elements/1.1/"
   xmlns:cc="http://creativecommons.org/ns#"
   xmlns:rdf="http://www.w3.org/1999/02/22-rdf-syntax-ns#"
   xmlns:svg="http://www.w3.org/2000/svg"
   xmlns="http://www.w3.org/2000/svg"
   xmlns:sodipodi="http://sodipodi.sourceforge.net/DTD/sodipodi-0.dtd"
   xmlns:inkscape="http://www.inkscape.org/namespaces/inkscape"
   version="1.1"
   id="svg3173"
   inkscape:version="0.48.2 r9819"
   sodipodi:docname="form-button-four-blue.svg"
   x="0px"
   y="0px"
   width="174.978"
   height="28.161999"
   viewBox="0 0 174.97799 28.161999"
   enable-background="new 0 0 218.723 35.203"
   xml:space="preserve"><metadata
   id="metadata3295"><rdf:RDF><cc:Work
       rdf:about=""><dc:format>image/svg+xml</dc:format><dc:type
         rdf:resource="http://purl.org/dc/dcmitype/StillImage" /></cc:Work></rdf:RDF></metadata><defs
   id="defs3293" />
<sodipodi:namedview
   fit-margin-left="0"
   fit-margin-bottom="0"
   showgrid="false"
   inkscape:current-layer="svg3173"
   inkscape:window-x="0"
   inkscape:cx="86.152244"
   pagecolor="#ffffff"
   inkscape:cy="15.02675"
   bordercolor="#666666"
   inkscape:zoom="0.23838384"
   guidetolerance="10"
   fit-margin-top="0"
   inkscape:window-width="640"
   inkscape:window-height="480"
   fit-margin-right="0"
   inkscape:window-maximized="0"
   inkscape:window-y="0"
   inkscape:pageshadow="2"
   borderopacity="1"
   id="namedview3175"
   inkscape:pageopacity="0"
   gridtolerance="10"
   objecttolerance="10">
	</sodipodi:namedview>
<g
   id="g3203"
   transform="translate(-22.189006,-4.219)">
	<linearGradient
   id="SVGID_1_"
   gradientUnits="userSpaceOnUse"
   x1="109.6782"
   y1="32.3806"
   x2="109.6782"
   y2="4.2195001">
		<stop
   offset="0"
   style="stop-color:#404041"
   id="stop3206" />
		<stop
   offset="0.3497"
   style="stop-color:#3D3C3D"
   id="stop3208" />
		<stop
   offset="0.6944"
   style="stop-color:#323031"
   id="stop3210" />
		<stop
   offset="1"
   style="stop-color:#231F20"
   id="stop3212" />
	</linearGradient>
	<path
   d="m 36.269,32.381 c -7.764,0 -14.08,-6.316 -14.08,-14.082 0,-7.763 6.316,-14.08 14.08,-14.08 h 146.816 c 7.766,0 14.082,6.316 14.082,14.08 0,7.766 -6.316,14.082 -14.082,14.082 H 36.269 z"
   id="path3214"
   inkscape:connector-curvature="0"
   style="fill:url(#SVGID_1_)" />
	<linearGradient
   id="SVGID_2_"
   gradientUnits="userSpaceOnUse"
   x1="109.6782"
   y1="30.1306"
   x2="109.6782"
   y2="6.4695001">
		<stop
   offset="0"
   style="stop-color:#231F20"
   id="stop3217" />
		<stop
   offset="0.3056"
   style="stop-color:#323031"
   id="stop3219" />
		<stop
   offset="0.6503"
   style="stop-color:#3D3C3D"
   id="stop3221" />
		<stop
   offset="1"
   style="stop-color:#404041"
   id="stop3223" />
	</linearGradient>
	<path
   d="m 194.917,18.299 c 0,6.535 -5.297,11.832 -11.832,11.832 H 36.269 c -6.533,0 -11.83,-5.297 -11.83,-11.832 l 0,0 c 0,-6.533 5.297,-11.83 11.83,-11.83 h 146.816 c 6.535,0 11.832,5.297 11.832,11.83 l 0,0 z"
   id="path3225"
   inkscape:connector-curvature="0"
   style="fill:url(#SVGID_2_)" />
	<linearGradient
   id="SVGID_3_"
   gradientUnits="userSpaceOnUse"
   x1="24.438499"
   y1="12.4958"
   x2="194.91701"
   y2="12.4958">
		<stop
   offset="0"
   style="stop-color:#231F20"
   id="stop3228" />
		<stop
   offset="0.0732"
   style="stop-color:#333E46"
   id="stop3230" />
		<stop
   offset="0.2296"
   style="stop-color:#537D90"
   id="stop3232" />
		<stop
   offset="0.3593"
   style="stop-color:#6AABC7"
   id="stop3234" />
		<stop
   offset="0.4556"
   style="stop-color:#79C7E9"
   id="stop3236" />
		<stop
   offset="0.5078"
   style="stop-color:#7ED2F6"
   id="stop3238" />
		<stop
   offset="1"
   style="stop-color:#231F20"
   id="stop3240" />
	</linearGradient>
	<path
   d="m 36.269,6.918 h 146.816 c 6.459,0 11.701,5.176 11.82,11.605 0,-0.074 0.012,-0.148 0.012,-0.225 0,-6.533 -5.297,-11.83 -11.832,-11.83 H 36.269 c -6.533,0 -11.83,5.297 -11.83,11.83 0,0.076 0.009,0.15 0.012,0.225 C 24.57,12.094 29.812,6.918 36.269,6.918 z"
   id="path3242"
   inkscape:connector-curvature="0"
   style="fill:url(#SVGID_3_)" />
	
		<linearGradient
   id="SVGID_4_"
   gradientUnits="userSpaceOnUse"
   x1="24.438499"
   y1="261.59161"
   x2="194.91701"
   y2="261.59161"
   gradientTransform="matrix(1,0,0,-1,0,286.1421)">
		<stop
   offset="0"
   style="stop-color:#231F20"
   id="stop3245" />
		<stop
   offset="0.0732"
   style="stop-color:#333E46"
   id="stop3247" />
		<stop
   offset="0.2296"
   style="stop-color:#537D90"
   id="stop3249" />
		<stop
   offset="0.3593"
   style="stop-color:#6AABC7"
   id="stop3251" />
		<stop
   offset="0.4556"
   style="stop-color:#79C7E9"
   id="stop3253" />
		<stop
   offset="0.5078"
   style="stop-color:#7ED2F6"
   id="stop3255" />
		<stop
   offset="1"
   style="stop-color:#231F20"
   id="stop3257" />
	</linearGradient>
	<path
   d="m 36.269,30.129 h 146.816 c 6.459,0 11.701,-5.176 11.82,-11.605 0,0.074 0.012,0.148 0.012,0.225 0,6.533 -5.297,11.83 -11.832,11.83 H 36.269 c -6.533,0 -11.83,-5.297 -11.83,-11.83 0,-0.076 0.009,-0.15 0.012,-0.225 0.119,6.429 5.361,11.605 11.818,11.605 z"
   id="path3259"
   inkscape:connector-curvature="0"
   style="fill:url(#SVGID_4_)" />
</g>
<g
   id="g3261"
   transform="translate(-22.189006,-4.219)">
	<path
   d="m 55.547,22.396 -0.925,-2.635 h -2.927 l -0.925,2.635 h -1.583 l 3.236,-9.385 h 1.471 l 3.236,9.385 h -1.583 z m -2.367,-6.78 -0.966,2.633 h 1.877 L 53.18,15.616 z"
   id="path3263"
   inkscape:connector-curvature="0"
   style="fill:#6fccf4" />
	<path
   d="m 63.274,21.863 c -0.35,0.336 -0.854,0.504 -1.345,0.533 -0.098,0 -0.294,0 -0.532,0 H 58.54 v -9.385 h 3.025 c 0.953,0 1.317,0.098 1.821,0.49 0.98,0.854 1.541,2.339 1.541,4.188 10e-4,1.877 -0.588,3.362 -1.653,4.174 z m -0.616,-6.975 c -0.238,-0.225 -0.56,-0.393 -0.953,-0.393 h -1.681 v 6.387 h 1.485 c 0.49,0 0.784,-0.098 1.05,-0.363 0.561,-0.561 0.854,-1.584 0.854,-2.831 0.002,-1.259 -0.292,-2.31 -0.755,-2.8 z"
   id="path3265"
   inkscape:connector-curvature="0"
   style="fill:#6fccf4" />
	<path
   d="m 71.702,21.863 c -0.35,0.336 -0.854,0.504 -1.345,0.533 -0.098,0 -0.294,0 -0.532,0 h -2.857 v -9.385 h 3.025 c 0.953,0 1.317,0.098 1.821,0.49 0.98,0.854 1.541,2.339 1.541,4.188 0,1.877 -0.588,3.362 -1.653,4.174 z m -0.616,-6.975 c -0.238,-0.225 -0.56,-0.393 -0.953,-0.393 h -1.681 v 6.387 h 1.485 c 0.49,0 0.784,-0.098 1.05,-0.363 0.561,-0.561 0.854,-1.584 0.854,-2.831 0.001,-1.259 -0.293,-2.31 -0.755,-2.8 z"
   id="path3267"
   inkscape:connector-curvature="0"
   style="fill:#6fccf4" />
	<path
   d="m 81.852,22.564 c -1.387,0 -2.269,-0.533 -2.872,-1.682 -0.42,-0.826 -0.687,-2.018 -0.687,-3.194 0,-1.484 0.393,-2.969 1.051,-3.796 0.56,-0.687 1.345,-1.05 2.409,-1.05 1.415,0 2.297,0.602 2.928,1.919 l -1.387,0.588 c -0.519,-0.798 -0.827,-0.994 -1.541,-0.994 -0.756,0 -1.261,0.336 -1.583,1.162 -0.238,0.561 -0.364,1.373 -0.364,2.171 0,1.024 0.224,2.045 0.588,2.633 0.336,0.49 0.757,0.729 1.415,0.729 0.63,0 1.093,-0.336 1.457,-1.092 l 1.415,0.531 c -0.56,1.374 -1.485,2.075 -2.829,2.075 z"
   id="path3269"
   inkscape:connector-curvature="0"
   style="fill:#6fccf4" />
	<path
   d="m 86.722,22.396 v -9.385 h 1.485 v 7.999 h 4.342 v 1.387 h -5.827 z"
   id="path3271"
   inkscape:connector-curvature="0"
   style="fill:#6fccf4" />
	<path
   d="m 99.367,21.513 c -0.532,0.715 -1.289,1.051 -2.27,1.051 -1.316,0 -2.143,-0.533 -2.703,-1.682 -0.393,-0.799 -0.659,-2.045 -0.659,-3.166 0,-1.541 0.393,-2.928 1.023,-3.824 0.56,-0.714 1.316,-1.05 2.395,-1.05 1.191,0 2.017,0.532 2.605,1.681 0.392,0.826 0.63,2.017 0.63,3.193 10e-4,1.487 -0.363,2.971 -1.021,3.797 z m -1.023,-6.429 c -0.294,-0.49 -0.659,-0.687 -1.219,-0.729 -0.028,0 -0.056,0 -0.084,0 -0.672,0 -1.121,0.364 -1.429,1.162 -0.238,0.561 -0.364,1.415 -0.364,2.199 0,0.996 0.196,2.017 0.56,2.605 0.294,0.49 0.687,0.729 1.289,0.729 0.687,0 1.121,-0.363 1.443,-1.189 0.196,-0.49 0.364,-1.416 0.364,-2.144 0,-1.051 -0.196,-2.003 -0.56,-2.633 z"
   id="path3273"
   inkscape:connector-curvature="0"
   style="fill:#6fccf4" />
	<path
   d="m 108.411,20.98 c -0.49,0.926 -1.611,1.584 -2.759,1.584 -1.149,0 -2.27,-0.658 -2.773,-1.584 -0.252,-0.559 -0.42,-1.219 -0.42,-1.945 v -6.024 h 1.485 v 6.024 c 0,1.217 0.687,2.016 1.709,2.016 1.022,0 1.709,-0.799 1.709,-2.016 v -6.024 h 1.484 v 6.024 c -0.001,0.726 -0.169,1.387 -0.435,1.945 z"
   id="path3275"
   inkscape:connector-curvature="0"
   style="fill:#6fccf4" />
	<path
   d="m 115.816,21.863 c -0.351,0.336 -0.855,0.504 -1.346,0.533 -0.098,0 -0.293,0 -0.531,0 h -2.857 v -9.385 h 3.025 c 0.952,0 1.316,0.098 1.82,0.49 0.98,0.854 1.541,2.339 1.541,4.188 10e-4,1.877 -0.587,3.362 -1.652,4.174 z m -0.617,-6.975 c -0.238,-0.225 -0.56,-0.393 -0.952,-0.393 h -1.681 v 6.387 h 1.484 c 0.49,0 0.785,-0.098 1.051,-0.363 0.561,-0.561 0.854,-1.584 0.854,-2.831 0.001,-1.259 -0.293,-2.31 -0.756,-2.8 z"
   id="path3277"
   inkscape:connector-curvature="0"
   style="fill:#6fccf4" />
	<path
   d="m 127.407,21.836 c -0.518,0.463 -1.246,0.729 -2.045,0.729 -1.61,0 -2.787,-0.953 -3.417,-2.381 l 1.414,-0.52 c 0.393,0.883 1.121,1.387 2.003,1.387 0.869,0 1.457,-0.602 1.457,-1.387 0,-1.246 -1.457,-1.457 -2.676,-1.947 -0.56,-0.224 -1.807,-0.784 -1.807,-2.339 0,-1.835 1.247,-2.535 2.928,-2.535 1.316,0 2.213,0.756 2.675,1.919 l -1.316,0.392 c 0,0 -0.336,-0.798 -1.387,-0.826 -0.042,0 -0.07,0 -0.098,0 -0.645,0 -1.345,0.252 -1.345,0.994 0,0.028 0,0.07 0,0.099 0.126,1.736 4.538,0.588 4.538,4.273 0.001,0.853 -0.335,1.608 -0.924,2.142 z"
   id="path3279"
   inkscape:connector-curvature="0"
   style="fill:#6fccf4" />
	<path
   d="m 129.911,22.396 v -9.385 h 5.532 v 1.484 h -4.048 v 2.297 h 2.731 v 1.514 h -2.731 v 2.576 h 4.342 v 1.514 h -5.826 z"
   id="path3281"
   inkscape:connector-curvature="0"
   style="fill:#6fccf4" />
	<path
   d="m 142.094,22.396 -1.513,-4.09 h -1.779 v 4.09 h -1.484 v -9.385 h 3.095 c 0.729,0 1.219,0.069 1.682,0.294 0.826,0.393 1.414,1.387 1.414,2.339 0,0.995 -0.588,1.976 -1.456,2.367 l 1.652,4.385 h -1.611 z m -0.658,-7.733 c -0.253,-0.14 -0.364,-0.168 -0.854,-0.168 h -1.779 v 2.297 h 1.779 c 0.462,0 0.616,-0.027 0.854,-0.153 0.364,-0.21 0.588,-0.603 0.588,-0.995 -0.001,-0.392 -0.224,-0.784 -0.588,-0.981 z"
   id="path3283"
   inkscape:connector-curvature="0"
   style="fill:#6fccf4" />
	<path
   d="m 148.574,22.396 h -1.148 l -2.97,-9.385 h 1.555 l 2.004,6.26 1.975,-6.26 h 1.583 l -2.999,9.385 z"
   id="path3285"
   inkscape:connector-curvature="0"
   style="fill:#6fccf4" />
	<path
   d="m 152.954,22.396 v -9.385 h 1.514 v 9.385 h -1.514 z"
   id="path3287"
   inkscape:connector-curvature="0"
   style="fill:#6fccf4" />
	<path
   d="m 160.068,22.564 c -1.387,0 -2.27,-0.533 -2.871,-1.682 -0.421,-0.826 -0.687,-2.018 -0.687,-3.194 0,-1.484 0.392,-2.969 1.05,-3.796 0.561,-0.687 1.345,-1.05 2.41,-1.05 1.414,0 2.297,0.602 2.927,1.919 l -1.387,0.588 c -0.518,-0.798 -0.826,-0.994 -1.54,-0.994 -0.757,0 -1.261,0.336 -1.583,1.162 -0.238,0.561 -0.364,1.373 -0.364,2.171 0,1.024 0.224,2.045 0.588,2.633 0.337,0.49 0.757,0.729 1.415,0.729 0.63,0 1.093,-0.336 1.457,-1.092 l 1.414,0.531 c -0.559,1.374 -1.484,2.075 -2.829,2.075 z"
   id="path3289"
   inkscape:connector-curvature="0"
   style="fill:#6fccf4" />
	<path
   d="m 164.938,22.396 v -9.385 h 5.532 v 1.484 h -4.048 v 2.297 h 2.731 v 1.514 h -2.731 v 2.576 h 4.342 v 1.514 h -5.826 z"
   id="path3291"
   inkscape:connector-curvature="0"
   style="fill:#6fccf4" />
</g>
</svg>