<?xml version="1.0" encoding="UTF-8" standalone="no"?>
<!-- Generator: Adobe Illustrator 15.1.0, SVG Export Plug-In . SVG Version: 6.00 Build 0)  -->

<svg
   xmlns:dc="http://purl.org/dc/elements/1.1/"
   xmlns:cc="http://creativecommons.org/ns#"
   xmlns:rdf="http://www.w3.org/1999/02/22-rdf-syntax-ns#"
   xmlns:svg="http://www.w3.org/2000/svg"
   xmlns="http://www.w3.org/2000/svg"
   xmlns:sodipodi="http://sodipodi.sourceforge.net/DTD/sodipodi-0.dtd"
   xmlns:inkscape="http://www.inkscape.org/namespaces/inkscape"
   version="1.1"
   id="svg3271"
   inkscape:version="0.48.2 r9819"
   sodipodi:docname="form-button-one-blue.svg"
   x="0px"
   y="0px"
   width="212.039"
   height="28.161999"
   viewBox="0 0 212.03899 28.161999"
   enable-background="new 0 0 265.049 35.203"
   xml:space="preserve"><metadata
   id="metadata3401"><rdf:RDF><cc:Work
       rdf:about=""><dc:format>image/svg+xml</dc:format><dc:type
         rdf:resource="http://purl.org/dc/dcmitype/StillImage" /></cc:Work></rdf:RDF></metadata><defs
   id="defs3399" />
<sodipodi:namedview
   fit-margin-left="0"
   fit-margin-bottom="0"
   showgrid="false"
   inkscape:current-layer="svg3271"
   inkscape:window-x="0"
   inkscape:cx="94.397991"
   pagecolor="#ffffff"
   inkscape:cy="-13.782288"
   bordercolor="#666666"
   inkscape:zoom="1.0196418"
   guidetolerance="10"
   fit-margin-top="0"
   inkscape:window-width="640"
   inkscape:window-height="480"
   fit-margin-right="0"
   inkscape:window-maximized="0"
   inkscape:window-y="0"
   inkscape:pageshadow="2"
   borderopacity="1"
   id="namedview3273"
   inkscape:pageopacity="0"
   gridtolerance="10"
   objecttolerance="10">
	</sodipodi:namedview>
<linearGradient
   id="SVGID_1_"
   gradientUnits="userSpaceOnUse"
   x1="135.37109"
   y1="31.908001"
   x2="135.37109"
   y2="3.7463"
   gradientTransform="translate(-29.352009,-3.746)">
	<stop
   offset="0"
   style="stop-color:#404041"
   id="stop3300" />
	<stop
   offset="0.3497"
   style="stop-color:#3D3C3D"
   id="stop3302" />
	<stop
   offset="0.6944"
   style="stop-color:#323031"
   id="stop3304" />
	<stop
   offset="1"
   style="stop-color:#231F20"
   id="stop3306" />
</linearGradient>
<path
   d="M 14.079991,28.162 C 6.3159911,28.162 -8.9469244e-6,21.846 -8.9469244e-6,14.08 -8.9469244e-6,6.316 6.3159911,0 14.079991,0 H 197.95699 c 7.766,0 14.082,6.316 14.082,14.08 0,7.766 -6.316,14.082 -14.082,14.082"
   id="path3308"
   inkscape:connector-curvature="0"
   style="fill:url(#SVGID_1_)" />
<linearGradient
   id="SVGID_2_"
   gradientUnits="userSpaceOnUse"
   x1="135.37109"
   y1="29.658001"
   x2="135.37109"
   y2="5.9963002"
   gradientTransform="translate(-29.352009,-3.746)">
	<stop
   offset="0"
   style="stop-color:#231F20"
   id="stop3311" />
	<stop
   offset="0.3056"
   style="stop-color:#323031"
   id="stop3313" />
	<stop
   offset="0.6503"
   style="stop-color:#3D3C3D"
   id="stop3315" />
	<stop
   offset="1"
   style="stop-color:#404041"
   id="stop3317" />
</linearGradient>
<path
   d="m 209.78899,14.08 c 0,6.535 -5.297,11.832 -11.832,11.832 H 14.079991 C 7.5469911,25.912 2.2499911,20.615 2.2499911,14.08 l 0,0 c 0,-6.533 5.297,-11.83 11.8299999,-11.83 H 197.95699 c 6.535,0 11.832,5.297 11.832,11.83 l 0,0 z"
   id="path3319"
   inkscape:connector-curvature="0"
   style="fill:url(#SVGID_2_)" />
<linearGradient
   id="SVGID_3_"
   gradientUnits="userSpaceOnUse"
   x1="31.601601"
   y1="12.0232"
   x2="239.14059"
   y2="12.0232"
   gradientTransform="translate(-29.352009,-3.746)">
	<stop
   offset="0"
   style="stop-color:#231F20"
   id="stop3322" />
	<stop
   offset="0.0732"
   style="stop-color:#333E46"
   id="stop3324" />
	<stop
   offset="0.2296"
   style="stop-color:#537D90"
   id="stop3326" />
	<stop
   offset="0.3593"
   style="stop-color:#6AABC7"
   id="stop3328" />
	<stop
   offset="0.4556"
   style="stop-color:#79C7E9"
   id="stop3330" />
	<stop
   offset="0.5078"
   style="stop-color:#7ED2F6"
   id="stop3332" />
	<stop
   offset="1"
   style="stop-color:#231F20"
   id="stop3334" />
</linearGradient>
<path
   d="M 14.079991,2.699 H 197.95699 c 6.459,0 11.701,5.176 11.82,11.605 0,-0.074 0.012,-0.148 0.012,-0.225 0,-6.533 -5.297,-11.83 -11.832,-11.83 H 14.079991 c -6.5329999,0 -11.8299999,5.297 -11.8299999,11.83 0,0.076 0.009,0.15 0.012,0.225 0.119,-6.429 5.361,-11.605 11.8179999,-11.605 z"
   id="path3336"
   inkscape:connector-curvature="0"
   style="fill:url(#SVGID_3_)" />
<linearGradient
   id="SVGID_4_"
   gradientUnits="userSpaceOnUse"
   x1="31.601601"
   y1="262.06421"
   x2="239.14059"
   y2="262.06421"
   gradientTransform="matrix(1,0,0,-1,-29.352009,282.3961)">
	<stop
   offset="0"
   style="stop-color:#231F20"
   id="stop3339" />
	<stop
   offset="0.0732"
   style="stop-color:#333E46"
   id="stop3341" />
	<stop
   offset="0.2296"
   style="stop-color:#537D90"
   id="stop3343" />
	<stop
   offset="0.3593"
   style="stop-color:#6AABC7"
   id="stop3345" />
	<stop
   offset="0.4556"
   style="stop-color:#79C7E9"
   id="stop3347" />
	<stop
   offset="0.5078"
   style="stop-color:#7ED2F6"
   id="stop3349" />
	<stop
   offset="1"
   style="stop-color:#231F20"
   id="stop3351" />
</linearGradient>
<path
   d="M 14.079991,25.91 H 197.95699 c 6.459,0 11.701,-5.176 11.82,-11.605 0,0.074 0.012,0.148 0.012,0.225 0,6.533 -5.297,11.83 -11.832,11.83 H 14.079991 c -6.5329999,0 -11.8299999,-5.297 -11.8299999,-11.83 0,-0.076 0.009,-0.15 0.012,-0.225 0.119,6.429 5.361,11.605 11.8179999,11.605 z"
   id="path3353"
   inkscape:connector-curvature="0"
   style="fill:url(#SVGID_4_)" />
<g
   id="g3355"
   transform="translate(-29.352009,-3.746)">
	<path
   d="m 58.562,20.508 c -0.49,0.925 -1.611,1.583 -2.759,1.583 -1.149,0 -2.27,-0.658 -2.773,-1.583 -0.252,-0.56 -0.42,-1.219 -0.42,-1.946 v -6.023 h 1.485 v 6.023 c 0,1.218 0.687,2.017 1.709,2.017 1.022,0 1.709,-0.799 1.709,-2.017 v -6.023 h 1.485 v 6.023 c -0.002,0.727 -0.17,1.386 -0.436,1.946 z"
   id="path3357"
   inkscape:connector-curvature="0"
   style="fill:#6fccf4" />
	<path
   d="m 66.037,21.362 c -0.519,0.463 -1.247,0.729 -2.045,0.729 -1.611,0 -2.787,-0.952 -3.417,-2.381 l 1.415,-0.519 c 0.392,0.883 1.121,1.387 2.003,1.387 0.869,0 1.457,-0.603 1.457,-1.387 0,-1.247 -1.457,-1.457 -2.675,-1.947 -0.561,-0.224 -1.807,-0.784 -1.807,-2.339 0,-1.835 1.247,-2.535 2.928,-2.535 1.316,0 2.213,0.756 2.675,1.919 l -1.317,0.392 c 0,0 -0.336,-0.798 -1.387,-0.826 -0.042,0 -0.07,0 -0.098,0 -0.644,0 -1.345,0.252 -1.345,0.994 0,0.028 0,0.07 0,0.099 0.126,1.736 4.539,0.588 4.539,4.272 -0.002,0.854 -0.338,1.61 -0.926,2.142 z"
   id="path3359"
   inkscape:connector-curvature="0"
   style="fill:#6fccf4" />
	<path
   d="m 68.54,21.923 v -9.385 h 5.533 v 1.484 h -4.048 v 2.297 h 2.731 v 1.514 h -2.731 v 2.577 h 4.342 v 1.513 H 68.54 z"
   id="path3361"
   inkscape:connector-curvature="0"
   style="fill:#6fccf4" />
	<path
   d="m 83.915,21.698 c -0.336,0.127 -0.896,0.225 -1.316,0.225 H 79.04 v -9.385 h 3.558 c 1.485,0 2.605,1.022 2.605,2.367 0,0.924 -0.434,1.61 -1.316,2.115 0.98,0.462 1.541,1.246 1.541,2.269 0,1.023 -0.631,2.046 -1.513,2.409 z m -1.219,-7.676 h -2.171 v 2.297 h 1.779 c 0.42,0 0.616,-0.056 0.883,-0.252 0.336,-0.266 0.532,-0.658 0.532,-1.092 0,-0.631 -0.365,-0.953 -1.023,-0.953 z m 0.322,3.88 c -0.196,-0.069 -0.294,-0.069 -0.616,-0.069 h -1.877 v 2.577 h 2.241 c 0.756,0 1.148,-0.364 1.148,-1.093 0.001,-0.616 -0.364,-1.219 -0.896,-1.415 z"
   id="path3363"
   inkscape:connector-curvature="0"
   style="fill:#6fccf4" />
	<path
   d="m 91.782,21.923 -1.513,-4.09 H 88.49 v 4.09 h -1.485 v -9.385 h 3.096 c 0.729,0 1.219,0.069 1.681,0.294 0.827,0.393 1.415,1.387 1.415,2.339 0,0.995 -0.588,1.976 -1.457,2.367 l 1.653,4.385 H 91.782 z M 91.124,14.19 C 90.872,14.05 90.76,14.022 90.27,14.022 h -1.779 v 2.297 h 1.779 c 0.462,0 0.616,-0.027 0.854,-0.153 0.364,-0.21 0.588,-0.603 0.588,-0.995 0,-0.392 -0.224,-0.785 -0.588,-0.981 z"
   id="path3365"
   inkscape:connector-curvature="0"
   style="fill:#6fccf4" />
	<path
   d="m 100.407,21.04 c -0.532,0.715 -1.289,1.051 -2.27,1.051 -1.316,0 -2.143,-0.532 -2.703,-1.681 -0.393,-0.799 -0.659,-2.045 -0.659,-3.166 0,-1.541 0.393,-2.928 1.023,-3.824 0.56,-0.714 1.316,-1.05 2.395,-1.05 1.191,0 2.017,0.532 2.605,1.681 0.392,0.826 0.63,2.017 0.63,3.193 0.001,1.485 -0.363,2.97 -1.021,3.796 z m -1.023,-6.429 c -0.294,-0.49 -0.659,-0.687 -1.219,-0.729 -0.028,0 -0.056,0 -0.084,0 -0.672,0 -1.121,0.364 -1.429,1.162 -0.238,0.561 -0.364,1.415 -0.364,2.199 0,0.995 0.196,2.018 0.56,2.605 0.294,0.49 0.687,0.729 1.289,0.729 0.687,0 1.121,-0.364 1.443,-1.19 0.196,-0.49 0.364,-1.415 0.364,-2.144 0,-1.05 -0.196,-2.002 -0.56,-2.632 z"
   id="path3367"
   inkscape:connector-curvature="0"
   style="fill:#6fccf4" />
	<path
   d="m 109.619,21.923 h -1.316 l -1.485,-6.023 -1.443,6.023 h -1.317 l -1.387,-9.385 h 1.513 l 0.728,4.944 1.191,-4.944 h 1.443 l 1.219,4.944 0.728,-4.944 h 1.513 l -1.387,9.385 z"
   id="path3369"
   inkscape:connector-curvature="0"
   style="fill:#6fccf4" />
	<path
   d="m 117.192,21.362 c -0.519,0.463 -1.247,0.729 -2.045,0.729 -1.611,0 -2.787,-0.952 -3.417,-2.381 l 1.415,-0.519 c 0.392,0.883 1.121,1.387 2.003,1.387 0.869,0 1.457,-0.603 1.457,-1.387 0,-1.247 -1.457,-1.457 -2.675,-1.947 -0.561,-0.224 -1.807,-0.784 -1.807,-2.339 0,-1.835 1.247,-2.535 2.928,-2.535 1.316,0 2.213,0.756 2.675,1.919 l -1.317,0.392 c 0,0 -0.336,-0.798 -1.387,-0.826 -0.042,0 -0.07,0 -0.098,0 -0.644,0 -1.345,0.252 -1.345,0.994 0,0.028 0,0.07 0,0.099 0.126,1.736 4.539,0.588 4.539,4.272 -0.002,0.854 -0.338,1.61 -0.926,2.142 z"
   id="path3371"
   inkscape:connector-curvature="0"
   style="fill:#6fccf4" />
	<path
   d="m 119.695,21.923 v -9.385 h 5.533 v 1.484 h -4.048 v 2.297 h 2.731 v 1.514 h -2.731 v 2.577 h 4.342 v 1.513 h -5.827 z"
   id="path3373"
   inkscape:connector-curvature="0"
   style="fill:#6fccf4" />
	<path
   d="m 131.877,21.923 -1.513,-4.09 h -1.779 v 4.09 H 127.1 v -9.385 h 3.096 c 0.729,0 1.219,0.069 1.681,0.294 0.827,0.393 1.415,1.387 1.415,2.339 0,0.995 -0.588,1.976 -1.457,2.367 l 1.653,4.385 h -1.611 z m -0.658,-7.733 c -0.252,-0.14 -0.364,-0.168 -0.854,-0.168 h -1.779 v 2.297 h 1.779 c 0.462,0 0.616,-0.027 0.854,-0.153 0.364,-0.21 0.588,-0.603 0.588,-0.995 0.001,-0.392 -0.224,-0.785 -0.588,-0.981 z"
   id="path3375"
   inkscape:connector-curvature="0"
   style="fill:#6fccf4" />
	<path
   d="m 141.382,22.091 c -1.414,0 -2.24,-0.532 -2.801,-1.709 -0.393,-0.826 -0.617,-1.989 -0.617,-3.138 0,-1.513 0.421,-2.997 1.051,-3.824 0.561,-0.687 1.346,-1.05 2.41,-1.05 1.442,0 2.297,0.602 2.928,2.072 l -1.416,0.561 c -0.392,-0.812 -0.798,-1.12 -1.512,-1.12 -0.757,0 -1.262,0.336 -1.583,1.162 -0.238,0.561 -0.364,1.415 -0.364,2.199 0,0.995 0.168,1.976 0.462,2.577 0.294,0.519 0.729,0.757 1.289,0.757 0.952,0 1.639,-0.603 1.639,-1.457 v -0.392 h -1.709 v -1.485 h 3.194 v 1.877 c 0,1.709 -1.248,2.97 -2.971,2.97 z"
   id="path3377"
   inkscape:connector-curvature="0"
   style="fill:#6fccf4" />
	<path
   d="m 146.393,21.923 v -9.385 h 5.533 v 1.484 h -4.048 v 2.297 h 2.73 v 1.514 h -2.73 v 2.577 h 4.342 v 1.513 h -5.827 z"
   id="path3379"
   inkscape:connector-curvature="0"
   style="fill:#6fccf4" />
	<path
   d="m 159.233,21.04 c -0.532,0.715 -1.289,1.051 -2.27,1.051 -1.316,0 -2.143,-0.532 -2.703,-1.681 -0.393,-0.799 -0.658,-2.045 -0.658,-3.166 0,-1.541 0.392,-2.928 1.022,-3.824 0.561,-0.714 1.316,-1.05 2.396,-1.05 1.19,0 2.017,0.532 2.604,1.681 0.393,0.826 0.631,2.017 0.631,3.193 0.001,1.485 -0.363,2.97 -1.022,3.796 z m -1.022,-6.429 c -0.294,-0.49 -0.658,-0.687 -1.219,-0.729 -0.028,0 -0.057,0 -0.084,0 -0.673,0 -1.121,0.364 -1.429,1.162 -0.238,0.561 -0.364,1.415 -0.364,2.199 0,0.995 0.196,2.018 0.561,2.605 0.294,0.49 0.686,0.729 1.288,0.729 0.687,0 1.121,-0.364 1.443,-1.19 0.195,-0.49 0.364,-1.415 0.364,-2.144 0,-1.05 -0.196,-2.002 -0.56,-2.632 z"
   id="path3381"
   inkscape:connector-curvature="0"
   style="fill:#6fccf4" />
	<path
   d="m 162.324,21.923 v -9.385 h 1.485 v 7.998 h 4.343 v 1.387 h -5.828 z"
   id="path3383"
   inkscape:connector-curvature="0"
   style="fill:#6fccf4" />
	<path
   d="m 174.97,21.04 c -0.532,0.715 -1.289,1.051 -2.27,1.051 -1.316,0 -2.143,-0.532 -2.703,-1.681 -0.393,-0.799 -0.658,-2.045 -0.658,-3.166 0,-1.541 0.392,-2.928 1.022,-3.824 0.561,-0.714 1.316,-1.05 2.396,-1.05 1.19,0 2.017,0.532 2.604,1.681 0.393,0.826 0.631,2.017 0.631,3.193 0,1.485 -0.364,2.97 -1.022,3.796 z m -1.023,-6.429 c -0.294,-0.49 -0.658,-0.687 -1.219,-0.729 -0.028,0 -0.057,0 -0.084,0 -0.673,0 -1.121,0.364 -1.429,1.162 -0.238,0.561 -0.364,1.415 -0.364,2.199 0,0.995 0.196,2.018 0.561,2.605 0.294,0.49 0.686,0.729 1.288,0.729 0.687,0 1.121,-0.364 1.443,-1.19 0.195,-0.49 0.364,-1.415 0.364,-2.144 0.001,-1.05 -0.195,-2.002 -0.56,-2.632 z"
   id="path3385"
   inkscape:connector-curvature="0"
   style="fill:#6fccf4" />
	<path
   d="m 181.422,22.091 c -1.387,0 -2.27,-0.532 -2.871,-1.681 -0.421,-0.826 -0.687,-2.018 -0.687,-3.194 0,-1.484 0.392,-2.969 1.05,-3.796 0.561,-0.687 1.345,-1.05 2.41,-1.05 1.414,0 2.297,0.602 2.927,1.919 l -1.387,0.588 c -0.518,-0.798 -0.826,-0.994 -1.54,-0.994 -0.757,0 -1.261,0.336 -1.583,1.162 -0.238,0.561 -0.364,1.373 -0.364,2.171 0,1.023 0.224,2.046 0.588,2.634 0.336,0.49 0.757,0.729 1.415,0.729 0.63,0 1.093,-0.336 1.457,-1.093 l 1.414,0.532 c -0.56,1.372 -1.484,2.073 -2.829,2.073 z"
   id="path3387"
   inkscape:connector-curvature="0"
   style="fill:#6fccf4" />
	<path
   d="m 191.825,21.923 -0.924,-2.634 h -2.928 l -0.925,2.634 h -1.583 l 3.236,-9.385 h 1.471 l 3.235,9.385 h -1.582 z m -2.367,-6.78 -0.967,2.633 h 1.878 l -0.911,-2.633 z"
   id="path3389"
   inkscape:connector-curvature="0"
   style="fill:#6fccf4" />
	<path
   d="m 197.619,13.854 v 8.068 h -1.484 v -8.068 h -2.144 v -1.316 h 5.8 v 1.316 h -2.172 z"
   id="path3391"
   inkscape:connector-curvature="0"
   style="fill:#6fccf4" />
	<path
   d="m 201.174,21.923 v -9.385 h 1.514 v 9.385 h -1.514 z"
   id="path3393"
   inkscape:connector-curvature="0"
   style="fill:#6fccf4" />
	<path
   d="m 210.361,21.04 c -0.532,0.715 -1.289,1.051 -2.27,1.051 -1.316,0 -2.143,-0.532 -2.703,-1.681 -0.393,-0.799 -0.658,-2.045 -0.658,-3.166 0,-1.541 0.392,-2.928 1.022,-3.824 0.561,-0.714 1.316,-1.05 2.396,-1.05 1.19,0 2.017,0.532 2.605,1.681 0.392,0.826 0.63,2.017 0.63,3.193 10e-4,1.485 -0.363,2.97 -1.022,3.796 z m -1.022,-6.429 c -0.294,-0.49 -0.658,-0.687 -1.219,-0.729 -0.028,0 -0.056,0 -0.084,0 -0.673,0 -1.121,0.364 -1.429,1.162 -0.238,0.561 -0.364,1.415 -0.364,2.199 0,0.995 0.196,2.018 0.561,2.605 0.294,0.49 0.686,0.729 1.288,0.729 0.687,0 1.121,-0.364 1.443,-1.19 0.195,-0.49 0.364,-1.415 0.364,-2.144 0,-1.05 -0.196,-2.002 -0.56,-2.632 z"
   id="path3395"
   inkscape:connector-curvature="0"
   style="fill:#6fccf4" />
	<path
   d="m 218.522,21.923 -3.586,-6.359 v 6.359 h -1.485 v -9.385 h 1.485 l 3.418,5.995 v -5.995 h 1.484 v 9.385 h -1.316 z"
   id="path3397"
   inkscape:connector-curvature="0"
   style="fill:#6fccf4" />
</g>
</svg>